<?xml version="1.0" standalone="yes"?><svg version="1.1" xmlns = 'http://www.w3.org/2000/svg'><defs><font id='web' horiz-adv-x="1000">
<font-face font-family="web" descent="-410" cap-height="1518" units-per-em="2048" bbox="-170,-588,3025,2580" x-height="1161" ascent="1638" />
<missing-glyph horiz-adv-x="1024" d="" /><glyph horiz-adv-x="1276" d="M 61 823 L 1214 823 L 1214 541 L 61 541 L 61 823 Z" unicode="–" />
<glyph horiz-adv-x="1636" d="M 61 823 L 1577 823 L 1577 541 L 61 541 L 61 823 Z" unicode="—" />
<glyph horiz-adv-x="532" d="M 90 1137 C 90 1187 93 1231 99 1267 C 105 1303 118 1336 137 1364 C 155 1392 182 1419 216 1443 C 250 1467 296 1492 352 1520 L 436 1364 C 404 1346 378 1331 358 1319 C 338 1306 323 1293 313 1281 C 302 1269 295 1256 292 1242 C 288 1228 287 1210 287 1190 L 442 1190 L 442 815 L 90 815 L 90 1137 Z" unicode="‘" />
<glyph horiz-adv-x="532" d="M 96 969 C 128 986 153 1001 173 1014 C 193 1026 208 1039 219 1051 C 229 1063 236 1077 240 1091 C 244 1105 246 1122 246 1143 L 90 1143 L 90 1518 L 442 1518 L 442 1198 C 442 1146 439 1101 433 1065 C 427 1029 414 996 396 968 C 378 940 352 914 318 890 C 284 866 238 840 182 813 L 96 969 Z" unicode="’" />
<glyph horiz-adv-x="532" d="M 96 -174 C 128 -156 153 -141 173 -129 C 193 -116 208 -103 219 -91 C 229 -79 236 -66 240 -52 C 244 -38 246 -20 246 0 L 90 0 L 90 375 L 442 375 L 442 55 C 442 3 439 -41 433 -77 C 427 -113 414 -146 396 -174 C 378 -202 352 -229 318 -253 C 284 -277 238 -302 182 -330 L 96 -174 Z" unicode="‚" />
<glyph horiz-adv-x="973" d="M 90 1153 C 90 1203 93 1246 99 1281 C 105 1315 117 1346 135 1372 C 153 1398 178 1423 212 1446 C 246 1468 290 1493 346 1520 L 426 1372 C 394 1354 369 1339 350 1327 C 331 1314 316 1302 306 1290 C 296 1278 289 1265 286 1251 C 282 1237 281 1220 281 1200 L 434 1200 L 434 834 L 90 834 L 90 1153 Z M 541 1153 C 541 1203 543 1246 549 1281 C 555 1315 567 1346 585 1372 C 603 1398 628 1423 662 1446 C 695 1468 739 1493 795 1520 L 877 1372 C 845 1354 820 1339 801 1327 C 781 1314 766 1302 756 1290 C 745 1278 738 1265 734 1251 C 730 1237 729 1220 729 1200 L 883 1200 L 883 834 L 541 834 L 541 1153 Z" unicode="“" />
<glyph horiz-adv-x="973" d="M 96 979 C 127 995 152 1010 172 1023 C 191 1035 206 1048 217 1060 C 227 1072 234 1085 238 1099 C 242 1113 244 1129 244 1149 L 90 1149 L 90 1518 L 432 1518 L 432 1198 C 432 1146 429 1103 423 1069 C 417 1034 406 1003 388 977 C 370 950 344 925 311 903 C 277 881 233 857 178 831 L 96 979 Z M 549 979 C 580 995 605 1010 624 1023 C 642 1035 657 1048 667 1060 C 677 1072 683 1085 687 1099 C 690 1113 692 1129 692 1149 L 539 1149 L 539 1518 L 883 1518 L 883 1198 C 883 1146 880 1103 874 1069 C 868 1034 856 1003 838 977 C 820 950 794 925 760 903 C 726 881 682 857 627 831 L 549 979 Z" unicode="”" />
<glyph horiz-adv-x="973" d="M 96 -164 C 127 -147 152 -132 172 -120 C 191 -107 206 -95 217 -83 C 227 -71 234 -58 238 -44 C 242 -30 244 -13 244 6 L 90 6 L 90 375 L 432 375 L 432 55 C 432 3 429 -39 423 -74 C 417 -108 406 -139 388 -166 C 370 -192 344 -217 311 -239 C 277 -261 233 -285 178 -311 L 96 -164 Z M 549 -164 C 580 -147 605 -132 624 -120 C 642 -107 657 -95 667 -83 C 677 -71 683 -58 687 -44 C 690 -30 692 -13 692 6 L 539 6 L 539 375 L 883 375 L 883 55 C 883 3 880 -39 874 -74 C 868 -108 856 -139 838 -166 C 820 -192 794 -217 760 -239 C 726 -261 682 -285 627 -311 L 549 -164 Z" unicode="„" />
<glyph horiz-adv-x="348" d="" unicode=" " />
<glyph horiz-adv-x="707" d="M 176 360 L 528 360 L 528 0 L 176 0 L 176 360 Z M 186 1518 L 522 1518 L 494 473 L 213 473 L 186 1518 Z" unicode="!" />
<glyph horiz-adv-x="1044" d="M 141 1518 L 461 1518 L 446 803 L 156 803 L 141 1518 Z M 584 1518 L 903 1518 L 887 803 L 600 803 L 584 1518 Z" unicode="&#x22;" />
<glyph horiz-adv-x="1325" d="M 236 371 L 84 371 L 84 653 L 279 653 L 301 809 L 84 809 L 84 1090 L 344 1090 L 408 1518 L 700 1518 L 637 1090 L 791 1090 L 854 1518 L 1147 1518 L 1081 1090 L 1239 1090 L 1239 809 L 1040 809 L 1016 653 L 1239 653 L 1239 371 L 973 371 L 918 0 L 627 0 L 682 371 L 528 371 L 473 0 L 180 0 L 236 371 Z M 745 631 L 776 831 L 573 831 L 543 631 L 745 631 Z" unicode="#" />
<glyph horiz-adv-x="1153" d="M 438 0 C 396 4 357 9 321 17 C 285 25 250 34 218 46 C 185 58 154 71 125 87 C 95 103 67 121 39 141 L 184 373 C 204 359 227 345 255 331 C 282 317 312 304 345 292 C 377 280 412 271 450 264 C 488 257 527 254 567 254 C 609 254 644 257 672 265 C 700 273 722 284 738 299 C 754 313 765 331 771 353 C 777 374 780 398 780 426 C 780 454 775 478 767 498 C 759 518 745 536 727 552 C 709 567 685 581 657 594 C 628 606 593 619 553 633 C 513 646 474 659 436 671 C 398 683 362 697 329 713 C 295 729 264 747 236 767 C 208 787 184 812 164 841 C 144 869 128 903 117 942 C 105 980 100 1026 100 1079 C 100 1209 127 1308 183 1378 C 238 1447 322 1491 436 1509 L 436 1677 L 733 1677 L 733 1511 C 793 1501 848 1488 897 1472 C 946 1455 990 1436 1030 1415 L 889 1167 C 855 1184 813 1200 761 1216 C 709 1231 650 1239 584 1239 C 549 1239 520 1235 497 1229 C 474 1222 456 1212 442 1200 C 428 1187 418 1171 412 1153 C 406 1134 403 1113 403 1090 C 403 1065 407 1044 416 1026 C 425 1008 439 993 458 979 C 476 965 500 952 529 940 C 558 928 593 917 633 905 C 669 893 706 882 743 870 C 779 858 814 843 848 827 C 881 811 912 792 941 770 C 969 748 994 723 1015 693 C 1036 663 1053 628 1065 588 C 1077 548 1083 501 1083 449 C 1083 384 1076 326 1064 276 C 1052 226 1032 182 1004 146 C 976 109 940 79 896 56 C 852 32 797 16 733 6 L 733 -190 L 438 -190 L 438 0 Z" unicode="$" />
<glyph horiz-adv-x="2185" d="M 465 528 C 397 528 338 536 287 554 C 235 572 192 600 158 640 C 123 679 97 731 79 795 C 61 859 53 937 53 1030 C 53 1122 61 1201 79 1265 C 97 1329 123 1380 158 1420 C 192 1459 235 1487 287 1505 C 338 1523 397 1532 465 1532 C 532 1532 592 1523 644 1505 C 696 1487 739 1459 774 1420 C 809 1380 836 1329 854 1265 C 872 1201 881 1122 881 1030 C 881 937 872 859 854 795 C 836 731 809 679 774 640 C 739 600 696 572 644 554 C 592 536 532 528 465 528 Z M 467 758 C 492 758 513 762 531 770 C 549 778 563 793 574 813 C 585 833 593 860 598 894 C 603 928 606 970 606 1022 C 606 1072 603 1115 598 1149 C 593 1183 585 1210 574 1230 C 563 1250 549 1265 531 1273 C 513 1281 492 1286 467 1286 C 441 1286 420 1281 402 1273 C 384 1265 370 1250 359 1230 C 348 1210 340 1183 335 1149 C 330 1115 328 1072 328 1022 C 328 970 330 928 335 894 C 340 860 348 833 359 813 C 370 793 384 778 402 770 C 420 762 441 758 467 758 Z M 1716 -14 C 1648 -14 1589 -5 1538 12 C 1486 30 1443 58 1409 98 C 1374 137 1348 189 1331 253 C 1313 317 1305 395 1305 489 C 1305 581 1313 659 1331 723 C 1348 787 1374 838 1409 878 C 1443 918 1486 946 1538 964 C 1589 982 1648 991 1716 991 C 1784 991 1844 982 1896 964 C 1948 946 1991 918 2026 878 C 2061 838 2087 787 2105 723 C 2123 659 2132 581 2132 489 C 2132 395 2123 317 2105 253 C 2087 189 2061 137 2026 98 C 1991 58 1948 30 1896 12 C 1844 -5 1784 -14 1716 -14 Z M 1718 215 C 1744 215 1766 219 1784 227 C 1802 235 1816 250 1828 270 C 1839 290 1847 318 1852 352 C 1857 386 1860 428 1860 479 C 1860 530 1857 573 1852 607 C 1847 641 1839 668 1828 688 C 1816 708 1802 722 1784 730 C 1766 738 1744 743 1718 743 C 1692 743 1671 738 1653 730 C 1635 722 1621 708 1610 688 C 1599 668 1591 641 1586 607 C 1581 573 1579 530 1579 479 C 1579 428 1581 386 1586 352 C 1591 318 1599 290 1610 270 C 1621 250 1635 235 1653 227 C 1671 219 1692 215 1718 215 Z M 1300 1518 L 1587 1518 L 887 0 L 602 0 L 1300 1518 Z" unicode="%" />
<glyph horiz-adv-x="1489" d="M 586 -16 C 498 -16 420 -8 354 8 C 287 24 231 49 187 84 C 142 118 108 163 86 218 C 64 273 53 340 53 418 C 53 475 60 525 75 569 C 90 612 111 650 137 684 C 163 718 194 748 229 774 C 264 800 302 824 342 846 C 310 896 285 947 267 1000 C 249 1052 240 1108 240 1167 C 240 1233 249 1289 267 1337 C 285 1385 312 1424 347 1456 C 381 1487 423 1510 473 1525 C 522 1540 577 1548 639 1548 C 700 1548 755 1540 803 1526 C 851 1512 891 1489 924 1458 C 956 1427 981 1388 998 1340 C 1015 1292 1024 1234 1024 1167 C 1024 1117 1016 1073 1002 1034 C 988 994 968 958 944 926 C 920 894 892 865 860 839 C 828 813 794 789 760 768 C 773 752 787 737 801 722 C 815 706 830 690 846 674 L 1006 498 C 1028 556 1046 623 1059 698 C 1072 773 1084 856 1096 948 L 1356 918 C 1341 786 1322 666 1299 560 C 1275 454 1242 361 1198 283 L 1456 0 L 1073 0 L 1004 78 C 951 46 890 23 822 7 C 754 -8 675 -16 586 -16 Z M 586 238 C 634 238 677 241 715 249 C 753 256 788 267 819 283 L 604 522 C 585 541 567 561 550 581 C 532 601 515 621 498 641 C 478 627 460 612 443 597 C 426 581 411 565 399 548 C 387 531 377 513 370 494 C 363 475 360 454 360 432 C 360 408 362 384 366 361 C 370 337 380 317 396 299 C 411 281 434 266 464 255 C 494 243 534 238 586 238 Z M 539 1167 C 539 1132 544 1098 555 1066 C 566 1034 582 1001 604 967 C 644 993 676 1023 702 1055 C 728 1087 741 1125 741 1167 C 741 1205 733 1233 718 1253 C 703 1272 677 1282 639 1282 C 601 1282 574 1272 560 1253 C 546 1233 539 1205 539 1167 Z" unicode="&#x26;" />
<glyph horiz-adv-x="602" d="M 141 1518 L 463 1518 L 449 803 L 156 803 L 141 1518 Z" unicode="'" />
<glyph horiz-adv-x="913" d="M 516 -365 C 476 -326 436 -276 395 -216 C 353 -155 316 -84 282 -2 C 248 80 220 173 198 277 C 176 381 166 496 166 623 C 166 737 176 846 198 948 C 220 1050 248 1144 282 1230 C 316 1315 353 1390 395 1455 C 436 1520 476 1572 516 1612 L 745 1470 C 714 1428 683 1382 652 1331 C 620 1279 592 1220 567 1153 C 541 1085 521 1008 505 922 C 489 835 481 736 481 625 C 481 513 489 411 507 321 C 525 231 547 151 573 81 C 599 11 628 -48 659 -99 C 689 -149 718 -191 745 -225 L 516 -365 L 516 -365 Z" unicode="(" />
<glyph horiz-adv-x="913" d="M 170 -225 C 200 -183 230 -136 262 -84 C 293 -32 321 26 346 94 C 371 162 392 239 408 325 C 424 411 432 511 432 623 C 432 735 423 836 405 926 C 387 1016 366 1095 340 1165 C 314 1235 285 1295 255 1345 C 224 1395 196 1437 170 1470 L 397 1612 C 437 1572 477 1522 519 1462 C 561 1401 598 1330 632 1248 C 666 1166 693 1073 715 969 C 737 865 748 751 748 625 C 748 509 737 400 715 297 C 693 194 666 100 632 15 C 598 -69 561 -144 519 -209 C 477 -274 437 -326 397 -365 L 170 -225 Z" unicode=")" />
<glyph horiz-adv-x="1087" d="M 446 827 L 217 647 L 82 870 L 356 1016 L 82 1163 L 215 1384 L 446 1202 L 418 1520 L 664 1520 L 637 1198 L 870 1384 L 1004 1165 L 727 1016 L 1004 868 L 872 649 L 637 831 L 664 512 L 418 512 L 446 827 Z" unicode="*" />
<glyph horiz-adv-x="1247" d="M 477 588 L 162 588 L 162 856 L 477 856 L 477 1225 L 770 1225 L 770 856 L 1085 856 L 1085 588 L 770 588 L 770 215 L 477 215 L 477 588 Z" unicode="+" />
<glyph horiz-adv-x="532" d="M 96 -158 C 128 -140 154 -126 174 -114 C 194 -102 209 -91 220 -81 C 230 -70 237 -59 241 -47 C 244 -35 246 -19 246 0 L 90 0 L 90 367 L 442 367 L 442 31 C 442 -12 439 -49 433 -80 C 427 -110 415 -138 397 -164 C 379 -189 352 -213 318 -237 C 284 -260 238 -285 182 -313 L 96 -158 Z" unicode="," />
<glyph horiz-adv-x="711" d="M 61 823 L 647 823 L 647 541 L 61 541 L 61 823 Z" unicode="-" />
<glyph horiz-adv-x="532" d="M 90 367 L 442 367 L 442 0 L 90 0 L 90 367 Z" unicode="." />
<glyph horiz-adv-x="1014" d="M 700 1518 L 1014 1518 L 313 0 L 0 0 L 700 1518 Z" unicode="/" />
<glyph horiz-adv-x="1313" d="M 659 -18 C 577 -18 506 -10 447 5 C 387 21 337 44 296 74 C 254 104 221 142 195 187 C 169 231 150 282 136 340 C 122 397 112 461 107 531 C 102 601 100 676 100 758 C 100 838 102 912 107 982 C 111 1051 121 1114 135 1172 C 149 1230 168 1281 194 1326 C 219 1371 252 1409 294 1440 C 335 1471 385 1495 445 1511 C 505 1527 576 1536 659 1536 C 741 1536 811 1527 871 1511 C 930 1494 980 1470 1021 1439 C 1061 1407 1094 1369 1120 1324 C 1145 1278 1164 1227 1178 1169 C 1191 1111 1200 1048 1205 979 C 1209 910 1212 836 1212 758 C 1212 675 1209 598 1205 528 C 1200 458 1191 394 1177 336 C 1163 278 1144 228 1119 184 C 1094 140 1061 103 1020 73 C 979 43 929 20 870 5 C 810 -10 740 -18 659 -18 Z M 659 268 C 709 268 749 277 780 295 C 811 313 835 342 852 382 C 869 422 880 472 886 534 C 892 596 895 670 895 758 C 895 844 892 918 886 979 C 880 1039 868 1089 851 1127 C 834 1165 810 1193 780 1211 C 749 1228 709 1237 659 1237 C 608 1237 567 1228 536 1211 C 505 1193 481 1165 464 1127 C 446 1089 435 1039 429 979 C 423 918 420 844 420 758 C 420 670 423 596 429 534 C 435 472 446 422 464 382 C 481 342 505 313 536 295 C 567 277 608 268 659 268 Z" unicode="0" />
<glyph horiz-adv-x="731" d="M 256 1235 L 47 1235 L 47 1518 L 565 1518 L 565 0 L 256 0 L 256 1235 Z" unicode="1" />
<glyph horiz-adv-x="1106" d="M 49 246 L 430 655 C 485 714 529 763 561 803 C 593 843 618 878 635 908 C 652 938 663 966 668 992 C 673 1018 676 1047 676 1079 C 676 1107 672 1131 666 1151 C 660 1171 649 1188 634 1202 C 618 1215 598 1225 573 1231 C 548 1237 517 1241 481 1241 C 453 1241 426 1239 399 1235 C 372 1231 346 1225 320 1219 C 294 1213 269 1205 245 1197 C 221 1188 200 1179 180 1169 L 47 1430 C 75 1444 106 1457 139 1470 C 171 1483 207 1494 247 1504 C 286 1514 329 1521 377 1527 C 424 1533 477 1536 535 1536 C 616 1536 685 1527 743 1510 C 800 1492 847 1466 883 1432 C 919 1397 945 1354 962 1303 C 978 1252 987 1193 987 1126 C 987 1086 985 1050 981 1017 C 977 984 971 952 961 922 C 951 891 938 860 922 830 C 906 800 885 767 860 733 C 835 699 805 661 771 621 C 736 581 695 535 649 485 L 451 270 L 1012 270 L 1012 0 L 49 0 L 49 246 Z" unicode="2" />
<glyph horiz-adv-x="1114" d="M 512 -18 C 458 -18 410 -15 366 -11 C 322 -6 282 0 244 10 C 206 19 171 31 138 45 C 104 59 71 75 39 94 L 178 350 C 204 336 229 323 253 313 C 277 302 301 293 326 286 C 351 278 377 273 404 269 C 431 265 460 264 492 264 C 537 264 574 267 604 274 C 634 281 657 293 675 309 C 693 325 705 348 712 376 C 719 404 723 439 723 481 C 723 515 719 543 713 567 C 707 591 695 610 677 626 C 659 641 635 652 604 659 C 573 666 533 670 483 670 L 268 670 L 268 926 L 487 926 C 527 926 560 929 586 935 C 612 941 632 951 647 965 C 661 978 671 995 677 1015 C 683 1035 686 1059 686 1087 C 686 1118 682 1144 674 1164 C 666 1184 655 1199 639 1211 C 623 1222 602 1230 578 1234 C 553 1238 523 1241 489 1241 C 435 1241 383 1234 333 1222 C 283 1209 236 1192 190 1171 L 59 1423 C 117 1456 186 1483 266 1504 C 346 1525 437 1536 539 1536 C 613 1536 678 1530 734 1519 C 790 1508 838 1489 876 1461 C 914 1433 942 1396 962 1349 C 981 1301 991 1241 991 1169 C 991 1121 988 1078 984 1041 C 979 1004 971 972 959 945 C 947 917 932 894 914 876 C 895 857 872 842 844 831 C 880 819 910 804 934 786 C 958 768 977 744 991 715 C 1005 685 1016 649 1022 606 C 1028 563 1032 511 1032 449 C 1032 361 1021 288 1000 228 C 978 168 946 120 903 84 C 860 48 806 22 741 6 C 676 -10 600 -18 512 -18 Z" unicode="3" />
<glyph horiz-adv-x="1210" d="M 55 539 L 586 1518 L 909 1518 L 387 555 L 698 555 L 760 979 L 983 979 L 983 555 L 1167 555 L 1167 299 L 983 299 L 983 0 L 694 0 L 694 299 L 55 299 L 55 539 Z" unicode="4" />
<glyph horiz-adv-x="1159" d="M 561 -18 C 451 -18 355 -8 271 10 C 187 29 111 58 43 96 L 182 350 C 208 336 234 323 260 312 C 286 301 314 292 342 285 C 370 278 401 273 433 269 C 465 265 501 264 541 264 C 581 264 615 267 645 273 C 675 279 699 290 719 308 C 739 325 753 349 763 381 C 773 413 778 454 778 506 C 778 556 773 597 763 628 C 753 659 739 683 721 700 C 703 717 680 728 653 734 C 626 740 595 743 561 743 C 511 743 469 738 436 729 C 402 719 372 706 346 690 L 106 760 L 147 1518 L 1016 1518 L 1016 1235 L 412 1235 L 397 965 C 424 980 460 992 504 1002 C 548 1011 605 1016 676 1016 C 748 1016 810 1008 862 992 C 914 976 956 948 990 910 C 1024 871 1049 819 1065 755 C 1081 690 1090 609 1090 512 C 1090 401 1078 311 1055 242 C 1031 173 997 119 953 81 C 908 42 853 16 787 2 C 721 -11 645 -18 561 -18 Z" unicode="5" />
<glyph horiz-adv-x="1253" d="M 651 -18 C 568 -18 497 -11 437 3 C 377 17 327 37 286 64 C 244 90 211 123 186 162 C 160 200 141 245 127 295 C 113 345 104 400 100 460 C 96 520 94 585 94 655 C 94 751 96 839 101 919 C 106 999 117 1072 133 1136 C 149 1200 173 1255 205 1303 C 236 1351 278 1390 331 1422 C 383 1454 448 1478 526 1494 C 603 1510 696 1518 805 1518 L 983 1518 L 983 1235 L 788 1235 C 708 1235 645 1228 597 1214 C 549 1200 511 1181 485 1155 C 459 1129 440 1098 430 1061 C 420 1023 413 981 410 934 C 438 966 480 992 536 1010 C 592 1028 666 1038 758 1038 C 846 1038 918 1025 973 1000 C 1028 975 1071 940 1102 895 C 1133 850 1154 796 1165 734 C 1176 671 1182 602 1182 526 C 1182 434 1173 355 1156 287 C 1139 219 1110 162 1069 117 C 1028 72 974 38 906 16 C 838 -6 753 -18 651 -18 Z M 657 254 C 699 254 733 259 761 270 C 788 281 810 298 826 320 C 842 342 854 371 860 405 C 866 439 870 478 870 524 C 870 570 866 609 859 642 C 851 675 839 702 823 723 C 807 744 785 759 759 769 C 732 779 700 784 662 784 C 624 784 591 779 561 771 C 531 762 505 748 484 728 C 463 708 447 683 435 651 C 423 619 418 581 418 535 C 418 486 421 444 427 409 C 433 373 445 344 463 321 C 480 298 504 281 536 270 C 567 259 607 254 657 254 Z" unicode="6" />
<glyph horiz-adv-x="1026" d="M 649 1235 L 37 1235 L 37 1518 L 987 1518 L 987 1274 L 547 0 L 215 0 L 649 1235 Z" unicode="7" />
<glyph horiz-adv-x="1251" d="M 625 -18 C 545 -18 476 -12 418 0 C 360 11 310 27 270 47 C 230 67 197 92 173 120 C 149 148 130 179 117 213 C 103 246 94 281 90 319 C 86 357 84 395 84 434 C 84 478 85 521 89 563 C 93 604 101 642 115 677 C 129 711 149 742 176 769 C 202 796 239 818 285 836 C 251 852 223 871 203 893 C 182 915 166 941 155 969 C 143 997 136 1027 132 1060 C 128 1092 127 1127 127 1163 C 127 1211 133 1257 146 1302 C 159 1347 184 1387 220 1422 C 256 1456 307 1484 372 1505 C 437 1525 521 1536 625 1536 C 729 1536 813 1525 878 1505 C 943 1484 994 1456 1030 1422 C 1066 1387 1090 1347 1103 1302 C 1115 1257 1122 1211 1122 1163 C 1122 1127 1120 1092 1116 1059 C 1112 1026 1104 995 1092 967 C 1080 939 1064 913 1044 891 C 1023 868 996 850 963 836 C 1011 818 1049 796 1077 769 C 1104 741 1124 710 1138 676 C 1152 641 1160 603 1164 562 C 1167 521 1169 478 1169 434 C 1169 395 1166 357 1162 319 C 1158 281 1149 246 1136 213 C 1122 179 1103 148 1079 120 C 1054 92 1021 67 981 47 C 941 27 891 11 833 0 C 775 -12 705 -18 625 -18 Z M 625 246 C 671 246 710 251 740 263 C 770 274 793 290 810 310 C 826 330 838 355 844 383 C 850 411 854 443 854 477 C 854 511 850 543 844 571 C 838 599 826 623 810 643 C 793 663 770 678 740 689 C 710 699 671 705 625 705 C 578 705 540 699 511 689 C 481 678 458 663 442 643 C 425 623 414 599 408 571 C 402 543 399 511 399 477 C 399 443 402 411 408 383 C 414 355 425 330 442 310 C 458 290 481 274 511 263 C 540 251 578 246 625 246 Z M 625 928 C 662 928 693 931 718 939 C 742 946 762 957 777 971 C 792 985 803 1003 809 1025 C 815 1047 819 1072 819 1100 C 819 1128 815 1152 809 1174 C 803 1195 792 1213 777 1228 C 762 1242 742 1253 718 1261 C 693 1268 662 1272 625 1272 C 588 1272 557 1268 533 1261 C 508 1253 488 1242 473 1228 C 457 1213 446 1195 440 1174 C 433 1152 430 1128 430 1100 C 430 1072 433 1047 440 1025 C 446 1003 457 985 473 971 C 488 957 508 946 533 939 C 557 931 588 928 625 928 Z" unicode="8" />
<glyph horiz-adv-x="1253" d="M 268 270 L 465 270 C 541 270 602 276 650 289 C 697 301 734 320 762 346 C 789 371 808 403 820 441 C 831 479 838 523 842 575 C 814 541 772 515 714 497 C 656 479 583 471 496 471 C 407 471 335 483 280 508 C 224 533 181 568 151 613 C 120 658 99 712 88 774 C 77 836 72 905 72 981 C 72 1072 80 1152 97 1222 C 114 1291 143 1349 183 1395 C 223 1441 277 1476 345 1500 C 413 1524 498 1536 600 1536 C 682 1536 754 1529 814 1515 C 874 1501 924 1480 966 1454 C 1007 1427 1040 1394 1066 1355 C 1091 1316 1110 1272 1124 1222 C 1138 1172 1147 1117 1152 1057 C 1156 996 1159 931 1159 862 C 1159 764 1156 675 1151 595 C 1145 515 1134 443 1117 379 C 1100 315 1076 260 1044 212 C 1012 164 969 125 917 94 C 864 62 799 39 722 23 C 645 7 553 0 446 0 L 268 0 L 268 270 Z M 590 723 C 627 723 661 727 691 736 C 721 744 747 759 769 779 C 790 799 806 825 818 857 C 830 889 836 928 836 975 C 836 1023 832 1064 826 1099 C 820 1134 808 1163 790 1186 C 772 1208 748 1225 716 1236 C 684 1247 644 1253 594 1253 C 552 1253 518 1247 491 1236 C 463 1225 441 1209 425 1187 C 409 1165 397 1137 391 1103 C 384 1069 381 1029 381 983 C 381 937 384 897 392 864 C 400 831 412 804 428 783 C 444 762 466 747 493 737 C 519 727 552 723 590 723 Z" unicode="9" />
<glyph horiz-adv-x="565" d="M 106 358 L 457 358 L 457 0 L 106 0 L 106 358 Z M 106 1161 L 457 1161 L 457 803 L 106 803 L 106 1161 Z" unicode=":" />
<glyph horiz-adv-x="565" d="M 106 1161 L 457 1161 L 457 803 L 106 803 L 106 1161 Z M 113 -158 C 145 -140 171 -126 191 -114 C 211 -102 226 -91 236 -81 C 246 -70 253 -59 257 -47 C 260 -35 262 -19 262 0 L 106 0 L 106 358 L 457 358 L 457 31 C 457 -12 454 -49 448 -80 C 442 -110 431 -138 413 -164 C 395 -189 369 -213 335 -237 C 301 -260 255 -285 199 -313 L 113 -158 Z" unicode=";" />
<glyph horiz-adv-x="1245" d="M 186 602 L 186 815 L 989 1260 L 989 963 L 510 711 L 989 457 L 989 158 L 186 602 Z" unicode="&#x3C;" />
<glyph horiz-adv-x="1247" d="M 164 625 L 1083 625 L 1083 340 L 164 340 L 164 625 Z M 164 1092 L 1083 1092 L 1083 809 L 164 809 L 164 1092 Z" unicode="=" />
<glyph horiz-adv-x="1247" d="M 254 455 L 735 707 L 254 961 L 254 1260 L 1059 815 L 1059 602 L 254 158 L 254 455 Z" unicode="&#x3E;" />
<glyph horiz-adv-x="1171" d="M 397 444 C 396 482 396 515 398 545 C 399 575 402 602 406 626 C 410 650 417 673 426 694 C 435 715 447 736 463 756 C 478 776 497 797 520 819 C 542 841 570 865 602 891 C 630 913 653 933 673 951 C 693 968 709 985 721 1001 C 733 1017 742 1033 748 1050 C 753 1066 756 1086 756 1108 C 756 1129 753 1148 747 1166 C 741 1183 731 1198 716 1210 C 701 1222 680 1232 654 1239 C 627 1245 593 1249 551 1249 C 495 1249 441 1241 390 1227 C 339 1213 291 1195 246 1174 L 111 1434 C 143 1450 176 1464 212 1476 C 248 1488 286 1499 326 1508 C 366 1517 409 1524 455 1529 C 501 1533 550 1536 604 1536 C 694 1536 769 1527 829 1509 C 889 1491 936 1465 971 1433 C 1006 1401 1031 1362 1045 1317 C 1059 1272 1067 1223 1067 1169 C 1067 1114 1062 1067 1052 1029 C 1042 991 1029 957 1011 928 C 993 899 972 873 947 850 C 922 826 894 802 864 776 C 836 754 813 734 795 717 C 776 700 760 684 748 669 C 736 653 726 638 719 624 C 712 610 707 594 704 577 C 700 559 698 540 698 519 C 697 497 697 472 698 444 L 397 444 Z M 371 322 L 723 322 L 723 0 L 371 0 L 371 322 Z" unicode="?" />
<glyph horiz-adv-x="1763" d="M 883 -338 C 733 -338 607 -319 504 -282 C 401 -244 318 -187 255 -111 C 191 -34 146 62 118 180 C 90 297 76 436 76 596 C 76 756 90 894 118 1012 C 146 1129 191 1226 255 1303 C 318 1380 401 1437 504 1475 C 607 1513 733 1532 883 1532 C 1031 1532 1157 1513 1260 1475 C 1362 1437 1445 1380 1509 1303 C 1572 1226 1618 1129 1646 1012 C 1674 894 1688 756 1688 596 C 1688 502 1683 422 1675 356 C 1667 289 1651 234 1627 191 C 1603 148 1569 116 1527 96 C 1484 76 1428 66 1360 66 C 1318 66 1282 69 1252 76 C 1222 83 1196 93 1175 106 C 1154 118 1137 133 1124 150 C 1111 167 1102 185 1096 205 C 1070 159 1029 125 975 101 C 921 77 849 66 760 66 C 708 66 664 72 627 85 C 589 98 558 116 532 140 C 506 163 485 191 469 224 C 453 256 440 292 432 331 C 423 370 417 412 414 456 C 411 500 410 546 410 594 C 410 666 414 734 422 799 C 430 863 447 920 473 968 C 498 1016 534 1055 581 1083 C 627 1111 689 1126 766 1126 C 810 1126 848 1124 879 1120 C 909 1116 935 1110 957 1102 C 978 1094 996 1083 1010 1071 C 1024 1059 1036 1044 1047 1028 L 1098 1116 L 1296 1098 L 1296 414 C 1298 382 1299 356 1301 334 C 1303 312 1307 295 1313 282 C 1319 268 1328 259 1340 253 C 1352 247 1369 244 1391 244 C 1414 244 1433 248 1448 256 C 1462 264 1474 281 1482 307 C 1490 332 1495 368 1498 414 C 1501 460 1503 520 1503 596 C 1503 733 1492 850 1470 947 C 1448 1044 1412 1123 1363 1185 C 1314 1247 1250 1292 1172 1321 C 1093 1349 997 1364 883 1364 C 768 1364 671 1349 592 1321 C 512 1292 448 1247 399 1185 C 350 1123 315 1044 293 947 C 271 850 260 733 260 596 C 260 458 271 341 293 244 C 315 147 350 68 399 7 C 448 -54 512 -99 592 -127 C 671 -155 768 -170 883 -170 C 933 -170 979 -167 1023 -162 C 1067 -157 1108 -150 1147 -142 C 1186 -133 1223 -123 1257 -112 C 1291 -100 1324 -88 1356 -76 L 1423 -233 C 1387 -247 1350 -261 1312 -274 C 1274 -286 1233 -297 1189 -307 C 1145 -317 1098 -324 1048 -330 C 998 -335 943 -338 883 -338 Z M 848 301 C 888 301 919 307 943 320 C 966 332 984 351 996 375 C 1008 399 1015 430 1019 466 C 1022 502 1024 544 1024 592 C 1024 640 1022 682 1019 717 C 1015 752 1008 781 996 804 C 984 827 966 844 943 855 C 919 866 888 872 848 872 C 813 872 785 866 764 854 C 742 842 726 825 715 802 C 703 778 696 749 692 714 C 688 678 686 637 686 590 C 686 542 687 501 691 465 C 694 429 701 398 713 374 C 724 350 740 331 762 319 C 783 307 812 301 848 301 Z" unicode="@" />
<glyph horiz-adv-x="1343" d="M 500 1528 L 844 1528 L 1317 0 L 987 0 L 918 236 L 416 236 L 348 0 L 27 0 L 500 1528 Z M 840 518 L 668 1094 L 492 518 L 840 518 Z" unicode="A" />
<glyph horiz-adv-x="1262" d="M 119 1518 L 674 1518 C 762 1518 836 1509 898 1491 C 960 1473 1010 1448 1048 1415 C 1086 1381 1114 1340 1132 1292 C 1150 1244 1159 1189 1159 1128 C 1159 1036 1143 963 1111 909 C 1079 855 1035 817 981 795 C 1016 782 1047 766 1073 746 C 1099 726 1120 701 1138 671 C 1155 641 1168 605 1177 565 C 1185 524 1190 477 1190 424 C 1190 349 1178 285 1156 231 C 1133 177 1100 133 1057 99 C 1014 65 961 40 899 24 C 836 8 765 0 686 0 L 119 0 L 119 1518 Z M 682 268 C 711 268 737 271 760 277 C 782 283 801 293 817 307 C 833 321 845 340 853 363 C 861 386 866 415 866 449 C 866 483 862 511 854 533 C 846 555 834 573 818 587 C 802 601 783 610 760 616 C 736 622 710 625 680 625 L 434 625 L 434 268 L 682 268 Z M 664 905 C 725 905 769 919 797 947 C 824 975 838 1019 838 1079 C 838 1138 824 1180 797 1204 C 770 1228 726 1241 664 1241 L 434 1241 L 434 905 L 664 905 Z" unicode="B" />
<glyph horiz-adv-x="1155" d="M 664 -18 C 545 -18 446 0 368 36 C 290 72 227 124 181 192 C 135 259 102 340 83 436 C 64 532 55 639 55 758 C 55 834 58 907 66 975 C 73 1043 86 1106 104 1164 C 122 1222 147 1274 178 1320 C 208 1366 247 1405 294 1437 C 341 1469 397 1493 462 1510 C 526 1527 602 1536 688 1536 C 768 1536 843 1526 913 1507 C 983 1488 1045 1461 1100 1425 L 928 1159 C 896 1178 860 1193 818 1205 C 776 1217 730 1223 678 1223 C 625 1223 580 1215 542 1201 C 504 1187 474 1162 450 1126 C 426 1090 408 1041 397 980 C 386 919 381 842 381 750 C 381 658 386 581 397 520 C 407 458 425 409 449 372 C 473 335 504 309 542 293 C 580 277 626 270 680 270 C 706 270 731 271 755 274 C 778 277 800 282 822 288 C 843 294 864 302 885 312 C 905 322 926 334 948 348 L 1106 100 C 1076 81 1045 64 1014 50 C 983 35 950 23 915 13 C 880 3 842 -4 801 -10 C 760 -15 714 -18 664 -18 Z" unicode="C" />
<glyph horiz-adv-x="1315" d="M 119 1518 L 592 1518 C 712 1518 814 1505 899 1481 C 983 1456 1052 1414 1106 1356 C 1160 1297 1199 1219 1223 1122 C 1247 1025 1260 904 1260 760 C 1260 612 1248 489 1224 391 C 1200 293 1161 216 1108 158 C 1054 100 985 59 901 35 C 816 11 713 0 592 0 L 119 0 L 119 1518 Z M 621 279 C 677 279 724 285 764 299 C 803 312 835 336 861 372 C 886 408 904 457 916 519 C 928 581 934 660 934 758 C 934 854 928 933 916 994 C 904 1054 886 1102 860 1136 C 834 1170 801 1194 761 1206 C 720 1218 670 1225 612 1225 L 440 1225 L 440 279 L 621 279 Z" unicode="D" />
<glyph horiz-adv-x="1141" d="M 119 1518 L 1055 1518 L 1055 1225 L 432 1225 L 432 922 L 1028 922 L 1028 631 L 432 631 L 432 287 L 1057 287 L 1057 0 L 119 0 L 119 1518 Z" unicode="E" />
<glyph horiz-adv-x="1112" d="M 119 1518 L 1057 1518 L 1057 1225 L 440 1225 L 440 897 L 1028 897 L 1028 606 L 440 606 L 440 0 L 119 0 L 119 1518 Z" unicode="F" />
<glyph horiz-adv-x="1262" d="M 645 -18 C 527 -18 431 0 355 35 C 279 71 218 122 174 189 C 129 256 98 337 81 433 C 63 529 55 637 55 758 C 55 892 65 1009 87 1107 C 109 1205 145 1285 195 1349 C 245 1413 312 1460 394 1490 C 476 1520 578 1536 700 1536 C 794 1536 877 1525 950 1503 C 1023 1481 1087 1453 1141 1419 L 971 1153 C 953 1163 935 1172 915 1181 C 895 1189 873 1197 850 1204 C 827 1211 802 1217 775 1221 C 747 1225 718 1227 686 1227 C 636 1227 591 1221 553 1209 C 515 1197 483 1173 457 1139 C 431 1104 411 1055 397 993 C 383 931 377 850 377 750 C 377 654 382 574 392 510 C 402 446 418 396 442 358 C 465 320 495 293 533 277 C 571 261 618 254 674 254 C 722 254 761 260 791 273 C 821 286 844 306 861 333 C 877 360 888 395 894 437 C 900 479 903 529 903 588 L 903 625 L 608 625 L 608 901 L 1208 901 L 1208 645 C 1208 523 1200 419 1184 335 C 1168 251 1139 182 1097 130 C 1055 78 997 40 925 17 C 852 -6 759 -18 645 -18 Z" unicode="G" />
<glyph horiz-adv-x="1386" d="M 119 1518 L 440 1518 L 440 942 L 944 942 L 944 1518 L 1268 1518 L 1268 0 L 944 0 L 944 625 L 440 625 L 440 0 L 119 0 L 119 1518 Z" unicode="H" />
<glyph horiz-adv-x="594" d="M 137 1518 L 457 1518 L 457 0 L 137 0 L 137 1518 Z" unicode="I" />
<glyph horiz-adv-x="801" d="M 53 287 L 199 287 C 231 287 259 289 281 295 C 303 301 320 310 333 322 C 346 334 355 350 361 369 C 366 387 369 410 369 436 L 369 1518 L 690 1518 L 690 416 C 690 333 679 265 658 211 C 636 157 606 115 568 84 C 529 52 483 30 429 18 C 375 6 316 0 252 0 L 53 0 L 53 287 Z" unicode="J" />
<glyph horiz-adv-x="1309" d="M 119 1518 L 436 1518 L 436 893 L 899 1518 L 1268 1518 L 811 928 L 1276 0 L 922 0 L 596 657 L 436 438 L 436 0 L 119 0 L 119 1518 Z" unicode="K" />
<glyph horiz-adv-x="1051" d="M 119 1518 L 440 1518 L 440 287 L 1030 287 L 1030 0 L 119 0 L 119 1518 Z" unicode="L" />
<glyph horiz-adv-x="1649" d="M 119 1518 L 528 1518 L 823 555 L 1122 1518 L 1532 1518 L 1532 0 L 1219 0 L 1219 969 L 915 0 L 709 0 L 403 969 L 403 0 L 119 0 L 119 1518 Z" unicode="M" />
<glyph horiz-adv-x="1378" d="M 119 1518 L 459 1518 L 956 643 L 956 1518 L 1262 1518 L 1262 0 L 967 0 L 424 946 L 424 0 L 119 0 L 119 1518 Z" unicode="N" />
<glyph horiz-adv-x="1368" d="M 684 -18 C 593 -18 514 -8 448 11 C 382 30 325 57 279 92 C 233 126 195 167 166 215 C 136 263 113 315 97 373 C 81 431 70 492 64 557 C 58 622 55 689 55 758 C 55 826 58 893 64 959 C 70 1024 81 1085 97 1143 C 113 1201 136 1254 166 1302 C 195 1350 233 1391 279 1426 C 325 1460 382 1487 448 1507 C 514 1526 593 1536 684 1536 C 774 1536 853 1526 919 1507 C 985 1487 1042 1460 1088 1426 C 1134 1391 1172 1350 1202 1302 C 1231 1254 1254 1201 1270 1143 C 1286 1085 1298 1024 1304 959 C 1310 893 1313 826 1313 758 C 1313 689 1310 622 1304 557 C 1298 492 1286 431 1270 373 C 1254 315 1231 263 1202 215 C 1172 167 1134 126 1088 92 C 1042 57 985 30 919 11 C 853 -8 774 -18 684 -18 Z M 684 266 C 751 266 805 277 845 301 C 885 324 915 357 936 399 C 957 441 971 492 977 551 C 983 610 987 676 987 748 C 987 818 983 883 977 942 C 971 1001 957 1052 936 1094 C 915 1136 885 1168 845 1192 C 805 1215 751 1227 684 1227 C 616 1227 563 1215 523 1192 C 483 1168 452 1136 431 1094 C 410 1052 396 1001 390 942 C 384 883 381 818 381 748 C 381 676 384 610 390 551 C 396 492 410 441 431 399 C 452 357 483 324 523 301 C 563 277 616 266 684 266 Z" unicode="O" />
<glyph horiz-adv-x="1255" d="M 119 1518 L 702 1518 C 793 1518 870 1506 934 1484 C 997 1462 1048 1429 1088 1387 C 1128 1344 1157 1292 1175 1231 C 1193 1170 1202 1101 1202 1024 C 1202 948 1193 877 1175 813 C 1157 749 1129 693 1089 647 C 1049 600 996 563 932 537 C 868 511 789 498 696 498 L 434 498 L 434 0 L 119 0 L 119 1518 Z M 692 776 C 761 776 811 793 842 829 C 873 865 889 924 889 1006 C 889 1047 885 1082 878 1111 C 870 1140 859 1164 843 1182 C 827 1200 806 1214 781 1222 C 756 1230 726 1235 692 1235 L 434 1235 L 434 776 L 692 776 Z" unicode="P" />
<glyph horiz-adv-x="1368" d="M 889 -375 C 752 -375 649 -348 581 -296 C 513 -244 479 -161 481 -49 L 481 12 C 390 32 317 65 261 112 C 205 159 162 216 132 282 C 101 348 80 421 70 503 C 60 584 55 669 55 758 C 55 826 58 893 64 959 C 70 1024 81 1085 97 1143 C 113 1201 136 1254 166 1302 C 195 1350 233 1391 279 1426 C 325 1460 382 1487 448 1507 C 514 1526 593 1536 684 1536 C 774 1536 853 1526 919 1507 C 985 1487 1042 1460 1088 1426 C 1134 1391 1172 1350 1202 1302 C 1231 1254 1254 1201 1270 1143 C 1286 1085 1298 1024 1304 959 C 1310 893 1313 826 1313 758 C 1313 694 1310 631 1305 571 C 1300 511 1291 454 1277 400 C 1263 346 1243 297 1219 251 C 1195 205 1163 165 1125 130 C 1086 95 1039 66 984 44 C 929 22 865 7 791 0 C 791 -20 794 -36 798 -50 C 802 -64 810 -75 821 -83 C 831 -91 845 -96 863 -100 C 880 -104 902 -106 928 -106 L 1081 -106 L 1081 -375 L 889 -375 Z M 684 266 C 751 266 805 277 845 301 C 885 324 915 357 936 399 C 957 441 971 492 977 551 C 983 610 987 676 987 748 C 987 818 983 883 977 942 C 971 1001 957 1052 936 1094 C 915 1136 885 1168 845 1192 C 805 1215 751 1227 684 1227 C 616 1227 563 1215 523 1192 C 483 1168 452 1136 431 1094 C 410 1052 396 1001 390 942 C 384 883 381 818 381 748 C 381 676 384 610 390 551 C 396 492 410 441 431 399 C 452 357 483 324 523 301 C 563 277 616 266 684 266 Z" unicode="Q" />
<glyph horiz-adv-x="1278" d="M 635 508 L 434 508 L 434 0 L 119 0 L 119 1518 L 698 1518 C 789 1518 866 1507 930 1485 C 993 1463 1044 1432 1084 1391 C 1124 1349 1153 1299 1171 1239 C 1189 1179 1198 1110 1198 1034 C 1198 978 1193 925 1184 876 C 1174 826 1159 781 1139 740 C 1119 698 1092 662 1060 630 C 1028 598 989 573 944 553 L 1188 0 L 852 0 L 635 508 Z M 690 788 C 724 788 754 792 779 800 C 803 808 823 821 839 839 C 855 857 866 880 874 908 C 881 936 885 971 885 1012 C 885 1052 881 1087 874 1116 C 866 1144 855 1167 839 1185 C 823 1202 803 1215 779 1223 C 754 1231 724 1235 690 1235 L 434 1235 L 434 788 L 690 788 Z" unicode="R" />
<glyph horiz-adv-x="1194" d="M 600 -18 C 473 -18 363 -6 270 16 C 176 39 95 73 27 119 L 188 365 C 208 351 233 338 261 325 C 289 312 321 300 355 290 C 389 280 425 271 465 265 C 505 259 547 256 592 256 C 635 256 671 259 701 266 C 731 272 755 282 773 296 C 791 309 803 325 811 345 C 819 364 823 386 823 412 C 823 445 818 472 808 493 C 798 514 781 532 757 548 C 733 564 700 579 660 593 C 619 607 568 623 506 643 C 436 664 375 688 323 714 C 271 740 229 770 195 805 C 161 840 135 881 119 927 C 102 973 94 1028 94 1090 C 94 1164 105 1228 129 1284 C 152 1340 186 1386 230 1424 C 274 1461 329 1489 394 1508 C 459 1526 534 1536 618 1536 C 670 1536 718 1533 762 1529 C 806 1525 846 1518 884 1510 C 922 1502 957 1492 989 1480 C 1021 1468 1053 1456 1083 1442 L 944 1167 C 908 1184 864 1200 812 1214 C 760 1228 699 1235 627 1235 C 549 1235 493 1224 459 1203 C 425 1182 408 1148 408 1100 C 408 1074 412 1052 420 1035 C 428 1017 441 1002 460 989 C 478 975 503 963 534 951 C 565 939 603 925 649 911 C 709 891 763 873 811 855 C 858 837 900 818 936 798 C 972 778 1002 756 1028 732 C 1053 708 1073 682 1089 652 C 1105 622 1116 587 1124 549 C 1131 511 1135 467 1135 418 C 1135 350 1124 290 1103 236 C 1082 182 1050 137 1006 99 C 962 61 907 32 840 12 C 772 -7 692 -18 600 -18 Z" unicode="S" />
<glyph horiz-adv-x="1186" d="M 430 1225 L 23 1225 L 23 1518 L 1163 1518 L 1163 1225 L 754 1225 L 754 0 L 430 0 L 430 1225 Z" unicode="T" />
<glyph horiz-adv-x="1368" d="M 684 -23 C 576 -23 485 -11 412 13 C 338 37 279 72 234 119 C 189 166 157 224 138 293 C 118 362 109 442 109 532 L 109 1518 L 430 1518 L 430 563 C 430 511 433 466 441 429 C 448 391 461 361 480 337 C 499 313 525 295 559 283 C 593 271 636 266 688 266 C 739 266 781 271 815 282 C 848 293 874 310 894 334 C 914 358 928 388 936 426 C 944 464 948 509 948 563 L 948 1518 L 1260 1518 L 1260 532 C 1260 442 1250 362 1231 293 C 1212 224 1180 166 1136 119 C 1091 72 1032 37 958 13 C 884 -11 793 -23 684 -23 Z" unicode="U" />
<glyph horiz-adv-x="1327" d="M 27 1518 L 356 1518 L 670 455 L 977 1518 L 1303 1518 L 836 -10 L 492 -10 L 27 1518 Z" unicode="V" />
<glyph horiz-adv-x="1841" d="M 43 1518 L 371 1518 L 567 596 L 786 1518 L 1071 1518 L 1292 596 L 1489 1518 L 1796 1518 L 1458 -10 L 1143 -10 L 922 895 L 700 -10 L 383 -10 L 43 1518 Z" unicode="W" />
<glyph horiz-adv-x="1327" d="M 645 514 L 379 0 L 33 0 L 483 799 L 80 1518 L 434 1518 L 678 1085 L 899 1518 L 1247 1518 L 840 797 L 1290 0 L 936 0 L 645 514 Z" unicode="X" />
<glyph horiz-adv-x="1282" d="M 479 514 L -4 1518 L 338 1518 L 645 856 L 954 1518 L 1284 1518 L 799 510 L 799 0 L 479 0 L 479 514 Z" unicode="Y" />
<glyph horiz-adv-x="1155" d="M 47 242 L 702 1225 L 76 1225 L 76 1518 L 1085 1518 L 1085 1253 L 436 287 L 1104 287 L 1104 0 L 47 0 L 47 242 Z" unicode="Z" />
<glyph horiz-adv-x="909" d="M 180 1575 L 768 1575 L 768 1309 L 496 1309 L 496 -70 L 772 -70 L 772 -324 L 180 -324 L 180 1575 Z" unicode="[" />
<glyph horiz-adv-x="1014" d="M 0 1518 L 313 1518 L 1014 0 L 700 0 L 0 1518 Z" unicode="\" />
<glyph horiz-adv-x="909" d="M 139 -70 L 416 -70 L 416 1309 L 145 1309 L 145 1575 L 731 1575 L 731 -324 L 139 -324 L 139 -70 Z" unicode="]" />
<glyph horiz-adv-x="997" d="M 356 1542 L 641 1542 L 866 1167 L 621 1167 L 496 1329 L 373 1167 L 133 1167 L 356 1542 Z" unicode="^" />
<glyph horiz-adv-x="766" d="M -63 -78 L 829 -78 L 829 -307 L -63 -307 L -63 -78 Z" unicode="_" />
<glyph horiz-adv-x="997" d="M 119 1645 L 463 1645 L 680 1270 L 416 1270 L 119 1645 Z" unicode="`" />
<glyph horiz-adv-x="1116" d="M 414 -14 C 338 -14 276 -4 228 13 C 180 31 143 57 116 89 C 89 121 71 160 61 205 C 51 249 47 298 47 350 C 47 431 58 498 81 552 C 104 606 140 649 189 681 C 237 713 299 735 374 748 C 449 761 539 768 643 768 L 684 768 C 682 792 679 812 673 830 C 667 847 659 861 647 872 C 635 883 620 891 601 897 C 582 902 558 905 530 905 C 464 905 407 899 359 887 C 311 875 270 860 236 844 L 111 1094 C 161 1120 223 1142 297 1160 C 371 1177 460 1186 565 1186 C 645 1186 711 1178 765 1164 C 819 1150 862 1127 894 1095 C 926 1063 948 1023 962 973 C 976 923 983 862 983 791 L 983 358 C 983 340 983 325 985 314 C 986 302 989 293 995 286 C 1000 279 1008 274 1019 272 C 1029 269 1044 268 1063 268 L 1063 0 C 1046 -2 1030 -3 1015 -3 C 999 -3 985 -4 971 -4 C 933 -4 902 -2 876 0 C 850 1 827 6 809 13 C 791 20 776 30 764 42 C 752 54 741 71 733 92 C 717 73 700 57 680 44 C 660 30 638 19 612 11 C 586 2 557 -4 525 -8 C 492 -12 455 -14 414 -14 Z M 485 240 C 515 240 542 243 567 249 C 591 255 612 265 630 281 C 647 296 660 317 670 343 C 679 369 684 402 684 442 L 684 549 L 645 549 C 587 549 539 546 501 542 C 462 537 431 529 407 517 C 383 505 367 488 357 467 C 347 445 342 418 342 385 C 342 359 344 337 349 319 C 354 301 362 286 374 274 C 385 262 400 254 418 248 C 436 242 458 240 485 240 Z" unicode="a" />
<glyph horiz-adv-x="1163" d="M 98 1575 L 406 1575 L 406 1073 C 434 1112 474 1140 524 1158 C 574 1175 640 1184 721 1184 C 778 1184 827 1176 869 1161 C 911 1146 946 1125 975 1099 C 1004 1072 1027 1040 1045 1003 C 1063 965 1076 924 1086 880 C 1095 836 1101 788 1105 738 C 1108 688 1110 636 1110 584 C 1110 530 1108 477 1104 427 C 1100 376 1093 329 1083 285 C 1073 241 1058 200 1040 163 C 1021 126 997 95 967 69 C 937 43 901 22 859 8 C 817 -6 767 -14 709 -14 C 653 -14 608 -11 572 -7 C 536 -2 506 4 482 13 C 458 21 437 32 421 45 C 404 57 387 72 371 88 L 324 -12 L 98 10 L 98 1575 Z M 614 254 C 652 254 684 260 708 273 C 732 286 750 306 764 332 C 777 358 786 390 790 430 C 794 469 797 515 797 569 C 797 622 795 669 791 709 C 787 749 778 783 766 811 C 753 838 735 858 711 872 C 687 886 654 893 614 893 C 568 893 532 886 505 872 C 478 858 457 837 443 809 C 429 781 419 747 415 707 C 410 667 408 621 408 569 C 408 517 410 471 414 432 C 418 393 428 360 442 334 C 456 307 476 287 504 274 C 531 260 568 254 614 254 Z" unicode="b" />
<glyph horiz-adv-x="918" d="M 541 -16 C 443 -16 362 -2 299 24 C 236 51 186 90 150 142 C 114 194 88 257 74 331 C 60 405 53 490 53 584 C 53 676 59 759 73 833 C 87 907 112 969 150 1021 C 187 1073 238 1112 304 1140 C 370 1168 455 1182 559 1182 C 597 1182 631 1180 662 1177 C 693 1174 722 1170 748 1165 C 774 1159 797 1153 819 1145 C 841 1137 861 1129 881 1120 L 745 852 C 721 864 696 874 669 882 C 641 889 610 893 575 893 C 535 893 502 887 476 876 C 450 864 429 846 413 821 C 397 795 385 762 379 722 C 372 681 369 631 369 573 C 369 515 372 465 378 424 C 384 383 396 350 412 325 C 428 299 450 281 478 269 C 505 257 540 252 582 252 C 620 252 655 256 686 266 C 717 275 747 286 776 299 L 893 63 C 862 48 833 36 805 26 C 777 16 750 7 723 1 C 695 -4 667 -9 637 -12 C 607 -14 575 -16 541 -16 Z" unicode="c" />
<glyph horiz-adv-x="1163" d="M 442 -14 C 384 -14 335 -6 294 8 C 252 22 217 43 189 70 C 160 96 137 128 119 166 C 101 203 88 244 79 288 C 69 332 63 380 60 430 C 56 480 55 532 55 586 C 55 640 56 692 60 742 C 64 792 71 840 82 884 C 92 928 107 968 125 1005 C 143 1041 168 1073 198 1099 C 228 1125 264 1146 306 1160 C 348 1174 399 1182 457 1182 C 497 1182 533 1180 565 1177 C 596 1173 623 1168 647 1161 C 670 1153 690 1144 708 1133 C 726 1122 742 1109 756 1094 L 756 1575 L 1067 1575 L 1067 10 L 819 -10 L 795 96 C 779 78 761 62 740 48 C 719 34 694 23 666 14 C 638 4 605 -2 569 -7 C 532 -11 490 -14 442 -14 Z M 549 254 C 593 254 629 261 657 275 C 684 289 705 310 720 338 C 734 365 744 399 749 440 C 753 480 756 527 756 580 C 756 630 753 675 749 715 C 745 754 735 787 721 814 C 707 840 686 860 659 874 C 631 888 595 895 549 895 C 509 895 478 888 454 875 C 430 862 412 842 399 816 C 386 790 377 757 373 718 C 369 678 367 632 367 580 C 367 526 369 479 373 439 C 377 398 385 364 398 337 C 410 309 429 289 453 275 C 477 261 509 254 549 254 Z" unicode="d" />
<glyph horiz-adv-x="1055" d="M 547 -14 C 444 -14 360 0 296 26 C 232 53 182 92 146 143 C 110 194 85 257 72 331 C 59 405 53 490 53 584 C 53 676 60 759 76 833 C 91 907 118 969 156 1021 C 194 1073 246 1112 311 1140 C 375 1168 457 1182 555 1182 C 631 1182 695 1173 747 1157 C 799 1140 841 1116 874 1085 C 906 1054 931 1017 948 973 C 965 929 977 879 984 825 C 991 770 994 710 994 646 C 994 581 993 513 993 442 L 352 442 C 355 408 361 378 369 354 C 377 330 389 310 405 294 C 421 278 441 267 467 260 C 493 253 525 250 563 250 C 601 250 635 251 665 255 C 695 259 722 264 746 270 C 770 276 791 284 811 292 C 831 300 850 308 868 317 L 985 82 C 929 52 867 29 797 12 C 727 -5 643 -14 547 -14 Z M 547 911 C 509 911 477 906 453 897 C 428 887 408 873 394 855 C 380 836 369 812 363 783 C 356 754 352 720 350 682 L 721 682 C 719 720 717 754 714 783 C 711 811 704 835 692 854 C 680 873 663 887 641 897 C 618 906 587 911 547 911 Z" unicode="e" />
<glyph horiz-adv-x="799" d="M 25 1161 L 213 1161 L 213 1255 C 213 1312 220 1363 236 1407 C 252 1451 276 1489 309 1519 C 342 1549 384 1572 435 1588 C 486 1604 547 1612 618 1612 C 657 1612 690 1611 718 1611 C 746 1610 768 1609 786 1608 L 786 1341 L 649 1341 C 621 1341 599 1338 583 1334 C 567 1329 554 1322 545 1312 C 535 1302 529 1289 526 1274 C 523 1259 522 1241 522 1221 L 522 1161 L 786 1161 L 786 891 L 522 891 L 522 0 L 213 0 L 213 891 L 25 891 L 25 1161 Z" unicode="f" />
<glyph horiz-adv-x="1120" d="M 541 410 C 518 410 496 410 476 410 C 455 410 435 412 416 416 C 414 410 414 405 414 400 C 414 395 414 390 414 385 C 414 373 415 363 419 355 C 423 347 430 341 441 337 C 452 332 467 329 487 327 C 506 325 531 324 563 324 C 663 324 746 319 812 309 C 877 299 928 282 966 258 C 1004 234 1030 203 1045 164 C 1059 125 1067 77 1067 20 C 1067 -48 1056 -105 1034 -151 C 1012 -197 980 -235 937 -264 C 893 -292 839 -313 773 -325 C 707 -337 631 -344 543 -344 C 453 -344 375 -340 309 -332 C 243 -324 189 -309 146 -289 C 103 -269 71 -241 51 -205 C 30 -169 20 -124 20 -68 C 20 6 36 65 70 109 C 103 152 152 181 217 197 C 195 215 180 238 170 266 C 160 294 156 324 156 356 C 156 381 159 405 165 428 C 171 451 182 473 197 494 C 157 522 127 560 107 608 C 86 656 76 715 76 786 C 76 856 86 917 106 967 C 126 1017 156 1059 196 1091 C 235 1123 283 1146 341 1161 C 399 1176 465 1184 541 1184 C 550 1184 559 1184 569 1184 C 578 1184 588 1183 600 1182 L 1057 1276 L 1057 1036 L 899 1036 C 931 1014 958 984 978 944 C 998 904 1008 852 1008 786 C 1008 714 996 655 974 607 C 952 559 920 520 880 491 C 839 462 790 441 733 429 C 675 416 611 410 541 410 Z M 539 -129 C 585 -129 623 -126 651 -121 C 679 -115 700 -107 716 -97 C 731 -86 741 -72 746 -56 C 751 -40 754 -21 754 0 C 754 18 751 34 746 47 C 741 60 731 71 716 79 C 701 87 680 92 652 96 C 624 100 587 102 541 102 C 499 102 465 99 438 95 C 411 91 389 84 373 75 C 356 65 344 53 338 39 C 331 25 328 8 328 -12 C 328 -31 331 -48 338 -63 C 344 -77 356 -89 372 -99 C 388 -109 409 -116 436 -121 C 463 -126 497 -129 539 -129 Z M 541 631 C 601 631 644 643 668 669 C 692 695 705 732 705 780 C 705 828 692 865 668 890 C 644 915 601 928 541 928 C 482 928 440 915 416 890 C 391 865 379 828 379 780 C 379 732 391 695 416 669 C 440 643 482 631 541 631 Z" unicode="g" />
<glyph horiz-adv-x="1151" d="M 98 1575 L 406 1575 L 406 1079 C 418 1095 432 1109 450 1122 C 467 1134 488 1145 513 1154 C 538 1163 568 1170 602 1175 C 636 1179 675 1182 721 1182 C 792 1182 850 1171 894 1150 C 938 1128 973 1099 998 1061 C 1022 1023 1039 979 1048 927 C 1056 875 1061 820 1061 760 L 1061 0 L 750 0 L 750 682 C 750 716 748 745 745 771 C 742 797 735 818 725 835 C 714 852 699 865 679 874 C 659 882 633 887 600 887 C 558 887 525 882 500 872 C 475 862 456 848 442 828 C 428 808 419 782 415 751 C 410 719 408 682 408 639 L 408 0 L 98 0 L 98 1575 Z" unicode="h" />
<glyph horiz-adv-x="524" d="M 106 1161 L 416 1161 L 416 0 L 106 0 L 106 1161 Z M 106 1546 L 418 1546 L 418 1266 L 106 1266 L 106 1546 Z" unicode="i" />
<glyph horiz-adv-x="524" d="M 2 -76 L 25 -76 C 43 -76 58 -74 69 -70 C 79 -66 87 -60 93 -51 C 99 -41 102 -29 104 -13 C 105 2 106 21 106 45 L 106 1161 L 416 1161 L 416 35 C 416 -32 410 -88 399 -134 C 387 -180 368 -217 340 -245 C 312 -273 274 -293 227 -305 C 180 -317 121 -324 49 -324 L 2 -324 L 2 -76 Z M 106 1546 L 418 1546 L 418 1266 L 106 1266 L 106 1546 Z" unicode="j" />
<glyph horiz-adv-x="1071" d="M 98 1575 L 401 1575 L 401 694 L 717 1161 L 1042 1161 L 700 676 L 1063 0 L 733 0 L 498 424 L 401 281 L 401 0 L 98 0 L 98 1575 Z" unicode="k" />
<glyph horiz-adv-x="600" d="M 537 0 C 530 -1 518 -2 500 -3 C 482 -3 456 -4 424 -4 C 370 -4 324 0 284 10 C 244 20 211 37 185 62 C 158 87 138 121 125 165 C 112 208 106 263 106 330 L 106 1575 L 416 1575 L 416 373 C 416 351 417 333 419 319 C 421 305 426 295 434 287 C 442 279 454 274 470 272 C 486 269 509 268 537 268 L 537 0 L 537 0 Z" unicode="l" />
<glyph horiz-adv-x="1751" d="M 98 1143 L 346 1163 L 369 1071 C 382 1088 398 1103 417 1117 C 435 1131 458 1142 485 1152 C 512 1162 544 1169 581 1174 C 617 1179 661 1182 711 1182 C 757 1182 796 1179 828 1173 C 860 1167 886 1158 907 1148 C 927 1138 943 1126 955 1112 C 967 1098 976 1084 983 1069 C 997 1086 1014 1102 1034 1116 C 1054 1130 1079 1141 1108 1151 C 1136 1161 1170 1168 1208 1174 C 1246 1179 1291 1182 1343 1182 C 1415 1182 1472 1171 1515 1150 C 1557 1128 1590 1099 1613 1061 C 1636 1023 1651 979 1658 927 C 1665 875 1669 820 1669 760 L 1669 0 L 1362 0 L 1362 682 C 1362 716 1360 745 1358 771 C 1356 797 1350 818 1341 835 C 1331 852 1317 865 1299 874 C 1280 882 1254 887 1221 887 C 1181 887 1149 882 1125 872 C 1101 862 1082 848 1069 828 C 1055 808 1046 782 1042 751 C 1038 719 1036 682 1036 639 L 1036 0 L 729 0 L 729 682 C 729 716 727 745 725 771 C 723 797 717 818 708 835 C 699 852 685 865 667 874 C 648 882 622 887 590 887 C 550 887 517 882 493 872 C 469 862 450 847 436 827 C 422 807 413 781 409 750 C 405 718 403 681 403 639 L 403 0 L 98 0 L 98 1143 Z" unicode="m" />
<glyph horiz-adv-x="1151" d="M 98 1143 L 346 1163 L 369 1071 C 383 1088 399 1103 419 1117 C 439 1131 463 1142 491 1152 C 519 1162 551 1169 589 1174 C 627 1179 671 1182 721 1182 C 792 1182 850 1171 894 1150 C 938 1128 973 1099 998 1061 C 1022 1023 1039 979 1048 927 C 1056 875 1061 820 1061 760 L 1061 0 L 750 0 L 750 682 C 750 716 748 745 745 771 C 742 797 735 818 725 835 C 714 852 699 865 679 874 C 659 882 633 887 600 887 C 558 887 525 882 500 872 C 474 862 455 846 441 826 C 427 805 418 779 414 748 C 410 717 408 681 408 639 L 408 0 L 98 0 L 98 1143 Z" unicode="n" />
<glyph horiz-adv-x="1128" d="M 565 -18 C 463 -18 379 -3 313 24 C 247 52 194 93 156 145 C 118 197 91 261 76 335 C 60 409 53 492 53 584 C 53 674 60 756 75 830 C 89 904 116 967 154 1019 C 192 1071 245 1111 311 1139 C 377 1167 462 1182 565 1182 C 668 1182 753 1167 819 1139 C 885 1110 937 1069 975 1017 C 1013 965 1039 902 1053 828 C 1067 754 1075 673 1075 584 C 1075 490 1067 406 1053 332 C 1039 258 1013 195 975 143 C 937 91 885 51 819 23 C 753 -4 668 -18 565 -18 Z M 565 252 C 609 252 645 259 671 274 C 697 288 717 309 731 337 C 745 365 754 398 758 438 C 762 478 764 523 764 573 C 764 623 762 668 758 708 C 754 748 745 781 731 809 C 717 836 697 857 671 871 C 645 885 609 893 565 893 C 520 893 485 885 459 871 C 433 857 413 836 399 809 C 385 781 377 748 373 708 C 369 668 367 623 367 573 C 367 523 369 478 373 438 C 377 398 385 365 399 337 C 413 309 433 288 459 274 C 485 259 520 252 565 252 Z" unicode="o" />
<glyph horiz-adv-x="1163" d="M 98 1143 L 346 1163 L 367 1071 C 382 1089 400 1105 421 1119 C 442 1133 467 1144 496 1154 C 524 1163 557 1170 594 1175 C 631 1179 673 1182 721 1182 C 778 1182 827 1174 869 1159 C 911 1144 946 1123 975 1097 C 1004 1070 1027 1038 1045 1001 C 1063 964 1076 923 1086 879 C 1095 835 1101 788 1105 738 C 1108 688 1110 636 1110 584 C 1110 530 1108 477 1104 427 C 1100 376 1093 329 1083 285 C 1072 241 1057 200 1039 163 C 1020 126 996 95 966 69 C 936 43 900 22 858 8 C 816 -6 766 -14 709 -14 C 667 -14 631 -12 600 -8 C 568 -4 541 0 517 8 C 493 15 473 24 455 36 C 437 47 422 60 408 76 L 408 -324 L 98 -324 L 98 1143 Z M 614 254 C 652 254 683 260 707 273 C 731 286 749 306 763 332 C 776 358 785 390 790 430 C 794 469 797 515 797 569 C 797 622 795 669 791 709 C 787 749 778 783 765 811 C 752 838 734 858 710 872 C 686 886 654 893 614 893 C 568 893 532 886 505 872 C 478 858 457 837 443 809 C 429 781 419 747 415 707 C 410 667 408 621 408 569 C 408 517 410 471 414 432 C 418 393 428 360 442 334 C 456 307 476 287 504 274 C 531 260 568 254 614 254 Z" unicode="p" />
<glyph horiz-adv-x="1163" d="M 758 90 C 743 71 726 55 707 42 C 687 29 665 18 639 10 C 613 2 584 -4 552 -8 C 519 -12 482 -14 442 -14 C 384 -14 335 -6 294 8 C 252 22 217 43 189 70 C 160 96 137 128 119 166 C 101 203 88 244 79 288 C 69 332 63 380 60 430 C 56 480 55 532 55 586 C 55 640 56 692 60 742 C 64 792 71 840 82 884 C 92 928 107 968 125 1005 C 143 1041 168 1073 198 1099 C 228 1125 264 1146 306 1160 C 348 1174 399 1182 457 1182 C 510 1182 555 1179 592 1175 C 628 1171 659 1164 685 1156 C 711 1148 732 1138 749 1126 C 766 1114 781 1100 795 1085 L 840 1171 L 1067 1151 L 1067 -324 L 758 -324 L 758 90 Z M 549 254 C 593 254 629 261 657 275 C 684 289 705 310 720 338 C 734 365 744 399 749 440 C 753 480 756 527 756 580 C 756 630 753 675 749 715 C 745 754 735 787 721 814 C 707 840 686 860 659 874 C 631 888 595 895 549 895 C 509 895 478 888 454 875 C 430 862 412 842 399 816 C 386 790 377 757 373 718 C 369 678 367 632 367 580 C 367 526 369 479 373 439 C 377 398 385 364 398 337 C 410 309 429 289 453 275 C 477 261 509 254 549 254 Z" unicode="q" />
<glyph horiz-adv-x="707" d="M 98 1143 L 344 1163 L 371 1055 C 383 1071 398 1087 416 1101 C 433 1115 454 1128 480 1138 C 505 1148 535 1156 570 1162 C 605 1168 646 1171 694 1171 L 694 879 C 627 878 575 870 537 855 C 499 839 471 818 452 792 C 433 765 421 734 417 698 C 412 662 410 623 410 582 L 410 0 L 98 0 L 98 1143 Z" unicode="r" />
<glyph horiz-adv-x="930" d="M 473 -14 C 387 -14 305 -7 226 5 C 146 17 76 40 16 72 L 135 311 C 155 301 179 291 205 282 C 231 272 258 264 287 258 C 316 251 346 246 378 242 C 409 238 441 236 473 236 C 517 236 549 243 570 257 C 591 271 602 294 602 326 C 602 342 599 356 593 368 C 587 380 575 391 559 401 C 542 411 519 422 490 433 C 461 444 423 457 377 473 C 324 491 278 509 238 528 C 198 547 165 570 139 596 C 112 622 92 653 79 690 C 65 726 59 771 59 825 C 59 891 69 946 91 992 C 112 1038 142 1075 180 1103 C 218 1131 264 1151 318 1163 C 371 1175 430 1182 494 1182 C 535 1182 572 1180 605 1178 C 638 1176 669 1172 697 1167 C 725 1162 751 1156 777 1148 C 802 1140 828 1130 854 1120 L 735 864 C 700 878 661 890 618 899 C 575 908 529 913 481 913 C 455 913 434 911 418 908 C 402 904 389 899 380 893 C 370 886 364 877 360 867 C 356 857 354 845 354 831 C 354 817 356 804 362 794 C 368 784 378 774 393 765 C 407 755 428 745 454 735 C 480 725 513 713 555 700 C 613 681 663 662 705 642 C 747 622 782 599 810 572 C 838 544 858 511 871 473 C 884 434 891 386 891 330 C 891 270 881 218 863 175 C 845 131 818 96 782 68 C 746 40 703 19 651 6 C 599 -7 539 -14 473 -14 Z" unicode="s" />
<glyph horiz-adv-x="850" d="M 25 1161 L 221 1161 L 268 1421 L 514 1477 L 514 1161 L 778 1161 L 778 891 L 514 891 L 514 391 C 514 370 515 352 517 337 C 519 321 525 308 534 298 C 543 288 556 280 574 275 C 591 270 615 268 645 268 L 778 268 L 778 0 C 764 -1 750 -2 735 -3 C 719 -4 704 -5 689 -6 C 673 -7 658 -8 644 -9 C 630 -9 617 -10 606 -10 C 528 -10 463 -3 412 10 C 360 23 319 44 289 73 C 259 102 237 140 225 186 C 213 232 207 288 207 354 L 207 891 L 25 891 L 25 1161 Z" unicode="t" />
<glyph horiz-adv-x="1130" d="M 565 -16 C 471 -16 393 -6 332 11 C 270 29 222 58 186 98 C 150 137 125 188 111 250 C 97 312 90 387 90 475 L 90 1161 L 401 1161 L 401 492 C 401 450 402 415 404 386 C 406 356 413 332 424 313 C 435 294 452 280 475 271 C 497 262 529 258 569 258 C 607 258 638 262 660 272 C 682 281 699 295 710 314 C 721 333 728 357 731 387 C 733 417 735 452 735 494 L 735 1161 L 1040 1161 L 1040 475 C 1040 387 1033 312 1020 250 C 1006 188 982 137 947 98 C 911 58 863 29 801 11 C 739 -6 661 -16 565 -16 Z" unicode="u" />
<glyph horiz-adv-x="1063" d="M 4 1161 L 328 1161 L 539 395 L 750 1161 L 1061 1161 L 700 -10 L 360 -10 L 4 1161 Z" unicode="v" />
<glyph horiz-adv-x="1559" d="M 20 1161 L 334 1161 L 475 481 L 645 1161 L 930 1161 L 1098 494 L 1241 1161 L 1538 1161 L 1257 -10 L 954 -10 L 780 641 L 610 -10 L 303 -10 L 20 1161 Z" unicode="w" />
<glyph horiz-adv-x="1038" d="M 502 342 L 319 0 L 4 0 L 348 610 L 33 1161 L 369 1161 L 537 866 L 690 1161 L 1006 1161 L 690 598 L 1032 0 L 698 0 L 502 342 Z" unicode="x" />
<glyph horiz-adv-x="1020" d="M 139 -76 L 270 -76 C 284 -76 295 -75 304 -73 C 313 -71 321 -68 327 -64 C 333 -60 337 -55 341 -49 C 344 -43 347 -35 350 -27 L 356 0 L 2 1161 L 319 1161 L 516 449 L 711 1161 L 1016 1161 L 633 -90 C 617 -140 599 -180 577 -211 C 555 -241 530 -265 501 -282 C 471 -298 437 -309 399 -315 C 361 -321 317 -324 268 -324 L 139 -324 L 139 -76 Z" unicode="y" />
<glyph horiz-adv-x="915" d="M 25 205 L 487 891 L 53 891 L 53 1161 L 877 1161 L 877 952 L 410 252 L 895 252 L 895 0 L 25 0 L 25 205 Z" unicode="z" />
<glyph horiz-adv-x="971" d="M 614 -324 C 546 -324 489 -318 443 -306 C 396 -294 358 -277 328 -254 C 298 -230 277 -201 264 -167 C 250 -132 244 -92 244 -47 C 244 -29 246 -6 250 19 C 254 45 259 74 265 104 C 271 134 278 164 286 195 C 293 226 300 255 306 283 C 312 311 318 335 322 357 C 326 378 328 394 328 406 C 328 426 324 441 317 453 C 310 465 298 474 282 480 C 266 486 244 491 216 493 C 188 495 154 496 113 496 L 113 756 C 153 756 187 756 215 758 C 243 760 265 764 282 770 C 298 776 310 784 317 796 C 324 808 328 824 328 844 C 328 858 326 876 322 899 C 318 921 312 946 306 974 C 300 1001 293 1029 286 1059 C 278 1089 271 1118 265 1147 C 259 1175 254 1202 250 1228 C 246 1254 244 1276 244 1296 C 244 1342 250 1382 264 1417 C 277 1451 298 1480 328 1504 C 357 1527 395 1545 441 1557 C 487 1569 544 1575 610 1575 L 836 1575 L 836 1309 L 709 1309 C 686 1309 666 1307 648 1304 C 630 1300 614 1294 602 1286 C 589 1277 579 1265 573 1250 C 566 1235 563 1216 563 1194 C 563 1172 566 1143 574 1109 C 582 1075 590 1039 600 1001 C 609 963 617 925 625 888 C 633 850 637 818 637 791 C 637 755 628 722 612 692 C 596 662 566 641 522 627 C 566 610 596 587 612 558 C 628 529 637 497 637 461 C 637 429 633 393 625 353 C 617 313 609 274 600 236 C 590 198 582 162 574 130 C 566 97 563 71 563 53 C 563 7 575 -24 601 -42 C 627 -60 663 -70 709 -70 L 836 -70 L 836 -324 L 614 -324 L 614 -324 Z" unicode="{" />
<glyph horiz-adv-x="674" d="M 180 1575 L 496 1575 L 496 -324 L 180 -324 L 180 1575 Z" unicode="|" />
<glyph horiz-adv-x="971" d="M 137 -70 L 262 -70 C 308 -70 344 -60 370 -42 C 396 -24 410 7 410 53 C 410 71 406 97 398 130 C 390 162 381 198 372 236 C 362 274 354 313 346 353 C 338 393 334 429 334 461 C 334 496 342 529 359 559 C 375 589 405 611 449 627 C 405 641 375 663 359 693 C 342 722 334 755 334 791 C 334 818 338 850 346 888 C 354 925 362 963 372 1001 C 381 1039 390 1075 398 1109 C 406 1143 410 1172 410 1194 C 410 1216 406 1235 400 1250 C 393 1265 383 1277 370 1286 C 357 1294 341 1300 323 1304 C 305 1307 284 1309 262 1309 L 137 1309 L 137 1575 L 360 1575 C 426 1575 482 1569 529 1557 C 575 1545 613 1527 643 1504 C 672 1480 693 1451 707 1417 C 720 1382 727 1342 727 1296 C 727 1276 725 1254 721 1228 C 717 1202 711 1175 705 1147 C 699 1118 692 1089 685 1059 C 677 1029 670 1001 664 974 C 658 946 653 921 649 899 C 645 876 643 858 643 844 C 643 824 646 809 653 798 C 660 786 672 778 688 772 C 704 766 727 762 755 760 C 783 758 818 758 860 758 L 860 496 C 818 496 784 495 756 493 C 728 491 705 487 689 481 C 672 475 660 466 653 454 C 646 442 643 426 643 406 C 643 395 645 379 649 357 C 653 335 658 311 664 283 C 670 255 677 226 685 195 C 692 164 699 134 705 104 C 711 74 717 45 721 19 C 725 -6 727 -29 727 -47 C 727 -92 720 -132 707 -167 C 693 -201 672 -230 642 -254 C 612 -277 574 -294 528 -306 C 481 -318 424 -324 358 -324 L 137 -324 L 137 -70 Z" unicode="}" />
<glyph horiz-adv-x="997" d="M 61 852 C 101 930 144 987 192 1023 C 239 1059 295 1077 360 1077 C 387 1077 412 1072 435 1063 C 458 1053 479 1043 499 1032 C 519 1021 537 1011 554 1002 C 571 993 587 989 602 989 C 623 989 643 996 663 1012 C 683 1027 705 1052 731 1087 L 928 973 C 888 895 844 837 798 800 C 751 763 695 745 631 745 C 603 745 577 749 554 758 C 530 767 509 777 489 788 C 469 798 451 808 435 817 C 418 826 403 831 389 831 C 367 831 347 824 327 810 C 307 796 284 772 260 737 L 61 852 Z" unicode="~" />
<glyph horiz-adv-x="1020" d="M 512 -10 C 426 -10 358 1 307 24 C 256 47 217 80 190 124 C 163 167 145 220 137 283 C 129 346 125 418 125 498 C 125 576 129 646 137 709 C 145 772 162 826 189 870 C 215 914 254 948 305 972 C 356 996 425 1008 512 1008 C 596 1008 664 996 715 972 C 765 948 804 913 831 869 C 857 824 875 770 883 708 C 891 645 895 575 895 498 C 895 416 891 344 883 281 C 875 218 857 165 831 122 C 804 79 765 46 715 24 C 664 1 596 -10 512 -10 Z M 512 209 C 541 209 564 213 582 223 C 599 232 612 248 621 270 C 630 292 636 322 639 359 C 641 396 643 442 643 498 C 643 553 641 599 639 635 C 636 671 630 700 621 722 C 612 743 599 758 582 767 C 564 775 541 780 512 780 C 482 780 458 775 440 767 C 422 758 409 743 400 722 C 390 700 384 671 381 635 C 378 599 377 553 377 498 C 377 442 378 396 381 359 C 384 322 390 292 400 270 C 409 248 422 232 440 223 C 458 213 482 209 512 209 Z" unicode="₀" />
<glyph horiz-adv-x="657" d="M 229 770 L 90 770 L 90 995 L 487 995 L 487 2 L 229 2 L 229 770 Z" unicode="₁" />
<glyph horiz-adv-x="883" d="M 92 182 L 344 451 C 380 489 408 520 429 544 C 450 568 466 588 477 605 C 488 621 495 636 499 648 C 502 660 504 674 504 690 C 504 710 501 726 496 738 C 491 750 484 759 474 766 C 464 772 451 777 437 779 C 422 781 405 782 387 782 C 351 782 316 777 281 768 C 246 758 216 747 190 735 L 86 938 C 124 956 171 973 227 987 C 283 1001 350 1008 428 1008 C 538 1008 618 984 670 938 C 722 892 748 824 748 735 C 748 695 745 660 739 630 C 733 599 722 568 706 538 C 689 508 666 475 637 441 C 607 406 569 365 522 317 L 410 203 L 766 203 L 766 2 L 92 2 L 92 182 Z" unicode="₂" />
<glyph horiz-adv-x="895" d="M 424 -10 C 353 -10 289 -3 233 8 C 177 20 127 40 84 66 L 188 256 C 222 237 256 223 290 214 C 324 205 362 201 403 201 C 433 201 457 203 475 207 C 493 211 508 217 518 227 C 528 237 535 249 539 265 C 543 281 545 300 545 324 C 545 342 543 358 539 371 C 535 383 527 394 516 402 C 504 410 489 415 469 419 C 449 422 423 424 391 424 L 238 424 L 238 621 L 391 621 C 417 621 438 622 455 625 C 472 628 485 633 495 640 C 504 646 510 655 514 666 C 518 677 520 691 520 707 C 520 725 517 739 513 750 C 509 760 502 768 493 774 C 483 780 471 783 456 785 C 440 787 421 788 399 788 C 363 788 327 784 292 776 C 257 768 225 757 195 743 L 96 934 C 114 944 137 954 163 963 C 189 972 217 980 247 987 C 277 993 308 998 341 1002 C 374 1006 408 1008 442 1008 C 492 1008 536 1004 576 997 C 615 989 648 977 676 959 C 704 941 725 916 740 885 C 754 853 762 814 762 766 C 762 737 760 711 758 688 C 755 664 750 644 743 626 C 735 608 725 592 713 579 C 701 565 685 555 666 547 C 690 539 709 528 725 516 C 740 503 752 487 761 468 C 770 448 776 425 780 397 C 784 369 786 335 786 297 C 786 239 778 191 763 152 C 747 113 724 82 694 58 C 664 34 626 16 581 6 C 535 -4 483 -10 424 -10 Z" unicode="₃" />
<glyph horiz-adv-x="958" d="M 96 356 L 444 995 L 696 995 L 354 367 L 518 367 L 561 582 L 745 582 L 745 367 L 866 367 L 866 168 L 745 168 L 745 2 L 516 2 L 516 168 L 96 168 L 96 356 Z" unicode="₄" />
<glyph horiz-adv-x="928" d="M 444 -10 C 371 -10 305 -4 245 8 C 185 20 132 38 86 63 L 193 260 C 211 250 228 241 245 235 C 262 228 280 222 299 218 C 317 213 337 210 358 208 C 379 206 402 205 428 205 C 454 205 476 206 494 210 C 512 214 526 221 537 231 C 548 241 556 255 561 273 C 566 291 569 314 569 344 C 569 371 566 393 561 409 C 556 425 548 438 537 447 C 525 456 511 462 493 465 C 475 467 453 469 428 469 C 394 469 368 465 349 459 C 329 453 311 444 295 434 L 127 481 L 154 995 L 766 995 L 766 782 L 362 782 L 354 637 C 362 643 370 648 379 653 C 388 658 399 662 412 666 C 425 669 440 671 458 673 C 476 675 497 676 522 676 C 574 676 618 670 656 659 C 693 648 723 630 747 604 C 770 578 787 543 798 500 C 809 456 815 402 815 338 C 815 264 806 204 789 158 C 771 112 747 77 715 52 C 683 27 644 10 598 2 C 552 -5 500 -10 444 -10 Z" unicode="₅" />
<glyph horiz-adv-x="985" d="M 510 -10 C 426 -10 359 0 308 21 C 257 41 218 71 190 109 C 162 147 144 194 135 249 C 125 303 121 365 121 434 C 121 500 123 559 127 613 C 131 667 140 714 152 756 C 164 797 182 833 204 863 C 226 893 255 918 291 938 C 327 957 371 971 423 981 C 475 990 536 995 608 995 L 745 995 L 745 786 L 598 786 C 550 786 512 783 482 778 C 452 772 428 764 411 752 C 393 740 381 724 374 704 C 366 684 362 659 360 629 C 377 648 403 663 438 675 C 472 686 520 692 580 692 C 638 692 687 683 725 666 C 763 648 794 624 816 593 C 838 562 854 526 863 484 C 872 442 877 396 877 346 C 877 286 870 234 857 190 C 844 146 823 109 794 79 C 765 49 727 27 681 12 C 634 -2 577 -10 510 -10 Z M 512 195 C 536 195 557 198 573 204 C 589 210 601 220 610 234 C 618 247 624 264 628 285 C 631 305 633 330 633 360 C 633 388 631 412 627 432 C 623 452 617 468 608 480 C 599 492 587 501 572 507 C 557 513 538 516 516 516 C 470 516 435 505 411 483 C 387 461 375 421 375 365 C 375 335 376 309 380 288 C 383 266 389 249 399 235 C 409 221 423 211 441 205 C 459 198 482 195 512 195 Z" unicode="₆" />
<glyph horiz-adv-x="846" d="M 483 770 L 84 770 L 84 995 L 756 995 L 756 799 L 467 2 L 203 2 L 483 770 Z" unicode="₇" />
<glyph horiz-adv-x="981" d="M 487 -10 C 431 -10 383 -6 343 1 C 303 8 269 18 241 32 C 213 45 190 61 173 80 C 155 98 142 119 133 141 C 123 163 117 186 114 211 C 110 235 109 261 109 287 C 109 315 110 343 113 370 C 115 396 121 421 130 444 C 139 466 152 486 170 504 C 187 522 210 537 240 549 C 218 559 201 571 188 586 C 175 601 165 618 158 636 C 150 654 145 674 143 695 C 140 716 139 738 139 762 C 139 794 143 824 153 854 C 162 884 179 910 205 933 C 231 955 266 973 312 987 C 357 1001 415 1008 487 1008 C 559 1008 618 1001 664 987 C 710 973 745 955 771 933 C 797 910 814 884 824 854 C 833 824 838 794 838 762 C 838 738 836 716 833 695 C 830 673 825 653 818 635 C 810 617 800 600 786 586 C 772 571 755 559 735 549 C 766 537 790 522 808 504 C 826 486 839 466 848 444 C 857 421 863 396 865 370 C 867 343 868 315 868 287 C 868 247 863 210 855 174 C 847 138 829 107 803 80 C 777 52 738 30 688 14 C 638 -1 571 -10 487 -10 Z M 487 180 C 517 180 540 183 558 190 C 576 196 589 206 599 218 C 609 230 615 244 618 261 C 621 278 623 297 623 317 C 623 337 621 356 618 373 C 615 389 609 404 599 416 C 589 428 576 437 558 443 C 540 449 517 453 487 453 C 457 453 434 449 417 443 C 400 437 387 428 378 416 C 368 404 362 389 360 373 C 357 356 356 337 356 317 C 356 297 357 278 360 261 C 362 244 368 230 378 218 C 387 206 400 196 417 190 C 434 183 457 180 487 180 Z M 487 618 C 511 618 530 620 545 624 C 559 628 571 635 580 643 C 588 651 594 662 597 675 C 600 687 602 702 602 719 C 602 735 600 749 597 761 C 594 773 588 784 580 792 C 571 800 559 807 545 811 C 530 815 511 817 487 817 C 464 817 445 815 431 811 C 417 807 405 800 397 792 C 389 784 383 773 380 761 C 376 749 375 735 375 719 C 375 702 376 687 380 675 C 383 662 389 651 397 643 C 405 635 417 628 431 624 C 445 620 464 618 487 618 Z" unicode="₈" />
<glyph horiz-adv-x="954" d="M 209 207 L 356 207 C 403 207 442 209 472 215 C 502 220 525 229 543 241 C 560 253 572 268 580 288 C 587 308 592 332 594 362 C 576 342 550 327 516 317 C 481 306 434 301 375 301 C 315 301 267 310 229 328 C 191 346 160 370 138 402 C 115 433 99 470 91 513 C 82 555 78 601 78 651 C 78 710 84 762 97 807 C 109 851 130 888 159 918 C 188 948 226 970 273 985 C 319 1000 376 1008 444 1008 C 527 1008 594 997 645 977 C 695 956 734 926 762 888 C 790 850 808 803 817 748 C 826 693 831 631 831 563 C 831 496 829 436 825 383 C 821 329 812 282 800 240 C 788 198 771 163 749 133 C 727 103 698 78 662 59 C 626 39 582 25 530 16 C 478 6 417 2 346 2 L 209 2 L 209 207 Z M 438 477 C 460 477 479 479 497 484 C 514 489 529 498 541 510 C 553 522 562 537 568 557 C 574 576 578 600 578 629 C 578 659 576 684 573 706 C 569 728 563 745 553 759 C 543 773 530 783 512 789 C 494 795 471 799 442 799 C 416 799 396 795 381 789 C 365 783 353 773 344 760 C 335 746 329 729 326 709 C 323 688 322 663 322 635 C 322 606 323 582 327 562 C 331 542 337 525 346 513 C 355 500 367 491 382 485 C 396 479 415 477 438 477 Z" unicode="₉" />
<glyph horiz-adv-x="348" d="" unicode=" " />
<glyph horiz-adv-x="707" d="M 213 1044 L 496 1044 L 522 0 L 184 0 L 213 1044 Z M 178 1518 L 530 1518 L 530 1157 L 178 1157 L 178 1518 Z" unicode="¡" />
<glyph horiz-adv-x="977" d="M 406 8 C 342 22 289 44 247 76 C 205 108 172 148 148 197 C 123 245 106 302 96 367 C 86 432 82 504 82 584 C 82 660 86 730 96 794 C 105 858 122 914 146 963 C 170 1011 203 1052 245 1085 C 287 1117 340 1141 406 1157 L 406 1321 L 705 1321 L 705 1169 C 747 1163 784 1156 816 1147 C 848 1138 878 1127 907 1114 L 776 852 C 752 864 727 874 699 882 C 671 889 639 893 604 893 C 564 893 531 887 505 876 C 479 864 458 846 442 821 C 426 795 415 762 409 722 C 402 681 399 631 399 573 C 399 515 402 465 408 424 C 414 383 425 350 441 325 C 457 299 478 281 506 269 C 533 257 568 252 610 252 C 650 252 685 256 716 266 C 746 275 776 286 805 299 L 920 68 C 880 47 844 31 810 21 C 776 11 741 4 705 0 L 705 -195 L 406 -195 L 406 8 Z" unicode="¢" />
<glyph horiz-adv-x="1161" d="M 786 -10 C 721 -10 657 -2 594 12 C 531 27 474 47 422 72 C 380 44 327 25 263 15 C 199 5 121 0 31 0 L 31 270 C 84 270 127 271 159 274 C 191 277 215 283 233 293 C 250 302 261 315 267 333 C 273 350 276 373 276 403 C 276 433 272 468 265 509 C 258 549 250 593 240 639 L 37 639 L 37 889 L 182 889 C 172 933 165 975 159 1017 C 153 1058 150 1096 150 1130 C 150 1270 188 1373 265 1438 C 341 1503 458 1536 616 1536 C 706 1536 787 1528 859 1512 C 931 1496 996 1473 1055 1444 L 924 1192 C 902 1202 879 1210 853 1218 C 827 1226 801 1232 774 1237 C 747 1241 720 1245 693 1247 C 666 1249 641 1251 618 1251 C 560 1251 519 1237 494 1210 C 469 1182 457 1144 457 1094 C 457 1066 459 1035 463 1001 C 467 966 473 929 481 889 L 774 889 L 774 639 L 528 639 C 536 595 543 553 549 513 C 554 473 557 438 557 408 C 557 384 556 363 554 344 C 552 324 551 305 549 287 C 577 276 608 267 641 261 C 673 255 708 252 745 252 C 767 252 785 255 799 261 C 813 267 823 277 831 290 C 838 302 843 318 846 337 C 848 355 850 377 850 403 L 850 520 L 1120 520 L 1120 391 C 1120 317 1114 255 1103 204 C 1091 153 1073 112 1047 80 C 1021 48 986 25 944 11 C 901 -2 848 -10 786 -10 Z" unicode="£" />
<glyph horiz-adv-x="1188" d="M 125 662 L 430 662 L 14 1518 L 344 1518 L 594 936 L 846 1518 L 1171 1518 L 758 662 L 1063 662 L 1063 442 L 743 442 L 743 334 L 1063 334 L 1063 115 L 743 115 L 743 0 L 442 0 L 442 115 L 125 115 L 125 334 L 442 334 L 442 442 L 125 442 L 125 662 Z" unicode="¥" />
<glyph horiz-adv-x="674" d="M 180 461 L 496 461 L 496 -324 L 180 -324 L 180 461 Z M 180 1575 L 496 1575 L 496 791 L 180 791 L 180 1575 Z" unicode="¦" />
<glyph horiz-adv-x="1001" d="M 258 -10 C 242 -10 228 -9 217 -9 C 205 -9 195 -8 187 -8 C 178 -8 170 -7 164 -7 C 157 -7 150 -6 143 -6 L 143 236 L 225 236 C 253 236 275 238 291 244 C 307 250 320 258 329 269 C 337 280 343 294 346 310 C 348 326 350 345 350 367 L 350 428 C 304 436 265 448 233 466 C 201 483 176 505 157 532 C 137 558 123 590 115 627 C 106 663 102 705 102 752 C 102 798 106 839 115 876 C 123 912 137 944 157 972 C 176 1000 201 1023 233 1041 C 265 1059 304 1072 350 1081 L 350 1126 C 350 1183 354 1236 363 1285 C 372 1334 390 1376 418 1412 C 445 1448 484 1476 534 1496 C 584 1516 651 1526 735 1526 C 751 1526 764 1525 776 1525 C 787 1525 797 1524 805 1524 C 813 1524 821 1523 828 1523 C 835 1523 842 1522 850 1522 L 850 1268 L 768 1268 C 740 1268 717 1265 701 1259 C 685 1253 672 1245 664 1234 C 655 1223 649 1209 647 1193 C 644 1176 643 1157 643 1135 L 643 1081 C 689 1073 729 1060 762 1042 C 794 1024 821 1002 841 975 C 861 947 876 915 885 878 C 894 840 899 798 899 752 C 899 704 894 662 886 626 C 877 589 863 557 843 530 C 823 503 796 481 764 464 C 731 446 691 434 643 426 L 643 389 C 643 331 638 278 629 230 C 619 181 601 139 574 103 C 546 67 507 40 457 20 C 407 0 340 -10 258 -10 Z M 500 618 C 554 618 593 628 618 648 C 642 668 655 699 655 743 C 655 787 642 818 618 838 C 593 858 554 868 500 868 C 446 868 406 858 382 838 C 358 818 346 787 346 743 C 346 699 358 668 382 648 C 406 628 446 618 500 618 Z" unicode="§" />
<glyph horiz-adv-x="997" d="M 162 1544 L 436 1544 L 436 1270 L 162 1270 L 162 1544 Z M 563 1544 L 836 1544 L 836 1270 L 563 1270 L 563 1544 Z" unicode="¨" />
<glyph horiz-adv-x="1368" d="M 696 283 C 622 283 560 294 511 316 C 462 338 423 371 395 413 C 366 455 346 506 334 566 C 322 626 317 693 317 768 C 317 840 322 905 333 965 C 344 1025 364 1076 393 1119 C 422 1161 462 1194 513 1218 C 564 1241 630 1253 711 1253 C 761 1253 808 1247 852 1235 C 896 1223 935 1207 969 1186 L 862 1022 C 842 1034 819 1044 793 1052 C 767 1059 737 1063 705 1063 C 671 1063 642 1058 618 1049 C 594 1039 575 1023 560 1000 C 545 977 534 946 528 908 C 521 869 518 820 518 762 C 518 704 521 656 528 617 C 534 578 545 547 560 524 C 574 500 594 484 618 474 C 642 464 671 459 707 459 C 740 459 769 462 795 470 C 820 478 846 491 874 510 L 973 354 C 953 342 934 331 915 323 C 895 314 875 307 853 301 C 831 295 807 290 782 287 C 756 284 728 283 696 283 Z M 684 -18 C 600 -18 527 -9 464 9 C 400 27 346 52 300 85 C 254 118 215 158 185 205 C 154 251 129 303 111 361 C 93 418 80 480 72 547 C 64 614 61 684 61 758 C 61 831 64 901 72 969 C 80 1036 93 1098 111 1156 C 129 1214 154 1266 185 1313 C 215 1360 254 1400 300 1434 C 346 1467 400 1493 464 1511 C 527 1529 600 1538 684 1538 C 766 1538 839 1529 903 1511 C 966 1493 1021 1467 1067 1434 C 1113 1400 1152 1360 1183 1313 C 1214 1266 1239 1214 1258 1156 C 1276 1098 1289 1036 1297 969 C 1305 901 1309 831 1309 758 C 1309 684 1305 614 1297 547 C 1289 480 1276 418 1258 361 C 1239 303 1214 251 1183 205 C 1152 158 1113 118 1067 85 C 1021 52 966 27 903 9 C 839 -9 766 -18 684 -18 Z M 684 92 C 786 92 870 109 936 143 C 1001 177 1052 223 1090 283 C 1128 343 1154 413 1168 495 C 1182 576 1190 664 1190 758 C 1190 852 1182 940 1168 1022 C 1154 1103 1128 1173 1090 1233 C 1052 1293 1001 1340 936 1374 C 870 1408 786 1425 684 1425 C 581 1425 497 1408 432 1374 C 366 1340 315 1293 278 1233 C 240 1173 215 1103 201 1022 C 187 940 180 852 180 758 C 180 664 187 576 201 495 C 215 413 240 343 278 283 C 315 223 366 177 432 143 C 497 109 581 92 684 92 Z" unicode="©" />
<glyph horiz-adv-x="1016" d="M 375 565 C 321 565 276 572 241 587 C 205 601 177 622 156 648 C 134 674 119 705 111 741 C 102 777 98 816 98 858 C 98 924 107 978 126 1020 C 144 1062 173 1096 213 1120 C 252 1144 302 1160 363 1170 C 424 1179 497 1184 582 1184 L 612 1184 C 611 1205 609 1223 605 1239 C 601 1255 595 1268 586 1278 C 577 1288 565 1295 549 1300 C 533 1304 513 1307 489 1307 C 437 1307 391 1301 351 1291 C 311 1281 278 1269 250 1257 L 150 1462 C 190 1482 240 1500 300 1514 C 360 1528 432 1536 518 1536 C 582 1536 636 1530 680 1518 C 723 1506 758 1488 784 1462 C 810 1436 828 1403 839 1363 C 850 1322 856 1272 856 1214 L 856 866 C 856 852 856 840 858 831 C 859 821 862 814 866 809 C 870 803 877 800 886 798 C 894 796 906 795 922 795 L 922 573 C 908 573 895 572 882 572 C 869 571 857 571 846 571 C 816 571 790 572 768 574 C 746 576 727 580 711 587 C 695 594 681 604 671 617 C 660 630 651 648 645 670 C 633 650 619 634 603 621 C 587 607 569 596 548 588 C 526 580 502 574 474 570 C 446 566 413 565 375 565 Z M 129 463 L 877 463 L 877 242 L 129 242 L 129 463 Z M 453 770 C 477 770 499 772 519 777 C 539 782 555 791 569 803 C 583 815 593 832 601 854 C 608 875 612 902 612 934 L 612 1008 L 582 1008 C 535 1008 496 1006 465 1003 C 433 1000 408 994 390 986 C 371 977 358 965 350 949 C 342 933 338 912 338 887 C 338 845 346 815 364 797 C 381 779 411 770 453 770 Z" unicode="ª" />
<glyph horiz-adv-x="1339" d="M 129 580 L 385 1161 L 657 1161 L 424 580 L 657 0 L 385 0 L 129 580 Z M 635 580 L 891 1161 L 1161 1161 L 928 580 L 1161 0 L 891 0 L 635 580 Z" unicode="«" />
<glyph horiz-adv-x="1247" d="M 1085 215 L 793 215 L 793 588 L 162 588 L 162 856 L 1085 856 L 1085 215 Z" unicode="¬" />
<glyph horiz-adv-x="711" d="M 61 823 L 647 823 L 647 541 L 61 541 L 61 823 Z" unicode="­" />
<glyph horiz-adv-x="1368" d="M 684 -18 C 600 -18 527 -9 464 9 C 400 27 346 52 300 85 C 254 118 215 158 185 205 C 154 251 129 303 111 361 C 93 418 80 480 72 547 C 64 614 61 684 61 758 C 61 831 64 901 72 969 C 80 1036 93 1098 111 1156 C 129 1214 154 1266 185 1313 C 215 1360 254 1400 300 1434 C 346 1467 400 1493 464 1511 C 527 1529 600 1538 684 1538 C 766 1538 839 1529 903 1511 C 966 1493 1021 1467 1067 1434 C 1113 1400 1152 1360 1183 1313 C 1214 1266 1239 1214 1258 1156 C 1276 1098 1289 1036 1297 969 C 1305 901 1309 831 1309 758 C 1309 684 1305 614 1297 547 C 1289 480 1276 418 1258 361 C 1239 303 1214 251 1183 205 C 1152 158 1113 118 1067 85 C 1021 52 966 27 903 9 C 839 -9 766 -18 684 -18 Z M 684 92 C 786 92 870 109 936 143 C 1001 177 1052 223 1090 283 C 1128 343 1154 413 1168 495 C 1182 576 1190 664 1190 758 C 1190 852 1182 940 1168 1022 C 1154 1103 1128 1173 1090 1233 C 1052 1293 1001 1340 936 1374 C 870 1408 786 1425 684 1425 C 581 1425 497 1408 432 1374 C 366 1340 315 1293 278 1233 C 240 1173 215 1103 201 1022 C 187 940 180 852 180 758 C 180 664 187 576 201 495 C 215 413 240 343 278 283 C 315 223 366 177 432 143 C 497 109 581 92 684 92 Z M 684 627 L 563 627 L 563 299 L 373 299 L 373 1227 L 727 1227 C 787 1227 836 1220 875 1207 C 914 1194 945 1175 967 1150 C 989 1125 1005 1094 1014 1058 C 1023 1022 1028 980 1028 934 C 1028 897 1025 863 1020 833 C 1015 802 1006 774 994 750 C 981 725 964 704 944 686 C 923 668 897 655 866 645 L 1022 299 L 827 299 L 684 627 Z M 719 780 C 765 780 797 790 815 812 C 833 833 842 869 842 920 C 842 970 833 1006 815 1028 C 797 1050 765 1061 719 1061 L 563 1061 L 563 780 L 719 780 Z" unicode="®" />
<glyph horiz-adv-x="997" d="M 129 1526 L 866 1526 L 866 1270 L 129 1270 L 129 1526 Z" unicode="¯" />
<glyph horiz-adv-x="971" d="M 485 545 C 400 545 331 558 277 584 C 223 610 181 646 151 692 C 120 737 99 789 87 849 C 75 909 70 972 70 1040 C 70 1106 75 1170 87 1230 C 99 1290 120 1342 151 1388 C 181 1433 223 1469 277 1496 C 331 1522 400 1536 485 1536 C 569 1536 639 1522 694 1496 C 748 1469 791 1433 822 1388 C 853 1342 875 1290 887 1230 C 899 1170 905 1106 905 1040 C 905 972 899 909 887 849 C 875 789 853 737 822 692 C 791 646 748 610 694 584 C 639 558 569 545 485 545 Z M 485 776 C 521 776 551 782 573 796 C 595 809 613 827 625 850 C 637 873 645 900 649 931 C 653 962 655 996 655 1032 C 655 1068 653 1101 649 1132 C 645 1162 637 1189 625 1212 C 613 1234 595 1252 573 1265 C 551 1277 521 1284 485 1284 C 449 1284 420 1277 398 1265 C 376 1252 359 1234 347 1212 C 335 1189 327 1162 323 1132 C 319 1101 317 1068 317 1032 C 317 996 319 962 323 931 C 327 900 335 873 347 850 C 359 827 376 809 398 796 C 420 782 449 776 485 776 Z" unicode="°" />
<glyph horiz-adv-x="1247" d="M 162 281 L 477 281 L 477 588 L 162 588 L 162 856 L 477 856 L 477 1225 L 770 1225 L 770 856 L 1085 856 L 1085 588 L 770 588 L 770 281 L 1085 281 L 1085 12 L 162 12 L 162 281 Z" unicode="±" />
<glyph horiz-adv-x="883" d="M 92 705 L 344 973 C 380 1011 408 1042 429 1066 C 450 1090 466 1110 477 1127 C 488 1143 495 1158 499 1170 C 502 1182 504 1196 504 1212 C 504 1232 501 1248 496 1260 C 491 1272 484 1282 474 1288 C 464 1294 451 1299 437 1301 C 422 1303 405 1305 387 1305 C 351 1305 316 1300 281 1290 C 246 1280 216 1269 190 1257 L 86 1460 C 124 1478 171 1495 227 1509 C 283 1523 350 1530 428 1530 C 538 1530 618 1507 670 1461 C 722 1415 748 1347 748 1257 C 748 1217 745 1182 739 1152 C 733 1122 722 1091 706 1061 C 689 1030 666 997 637 963 C 607 928 569 887 522 840 L 410 725 L 766 725 L 766 524 L 92 524 L 92 705 Z" unicode="²" />
<glyph horiz-adv-x="895" d="M 424 512 C 282 512 169 537 84 588 L 188 778 C 222 759 256 745 290 736 C 324 727 362 723 403 723 C 433 723 457 725 475 729 C 493 733 508 740 518 750 C 528 759 535 771 539 787 C 543 803 545 822 545 846 C 545 864 543 880 539 893 C 535 906 527 916 516 924 C 504 932 489 937 469 941 C 449 944 423 946 391 946 L 238 946 L 238 1143 L 391 1143 C 417 1143 438 1144 455 1147 C 472 1150 485 1155 495 1162 C 504 1168 510 1177 514 1188 C 518 1199 520 1213 520 1229 C 520 1247 517 1261 513 1272 C 509 1282 502 1290 493 1296 C 483 1302 471 1306 456 1308 C 440 1310 421 1311 399 1311 C 363 1311 327 1307 292 1299 C 257 1291 225 1280 195 1266 L 96 1456 C 114 1466 137 1476 163 1485 C 189 1494 217 1502 247 1509 C 277 1515 308 1520 341 1524 C 374 1528 408 1530 442 1530 C 492 1530 536 1526 576 1519 C 615 1512 648 1499 676 1481 C 704 1463 725 1438 740 1407 C 754 1375 762 1336 762 1288 C 762 1259 760 1233 758 1210 C 755 1186 750 1166 743 1148 C 735 1130 725 1114 713 1101 C 701 1087 685 1077 666 1069 C 690 1061 709 1050 725 1038 C 740 1025 752 1009 761 990 C 770 970 776 947 780 919 C 784 891 786 857 786 819 C 786 761 778 713 763 674 C 747 635 724 604 694 580 C 664 556 626 538 581 528 C 535 517 483 512 424 512 Z" unicode="³" />
<glyph horiz-adv-x="997" d="M 535 1645 L 877 1645 L 582 1270 L 317 1270 L 535 1645 Z" unicode="´" />
<glyph horiz-adv-x="1151" d="M 436 -14 C 428 -14 420 -13 412 -13 C 404 -12 396 -12 389 -12 L 389 -324 L 96 -324 L 96 1161 L 408 1161 L 408 457 C 408 422 409 392 412 367 C 415 341 422 320 432 304 C 442 287 457 274 477 266 C 497 258 523 254 557 254 C 598 254 631 259 656 269 C 680 279 699 294 712 314 C 725 334 733 359 737 390 C 741 421 743 458 743 500 L 743 1161 L 1053 1161 L 1053 10 L 805 -8 L 782 92 C 768 74 751 59 732 46 C 713 33 690 22 663 13 C 635 4 603 -2 566 -7 C 529 -11 486 -14 436 -14 Z" unicode="µ" />
<glyph horiz-adv-x="1174" d="M 346 541 C 288 557 241 580 204 610 C 166 639 137 674 115 715 C 93 755 77 801 68 851 C 59 901 55 956 55 1016 C 55 1094 62 1164 78 1226 C 94 1288 122 1340 163 1384 C 203 1427 259 1460 330 1483 C 400 1506 490 1518 600 1518 L 1071 1518 L 1071 0 L 770 0 L 770 510 L 647 510 L 647 0 L 346 0 L 346 541 Z M 770 776 L 770 1239 L 594 1239 C 551 1239 515 1234 487 1226 C 458 1217 435 1203 417 1184 C 399 1165 387 1141 380 1112 C 372 1082 369 1047 369 1006 C 369 964 372 929 380 900 C 388 871 400 847 418 829 C 436 811 459 797 488 789 C 516 780 552 776 594 776 L 770 776 Z" unicode="¶" />
<glyph horiz-adv-x="532" d="M 90 944 L 442 944 L 442 569 L 90 569 L 90 944 Z" unicode="·" />
<glyph horiz-adv-x="997" d="M 512 -498 C 468 -498 425 -493 385 -484 C 344 -474 306 -461 270 -444 L 336 -301 C 366 -312 393 -320 418 -325 C 442 -329 466 -332 489 -332 C 529 -332 556 -326 570 -314 C 584 -302 592 -282 592 -254 C 592 -237 589 -224 584 -214 C 578 -204 570 -196 558 -192 C 546 -187 530 -184 512 -184 C 493 -184 470 -184 444 -186 L 391 -147 L 424 14 L 592 14 L 573 -86 C 605 -84 634 -85 661 -89 C 687 -93 710 -103 730 -117 C 749 -131 764 -151 775 -177 C 785 -203 791 -236 791 -276 C 791 -315 786 -349 776 -377 C 766 -405 749 -428 727 -446 C 705 -464 676 -477 641 -485 C 605 -493 562 -498 512 -498 Z" unicode="¸" />
<glyph horiz-adv-x="657" d="M 229 1292 L 90 1292 L 90 1518 L 487 1518 L 487 524 L 229 524 L 229 1292 Z" unicode="¹" />
<glyph horiz-adv-x="1016" d="M 508 561 C 425 561 357 572 304 595 C 250 618 208 651 177 693 C 146 735 124 787 112 847 C 100 907 94 975 94 1049 C 94 1121 100 1188 112 1248 C 124 1308 145 1359 176 1402 C 207 1444 249 1477 303 1501 C 356 1524 424 1536 508 1536 C 592 1536 661 1524 715 1500 C 769 1476 811 1443 842 1401 C 873 1358 894 1307 906 1247 C 918 1187 924 1121 924 1049 C 924 973 918 905 906 845 C 894 785 873 734 842 692 C 811 650 769 617 715 595 C 661 572 592 561 508 561 Z M 508 782 C 544 782 572 787 594 799 C 615 811 631 828 642 850 C 653 872 660 900 663 932 C 666 964 668 1001 668 1042 C 668 1082 666 1119 663 1151 C 660 1183 653 1210 642 1232 C 631 1254 615 1270 594 1282 C 572 1294 544 1300 508 1300 C 472 1300 444 1294 423 1282 C 402 1270 386 1254 375 1232 C 363 1210 356 1183 353 1151 C 349 1119 348 1082 348 1042 C 348 1001 349 964 353 932 C 356 900 363 872 375 850 C 386 828 402 811 423 799 C 444 787 472 782 508 782 Z M 129 463 L 885 463 L 885 242 L 129 242 L 129 463 Z" unicode="º" />
<glyph horiz-adv-x="1339" d="M 412 582 L 176 1161 L 449 1161 L 705 582 L 449 0 L 176 0 L 412 582 Z M 915 582 L 682 1161 L 954 1161 L 1208 582 L 954 0 L 682 0 L 915 582 Z" unicode="»" />
<glyph horiz-adv-x="1845" d="M 1081 1518 L 1356 1518 L 659 0 L 383 0 L 1081 1518 Z M 1001 354 L 1348 993 L 1602 993 L 1260 367 L 1423 367 L 1466 580 L 1651 580 L 1651 367 L 1772 367 L 1772 168 L 1651 168 L 1651 0 L 1421 0 L 1421 168 L 1001 168 L 1001 354 Z M 236 1292 L 98 1292 L 98 1518 L 494 1518 L 494 524 L 236 524 L 236 1292 Z" unicode="¼" />
<glyph horiz-adv-x="1935" d="M 1081 1518 L 1356 1518 L 659 0 L 383 0 L 1081 1518 Z M 236 1292 L 98 1292 L 98 1518 L 494 1518 L 494 524 L 236 524 L 236 1292 Z M 1163 180 L 1415 449 C 1451 487 1480 519 1501 543 C 1522 567 1538 587 1549 603 C 1560 619 1567 634 1570 646 C 1573 658 1575 672 1575 688 C 1575 708 1572 724 1567 736 C 1562 748 1555 757 1545 764 C 1535 770 1523 775 1509 777 C 1494 779 1477 780 1458 780 C 1423 780 1388 775 1353 766 C 1317 756 1287 745 1262 733 L 1159 936 C 1177 945 1198 954 1222 963 C 1245 971 1271 979 1299 986 C 1327 992 1357 998 1391 1002 C 1425 1006 1461 1008 1501 1008 C 1609 1008 1690 984 1742 937 C 1794 889 1821 821 1821 733 C 1821 694 1817 659 1811 628 C 1805 597 1793 566 1776 536 C 1759 505 1736 472 1706 437 C 1676 402 1639 361 1593 315 L 1481 201 L 1837 201 L 1837 0 L 1163 0 L 1163 180 Z" unicode="½" />
<glyph horiz-adv-x="2028" d="M 424 512 C 282 512 169 537 84 588 L 188 778 C 222 759 256 745 290 736 C 324 727 362 723 403 723 C 433 723 457 725 475 729 C 493 733 508 740 518 750 C 528 759 535 771 539 787 C 543 803 545 822 545 846 C 545 864 543 880 539 893 C 535 906 527 916 516 924 C 504 932 489 937 469 941 C 449 944 423 946 391 946 L 238 946 L 238 1143 L 391 1143 C 417 1143 438 1144 455 1147 C 472 1150 485 1155 495 1162 C 504 1168 510 1177 514 1188 C 518 1199 520 1213 520 1229 C 520 1247 517 1261 513 1272 C 509 1282 502 1290 493 1296 C 483 1302 471 1306 456 1308 C 440 1310 421 1311 399 1311 C 363 1311 327 1307 292 1299 C 257 1291 225 1280 195 1266 L 96 1456 C 114 1466 137 1476 163 1485 C 189 1494 217 1502 247 1509 C 277 1515 308 1520 341 1524 C 374 1528 408 1530 442 1530 C 492 1530 536 1526 576 1519 C 615 1512 648 1499 676 1481 C 704 1463 725 1438 740 1407 C 754 1375 762 1336 762 1288 C 762 1259 760 1233 758 1210 C 755 1186 750 1166 743 1148 C 735 1130 725 1114 713 1101 C 701 1087 685 1077 666 1069 C 690 1061 709 1050 725 1038 C 740 1025 752 1009 761 990 C 770 970 776 947 780 919 C 784 891 786 857 786 819 C 786 761 778 713 763 674 C 747 635 724 604 694 580 C 664 556 626 538 581 528 C 535 517 483 512 424 512 Z M 1264 1518 L 1538 1518 L 842 0 L 565 0 L 1264 1518 Z M 1184 354 L 1532 993 L 1786 993 L 1444 367 L 1608 367 L 1651 580 L 1835 580 L 1835 367 L 1954 367 L 1954 168 L 1835 168 L 1835 0 L 1606 0 L 1606 168 L 1184 168 L 1184 354 Z" unicode="¾" />
<glyph horiz-adv-x="1186" d="M 582 -18 C 491 -18 416 -9 356 8 C 296 26 249 51 214 83 C 179 115 154 154 140 199 C 126 244 119 294 119 348 C 119 402 123 449 133 487 C 143 525 156 559 174 588 C 192 617 213 643 238 667 C 263 691 291 715 322 741 C 362 774 393 802 416 824 C 438 846 455 868 466 890 C 476 912 483 936 485 964 C 487 992 487 1028 487 1073 L 791 1073 C 791 1016 789 968 785 929 C 781 890 773 855 759 823 C 745 791 725 760 697 730 C 669 700 632 665 584 627 C 556 603 532 583 513 566 C 493 549 478 533 466 517 C 454 501 445 484 440 468 C 434 451 432 432 432 410 C 432 388 434 369 440 351 C 445 333 455 318 470 306 C 485 294 506 284 532 278 C 558 271 593 268 635 268 C 690 268 743 275 795 290 C 846 304 894 322 940 344 L 1075 84 C 1011 52 940 27 861 9 C 781 -9 688 -18 582 -18 Z M 463 1518 L 815 1518 L 815 1196 L 463 1196 L 463 1518 Z" unicode="¿" />
<glyph horiz-adv-x="1343" d="M 500 1528 L 844 1528 L 1317 0 L 987 0 L 918 236 L 416 236 L 348 0 L 27 0 L 500 1528 Z M 840 518 L 668 1094 L 492 518 L 840 518 Z M 291 1970 L 635 1970 L 852 1595 L 588 1595 L 291 1970 Z" unicode="À" />
<glyph horiz-adv-x="1343" d="M 500 1528 L 844 1528 L 1317 0 L 987 0 L 918 236 L 416 236 L 348 0 L 27 0 L 500 1528 Z M 840 518 L 668 1094 L 492 518 L 840 518 Z M 707 1970 L 1049 1970 L 754 1595 L 489 1595 L 707 1970 Z" unicode="Á" />
<glyph horiz-adv-x="1343" d="M 500 1528 L 844 1528 L 1317 0 L 987 0 L 918 236 L 416 236 L 348 0 L 27 0 L 500 1528 Z M 840 518 L 668 1094 L 492 518 L 840 518 Z M 528 1970 L 813 1970 L 1038 1595 L 793 1595 L 668 1757 L 545 1595 L 305 1595 L 528 1970 Z" unicode="Â" />
<glyph horiz-adv-x="1343" d="M 500 1528 L 844 1528 L 1317 0 L 987 0 L 918 236 L 416 236 L 348 0 L 27 0 L 500 1528 Z M 840 518 L 668 1094 L 492 518 L 840 518 Z M 233 1698 C 273 1776 316 1833 364 1869 C 411 1905 467 1923 532 1923 C 559 1923 584 1918 607 1909 C 630 1899 651 1889 671 1878 C 691 1867 709 1857 726 1848 C 743 1839 759 1835 774 1835 C 795 1835 815 1842 835 1858 C 855 1873 877 1898 903 1933 L 1100 1819 C 1060 1741 1016 1683 970 1646 C 923 1609 867 1591 803 1591 C 775 1591 749 1595 726 1604 C 702 1613 681 1623 661 1634 C 641 1644 623 1654 607 1663 C 590 1672 575 1677 561 1677 C 539 1677 519 1670 499 1656 C 479 1642 456 1618 432 1583 L 233 1698 Z" unicode="Ã" />
<glyph horiz-adv-x="1343" d="M 500 1528 L 844 1528 L 1317 0 L 987 0 L 918 236 L 416 236 L 348 0 L 27 0 L 500 1528 Z M 840 518 L 668 1094 L 492 518 L 840 518 Z M 334 1870 L 608 1870 L 608 1595 L 334 1595 L 334 1870 Z M 735 1870 L 1008 1870 L 1008 1595 L 735 1595 L 735 1870 Z" unicode="Ä" />
<glyph horiz-adv-x="1343" d="M 477 1456 C 456 1480 441 1510 432 1545 C 422 1579 418 1617 418 1657 C 418 1696 422 1733 431 1767 C 439 1801 454 1830 474 1855 C 494 1880 520 1900 552 1914 C 584 1928 623 1935 670 1935 C 715 1935 754 1928 786 1914 C 818 1900 845 1880 865 1855 C 885 1830 900 1801 910 1767 C 919 1733 924 1696 924 1657 C 924 1617 919 1580 909 1547 C 899 1513 884 1484 864 1460 L 1317 0 L 987 0 L 918 236 L 416 236 L 348 0 L 27 0 L 477 1456 Z M 840 518 L 668 1094 L 492 518 L 840 518 Z M 670 1530 C 690 1530 706 1533 719 1539 C 732 1545 742 1553 750 1565 C 757 1576 762 1589 765 1605 C 768 1620 770 1637 770 1657 C 770 1675 768 1693 765 1709 C 762 1725 757 1738 750 1750 C 742 1761 732 1770 719 1776 C 706 1782 690 1786 670 1786 C 650 1786 634 1782 621 1776 C 608 1770 598 1761 590 1750 C 582 1738 577 1725 574 1709 C 570 1693 569 1675 569 1657 C 569 1637 570 1620 574 1605 C 577 1589 582 1576 590 1565 C 598 1553 608 1545 621 1539 C 634 1533 650 1530 670 1530 Z" unicode="Å" />
<glyph horiz-adv-x="1925" d="M 743 1518 L 1839 1518 L 1839 1225 L 1217 1225 L 1217 918 L 1810 918 L 1810 631 L 1217 631 L 1217 287 L 1841 287 L 1841 0 L 903 0 L 903 240 L 446 240 L 334 0 L 18 0 L 743 1518 Z M 903 514 L 903 1198 L 575 514 L 903 514 Z" unicode="Æ" />
<glyph horiz-adv-x="1155" d="M 590 -498 C 546 -498 503 -493 463 -484 C 422 -474 384 -461 348 -444 L 414 -301 C 444 -312 471 -320 496 -325 C 520 -329 544 -332 567 -332 C 607 -332 634 -326 648 -314 C 662 -302 670 -282 670 -254 C 670 -237 667 -224 662 -214 C 656 -204 648 -196 636 -192 C 624 -187 608 -184 590 -184 C 571 -184 548 -184 522 -186 L 469 -147 L 498 -2 C 412 14 341 43 285 85 C 228 127 183 181 149 246 C 115 311 90 387 76 473 C 62 559 55 654 55 758 C 55 834 58 907 66 975 C 73 1043 86 1106 104 1164 C 122 1222 147 1274 178 1320 C 208 1366 247 1405 294 1437 C 341 1469 397 1493 462 1510 C 526 1527 602 1536 688 1536 C 768 1536 843 1526 913 1507 C 983 1488 1045 1461 1100 1425 L 928 1159 C 896 1178 860 1193 818 1205 C 776 1217 730 1223 678 1223 C 625 1223 580 1215 542 1201 C 504 1187 474 1162 450 1126 C 426 1090 408 1041 397 980 C 386 919 381 842 381 750 C 381 658 386 581 397 520 C 407 458 425 409 449 372 C 473 335 504 309 542 293 C 580 277 626 270 680 270 C 706 270 731 271 755 274 C 778 277 800 282 822 288 C 843 294 864 302 885 312 C 905 322 926 334 948 348 L 1106 100 C 1076 81 1045 64 1014 50 C 983 35 950 23 915 13 C 880 3 842 -4 801 -10 C 760 -15 714 -18 664 -18 L 651 -86 C 683 -84 712 -85 738 -89 C 764 -93 787 -103 807 -117 C 826 -131 841 -151 852 -177 C 862 -203 868 -236 868 -276 C 868 -315 863 -349 853 -377 C 843 -405 827 -428 805 -446 C 783 -464 754 -477 719 -485 C 683 -493 640 -498 590 -498 Z" unicode="Ç" />
<glyph horiz-adv-x="1141" d="M 119 1518 L 1055 1518 L 1055 1225 L 432 1225 L 432 922 L 1028 922 L 1028 631 L 432 631 L 432 287 L 1057 287 L 1057 0 L 119 0 L 119 1518 Z M 190 1970 L 535 1970 L 752 1595 L 487 1595 L 190 1970 Z" unicode="È" />
<glyph horiz-adv-x="1141" d="M 606 1970 L 948 1970 L 653 1595 L 389 1595 L 606 1970 Z M 119 1518 L 1055 1518 L 1055 1225 L 432 1225 L 432 922 L 1028 922 L 1028 631 L 432 631 L 432 287 L 1057 287 L 1057 0 L 119 0 L 119 1518 Z" unicode="É" />
<glyph horiz-adv-x="1141" d="M 428 1970 L 713 1970 L 938 1595 L 692 1595 L 567 1757 L 444 1595 L 205 1595 L 428 1970 Z M 119 1518 L 1055 1518 L 1055 1225 L 432 1225 L 432 922 L 1028 922 L 1028 631 L 432 631 L 432 287 L 1057 287 L 1057 0 L 119 0 L 119 1518 Z" unicode="Ê" />
<glyph horiz-adv-x="1141" d="M 233 1870 L 508 1870 L 508 1595 L 233 1595 L 233 1870 Z M 635 1870 L 907 1870 L 907 1595 L 635 1595 L 635 1870 Z M 119 1518 L 1055 1518 L 1055 1225 L 432 1225 L 432 922 L 1028 922 L 1028 631 L 432 631 L 432 287 L 1057 287 L 1057 0 L 119 0 L 119 1518 Z" unicode="Ë" />
<glyph horiz-adv-x="594" d="M -82 1972 L 260 1972 L 446 1597 L 182 1597 L -82 1972 Z M 137 1518 L 457 1518 L 457 0 L 137 0 L 137 1518 Z" unicode="Ì" />
<glyph horiz-adv-x="594" d="M 334 1972 L 674 1972 L 408 1597 L 145 1597 L 334 1972 Z M 137 1518 L 457 1518 L 457 0 L 137 0 L 137 1518 Z" unicode="Í" />
<glyph horiz-adv-x="594" d="M 154 1972 L 438 1972 L 662 1597 L 416 1597 L 293 1759 L 172 1597 L -68 1597 L 154 1972 Z M 137 1518 L 457 1518 L 457 0 L 137 0 L 137 1518 Z" unicode="Î" />
<glyph horiz-adv-x="594" d="M 137 1518 L 457 1518 L 457 0 L 137 0 L 137 1518 Z M -39 1870 L 236 1870 L 236 1595 L -39 1595 L -39 1870 Z M 362 1870 L 635 1870 L 635 1595 L 362 1595 L 362 1870 Z" unicode="Ï" />
<glyph horiz-adv-x="1315" d="M 0 895 L 119 895 L 119 1518 L 592 1518 C 712 1518 814 1505 899 1481 C 983 1456 1052 1414 1106 1356 C 1160 1297 1199 1219 1223 1122 C 1247 1025 1260 904 1260 760 C 1260 612 1248 489 1224 391 C 1200 293 1161 216 1108 158 C 1054 100 985 59 901 35 C 816 11 713 0 592 0 L 119 0 L 119 635 L 0 635 L 0 895 Z M 621 279 C 677 279 724 285 764 299 C 803 312 835 336 861 372 C 886 408 904 457 916 519 C 928 581 934 660 934 758 C 934 854 928 933 916 994 C 904 1054 886 1102 860 1136 C 834 1170 801 1194 761 1206 C 720 1218 670 1225 612 1225 L 440 1225 L 440 895 L 655 895 L 655 635 L 440 635 L 440 279 L 621 279 Z" unicode="Ð" />
<glyph horiz-adv-x="1378" d="M 119 1518 L 459 1518 L 956 643 L 956 1518 L 1262 1518 L 1262 0 L 967 0 L 424 946 L 424 0 L 119 0 L 119 1518 Z M 250 1698 C 290 1776 333 1833 381 1869 C 428 1905 484 1923 549 1923 C 575 1923 600 1918 623 1909 C 646 1899 668 1889 688 1878 C 708 1867 726 1857 743 1848 C 759 1839 775 1835 791 1835 C 812 1835 832 1842 852 1858 C 871 1873 894 1898 920 1933 L 1116 1819 C 1076 1741 1032 1683 986 1646 C 939 1609 883 1591 819 1591 C 791 1591 766 1595 743 1604 C 719 1613 698 1623 678 1634 C 658 1644 640 1654 624 1663 C 607 1672 592 1677 578 1677 C 556 1677 536 1670 516 1656 C 496 1642 473 1618 449 1583 L 250 1698 Z" unicode="Ñ" />
<glyph horiz-adv-x="1368" d="M 684 -18 C 593 -18 514 -8 448 11 C 382 30 325 57 279 92 C 233 126 195 167 166 215 C 136 263 113 315 97 373 C 81 431 70 492 64 557 C 58 622 55 689 55 758 C 55 826 58 893 64 959 C 70 1024 81 1085 97 1143 C 113 1201 136 1254 166 1302 C 195 1350 233 1391 279 1426 C 325 1460 382 1487 448 1507 C 514 1526 593 1536 684 1536 C 774 1536 853 1526 919 1507 C 985 1487 1042 1460 1088 1426 C 1134 1391 1172 1350 1202 1302 C 1231 1254 1254 1201 1270 1143 C 1286 1085 1298 1024 1304 959 C 1310 893 1313 826 1313 758 C 1313 689 1310 622 1304 557 C 1298 492 1286 431 1270 373 C 1254 315 1231 263 1202 215 C 1172 167 1134 126 1088 92 C 1042 57 985 30 919 11 C 853 -8 774 -18 684 -18 Z M 684 266 C 751 266 805 277 845 301 C 885 324 915 357 936 399 C 957 441 971 492 977 551 C 983 610 987 676 987 748 C 987 818 983 883 977 942 C 971 1001 957 1052 936 1094 C 915 1136 885 1168 845 1192 C 805 1215 751 1227 684 1227 C 616 1227 563 1215 523 1192 C 483 1168 452 1136 431 1094 C 410 1052 396 1001 390 942 C 384 883 381 818 381 748 C 381 676 384 610 390 551 C 396 492 410 441 431 399 C 452 357 483 324 523 301 C 563 277 616 266 684 266 Z M 303 1970 L 647 1970 L 864 1595 L 600 1595 L 303 1970 Z" unicode="Ò" />
<glyph horiz-adv-x="1368" d="M 719 1970 L 1061 1970 L 766 1595 L 502 1595 L 719 1970 Z M 684 -18 C 593 -18 514 -8 448 11 C 382 30 325 57 279 92 C 233 126 195 167 166 215 C 136 263 113 315 97 373 C 81 431 70 492 64 557 C 58 622 55 689 55 758 C 55 826 58 893 64 959 C 70 1024 81 1085 97 1143 C 113 1201 136 1254 166 1302 C 195 1350 233 1391 279 1426 C 325 1460 382 1487 448 1507 C 514 1526 593 1536 684 1536 C 774 1536 853 1526 919 1507 C 985 1487 1042 1460 1088 1426 C 1134 1391 1172 1350 1202 1302 C 1231 1254 1254 1201 1270 1143 C 1286 1085 1298 1024 1304 959 C 1310 893 1313 826 1313 758 C 1313 689 1310 622 1304 557 C 1298 492 1286 431 1270 373 C 1254 315 1231 263 1202 215 C 1172 167 1134 126 1088 92 C 1042 57 985 30 919 11 C 853 -8 774 -18 684 -18 Z M 684 266 C 751 266 805 277 845 301 C 885 324 915 357 936 399 C 957 441 971 492 977 551 C 983 610 987 676 987 748 C 987 818 983 883 977 942 C 971 1001 957 1052 936 1094 C 915 1136 885 1168 845 1192 C 805 1215 751 1227 684 1227 C 616 1227 563 1215 523 1192 C 483 1168 452 1136 431 1094 C 410 1052 396 1001 390 942 C 384 883 381 818 381 748 C 381 676 384 610 390 551 C 396 492 410 441 431 399 C 452 357 483 324 523 301 C 563 277 616 266 684 266 Z" unicode="Ó" />
<glyph horiz-adv-x="1368" d="M 541 1970 L 825 1970 L 1051 1595 L 805 1595 L 680 1757 L 557 1595 L 317 1595 L 541 1970 Z M 684 -18 C 593 -18 514 -8 448 11 C 382 30 325 57 279 92 C 233 126 195 167 166 215 C 136 263 113 315 97 373 C 81 431 70 492 64 557 C 58 622 55 689 55 758 C 55 826 58 893 64 959 C 70 1024 81 1085 97 1143 C 113 1201 136 1254 166 1302 C 195 1350 233 1391 279 1426 C 325 1460 382 1487 448 1507 C 514 1526 593 1536 684 1536 C 774 1536 853 1526 919 1507 C 985 1487 1042 1460 1088 1426 C 1134 1391 1172 1350 1202 1302 C 1231 1254 1254 1201 1270 1143 C 1286 1085 1298 1024 1304 959 C 1310 893 1313 826 1313 758 C 1313 689 1310 622 1304 557 C 1298 492 1286 431 1270 373 C 1254 315 1231 263 1202 215 C 1172 167 1134 126 1088 92 C 1042 57 985 30 919 11 C 853 -8 774 -18 684 -18 Z M 684 266 C 751 266 805 277 845 301 C 885 324 915 357 936 399 C 957 441 971 492 977 551 C 983 610 987 676 987 748 C 987 818 983 883 977 942 C 971 1001 957 1052 936 1094 C 915 1136 885 1168 845 1192 C 805 1215 751 1227 684 1227 C 616 1227 563 1215 523 1192 C 483 1168 452 1136 431 1094 C 410 1052 396 1001 390 942 C 384 883 381 818 381 748 C 381 676 384 610 390 551 C 396 492 410 441 431 399 C 452 357 483 324 523 301 C 563 277 616 266 684 266 Z" unicode="Ô" />
<glyph horiz-adv-x="1368" d="M 684 -18 C 593 -18 514 -8 448 11 C 382 30 325 57 279 92 C 233 126 195 167 166 215 C 136 263 113 315 97 373 C 81 431 70 492 64 557 C 58 622 55 689 55 758 C 55 826 58 893 64 959 C 70 1024 81 1085 97 1143 C 113 1201 136 1254 166 1302 C 195 1350 233 1391 279 1426 C 325 1460 382 1487 448 1507 C 514 1526 593 1536 684 1536 C 774 1536 853 1526 919 1507 C 985 1487 1042 1460 1088 1426 C 1134 1391 1172 1350 1202 1302 C 1231 1254 1254 1201 1270 1143 C 1286 1085 1298 1024 1304 959 C 1310 893 1313 826 1313 758 C 1313 689 1310 622 1304 557 C 1298 492 1286 431 1270 373 C 1254 315 1231 263 1202 215 C 1172 167 1134 126 1088 92 C 1042 57 985 30 919 11 C 853 -8 774 -18 684 -18 Z M 684 266 C 751 266 805 277 845 301 C 885 324 915 357 936 399 C 957 441 971 492 977 551 C 983 610 987 676 987 748 C 987 818 983 883 977 942 C 971 1001 957 1052 936 1094 C 915 1136 885 1168 845 1192 C 805 1215 751 1227 684 1227 C 616 1227 563 1215 523 1192 C 483 1168 452 1136 431 1094 C 410 1052 396 1001 390 942 C 384 883 381 818 381 748 C 381 676 384 610 390 551 C 396 492 410 441 431 399 C 452 357 483 324 523 301 C 563 277 616 266 684 266 Z M 246 1698 C 286 1776 329 1833 377 1869 C 424 1905 480 1923 545 1923 C 571 1923 596 1918 619 1909 C 642 1899 663 1889 683 1878 C 703 1867 721 1857 738 1848 C 755 1839 771 1835 786 1835 C 807 1835 827 1842 847 1858 C 867 1873 889 1898 915 1933 L 1112 1819 C 1072 1741 1028 1683 982 1646 C 935 1609 879 1591 815 1591 C 787 1591 762 1595 739 1604 C 715 1613 694 1623 674 1634 C 654 1644 636 1654 620 1663 C 603 1672 587 1677 573 1677 C 551 1677 531 1670 511 1656 C 491 1642 468 1617 444 1583 L 246 1698 Z" unicode="Õ" />
<glyph horiz-adv-x="1368" d="M 346 1870 L 621 1870 L 621 1595 L 346 1595 L 346 1870 Z M 748 1870 L 1020 1870 L 1020 1595 L 748 1595 L 748 1870 Z M 684 -18 C 593 -18 514 -8 448 11 C 382 30 325 57 279 92 C 233 126 195 167 166 215 C 136 263 113 315 97 373 C 81 431 70 492 64 557 C 58 622 55 689 55 758 C 55 826 58 893 64 959 C 70 1024 81 1085 97 1143 C 113 1201 136 1254 166 1302 C 195 1350 233 1391 279 1426 C 325 1460 382 1487 448 1507 C 514 1526 593 1536 684 1536 C 774 1536 853 1526 919 1507 C 985 1487 1042 1460 1088 1426 C 1134 1391 1172 1350 1202 1302 C 1231 1254 1254 1201 1270 1143 C 1286 1085 1298 1024 1304 959 C 1310 893 1313 826 1313 758 C 1313 689 1310 622 1304 557 C 1298 492 1286 431 1270 373 C 1254 315 1231 263 1202 215 C 1172 167 1134 126 1088 92 C 1042 57 985 30 919 11 C 853 -8 774 -18 684 -18 Z M 684 266 C 751 266 805 277 845 301 C 885 324 915 357 936 399 C 957 441 971 492 977 551 C 983 610 987 676 987 748 C 987 818 983 883 977 942 C 971 1001 957 1052 936 1094 C 915 1136 885 1168 845 1192 C 805 1215 751 1227 684 1227 C 616 1227 563 1215 523 1192 C 483 1168 452 1136 431 1094 C 410 1052 396 1001 390 942 C 384 883 381 818 381 748 C 381 676 384 610 390 551 C 396 492 410 441 431 399 C 452 357 483 324 523 301 C 563 277 616 266 684 266 Z" unicode="Ö" />
<glyph horiz-adv-x="1247" d="M 180 467 L 434 721 L 182 973 L 371 1165 L 623 913 L 877 1165 L 1065 973 L 811 721 L 1063 471 L 877 276 L 623 528 L 369 274 L 180 467 Z" unicode="×" />
<glyph horiz-adv-x="1368" d="M 252 113 C 211 149 178 190 152 237 C 126 284 106 335 92 391 C 78 447 68 505 63 567 C 57 629 55 692 55 758 C 55 826 58 893 64 959 C 70 1024 81 1085 97 1143 C 113 1201 136 1254 166 1302 C 195 1350 233 1391 279 1426 C 325 1460 382 1487 448 1507 C 514 1526 593 1536 684 1536 C 723 1536 760 1534 794 1530 C 828 1526 861 1520 893 1513 L 936 1604 L 1210 1604 L 1114 1405 C 1154 1369 1188 1327 1214 1280 C 1240 1232 1260 1181 1275 1126 C 1289 1070 1299 1011 1305 949 C 1310 887 1313 823 1313 758 C 1313 689 1310 622 1304 557 C 1298 492 1286 431 1270 373 C 1254 315 1231 263 1202 215 C 1172 167 1134 126 1088 92 C 1042 57 985 30 919 11 C 853 -8 774 -18 684 -18 C 644 -18 606 -16 572 -12 C 537 -8 504 -3 473 4 L 432 -84 L 160 -84 L 252 113 Z M 684 252 C 754 252 809 263 851 287 C 892 311 923 344 945 388 C 967 432 981 484 987 545 C 993 606 997 674 997 748 C 997 816 994 878 988 935 C 982 991 971 1041 954 1083 L 582 262 C 597 258 613 256 630 254 C 646 252 664 252 684 252 Z M 371 748 C 371 681 373 620 378 565 C 382 510 392 462 408 420 L 774 1233 C 760 1235 746 1236 731 1238 C 716 1240 700 1241 684 1241 C 614 1241 559 1229 518 1205 C 476 1181 445 1147 423 1104 C 401 1060 387 1008 381 948 C 374 887 371 820 371 748 Z" unicode="Ø" />
<glyph horiz-adv-x="1368" d="M 684 -23 C 576 -23 485 -11 412 13 C 338 37 279 72 234 119 C 189 166 157 224 138 293 C 118 362 109 442 109 532 L 109 1518 L 430 1518 L 430 563 C 430 511 433 466 441 429 C 448 391 461 361 480 337 C 499 313 525 295 559 283 C 593 271 636 266 688 266 C 739 266 781 271 815 282 C 848 293 874 310 894 334 C 914 358 928 388 936 426 C 944 464 948 509 948 563 L 948 1518 L 1260 1518 L 1260 532 C 1260 442 1250 362 1231 293 C 1212 224 1180 166 1136 119 C 1091 72 1032 37 958 13 C 884 -11 793 -23 684 -23 Z M 301 1970 L 645 1970 L 862 1595 L 598 1595 L 301 1970 Z" unicode="Ù" />
<glyph horiz-adv-x="1368" d="M 717 1970 L 1059 1970 L 764 1595 L 500 1595 L 717 1970 Z M 684 -23 C 576 -23 485 -11 412 13 C 338 37 279 72 234 119 C 189 166 157 224 138 293 C 118 362 109 442 109 532 L 109 1518 L 430 1518 L 430 563 C 430 511 433 466 441 429 C 448 391 461 361 480 337 C 499 313 525 295 559 283 C 593 271 636 266 688 266 C 739 266 781 271 815 282 C 848 293 874 310 894 334 C 914 358 928 388 936 426 C 944 464 948 509 948 563 L 948 1518 L 1260 1518 L 1260 532 C 1260 442 1250 362 1231 293 C 1212 224 1180 166 1136 119 C 1091 72 1032 37 958 13 C 884 -11 793 -23 684 -23 Z" unicode="Ú" />
<glyph horiz-adv-x="1368" d="M 539 1970 L 823 1970 L 1049 1595 L 803 1595 L 678 1757 L 555 1595 L 315 1595 L 539 1970 Z M 684 -23 C 576 -23 485 -11 412 13 C 338 37 279 72 234 119 C 189 166 157 224 138 293 C 118 362 109 442 109 532 L 109 1518 L 430 1518 L 430 563 C 430 511 433 466 441 429 C 448 391 461 361 480 337 C 499 313 525 295 559 283 C 593 271 636 266 688 266 C 739 266 781 271 815 282 C 848 293 874 310 894 334 C 914 358 928 388 936 426 C 944 464 948 509 948 563 L 948 1518 L 1260 1518 L 1260 532 C 1260 442 1250 362 1231 293 C 1212 224 1180 166 1136 119 C 1091 72 1032 37 958 13 C 884 -11 793 -23 684 -23 Z" unicode="Û" />
<glyph horiz-adv-x="1368" d="M 344 1870 L 618 1870 L 618 1595 L 344 1595 L 344 1870 Z M 745 1870 L 1018 1870 L 1018 1595 L 745 1595 L 745 1870 Z M 684 -23 C 576 -23 485 -11 412 13 C 338 37 279 72 234 119 C 189 166 157 224 138 293 C 118 362 109 442 109 532 L 109 1518 L 430 1518 L 430 563 C 430 511 433 466 441 429 C 448 391 461 361 480 337 C 499 313 525 295 559 283 C 593 271 636 266 688 266 C 739 266 781 271 815 282 C 848 293 874 310 894 334 C 914 358 928 388 936 426 C 944 464 948 509 948 563 L 948 1518 L 1260 1518 L 1260 532 C 1260 442 1250 362 1231 293 C 1212 224 1180 166 1136 119 C 1091 72 1032 37 958 13 C 884 -11 793 -23 684 -23 Z" unicode="Ü" />
<glyph horiz-adv-x="1282" d="M 479 514 L -4 1518 L 338 1518 L 645 856 L 954 1518 L 1284 1518 L 799 510 L 799 0 L 479 0 L 479 514 Z M 676 1970 L 1018 1970 L 723 1595 L 459 1595 L 676 1970 Z" unicode="Ý" />
<glyph horiz-adv-x="1245" d="M 119 1518 L 434 1518 L 434 1294 L 702 1294 C 802 1294 885 1282 950 1260 C 1014 1237 1065 1204 1103 1162 C 1140 1119 1166 1067 1180 1006 C 1194 944 1202 875 1202 797 C 1202 719 1194 649 1180 586 C 1166 523 1140 469 1102 424 C 1064 379 1013 344 948 320 C 882 295 798 283 696 283 L 434 283 L 434 0 L 119 0 L 119 1518 Z M 692 553 C 728 553 759 557 785 566 C 810 574 830 588 846 607 C 861 625 872 649 879 678 C 885 707 889 742 889 782 C 889 824 885 859 879 889 C 872 919 861 943 846 962 C 830 980 810 994 785 1003 C 759 1011 728 1016 692 1016 L 434 1016 L 434 553 L 692 553 Z" unicode="Þ" />
<glyph horiz-adv-x="1182" d="M 98 1151 C 98 1215 106 1275 122 1330 C 138 1384 165 1431 203 1470 C 241 1509 290 1540 352 1562 C 414 1584 490 1595 580 1595 C 664 1595 736 1587 796 1571 C 856 1555 904 1530 942 1498 C 979 1465 1006 1424 1023 1374 C 1040 1324 1049 1264 1049 1196 C 1049 1142 1046 1094 1042 1054 C 1037 1013 1029 978 1019 949 C 1008 920 994 896 976 877 C 958 857 935 842 909 831 C 951 821 986 807 1014 789 C 1042 770 1064 745 1081 713 C 1098 681 1110 643 1117 597 C 1124 551 1128 496 1128 434 C 1128 350 1119 281 1101 226 C 1083 170 1054 126 1012 92 C 970 58 914 35 845 21 C 776 7 690 0 588 0 L 518 0 L 518 276 L 588 276 C 634 276 673 279 703 287 C 733 294 756 306 774 322 C 791 338 803 358 810 384 C 817 410 821 441 821 479 C 821 515 817 546 810 570 C 803 594 791 614 773 629 C 755 643 730 653 700 659 C 669 665 630 668 584 668 L 543 668 L 543 911 L 584 911 C 642 911 685 926 712 956 C 738 986 752 1036 752 1108 C 752 1143 748 1173 742 1197 C 736 1221 726 1240 712 1255 C 698 1270 680 1281 658 1288 C 636 1294 610 1298 580 1298 C 517 1298 472 1283 444 1255 C 416 1226 403 1180 403 1118 L 403 0 L 98 0 L 98 1151 Z" unicode="ß" />
<glyph horiz-adv-x="1116" d="M 414 -14 C 338 -14 276 -4 228 13 C 180 31 143 57 116 89 C 89 121 71 160 61 205 C 51 249 47 298 47 350 C 47 431 58 498 81 552 C 104 606 140 649 189 681 C 237 713 299 735 374 748 C 449 761 539 768 643 768 L 684 768 C 682 792 679 812 673 830 C 667 847 659 861 647 872 C 635 883 620 891 601 897 C 582 902 558 905 530 905 C 464 905 407 899 359 887 C 311 875 270 860 236 844 L 111 1094 C 161 1120 223 1142 297 1160 C 371 1177 460 1186 565 1186 C 645 1186 711 1178 765 1164 C 819 1150 862 1127 894 1095 C 926 1063 948 1023 962 973 C 976 923 983 862 983 791 L 983 358 C 983 340 983 325 985 314 C 986 302 989 293 995 286 C 1000 279 1008 274 1019 272 C 1029 269 1044 268 1063 268 L 1063 0 C 1046 -2 1030 -3 1015 -3 C 999 -3 985 -4 971 -4 C 933 -4 902 -2 876 0 C 850 1 827 6 809 13 C 791 20 776 30 764 42 C 752 54 741 71 733 92 C 717 73 700 57 680 44 C 660 30 638 19 612 11 C 586 2 557 -4 525 -8 C 492 -12 455 -14 414 -14 Z M 485 240 C 515 240 542 243 567 249 C 591 255 612 265 630 281 C 647 296 660 317 670 343 C 679 369 684 402 684 442 L 684 549 L 645 549 C 587 549 539 546 501 542 C 462 537 431 529 407 517 C 383 505 367 488 357 467 C 347 445 342 418 342 385 C 342 359 344 337 349 319 C 354 301 362 286 374 274 C 385 262 400 254 418 248 C 436 242 458 240 485 240 Z M 178 1645 L 522 1645 L 739 1270 L 475 1270 L 178 1645 Z" unicode="à" />
<glyph horiz-adv-x="1116" d="M 414 -14 C 338 -14 276 -4 228 13 C 180 31 143 57 116 89 C 89 121 71 160 61 205 C 51 249 47 298 47 350 C 47 431 58 498 81 552 C 104 606 140 649 189 681 C 237 713 299 735 374 748 C 449 761 539 768 643 768 L 684 768 C 682 792 679 812 673 830 C 667 847 659 861 647 872 C 635 883 620 891 601 897 C 582 902 558 905 530 905 C 464 905 407 899 359 887 C 311 875 270 860 236 844 L 111 1094 C 161 1120 223 1142 297 1160 C 371 1177 460 1186 565 1186 C 645 1186 711 1178 765 1164 C 819 1150 862 1127 894 1095 C 926 1063 948 1023 962 973 C 976 923 983 862 983 791 L 983 358 C 983 340 983 325 985 314 C 986 302 989 293 995 286 C 1000 279 1008 274 1019 272 C 1029 269 1044 268 1063 268 L 1063 0 C 1046 -2 1030 -3 1015 -3 C 999 -3 985 -4 971 -4 C 933 -4 902 -2 876 0 C 850 1 827 6 809 13 C 791 20 776 30 764 42 C 752 54 741 71 733 92 C 717 73 700 57 680 44 C 660 30 638 19 612 11 C 586 2 557 -4 525 -8 C 492 -12 455 -14 414 -14 Z M 485 240 C 515 240 542 243 567 249 C 591 255 612 265 630 281 C 647 296 660 317 670 343 C 679 369 684 402 684 442 L 684 549 L 645 549 C 587 549 539 546 501 542 C 462 537 431 529 407 517 C 383 505 367 488 357 467 C 347 445 342 418 342 385 C 342 359 344 337 349 319 C 354 301 362 286 374 274 C 385 262 400 254 418 248 C 436 242 458 240 485 240 Z M 594 1645 L 936 1645 L 641 1270 L 377 1270 L 594 1645 Z" unicode="á" />
<glyph horiz-adv-x="1116" d="M 414 -14 C 338 -14 276 -4 228 13 C 180 31 143 57 116 89 C 89 121 71 160 61 205 C 51 249 47 298 47 350 C 47 431 58 498 81 552 C 104 606 140 649 189 681 C 237 713 299 735 374 748 C 449 761 539 768 643 768 L 684 768 C 682 792 679 812 673 830 C 667 847 659 861 647 872 C 635 883 620 891 601 897 C 582 902 558 905 530 905 C 464 905 407 899 359 887 C 311 875 270 860 236 844 L 111 1094 C 161 1120 223 1142 297 1160 C 371 1177 460 1186 565 1186 C 645 1186 711 1178 765 1164 C 819 1150 862 1127 894 1095 C 926 1063 948 1023 962 973 C 976 923 983 862 983 791 L 983 358 C 983 340 983 325 985 314 C 986 302 989 293 995 286 C 1000 279 1008 274 1019 272 C 1029 269 1044 268 1063 268 L 1063 0 C 1046 -2 1030 -3 1015 -3 C 999 -3 985 -4 971 -4 C 933 -4 902 -2 876 0 C 850 1 827 6 809 13 C 791 20 776 30 764 42 C 752 54 741 71 733 92 C 717 73 700 57 680 44 C 660 30 638 19 612 11 C 586 2 557 -4 525 -8 C 492 -12 455 -14 414 -14 Z M 485 240 C 515 240 542 243 567 249 C 591 255 612 265 630 281 C 647 296 660 317 670 343 C 679 369 684 402 684 442 L 684 549 L 645 549 C 587 549 539 546 501 542 C 462 537 431 529 407 517 C 383 505 367 488 357 467 C 347 445 342 418 342 385 C 342 359 344 337 349 319 C 354 301 362 286 374 274 C 385 262 400 254 418 248 C 436 242 458 240 485 240 Z M 416 1645 L 700 1645 L 926 1270 L 680 1270 L 555 1432 L 432 1270 L 193 1270 L 416 1645 Z" unicode="â" />
<glyph horiz-adv-x="1116" d="M 414 -14 C 338 -14 276 -4 228 13 C 180 31 143 57 116 89 C 89 121 71 160 61 205 C 51 249 47 298 47 350 C 47 431 58 498 81 552 C 104 606 140 649 189 681 C 237 713 299 735 374 748 C 449 761 539 768 643 768 L 684 768 C 682 792 679 812 673 830 C 667 847 659 861 647 872 C 635 883 620 891 601 897 C 582 902 558 905 530 905 C 464 905 407 899 359 887 C 311 875 270 860 236 844 L 111 1094 C 161 1120 223 1142 297 1160 C 371 1177 460 1186 565 1186 C 645 1186 711 1178 765 1164 C 819 1150 862 1127 894 1095 C 926 1063 948 1023 962 973 C 976 923 983 862 983 791 L 983 358 C 983 340 983 325 985 314 C 986 302 989 293 995 286 C 1000 279 1008 274 1019 272 C 1029 269 1044 268 1063 268 L 1063 0 C 1046 -2 1030 -3 1015 -3 C 999 -3 985 -4 971 -4 C 933 -4 902 -2 876 0 C 850 1 827 6 809 13 C 791 20 776 30 764 42 C 752 54 741 71 733 92 C 717 73 700 57 680 44 C 660 30 638 19 612 11 C 586 2 557 -4 525 -8 C 492 -12 455 -14 414 -14 Z M 485 240 C 515 240 542 243 567 249 C 591 255 612 265 630 281 C 647 296 660 317 670 343 C 679 369 684 402 684 442 L 684 549 L 645 549 C 587 549 539 546 501 542 C 462 537 431 529 407 517 C 383 505 367 488 357 467 C 347 445 342 418 342 385 C 342 359 344 337 349 319 C 354 301 362 286 374 274 C 385 262 400 254 418 248 C 436 242 458 240 485 240 Z M 121 1372 C 161 1450 204 1507 252 1543 C 299 1579 355 1597 420 1597 C 446 1597 471 1592 494 1583 C 517 1573 539 1563 559 1552 C 579 1541 597 1531 614 1522 C 630 1513 646 1509 662 1509 C 683 1509 703 1516 723 1532 C 742 1547 765 1572 791 1608 L 987 1493 C 947 1415 903 1357 857 1321 C 810 1284 754 1266 690 1266 C 662 1266 637 1270 614 1279 C 590 1288 569 1298 549 1309 C 529 1319 511 1329 495 1338 C 478 1347 463 1352 449 1352 C 427 1352 406 1344 386 1330 C 366 1316 343 1291 319 1257 L 121 1372 Z" unicode="ã" />
<glyph horiz-adv-x="1116" d="M 414 -14 C 338 -14 276 -4 228 13 C 180 31 143 57 116 89 C 89 121 71 160 61 205 C 51 249 47 298 47 350 C 47 431 58 498 81 552 C 104 606 140 649 189 681 C 237 713 299 735 374 748 C 449 761 539 768 643 768 L 684 768 C 682 792 679 812 673 830 C 667 847 659 861 647 872 C 635 883 620 891 601 897 C 582 902 558 905 530 905 C 464 905 407 899 359 887 C 311 875 270 860 236 844 L 111 1094 C 161 1120 223 1142 297 1160 C 371 1177 460 1186 565 1186 C 645 1186 711 1178 765 1164 C 819 1150 862 1127 894 1095 C 926 1063 948 1023 962 973 C 976 923 983 862 983 791 L 983 358 C 983 340 983 325 985 314 C 986 302 989 293 995 286 C 1000 279 1008 274 1019 272 C 1029 269 1044 268 1063 268 L 1063 0 C 1046 -2 1030 -3 1015 -3 C 999 -3 985 -4 971 -4 C 933 -4 902 -2 876 0 C 850 1 827 6 809 13 C 791 20 776 30 764 42 C 752 54 741 71 733 92 C 717 73 700 57 680 44 C 660 30 638 19 612 11 C 586 2 557 -4 525 -8 C 492 -12 455 -14 414 -14 Z M 485 240 C 515 240 542 243 567 249 C 591 255 612 265 630 281 C 647 296 660 317 670 343 C 679 369 684 402 684 442 L 684 549 L 645 549 C 587 549 539 546 501 542 C 462 537 431 529 407 517 C 383 505 367 488 357 467 C 347 445 342 418 342 385 C 342 359 344 337 349 319 C 354 301 362 286 374 274 C 385 262 400 254 418 248 C 436 242 458 240 485 240 Z M 221 1544 L 496 1544 L 496 1270 L 221 1270 L 221 1544 Z M 623 1544 L 895 1544 L 895 1270 L 623 1270 L 623 1544 Z" unicode="ä" />
<glyph horiz-adv-x="1116" d="M 414 -14 C 338 -14 276 -4 228 13 C 180 31 143 57 116 89 C 89 121 71 160 61 205 C 51 249 47 298 47 350 C 47 431 58 498 81 552 C 104 606 140 649 189 681 C 237 713 299 735 374 748 C 449 761 539 768 643 768 L 684 768 C 682 792 679 812 673 830 C 667 847 659 861 647 872 C 635 883 620 891 601 897 C 582 902 558 905 530 905 C 464 905 407 899 359 887 C 311 875 270 860 236 844 L 111 1094 C 161 1120 223 1142 297 1160 C 371 1177 460 1186 565 1186 C 645 1186 711 1178 765 1164 C 819 1150 862 1127 894 1095 C 926 1063 948 1023 962 973 C 976 923 983 862 983 791 L 983 358 C 983 340 983 325 985 314 C 986 302 989 293 995 286 C 1000 279 1008 274 1019 272 C 1029 269 1044 268 1063 268 L 1063 0 C 1046 -2 1030 -3 1015 -3 C 999 -3 985 -4 971 -4 C 933 -4 902 -2 876 0 C 850 1 827 6 809 13 C 791 20 776 30 764 42 C 752 54 741 71 733 92 C 717 73 700 57 680 44 C 660 30 638 19 612 11 C 586 2 557 -4 525 -8 C 492 -12 455 -14 414 -14 Z M 485 240 C 515 240 542 243 567 249 C 591 255 612 265 630 281 C 647 296 660 317 670 343 C 679 369 684 402 684 442 L 684 549 L 645 549 C 587 549 539 546 501 542 C 462 537 431 529 407 517 C 383 505 367 488 357 467 C 347 445 342 418 342 385 C 342 359 344 337 349 319 C 354 301 362 286 374 274 C 385 262 400 254 418 248 C 436 242 458 240 485 240 Z M 557 1251 C 510 1251 471 1258 439 1272 C 407 1286 381 1305 361 1330 C 341 1354 326 1383 318 1417 C 309 1450 305 1486 305 1526 C 305 1565 309 1601 318 1635 C 326 1669 341 1698 361 1723 C 381 1748 407 1768 439 1782 C 471 1796 510 1804 557 1804 C 602 1804 641 1796 673 1782 C 705 1768 732 1748 752 1723 C 772 1698 787 1669 797 1635 C 806 1601 811 1565 811 1526 C 811 1486 806 1450 797 1417 C 787 1383 772 1354 752 1330 C 732 1305 705 1286 673 1272 C 641 1258 602 1251 557 1251 Z M 557 1399 C 577 1399 593 1402 606 1408 C 619 1414 629 1422 637 1434 C 644 1445 649 1458 652 1474 C 655 1489 657 1506 657 1526 C 657 1544 655 1562 652 1578 C 649 1594 644 1607 637 1619 C 629 1630 619 1639 606 1645 C 593 1651 577 1655 557 1655 C 537 1655 521 1651 508 1645 C 495 1639 485 1630 477 1619 C 469 1607 464 1594 461 1578 C 458 1562 457 1544 457 1526 C 457 1506 458 1489 461 1474 C 464 1458 469 1445 477 1434 C 485 1422 495 1414 508 1408 C 521 1402 537 1399 557 1399 Z" unicode="å" />
<glyph horiz-adv-x="1681" d="M 1174 -14 C 1081 -14 1005 -1 946 22 C 886 46 839 81 805 127 C 789 105 771 85 750 68 C 728 50 702 35 671 23 C 640 11 604 1 562 -4 C 520 -10 470 -14 414 -14 C 338 -14 276 -4 228 13 C 180 31 143 57 116 89 C 89 121 71 160 61 205 C 51 249 47 298 47 350 C 47 431 58 498 81 552 C 104 606 140 649 189 681 C 237 713 299 735 374 748 C 449 761 539 768 643 768 L 684 768 C 682 792 679 812 673 830 C 667 847 659 861 647 872 C 635 883 620 891 601 897 C 582 902 558 905 530 905 C 464 905 407 899 359 887 C 311 875 270 860 236 844 L 111 1094 C 161 1120 223 1142 297 1160 C 371 1177 460 1186 565 1186 C 643 1186 707 1178 757 1164 C 806 1149 845 1126 874 1094 C 910 1122 952 1143 1002 1159 C 1052 1174 1111 1182 1180 1182 C 1256 1182 1320 1173 1372 1157 C 1424 1140 1466 1116 1499 1085 C 1532 1053 1557 1015 1574 971 C 1591 927 1603 877 1610 823 C 1617 768 1621 708 1621 644 C 1621 580 1620 512 1620 442 L 979 442 C 981 408 987 378 995 354 C 1003 330 1015 310 1031 294 C 1047 278 1067 267 1093 260 C 1119 253 1151 250 1190 250 C 1228 250 1261 251 1291 255 C 1320 259 1347 264 1371 270 C 1395 276 1416 284 1436 292 C 1456 300 1475 308 1495 317 L 1612 82 C 1556 52 1494 29 1424 12 C 1354 -5 1270 -14 1174 -14 Z M 485 240 C 515 240 542 243 567 249 C 591 255 612 265 630 281 C 647 296 660 317 670 343 C 679 369 684 402 684 442 L 684 549 L 645 549 C 587 549 539 546 501 542 C 462 537 431 529 407 517 C 383 505 367 488 357 467 C 347 445 342 418 342 385 C 342 359 344 337 349 319 C 354 301 362 286 374 274 C 385 262 400 254 418 248 C 436 242 458 240 485 240 Z M 1174 911 C 1136 911 1104 906 1080 897 C 1055 887 1035 873 1021 855 C 1007 836 996 812 990 783 C 983 754 979 720 977 682 L 1346 682 C 1345 720 1343 754 1340 783 C 1337 811 1330 835 1318 854 C 1306 873 1289 887 1267 897 C 1245 906 1214 911 1174 911 Z" unicode="æ" />
<glyph horiz-adv-x="918" d="M 471 -498 C 427 -498 384 -493 344 -484 C 303 -474 265 -461 229 -444 L 295 -301 C 325 -312 352 -320 377 -325 C 401 -329 425 -332 449 -332 C 488 -332 515 -325 529 -313 C 543 -301 551 -281 551 -254 C 551 -237 548 -224 543 -214 C 537 -204 529 -196 517 -192 C 505 -187 489 -184 471 -184 C 452 -184 429 -184 403 -186 L 350 -147 L 379 0 C 314 14 261 37 219 69 C 177 101 143 142 119 192 C 94 242 77 299 67 365 C 57 431 53 504 53 584 C 53 676 59 759 73 833 C 87 907 112 969 150 1021 C 187 1073 238 1112 304 1140 C 370 1168 455 1182 559 1182 C 597 1182 631 1180 662 1177 C 693 1174 722 1170 748 1165 C 774 1159 797 1153 819 1145 C 841 1137 861 1129 881 1120 L 745 852 C 721 864 696 874 669 882 C 641 889 610 893 575 893 C 535 893 502 887 476 876 C 450 864 429 846 413 821 C 397 795 385 762 379 722 C 372 681 369 631 369 573 C 369 515 372 465 378 424 C 384 383 396 350 412 325 C 428 299 450 281 478 269 C 505 257 540 252 582 252 C 620 252 655 256 686 266 C 717 275 747 286 776 299 L 893 63 C 862 48 833 36 806 26 C 778 16 751 7 724 1 C 696 -4 668 -9 639 -12 C 610 -14 579 -16 545 -16 L 532 -86 C 564 -84 593 -85 620 -89 C 646 -93 669 -103 689 -117 C 708 -131 723 -151 734 -177 C 744 -203 750 -236 750 -276 C 750 -315 745 -349 735 -377 C 725 -405 708 -428 686 -446 C 664 -464 635 -477 600 -485 C 564 -493 521 -498 471 -498 Z" unicode="ç" />
<glyph horiz-adv-x="1055" d="M 547 -14 C 444 -14 360 0 296 26 C 232 53 182 92 146 143 C 110 194 85 257 72 331 C 59 405 53 490 53 584 C 53 676 60 759 76 833 C 91 907 118 969 156 1021 C 194 1073 246 1112 311 1140 C 375 1168 457 1182 555 1182 C 631 1182 695 1173 747 1157 C 799 1140 841 1116 874 1085 C 906 1054 931 1017 948 973 C 965 929 977 879 984 825 C 991 770 994 710 994 646 C 994 581 993 513 993 442 L 352 442 C 355 408 361 378 369 354 C 377 330 389 310 405 294 C 421 278 441 267 467 260 C 493 253 525 250 563 250 C 601 250 635 251 665 255 C 695 259 722 264 746 270 C 770 276 791 284 811 292 C 831 300 850 308 868 317 L 985 82 C 929 52 867 29 797 12 C 727 -5 643 -14 547 -14 Z M 547 911 C 509 911 477 906 453 897 C 428 887 408 873 394 855 C 380 836 369 812 363 783 C 356 754 352 720 350 682 L 721 682 C 719 720 717 754 714 783 C 711 811 704 835 692 854 C 680 873 663 887 641 897 C 618 906 587 911 547 911 Z M 145 1645 L 489 1645 L 707 1270 L 442 1270 L 145 1645 Z" unicode="è" />
<glyph horiz-adv-x="1055" d="M 561 1645 L 903 1645 L 608 1270 L 344 1270 L 561 1645 Z M 547 -14 C 444 -14 360 0 296 26 C 232 53 182 92 146 143 C 110 194 85 257 72 331 C 59 405 53 490 53 584 C 53 676 60 759 76 833 C 91 907 118 969 156 1021 C 194 1073 246 1112 311 1140 C 375 1168 457 1182 555 1182 C 631 1182 695 1173 747 1157 C 799 1140 841 1116 874 1085 C 906 1054 931 1017 948 973 C 965 929 977 879 984 825 C 991 770 994 710 994 646 C 994 581 993 513 993 442 L 352 442 C 355 408 361 378 369 354 C 377 330 389 310 405 294 C 421 278 441 267 467 260 C 493 253 525 250 563 250 C 601 250 635 251 665 255 C 695 259 722 264 746 270 C 770 276 791 284 811 292 C 831 300 850 308 868 317 L 985 82 C 929 52 867 29 797 12 C 727 -5 643 -14 547 -14 Z M 547 911 C 509 911 477 906 453 897 C 428 887 408 873 394 855 C 380 836 369 812 363 783 C 356 754 352 720 350 682 L 721 682 C 719 720 717 754 714 783 C 711 811 704 835 692 854 C 680 873 663 887 641 897 C 618 906 587 911 547 911 Z" unicode="é" />
<glyph horiz-adv-x="1055" d="M 383 1645 L 668 1645 L 893 1270 L 647 1270 L 522 1432 L 399 1270 L 160 1270 L 383 1645 Z M 547 -14 C 444 -14 360 0 296 26 C 232 53 182 92 146 143 C 110 194 85 257 72 331 C 59 405 53 490 53 584 C 53 676 60 759 76 833 C 91 907 118 969 156 1021 C 194 1073 246 1112 311 1140 C 375 1168 457 1182 555 1182 C 631 1182 695 1173 747 1157 C 799 1140 841 1116 874 1085 C 906 1054 931 1017 948 973 C 965 929 977 879 984 825 C 991 770 994 710 994 646 C 994 581 993 513 993 442 L 352 442 C 355 408 361 378 369 354 C 377 330 389 310 405 294 C 421 278 441 267 467 260 C 493 253 525 250 563 250 C 601 250 635 251 665 255 C 695 259 722 264 746 270 C 770 276 791 284 811 292 C 831 300 850 308 868 317 L 985 82 C 929 52 867 29 797 12 C 727 -5 643 -14 547 -14 Z M 547 911 C 509 911 477 906 453 897 C 428 887 408 873 394 855 C 380 836 369 812 363 783 C 356 754 352 720 350 682 L 721 682 C 719 720 717 754 714 783 C 711 811 704 835 692 854 C 680 873 663 887 641 897 C 618 906 587 911 547 911 Z" unicode="ê" />
<glyph horiz-adv-x="1055" d="M 188 1544 L 463 1544 L 463 1270 L 188 1270 L 188 1544 Z M 590 1544 L 862 1544 L 862 1270 L 590 1270 L 590 1544 Z M 547 -14 C 444 -14 360 0 296 26 C 232 53 182 92 146 143 C 110 194 85 257 72 331 C 59 405 53 490 53 584 C 53 676 60 759 76 833 C 91 907 118 969 156 1021 C 194 1073 246 1112 311 1140 C 375 1168 457 1182 555 1182 C 631 1182 695 1173 747 1157 C 799 1140 841 1116 874 1085 C 906 1054 931 1017 948 973 C 965 929 977 879 984 825 C 991 770 994 710 994 646 C 994 581 993 513 993 442 L 352 442 C 355 408 361 378 369 354 C 377 330 389 310 405 294 C 421 278 441 267 467 260 C 493 253 525 250 563 250 C 601 250 635 251 665 255 C 695 259 722 264 746 270 C 770 276 791 284 811 292 C 831 300 850 308 868 317 L 985 82 C 929 52 867 29 797 12 C 727 -5 643 -14 547 -14 Z M 547 911 C 509 911 477 906 453 897 C 428 887 408 873 394 855 C 380 836 369 812 363 783 C 356 754 352 720 350 682 L 721 682 C 719 720 717 754 714 783 C 711 811 704 835 692 854 C 680 873 663 887 641 897 C 618 906 587 911 547 911 Z" unicode="ë" />
<glyph horiz-adv-x="524" d="M -76 1645 L 264 1645 L 416 1270 L 152 1270 L -76 1645 Z M 106 1161 L 416 1161 L 416 0 L 106 0 L 106 1161 Z" unicode="ì" />
<glyph horiz-adv-x="524" d="M 256 1645 L 598 1645 L 371 1270 L 109 1270 L 256 1645 Z M 106 1161 L 416 1161 L 416 0 L 106 0 L 106 1161 Z" unicode="í" />
<glyph horiz-adv-x="524" d="M 119 1645 L 403 1645 L 602 1270 L 356 1270 L 258 1432 L 160 1270 L -80 1270 L 119 1645 Z M 106 1161 L 416 1161 L 416 0 L 106 0 L 106 1161 Z" unicode="î" />
<glyph horiz-adv-x="524" d="M -33 1544 L 211 1544 L 211 1270 L -33 1270 L -33 1544 Z M 311 1544 L 555 1544 L 555 1270 L 311 1270 L 311 1544 Z M 106 1161 L 416 1161 L 416 0 L 106 0 L 106 1161 Z" unicode="ï" />
<glyph horiz-adv-x="1133" d="M 481 1335 L 590 1358 C 575 1379 560 1399 545 1419 C 530 1438 515 1456 500 1473 L 739 1610 C 767 1588 793 1561 819 1529 C 844 1497 868 1461 891 1421 L 1087 1462 L 1087 1276 L 969 1251 C 1003 1160 1029 1062 1048 957 C 1067 852 1077 746 1077 639 C 1077 573 1074 512 1070 454 C 1065 396 1056 343 1043 295 C 1030 246 1012 202 988 164 C 964 125 934 92 896 65 C 858 38 812 17 758 3 C 704 -10 639 -18 565 -18 C 470 -18 390 -5 325 21 C 259 47 206 84 166 133 C 126 182 97 242 79 312 C 61 382 53 462 53 551 C 53 627 59 697 73 762 C 87 826 110 882 143 930 C 176 978 220 1015 276 1042 C 331 1069 400 1083 483 1083 C 539 1083 590 1076 635 1062 C 680 1048 716 1027 743 999 C 735 1026 726 1056 715 1088 C 703 1120 690 1154 676 1190 L 481 1149 L 481 1335 Z M 565 252 C 609 252 645 259 671 274 C 697 289 717 310 731 336 C 745 362 754 393 758 429 C 762 465 764 503 764 545 C 764 586 762 624 758 660 C 754 695 745 725 731 751 C 717 777 697 797 671 812 C 645 826 609 834 565 834 C 520 834 485 826 459 812 C 433 797 413 777 399 751 C 385 725 377 695 373 660 C 369 624 367 586 367 545 C 367 503 369 465 373 429 C 377 393 385 362 399 336 C 413 310 433 289 459 274 C 485 259 520 252 565 252 Z" unicode="ð" />
<glyph horiz-adv-x="1151" d="M 98 1143 L 346 1163 L 369 1071 C 383 1088 399 1103 419 1117 C 439 1131 463 1142 491 1152 C 519 1162 551 1169 589 1174 C 627 1179 671 1182 721 1182 C 792 1182 850 1171 894 1150 C 938 1128 973 1099 998 1061 C 1022 1023 1039 979 1048 927 C 1056 875 1061 820 1061 760 L 1061 0 L 750 0 L 750 682 C 750 716 748 745 745 771 C 742 797 735 818 725 835 C 714 852 699 865 679 874 C 659 882 633 887 600 887 C 558 887 525 882 500 872 C 474 862 455 846 441 826 C 427 805 418 779 414 748 C 410 717 408 681 408 639 L 408 0 L 98 0 L 98 1143 Z M 135 1372 C 175 1450 218 1507 266 1543 C 313 1579 369 1597 434 1597 C 461 1597 486 1592 509 1583 C 532 1573 553 1563 573 1552 C 593 1541 611 1531 628 1522 C 644 1513 660 1509 676 1509 C 697 1509 717 1516 737 1532 C 757 1547 779 1572 805 1608 L 1001 1493 C 961 1415 918 1357 872 1321 C 825 1284 769 1266 705 1266 C 677 1266 651 1270 628 1279 C 604 1288 583 1298 563 1309 C 543 1319 525 1329 509 1338 C 492 1347 477 1352 463 1352 C 441 1352 421 1345 401 1331 C 381 1317 358 1292 334 1257 L 135 1372 Z" unicode="ñ" />
<glyph horiz-adv-x="1128" d="M 565 -18 C 463 -18 379 -3 313 24 C 247 52 194 93 156 145 C 118 197 91 261 76 335 C 60 409 53 492 53 584 C 53 674 60 756 75 830 C 89 904 116 967 154 1019 C 192 1071 245 1111 311 1139 C 377 1167 462 1182 565 1182 C 668 1182 753 1167 819 1139 C 885 1110 937 1069 975 1017 C 1013 965 1039 902 1053 828 C 1067 754 1075 673 1075 584 C 1075 490 1067 406 1053 332 C 1039 258 1013 195 975 143 C 937 91 885 51 819 23 C 753 -4 668 -18 565 -18 Z M 565 252 C 609 252 645 259 671 274 C 697 288 717 309 731 337 C 745 365 754 398 758 438 C 762 478 764 523 764 573 C 764 623 762 668 758 708 C 754 748 745 781 731 809 C 717 836 697 857 671 871 C 645 885 609 893 565 893 C 520 893 485 885 459 871 C 433 857 413 836 399 809 C 385 781 377 748 373 708 C 369 668 367 623 367 573 C 367 523 369 478 373 438 C 377 398 385 365 399 337 C 413 309 433 288 459 274 C 485 259 520 252 565 252 Z M 182 1645 L 526 1645 L 743 1270 L 479 1270 L 182 1645 Z" unicode="ò" />
<glyph horiz-adv-x="1128" d="M 598 1645 L 940 1645 L 645 1270 L 381 1270 L 598 1645 Z M 565 -18 C 463 -18 379 -3 313 24 C 247 52 194 93 156 145 C 118 197 91 261 76 335 C 60 409 53 492 53 584 C 53 674 60 756 75 830 C 89 904 116 967 154 1019 C 192 1071 245 1111 311 1139 C 377 1167 462 1182 565 1182 C 668 1182 753 1167 819 1139 C 885 1110 937 1069 975 1017 C 1013 965 1039 902 1053 828 C 1067 754 1075 673 1075 584 C 1075 490 1067 406 1053 332 C 1039 258 1013 195 975 143 C 937 91 885 51 819 23 C 753 -4 668 -18 565 -18 Z M 565 252 C 609 252 645 259 671 274 C 697 288 717 309 731 337 C 745 365 754 398 758 438 C 762 478 764 523 764 573 C 764 623 762 668 758 708 C 754 748 745 781 731 809 C 717 836 697 857 671 871 C 645 885 609 893 565 893 C 520 893 485 885 459 871 C 433 857 413 836 399 809 C 385 781 377 748 373 708 C 369 668 367 623 367 573 C 367 523 369 478 373 438 C 377 398 385 365 399 337 C 413 309 433 288 459 274 C 485 259 520 252 565 252 Z" unicode="ó" />
<glyph horiz-adv-x="1128" d="M 420 1645 L 705 1645 L 930 1270 L 684 1270 L 559 1432 L 436 1270 L 197 1270 L 420 1645 Z M 565 -18 C 463 -18 379 -3 313 24 C 247 52 194 93 156 145 C 118 197 91 261 76 335 C 60 409 53 492 53 584 C 53 674 60 756 75 830 C 89 904 116 967 154 1019 C 192 1071 245 1111 311 1139 C 377 1167 462 1182 565 1182 C 668 1182 753 1167 819 1139 C 885 1110 937 1069 975 1017 C 1013 965 1039 902 1053 828 C 1067 754 1075 673 1075 584 C 1075 490 1067 406 1053 332 C 1039 258 1013 195 975 143 C 937 91 885 51 819 23 C 753 -4 668 -18 565 -18 Z M 565 252 C 609 252 645 259 671 274 C 697 288 717 309 731 337 C 745 365 754 398 758 438 C 762 478 764 523 764 573 C 764 623 762 668 758 708 C 754 748 745 781 731 809 C 717 836 697 857 671 871 C 645 885 609 893 565 893 C 520 893 485 885 459 871 C 433 857 413 836 399 809 C 385 781 377 748 373 708 C 369 668 367 623 367 573 C 367 523 369 478 373 438 C 377 398 385 365 399 337 C 413 309 433 288 459 274 C 485 259 520 252 565 252 Z" unicode="ô" />
<glyph horiz-adv-x="1128" d="M 565 -18 C 463 -18 379 -3 313 24 C 247 52 194 93 156 145 C 118 197 91 261 76 335 C 60 409 53 492 53 584 C 53 674 60 756 75 830 C 89 904 116 967 154 1019 C 192 1071 245 1111 311 1139 C 377 1167 462 1182 565 1182 C 668 1182 753 1167 819 1139 C 885 1110 937 1069 975 1017 C 1013 965 1039 902 1053 828 C 1067 754 1075 673 1075 584 C 1075 490 1067 406 1053 332 C 1039 258 1013 195 975 143 C 937 91 885 51 819 23 C 753 -4 668 -18 565 -18 Z M 565 252 C 609 252 645 259 671 274 C 697 288 717 309 731 337 C 745 365 754 398 758 438 C 762 478 764 523 764 573 C 764 623 762 668 758 708 C 754 748 745 781 731 809 C 717 836 697 857 671 871 C 645 885 609 893 565 893 C 520 893 485 885 459 871 C 433 857 413 836 399 809 C 385 781 377 748 373 708 C 369 668 367 623 367 573 C 367 523 369 478 373 438 C 377 398 385 365 399 337 C 413 309 433 288 459 274 C 485 259 520 252 565 252 Z M 125 1372 C 165 1450 208 1507 256 1543 C 303 1579 359 1597 424 1597 C 450 1597 475 1592 498 1583 C 521 1573 543 1563 563 1552 C 583 1541 601 1531 618 1522 C 634 1513 650 1509 666 1509 C 687 1509 707 1516 727 1532 C 746 1547 769 1572 795 1608 L 991 1493 C 951 1415 907 1357 861 1321 C 814 1284 758 1266 694 1266 C 666 1266 641 1270 618 1279 C 594 1288 573 1298 553 1309 C 533 1319 515 1329 499 1338 C 482 1347 467 1352 453 1352 C 431 1352 411 1345 391 1331 C 371 1317 348 1292 324 1257 L 125 1372 Z" unicode="õ" />
<glyph horiz-adv-x="1128" d="M 225 1544 L 500 1544 L 500 1270 L 225 1270 L 225 1544 Z M 627 1544 L 899 1544 L 899 1270 L 627 1270 L 627 1544 Z M 565 -18 C 463 -18 379 -3 313 24 C 247 52 194 93 156 145 C 118 197 91 261 76 335 C 60 409 53 492 53 584 C 53 674 60 756 75 830 C 89 904 116 967 154 1019 C 192 1071 245 1111 311 1139 C 377 1167 462 1182 565 1182 C 668 1182 753 1167 819 1139 C 885 1110 937 1069 975 1017 C 1013 965 1039 902 1053 828 C 1067 754 1075 673 1075 584 C 1075 490 1067 406 1053 332 C 1039 258 1013 195 975 143 C 937 91 885 51 819 23 C 753 -4 668 -18 565 -18 Z M 565 252 C 609 252 645 259 671 274 C 697 288 717 309 731 337 C 745 365 754 398 758 438 C 762 478 764 523 764 573 C 764 623 762 668 758 708 C 754 748 745 781 731 809 C 717 836 697 857 671 871 C 645 885 609 893 565 893 C 520 893 485 885 459 871 C 433 857 413 836 399 809 C 385 781 377 748 373 708 C 369 668 367 623 367 573 C 367 523 369 478 373 438 C 377 398 385 365 399 337 C 413 309 433 288 459 274 C 485 259 520 252 565 252 Z" unicode="ö" />
<glyph horiz-adv-x="1247" d="M 469 459 L 776 459 L 776 193 L 469 193 L 469 459 Z M 154 864 L 1094 864 L 1094 580 L 154 580 L 154 864 Z M 469 1249 L 776 1249 L 776 983 L 469 983 L 469 1249 Z" unicode="÷" />
<glyph horiz-adv-x="1128" d="M 195 100 C 141 152 104 219 84 301 C 63 383 53 477 53 584 C 53 674 60 756 75 830 C 89 904 116 967 154 1019 C 192 1071 245 1111 311 1139 C 377 1167 462 1182 565 1182 C 601 1182 634 1180 665 1176 C 695 1172 724 1166 752 1159 L 801 1249 L 1049 1249 L 942 1055 C 967 1029 988 999 1005 965 C 1022 931 1036 895 1046 855 C 1056 815 1064 773 1068 728 C 1072 682 1075 634 1075 584 C 1075 490 1067 406 1053 332 C 1039 258 1013 195 975 143 C 937 91 885 51 819 23 C 753 -4 668 -18 565 -18 C 531 -18 499 -16 469 -13 C 439 -9 412 -5 387 0 L 338 -90 L 94 -90 L 195 100 Z M 354 573 C 354 538 354 506 356 476 C 358 446 362 419 369 395 L 627 897 C 607 901 587 903 565 903 C 519 903 483 895 455 881 C 427 866 406 844 391 816 C 376 788 366 753 361 712 C 356 671 354 625 354 573 Z M 565 244 C 611 244 648 251 676 266 C 704 281 725 303 740 331 C 754 359 764 394 769 435 C 773 475 776 521 776 573 C 776 607 775 638 774 667 C 772 695 769 721 764 745 L 506 250 C 522 246 541 244 565 244 Z" unicode="ø" />
<glyph horiz-adv-x="1130" d="M 565 -16 C 471 -16 393 -6 332 11 C 270 29 222 58 186 98 C 150 137 125 188 111 250 C 97 312 90 387 90 475 L 90 1161 L 401 1161 L 401 492 C 401 450 402 415 404 386 C 406 356 413 332 424 313 C 435 294 452 280 475 271 C 497 262 529 258 569 258 C 607 258 638 262 660 272 C 682 281 699 295 710 314 C 721 333 728 357 731 387 C 733 417 735 452 735 494 L 735 1161 L 1040 1161 L 1040 475 C 1040 387 1033 312 1020 250 C 1006 188 982 137 947 98 C 911 58 863 29 801 11 C 739 -6 661 -16 565 -16 Z M 184 1645 L 528 1645 L 745 1270 L 481 1270 L 184 1645 Z" unicode="ù" />
<glyph horiz-adv-x="1130" d="M 600 1645 L 942 1645 L 647 1270 L 383 1270 L 600 1645 Z M 565 -16 C 471 -16 393 -6 332 11 C 270 29 222 58 186 98 C 150 137 125 188 111 250 C 97 312 90 387 90 475 L 90 1161 L 401 1161 L 401 492 C 401 450 402 415 404 386 C 406 356 413 332 424 313 C 435 294 452 280 475 271 C 497 262 529 258 569 258 C 607 258 638 262 660 272 C 682 281 699 295 710 314 C 721 333 728 357 731 387 C 733 417 735 452 735 494 L 735 1161 L 1040 1161 L 1040 475 C 1040 387 1033 312 1020 250 C 1006 188 982 137 947 98 C 911 58 863 29 801 11 C 739 -6 661 -16 565 -16 Z" unicode="ú" />
<glyph horiz-adv-x="1130" d="M 422 1645 L 707 1645 L 932 1270 L 686 1270 L 561 1432 L 438 1270 L 199 1270 L 422 1645 Z M 565 -16 C 471 -16 393 -6 332 11 C 270 29 222 58 186 98 C 150 137 125 188 111 250 C 97 312 90 387 90 475 L 90 1161 L 401 1161 L 401 492 C 401 450 402 415 404 386 C 406 356 413 332 424 313 C 435 294 452 280 475 271 C 497 262 529 258 569 258 C 607 258 638 262 660 272 C 682 281 699 295 710 314 C 721 333 728 357 731 387 C 733 417 735 452 735 494 L 735 1161 L 1040 1161 L 1040 475 C 1040 387 1033 312 1020 250 C 1006 188 982 137 947 98 C 911 58 863 29 801 11 C 739 -6 661 -16 565 -16 Z" unicode="û" />
<glyph horiz-adv-x="1130" d="M 227 1544 L 502 1544 L 502 1270 L 227 1270 L 227 1544 Z M 629 1544 L 901 1544 L 901 1270 L 629 1270 L 629 1544 Z M 565 -16 C 471 -16 393 -6 332 11 C 270 29 222 58 186 98 C 150 137 125 188 111 250 C 97 312 90 387 90 475 L 90 1161 L 401 1161 L 401 492 C 401 450 402 415 404 386 C 406 356 413 332 424 313 C 435 294 452 280 475 271 C 497 262 529 258 569 258 C 607 258 638 262 660 272 C 682 281 699 295 710 314 C 721 333 728 357 731 387 C 733 417 735 452 735 494 L 735 1161 L 1040 1161 L 1040 475 C 1040 387 1033 312 1020 250 C 1006 188 982 137 947 98 C 911 58 863 29 801 11 C 739 -6 661 -16 565 -16 Z" unicode="ü" />
<glyph horiz-adv-x="1020" d="M 139 -76 L 270 -76 C 284 -76 295 -75 304 -73 C 313 -71 321 -68 327 -64 C 333 -60 337 -55 341 -49 C 344 -43 347 -35 350 -27 L 356 0 L 2 1161 L 319 1161 L 516 449 L 711 1161 L 1016 1161 L 633 -90 C 617 -140 599 -180 577 -211 C 555 -241 530 -265 501 -282 C 471 -298 437 -309 399 -315 C 361 -321 317 -324 268 -324 L 139 -324 L 139 -76 Z M 545 1645 L 887 1645 L 592 1270 L 328 1270 L 545 1645 Z" unicode="ý" />
<glyph horiz-adv-x="1163" d="M 98 1575 L 406 1575 L 406 1071 C 418 1089 432 1104 449 1118 C 465 1132 486 1143 511 1153 C 536 1163 566 1170 600 1175 C 634 1179 674 1182 721 1182 C 778 1182 827 1174 869 1159 C 911 1144 946 1123 975 1097 C 1004 1070 1027 1038 1045 1001 C 1063 964 1076 923 1086 879 C 1095 835 1101 788 1105 738 C 1108 688 1110 636 1110 584 C 1110 530 1108 477 1104 427 C 1100 376 1093 329 1083 285 C 1072 241 1057 200 1039 163 C 1020 126 996 95 966 69 C 936 43 900 22 858 8 C 816 -6 766 -14 709 -14 C 667 -14 631 -12 600 -8 C 568 -4 541 0 517 8 C 493 15 473 24 455 36 C 437 47 422 60 408 76 L 408 -324 L 98 -324 L 98 1575 Z M 614 254 C 652 254 683 260 707 273 C 731 286 749 306 763 332 C 776 358 785 390 790 430 C 794 469 797 515 797 569 C 797 622 795 669 791 709 C 787 749 778 783 765 811 C 752 838 734 858 710 872 C 686 886 654 893 614 893 C 568 893 532 886 505 872 C 478 858 457 837 443 809 C 429 781 419 747 415 707 C 410 667 408 621 408 569 C 408 517 410 471 414 432 C 418 393 428 360 442 334 C 456 307 476 287 504 274 C 531 260 568 254 614 254 Z" unicode="þ" />
<glyph horiz-adv-x="1020" d="M 139 -76 L 270 -76 C 284 -76 295 -75 304 -73 C 313 -71 321 -68 327 -64 C 333 -60 337 -55 341 -49 C 344 -43 347 -35 350 -27 L 356 0 L 2 1161 L 319 1161 L 516 449 L 711 1161 L 1016 1161 L 633 -90 C 617 -140 599 -180 577 -211 C 555 -241 530 -265 501 -282 C 471 -298 437 -309 399 -315 C 361 -321 317 -324 268 -324 L 139 -324 L 139 -76 Z M 172 1544 L 446 1544 L 446 1270 L 172 1270 L 172 1544 Z M 573 1544 L 846 1544 L 846 1270 L 573 1270 L 573 1544 Z" unicode="ÿ" />
<glyph horiz-adv-x="1343" d="" unicode="Ā" />
<glyph horiz-adv-x="1116" d="" unicode="ā" />
<glyph horiz-adv-x="1343" d="M 500 1528 L 844 1528 L 1317 0 L 987 0 L 918 236 L 416 236 L 348 0 L 27 0 L 500 1528 Z M 840 518 L 668 1094 L 492 518 L 840 518 Z M 670 1583 C 601 1583 544 1590 500 1605 C 455 1620 419 1643 391 1673 C 363 1703 341 1740 327 1786 C 312 1831 301 1884 293 1946 L 514 1978 C 519 1947 525 1921 532 1901 C 539 1880 548 1863 560 1851 C 572 1839 586 1830 604 1825 C 622 1819 644 1817 670 1817 C 696 1817 717 1819 735 1825 C 753 1830 767 1839 779 1851 C 791 1863 800 1880 807 1901 C 814 1921 820 1947 825 1978 L 1049 1948 C 1040 1886 1028 1832 1013 1786 C 998 1740 977 1702 949 1672 C 921 1642 884 1619 840 1605 C 795 1590 738 1583 670 1583 Z" unicode="Ă" />
<glyph horiz-adv-x="1116" d="M 414 -14 C 338 -14 276 -4 228 13 C 180 31 143 57 116 89 C 89 121 71 160 61 205 C 51 249 47 298 47 350 C 47 431 58 498 81 552 C 104 606 140 649 189 681 C 237 713 299 735 374 748 C 449 761 539 768 643 768 L 684 768 C 682 792 679 812 673 830 C 667 847 659 861 647 872 C 635 883 620 891 601 897 C 582 902 558 905 530 905 C 464 905 407 899 359 887 C 311 875 270 860 236 844 L 111 1094 C 161 1120 223 1142 297 1160 C 371 1177 460 1186 565 1186 C 645 1186 711 1178 765 1164 C 819 1150 862 1127 894 1095 C 926 1063 948 1023 962 973 C 976 923 983 862 983 791 L 983 358 C 983 340 983 325 985 314 C 986 302 989 293 995 286 C 1000 279 1008 274 1019 272 C 1029 269 1044 268 1063 268 L 1063 0 C 1046 -2 1030 -3 1015 -3 C 999 -3 985 -4 971 -4 C 933 -4 902 -2 876 0 C 850 1 827 6 809 13 C 791 20 776 30 764 42 C 752 54 741 71 733 92 C 717 73 700 57 680 44 C 660 30 638 19 612 11 C 586 2 557 -4 525 -8 C 492 -12 455 -14 414 -14 Z M 485 240 C 515 240 542 243 567 249 C 591 255 612 265 630 281 C 647 296 660 317 670 343 C 679 369 684 402 684 442 L 684 549 L 645 549 C 587 549 539 546 501 542 C 462 537 431 529 407 517 C 383 505 367 488 357 467 C 347 445 342 418 342 385 C 342 359 344 337 349 319 C 354 301 362 286 374 274 C 385 262 400 254 418 248 C 436 242 458 240 485 240 Z M 557 1257 C 488 1257 431 1264 387 1279 C 342 1294 306 1317 278 1347 C 250 1377 228 1414 214 1460 C 199 1505 188 1558 180 1620 L 401 1653 C 406 1622 412 1596 419 1576 C 426 1555 435 1538 447 1526 C 459 1513 473 1504 491 1499 C 509 1493 531 1491 557 1491 C 583 1491 605 1493 623 1499 C 641 1504 655 1513 667 1526 C 679 1538 688 1555 695 1576 C 702 1596 708 1622 713 1653 L 936 1622 C 927 1560 915 1506 900 1460 C 885 1414 864 1376 836 1346 C 808 1316 771 1293 727 1279 C 682 1264 625 1257 557 1257 Z" unicode="ă" />
<glyph horiz-adv-x="1343" d="M 500 1528 L 844 1528 L 1317 0 L 1178 0 C 1158 -18 1140 -36 1124 -55 C 1108 -74 1093 -93 1081 -112 C 1069 -131 1059 -150 1052 -168 C 1045 -186 1042 -203 1042 -219 C 1042 -249 1049 -270 1065 -284 C 1081 -298 1107 -305 1143 -305 L 1204 -305 L 1204 -479 L 1116 -479 C 1068 -479 1026 -476 991 -470 C 955 -464 926 -453 903 -437 C 880 -421 863 -400 852 -373 C 841 -345 836 -310 836 -268 C 836 -237 840 -208 850 -181 C 859 -154 871 -129 885 -106 C 899 -83 915 -62 933 -44 C 951 -26 968 -10 985 4 L 918 236 L 416 236 L 348 0 L 27 0 L 500 1528 Z M 840 518 L 668 1094 L 492 518 L 840 518 Z" unicode="Ą" />
<glyph horiz-adv-x="1116" d="M 414 -14 C 338 -14 276 -4 228 13 C 180 31 143 57 116 89 C 89 121 71 160 61 205 C 51 249 47 298 47 350 C 47 431 58 498 81 552 C 104 606 140 649 189 681 C 237 713 299 735 374 748 C 449 761 539 768 643 768 L 684 768 C 682 792 679 812 673 830 C 667 847 659 861 647 872 C 635 883 620 891 601 897 C 582 902 558 905 530 905 C 464 905 407 899 359 887 C 311 875 270 860 236 844 L 111 1094 C 161 1120 223 1142 297 1160 C 371 1177 460 1186 565 1186 C 645 1186 711 1178 765 1164 C 819 1150 862 1127 894 1095 C 926 1063 948 1023 962 973 C 976 923 983 862 983 791 L 983 358 C 983 340 983 325 985 314 C 986 302 989 293 995 286 C 1000 279 1008 274 1019 272 C 1029 269 1044 268 1063 268 L 1063 0 C 1036 -20 1011 -39 989 -57 C 966 -75 946 -92 930 -110 C 914 -128 901 -145 892 -163 C 883 -181 879 -199 879 -219 C 879 -249 886 -270 902 -284 C 917 -298 943 -305 981 -305 L 1040 -305 L 1040 -479 L 952 -479 C 904 -479 862 -476 827 -470 C 791 -464 762 -453 739 -437 C 716 -421 699 -400 688 -373 C 677 -345 672 -310 672 -268 C 672 -233 678 -201 690 -172 C 702 -143 718 -117 736 -95 C 754 -73 773 -53 794 -37 C 815 -21 834 -8 852 2 C 820 7 795 16 777 30 C 759 43 744 64 733 92 C 717 73 700 57 680 44 C 660 30 638 19 612 11 C 586 2 557 -4 525 -8 C 492 -12 455 -14 414 -14 Z M 485 240 C 515 240 542 243 567 249 C 591 255 612 265 630 281 C 647 296 660 317 670 343 C 679 369 684 402 684 442 L 684 549 L 645 549 C 587 549 539 546 501 542 C 462 537 431 529 407 517 C 383 505 367 488 357 467 C 347 445 342 418 342 385 C 342 359 344 337 349 319 C 354 301 362 286 374 274 C 385 262 400 254 418 248 C 436 242 458 240 485 240 Z" unicode="ą" />
<glyph horiz-adv-x="1155" d="M 612 1970 L 954 1970 L 659 1595 L 395 1595 L 612 1970 Z M 664 -18 C 545 -18 446 0 368 36 C 290 72 227 124 181 192 C 135 259 102 340 83 436 C 64 532 55 639 55 758 C 55 834 58 907 66 975 C 73 1043 86 1106 104 1164 C 122 1222 147 1274 178 1320 C 208 1366 247 1405 294 1437 C 341 1469 397 1493 462 1510 C 526 1527 602 1536 688 1536 C 768 1536 843 1526 913 1507 C 983 1488 1045 1461 1100 1425 L 928 1159 C 896 1178 860 1193 818 1205 C 776 1217 730 1223 678 1223 C 625 1223 580 1215 542 1201 C 504 1187 474 1162 450 1126 C 426 1090 408 1041 397 980 C 386 919 381 842 381 750 C 381 658 386 581 397 520 C 407 458 425 409 449 372 C 473 335 504 309 542 293 C 580 277 626 270 680 270 C 706 270 731 271 755 274 C 778 277 800 282 822 288 C 843 294 864 302 885 312 C 905 322 926 334 948 348 L 1106 100 C 1076 81 1045 64 1014 50 C 983 35 950 23 915 13 C 880 3 842 -4 801 -10 C 760 -15 714 -18 664 -18 Z" unicode="Ć" />
<glyph horiz-adv-x="918" d="M 494 1645 L 836 1645 L 541 1270 L 276 1270 L 494 1645 Z M 541 -16 C 443 -16 362 -2 299 24 C 236 51 186 90 150 142 C 114 194 88 257 74 331 C 60 405 53 490 53 584 C 53 676 59 759 73 833 C 87 907 112 969 150 1021 C 187 1073 238 1112 304 1140 C 370 1168 455 1182 559 1182 C 597 1182 631 1180 662 1177 C 693 1174 722 1170 748 1165 C 774 1159 797 1153 819 1145 C 841 1137 861 1129 881 1120 L 745 852 C 721 864 696 874 669 882 C 641 889 610 893 575 893 C 535 893 502 887 476 876 C 450 864 429 846 413 821 C 397 795 385 762 379 722 C 372 681 369 631 369 573 C 369 515 372 465 378 424 C 384 383 396 350 412 325 C 428 299 450 281 478 269 C 505 257 540 252 582 252 C 620 252 655 256 686 266 C 717 275 747 286 776 299 L 893 63 C 862 48 833 36 805 26 C 777 16 750 7 723 1 C 695 -4 667 -9 637 -12 C 607 -14 575 -16 541 -16 Z" unicode="ć" />
<glyph horiz-adv-x="1155" d="" unicode="Ĉ" />
<glyph horiz-adv-x="918" d="" unicode="ĉ" />
<glyph horiz-adv-x="1155" d="" unicode="Ċ" />
<glyph horiz-adv-x="918" d="" unicode="ċ" />
<glyph horiz-adv-x="1155" d="M 211 1970 L 457 1970 L 580 1808 L 702 1970 L 944 1970 L 719 1595 L 434 1595 L 211 1970 Z M 664 -18 C 545 -18 446 0 368 36 C 290 72 227 124 181 192 C 135 259 102 340 83 436 C 64 532 55 639 55 758 C 55 834 58 907 66 975 C 73 1043 86 1106 104 1164 C 122 1222 147 1274 178 1320 C 208 1366 247 1405 294 1437 C 341 1469 397 1493 462 1510 C 526 1527 602 1536 688 1536 C 768 1536 843 1526 913 1507 C 983 1488 1045 1461 1100 1425 L 928 1159 C 896 1178 860 1193 818 1205 C 776 1217 730 1223 678 1223 C 625 1223 580 1215 542 1201 C 504 1187 474 1162 450 1126 C 426 1090 408 1041 397 980 C 386 919 381 842 381 750 C 381 658 386 581 397 520 C 407 458 425 409 449 372 C 473 335 504 309 542 293 C 580 277 626 270 680 270 C 706 270 731 271 755 274 C 778 277 800 282 822 288 C 843 294 864 302 885 312 C 905 322 926 334 948 348 L 1106 100 C 1076 81 1045 64 1014 50 C 983 35 950 23 915 13 C 880 3 842 -4 801 -10 C 760 -15 714 -18 664 -18 Z" unicode="Č" />
<glyph horiz-adv-x="918" d="M 92 1645 L 338 1645 L 461 1483 L 584 1645 L 825 1645 L 600 1270 L 315 1270 L 92 1645 Z M 541 -16 C 443 -16 362 -2 299 24 C 236 51 186 90 150 142 C 114 194 88 257 74 331 C 60 405 53 490 53 584 C 53 676 59 759 73 833 C 87 907 112 969 150 1021 C 187 1073 238 1112 304 1140 C 370 1168 455 1182 559 1182 C 597 1182 631 1180 662 1177 C 693 1174 722 1170 748 1165 C 774 1159 797 1153 819 1145 C 841 1137 861 1129 881 1120 L 745 852 C 721 864 696 874 669 882 C 641 889 610 893 575 893 C 535 893 502 887 476 876 C 450 864 429 846 413 821 C 397 795 385 762 379 722 C 372 681 369 631 369 573 C 369 515 372 465 378 424 C 384 383 396 350 412 325 C 428 299 450 281 478 269 C 505 257 540 252 582 252 C 620 252 655 256 686 266 C 717 275 747 286 776 299 L 893 63 C 862 48 833 36 805 26 C 777 16 750 7 723 1 C 695 -4 667 -9 637 -12 C 607 -14 575 -16 541 -16 Z" unicode="č" />
<glyph horiz-adv-x="1315" d="M 291 1970 L 537 1970 L 659 1808 L 782 1970 L 1024 1970 L 799 1595 L 514 1595 L 291 1970 Z M 119 1518 L 592 1518 C 712 1518 814 1505 899 1481 C 983 1456 1052 1414 1106 1356 C 1160 1297 1199 1219 1223 1122 C 1247 1025 1260 904 1260 760 C 1260 612 1248 489 1224 391 C 1200 293 1161 216 1108 158 C 1054 100 985 59 901 35 C 816 11 713 0 592 0 L 119 0 L 119 1518 Z M 621 279 C 677 279 724 285 764 299 C 803 312 835 336 861 372 C 886 408 904 457 916 519 C 928 581 934 660 934 758 C 934 854 928 933 916 994 C 904 1054 886 1102 860 1136 C 834 1170 801 1194 761 1206 C 720 1218 670 1225 612 1225 L 440 1225 L 440 279 L 621 279 Z" unicode="Ď" />
<glyph horiz-adv-x="1419" d="M 1163 1176 C 1189 1190 1209 1202 1225 1212 C 1240 1222 1252 1231 1261 1240 C 1269 1249 1275 1259 1278 1269 C 1280 1279 1282 1293 1282 1309 L 1163 1309 L 1163 1575 L 1436 1575 L 1436 1333 C 1436 1301 1433 1272 1429 1248 C 1425 1224 1415 1201 1401 1181 C 1386 1160 1365 1140 1338 1121 C 1310 1102 1273 1082 1227 1061 L 1163 1176 Z M 442 -14 C 384 -14 335 -6 294 8 C 252 22 217 43 189 70 C 160 96 137 128 119 166 C 101 203 88 244 79 288 C 69 332 63 380 60 430 C 56 480 55 532 55 586 C 55 640 56 692 60 742 C 64 792 71 840 82 884 C 92 928 107 968 125 1005 C 143 1041 168 1073 198 1099 C 228 1125 264 1146 306 1160 C 348 1174 399 1182 457 1182 C 497 1182 533 1180 565 1177 C 596 1173 623 1168 647 1161 C 670 1153 690 1144 708 1133 C 726 1122 742 1109 756 1094 L 756 1575 L 1067 1575 L 1067 10 L 819 -10 L 795 96 C 779 78 761 62 740 48 C 719 34 694 23 666 14 C 638 4 605 -2 569 -7 C 532 -11 490 -14 442 -14 Z M 549 254 C 593 254 629 261 657 275 C 684 289 705 310 720 338 C 734 365 744 399 749 440 C 753 480 756 527 756 580 C 756 630 753 675 749 715 C 745 754 735 787 721 814 C 707 840 686 860 659 874 C 631 888 595 895 549 895 C 509 895 478 888 454 875 C 430 862 412 842 399 816 C 386 790 377 757 373 718 C 369 678 367 632 367 580 C 367 526 369 479 373 439 C 377 398 385 364 398 337 C 410 309 429 289 453 275 C 477 261 509 254 549 254 Z" unicode="ď" />
<glyph horiz-adv-x="1315" d="M 0 895 L 119 895 L 119 1518 L 592 1518 C 712 1518 814 1505 899 1481 C 983 1456 1052 1414 1106 1356 C 1160 1297 1199 1219 1223 1122 C 1247 1025 1260 904 1260 760 C 1260 612 1248 489 1224 391 C 1200 293 1161 216 1108 158 C 1054 100 985 59 901 35 C 816 11 713 0 592 0 L 119 0 L 119 635 L 0 635 L 0 895 Z M 621 279 C 677 279 724 285 764 299 C 803 312 835 336 861 372 C 886 408 904 457 916 519 C 928 581 934 660 934 758 C 934 854 928 933 916 994 C 904 1054 886 1102 860 1136 C 834 1170 801 1194 761 1206 C 720 1218 670 1225 612 1225 L 440 1225 L 440 895 L 655 895 L 655 635 L 440 635 L 440 279 L 621 279 Z" unicode="Đ" />
<glyph horiz-adv-x="1163" d="M 551 1473 L 756 1473 L 756 1575 L 1067 1575 L 1067 1473 L 1163 1473 L 1163 1235 L 1067 1235 L 1067 10 L 819 -10 L 795 96 C 779 78 761 62 740 48 C 719 34 694 23 666 14 C 638 4 605 -2 569 -7 C 532 -11 490 -14 442 -14 C 384 -14 335 -6 294 8 C 252 22 217 43 189 70 C 160 96 137 128 119 166 C 101 203 88 244 79 288 C 69 332 63 380 60 430 C 56 480 55 532 55 586 C 55 640 56 692 60 742 C 64 792 71 840 82 884 C 92 928 107 968 125 1005 C 143 1041 168 1073 198 1099 C 228 1125 264 1146 306 1160 C 348 1174 399 1182 457 1182 C 497 1182 533 1180 565 1177 C 596 1173 623 1168 647 1161 C 670 1153 690 1144 708 1133 C 726 1122 742 1109 756 1094 L 756 1235 L 551 1235 L 551 1473 Z M 549 254 C 593 254 629 261 657 275 C 684 289 705 310 720 338 C 734 365 744 399 749 440 C 753 480 756 527 756 580 C 756 630 753 675 749 715 C 745 754 735 787 721 814 C 707 840 686 860 659 874 C 631 888 595 895 549 895 C 509 895 478 888 454 875 C 430 862 412 842 399 816 C 386 790 377 757 373 718 C 369 678 367 632 367 580 C 367 526 369 479 373 439 C 377 398 385 364 398 337 C 410 309 429 289 453 275 C 477 261 509 254 549 254 Z" unicode="đ" />
<glyph horiz-adv-x="1141" d="" unicode="Ē" />
<glyph horiz-adv-x="1055" d="" unicode="ē" />
<glyph horiz-adv-x="1141" d="" unicode="Ĕ" />
<glyph horiz-adv-x="1055" d="" unicode="ĕ" />
<glyph horiz-adv-x="1141" d="" unicode="Ė" />
<glyph horiz-adv-x="1055" d="" unicode="ė" />
<glyph horiz-adv-x="1141" d="M 119 1518 L 1055 1518 L 1055 1225 L 432 1225 L 432 922 L 1028 922 L 1028 631 L 432 631 L 432 287 L 1057 287 L 1057 0 L 997 0 C 958 -37 926 -75 900 -113 C 874 -151 862 -187 862 -219 C 862 -249 869 -270 885 -284 C 901 -298 927 -305 965 -305 L 1024 -305 L 1024 -479 L 936 -479 C 888 -479 846 -476 811 -470 C 775 -464 746 -453 723 -437 C 700 -421 683 -400 672 -373 C 660 -345 655 -310 655 -268 C 655 -238 659 -210 668 -184 C 676 -157 688 -132 702 -110 C 716 -87 731 -66 749 -48 C 766 -30 783 -14 801 0 L 119 0 L 119 1518 Z" unicode="Ę" />
<glyph horiz-adv-x="1055" d="M 547 -14 C 444 -14 360 0 296 26 C 232 53 182 92 146 143 C 110 194 85 257 72 331 C 59 405 53 490 53 584 C 53 676 60 759 76 833 C 91 907 118 969 156 1021 C 194 1073 246 1112 311 1140 C 375 1168 457 1182 555 1182 C 631 1182 695 1173 747 1157 C 799 1140 841 1116 874 1085 C 906 1054 931 1017 948 973 C 965 929 977 879 984 825 C 991 770 994 710 994 646 C 994 581 993 513 993 442 L 352 442 C 355 408 361 378 369 354 C 377 330 389 310 405 294 C 421 278 441 267 467 260 C 493 253 525 250 563 250 C 601 250 635 251 665 255 C 695 259 722 264 746 270 C 770 276 791 284 811 292 C 831 300 850 308 868 317 L 985 82 C 964 70 943 60 921 52 C 899 43 877 35 854 27 C 830 7 809 -12 789 -34 C 769 -55 751 -76 736 -98 C 721 -119 709 -140 701 -161 C 692 -181 688 -201 688 -219 C 688 -249 695 -270 711 -284 C 727 -298 753 -305 791 -305 L 850 -305 L 850 -479 L 762 -479 C 714 -479 672 -476 637 -470 C 601 -464 572 -453 549 -437 C 526 -421 509 -400 498 -373 C 486 -345 481 -310 481 -268 C 481 -240 484 -214 492 -190 C 500 -165 510 -142 522 -120 C 534 -98 548 -79 564 -61 C 580 -43 596 -26 612 -12 C 600 -13 589 -14 579 -14 C 569 -14 558 -14 547 -14 Z M 547 911 C 509 911 477 906 453 897 C 428 887 408 873 394 855 C 380 836 369 812 363 783 C 356 754 352 720 350 682 L 721 682 C 719 720 717 754 714 783 C 711 811 704 835 692 854 C 680 873 663 887 641 897 C 618 906 587 911 547 911 Z" unicode="ę" />
<glyph horiz-adv-x="1141" d="M 205 1970 L 451 1970 L 573 1808 L 696 1970 L 938 1970 L 713 1595 L 428 1595 L 205 1970 Z M 119 1518 L 1055 1518 L 1055 1225 L 432 1225 L 432 922 L 1028 922 L 1028 631 L 432 631 L 432 287 L 1057 287 L 1057 0 L 119 0 L 119 1518 Z" unicode="Ě" />
<glyph horiz-adv-x="1055" d="M 160 1645 L 406 1645 L 528 1483 L 651 1645 L 893 1645 L 668 1270 L 383 1270 L 160 1645 Z M 547 -14 C 444 -14 360 0 296 26 C 232 53 182 92 146 143 C 110 194 85 257 72 331 C 59 405 53 490 53 584 C 53 676 60 759 76 833 C 91 907 118 969 156 1021 C 194 1073 246 1112 311 1140 C 375 1168 457 1182 555 1182 C 631 1182 695 1173 747 1157 C 799 1140 841 1116 874 1085 C 906 1054 931 1017 948 973 C 965 929 977 879 984 825 C 991 770 994 710 994 646 C 994 581 993 513 993 442 L 352 442 C 355 408 361 378 369 354 C 377 330 389 310 405 294 C 421 278 441 267 467 260 C 493 253 525 250 563 250 C 601 250 635 251 665 255 C 695 259 722 264 746 270 C 770 276 791 284 811 292 C 831 300 850 308 868 317 L 985 82 C 929 52 867 29 797 12 C 727 -5 643 -14 547 -14 Z M 547 911 C 509 911 477 906 453 897 C 428 887 408 873 394 855 C 380 836 369 812 363 783 C 356 754 352 720 350 682 L 721 682 C 719 720 717 754 714 783 C 711 811 704 835 692 854 C 680 873 663 887 641 897 C 618 906 587 911 547 911 Z" unicode="ě" />
<glyph horiz-adv-x="1262" d="" unicode="Ĝ" />
<glyph horiz-adv-x="1120" d="" unicode="ĝ" />
<glyph horiz-adv-x="1262" d="M 645 -18 C 527 -18 431 0 355 35 C 279 71 218 122 174 189 C 129 256 98 337 81 433 C 63 529 55 637 55 758 C 55 892 65 1009 87 1107 C 109 1205 145 1285 195 1349 C 245 1413 312 1460 394 1490 C 476 1520 578 1536 700 1536 C 794 1536 877 1525 950 1503 C 1023 1481 1087 1453 1141 1419 L 971 1153 C 953 1163 935 1172 915 1181 C 895 1189 873 1197 850 1204 C 827 1211 802 1217 775 1221 C 747 1225 718 1227 686 1227 C 636 1227 591 1221 553 1209 C 515 1197 483 1173 457 1139 C 431 1104 411 1055 397 993 C 383 931 377 850 377 750 C 377 654 382 574 392 510 C 402 446 418 396 442 358 C 465 320 495 293 533 277 C 571 261 618 254 674 254 C 722 254 761 260 791 273 C 821 286 844 306 861 333 C 877 360 888 395 894 437 C 900 479 903 529 903 588 L 903 625 L 608 625 L 608 901 L 1208 901 L 1208 645 C 1208 523 1200 419 1184 335 C 1168 251 1139 182 1097 130 C 1055 78 997 40 925 17 C 852 -6 759 -18 645 -18 Z M 629 1583 C 560 1583 503 1590 459 1605 C 414 1620 378 1643 350 1673 C 322 1703 300 1740 286 1786 C 271 1831 260 1884 252 1946 L 473 1978 C 478 1947 484 1921 491 1901 C 498 1880 507 1863 519 1851 C 531 1839 545 1830 563 1825 C 581 1819 603 1817 629 1817 C 655 1817 676 1819 694 1825 C 712 1830 726 1839 738 1851 C 750 1863 759 1880 766 1901 C 773 1921 779 1947 784 1978 L 1008 1948 C 999 1886 987 1832 972 1786 C 957 1740 936 1702 908 1672 C 880 1642 843 1619 799 1605 C 754 1590 697 1583 629 1583 Z" unicode="Ğ" />
<glyph horiz-adv-x="1120" d="M 541 410 C 518 410 496 410 476 410 C 455 410 435 412 416 416 C 414 410 414 405 414 400 C 414 395 414 390 414 385 C 414 373 415 363 419 355 C 423 347 430 341 441 337 C 452 332 467 329 487 327 C 506 325 531 324 563 324 C 663 324 746 319 812 309 C 877 299 928 282 966 258 C 1004 234 1030 203 1045 164 C 1059 125 1067 77 1067 20 C 1067 -48 1056 -105 1034 -151 C 1012 -197 980 -235 937 -264 C 893 -292 839 -313 773 -325 C 707 -337 631 -344 543 -344 C 453 -344 375 -340 309 -332 C 243 -324 189 -309 146 -289 C 103 -269 71 -241 51 -205 C 30 -169 20 -124 20 -68 C 20 6 36 65 70 109 C 103 152 152 181 217 197 C 195 215 180 238 170 266 C 160 294 156 324 156 356 C 156 381 159 405 165 428 C 171 451 182 473 197 494 C 157 522 127 560 107 608 C 86 656 76 715 76 786 C 76 856 86 917 106 967 C 126 1017 156 1059 196 1091 C 235 1123 283 1146 341 1161 C 399 1176 465 1184 541 1184 C 550 1184 559 1184 569 1184 C 578 1184 588 1183 600 1182 L 1057 1276 L 1057 1036 L 899 1036 C 931 1014 958 984 978 944 C 998 904 1008 852 1008 786 C 1008 714 996 655 974 607 C 952 559 920 520 880 491 C 839 462 790 441 733 429 C 675 416 611 410 541 410 Z M 539 -129 C 585 -129 623 -126 651 -121 C 679 -115 700 -107 716 -97 C 731 -86 741 -72 746 -56 C 751 -40 754 -21 754 0 C 754 18 751 34 746 47 C 741 60 731 71 716 79 C 701 87 680 92 652 96 C 624 100 587 102 541 102 C 499 102 465 99 438 95 C 411 91 389 84 373 75 C 356 65 344 53 338 39 C 331 25 328 8 328 -12 C 328 -31 331 -48 338 -63 C 344 -77 356 -89 372 -99 C 388 -109 409 -116 436 -121 C 463 -126 497 -129 539 -129 Z M 541 631 C 601 631 644 643 668 669 C 692 695 705 732 705 780 C 705 828 692 865 668 890 C 644 915 601 928 541 928 C 482 928 440 915 416 890 C 391 865 379 828 379 780 C 379 732 391 695 416 669 C 440 643 482 631 541 631 Z M 557 1257 C 488 1257 431 1264 387 1279 C 342 1294 306 1317 278 1347 C 250 1377 228 1414 214 1460 C 199 1505 188 1558 180 1620 L 401 1653 C 406 1622 412 1596 419 1576 C 426 1555 435 1538 447 1526 C 459 1513 473 1504 491 1499 C 509 1493 531 1491 557 1491 C 583 1491 605 1493 623 1499 C 641 1504 655 1513 667 1526 C 679 1538 688 1555 695 1576 C 702 1596 708 1622 713 1653 L 936 1622 C 927 1560 915 1506 900 1460 C 885 1414 864 1376 836 1346 C 808 1316 771 1293 727 1279 C 682 1264 625 1257 557 1257 Z" unicode="ğ" />
<glyph horiz-adv-x="1262" d="" unicode="Ġ" />
<glyph horiz-adv-x="1120" d="" unicode="ġ" />
<glyph horiz-adv-x="1262" d="" unicode="Ģ" />
<glyph horiz-adv-x="1120" d="" unicode="ģ" />
<glyph horiz-adv-x="1386" d="" unicode="Ĥ" />
<glyph horiz-adv-x="1151" d="" unicode="ĥ" />
<glyph horiz-adv-x="1386" d="" unicode="Ħ" />
<glyph horiz-adv-x="1151" d="" unicode="ħ" />
<glyph horiz-adv-x="594" d="" unicode="Ĩ" />
<glyph horiz-adv-x="524" d="" unicode="ĩ" />
<glyph horiz-adv-x="594" d="" unicode="Ī" />
<glyph horiz-adv-x="524" d="" unicode="ī" />
<glyph horiz-adv-x="594" d="" unicode="Ĭ" />
<glyph horiz-adv-x="524" d="" unicode="ĭ" />
<glyph horiz-adv-x="594" d="" unicode="Į" />
<glyph horiz-adv-x="524" d="" unicode="į" />
<glyph horiz-adv-x="594" d="M 137 1518 L 457 1518 L 457 0 L 137 0 L 137 1518 Z M 143 1876 L 455 1876 L 455 1595 L 143 1595 L 143 1876 Z" unicode="İ" />
<glyph horiz-adv-x="524" d="M 106 1161 L 416 1161 L 416 0 L 106 0 L 106 1161 Z" unicode="ı" />
<glyph horiz-adv-x="1393" d="" unicode="Ĳ" />
<glyph horiz-adv-x="1047" d="" unicode="ĳ" />
<glyph horiz-adv-x="801" d="" unicode="Ĵ" />
<glyph horiz-adv-x="524" d="" unicode="ĵ" />
<glyph horiz-adv-x="1309" d="" unicode="Ķ" />
<glyph horiz-adv-x="1071" d="" unicode="ķ" />
<glyph horiz-adv-x="1071" d="" unicode="ĸ" />
<glyph horiz-adv-x="1051" d="M 371 1970 L 713 1970 L 418 1595 L 154 1595 L 371 1970 Z M 119 1518 L 440 1518 L 440 287 L 1030 287 L 1030 0 L 119 0 L 119 1518 Z" unicode="Ĺ" />
<glyph horiz-adv-x="600" d="M 338 2044 L 680 2044 L 385 1669 L 121 1669 L 338 2044 Z M 537 0 C 530 -1 518 -2 500 -3 C 482 -3 456 -4 424 -4 C 370 -4 324 0 284 10 C 244 20 211 37 185 62 C 158 87 138 121 125 165 C 112 208 106 263 106 330 L 106 1575 L 416 1575 L 416 373 C 416 351 417 333 419 319 C 421 305 426 295 434 287 C 442 279 454 274 470 272 C 486 269 509 268 537 268 L 537 0 Z" unicode="ĺ" />
<glyph horiz-adv-x="1051" d="" unicode="Ļ" />
<glyph horiz-adv-x="600" d="" unicode="ļ" />
<glyph horiz-adv-x="1051" d="M 553 1176 C 578 1190 598 1202 614 1212 C 630 1222 642 1231 650 1240 C 658 1249 664 1259 667 1269 C 670 1279 672 1293 672 1309 L 553 1309 L 553 1575 L 825 1575 L 825 1333 C 825 1301 822 1272 818 1248 C 814 1224 804 1201 790 1181 C 776 1160 755 1140 727 1121 C 699 1102 662 1082 616 1061 L 553 1176 Z M 119 1518 L 440 1518 L 440 287 L 1030 287 L 1030 0 L 119 0 L 119 1518 Z" unicode="Ľ" />
<glyph horiz-adv-x="772" d="M 514 1176 C 539 1190 559 1202 575 1212 C 591 1222 603 1231 611 1240 C 619 1249 625 1259 628 1269 C 631 1279 633 1293 633 1309 L 514 1309 L 514 1575 L 786 1575 L 786 1333 C 786 1301 783 1272 779 1248 C 775 1224 765 1201 751 1181 C 736 1160 715 1140 688 1121 C 660 1102 624 1082 578 1061 L 514 1176 Z M 537 0 C 530 -1 518 -2 500 -3 C 482 -3 456 -4 424 -4 C 370 -4 324 0 284 10 C 244 20 211 37 185 62 C 158 87 138 121 125 165 C 112 208 106 263 106 330 L 106 1575 L 416 1575 L 416 373 C 416 351 417 333 419 319 C 421 305 426 295 434 287 C 442 279 454 274 470 272 C 486 269 509 268 537 268 L 537 0 Z" unicode="ľ" />
<glyph horiz-adv-x="1176" d="" unicode="Ŀ" />
<glyph horiz-adv-x="1034" d="" unicode="ŀ" />
<glyph horiz-adv-x="1051" d="M 0 815 L 119 883 L 119 1518 L 440 1518 L 440 1065 L 653 1188 L 653 930 L 440 807 L 440 287 L 1030 287 L 1030 0 L 119 0 L 119 623 L 0 555 L 0 815 Z" unicode="Ł" />
<glyph horiz-adv-x="723" d="M 41 967 L 188 1051 L 188 1575 L 498 1575 L 498 1231 L 659 1325 L 659 1055 L 498 961 L 498 373 C 498 351 499 333 501 319 C 503 305 508 295 516 287 C 524 279 536 274 552 272 C 568 269 590 268 618 268 L 618 0 C 612 -1 600 -2 582 -3 C 564 -3 538 -4 506 -4 C 452 -4 406 0 366 10 C 326 20 293 37 267 62 C 240 87 220 121 207 165 C 194 208 188 263 188 330 L 188 780 L 41 696 L 41 967 Z" unicode="ł" />
<glyph horiz-adv-x="1378" d="M 723 1970 L 1065 1970 L 770 1595 L 506 1595 L 723 1970 Z M 119 1518 L 459 1518 L 956 643 L 956 1518 L 1262 1518 L 1262 0 L 967 0 L 424 946 L 424 0 L 119 0 L 119 1518 Z" unicode="Ń" />
<glyph horiz-adv-x="1151" d="M 608 1645 L 950 1645 L 655 1270 L 391 1270 L 608 1645 Z M 98 1143 L 346 1163 L 369 1071 C 383 1088 399 1103 419 1117 C 439 1131 463 1142 491 1152 C 519 1162 551 1169 589 1174 C 627 1179 671 1182 721 1182 C 792 1182 850 1171 894 1150 C 938 1128 973 1099 998 1061 C 1022 1023 1039 979 1048 927 C 1056 875 1061 820 1061 760 L 1061 0 L 750 0 L 750 682 C 750 716 748 745 745 771 C 742 797 735 818 725 835 C 714 852 699 865 679 874 C 659 882 633 887 600 887 C 558 887 525 882 500 872 C 474 862 455 846 441 826 C 427 805 418 779 414 748 C 410 717 408 681 408 639 L 408 0 L 98 0 L 98 1143 Z" unicode="ń" />
<glyph horiz-adv-x="1378" d="" unicode="Ņ" />
<glyph horiz-adv-x="1151" d="" unicode="ņ" />
<glyph horiz-adv-x="1378" d="M 322 1970 L 567 1970 L 690 1808 L 813 1970 L 1055 1970 L 829 1595 L 545 1595 L 322 1970 Z M 119 1518 L 459 1518 L 956 643 L 956 1518 L 1262 1518 L 1262 0 L 967 0 L 424 946 L 424 0 L 119 0 L 119 1518 Z" unicode="Ň" />
<glyph horiz-adv-x="1151" d="M 207 1645 L 453 1645 L 575 1483 L 698 1645 L 940 1645 L 715 1270 L 430 1270 L 207 1645 Z M 98 1143 L 346 1163 L 369 1071 C 383 1088 399 1103 419 1117 C 439 1131 463 1142 491 1152 C 519 1162 551 1169 589 1174 C 627 1179 671 1182 721 1182 C 792 1182 850 1171 894 1150 C 938 1128 973 1099 998 1061 C 1022 1023 1039 979 1048 927 C 1056 875 1061 820 1061 760 L 1061 0 L 750 0 L 750 682 C 750 716 748 745 745 771 C 742 797 735 818 725 835 C 714 852 699 865 679 874 C 659 882 633 887 600 887 C 558 887 525 882 500 872 C 474 862 455 846 441 826 C 427 805 418 779 414 748 C 410 717 408 681 408 639 L 408 0 L 98 0 L 98 1143 Z" unicode="ň" />
<glyph horiz-adv-x="1583" d="" unicode="ŉ" />
<glyph horiz-adv-x="1378" d="" unicode="Ŋ" />
<glyph horiz-adv-x="1151" d="" unicode="ŋ" />
<glyph horiz-adv-x="1368" d="" unicode="Ō" />
<glyph horiz-adv-x="1128" d="" unicode="ō" />
<glyph horiz-adv-x="1368" d="" unicode="Ŏ" />
<glyph horiz-adv-x="1128" d="" unicode="ŏ" />
<glyph horiz-adv-x="1368" d="M 532 1970 L 850 1970 L 563 1595 L 326 1595 L 532 1970 Z M 956 1970 L 1272 1970 L 985 1595 L 750 1595 L 956 1970 Z M 684 -18 C 593 -18 514 -8 448 11 C 382 30 325 57 279 92 C 233 126 195 167 166 215 C 136 263 113 315 97 373 C 81 431 70 492 64 557 C 58 622 55 689 55 758 C 55 826 58 893 64 959 C 70 1024 81 1085 97 1143 C 113 1201 136 1254 166 1302 C 195 1350 233 1391 279 1426 C 325 1460 382 1487 448 1507 C 514 1526 593 1536 684 1536 C 774 1536 853 1526 919 1507 C 985 1487 1042 1460 1088 1426 C 1134 1391 1172 1350 1202 1302 C 1231 1254 1254 1201 1270 1143 C 1286 1085 1298 1024 1304 959 C 1310 893 1313 826 1313 758 C 1313 689 1310 622 1304 557 C 1298 492 1286 431 1270 373 C 1254 315 1231 263 1202 215 C 1172 167 1134 126 1088 92 C 1042 57 985 30 919 11 C 853 -8 774 -18 684 -18 Z M 684 266 C 751 266 805 277 845 301 C 885 324 915 357 936 399 C 957 441 971 492 977 551 C 983 610 987 676 987 748 C 987 818 983 883 977 942 C 971 1001 957 1052 936 1094 C 915 1136 885 1168 845 1192 C 805 1215 751 1227 684 1227 C 616 1227 563 1215 523 1192 C 483 1168 452 1136 431 1094 C 410 1052 396 1001 390 942 C 384 883 381 818 381 748 C 381 676 384 610 390 551 C 396 492 410 441 431 399 C 452 357 483 324 523 301 C 563 277 616 266 684 266 Z" unicode="Ő" />
<glyph horiz-adv-x="1128" d="M 412 1645 L 729 1645 L 442 1270 L 205 1270 L 412 1645 Z M 836 1645 L 1151 1645 L 864 1270 L 629 1270 L 836 1645 Z M 565 -18 C 463 -18 379 -3 313 24 C 247 52 194 93 156 145 C 118 197 91 261 76 335 C 60 409 53 492 53 584 C 53 674 60 756 75 830 C 89 904 116 967 154 1019 C 192 1071 245 1111 311 1139 C 377 1167 462 1182 565 1182 C 668 1182 753 1167 819 1139 C 885 1110 937 1069 975 1017 C 1013 965 1039 902 1053 828 C 1067 754 1075 673 1075 584 C 1075 490 1067 406 1053 332 C 1039 258 1013 195 975 143 C 937 91 885 51 819 23 C 753 -4 668 -18 565 -18 Z M 565 252 C 609 252 645 259 671 274 C 697 288 717 309 731 337 C 745 365 754 398 758 438 C 762 478 764 523 764 573 C 764 623 762 668 758 708 C 754 748 745 781 731 809 C 717 836 697 857 671 871 C 645 885 609 893 565 893 C 520 893 485 885 459 871 C 433 857 413 836 399 809 C 385 781 377 748 373 708 C 369 668 367 623 367 573 C 367 523 369 478 373 438 C 377 398 385 365 399 337 C 413 309 433 288 459 274 C 485 259 520 252 565 252 Z" unicode="ő" />
<glyph horiz-adv-x="2013" d="M 1022 63 C 980 37 932 17 876 3 C 820 -10 756 -18 684 -18 C 593 -18 514 -8 448 11 C 382 30 325 57 279 92 C 233 126 195 167 166 215 C 136 263 113 315 97 373 C 81 431 70 492 64 557 C 58 622 55 689 55 758 C 55 826 58 893 64 959 C 70 1024 81 1085 97 1143 C 113 1201 136 1254 166 1302 C 195 1350 233 1391 279 1426 C 325 1460 382 1487 448 1507 C 514 1526 593 1536 684 1536 C 756 1536 820 1528 876 1514 C 932 1499 980 1478 1022 1452 L 1022 1518 L 1927 1518 L 1927 1225 L 1305 1225 L 1305 918 L 1898 918 L 1898 631 L 1305 631 L 1305 287 L 1927 287 L 1927 0 L 1022 0 L 1022 63 Z M 684 266 C 751 266 805 277 845 301 C 885 324 915 357 936 399 C 957 441 971 492 977 551 C 983 610 987 676 987 748 C 987 818 983 883 977 942 C 971 1001 957 1052 936 1094 C 915 1136 885 1168 845 1192 C 805 1215 751 1227 684 1227 C 616 1227 563 1215 523 1192 C 483 1168 452 1136 431 1094 C 410 1052 396 1001 390 942 C 384 883 381 818 381 748 C 381 676 384 610 390 551 C 396 492 410 441 431 399 C 452 357 483 324 523 301 C 563 277 616 266 684 266 Z" unicode="Œ" />
<glyph horiz-adv-x="1776" d="M 565 -18 C 463 -18 379 -3 313 24 C 247 52 194 93 156 145 C 118 197 91 261 76 335 C 60 409 53 492 53 584 C 53 674 60 756 75 830 C 89 904 116 967 154 1019 C 192 1071 245 1111 311 1139 C 377 1167 462 1182 565 1182 C 650 1182 722 1171 780 1149 C 838 1127 886 1097 924 1059 C 962 1098 1009 1128 1066 1150 C 1122 1171 1192 1182 1276 1182 C 1352 1182 1416 1173 1468 1156 C 1520 1138 1562 1114 1595 1082 C 1627 1050 1652 1012 1669 968 C 1686 923 1698 873 1705 819 C 1712 764 1715 705 1715 641 C 1715 577 1714 511 1714 442 L 1075 442 C 1077 408 1083 378 1091 354 C 1099 330 1110 310 1126 294 C 1142 278 1162 267 1188 260 C 1213 253 1245 250 1284 250 C 1322 250 1356 251 1386 255 C 1416 259 1443 264 1467 270 C 1491 276 1512 284 1532 292 C 1552 300 1571 308 1589 317 L 1706 82 C 1678 67 1649 54 1619 42 C 1588 30 1555 19 1519 11 C 1483 3 1444 -3 1403 -7 C 1361 -11 1316 -14 1268 -14 C 1184 -14 1114 -4 1058 15 C 1002 34 956 62 920 98 C 882 61 835 32 778 12 C 720 -7 649 -18 565 -18 Z M 565 252 C 609 252 645 259 671 274 C 697 288 717 309 731 337 C 745 365 754 398 758 438 C 762 478 764 523 764 573 C 764 623 762 668 758 708 C 754 748 745 781 731 809 C 717 836 697 857 671 871 C 645 885 609 893 565 893 C 520 893 485 885 459 871 C 433 857 413 836 399 809 C 385 781 377 748 373 708 C 369 668 367 623 367 573 C 367 523 369 478 373 438 C 377 398 385 365 399 337 C 413 309 433 288 459 274 C 485 259 520 252 565 252 Z M 1270 911 C 1231 911 1199 906 1175 897 C 1150 887 1130 873 1116 855 C 1102 836 1091 812 1085 783 C 1079 754 1075 720 1073 682 L 1442 682 C 1440 720 1438 754 1435 783 C 1432 811 1425 835 1413 854 C 1401 873 1384 887 1362 897 C 1340 906 1309 911 1270 911 Z" unicode="œ" />
<glyph horiz-adv-x="1278" d="M 674 1970 L 1016 1970 L 721 1595 L 457 1595 L 674 1970 Z M 635 508 L 434 508 L 434 0 L 119 0 L 119 1518 L 698 1518 C 789 1518 866 1507 930 1485 C 993 1463 1044 1432 1084 1391 C 1124 1349 1153 1299 1171 1239 C 1189 1179 1198 1110 1198 1034 C 1198 978 1193 925 1184 876 C 1174 826 1159 781 1139 740 C 1119 698 1092 662 1060 630 C 1028 598 989 573 944 553 L 1188 0 L 852 0 L 635 508 Z M 690 788 C 724 788 754 792 779 800 C 803 808 823 821 839 839 C 855 857 866 880 874 908 C 881 936 885 971 885 1012 C 885 1052 881 1087 874 1116 C 866 1144 855 1167 839 1185 C 823 1202 803 1215 779 1223 C 754 1231 724 1235 690 1235 L 434 1235 L 434 788 L 690 788 Z" unicode="Ŕ" />
<glyph horiz-adv-x="707" d="M 389 1645 L 731 1645 L 436 1270 L 172 1270 L 389 1645 Z M 98 1143 L 344 1163 L 371 1055 C 383 1071 398 1087 416 1101 C 433 1115 454 1128 480 1138 C 505 1148 535 1156 570 1162 C 605 1168 646 1171 694 1171 L 694 879 C 627 878 575 870 537 855 C 499 839 471 818 452 792 C 433 765 421 734 417 698 C 412 662 410 623 410 582 L 410 0 L 98 0 L 98 1143 Z" unicode="ŕ" />
<glyph horiz-adv-x="1278" d="" unicode="Ŗ" />
<glyph horiz-adv-x="707" d="" unicode="ŗ" />
<glyph horiz-adv-x="1278" d="M 272 1970 L 518 1970 L 641 1808 L 764 1970 L 1006 1970 L 780 1595 L 496 1595 L 272 1970 Z M 635 508 L 434 508 L 434 0 L 119 0 L 119 1518 L 698 1518 C 789 1518 866 1507 930 1485 C 993 1463 1044 1432 1084 1391 C 1124 1349 1153 1299 1171 1239 C 1189 1179 1198 1110 1198 1034 C 1198 978 1193 925 1184 876 C 1174 826 1159 781 1139 740 C 1119 698 1092 662 1060 630 C 1028 598 989 573 944 553 L 1188 0 L 852 0 L 635 508 Z M 690 788 C 724 788 754 792 779 800 C 803 808 823 821 839 839 C 855 857 866 880 874 908 C 881 936 885 971 885 1012 C 885 1052 881 1087 874 1116 C 866 1144 855 1167 839 1185 C 823 1202 803 1215 779 1223 C 754 1231 724 1235 690 1235 L 434 1235 L 434 788 L 690 788 Z" unicode="Ř" />
<glyph horiz-adv-x="707" d="M -12 1645 L 233 1645 L 356 1483 L 479 1645 L 721 1645 L 496 1270 L 211 1270 L -12 1645 Z M 98 1143 L 344 1163 L 371 1055 C 383 1071 398 1087 416 1101 C 433 1115 454 1128 480 1138 C 505 1148 535 1156 570 1162 C 605 1168 646 1171 694 1171 L 694 879 C 627 878 575 870 537 855 C 499 839 471 818 452 792 C 433 765 421 734 417 698 C 412 662 410 623 410 582 L 410 0 L 98 0 L 98 1143 Z" unicode="ř" />
<glyph horiz-adv-x="1194" d="M 631 1970 L 973 1970 L 678 1595 L 414 1595 L 631 1970 Z M 600 -18 C 473 -18 363 -6 270 16 C 176 39 95 73 27 119 L 188 365 C 208 351 233 338 261 325 C 289 312 321 300 355 290 C 389 280 425 271 465 265 C 505 259 547 256 592 256 C 635 256 671 259 701 266 C 731 272 755 282 773 296 C 791 309 803 325 811 345 C 819 364 823 386 823 412 C 823 445 818 472 808 493 C 798 514 781 532 757 548 C 733 564 700 579 660 593 C 619 607 568 623 506 643 C 436 664 375 688 323 714 C 271 740 229 770 195 805 C 161 840 135 881 119 927 C 102 973 94 1028 94 1090 C 94 1164 105 1228 129 1284 C 152 1340 186 1386 230 1424 C 274 1461 329 1489 394 1508 C 459 1526 534 1536 618 1536 C 670 1536 718 1533 762 1529 C 806 1525 846 1518 884 1510 C 922 1502 957 1492 989 1480 C 1021 1468 1053 1456 1083 1442 L 944 1167 C 908 1184 864 1200 812 1214 C 760 1228 699 1235 627 1235 C 549 1235 493 1224 459 1203 C 425 1182 408 1148 408 1100 C 408 1074 412 1052 420 1035 C 428 1017 441 1002 460 989 C 478 975 503 963 534 951 C 565 939 603 925 649 911 C 709 891 763 873 811 855 C 858 837 900 818 936 798 C 972 778 1002 756 1028 732 C 1053 708 1073 682 1089 652 C 1105 622 1116 587 1124 549 C 1131 511 1135 467 1135 418 C 1135 350 1124 290 1103 236 C 1082 182 1050 137 1006 99 C 962 61 907 32 840 12 C 772 -7 692 -18 600 -18 Z" unicode="Ś" />
<glyph horiz-adv-x="930" d="M 502 1645 L 844 1645 L 549 1270 L 285 1270 L 502 1645 Z M 473 -14 C 387 -14 305 -7 226 5 C 146 17 76 40 16 72 L 135 311 C 155 301 179 291 205 282 C 231 272 258 264 287 258 C 316 251 346 246 378 242 C 409 238 441 236 473 236 C 517 236 549 243 570 257 C 591 271 602 294 602 326 C 602 342 599 356 593 368 C 587 380 575 391 559 401 C 542 411 519 422 490 433 C 461 444 423 457 377 473 C 324 491 278 509 238 528 C 198 547 165 570 139 596 C 112 622 92 653 79 690 C 65 726 59 771 59 825 C 59 891 69 946 91 992 C 112 1038 142 1075 180 1103 C 218 1131 264 1151 318 1163 C 371 1175 430 1182 494 1182 C 535 1182 572 1180 605 1178 C 638 1176 669 1172 697 1167 C 725 1162 751 1156 777 1148 C 802 1140 828 1130 854 1120 L 735 864 C 700 878 661 890 618 899 C 575 908 529 913 481 913 C 455 913 434 911 418 908 C 402 904 389 899 380 893 C 370 886 364 877 360 867 C 356 857 354 845 354 831 C 354 817 356 804 362 794 C 368 784 378 774 393 765 C 407 755 428 745 454 735 C 480 725 513 713 555 700 C 613 681 663 662 705 642 C 747 622 782 599 810 572 C 838 544 858 511 871 473 C 884 434 891 386 891 330 C 891 270 881 218 863 175 C 845 131 818 96 782 68 C 746 40 703 19 651 6 C 599 -7 539 -14 473 -14 Z" unicode="ś" />
<glyph horiz-adv-x="1194" d="" unicode="Ŝ" />
<glyph horiz-adv-x="930" d="" unicode="ŝ" />
<glyph horiz-adv-x="1194" d="M 608 -498 C 564 -498 521 -493 481 -484 C 441 -474 403 -461 367 -444 L 432 -301 C 462 -312 489 -320 514 -325 C 539 -329 563 -332 586 -332 C 626 -332 653 -326 667 -314 C 681 -302 688 -282 688 -254 C 688 -237 685 -224 680 -214 C 674 -204 666 -196 654 -192 C 642 -187 627 -184 609 -184 C 590 -184 567 -184 541 -186 L 487 -147 L 514 -16 C 408 -10 316 3 237 25 C 157 47 87 79 27 119 L 188 365 C 208 351 233 338 261 325 C 289 312 321 300 355 290 C 389 280 425 271 465 265 C 505 259 547 256 592 256 C 635 256 671 259 701 266 C 731 272 755 282 773 296 C 791 309 803 325 811 345 C 819 364 823 386 823 412 C 823 445 818 472 808 493 C 798 514 781 532 757 548 C 733 564 700 579 660 593 C 619 607 568 623 506 643 C 436 664 375 688 323 714 C 271 740 229 770 195 805 C 161 840 135 881 119 927 C 102 973 94 1028 94 1090 C 94 1164 105 1228 129 1284 C 152 1340 186 1386 230 1424 C 274 1461 329 1489 394 1508 C 459 1526 534 1536 618 1536 C 670 1536 718 1533 762 1529 C 806 1525 846 1518 884 1510 C 922 1502 957 1492 989 1480 C 1021 1468 1053 1456 1083 1442 L 944 1167 C 908 1184 864 1200 812 1214 C 760 1228 699 1235 627 1235 C 549 1235 493 1224 459 1203 C 425 1182 408 1148 408 1100 C 408 1074 412 1052 420 1035 C 428 1017 441 1002 460 989 C 478 975 503 963 534 951 C 565 939 603 925 649 911 C 709 891 763 873 811 855 C 858 837 900 818 936 798 C 972 778 1002 756 1028 732 C 1053 708 1073 682 1089 652 C 1105 622 1116 587 1124 549 C 1131 511 1135 467 1135 418 C 1135 356 1126 299 1108 249 C 1090 198 1062 154 1025 117 C 988 80 941 50 884 28 C 827 5 760 -8 682 -14 L 670 -86 C 702 -84 731 -85 757 -89 C 783 -93 806 -103 826 -117 C 845 -131 860 -151 871 -177 C 881 -203 887 -236 887 -276 C 887 -315 882 -349 872 -377 C 862 -405 845 -428 823 -446 C 801 -464 772 -477 737 -485 C 701 -493 658 -498 608 -498 Z" unicode="Ş" />
<glyph horiz-adv-x="930" d="M 479 -498 C 435 -498 392 -493 352 -484 C 312 -474 274 -461 238 -444 L 303 -301 C 333 -312 360 -320 385 -325 C 410 -329 434 -332 457 -332 C 497 -332 524 -326 538 -314 C 552 -302 559 -282 559 -254 C 559 -237 556 -224 551 -214 C 545 -204 537 -196 525 -192 C 513 -187 498 -184 480 -184 C 461 -184 438 -184 412 -186 L 358 -147 L 385 -12 C 315 -8 248 0 186 12 C 123 24 66 44 16 72 L 135 311 C 155 301 179 291 205 282 C 231 272 258 264 287 258 C 316 251 346 246 378 242 C 409 238 441 236 473 236 C 517 236 549 243 570 257 C 591 271 602 294 602 326 C 602 342 599 356 593 368 C 587 380 575 391 559 401 C 542 411 519 422 490 433 C 461 444 423 457 377 473 C 324 491 278 509 238 528 C 198 547 165 570 139 596 C 112 622 92 653 79 690 C 65 726 59 771 59 825 C 59 891 69 946 91 992 C 112 1038 142 1075 180 1103 C 218 1131 264 1151 318 1163 C 371 1175 430 1182 494 1182 C 535 1182 572 1180 605 1178 C 638 1176 669 1172 697 1167 C 725 1162 751 1156 777 1148 C 802 1140 828 1130 854 1120 L 735 864 C 700 878 661 890 618 899 C 575 908 529 913 481 913 C 455 913 434 911 418 908 C 402 904 389 899 380 893 C 370 886 364 877 360 867 C 356 857 354 845 354 831 C 354 817 356 804 362 794 C 368 784 378 774 393 765 C 407 755 428 745 454 735 C 480 725 513 713 555 700 C 613 681 663 662 705 642 C 747 622 782 599 810 572 C 838 544 858 511 871 473 C 884 434 891 386 891 330 C 891 222 861 141 803 86 C 745 30 661 -1 553 -10 L 541 -86 C 573 -84 602 -85 628 -89 C 654 -93 677 -103 697 -117 C 716 -131 731 -151 742 -177 C 752 -203 758 -236 758 -276 C 758 -315 753 -349 743 -377 C 733 -405 716 -428 694 -446 C 672 -464 643 -477 608 -485 C 572 -493 529 -498 479 -498 Z" unicode="ş" />
<glyph horiz-adv-x="1194" d="M 229 1970 L 475 1970 L 598 1808 L 721 1970 L 963 1970 L 737 1595 L 453 1595 L 229 1970 Z M 600 -18 C 473 -18 363 -6 270 16 C 176 39 95 73 27 119 L 188 365 C 208 351 233 338 261 325 C 289 312 321 300 355 290 C 389 280 425 271 465 265 C 505 259 547 256 592 256 C 635 256 671 259 701 266 C 731 272 755 282 773 296 C 791 309 803 325 811 345 C 819 364 823 386 823 412 C 823 445 818 472 808 493 C 798 514 781 532 757 548 C 733 564 700 579 660 593 C 619 607 568 623 506 643 C 436 664 375 688 323 714 C 271 740 229 770 195 805 C 161 840 135 881 119 927 C 102 973 94 1028 94 1090 C 94 1164 105 1228 129 1284 C 152 1340 186 1386 230 1424 C 274 1461 329 1489 394 1508 C 459 1526 534 1536 618 1536 C 670 1536 718 1533 762 1529 C 806 1525 846 1518 884 1510 C 922 1502 957 1492 989 1480 C 1021 1468 1053 1456 1083 1442 L 944 1167 C 908 1184 864 1200 812 1214 C 760 1228 699 1235 627 1235 C 549 1235 493 1224 459 1203 C 425 1182 408 1148 408 1100 C 408 1074 412 1052 420 1035 C 428 1017 441 1002 460 989 C 478 975 503 963 534 951 C 565 939 603 925 649 911 C 709 891 763 873 811 855 C 858 837 900 818 936 798 C 972 778 1002 756 1028 732 C 1053 708 1073 682 1089 652 C 1105 622 1116 587 1124 549 C 1131 511 1135 467 1135 418 C 1135 350 1124 290 1103 236 C 1082 182 1050 137 1006 99 C 962 61 907 32 840 12 C 772 -7 692 -18 600 -18 Z" unicode="Š" />
<glyph horiz-adv-x="930" d="M 100 1645 L 346 1645 L 469 1483 L 592 1645 L 834 1645 L 608 1270 L 324 1270 L 100 1645 Z M 473 -14 C 387 -14 305 -7 226 5 C 146 17 76 40 16 72 L 135 311 C 155 301 179 291 205 282 C 231 272 258 264 287 258 C 316 251 346 246 378 242 C 409 238 441 236 473 236 C 517 236 549 243 570 257 C 591 271 602 294 602 326 C 602 342 599 356 593 368 C 587 380 575 391 559 401 C 542 411 519 422 490 433 C 461 444 423 457 377 473 C 324 491 278 509 238 528 C 198 547 165 570 139 596 C 112 622 92 653 79 690 C 65 726 59 771 59 825 C 59 891 69 946 91 992 C 112 1038 142 1075 180 1103 C 218 1131 264 1151 318 1163 C 371 1175 430 1182 494 1182 C 535 1182 572 1180 605 1178 C 638 1176 669 1172 697 1167 C 725 1162 751 1156 777 1148 C 802 1140 828 1130 854 1120 L 735 864 C 700 878 661 890 618 899 C 575 908 529 913 481 913 C 455 913 434 911 418 908 C 402 904 389 899 380 893 C 370 886 364 877 360 867 C 356 857 354 845 354 831 C 354 817 356 804 362 794 C 368 784 378 774 393 765 C 407 755 428 745 454 735 C 480 725 513 713 555 700 C 613 681 663 662 705 642 C 747 622 782 599 810 572 C 838 544 858 511 871 473 C 884 434 891 386 891 330 C 891 270 881 218 863 175 C 845 131 818 96 782 68 C 746 40 703 19 651 6 C 599 -7 539 -14 473 -14 Z" unicode="š" />
<glyph horiz-adv-x="1186" d="M 455 -471 C 481 -457 501 -445 517 -435 C 533 -425 545 -415 554 -406 C 562 -397 568 -387 571 -377 C 573 -367 575 -354 575 -338 L 457 -338 L 457 -72 L 727 -72 L 727 -313 C 727 -345 724 -374 720 -399 C 716 -423 706 -446 692 -467 C 678 -487 657 -507 630 -526 C 602 -545 566 -566 520 -588 L 455 -471 Z M 430 1225 L 23 1225 L 23 1518 L 1163 1518 L 1163 1225 L 754 1225 L 754 0 L 430 0 L 430 1225 Z" unicode="Ţ" />
<glyph horiz-adv-x="850" d="M 244 -471 C 270 -457 291 -445 307 -435 C 323 -425 335 -415 343 -406 C 351 -397 357 -387 360 -377 C 363 -367 365 -354 365 -338 L 246 -338 L 246 -72 L 516 -72 L 516 -313 C 516 -345 513 -374 509 -399 C 505 -423 495 -446 481 -467 C 467 -487 446 -507 419 -526 C 391 -545 355 -566 309 -588 L 244 -471 Z M 25 1161 L 221 1161 L 268 1421 L 514 1477 L 514 1161 L 778 1161 L 778 891 L 514 891 L 514 391 C 514 370 515 352 517 337 C 519 321 525 308 534 298 C 543 288 556 280 574 275 C 591 270 615 268 645 268 L 778 268 L 778 0 C 764 -1 750 -2 735 -3 C 719 -4 704 -5 689 -6 C 673 -7 658 -8 644 -9 C 630 -9 617 -10 606 -10 C 528 -10 463 -3 412 10 C 360 23 319 44 289 73 C 259 102 237 140 225 186 C 213 232 207 288 207 354 L 207 891 L 25 891 L 25 1161 Z" unicode="ţ" />
<glyph horiz-adv-x="1186" d="M 225 1970 L 471 1970 L 594 1808 L 717 1970 L 958 1970 L 733 1595 L 449 1595 L 225 1970 Z M 430 1225 L 23 1225 L 23 1518 L 1163 1518 L 1163 1225 L 754 1225 L 754 0 L 430 0 L 430 1225 Z" unicode="Ť" />
<glyph horiz-adv-x="850" d="M 606 1386 C 632 1400 652 1413 668 1423 C 683 1433 695 1443 704 1452 C 712 1461 718 1471 721 1481 C 723 1491 725 1504 725 1520 L 606 1520 L 606 1786 L 879 1786 L 879 1546 C 879 1513 876 1484 872 1460 C 867 1436 857 1413 843 1393 C 829 1372 808 1352 780 1333 C 752 1314 716 1294 670 1272 L 606 1386 Z M 25 1161 L 221 1161 L 268 1421 L 514 1477 L 514 1161 L 778 1161 L 778 891 L 514 891 L 514 391 C 514 370 515 352 517 337 C 519 321 525 308 534 298 C 543 288 556 280 574 275 C 591 270 615 268 645 268 L 778 268 L 778 0 C 764 -1 750 -2 735 -3 C 719 -4 704 -5 689 -6 C 673 -7 658 -8 644 -9 C 630 -9 617 -10 606 -10 C 528 -10 463 -3 412 10 C 360 23 319 44 289 73 C 259 102 237 140 225 186 C 213 232 207 288 207 354 L 207 891 L 25 891 L 25 1161 Z" unicode="ť" />
<glyph horiz-adv-x="1186" d="" unicode="Ŧ" />
<glyph horiz-adv-x="850" d="" unicode="ŧ" />
<glyph horiz-adv-x="1368" d="" unicode="Ũ" />
<glyph horiz-adv-x="1130" d="" unicode="ũ" />
<glyph horiz-adv-x="1368" d="" unicode="Ū" />
<glyph horiz-adv-x="1130" d="" unicode="ū" />
<glyph horiz-adv-x="1368" d="" unicode="Ŭ" />
<glyph horiz-adv-x="1130" d="" unicode="ŭ" />
<glyph horiz-adv-x="1368" d="M 680 1577 C 633 1577 594 1584 562 1598 C 530 1612 504 1631 484 1656 C 464 1680 449 1709 441 1743 C 432 1776 428 1812 428 1851 C 428 1890 432 1927 441 1961 C 449 1995 464 2024 484 2049 C 504 2074 530 2094 562 2108 C 594 2122 633 2130 680 2130 C 725 2130 764 2122 796 2108 C 828 2094 855 2074 875 2049 C 895 2024 910 1995 920 1961 C 929 1927 934 1890 934 1851 C 934 1812 929 1776 920 1743 C 910 1709 895 1680 875 1656 C 855 1631 828 1612 796 1598 C 764 1584 725 1577 680 1577 Z M 680 1724 C 700 1724 716 1727 729 1733 C 742 1739 752 1748 760 1759 C 767 1770 772 1783 775 1799 C 778 1815 780 1832 780 1851 C 780 1869 778 1887 775 1903 C 772 1919 767 1932 760 1944 C 752 1955 742 1964 729 1970 C 716 1976 700 1980 680 1980 C 660 1980 644 1976 631 1970 C 618 1964 608 1955 600 1944 C 592 1932 587 1919 584 1903 C 581 1887 580 1869 580 1851 C 580 1832 581 1815 584 1799 C 587 1783 592 1770 600 1759 C 608 1748 618 1739 631 1733 C 644 1727 660 1724 680 1724 Z M 684 -23 C 576 -23 485 -11 412 13 C 338 37 279 72 234 119 C 189 166 157 224 138 293 C 118 362 109 442 109 532 L 109 1518 L 430 1518 L 430 563 C 430 511 433 466 441 429 C 448 391 461 361 480 337 C 499 313 525 295 559 283 C 593 271 636 266 688 266 C 739 266 781 271 815 282 C 848 293 874 310 894 334 C 914 358 928 388 936 426 C 944 464 948 509 948 563 L 948 1518 L 1260 1518 L 1260 532 C 1260 442 1250 362 1231 293 C 1212 224 1180 166 1136 119 C 1091 72 1032 37 958 13 C 884 -11 793 -23 684 -23 Z" unicode="Ů" />
<glyph horiz-adv-x="1130" d="M 563 1251 C 516 1251 477 1258 445 1272 C 413 1286 387 1305 367 1330 C 347 1354 332 1383 324 1417 C 315 1450 311 1486 311 1526 C 311 1565 315 1601 324 1635 C 332 1669 347 1698 367 1723 C 387 1748 413 1768 445 1782 C 477 1796 516 1804 563 1804 C 608 1804 647 1796 679 1782 C 711 1768 738 1748 758 1723 C 778 1698 793 1669 803 1635 C 812 1601 817 1565 817 1526 C 817 1486 812 1450 803 1417 C 793 1383 778 1354 758 1330 C 738 1305 711 1286 679 1272 C 647 1258 608 1251 563 1251 Z M 563 1399 C 583 1399 599 1402 612 1408 C 625 1414 635 1422 643 1434 C 651 1445 656 1458 659 1474 C 662 1489 664 1506 664 1526 C 664 1544 662 1562 659 1578 C 656 1594 651 1607 643 1619 C 635 1630 625 1639 612 1645 C 599 1651 583 1655 563 1655 C 543 1655 527 1651 514 1645 C 501 1639 491 1630 483 1619 C 475 1607 470 1594 467 1578 C 464 1562 463 1544 463 1526 C 463 1506 464 1489 467 1474 C 470 1458 475 1445 483 1434 C 491 1422 501 1414 514 1408 C 527 1402 543 1399 563 1399 Z M 565 -16 C 471 -16 393 -6 332 11 C 270 29 222 58 186 98 C 150 137 125 188 111 250 C 97 312 90 387 90 475 L 90 1161 L 401 1161 L 401 492 C 401 450 402 415 404 386 C 406 356 413 332 424 313 C 435 294 452 280 475 271 C 497 262 529 258 569 258 C 607 258 638 262 660 272 C 682 281 699 295 710 314 C 721 333 728 357 731 387 C 733 417 735 452 735 494 L 735 1161 L 1040 1161 L 1040 475 C 1040 387 1033 312 1020 250 C 1006 188 982 137 947 98 C 911 58 863 29 801 11 C 739 -6 661 -16 565 -16 Z" unicode="ů" />
<glyph horiz-adv-x="1368" d="M 684 -23 C 576 -23 485 -11 412 13 C 338 37 279 72 234 119 C 189 166 157 224 138 293 C 118 362 109 442 109 532 L 109 1518 L 430 1518 L 430 563 C 430 511 433 466 441 429 C 448 391 461 361 480 337 C 499 313 525 295 559 283 C 593 271 636 266 688 266 C 739 266 781 271 815 282 C 848 293 874 310 894 334 C 914 358 928 388 936 426 C 944 464 948 509 948 563 L 948 1518 L 1260 1518 L 1260 532 C 1260 442 1250 362 1231 293 C 1212 224 1180 166 1136 119 C 1091 72 1032 37 958 13 C 884 -11 793 -23 684 -23 Z M 530 1970 L 848 1970 L 561 1595 L 324 1595 L 530 1970 Z M 954 1970 L 1270 1970 L 983 1595 L 748 1595 L 954 1970 Z" unicode="Ű" />
<glyph horiz-adv-x="1130" d="M 565 -16 C 471 -16 393 -6 332 11 C 270 29 222 58 186 98 C 150 137 125 188 111 250 C 97 312 90 387 90 475 L 90 1161 L 401 1161 L 401 492 C 401 450 402 415 404 386 C 406 356 413 332 424 313 C 435 294 452 280 475 271 C 497 262 529 258 569 258 C 607 258 638 262 660 272 C 682 281 699 295 710 314 C 721 333 728 357 731 387 C 733 417 735 452 735 494 L 735 1161 L 1040 1161 L 1040 475 C 1040 387 1033 312 1020 250 C 1006 188 982 137 947 98 C 911 58 863 29 801 11 C 739 -6 661 -16 565 -16 Z M 414 1645 L 731 1645 L 444 1270 L 207 1270 L 414 1645 Z M 838 1645 L 1153 1645 L 866 1270 L 631 1270 L 838 1645 Z" unicode="ű" />
<glyph horiz-adv-x="1368" d="" unicode="Ų" />
<glyph horiz-adv-x="1130" d="" unicode="ų" />
<glyph horiz-adv-x="1841" d="" unicode="Ŵ" />
<glyph horiz-adv-x="1559" d="" unicode="ŵ" />
<glyph horiz-adv-x="1282" d="" unicode="Ŷ" />
<glyph horiz-adv-x="1020" d="" unicode="ŷ" />
<glyph horiz-adv-x="1282" d="M 479 514 L -4 1518 L 338 1518 L 645 856 L 954 1518 L 1284 1518 L 799 510 L 799 0 L 479 0 L 479 514 Z M 303 1870 L 578 1870 L 578 1595 L 303 1595 L 303 1870 Z M 705 1870 L 977 1870 L 977 1595 L 705 1595 L 705 1870 Z" unicode="Ÿ" />
<glyph horiz-adv-x="1155" d="M 612 1970 L 954 1970 L 659 1595 L 395 1595 L 612 1970 Z M 47 242 L 702 1225 L 76 1225 L 76 1518 L 1085 1518 L 1085 1253 L 436 287 L 1104 287 L 1104 0 L 47 0 L 47 242 Z" unicode="Ź" />
<glyph horiz-adv-x="915" d="M 494 1645 L 836 1645 L 541 1270 L 276 1270 L 494 1645 Z M 25 205 L 487 891 L 53 891 L 53 1161 L 877 1161 L 877 952 L 410 252 L 895 252 L 895 0 L 25 0 L 25 205 Z" unicode="ź" />
<glyph horiz-adv-x="1155" d="M 47 242 L 702 1225 L 76 1225 L 76 1518 L 1085 1518 L 1085 1253 L 436 287 L 1104 287 L 1104 0 L 47 0 L 47 242 Z M 422 1876 L 733 1876 L 733 1595 L 422 1595 L 422 1876 Z" unicode="Ż" />
<glyph horiz-adv-x="915" d="M 25 205 L 487 891 L 53 891 L 53 1161 L 877 1161 L 877 952 L 410 252 L 895 252 L 895 0 L 25 0 L 25 205 Z M 303 1550 L 614 1550 L 614 1270 L 303 1270 L 303 1550 Z" unicode="ż" />
<glyph horiz-adv-x="1155" d="M 211 1970 L 457 1970 L 580 1808 L 702 1970 L 944 1970 L 719 1595 L 434 1595 L 211 1970 Z M 47 242 L 702 1225 L 76 1225 L 76 1518 L 1085 1518 L 1085 1253 L 436 287 L 1104 287 L 1104 0 L 47 0 L 47 242 Z" unicode="Ž" />
<glyph horiz-adv-x="915" d="M 92 1645 L 338 1645 L 461 1483 L 584 1645 L 825 1645 L 600 1270 L 315 1270 L 92 1645 Z M 25 205 L 487 891 L 53 891 L 53 1161 L 877 1161 L 877 952 L 410 252 L 895 252 L 895 0 L 25 0 L 25 205 Z" unicode="ž" />
<glyph horiz-adv-x="799" d="" unicode="ſ" />
<glyph horiz-adv-x="1038" d="M 133 942 L 336 942 L 369 1161 C 377 1217 389 1268 404 1312 C 419 1356 442 1394 472 1425 C 502 1455 541 1478 590 1494 C 638 1510 700 1518 776 1518 C 804 1518 828 1517 849 1516 C 870 1515 889 1514 907 1513 L 907 1245 L 805 1245 C 781 1245 761 1242 746 1237 C 731 1232 719 1225 711 1215 C 702 1205 695 1193 691 1178 C 686 1163 682 1146 680 1126 L 651 942 L 907 942 L 907 674 L 608 674 L 455 -324 L 145 -324 L 295 674 L 133 674 L 133 942 Z" unicode="ƒ" />
<glyph horiz-adv-x="977" d="M 698 1518 L 973 1518 L 276 0 L 2 0 L 698 1518 Z" unicode="⁄" />
<glyph horiz-adv-x="1382" d="" unicode="Ơ" />
<glyph horiz-adv-x="1180" d="" unicode="ơ" />
<glyph horiz-adv-x="2312" d="M 1804 561 C 1722 561 1654 572 1601 595 C 1547 618 1505 651 1474 693 C 1443 735 1421 787 1409 847 C 1397 907 1391 975 1391 1049 C 1391 1121 1397 1188 1409 1248 C 1421 1308 1442 1359 1473 1402 C 1504 1444 1546 1477 1600 1501 C 1653 1524 1721 1536 1804 1536 C 1888 1536 1957 1524 2011 1500 C 2065 1476 2107 1443 2138 1401 C 2169 1358 2190 1307 2202 1247 C 2214 1187 2220 1121 2220 1049 C 2220 973 2214 905 2202 845 C 2190 785 2169 734 2138 692 C 2107 650 2065 617 2011 595 C 1957 572 1888 561 1804 561 Z M 1804 782 C 1840 782 1869 787 1890 799 C 1911 811 1927 828 1938 850 C 1949 872 1956 900 1959 932 C 1962 964 1964 1001 1964 1042 C 1964 1082 1962 1119 1959 1151 C 1956 1183 1949 1210 1938 1232 C 1927 1254 1911 1270 1890 1282 C 1869 1294 1840 1300 1804 1300 C 1768 1300 1740 1294 1719 1282 C 1698 1270 1682 1254 1671 1232 C 1660 1210 1653 1183 1650 1151 C 1646 1119 1645 1082 1645 1042 C 1645 1001 1646 964 1650 932 C 1653 900 1660 872 1671 850 C 1682 828 1698 811 1719 799 C 1740 787 1768 782 1804 782 Z M 1425 463 L 2181 463 L 2181 242 L 1425 242 L 1425 463 Z M 119 1518 L 459 1518 L 956 643 L 956 1518 L 1262 1518 L 1262 0 L 967 0 L 424 946 L 424 0 L 119 0 L 119 1518 Z" unicode="№" />
<glyph horiz-adv-x="1438" d="" unicode="Ư" />
<glyph horiz-adv-x="1227" d="" unicode="ư" />
<glyph horiz-adv-x="1343" d="" unicode="Ǻ" />
<glyph horiz-adv-x="1116" d="" unicode="ǻ" />
<glyph horiz-adv-x="1925" d="" unicode="Ǽ" />
<glyph horiz-adv-x="1681" d="" unicode="ǽ" />
<glyph horiz-adv-x="1368" d="" unicode="Ǿ" />
<glyph horiz-adv-x="1128" d="" unicode="ǿ" />
<glyph horiz-adv-x="1133" d="" unicode="∂" />
<glyph horiz-adv-x="1343" d="M 500 1528 L 844 1528 L 1317 0 L 27 0 L 500 1528 Z M 911 274 L 668 1094 L 420 274 L 911 274 Z" unicode="∆" />
<glyph horiz-adv-x="1350" d="" unicode="∏" />
<glyph horiz-adv-x="1182" d="" unicode="∑" />
<glyph horiz-adv-x="1247" d="" unicode="−" />
<glyph horiz-adv-x="977" d="M 698 1518 L 973 1518 L 276 0 L 2 0 L 698 1518 Z" unicode="∕" />
<glyph horiz-adv-x="1194" d="" unicode="Ș" />
<glyph horiz-adv-x="930" d="" unicode="ș" />
<glyph horiz-adv-x="1186" d="M 455 -471 C 481 -457 501 -445 517 -435 C 533 -425 545 -415 554 -406 C 562 -397 568 -387 571 -377 C 573 -367 575 -354 575 -338 L 457 -338 L 457 -72 L 727 -72 L 727 -313 C 727 -345 724 -374 720 -399 C 716 -423 706 -446 692 -467 C 678 -487 657 -507 630 -526 C 602 -545 566 -566 520 -588 L 455 -471 Z M 430 1225 L 23 1225 L 23 1518 L 1163 1518 L 1163 1225 L 754 1225 L 754 0 L 430 0 L 430 1225 Z" unicode="Ț" />
<glyph horiz-adv-x="850" d="M 244 -471 C 270 -457 291 -445 307 -435 C 323 -425 335 -415 343 -406 C 351 -397 357 -387 360 -377 C 363 -367 365 -354 365 -338 L 246 -338 L 246 -72 L 516 -72 L 516 -313 C 516 -345 513 -374 509 -399 C 505 -423 495 -446 481 -467 C 467 -487 446 -507 419 -526 C 391 -545 355 -566 309 -588 L 244 -471 Z M 25 1161 L 221 1161 L 268 1421 L 514 1477 L 514 1161 L 778 1161 L 778 891 L 514 891 L 514 391 C 514 370 515 352 517 337 C 519 321 525 308 534 298 C 543 288 556 280 574 275 C 591 270 615 268 645 268 L 778 268 L 778 0 C 764 -1 750 -2 735 -3 C 719 -4 704 -5 689 -6 C 673 -7 658 -8 644 -9 C 630 -9 617 -10 606 -10 C 528 -10 463 -3 412 10 C 360 23 319 44 289 73 C 259 102 237 140 225 186 C 213 232 207 288 207 354 L 207 891 L 25 891 L 25 1161 Z" unicode="ț" />
<glyph horiz-adv-x="1456" d="" unicode="∞" />
<glyph horiz-adv-x="799" d="" unicode="∫" />
<glyph horiz-adv-x="1247" d="" unicode="≈" />
<glyph horiz-adv-x="1933" d="M 825 891 L 522 891 L 522 0 L 213 0 L 213 891 L 25 891 L 25 1161 L 213 1161 L 213 1255 C 213 1312 220 1363 236 1407 C 252 1451 276 1489 309 1519 C 342 1549 384 1572 435 1588 C 486 1604 547 1612 618 1612 C 640 1612 661 1612 682 1612 C 702 1612 717 1611 725 1610 L 725 1341 L 649 1341 C 621 1341 599 1338 583 1334 C 567 1329 554 1322 545 1312 C 535 1302 529 1289 526 1274 C 523 1259 522 1241 522 1221 L 522 1161 L 825 1161 L 825 1255 C 825 1312 832 1363 848 1407 C 864 1451 888 1489 922 1519 C 955 1549 997 1572 1049 1588 C 1100 1604 1161 1612 1233 1612 C 1253 1612 1274 1612 1295 1612 C 1315 1612 1329 1611 1337 1610 L 1337 1341 L 1262 1341 C 1235 1341 1213 1338 1197 1334 C 1180 1329 1167 1322 1158 1312 C 1149 1302 1143 1289 1140 1274 C 1136 1259 1135 1241 1135 1221 L 1135 1161 L 1337 1161 L 1337 891 L 1135 891 L 1135 0 L 825 0 L 825 891 Z M 1870 0 C 1864 -1 1851 -2 1833 -3 C 1815 -3 1789 -4 1755 -4 C 1702 -4 1656 0 1617 10 C 1577 20 1544 37 1518 62 C 1492 87 1472 121 1459 165 C 1446 208 1440 263 1440 330 L 1440 1575 L 1749 1575 L 1749 373 C 1749 351 1749 333 1751 319 C 1753 305 1758 295 1766 287 C 1774 279 1786 274 1802 272 C 1818 269 1841 268 1870 268 L 1870 0 Z" unicode="ﬄ" />
<glyph horiz-adv-x="1247" d="" unicode="≠" />
<glyph horiz-adv-x="1247" d="" unicode="≤" />
<glyph horiz-adv-x="1247" d="" unicode="≥" />
<glyph horiz-adv-x="1020" d="M 512 512 C 426 512 358 523 307 546 C 256 569 217 602 190 646 C 163 689 145 742 137 805 C 129 868 125 940 125 1020 C 125 1098 129 1168 137 1231 C 145 1294 162 1348 189 1392 C 215 1436 254 1470 305 1494 C 356 1518 425 1530 512 1530 C 596 1530 664 1518 715 1494 C 765 1470 804 1435 831 1391 C 857 1346 875 1292 883 1230 C 891 1167 895 1097 895 1020 C 895 938 891 866 883 803 C 875 740 857 687 831 644 C 804 601 765 568 715 546 C 664 523 596 512 512 512 Z M 512 731 C 541 731 564 735 582 745 C 599 754 612 770 621 792 C 630 814 636 844 639 881 C 641 918 643 964 643 1020 C 643 1075 641 1121 639 1157 C 636 1193 630 1222 621 1244 C 612 1266 599 1281 582 1290 C 564 1298 541 1303 512 1303 C 482 1303 458 1298 440 1290 C 422 1281 409 1266 400 1244 C 390 1222 384 1193 381 1157 C 378 1121 377 1075 377 1020 C 377 964 378 918 381 881 C 384 844 390 814 400 792 C 409 770 422 754 440 745 C 458 735 482 731 512 731 Z" unicode="⁰" />
<glyph horiz-adv-x="958" d="M 96 879 L 444 1518 L 696 1518 L 354 889 L 518 889 L 561 1104 L 745 1104 L 745 889 L 866 889 L 866 690 L 745 690 L 745 524 L 516 524 L 516 690 L 96 690 L 96 879 Z" unicode="⁴" />
<glyph horiz-adv-x="924" d="M 446 512 C 300 512 180 536 88 586 L 195 782 C 213 772 230 763 247 757 C 264 750 282 744 301 740 C 319 735 339 732 360 730 C 381 728 404 727 430 727 C 456 727 478 728 496 732 C 514 736 528 743 539 753 C 550 763 558 777 563 795 C 568 813 571 836 571 866 C 571 893 568 915 563 931 C 558 947 550 960 539 969 C 527 978 513 984 495 987 C 477 989 455 991 430 991 C 397 991 371 987 351 981 C 331 975 313 966 297 956 L 129 1004 L 156 1518 L 768 1518 L 768 1305 L 365 1305 L 356 1159 C 364 1165 372 1170 381 1175 C 390 1180 401 1184 414 1188 C 427 1191 442 1193 460 1195 C 478 1197 499 1198 524 1198 C 576 1198 620 1192 658 1181 C 695 1170 725 1152 749 1126 C 772 1100 789 1065 800 1022 C 811 978 817 924 817 860 C 817 786 808 726 791 680 C 773 634 749 599 717 574 C 685 549 646 532 600 524 C 554 516 502 512 446 512 Z" unicode="⁵" />
<glyph horiz-adv-x="985" d="M 510 512 C 426 512 359 522 308 543 C 257 563 218 593 190 631 C 162 669 144 716 135 771 C 125 825 121 887 121 956 C 121 1022 123 1081 127 1135 C 131 1189 140 1236 152 1278 C 164 1320 182 1356 204 1386 C 226 1416 255 1440 291 1460 C 327 1480 371 1494 423 1504 C 475 1513 536 1518 608 1518 L 745 1518 L 745 1309 L 598 1309 C 550 1309 512 1306 482 1301 C 452 1295 428 1286 411 1274 C 393 1262 381 1246 374 1226 C 366 1206 362 1181 360 1151 C 377 1170 403 1185 438 1197 C 472 1208 520 1214 580 1214 C 638 1214 687 1205 725 1188 C 763 1170 794 1146 816 1115 C 838 1084 854 1048 863 1006 C 872 964 877 918 877 868 C 877 808 870 756 857 712 C 844 668 823 631 794 601 C 765 571 727 549 681 534 C 634 519 577 512 510 512 Z M 512 717 C 536 717 557 720 573 726 C 589 732 601 742 610 756 C 618 769 624 786 628 807 C 631 828 633 853 633 883 C 633 911 631 934 627 954 C 623 974 617 990 608 1002 C 599 1014 587 1023 572 1029 C 557 1035 538 1038 516 1038 C 470 1038 435 1027 411 1005 C 387 983 375 943 375 887 C 375 857 376 831 380 810 C 383 788 389 771 399 757 C 409 743 423 733 441 727 C 459 720 482 717 512 717 Z" unicode="⁶" />
<glyph horiz-adv-x="997" d="M 356 1645 L 641 1645 L 866 1270 L 621 1270 L 496 1432 L 373 1270 L 133 1270 L 356 1645 Z" unicode="ˆ" />
<glyph horiz-adv-x="997" d="M 133 1645 L 379 1645 L 502 1483 L 625 1645 L 866 1645 L 641 1270 L 356 1270 L 133 1645 Z" unicode="ˇ" />
<glyph horiz-adv-x="846" d="M 483 1292 L 84 1292 L 84 1518 L 756 1518 L 756 1321 L 467 524 L 203 524 L 483 1292 Z" unicode="⁷" />
<glyph horiz-adv-x="981" d="M 487 512 C 431 512 383 515 343 523 C 303 530 269 540 241 554 C 213 567 190 583 173 602 C 155 620 142 641 133 663 C 123 685 117 708 114 733 C 110 757 109 783 109 809 C 109 838 110 866 113 892 C 115 918 121 943 130 966 C 139 988 152 1008 170 1026 C 187 1044 210 1059 240 1071 C 218 1081 201 1093 188 1108 C 175 1123 165 1140 158 1158 C 150 1176 145 1196 143 1217 C 140 1238 139 1260 139 1284 C 139 1316 143 1346 153 1376 C 162 1406 179 1432 205 1455 C 231 1477 266 1495 312 1509 C 357 1523 415 1530 487 1530 C 559 1530 618 1523 664 1509 C 710 1495 745 1477 771 1455 C 797 1432 814 1406 824 1376 C 833 1346 838 1316 838 1284 C 838 1260 836 1238 833 1217 C 830 1195 825 1175 818 1157 C 810 1139 800 1122 786 1108 C 772 1093 755 1081 735 1071 C 766 1059 790 1044 808 1026 C 826 1008 839 988 848 966 C 857 943 863 918 865 892 C 867 866 868 838 868 809 C 868 769 863 732 855 696 C 847 660 829 629 803 602 C 777 574 738 552 688 536 C 638 520 571 512 487 512 Z M 487 702 C 517 702 540 705 558 712 C 576 718 589 728 599 740 C 609 752 615 766 618 783 C 621 800 623 819 623 840 C 623 860 621 879 618 896 C 615 912 609 926 599 938 C 589 950 576 959 558 965 C 540 971 517 975 487 975 C 457 975 434 971 417 965 C 400 959 387 950 378 938 C 368 926 362 912 360 896 C 357 879 356 860 356 840 C 356 819 357 800 360 783 C 362 766 368 752 378 740 C 387 728 400 718 417 712 C 434 705 457 702 487 702 Z M 487 1141 C 511 1141 530 1143 545 1147 C 559 1151 571 1158 580 1166 C 588 1174 594 1185 597 1198 C 600 1210 602 1225 602 1241 C 602 1257 600 1272 597 1284 C 594 1296 588 1307 580 1315 C 571 1323 559 1329 545 1333 C 530 1337 511 1339 487 1339 C 464 1339 445 1337 431 1333 C 417 1329 405 1323 397 1315 C 389 1307 383 1296 380 1284 C 376 1272 375 1257 375 1241 C 375 1225 376 1210 380 1198 C 383 1185 389 1174 397 1166 C 405 1158 417 1151 431 1147 C 445 1143 464 1141 487 1141 Z" unicode="⁸" />
<glyph horiz-adv-x="954" d="M 209 729 L 356 729 C 403 729 442 731 472 737 C 502 742 525 751 543 763 C 560 775 572 791 580 811 C 587 831 592 855 594 885 C 576 865 550 850 516 839 C 482 828 435 823 375 823 C 315 823 267 832 229 850 C 191 868 160 892 138 924 C 115 955 99 992 91 1035 C 82 1077 78 1124 78 1174 C 78 1233 84 1285 97 1329 C 109 1373 130 1410 159 1440 C 188 1470 226 1492 273 1507 C 319 1522 376 1530 444 1530 C 527 1530 594 1519 645 1499 C 695 1478 734 1448 762 1410 C 790 1372 808 1325 817 1270 C 826 1215 831 1153 831 1085 C 831 1018 829 958 825 905 C 821 851 812 804 800 762 C 788 720 771 685 749 655 C 727 625 698 600 662 581 C 626 561 582 547 530 538 C 478 528 417 524 346 524 L 209 524 L 209 729 Z M 438 999 C 460 999 479 1001 497 1006 C 514 1011 529 1020 541 1032 C 553 1044 562 1059 568 1079 C 574 1098 578 1122 578 1151 C 578 1181 576 1206 573 1228 C 569 1250 563 1267 553 1281 C 543 1295 530 1305 512 1311 C 494 1317 471 1321 442 1321 C 416 1321 396 1317 381 1311 C 365 1305 353 1295 344 1282 C 335 1268 329 1251 326 1231 C 323 1210 322 1185 322 1157 C 322 1128 323 1104 327 1084 C 331 1064 337 1047 346 1035 C 355 1022 367 1013 382 1007 C 396 1001 415 999 438 999 Z" unicode="⁹" />
<glyph horiz-adv-x="997" d="M 498 1257 C 429 1257 372 1264 328 1279 C 283 1294 247 1317 219 1347 C 191 1377 169 1414 155 1460 C 140 1505 129 1558 121 1620 L 342 1653 C 346 1622 352 1596 360 1576 C 367 1555 376 1538 388 1526 C 400 1513 414 1504 432 1499 C 450 1493 472 1491 498 1491 C 524 1491 545 1493 563 1499 C 581 1504 595 1513 607 1526 C 619 1538 628 1555 635 1576 C 642 1596 648 1622 653 1653 L 877 1622 C 868 1560 856 1506 841 1460 C 826 1414 805 1376 777 1346 C 749 1316 712 1293 668 1279 C 623 1264 566 1257 498 1257 Z" unicode="˘" />
<glyph horiz-adv-x="997" d="M 344 1550 L 655 1550 L 655 1270 L 344 1270 L 344 1550 Z" unicode="˙" />
<glyph horiz-adv-x="997" d="" unicode="˚" />
<glyph horiz-adv-x="997" d="M 555 -479 C 507 -479 465 -476 430 -470 C 394 -464 365 -453 342 -437 C 319 -421 302 -400 291 -373 C 279 -345 274 -310 274 -268 C 274 -227 282 -189 298 -155 C 314 -120 333 -89 356 -63 C 378 -36 402 -13 427 5 C 451 23 472 37 489 47 L 672 47 C 646 25 621 3 598 -19 C 574 -42 554 -65 537 -88 C 519 -111 506 -134 496 -156 C 486 -178 481 -199 481 -219 C 481 -249 488 -270 504 -284 C 520 -298 546 -305 584 -305 L 643 -305 L 643 -479 L 555 -479 L 555 -479 Z" unicode="˛" />
<glyph horiz-adv-x="997" d="M 61 1372 C 101 1450 144 1507 192 1543 C 239 1579 295 1597 360 1597 C 387 1597 412 1592 435 1583 C 458 1573 479 1563 499 1552 C 519 1541 537 1531 554 1522 C 571 1513 587 1509 602 1509 C 623 1509 643 1516 663 1532 C 683 1547 705 1572 731 1608 L 928 1493 C 888 1415 844 1357 798 1321 C 751 1284 695 1266 631 1266 C 603 1266 577 1270 554 1279 C 530 1288 509 1298 489 1309 C 469 1319 451 1329 435 1338 C 418 1347 403 1352 389 1352 C 367 1352 347 1345 327 1331 C 307 1317 284 1292 260 1257 L 61 1372 Z" unicode="˜" />
<glyph horiz-adv-x="997" d="M 348 1645 L 666 1645 L 379 1270 L 141 1270 L 348 1645 Z M 772 1645 L 1087 1645 L 801 1270 L 565 1270 L 772 1645 Z" unicode="˝" />
</font>
</defs>
</svg>
