<?xml version="1.0" encoding="utf-8" ?><svg version="1.1" xmlns = 'http://www.w3.org/2000/svg'><defs><font id='web' horiz-adv-x="1000">
<font-face font-family="web" descent="-410" cap-height="1518" units-per-em="2048" bbox="-295,-602,3178,2535" x-height="1147" ascent="1638" />
<missing-glyph horiz-adv-x="1024" d="" /><glyph horiz-adv-x="461" d="" unicode=" " />
<glyph horiz-adv-x="778" d="M 143 301 L 434 301 L 373 0 L 84 0 L 143 301 Z M 420 1518 L 682 1518 L 428 451 L 215 451 L 420 1518 Z" unicode="!" />
<glyph horiz-adv-x="1081" d="M 350 1518 L 598 1518 L 444 866 L 229 866 L 350 1518 Z M 809 1518 L 1059 1518 L 903 866 L 690 866 L 809 1518 Z" unicode="&#x22;" />
<glyph horiz-adv-x="1532" d="M 328 403 L 55 403 L 100 623 L 373 623 L 426 864 L 152 864 L 199 1085 L 469 1085 L 561 1518 L 791 1518 L 698 1085 L 963 1085 L 1055 1518 L 1284 1518 L 1192 1085 L 1479 1085 L 1434 864 L 1149 864 L 1096 623 L 1380 623 L 1335 403 L 1053 403 L 965 0 L 735 0 L 823 403 L 559 403 L 471 0 L 242 0 L 328 403 Z M 881 610 L 938 879 L 641 879 L 582 610 L 881 610 Z" unicode="#" />
<glyph horiz-adv-x="1341" d="M 408 10 C 312 22 229 44 158 76 C 87 107 25 146 -27 193 L 111 365 C 143 339 176 315 210 295 C 244 275 281 258 321 244 C 361 230 404 219 451 212 C 498 204 550 201 608 201 C 711 201 790 222 845 265 C 900 307 928 373 928 463 C 928 494 921 520 909 542 C 896 563 877 581 853 597 C 829 613 798 627 762 639 C 725 651 683 664 635 678 C 581 692 530 709 481 727 C 432 745 389 769 352 797 C 314 825 284 860 262 902 C 240 944 229 995 229 1057 C 229 1136 241 1204 267 1261 C 293 1318 328 1365 373 1402 C 418 1439 471 1467 532 1486 C 592 1504 657 1515 727 1518 L 756 1657 L 977 1657 L 946 1507 C 1025 1495 1092 1478 1146 1456 C 1200 1434 1244 1409 1276 1382 L 1137 1198 C 1117 1212 1093 1226 1066 1240 C 1039 1253 1009 1265 976 1275 C 943 1285 907 1294 869 1300 C 830 1306 789 1309 745 1309 C 649 1309 578 1289 533 1250 C 487 1210 465 1155 465 1085 C 465 1053 471 1026 485 1005 C 499 983 518 965 544 950 C 570 934 601 921 638 909 C 674 897 716 884 762 870 C 814 854 865 838 913 820 C 961 802 1004 779 1041 751 C 1077 723 1106 688 1128 647 C 1150 605 1161 554 1161 492 C 1161 412 1148 342 1122 282 C 1096 221 1059 170 1012 129 C 964 88 908 57 842 35 C 776 13 704 2 625 0 L 584 -193 L 365 -193 L 408 10 Z" unicode="$" />
<glyph horiz-adv-x="2331" d="M 510 557 C 442 557 384 565 336 583 C 287 601 247 626 215 658 C 183 690 159 729 144 774 C 128 819 121 869 121 924 C 121 1018 133 1103 159 1179 C 185 1255 220 1320 265 1374 C 310 1428 363 1469 425 1498 C 486 1527 552 1542 623 1542 C 689 1542 747 1532 796 1514 C 845 1495 885 1469 917 1436 C 948 1403 971 1364 987 1318 C 1002 1272 1010 1221 1010 1167 C 1010 1073 997 988 971 913 C 945 837 910 773 865 721 C 820 668 767 627 706 599 C 645 571 580 557 510 557 Z M 526 748 C 568 748 606 758 640 780 C 673 802 701 831 724 869 C 747 906 765 949 777 999 C 789 1048 795 1101 795 1157 C 795 1185 791 1210 785 1233 C 779 1256 768 1276 754 1293 C 739 1309 720 1322 697 1332 C 673 1341 644 1346 610 1346 C 566 1346 528 1335 494 1314 C 460 1292 431 1263 408 1226 C 385 1188 368 1145 356 1095 C 344 1045 338 991 338 934 C 338 906 341 881 348 859 C 354 836 365 816 380 800 C 394 783 414 770 438 761 C 462 752 491 748 526 748 Z M 1712 -23 C 1644 -23 1585 -14 1536 3 C 1487 21 1447 46 1415 78 C 1383 110 1360 149 1345 194 C 1330 239 1323 289 1323 344 C 1323 438 1335 523 1361 599 C 1386 675 1421 740 1466 794 C 1511 848 1564 889 1625 919 C 1686 948 1753 963 1825 963 C 1891 963 1949 953 1998 935 C 2047 916 2087 890 2119 857 C 2150 824 2173 785 2189 739 C 2204 693 2212 642 2212 588 C 2212 494 2199 409 2173 333 C 2147 257 2111 193 2066 141 C 2021 88 1968 47 1908 19 C 1847 -8 1782 -23 1712 -23 Z M 1726 168 C 1768 168 1806 179 1840 201 C 1873 223 1901 252 1924 290 C 1947 327 1965 370 1977 420 C 1989 470 1995 522 1995 578 C 1995 605 1991 630 1985 654 C 1979 677 1968 697 1954 714 C 1939 731 1920 744 1897 754 C 1873 763 1844 768 1810 768 C 1766 768 1728 757 1695 736 C 1661 714 1633 685 1610 648 C 1587 610 1570 566 1558 516 C 1546 466 1540 412 1540 354 C 1540 326 1543 301 1549 278 C 1555 255 1566 235 1581 219 C 1595 203 1614 190 1638 181 C 1662 172 1691 168 1726 168 Z M 1638 1518 L 1862 1518 L 711 0 L 487 0 L 1638 1518 Z" unicode="%" />
<glyph horiz-adv-x="1675" d="M 557 -20 C 459 -20 374 -12 304 4 C 233 20 175 43 130 74 C 84 104 51 142 30 187 C 8 232 -2 284 -2 342 C -2 424 10 496 34 556 C 58 616 90 668 130 711 C 170 753 215 789 267 817 C 318 845 371 869 426 889 C 414 949 408 1009 408 1069 C 408 1157 419 1231 441 1291 C 463 1351 493 1400 531 1437 C 569 1474 612 1501 662 1517 C 711 1533 763 1542 817 1542 C 876 1542 927 1534 971 1520 C 1015 1506 1051 1485 1079 1459 C 1107 1433 1128 1401 1142 1364 C 1156 1327 1163 1286 1163 1241 C 1163 1167 1151 1103 1127 1051 C 1103 998 1071 952 1031 914 C 991 876 943 843 889 817 C 835 790 777 766 717 745 C 738 697 762 651 789 607 C 816 563 845 523 877 487 C 917 436 956 394 993 362 C 1051 422 1104 497 1153 586 C 1201 674 1248 777 1294 895 L 1485 829 C 1439 707 1391 598 1339 502 C 1287 406 1229 322 1167 250 C 1208 233 1247 223 1284 220 C 1321 216 1357 215 1391 215 L 1436 215 L 1393 0 L 1364 0 C 1326 0 1289 1 1255 3 C 1221 5 1188 10 1156 16 C 1124 22 1092 31 1062 43 C 1031 54 1001 68 971 86 C 912 50 848 24 780 6 C 712 -11 637 -20 557 -20 Z M 580 180 C 658 180 731 195 799 225 C 758 265 716 314 672 371 C 634 417 598 467 566 521 C 534 575 506 633 483 694 C 449 678 417 660 387 641 C 357 621 331 599 309 574 C 287 548 269 519 257 486 C 244 452 238 414 238 371 C 238 345 243 320 253 297 C 263 273 280 253 306 236 C 331 218 366 205 410 195 C 454 185 511 180 580 180 Z M 637 1085 C 637 1035 643 984 655 932 C 698 946 737 961 773 979 C 809 997 839 1017 865 1040 C 891 1062 911 1088 925 1117 C 939 1145 946 1178 946 1214 C 946 1293 900 1333 809 1333 C 782 1333 758 1328 737 1319 C 715 1310 697 1296 683 1276 C 668 1256 657 1230 649 1199 C 641 1167 637 1129 637 1085 Z" unicode="&#x26;" />
<glyph horiz-adv-x="625" d="M 350 1520 L 598 1520 L 444 866 L 229 866 L 350 1520 Z" unicode="'" />
<glyph horiz-adv-x="1022" d="M 408 -385 C 378 -351 348 -309 318 -261 C 288 -212 262 -157 238 -95 C 214 -33 195 35 180 110 C 165 185 158 266 158 352 C 158 445 167 537 187 627 C 206 717 232 804 265 888 C 298 972 337 1051 381 1127 C 425 1202 473 1271 523 1335 C 573 1398 625 1454 679 1504 C 732 1554 784 1595 836 1628 L 983 1493 C 935 1457 887 1415 839 1367 C 791 1319 746 1267 703 1209 C 660 1151 620 1089 583 1023 C 546 957 514 887 487 814 C 460 741 439 665 424 586 C 408 507 401 426 401 344 C 401 274 407 208 419 145 C 431 81 447 23 467 -30 C 486 -83 507 -131 531 -173 C 554 -215 577 -251 600 -279 L 408 -385 L 408 -385 Z" unicode="(" />
<glyph horiz-adv-x="1022" d="M -18 -252 C 54 -198 124 -131 194 -51 C 263 28 325 117 379 217 C 433 316 477 423 511 538 C 544 653 561 773 561 897 C 561 967 555 1033 543 1096 C 531 1159 515 1217 496 1271 C 477 1325 456 1373 433 1415 C 410 1457 387 1492 365 1520 L 557 1628 C 587 1594 616 1552 646 1503 C 676 1454 702 1398 726 1336 C 750 1274 769 1205 784 1130 C 799 1055 807 975 807 889 C 807 795 797 703 778 613 C 758 523 732 436 699 352 C 666 268 627 189 583 114 C 539 39 491 -29 441 -93 C 391 -156 339 -212 286 -262 C 232 -311 180 -352 129 -385 L -18 -252 Z" unicode=")" />
<glyph horiz-adv-x="1212" d="M 461 547 L 557 897 L 213 768 L 154 954 L 512 1047 L 223 1280 L 352 1425 L 614 1165 L 670 1528 L 854 1489 L 756 1133 L 1104 1268 L 1163 1081 L 803 985 L 1094 756 L 967 610 L 700 868 L 645 506 L 461 547 Z" unicode="*" />
<glyph horiz-adv-x="1452" d="M 578 608 L 172 608 L 219 836 L 623 836 L 709 1235 L 944 1235 L 860 836 L 1264 836 L 1217 608 L 813 608 L 729 207 L 492 207 L 578 608 Z" unicode="+" />
<glyph horiz-adv-x="545" d="M -68 -162 C -36 -148 -9 -136 11 -125 C 31 -114 48 -103 60 -91 C 72 -79 82 -65 89 -51 C 95 -37 101 -20 106 0 L -33 0 L 29 307 L 317 307 L 266 49 C 255 -4 243 -48 229 -83 C 215 -118 196 -148 174 -172 C 152 -196 124 -216 91 -234 C 57 -251 16 -269 -33 -287 L -68 -162 Z" unicode="," />
<glyph horiz-adv-x="897" d="M 94 766 L 805 766 L 758 541 L 47 541 L 94 766 Z" unicode="-" />
<glyph horiz-adv-x="545" d="M 29 307 L 317 307 L 256 0 L -33 0 L 29 307 Z" unicode="." />
<glyph horiz-adv-x="1094" d="M 1006 1518 L 1262 1518 L 88 0 L -166 0 L 1006 1518 Z" unicode="/" />
<glyph horiz-adv-x="1497" d="M 651 -23 C 552 -23 468 -11 399 11 C 329 34 273 67 229 111 C 185 155 154 208 134 271 C 114 333 104 405 104 485 C 104 535 107 588 114 644 C 121 700 131 759 145 821 C 171 943 203 1050 243 1140 C 283 1230 331 1305 389 1365 C 446 1424 513 1468 590 1498 C 666 1527 754 1542 854 1542 C 950 1542 1032 1529 1100 1505 C 1168 1481 1223 1446 1266 1401 C 1309 1355 1341 1300 1361 1236 C 1381 1172 1391 1100 1391 1020 C 1391 970 1387 917 1380 862 C 1373 807 1364 750 1352 692 C 1326 570 1292 465 1252 375 C 1212 285 1163 211 1106 152 C 1049 93 983 49 908 20 C 832 -8 747 -23 651 -23 Z M 668 197 C 732 197 787 208 834 231 C 880 253 921 287 955 331 C 989 375 1018 430 1042 496 C 1066 562 1087 637 1106 723 C 1117 773 1126 821 1133 869 C 1139 917 1143 962 1143 1004 C 1143 1050 1137 1093 1127 1131 C 1117 1169 1100 1202 1076 1229 C 1052 1255 1020 1276 981 1291 C 942 1305 894 1313 836 1313 C 770 1313 713 1302 665 1280 C 617 1258 576 1225 542 1181 C 507 1137 478 1083 454 1018 C 430 953 409 878 391 793 C 379 738 369 686 363 637 C 357 587 354 542 354 500 C 354 452 359 409 369 372 C 379 334 397 303 421 277 C 445 251 478 231 518 217 C 558 203 608 197 668 197 Z" unicode="0" />
<glyph horiz-adv-x="807" d="M 459 1290 L 184 1290 L 231 1518 L 739 1518 L 416 0 L 182 0 L 459 1290 Z" unicode="1" />
<glyph horiz-adv-x="1223" d="M -47 199 L 545 664 C 597 704 642 740 682 771 C 721 802 755 830 784 856 C 813 881 837 904 857 926 C 876 948 891 970 903 992 C 915 1014 923 1038 928 1063 C 933 1088 936 1117 936 1149 C 936 1174 931 1197 922 1219 C 912 1240 897 1258 875 1273 C 853 1288 824 1300 788 1308 C 752 1316 707 1321 653 1321 C 625 1321 596 1319 565 1316 C 534 1313 503 1309 471 1303 C 439 1297 408 1289 378 1281 C 348 1272 320 1262 295 1251 L 217 1452 C 283 1480 356 1502 434 1518 C 512 1534 595 1542 682 1542 C 770 1542 845 1534 908 1519 C 971 1503 1023 1481 1063 1451 C 1103 1421 1132 1385 1151 1343 C 1170 1300 1180 1252 1180 1198 C 1180 1148 1176 1103 1169 1063 C 1162 1023 1151 987 1136 953 C 1121 919 1102 886 1078 856 C 1054 826 1026 795 992 763 C 958 731 920 698 876 663 C 832 628 783 589 729 547 L 293 209 L 983 209 L 942 0 L -88 0 L -47 199 Z" unicode="2" />
<glyph horiz-adv-x="1255" d="M 524 -25 C 451 -25 385 -20 326 -12 C 266 -4 212 7 163 23 C 113 39 67 58 25 80 C -16 102 -57 126 -96 154 L 53 336 C 87 312 122 291 158 273 C 193 254 230 238 268 225 C 306 212 346 202 389 196 C 431 189 478 186 528 186 C 576 186 620 191 660 203 C 700 215 734 233 762 259 C 790 285 811 318 827 359 C 842 400 850 450 850 510 C 850 543 845 572 835 597 C 825 622 808 643 785 660 C 762 677 731 690 693 698 C 655 706 607 711 551 711 L 338 711 L 379 924 L 655 924 C 703 924 745 927 781 935 C 817 942 847 955 872 973 C 896 991 915 1016 927 1048 C 939 1080 946 1120 946 1169 C 946 1195 941 1217 931 1237 C 921 1257 905 1273 883 1287 C 861 1300 832 1310 796 1317 C 760 1323 717 1327 666 1327 C 643 1327 616 1325 586 1323 C 556 1320 524 1315 491 1309 C 458 1303 425 1294 391 1284 C 357 1274 325 1261 295 1247 L 197 1438 C 237 1459 279 1476 325 1490 C 371 1504 416 1514 462 1522 C 507 1530 551 1535 593 1538 C 635 1540 673 1542 707 1542 C 872 1542 994 1515 1074 1461 C 1154 1407 1194 1328 1194 1225 C 1194 1160 1187 1104 1175 1057 C 1163 1009 1145 969 1123 937 C 1101 904 1074 878 1043 858 C 1012 838 978 824 942 815 C 988 796 1023 760 1048 708 C 1072 655 1085 590 1085 514 C 1085 416 1071 333 1045 265 C 1018 197 980 141 931 98 C 882 55 823 24 754 4 C 685 -15 608 -25 524 -25 Z" unicode="3" />
<glyph horiz-adv-x="1360" d="M 41 532 L 926 1518 L 1198 1518 L 322 547 L 780 547 L 928 1010 L 1098 1010 L 999 547 L 1249 547 L 1208 342 L 954 342 L 883 0 L 662 0 L 733 342 L 2 342 L 41 532 Z" unicode="4" />
<glyph horiz-adv-x="1298" d="M 561 -23 C 491 -23 426 -17 367 -7 C 307 2 253 16 204 32 C 155 48 111 67 73 89 C 34 110 1 132 -27 154 L 115 336 C 177 290 246 253 322 226 C 398 199 486 186 584 186 C 628 186 671 191 713 202 C 755 213 792 232 824 260 C 856 287 882 324 902 372 C 922 419 932 479 932 551 C 932 596 924 634 910 666 C 895 697 874 722 847 742 C 820 761 787 775 748 784 C 709 792 666 797 618 797 C 572 797 527 791 483 780 C 438 769 393 753 348 733 L 160 795 L 354 1518 L 1268 1518 L 1223 1303 L 530 1303 L 432 954 C 474 971 517 984 563 992 C 609 1000 657 1004 707 1004 C 775 1004 838 998 896 986 C 954 974 1004 952 1046 921 C 1088 889 1120 846 1144 792 C 1168 738 1180 668 1180 584 C 1180 502 1172 431 1158 369 C 1143 307 1122 254 1095 209 C 1068 164 1036 127 998 97 C 960 67 918 44 872 26 C 826 8 777 -4 725 -12 C 672 -19 617 -23 561 -23 Z" unicode="5" />
<glyph horiz-adv-x="1411" d="M 651 -23 C 553 -23 468 -12 396 10 C 324 32 265 64 219 106 C 172 148 137 199 115 260 C 93 320 82 389 82 467 C 82 503 84 540 89 580 C 94 620 101 662 111 707 C 133 811 158 903 186 984 C 214 1064 248 1135 286 1195 C 324 1255 367 1306 417 1347 C 466 1388 523 1421 587 1447 C 651 1472 724 1490 805 1501 C 885 1512 976 1518 1077 1518 L 1260 1518 L 1214 1303 L 1067 1303 C 987 1303 916 1298 856 1290 C 796 1281 743 1268 698 1252 C 652 1236 614 1216 582 1193 C 550 1170 522 1144 500 1116 C 477 1088 458 1057 442 1024 C 426 991 413 956 401 920 C 437 954 489 980 559 999 C 629 1018 711 1028 805 1028 C 890 1028 962 1018 1022 999 C 1081 979 1129 952 1166 918 C 1202 884 1229 843 1245 795 C 1261 747 1270 695 1270 639 C 1270 537 1257 446 1231 364 C 1205 282 1166 213 1114 156 C 1062 98 998 54 921 23 C 843 -7 753 -23 651 -23 Z M 657 184 C 726 184 784 194 832 214 C 879 234 917 262 947 298 C 976 334 997 376 1010 426 C 1023 476 1030 530 1030 590 C 1030 624 1024 656 1014 685 C 1003 713 985 738 960 758 C 935 778 902 794 861 806 C 820 817 769 823 709 823 C 658 823 609 817 563 807 C 517 796 476 777 440 749 C 404 721 376 682 355 634 C 334 586 324 524 324 449 C 324 272 435 184 657 184 Z" unicode="6" />
<glyph horiz-adv-x="1108" d="M 915 1303 L 152 1303 L 197 1518 L 1229 1518 L 1190 1331 L 336 0 L 70 0 L 915 1303 Z" unicode="7" />
<glyph horiz-adv-x="1427" d="M 616 -31 C 509 -31 419 -20 346 0 C 272 19 213 47 167 82 C 121 117 89 158 69 205 C 49 252 39 302 39 356 C 39 421 46 480 62 533 C 78 585 100 631 130 671 C 159 711 195 744 238 771 C 281 798 330 819 385 834 C 359 846 337 861 319 880 C 301 899 287 920 276 944 C 265 968 257 993 253 1020 C 248 1047 246 1074 246 1102 C 246 1169 257 1230 279 1284 C 301 1338 334 1385 379 1423 C 424 1461 481 1490 550 1511 C 619 1531 701 1542 795 1542 C 903 1542 992 1533 1064 1515 C 1136 1497 1193 1473 1235 1443 C 1277 1412 1307 1376 1325 1334 C 1343 1292 1352 1248 1352 1200 C 1352 1149 1346 1102 1335 1059 C 1324 1015 1308 977 1286 944 C 1264 910 1236 882 1204 860 C 1171 838 1133 822 1090 813 C 1122 800 1148 783 1169 763 C 1189 743 1206 719 1219 693 C 1231 666 1240 637 1245 605 C 1250 573 1253 540 1253 504 C 1253 418 1239 342 1211 276 C 1183 210 1142 154 1088 109 C 1034 63 967 29 888 5 C 809 -19 718 -31 616 -31 Z M 641 174 C 693 174 742 179 787 191 C 832 203 871 221 904 247 C 937 273 963 306 982 347 C 1000 388 1010 438 1010 498 C 1010 532 1003 562 990 589 C 977 616 957 639 929 659 C 901 678 865 693 821 703 C 777 713 724 719 662 719 C 606 719 556 713 510 701 C 464 689 424 670 391 644 C 358 618 332 584 314 542 C 296 500 287 449 287 389 C 287 355 293 325 305 299 C 317 272 338 249 366 231 C 394 213 430 199 475 189 C 520 179 575 174 641 174 Z M 786 911 C 838 911 885 915 925 924 C 965 932 999 947 1027 967 C 1054 987 1075 1013 1089 1045 C 1103 1077 1110 1116 1110 1163 C 1110 1189 1104 1213 1094 1235 C 1084 1257 1066 1275 1042 1291 C 1018 1306 986 1318 946 1326 C 906 1334 857 1339 799 1339 C 745 1339 698 1334 658 1325 C 618 1316 584 1302 557 1282 C 529 1262 509 1237 495 1205 C 481 1173 475 1135 475 1090 C 475 1063 480 1039 491 1017 C 501 995 519 976 543 960 C 567 944 599 932 639 924 C 679 915 728 911 786 911 Z" unicode="8" />
<glyph horiz-adv-x="1411" d="M 195 209 L 342 209 C 422 209 492 213 552 222 C 612 230 665 243 711 259 C 756 275 795 294 827 317 C 859 340 886 366 909 395 C 932 424 952 456 968 490 C 984 524 998 560 1012 598 C 976 562 923 535 853 516 C 783 496 701 487 606 487 C 520 487 448 496 389 516 C 329 536 281 563 244 598 C 207 633 180 674 164 722 C 147 770 139 822 139 879 C 139 980 152 1071 178 1153 C 204 1235 244 1304 296 1362 C 348 1420 413 1464 491 1495 C 568 1526 658 1542 760 1542 C 858 1542 942 1531 1014 1509 C 1085 1487 1144 1455 1190 1413 C 1236 1371 1271 1319 1293 1259 C 1315 1198 1327 1129 1327 1051 C 1327 1015 1324 977 1320 937 C 1316 897 1309 856 1300 813 C 1277 708 1251 615 1223 534 C 1195 453 1161 382 1123 322 C 1085 262 1041 211 992 170 C 942 129 886 96 822 71 C 758 45 685 27 605 16 C 524 5 434 0 334 0 L 152 0 L 195 209 Z M 700 684 C 750 684 799 689 846 700 C 892 711 933 731 969 759 C 1005 787 1033 826 1055 874 C 1076 922 1087 984 1087 1059 C 1087 1146 1059 1212 1004 1257 C 948 1302 865 1325 754 1325 C 684 1325 625 1315 578 1295 C 530 1275 492 1247 463 1211 C 433 1175 412 1132 400 1082 C 387 1032 381 978 381 920 C 381 884 386 852 396 823 C 406 794 424 769 449 749 C 473 728 506 712 547 701 C 588 689 639 684 700 684 Z" unicode="9" />
<glyph horiz-adv-x="586" d="M 49 297 L 338 297 L 276 0 L -12 0 L 49 297 Z M 229 1147 L 518 1147 L 459 848 L 170 848 L 229 1147 Z" unicode=":" />
<glyph horiz-adv-x="586" d="M -49 -162 C -17 -148 9 -136 30 -125 C 50 -114 67 -103 80 -91 C 92 -79 102 -65 109 -51 C 115 -37 121 -20 125 0 L -12 0 L 49 297 L 338 297 L 287 49 C 275 -6 262 -51 248 -86 C 234 -121 215 -150 193 -174 C 171 -198 143 -218 110 -235 C 77 -251 36 -269 -12 -287 L -49 -162 Z M 229 1147 L 518 1147 L 459 848 L 170 848 L 229 1147 Z" unicode=";" />
<glyph horiz-adv-x="1452" d="M 195 621 L 227 797 L 1257 1260 L 1212 1024 L 465 700 L 1071 383 L 1024 154 L 195 621 Z" unicode="&#x3C;" />
<glyph horiz-adv-x="1452" d="M 180 598 L 1202 598 L 1157 373 L 135 373 L 180 598 Z M 281 1069 L 1300 1069 L 1255 846 L 236 846 L 281 1069 Z" unicode="=" />
<glyph horiz-adv-x="1452" d="M 219 391 L 967 715 L 360 1032 L 408 1262 L 1237 795 L 1204 618 L 174 156 L 219 391 Z" unicode="&#x3E;" />
<glyph horiz-adv-x="1378" d="M 455 422 C 463 472 471 517 479 557 C 487 597 498 632 510 664 C 522 695 536 723 552 747 C 568 771 588 792 612 812 C 636 831 663 848 695 864 C 727 879 764 894 807 909 C 859 927 902 943 937 957 C 971 971 999 986 1019 1003 C 1039 1020 1054 1040 1062 1064 C 1070 1087 1075 1117 1075 1153 C 1075 1175 1070 1197 1061 1217 C 1052 1237 1036 1254 1012 1269 C 988 1284 956 1296 916 1304 C 875 1312 823 1317 760 1317 C 704 1317 642 1311 576 1299 C 509 1287 441 1269 373 1245 L 291 1454 C 331 1470 375 1484 421 1496 C 467 1507 513 1516 559 1523 C 605 1530 648 1535 690 1538 C 732 1540 769 1542 801 1542 C 897 1542 978 1534 1045 1519 C 1111 1504 1165 1482 1207 1454 C 1249 1426 1279 1391 1298 1350 C 1317 1308 1327 1262 1327 1210 C 1327 1144 1320 1088 1307 1041 C 1293 994 1272 953 1242 917 C 1212 881 1174 850 1127 824 C 1079 797 1022 772 954 748 C 903 730 862 712 832 696 C 801 680 776 660 758 637 C 739 614 725 586 715 552 C 705 518 695 474 686 422 L 455 422 Z M 395 272 L 686 272 L 629 0 L 340 0 L 395 272 Z" unicode="?" />
<glyph horiz-adv-x="2200" d="M 1081 -338 C 921 -338 782 -320 662 -284 C 542 -248 442 -192 362 -116 C 282 -40 221 57 181 175 C 141 293 121 434 121 598 C 121 764 142 907 185 1027 C 228 1146 290 1244 370 1321 C 450 1397 548 1454 664 1490 C 779 1526 909 1544 1055 1544 C 1202 1544 1334 1526 1451 1490 C 1567 1454 1666 1397 1747 1321 C 1828 1244 1890 1146 1933 1027 C 1975 907 1997 764 1997 598 C 1997 495 1989 409 1975 341 C 1961 272 1938 217 1907 175 C 1876 133 1836 104 1787 87 C 1738 69 1679 61 1610 61 C 1510 61 1432 72 1378 96 C 1324 120 1291 155 1280 201 C 1257 177 1233 158 1207 142 C 1181 126 1153 114 1122 104 C 1090 94 1055 86 1017 82 C 979 78 936 76 889 76 C 819 76 759 85 711 104 C 662 123 622 149 592 183 C 562 217 540 257 526 303 C 512 349 506 399 506 453 C 506 541 515 627 534 709 C 552 791 582 864 623 928 C 663 992 716 1043 780 1081 C 844 1119 922 1139 1014 1139 C 1071 1139 1120 1136 1161 1130 C 1202 1124 1237 1115 1266 1105 C 1294 1095 1318 1082 1337 1067 C 1355 1052 1371 1036 1384 1018 L 1456 1126 L 1602 1114 L 1450 410 C 1441 370 1438 336 1441 308 C 1443 280 1452 258 1467 241 C 1482 224 1504 212 1532 204 C 1560 196 1595 193 1638 193 C 1684 193 1721 199 1750 213 C 1778 227 1801 249 1817 281 C 1833 313 1843 354 1849 406 C 1855 458 1858 522 1858 598 C 1858 740 1840 863 1806 965 C 1771 1067 1720 1150 1652 1216 C 1584 1282 1501 1330 1401 1361 C 1301 1391 1185 1407 1055 1407 C 929 1407 816 1391 718 1361 C 619 1330 536 1282 468 1216 C 400 1150 349 1067 313 965 C 277 863 260 740 260 598 C 260 458 277 338 312 238 C 347 137 399 54 468 -10 C 536 -75 622 -123 724 -154 C 826 -185 944 -201 1079 -201 C 1131 -201 1183 -198 1234 -192 C 1285 -186 1334 -179 1381 -169 C 1428 -159 1473 -147 1515 -133 C 1557 -119 1595 -103 1630 -86 L 1692 -207 C 1610 -247 1518 -278 1416 -302 C 1313 -326 1201 -338 1081 -338 Z M 950 268 C 992 268 1030 272 1065 282 C 1100 292 1131 308 1159 332 C 1187 356 1211 388 1231 428 C 1251 468 1268 518 1280 580 C 1292 630 1298 679 1298 725 C 1298 757 1293 786 1285 812 C 1276 838 1261 860 1241 878 C 1221 896 1194 911 1161 921 C 1127 931 1086 936 1036 936 C 982 936 935 924 896 900 C 857 876 825 843 800 802 C 775 761 757 713 745 659 C 733 604 727 546 727 485 C 727 452 730 422 738 396 C 745 369 757 346 775 327 C 792 308 815 293 843 283 C 871 273 907 268 950 268 Z" unicode="@" />
<glyph horiz-adv-x="1501" d="M 786 1528 L 1034 1528 L 1292 0 L 1044 0 L 995 291 L 313 291 L 145 0 L -123 0 L 786 1528 Z M 963 520 L 850 1210 L 442 520 L 963 520 Z" unicode="A" />
<glyph horiz-adv-x="1458" d="M 328 1518 L 866 1518 C 974 1518 1064 1510 1136 1496 C 1208 1482 1266 1461 1310 1434 C 1353 1407 1384 1374 1402 1336 C 1420 1297 1430 1253 1430 1204 C 1430 1140 1423 1084 1410 1035 C 1396 986 1377 944 1353 909 C 1328 874 1299 846 1265 825 C 1231 804 1193 790 1153 782 C 1207 764 1247 730 1275 680 C 1303 629 1317 568 1317 498 C 1317 399 1303 318 1276 254 C 1249 190 1210 139 1159 101 C 1107 63 1044 37 970 22 C 895 7 810 0 715 0 L 4 0 L 328 1518 Z M 764 221 C 811 221 853 225 891 235 C 929 244 961 259 987 281 C 1013 303 1032 331 1046 366 C 1060 400 1067 443 1067 494 C 1067 521 1061 545 1051 566 C 1041 587 1024 605 1002 619 C 979 633 949 643 913 651 C 876 658 832 662 780 662 L 391 662 L 293 221 L 764 221 Z M 893 889 C 944 889 987 894 1022 905 C 1057 916 1085 932 1107 954 C 1128 975 1143 1001 1153 1032 C 1162 1063 1167 1099 1167 1139 C 1167 1162 1162 1183 1153 1202 C 1143 1221 1127 1237 1104 1251 C 1080 1264 1049 1274 1009 1281 C 969 1288 918 1292 858 1292 L 526 1292 L 436 889 L 893 889 Z" unicode="B" />
<glyph horiz-adv-x="1481" d="M 731 -23 C 613 -23 511 -9 427 19 C 342 47 272 86 217 138 C 162 189 122 251 96 324 C 70 397 57 479 57 569 C 57 610 59 652 64 696 C 68 740 76 786 86 834 C 114 969 155 1082 209 1173 C 263 1263 326 1336 398 1391 C 470 1445 551 1484 639 1507 C 727 1530 819 1542 915 1542 C 996 1542 1068 1535 1130 1523 C 1192 1510 1247 1493 1294 1472 C 1341 1451 1381 1427 1415 1400 C 1448 1373 1477 1345 1501 1317 L 1290 1147 C 1250 1193 1198 1231 1136 1260 C 1073 1288 997 1303 907 1303 C 833 1303 766 1293 704 1274 C 642 1255 587 1225 539 1185 C 490 1145 448 1093 413 1029 C 378 965 351 889 332 801 C 324 765 319 731 316 698 C 312 665 311 634 311 604 C 311 543 319 488 336 440 C 353 392 380 351 416 317 C 452 283 498 256 554 238 C 610 220 676 211 754 211 C 796 211 834 213 869 219 C 904 224 937 232 967 243 C 997 253 1026 266 1053 282 C 1080 298 1107 316 1133 338 L 1286 154 C 1252 124 1215 98 1177 76 C 1138 54 1096 35 1051 21 C 1006 6 957 -4 904 -12 C 851 -19 793 -23 731 -23 Z" unicode="C" />
<glyph horiz-adv-x="1548" d="M 328 1518 L 696 1518 C 838 1518 960 1507 1061 1487 C 1162 1466 1245 1434 1309 1391 C 1373 1347 1419 1292 1449 1224 C 1478 1156 1493 1075 1493 981 C 1493 935 1490 888 1484 838 C 1478 788 1469 734 1456 676 C 1435 578 1410 494 1380 422 C 1350 350 1317 290 1279 240 C 1241 190 1198 149 1151 118 C 1104 86 1053 62 997 45 C 941 27 881 15 817 9 C 752 3 683 0 610 0 L 4 0 L 328 1518 Z M 616 229 C 704 229 781 235 846 249 C 910 262 966 286 1013 322 C 1059 357 1098 406 1129 468 C 1160 530 1186 611 1208 709 C 1217 753 1224 794 1230 833 C 1236 871 1239 908 1239 944 C 1239 1001 1229 1051 1211 1093 C 1192 1135 1161 1171 1119 1199 C 1077 1227 1021 1247 951 1261 C 881 1275 796 1282 694 1282 L 528 1282 L 299 229 L 616 229 Z" unicode="D" />
<glyph horiz-adv-x="1327" d="M 328 1518 L 1368 1518 L 1321 1280 L 526 1280 L 440 899 L 1214 899 L 1167 664 L 395 664 L 299 227 L 1100 227 L 1053 0 L 4 0 L 328 1518 Z" unicode="E" />
<glyph horiz-adv-x="1241" d="M 328 1518 L 1327 1518 L 1278 1280 L 526 1280 L 436 872 L 1167 872 L 1120 637 L 389 637 L 252 0 L 4 0 L 328 1518 Z" unicode="F" />
<glyph horiz-adv-x="1585" d="M 748 -23 C 627 -23 523 -9 436 17 C 349 44 277 83 221 134 C 165 184 123 246 97 319 C 70 392 57 475 57 567 C 57 617 59 664 64 707 C 69 750 76 792 86 834 C 110 958 147 1065 196 1155 C 245 1244 305 1317 375 1375 C 445 1432 524 1474 614 1501 C 703 1528 801 1542 907 1542 C 991 1542 1066 1535 1132 1521 C 1198 1507 1256 1489 1306 1467 C 1356 1445 1398 1420 1433 1392 C 1468 1364 1496 1337 1518 1309 L 1307 1137 C 1291 1155 1272 1173 1251 1193 C 1229 1212 1203 1230 1171 1246 C 1139 1262 1100 1276 1055 1287 C 1010 1297 956 1303 893 1303 C 744 1303 622 1262 526 1180 C 430 1098 364 971 328 801 C 321 769 316 735 312 701 C 308 667 307 634 307 602 C 307 538 315 482 333 432 C 350 382 377 339 414 305 C 451 270 498 244 556 226 C 613 208 682 199 762 199 C 839 199 903 206 954 221 C 1005 235 1047 259 1081 291 C 1114 323 1141 364 1161 415 C 1181 466 1198 528 1214 602 L 1221 637 L 786 637 L 829 860 L 1518 860 L 1473 631 C 1448 505 1418 401 1383 317 C 1348 233 1303 165 1248 115 C 1192 65 1124 29 1044 8 C 963 -12 864 -23 748 -23 Z" unicode="G" />
<glyph horiz-adv-x="1599" d="M 328 1518 L 575 1518 L 444 907 L 1217 907 L 1350 1518 L 1597 1518 L 1274 0 L 1026 0 L 1167 662 L 395 662 L 252 0 L 4 0 L 328 1518 Z" unicode="H" />
<glyph horiz-adv-x="614" d="M 346 1518 L 594 1518 L 270 0 L 23 0 L 346 1518 Z" unicode="I" />
<glyph horiz-adv-x="834" d="M -61 227 L 80 227 C 122 227 160 231 192 239 C 224 247 251 261 274 279 C 296 297 315 320 330 349 C 345 378 357 413 367 455 L 594 1518 L 842 1518 L 606 418 C 587 330 561 258 529 204 C 496 149 458 106 415 76 C 371 45 324 24 272 14 C 220 3 165 -2 109 -2 C 80 -2 56 -2 37 -2 C 18 -2 2 -2 -9 -2 C -21 -2 -31 -2 -39 -2 C -47 -2 -54 -1 -60 -1 C -66 -1 -73 -1 -80 -1 C -86 -1 -95 0 -106 0 L -61 227 Z" unicode="J" />
<glyph horiz-adv-x="1458" d="M 664 748 L 344 451 L 248 0 L 4 0 L 328 1518 L 571 1518 L 418 797 L 1176 1518 L 1483 1518 L 858 922 L 1233 0 L 971 0 L 664 748 Z" unicode="K" />
<glyph horiz-adv-x="1192" d="M 328 1518 L 575 1518 L 299 227 L 1034 227 L 989 0 L 4 0 L 328 1518 Z" unicode="L" />
<glyph horiz-adv-x="1896" d="M 328 1518 L 649 1518 L 860 387 L 1559 1518 L 1892 1518 L 1569 0 L 1327 0 L 1573 1135 L 866 0 L 686 0 L 471 1128 L 227 0 L 4 0 L 328 1518 Z" unicode="M" />
<glyph horiz-adv-x="1597" d="M 328 1518 L 596 1518 L 1118 420 L 1358 1518 L 1595 1518 L 1272 0 L 1044 0 L 489 1153 L 240 0 L 4 0 L 328 1518 Z" unicode="N" />
<glyph horiz-adv-x="1700" d="M 774 -25 C 660 -25 558 -11 470 15 C 381 41 306 80 245 132 C 184 184 138 248 106 325 C 74 401 59 490 59 590 C 59 629 61 669 65 711 C 69 752 76 796 86 842 C 105 934 131 1016 163 1086 C 195 1156 231 1218 273 1270 C 315 1322 361 1365 411 1400 C 461 1434 515 1462 571 1483 C 627 1504 685 1519 745 1528 C 805 1537 866 1542 928 1542 C 1040 1542 1141 1528 1229 1502 C 1317 1476 1391 1437 1452 1386 C 1513 1334 1560 1271 1592 1195 C 1624 1119 1640 1031 1640 932 C 1640 892 1638 852 1634 811 C 1630 770 1623 728 1614 684 C 1594 590 1567 508 1535 437 C 1503 366 1466 304 1424 252 C 1382 199 1337 155 1287 120 C 1237 84 1185 56 1130 34 C 1074 12 1017 -2 957 -11 C 897 -20 836 -25 774 -25 Z M 776 207 C 854 207 925 216 989 235 C 1053 254 1109 284 1158 325 C 1207 365 1248 417 1282 480 C 1316 542 1342 617 1362 705 C 1369 739 1374 771 1378 803 C 1382 835 1384 866 1384 897 C 1384 957 1375 1013 1357 1063 C 1339 1113 1312 1155 1274 1191 C 1236 1227 1187 1254 1128 1274 C 1068 1293 997 1303 915 1303 C 759 1303 633 1263 535 1183 C 437 1103 370 977 334 807 C 326 773 321 741 318 709 C 314 677 313 645 313 614 C 313 553 321 498 339 448 C 357 398 384 355 422 319 C 459 283 507 256 565 236 C 623 216 694 207 776 207 Z" unicode="O" />
<glyph horiz-adv-x="1460" d="M 328 1518 L 909 1518 C 1013 1518 1100 1508 1170 1489 C 1240 1470 1297 1444 1340 1410 C 1383 1376 1414 1336 1432 1290 C 1450 1244 1460 1193 1460 1139 C 1460 1049 1448 965 1426 889 C 1403 813 1368 747 1320 692 C 1272 636 1210 593 1135 562 C 1060 531 970 516 866 516 L 358 516 L 246 0 L 4 0 L 328 1518 Z M 858 745 C 912 745 961 751 1004 765 C 1046 778 1082 799 1112 828 C 1141 856 1163 892 1179 936 C 1194 980 1202 1032 1202 1094 C 1202 1126 1196 1154 1184 1178 C 1172 1202 1153 1223 1127 1239 C 1101 1255 1067 1268 1027 1276 C 986 1284 937 1288 879 1288 L 524 1288 L 403 745 L 858 745 Z" unicode="P" />
<glyph horiz-adv-x="1700" d="M 760 -12 C 751 -44 747 -71 748 -93 C 748 -114 755 -131 767 -143 C 779 -155 798 -164 823 -169 C 848 -173 881 -176 922 -176 L 1061 -176 L 1018 -389 C 1008 -389 997 -390 985 -390 C 972 -390 959 -391 946 -391 C 932 -391 920 -391 908 -391 C 896 -391 886 -391 879 -391 C 791 -391 719 -383 663 -369 C 607 -354 566 -330 538 -298 C 510 -266 494 -224 492 -173 C 490 -122 498 -60 518 12 C 368 45 254 109 176 205 C 98 301 59 429 59 590 C 57 629 59 669 64 711 C 69 752 76 796 86 842 C 115 980 158 1095 214 1185 C 270 1275 335 1347 410 1400 C 484 1452 566 1489 654 1510 C 742 1531 834 1542 928 1542 C 1042 1542 1144 1528 1232 1502 C 1320 1476 1395 1437 1455 1386 C 1515 1334 1561 1271 1593 1195 C 1624 1119 1640 1031 1640 932 C 1640 892 1637 852 1633 811 C 1629 770 1622 728 1612 684 C 1592 590 1566 508 1534 438 C 1502 367 1465 306 1424 255 C 1382 203 1337 160 1287 126 C 1237 92 1185 64 1130 44 C 1074 23 1017 8 957 0 C 897 -7 836 -12 774 -12 L 760 -12 Z M 776 207 C 854 207 924 216 988 235 C 1052 254 1108 284 1157 325 C 1206 365 1248 417 1282 480 C 1316 542 1342 617 1362 705 C 1369 739 1374 771 1378 803 C 1382 835 1384 866 1384 897 C 1384 957 1375 1013 1357 1063 C 1339 1113 1312 1155 1274 1191 C 1236 1227 1187 1254 1128 1274 C 1068 1293 997 1303 915 1303 C 759 1303 633 1263 535 1183 C 437 1103 370 977 334 807 C 326 773 321 741 318 709 C 314 677 313 645 313 614 C 313 553 321 498 339 448 C 357 398 384 355 422 319 C 459 283 507 256 565 236 C 623 216 694 207 776 207 Z" unicode="Q" />
<glyph horiz-adv-x="1485" d="M 737 553 L 367 553 L 246 0 L 4 0 L 328 1518 L 881 1518 C 989 1518 1080 1508 1154 1489 C 1227 1469 1286 1443 1330 1409 C 1374 1375 1405 1336 1424 1291 C 1442 1245 1452 1197 1452 1145 C 1452 1067 1443 994 1425 928 C 1407 861 1380 802 1342 751 C 1304 700 1256 658 1198 625 C 1139 591 1069 569 987 559 L 1188 0 L 936 0 L 737 553 Z M 864 780 C 916 780 962 785 1003 797 C 1044 809 1079 827 1107 853 C 1135 878 1157 910 1172 950 C 1186 990 1194 1038 1194 1094 C 1194 1162 1166 1211 1112 1242 C 1058 1272 974 1288 860 1288 L 524 1288 L 412 780 L 864 780 Z" unicode="R" />
<glyph horiz-adv-x="1438" d="M 647 -20 C 563 -20 487 -14 418 -3 C 348 7 284 22 226 41 C 168 60 115 83 67 109 C 19 135 -25 163 -66 193 L 92 377 C 166 320 249 276 341 244 C 433 212 538 197 657 197 C 708 197 756 200 800 207 C 844 213 883 225 915 243 C 947 260 973 283 992 312 C 1010 341 1020 378 1020 424 C 1020 462 1012 492 997 516 C 981 539 959 559 929 575 C 899 591 861 606 817 620 C 772 633 720 648 662 666 C 596 684 536 703 480 723 C 424 743 375 767 334 797 C 292 827 260 864 236 908 C 212 952 201 1007 201 1075 C 201 1165 216 1240 248 1300 C 279 1360 321 1408 374 1444 C 427 1480 488 1505 557 1520 C 626 1534 698 1542 774 1542 C 857 1542 931 1536 996 1526 C 1060 1515 1117 1501 1167 1485 C 1216 1468 1258 1449 1294 1429 C 1330 1409 1360 1389 1386 1370 L 1225 1176 C 1203 1193 1177 1210 1147 1226 C 1117 1242 1084 1257 1046 1270 C 1008 1283 965 1293 918 1301 C 871 1309 820 1313 764 1313 C 718 1313 677 1309 639 1302 C 601 1295 569 1283 542 1267 C 514 1251 493 1229 478 1201 C 462 1173 455 1139 455 1098 C 455 1066 462 1039 478 1017 C 493 995 514 976 542 960 C 570 944 603 931 642 919 C 681 907 724 895 772 883 C 844 863 910 844 971 824 C 1032 804 1085 779 1130 749 C 1175 719 1210 683 1236 639 C 1261 595 1274 541 1274 475 C 1274 383 1258 306 1227 243 C 1195 180 1152 129 1096 90 C 1040 51 973 23 897 6 C 820 -11 737 -20 647 -20 Z" unicode="S" />
<glyph horiz-adv-x="1386" d="M 684 1280 L 156 1280 L 205 1518 L 1507 1518 L 1458 1280 L 932 1280 L 657 0 L 410 0 L 684 1280 Z" unicode="T" />
<glyph horiz-adv-x="1593" d="M 702 -27 C 621 -27 550 -21 489 -10 C 428 0 375 15 331 35 C 286 55 249 78 219 106 C 189 134 165 164 147 197 C 129 229 116 264 109 301 C 101 337 98 375 98 414 C 98 446 100 480 105 514 C 109 548 115 581 123 614 L 317 1518 L 565 1518 L 375 625 C 368 595 362 566 358 539 C 354 512 352 486 352 461 C 352 421 358 386 370 355 C 382 323 403 296 432 274 C 461 252 500 235 548 223 C 596 211 657 205 729 205 C 797 205 855 212 903 228 C 951 243 991 266 1024 297 C 1057 327 1084 366 1105 412 C 1125 458 1142 511 1155 573 L 1358 1518 L 1599 1518 L 1384 524 C 1373 474 1360 426 1345 380 C 1329 334 1310 290 1287 250 C 1263 209 1235 172 1201 138 C 1167 104 1127 74 1080 50 C 1033 26 978 7 916 -6 C 854 -20 782 -27 702 -27 Z" unicode="U" />
<glyph horiz-adv-x="1501" d="M 209 1518 L 461 1518 L 649 322 L 1348 1518 L 1620 1518 L 709 -10 L 465 -10 L 209 1518 Z" unicode="V" />
<glyph horiz-adv-x="2177" d="M 219 1518 L 473 1518 L 559 434 L 1130 1518 L 1368 1518 L 1479 434 L 2025 1518 L 2281 1518 L 1503 -10 L 1282 -10 L 1167 1128 L 567 -10 L 348 -10 L 219 1518 Z" unicode="W" />
<glyph horiz-adv-x="1485" d="M 707 608 L 182 0 L -100 0 L 612 811 L 287 1518 L 545 1518 L 793 983 L 1249 1518 L 1532 1518 L 885 780 L 1247 0 L 989 0 L 707 608 Z" unicode="X" />
<glyph horiz-adv-x="1454" d="M 561 571 L 184 1518 L 442 1518 L 729 811 L 1313 1518 L 1587 1518 L 807 565 L 686 0 L 438 0 L 561 571 Z" unicode="Y" />
<glyph horiz-adv-x="1348" d="M -41 197 L 1032 1280 L 227 1280 L 274 1518 L 1403 1518 L 1362 1303 L 295 227 L 1149 227 L 1102 0 L -84 0 L -41 197 Z" unicode="Z" />
<glyph horiz-adv-x="1001" d="M 416 1589 L 987 1589 L 944 1372 L 612 1372 L 289 -127 L 627 -127 L 584 -338 L 6 -338 L 416 1589 Z" unicode="[" />
<glyph horiz-adv-x="1094" d="M 170 1518 L 399 1518 L 924 0 L 696 0 L 170 1518 Z" unicode="\" />
<glyph horiz-adv-x="1001" d="M -2 -127 L 332 -127 L 655 1372 L 322 1372 L 367 1589 L 940 1589 L 530 -338 L -45 -338 L -2 -127 Z" unicode="]" />
<glyph horiz-adv-x="1208" d="M 657 1526 L 911 1526 L 1141 1176 L 918 1176 L 756 1370 L 508 1176 L 279 1176 L 657 1526 Z" unicode="^" />
<glyph horiz-adv-x="928" d="M -258 -98 L 821 -98 L 784 -289 L -295 -289 L -258 -98 Z" unicode="_" />
<glyph horiz-adv-x="1208" d="M 387 1612 L 666 1612 L 891 1262 L 684 1262 L 387 1612 Z" unicode="`" />
<glyph horiz-adv-x="1266" d="M 381 -20 C 301 -20 236 -12 184 2 C 132 17 90 38 59 66 C 28 94 6 127 -5 166 C -17 204 -24 247 -25 295 C -25 385 -9 460 23 519 C 55 577 101 624 163 658 C 225 692 300 716 390 730 C 479 743 581 750 696 750 L 844 750 C 847 765 849 779 851 793 C 853 806 854 819 854 831 C 854 851 850 868 843 883 C 835 898 822 910 803 920 C 784 930 759 937 727 942 C 695 947 654 950 604 950 C 580 950 554 948 526 944 C 498 940 470 936 443 930 C 415 924 389 916 364 908 C 339 900 317 891 299 881 L 207 1073 C 229 1087 257 1100 289 1112 C 321 1124 357 1134 395 1144 C 433 1153 473 1160 516 1166 C 558 1171 602 1174 647 1174 C 723 1174 787 1169 840 1160 C 893 1150 937 1136 971 1118 C 1005 1099 1030 1076 1048 1048 C 1066 1020 1077 988 1083 952 C 1088 915 1088 874 1083 829 C 1078 783 1070 734 1059 680 L 983 330 C 977 305 974 285 972 269 C 970 253 972 240 977 231 C 982 222 992 216 1006 213 C 1020 209 1040 208 1067 209 L 1024 2 C 1016 0 1004 -1 986 -1 C 968 -1 947 -2 922 -2 C 898 -2 877 0 859 3 C 841 6 825 12 812 20 C 799 28 789 39 781 53 C 773 67 768 84 766 106 C 728 65 677 34 613 12 C 549 -9 472 -20 381 -20 Z M 444 184 C 496 184 541 189 579 200 C 617 210 649 228 676 252 C 703 276 726 307 744 347 C 762 387 777 436 791 494 L 803 553 L 662 553 C 582 553 514 550 458 544 C 401 538 355 527 319 511 C 283 495 256 471 240 441 C 223 411 215 371 215 322 C 215 300 218 281 225 264 C 232 247 244 233 262 221 C 279 209 302 199 332 193 C 361 187 398 184 444 184 Z" unicode="a" />
<glyph horiz-adv-x="1319" d="M 643 -18 C 579 -18 524 -14 476 -8 C 428 -2 388 7 354 19 C 320 31 293 46 273 64 C 252 81 237 101 227 123 L 154 -10 L -18 8 L 319 1589 L 555 1589 L 440 1069 C 480 1105 529 1132 586 1149 C 642 1165 713 1174 797 1174 C 877 1174 944 1163 999 1142 C 1053 1121 1097 1092 1130 1055 C 1163 1017 1187 973 1201 923 C 1215 872 1223 817 1223 758 C 1223 720 1220 682 1215 642 C 1210 602 1203 561 1194 520 C 1175 436 1152 361 1124 295 C 1096 228 1061 171 1018 125 C 975 79 923 43 862 19 C 800 -5 727 -18 643 -18 Z M 610 197 C 662 197 706 204 744 219 C 781 233 813 255 839 284 C 865 313 887 349 905 392 C 923 434 938 484 952 541 C 958 571 964 600 968 628 C 972 656 975 683 975 709 C 975 744 970 776 961 805 C 952 834 937 859 917 879 C 896 899 869 915 835 927 C 801 938 760 944 711 944 C 660 944 615 938 576 928 C 537 918 503 900 473 874 C 443 848 418 812 397 768 C 376 724 358 668 344 600 C 336 569 331 539 327 511 C 323 483 322 456 322 432 C 322 392 327 358 338 328 C 348 298 365 274 388 255 C 411 235 441 221 477 211 C 513 201 558 197 610 197 Z" unicode="b" />
<glyph horiz-adv-x="1137" d="M 518 -20 C 424 -20 345 -9 282 13 C 219 35 169 65 131 104 C 93 142 65 188 49 241 C 33 293 25 350 25 412 C 25 448 26 485 30 522 C 34 558 39 595 47 633 C 64 717 88 793 120 860 C 151 926 191 983 240 1030 C 289 1076 348 1112 418 1137 C 488 1161 570 1174 664 1174 C 727 1174 782 1168 830 1158 C 877 1148 918 1134 953 1117 C 988 1099 1018 1079 1043 1056 C 1068 1033 1090 1009 1110 985 L 907 823 C 897 836 885 850 872 864 C 859 878 843 890 823 902 C 803 914 779 923 751 931 C 722 938 687 942 645 942 C 595 942 550 935 511 922 C 472 908 438 888 409 860 C 379 832 354 796 334 752 C 314 708 297 655 285 594 C 273 541 268 488 268 436 C 268 400 272 367 282 337 C 291 307 306 281 327 260 C 348 238 376 222 410 210 C 444 198 487 193 537 193 C 561 193 584 194 606 197 C 628 199 649 204 670 211 C 691 217 712 226 734 238 C 755 249 777 263 801 281 L 936 121 C 902 93 868 71 835 53 C 801 35 767 20 733 9 C 699 -1 664 -9 628 -13 C 592 -17 556 -20 518 -20 Z" unicode="c" />
<glyph horiz-adv-x="1319" d="M 446 -18 C 366 -18 298 -7 244 13 C 189 33 145 62 112 99 C 79 136 55 180 41 230 C 27 280 20 335 20 395 C 20 432 22 471 28 511 C 34 551 41 593 51 635 C 69 717 92 792 120 859 C 147 925 182 982 225 1029 C 267 1075 319 1111 380 1136 C 441 1161 514 1174 600 1174 C 661 1174 714 1170 759 1164 C 804 1157 842 1148 873 1136 C 904 1124 929 1109 949 1091 C 968 1073 983 1054 993 1032 L 1116 1589 L 1356 1589 L 1018 10 L 834 -8 L 842 92 C 821 72 798 55 772 41 C 746 27 717 15 685 7 C 653 -1 617 -8 577 -12 C 537 -16 494 -18 446 -18 Z M 532 197 C 582 197 627 202 666 212 C 705 222 739 241 769 267 C 799 293 824 328 845 372 C 866 416 884 473 899 541 C 913 601 920 658 920 711 C 920 750 914 784 904 814 C 893 843 876 867 853 887 C 830 907 800 921 764 931 C 727 941 683 946 631 946 C 579 946 534 938 497 924 C 460 909 428 887 402 858 C 376 829 354 793 336 750 C 318 706 303 656 291 600 C 285 570 280 540 276 512 C 272 484 270 457 270 432 C 270 397 274 365 283 336 C 291 307 306 282 326 262 C 346 241 372 225 406 214 C 440 202 482 197 532 197 Z" unicode="d" />
<glyph horiz-adv-x="1200" d="M 514 -23 C 418 -23 339 -11 276 11 C 213 33 163 64 125 103 C 87 142 61 188 46 240 C 30 292 23 348 23 408 C 23 446 25 483 29 521 C 33 558 39 595 47 633 C 63 717 87 792 119 859 C 150 926 190 983 239 1029 C 288 1075 347 1111 416 1136 C 484 1161 565 1174 657 1174 C 745 1174 818 1164 876 1145 C 933 1126 978 1101 1012 1069 C 1046 1037 1069 999 1082 957 C 1095 915 1102 871 1102 825 C 1102 799 1100 772 1098 744 C 1095 715 1091 685 1087 655 C 1083 625 1078 594 1072 564 C 1066 533 1061 503 1055 475 L 250 475 L 250 430 C 250 394 254 362 264 332 C 273 302 289 277 311 255 C 333 233 363 216 401 204 C 438 192 485 186 541 186 C 609 186 671 193 729 208 C 786 222 837 244 881 272 L 977 92 C 941 68 905 49 868 35 C 831 20 793 8 755 0 C 717 -8 677 -14 637 -18 C 597 -21 556 -23 514 -23 Z M 631 958 C 583 958 540 951 504 939 C 468 927 436 909 409 886 C 381 862 358 833 339 799 C 320 765 304 726 291 682 L 866 682 C 870 701 873 718 875 733 C 877 747 879 764 879 784 C 879 810 875 833 868 855 C 860 876 847 894 828 910 C 809 925 784 937 752 945 C 720 953 679 958 631 958 Z" unicode="e" />
<glyph horiz-adv-x="838" d="M 139 1147 L 354 1147 L 381 1266 C 393 1326 410 1377 431 1421 C 452 1465 480 1501 515 1530 C 549 1559 592 1581 643 1595 C 694 1609 756 1616 829 1616 C 862 1616 891 1616 915 1616 C 939 1616 958 1615 971 1614 L 930 1407 L 834 1407 C 795 1407 763 1403 738 1395 C 712 1387 691 1376 675 1362 C 658 1347 645 1329 636 1309 C 627 1288 620 1265 614 1239 L 594 1147 L 870 1147 L 827 930 L 549 930 L 279 -338 L 39 -338 L 309 930 L 94 930 L 139 1147 Z" unicode="f" />
<glyph horiz-adv-x="1249" d="M 586 418 C 494 418 416 426 352 442 C 337 421 330 397 330 371 C 330 360 331 350 334 342 C 336 333 342 326 350 320 C 358 314 369 309 384 306 C 398 302 418 301 442 301 C 548 299 638 294 713 284 C 787 274 848 259 896 237 C 943 215 977 187 999 151 C 1021 115 1032 70 1032 16 C 1032 -62 1018 -125 992 -175 C 966 -225 927 -264 875 -293 C 823 -321 758 -341 682 -352 C 605 -362 516 -367 416 -367 C 318 -367 235 -361 165 -351 C 95 -340 37 -323 -8 -301 C -53 -278 -86 -249 -108 -213 C -130 -177 -141 -134 -141 -84 C -141 -37 -133 3 -118 39 C -102 75 -81 105 -54 130 C -27 155 4 175 41 190 C 77 205 117 216 160 223 C 143 239 131 259 125 281 C 118 303 115 327 115 352 C 115 386 122 417 136 446 C 150 475 169 501 193 524 C 163 552 142 583 129 619 C 115 654 109 693 109 737 C 109 813 119 879 141 934 C 162 989 194 1034 237 1070 C 280 1106 334 1132 399 1149 C 463 1165 539 1174 627 1174 C 645 1174 665 1173 685 1172 C 705 1171 726 1170 748 1169 L 1219 1247 L 1186 1040 L 1012 1040 C 1037 1014 1057 983 1072 945 C 1086 907 1094 867 1094 823 C 1094 683 1051 581 966 516 C 881 450 754 418 586 418 Z M 453 -184 C 511 -184 560 -182 602 -178 C 643 -173 677 -164 704 -151 C 730 -138 750 -121 763 -99 C 775 -77 782 -48 782 -14 C 782 10 774 31 760 47 C 745 63 722 76 691 86 C 659 95 619 101 570 105 C 520 109 461 111 391 111 C 335 111 289 107 253 100 C 217 93 189 83 168 69 C 147 55 133 39 125 19 C 117 -1 113 -23 113 -49 C 113 -70 119 -89 131 -106 C 143 -122 163 -136 190 -148 C 217 -159 252 -168 296 -174 C 339 -180 391 -184 453 -184 Z M 588 604 C 676 604 743 622 788 658 C 833 694 856 749 856 821 C 856 843 851 864 843 882 C 834 900 820 916 801 929 C 781 942 756 952 725 959 C 693 965 655 969 610 969 C 521 969 454 951 410 915 C 366 879 344 824 344 748 C 344 726 347 707 355 690 C 363 672 376 657 395 644 C 413 631 438 621 470 614 C 501 607 540 604 588 604 Z" unicode="g" />
<glyph horiz-adv-x="1274" d="M 317 1589 L 555 1589 L 442 1069 C 457 1083 475 1096 495 1109 C 515 1121 539 1132 565 1142 C 591 1152 621 1159 654 1165 C 686 1171 723 1174 764 1174 C 834 1174 894 1167 942 1155 C 990 1143 1028 1125 1058 1103 C 1088 1081 1109 1054 1123 1023 C 1137 991 1145 957 1147 919 C 1149 881 1148 840 1142 796 C 1136 752 1128 706 1118 659 L 977 0 L 739 0 L 874 633 C 880 661 885 688 890 714 C 894 740 896 764 896 786 C 896 808 892 829 886 847 C 879 865 867 881 850 894 C 832 907 809 917 780 925 C 750 932 713 936 668 936 C 614 936 570 928 534 914 C 498 899 468 879 445 853 C 421 827 403 797 389 763 C 375 728 364 691 356 651 L 219 0 L -20 0 L 317 1589 Z" unicode="h" />
<glyph horiz-adv-x="543" d="M 236 1147 L 471 1147 L 229 0 L -10 0 L 236 1147 Z M 315 1534 L 555 1534 L 502 1272 L 260 1272 L 315 1534 Z" unicode="i" />
<glyph horiz-adv-x="543" d="M -188 -152 L -170 -152 C -142 -152 -119 -149 -101 -145 C -83 -140 -68 -131 -57 -119 C -45 -107 -36 -90 -29 -69 C -21 -48 -14 -22 -8 10 L 236 1147 L 471 1147 L 225 -16 C 211 -85 194 -141 176 -184 C 158 -226 135 -259 107 -283 C 79 -307 46 -323 7 -331 C -32 -339 -80 -344 -137 -344 L -229 -344 L -188 -152 Z M 315 1534 L 555 1534 L 502 1272 L 260 1272 L 315 1534 Z" unicode="j" />
<glyph horiz-adv-x="1133" d="M 319 1589 L 555 1589 L 350 629 L 883 1147 L 1149 1147 L 668 676 L 946 0 L 698 0 L 487 498 L 279 295 L 217 0 L -18 0 L 319 1589 Z" unicode="k" />
<glyph horiz-adv-x="649" d="M 276 -2 C 222 -2 178 4 144 18 C 110 32 86 53 70 82 C 54 110 45 147 45 191 C 45 235 51 288 63 350 L 328 1589 L 567 1589 L 301 344 C 295 318 292 297 291 281 C 290 264 293 250 299 240 C 305 229 315 221 330 217 C 345 213 366 211 393 211 L 436 211 L 395 2 C 385 0 368 0 346 -1 C 323 -1 300 -2 276 -2 Z" unicode="l" />
<glyph horiz-adv-x="1999" d="M 219 1133 L 410 1147 L 403 1059 C 420 1074 439 1089 461 1103 C 482 1117 507 1129 535 1139 C 563 1149 595 1158 631 1164 C 667 1170 708 1174 754 1174 C 800 1174 841 1172 879 1168 C 917 1164 950 1158 979 1148 C 1008 1138 1033 1125 1053 1108 C 1073 1091 1088 1070 1098 1044 C 1131 1080 1181 1110 1247 1136 C 1313 1161 1395 1174 1495 1174 C 1565 1174 1624 1167 1672 1155 C 1719 1143 1757 1125 1786 1103 C 1815 1081 1836 1054 1849 1023 C 1861 991 1868 957 1870 919 C 1872 881 1869 840 1863 796 C 1857 752 1849 706 1839 659 L 1698 0 L 1460 0 L 1595 633 C 1601 661 1606 688 1612 714 C 1617 740 1620 764 1620 786 C 1620 808 1617 829 1611 847 C 1605 865 1593 881 1577 894 C 1560 907 1537 917 1509 925 C 1480 932 1443 936 1399 936 C 1345 936 1301 928 1267 914 C 1232 899 1203 879 1181 854 C 1159 828 1141 798 1129 764 C 1116 729 1105 691 1096 651 L 958 0 L 721 0 L 854 633 C 860 661 865 688 871 714 C 876 740 879 764 879 786 C 879 808 877 829 871 847 C 865 865 853 881 837 894 C 820 907 797 917 768 925 C 739 932 702 936 657 936 C 604 936 560 928 526 914 C 491 899 462 879 440 853 C 418 827 400 797 388 763 C 375 728 364 691 356 651 L 219 0 L -20 0 L 219 1133 Z" unicode="m" />
<glyph horiz-adv-x="1274" d="M 219 1133 L 410 1147 L 403 1059 C 420 1074 440 1089 463 1103 C 485 1117 511 1129 541 1139 C 570 1149 603 1158 640 1164 C 676 1170 718 1174 764 1174 C 834 1174 894 1167 942 1155 C 990 1143 1028 1125 1058 1103 C 1088 1081 1109 1054 1123 1023 C 1137 991 1145 957 1147 919 C 1149 881 1148 840 1142 796 C 1136 752 1128 706 1118 659 L 977 0 L 739 0 L 874 633 C 880 661 885 688 890 714 C 894 740 896 764 896 786 C 896 808 892 829 886 847 C 879 865 867 881 850 894 C 832 907 809 917 780 925 C 750 932 713 936 668 936 C 614 936 570 928 534 914 C 498 899 468 879 445 853 C 421 827 403 797 389 763 C 375 728 364 691 356 651 L 219 0 L -20 0 L 219 1133 Z" unicode="n" />
<glyph horiz-adv-x="1282" d="M 535 -23 C 443 -23 365 -12 301 9 C 237 30 184 60 143 99 C 102 138 72 185 53 240 C 34 295 25 356 25 424 C 25 456 26 490 30 525 C 34 559 39 595 47 633 C 67 730 96 813 133 881 C 169 949 213 1005 265 1049 C 317 1092 376 1124 443 1144 C 510 1164 585 1174 668 1174 C 759 1174 837 1163 902 1142 C 967 1120 1020 1090 1062 1052 C 1103 1013 1133 966 1153 911 C 1172 856 1182 795 1182 729 C 1182 696 1179 662 1175 627 C 1170 592 1164 556 1157 518 C 1136 420 1108 337 1072 269 C 1036 201 992 145 940 102 C 888 58 828 27 761 7 C 693 -13 618 -23 535 -23 Z M 549 193 C 601 193 648 200 688 214 C 728 228 763 249 793 277 C 823 305 848 341 868 385 C 888 428 904 479 918 539 C 924 565 928 592 931 619 C 934 645 936 670 936 694 C 936 731 931 765 921 796 C 911 826 895 853 873 875 C 851 897 822 914 786 926 C 750 938 707 944 655 944 C 601 944 553 936 513 922 C 473 908 438 886 408 857 C 378 828 354 792 334 748 C 314 704 297 653 285 594 C 272 542 266 490 266 438 C 266 401 271 368 281 338 C 291 308 307 282 330 260 C 352 238 381 222 417 210 C 453 198 497 193 549 193 Z" unicode="o" />
<glyph horiz-adv-x="1319" d="M 221 1133 L 410 1147 L 403 1055 C 443 1095 495 1125 557 1145 C 619 1164 699 1174 797 1174 C 877 1174 944 1163 999 1142 C 1053 1121 1097 1092 1130 1055 C 1163 1017 1187 973 1201 923 C 1215 872 1223 817 1223 758 C 1223 720 1220 682 1215 642 C 1210 602 1203 561 1194 520 C 1175 436 1152 361 1124 295 C 1096 228 1061 171 1018 125 C 975 79 923 43 862 19 C 800 -5 727 -18 643 -18 C 579 -18 525 -15 479 -9 C 433 -3 395 5 364 17 C 332 29 307 43 289 60 C 270 77 256 97 246 119 L 147 -338 L -90 -338 L 221 1133 Z M 610 197 C 662 197 706 204 744 219 C 781 233 813 255 839 284 C 865 313 887 349 905 392 C 923 434 938 484 952 541 C 958 571 964 600 968 628 C 972 656 975 683 975 709 C 975 744 970 776 961 805 C 952 834 937 859 917 879 C 896 899 869 915 835 927 C 801 938 760 944 711 944 C 660 944 615 938 576 928 C 537 918 503 900 473 874 C 443 848 418 812 397 768 C 376 724 358 668 344 600 C 336 569 331 539 327 511 C 323 483 322 456 322 432 C 322 392 327 358 338 328 C 348 298 365 274 388 255 C 411 235 441 221 477 211 C 513 201 558 197 610 197 Z" unicode="p" />
<glyph horiz-adv-x="1319" d="M 793 74 C 753 40 705 16 651 2 C 596 -11 528 -18 446 -18 C 366 -18 298 -7 244 13 C 189 33 145 62 112 99 C 79 136 55 180 41 230 C 27 280 20 335 20 395 C 20 432 22 471 28 511 C 34 551 41 593 51 635 C 69 717 92 792 120 859 C 147 925 182 982 225 1029 C 267 1075 319 1111 380 1136 C 441 1161 514 1174 600 1174 C 661 1174 715 1171 761 1165 C 807 1159 846 1151 880 1139 C 913 1127 941 1112 963 1094 C 985 1076 1002 1054 1016 1030 L 1094 1157 L 1260 1143 L 946 -338 L 707 -338 L 793 74 Z M 532 197 C 582 197 627 202 666 212 C 705 222 739 241 769 267 C 799 293 824 328 845 372 C 866 416 884 473 899 541 C 913 601 920 658 920 711 C 920 750 914 784 904 814 C 893 843 876 867 853 887 C 830 907 800 921 764 931 C 727 941 683 946 631 946 C 579 946 534 938 497 924 C 460 909 428 887 402 858 C 376 829 354 793 336 750 C 318 706 303 656 291 600 C 285 570 280 540 276 512 C 272 484 270 457 270 432 C 270 397 274 365 283 336 C 291 307 306 282 326 262 C 346 241 372 225 406 214 C 440 202 482 197 532 197 Z" unicode="q" />
<glyph horiz-adv-x="741" d="M 221 1133 L 412 1147 L 401 1032 C 432 1072 479 1103 542 1126 C 604 1149 683 1161 778 1161 L 731 924 C 665 923 611 915 567 901 C 523 886 486 865 457 838 C 428 810 405 777 389 738 C 372 699 358 655 348 606 L 219 0 L -18 0 L 221 1133 Z" unicode="r" />
<glyph horiz-adv-x="1081" d="M 453 -20 C 342 -20 241 -4 150 27 C 59 59 -17 102 -80 156 L 76 326 C 102 305 130 286 162 269 C 193 252 226 237 260 225 C 294 213 330 203 366 196 C 402 189 439 186 475 186 C 506 186 535 187 561 191 C 587 195 610 202 630 213 C 649 224 664 239 675 259 C 686 278 692 304 692 336 C 692 358 685 376 672 392 C 659 407 642 420 620 431 C 598 442 572 452 544 460 C 515 468 485 477 455 485 C 415 495 375 508 334 522 C 293 536 256 554 223 576 C 189 598 162 627 141 661 C 119 695 109 739 109 791 C 109 859 120 918 143 967 C 166 1015 198 1055 240 1086 C 281 1116 330 1139 388 1153 C 445 1167 508 1174 578 1174 C 632 1174 682 1170 728 1163 C 774 1155 816 1145 854 1133 C 892 1121 927 1107 958 1091 C 989 1075 1016 1058 1040 1042 L 887 854 C 869 865 850 876 829 888 C 807 900 783 910 756 920 C 729 929 699 937 667 943 C 634 949 597 952 557 952 C 490 952 439 942 405 923 C 371 903 354 869 354 821 C 354 800 360 782 372 768 C 384 754 400 741 420 731 C 440 720 464 710 492 702 C 520 693 550 684 582 676 C 624 664 667 650 709 636 C 751 621 788 602 821 579 C 854 555 881 526 901 492 C 921 457 932 414 932 362 C 932 288 919 227 895 178 C 871 129 837 90 795 61 C 752 31 701 10 643 -1 C 585 -13 521 -20 453 -20 Z" unicode="s" />
<glyph horiz-adv-x="860" d="M 139 1147 L 348 1147 L 455 1454 L 647 1493 L 571 1147 L 846 1147 L 803 930 L 526 930 L 406 365 C 400 341 396 319 395 300 C 394 280 398 264 406 251 C 414 238 429 228 449 221 C 469 214 497 211 535 211 L 645 211 L 604 0 C 596 0 585 -1 571 -1 C 557 -1 543 -2 529 -2 C 514 -2 500 -2 486 -2 C 472 -2 460 -2 451 -2 C 376 -2 317 6 274 22 C 230 38 199 62 179 93 C 159 124 149 162 149 207 C 149 251 154 302 166 360 L 291 930 L 94 930 L 139 1147 Z" unicode="t" />
<glyph horiz-adv-x="1260" d="M 530 -23 C 450 -23 381 -17 325 -5 C 268 7 221 24 185 47 C 148 69 120 97 101 131 C 81 164 69 202 63 245 C 57 287 56 334 61 385 C 66 436 75 491 88 551 L 215 1147 L 455 1147 L 324 530 C 317 498 311 468 306 440 C 301 411 299 384 300 360 C 301 336 306 314 314 294 C 322 274 335 257 354 243 C 373 229 399 218 431 210 C 463 202 503 199 551 199 C 604 199 647 205 679 218 C 711 231 737 250 757 275 C 776 299 791 329 801 365 C 811 400 821 440 831 485 L 973 1147 L 1206 1147 L 1063 473 C 1043 383 1022 307 998 244 C 974 181 943 130 904 90 C 864 50 815 22 755 4 C 695 -14 620 -23 530 -23 Z" unicode="u" />
<glyph horiz-adv-x="1143" d="M 94 1147 L 340 1147 L 465 289 L 950 1147 L 1210 1147 L 530 -10 L 285 -10 L 94 1147 Z" unicode="v" />
<glyph horiz-adv-x="1798" d="M 106 1147 L 352 1147 L 436 365 L 856 1147 L 1100 1147 L 1194 365 L 1604 1147 L 1855 1147 L 1237 -10 L 1006 -10 L 907 809 L 467 -10 L 236 -10 L 106 1147 Z" unicode="w" />
<glyph horiz-adv-x="1126" d="M 485 420 L 123 0 L -143 0 L 397 610 L 152 1147 L 399 1147 L 569 778 L 885 1147 L 1149 1147 L 655 590 L 928 0 L 680 0 L 485 420 Z" unicode="x" />
<glyph horiz-adv-x="1100" d="M 59 -346 C 32 -346 6 -345 -19 -345 C -45 -344 -64 -343 -78 -342 L -41 -152 L 47 -152 C 75 -152 99 -150 117 -147 C 135 -144 150 -139 162 -131 C 174 -123 185 -113 194 -100 C 203 -86 213 -69 225 -49 L 272 29 L 92 1147 L 342 1147 L 457 332 L 913 1147 L 1171 1147 L 442 -98 C 414 -146 388 -186 364 -218 C 339 -250 312 -275 284 -294 C 255 -313 223 -326 187 -334 C 151 -342 108 -346 59 -346 Z" unicode="y" />
<glyph horiz-adv-x="1026" d="M -72 172 L 676 930 L 127 930 L 170 1147 L 1036 1147 L 1001 971 L 252 203 L 858 203 L 817 0 L -109 0 L -72 172 Z" unicode="z" />
<glyph horiz-adv-x="1077" d="M 479 -338 C 415 -338 361 -333 317 -325 C 272 -317 235 -304 207 -287 C 179 -270 158 -249 145 -224 C 131 -199 125 -170 125 -137 C 125 -109 130 -77 141 -42 C 152 -7 166 29 183 67 C 199 105 217 143 236 181 C 255 219 273 256 290 290 C 306 324 320 354 331 382 C 342 410 348 432 348 449 C 348 465 344 477 336 487 C 328 496 314 503 295 509 C 276 514 251 517 220 519 C 188 521 150 522 104 522 L 145 727 C 201 727 248 728 286 732 C 323 735 353 742 375 754 C 397 766 412 783 421 806 C 429 828 434 859 434 899 C 434 920 433 943 431 969 C 429 995 428 1021 426 1049 C 424 1077 422 1105 420 1133 C 418 1161 418 1188 418 1214 C 418 1340 451 1434 517 1496 C 583 1558 681 1589 811 1589 L 1069 1589 L 1026 1372 L 872 1372 C 830 1372 796 1368 768 1361 C 740 1354 717 1343 700 1328 C 683 1312 671 1292 664 1268 C 656 1244 653 1214 653 1180 C 653 1160 653 1139 655 1115 C 657 1091 658 1067 660 1041 C 662 1015 663 989 665 962 C 667 935 668 909 668 885 C 668 853 665 824 661 797 C 656 769 647 744 635 722 C 623 700 606 680 585 664 C 563 648 536 635 502 625 C 538 612 562 595 576 574 C 589 553 596 528 596 498 C 596 477 590 452 580 422 C 570 392 557 359 541 325 C 525 291 508 256 490 220 C 472 184 455 149 439 115 C 423 81 410 50 400 22 C 390 -5 385 -29 385 -47 C 385 -75 397 -96 421 -108 C 445 -120 484 -127 539 -127 L 702 -127 L 659 -338 L 479 -338 L 479 -338 Z" unicode="{" />
<glyph horiz-adv-x="719" d="M 238 1589 L 477 1589 L 477 -338 L 238 -338 L 238 1589 Z" unicode="|" />
<glyph horiz-adv-x="1077" d="M -4 -127 L 147 -127 C 188 -127 223 -123 251 -115 C 279 -107 302 -96 320 -80 C 337 -64 349 -43 357 -18 C 365 6 369 36 369 72 C 369 90 368 111 366 135 C 364 159 363 184 361 210 C 359 236 358 262 356 289 C 354 315 354 341 354 367 C 354 398 356 427 361 455 C 365 482 374 507 386 529 C 398 551 415 571 437 587 C 458 603 486 617 520 627 C 485 639 461 655 447 677 C 433 698 426 724 426 754 C 426 774 431 799 441 829 C 451 859 464 891 480 925 C 496 959 513 993 531 1029 C 549 1065 566 1099 582 1132 C 598 1165 611 1196 621 1224 C 631 1252 637 1275 637 1294 C 637 1322 625 1342 601 1354 C 577 1366 537 1372 481 1372 L 319 1372 L 362 1589 L 543 1589 C 606 1589 660 1584 705 1576 C 750 1568 787 1555 816 1539 C 844 1522 865 1501 879 1476 C 892 1451 899 1422 899 1389 C 899 1361 893 1330 882 1295 C 871 1259 857 1223 841 1185 C 824 1147 806 1108 786 1070 C 766 1032 748 995 732 961 C 715 927 701 896 690 868 C 679 840 674 819 674 803 C 674 787 678 774 686 764 C 694 754 707 747 726 742 C 745 736 770 733 802 731 C 833 729 872 729 918 729 L 877 524 C 819 524 772 522 735 519 C 698 515 669 508 647 496 C 625 484 609 467 601 444 C 592 421 588 390 588 352 C 588 330 588 307 590 281 C 592 255 594 228 596 201 C 598 173 599 146 601 118 C 603 90 604 63 604 37 C 604 -89 571 -183 505 -245 C 439 -307 341 -338 211 -338 L -47 -338 L -4 -127 Z" unicode="}" />
<glyph horiz-adv-x="1208" d="M 901 809 C 864 809 831 814 803 825 C 774 836 747 848 722 862 C 697 875 673 887 650 898 C 627 909 603 915 578 915 C 548 915 519 905 493 887 C 466 868 441 845 418 819 L 297 940 C 341 994 387 1035 435 1065 C 483 1095 533 1110 586 1110 C 622 1110 655 1104 684 1093 C 712 1082 739 1070 764 1057 C 789 1044 813 1032 836 1022 C 859 1011 883 1006 909 1006 C 936 1006 962 1014 986 1032 C 1010 1050 1037 1074 1065 1106 L 1188 987 C 1138 928 1090 884 1043 854 C 996 824 949 809 901 809 Z" unicode="~" />
<glyph horiz-adv-x="461" d="" unicode="" />
<glyph horiz-adv-x="778" d="M 350 1067 L 563 1067 L 358 0 L 96 0 L 350 1067 Z M 408 1518 L 696 1518 L 635 1217 L 346 1217 L 408 1518 Z" unicode="" />
<glyph horiz-adv-x="1135" d="M 354 0 C 292 12 240 30 198 55 C 156 80 122 110 96 146 C 70 181 52 221 41 266 C 30 311 25 360 25 412 C 25 448 26 485 30 522 C 34 558 39 595 47 633 C 63 713 86 784 114 848 C 142 912 179 966 224 1012 C 268 1057 322 1093 384 1119 C 446 1145 518 1161 602 1167 L 631 1294 L 858 1294 L 829 1155 C 865 1147 897 1138 925 1126 C 953 1114 979 1101 1002 1087 C 1024 1072 1044 1056 1062 1039 C 1080 1021 1096 1003 1110 985 L 907 823 C 897 836 885 850 872 864 C 859 878 843 890 823 902 C 803 914 779 923 751 931 C 722 938 687 942 645 942 C 595 942 550 935 511 922 C 472 908 438 888 409 860 C 379 832 354 796 334 752 C 314 708 297 655 285 594 C 273 541 268 488 268 436 C 268 400 272 367 282 337 C 291 307 306 281 327 260 C 348 238 376 222 410 210 C 444 198 487 193 537 193 C 561 193 583 194 604 196 C 625 198 646 202 666 208 C 686 214 707 222 729 234 C 751 246 775 261 801 281 L 936 121 C 906 97 877 77 848 61 C 819 45 790 31 760 21 C 730 11 701 3 671 -2 C 641 -7 610 -10 578 -12 L 543 -193 L 313 -193 L 354 0 Z" unicode="" />
<glyph horiz-adv-x="1274" d="M 739 -16 C 694 -16 652 -13 614 -8 C 576 -2 540 4 507 14 C 474 23 443 34 415 47 C 387 59 360 73 336 88 C 290 56 235 32 169 17 C 103 2 22 -3 -74 0 L -37 205 C 29 205 83 209 123 217 C 163 225 195 238 218 255 C 240 271 257 292 267 316 C 277 340 285 367 291 399 C 298 435 302 477 302 526 C 302 575 300 627 297 682 L 57 682 L 98 885 L 287 885 L 287 958 C 287 1048 296 1129 316 1201 C 335 1273 365 1335 406 1386 C 446 1436 498 1475 561 1503 C 623 1530 698 1544 786 1544 C 840 1544 890 1540 936 1534 C 982 1528 1023 1519 1061 1509 C 1098 1499 1132 1487 1162 1474 C 1192 1461 1220 1448 1245 1434 L 1110 1233 C 1091 1244 1069 1255 1045 1265 C 1021 1275 994 1285 966 1293 C 938 1301 907 1307 875 1312 C 843 1316 810 1319 776 1319 C 726 1319 684 1309 651 1291 C 617 1273 591 1247 571 1213 C 551 1179 538 1139 530 1092 C 522 1044 518 992 518 934 L 518 885 L 913 885 L 874 682 L 524 682 C 525 632 525 583 523 535 C 521 487 516 442 508 401 C 502 374 496 349 489 325 C 482 301 474 279 465 258 C 501 240 541 226 586 214 C 630 202 679 197 733 197 C 766 197 793 199 815 204 C 836 208 854 218 868 232 C 882 246 893 265 901 291 C 909 317 917 351 924 393 L 932 446 L 1141 446 L 1124 358 C 1110 285 1094 225 1074 177 C 1054 129 1029 90 999 62 C 969 33 932 13 890 1 C 848 -10 797 -16 739 -16 Z" unicode="" />
<glyph horiz-adv-x="1298" d="M 117 670 L 508 670 L 186 1518 L 438 1518 L 668 877 L 1178 1518 L 1434 1518 L 750 670 L 1130 670 L 1094 477 L 705 477 L 676 340 L 1063 340 L 1026 147 L 635 147 L 604 0 L 369 0 L 399 147 L 14 147 L 51 340 L 440 340 L 469 477 L 84 477 L 117 670 Z" unicode="" />
<glyph horiz-adv-x="719" d="M 238 465 L 477 465 L 477 -338 L 238 -338 L 238 465 Z M 238 1589 L 477 1589 L 477 786 L 238 786 L 238 1589 Z" unicode="" />
<glyph horiz-adv-x="1178" d="M 195 -14 C 177 -14 160 -13 142 -13 C 124 -13 107 -12 91 -12 C 75 -12 62 -11 50 -11 C 38 -11 29 -10 23 -10 L 59 186 L 172 186 C 212 186 245 189 271 197 C 297 205 317 216 333 232 C 348 248 360 267 368 290 C 376 313 384 340 391 371 L 408 453 C 304 471 229 503 182 550 C 134 597 111 655 111 725 C 111 791 122 846 144 890 C 166 934 195 969 233 996 C 270 1023 313 1043 363 1055 C 413 1067 466 1075 522 1077 L 539 1149 C 550 1203 564 1253 582 1300 C 600 1346 625 1387 657 1421 C 689 1455 731 1481 781 1501 C 831 1520 895 1530 971 1530 C 988 1530 1005 1529 1023 1529 C 1041 1529 1057 1528 1073 1528 C 1089 1528 1103 1527 1115 1527 C 1127 1527 1137 1526 1143 1526 L 1102 1319 L 993 1319 C 951 1319 918 1315 892 1307 C 866 1299 846 1288 830 1273 C 814 1258 803 1240 795 1218 C 787 1196 780 1172 774 1145 L 758 1065 C 812 1056 858 1043 897 1026 C 935 1009 967 989 993 965 C 1018 941 1037 914 1049 884 C 1061 854 1067 821 1067 786 C 1067 718 1055 661 1032 617 C 1009 573 978 538 939 512 C 900 486 855 467 803 456 C 751 445 697 439 641 438 L 627 369 C 616 314 602 263 584 217 C 566 170 541 129 509 95 C 477 61 435 34 385 15 C 334 -4 271 -14 195 -14 Z M 612 592 C 648 592 681 594 712 599 C 743 603 770 612 793 625 C 816 637 834 655 848 678 C 861 701 868 731 868 768 C 868 790 862 809 851 827 C 839 844 822 859 798 871 C 774 883 743 893 705 899 C 667 905 622 909 569 909 C 532 909 498 907 466 903 C 434 899 407 891 384 879 C 360 867 342 849 329 826 C 315 803 309 773 309 735 C 309 713 314 694 325 676 C 336 658 354 643 378 631 C 402 618 433 608 471 602 C 509 595 556 592 612 592 Z" unicode="" />
<glyph horiz-adv-x="1208" d="M 440 1509 L 657 1509 L 606 1262 L 389 1262 L 440 1509 Z M 868 1509 L 1085 1509 L 1034 1262 L 817 1262 L 868 1509 Z" unicode="" />
<glyph horiz-adv-x="1679" d="M 858 258 C 690 258 565 301 483 389 C 401 476 360 602 360 768 C 360 856 372 932 396 996 C 420 1060 454 1113 498 1155 C 542 1197 596 1228 659 1248 C 721 1268 791 1278 868 1278 C 1022 1278 1144 1233 1235 1145 L 1124 1028 C 1091 1058 1053 1081 1010 1097 C 967 1113 920 1122 868 1122 C 756 1122 670 1092 612 1033 C 553 973 524 885 524 768 C 524 652 552 564 608 503 C 664 442 751 412 868 412 C 901 412 931 414 957 419 C 983 424 1007 431 1029 440 C 1050 449 1069 459 1086 471 C 1103 483 1119 496 1135 510 L 1241 401 C 1222 382 1201 364 1178 347 C 1154 329 1127 314 1097 301 C 1066 288 1031 278 992 270 C 952 262 908 258 858 258 Z M 846 -25 C 718 -25 607 -5 512 34 C 416 73 337 128 274 198 C 210 268 163 351 131 447 C 99 543 84 647 84 760 C 84 872 99 976 131 1072 C 163 1168 210 1251 274 1321 C 337 1391 416 1445 512 1485 C 607 1524 718 1544 846 1544 C 972 1544 1083 1524 1178 1485 C 1273 1445 1352 1391 1416 1321 C 1479 1251 1526 1168 1558 1072 C 1590 976 1606 872 1606 760 C 1606 647 1590 543 1558 447 C 1526 351 1479 268 1416 198 C 1352 128 1273 73 1178 34 C 1083 -5 972 -25 846 -25 Z M 846 74 C 962 74 1061 91 1144 126 C 1227 160 1295 208 1349 269 C 1402 330 1441 403 1467 487 C 1492 571 1505 662 1505 760 C 1505 858 1492 949 1467 1033 C 1441 1117 1402 1189 1349 1250 C 1295 1311 1227 1359 1144 1394 C 1061 1428 962 1446 846 1446 C 730 1446 630 1428 547 1394 C 463 1359 395 1311 341 1250 C 287 1189 248 1117 223 1033 C 198 949 186 858 186 760 C 186 662 198 571 223 487 C 248 403 287 330 341 269 C 395 208 463 160 547 126 C 630 91 730 74 846 74 Z" unicode="" />
<glyph horiz-adv-x="1194" d="M 455 573 C 394 573 343 579 303 591 C 262 603 229 620 205 642 C 180 664 162 689 152 718 C 142 747 137 779 137 813 C 137 892 150 956 178 1005 C 205 1054 244 1092 295 1120 C 346 1147 407 1165 479 1175 C 551 1185 631 1190 721 1190 L 842 1190 C 844 1203 845 1216 847 1228 C 849 1240 850 1253 850 1266 C 850 1282 847 1296 841 1308 C 835 1320 824 1329 809 1337 C 794 1345 774 1350 748 1354 C 722 1358 689 1360 649 1360 C 629 1360 607 1358 585 1355 C 563 1352 541 1348 519 1343 C 497 1337 475 1331 455 1324 C 435 1317 417 1310 401 1303 L 328 1458 C 346 1469 367 1480 393 1490 C 418 1500 446 1508 477 1516 C 507 1524 540 1530 575 1535 C 610 1539 646 1542 684 1542 C 776 1542 848 1533 900 1517 C 952 1500 990 1475 1013 1442 C 1035 1408 1046 1367 1045 1317 C 1043 1267 1036 1209 1022 1143 L 958 858 C 954 838 951 821 951 809 C 950 796 952 786 957 779 C 961 772 969 767 981 765 C 992 763 1008 762 1028 762 L 993 592 C 987 590 976 588 962 588 C 947 588 930 588 911 588 C 886 588 863 591 842 599 C 821 606 805 617 793 633 C 779 650 772 671 772 696 C 736 656 691 625 637 604 C 582 583 521 573 455 573 Z M 147 449 L 868 449 L 831 268 L 111 268 L 147 449 Z M 516 743 C 551 743 583 747 613 755 C 643 763 669 776 693 795 C 717 814 737 840 755 872 C 772 904 786 943 797 991 L 807 1038 L 692 1038 C 629 1038 575 1036 530 1032 C 485 1028 448 1019 419 1006 C 390 992 369 973 355 948 C 341 922 334 888 334 846 C 334 830 338 815 344 803 C 350 790 360 779 374 770 C 388 761 406 754 429 750 C 452 745 481 743 516 743 Z" unicode="" />
<glyph horiz-adv-x="1479" d="M 162 571 L 592 1147 L 801 1147 L 387 571 L 557 0 L 348 0 L 162 571 Z M 666 571 L 1096 1147 L 1307 1147 L 893 571 L 1063 0 L 854 0 L 666 571 Z" unicode="" />
<glyph horiz-adv-x="1452" d="M 1133 207 L 895 207 L 981 608 L 172 608 L 219 836 L 1264 836 L 1133 207 Z" unicode="" />
<glyph horiz-adv-x="897" d="M 94 766 L 805 766 L 758 541 L 47 541 L 94 766 Z" unicode="" />
<glyph horiz-adv-x="1679" d="M 844 -25 C 716 -25 605 -5 510 34 C 415 73 336 128 273 198 C 210 268 163 351 131 447 C 99 543 84 647 84 760 C 84 872 99 976 131 1072 C 163 1168 210 1251 273 1321 C 336 1391 415 1445 510 1485 C 605 1524 716 1544 844 1544 C 970 1544 1081 1524 1177 1485 C 1272 1445 1351 1391 1414 1321 C 1477 1251 1524 1168 1556 1072 C 1588 976 1604 872 1604 760 C 1604 647 1588 543 1556 447 C 1524 351 1477 268 1414 198 C 1351 128 1272 73 1177 34 C 1081 -5 970 -25 844 -25 Z M 844 74 C 960 74 1059 91 1143 126 C 1226 160 1294 208 1348 269 C 1402 330 1441 403 1467 487 C 1492 571 1505 662 1505 760 C 1505 858 1492 949 1467 1033 C 1441 1117 1402 1189 1348 1250 C 1294 1311 1226 1359 1143 1394 C 1059 1428 960 1446 844 1446 C 728 1446 628 1428 545 1394 C 461 1359 393 1311 339 1250 C 285 1189 246 1117 221 1033 C 196 949 184 858 184 760 C 184 662 196 571 221 487 C 246 403 285 330 339 269 C 393 208 461 160 545 126 C 628 91 728 74 844 74 Z M 887 637 L 625 637 L 625 272 L 475 272 L 475 1239 L 913 1239 C 982 1239 1039 1232 1084 1218 C 1129 1204 1165 1185 1191 1160 C 1217 1134 1236 1103 1246 1067 C 1256 1030 1262 988 1262 942 C 1262 904 1258 870 1251 838 C 1244 806 1232 777 1215 752 C 1198 727 1175 706 1147 688 C 1118 670 1082 657 1040 649 L 1257 272 L 1094 272 L 887 637 Z M 911 774 C 945 774 975 776 1000 781 C 1024 786 1045 795 1061 808 C 1077 820 1088 837 1096 858 C 1104 878 1108 904 1108 936 C 1108 968 1104 994 1097 1015 C 1089 1036 1078 1053 1062 1065 C 1046 1077 1025 1086 1000 1092 C 974 1097 944 1100 909 1100 L 625 1100 L 625 774 L 911 774 Z" unicode="" />
<glyph horiz-adv-x="1208" d="M 362 1462 L 1141 1462 L 1100 1262 L 322 1262 L 362 1462 Z" unicode="" />
<glyph horiz-adv-x="1145" d="M 575 557 C 500 557 436 567 384 588 C 331 608 288 636 254 672 C 220 707 196 748 181 795 C 165 842 158 892 158 946 C 158 1029 170 1107 195 1180 C 219 1252 255 1315 302 1369 C 348 1423 405 1465 473 1496 C 540 1526 616 1542 702 1542 C 776 1542 839 1531 891 1510 C 943 1488 985 1460 1018 1424 C 1051 1388 1075 1346 1091 1298 C 1106 1250 1114 1200 1114 1147 C 1114 1063 1101 985 1076 913 C 1050 841 1014 778 968 726 C 921 673 864 632 798 602 C 732 572 657 557 575 557 Z M 592 743 C 645 743 692 752 732 772 C 772 792 806 819 833 853 C 860 887 880 927 894 973 C 908 1019 915 1070 915 1124 C 915 1155 910 1184 902 1211 C 894 1237 880 1260 861 1280 C 842 1300 817 1315 787 1326 C 756 1337 718 1343 674 1343 C 622 1343 576 1333 536 1313 C 496 1293 463 1265 437 1230 C 410 1195 390 1154 376 1108 C 362 1061 356 1011 356 958 C 356 927 360 899 368 873 C 376 847 390 824 409 805 C 428 785 452 770 482 759 C 512 748 548 743 592 743 Z" unicode="" />
<glyph horiz-adv-x="1452" d="M 94 248 L 500 248 L 578 608 L 172 608 L 219 836 L 623 836 L 709 1235 L 944 1235 L 860 836 L 1264 836 L 1217 608 L 813 608 L 737 248 L 1137 248 L 1092 23 L 47 23 L 94 248 Z" unicode="" />
<glyph horiz-adv-x="991" d="M 133 690 L 504 979 C 554 1019 595 1051 627 1077 C 658 1103 682 1126 700 1146 C 718 1166 730 1185 736 1204 C 742 1223 745 1246 745 1274 C 745 1304 731 1326 705 1340 C 679 1354 637 1362 580 1362 C 563 1362 545 1361 525 1359 C 505 1357 485 1355 465 1351 C 445 1347 425 1343 405 1338 C 385 1332 366 1326 350 1319 L 293 1473 C 337 1491 384 1505 435 1515 C 485 1525 539 1530 596 1530 C 714 1530 801 1511 857 1474 C 912 1437 940 1382 940 1309 C 940 1261 935 1221 926 1188 C 917 1154 902 1123 880 1094 C 858 1064 829 1034 793 1003 C 756 972 710 935 655 893 L 418 709 L 819 709 L 788 551 L 104 551 L 133 690 Z" unicode="" />
<glyph horiz-adv-x="991" d="M 502 535 C 456 535 413 537 374 543 C 335 548 299 556 266 566 C 232 576 201 588 173 602 C 144 616 117 633 92 651 L 197 791 C 241 761 286 737 334 719 C 382 701 436 692 498 692 C 556 692 602 706 635 736 C 667 766 684 813 684 877 C 684 895 681 911 675 925 C 669 939 660 950 647 960 C 633 970 615 977 592 982 C 569 986 540 989 506 989 L 360 989 L 395 1151 L 575 1151 C 603 1151 627 1153 648 1157 C 669 1161 687 1167 701 1177 C 715 1187 725 1200 732 1217 C 739 1234 743 1256 743 1282 C 743 1312 730 1334 705 1348 C 680 1362 639 1370 582 1370 C 566 1370 549 1369 529 1367 C 509 1365 489 1363 468 1359 C 446 1355 425 1349 403 1343 C 381 1337 360 1329 342 1319 L 274 1464 C 300 1478 328 1490 359 1499 C 390 1508 421 1515 452 1520 C 483 1525 513 1528 541 1530 C 569 1531 594 1532 616 1532 C 723 1532 804 1514 859 1479 C 914 1444 942 1393 942 1327 C 942 1287 938 1252 930 1224 C 922 1195 910 1170 896 1150 C 882 1130 864 1113 844 1100 C 823 1087 800 1077 774 1069 C 809 1053 834 1030 850 998 C 866 966 874 927 874 879 C 874 816 864 763 846 719 C 828 675 802 640 769 613 C 736 585 697 565 651 553 C 605 541 556 535 502 535 Z" unicode="" />
<glyph horiz-adv-x="1208" d="M 895 1612 L 1192 1612 L 748 1262 L 522 1262 L 895 1612 Z" unicode="" />
<glyph horiz-adv-x="1270" d="M 430 -23 C 378 -23 333 -20 295 -14 C 257 -8 223 0 195 12 L 119 -338 L -100 -338 C -78 -236 -58 -146 -42 -68 C -25 9 -10 80 3 143 C 16 205 28 262 39 313 C 49 364 60 413 70 460 C 80 506 89 553 99 599 C 109 645 119 694 131 748 C 142 802 154 861 168 925 C 182 989 197 1063 215 1147 L 455 1147 L 317 502 C 311 474 305 447 301 421 C 296 395 294 370 294 348 C 294 326 298 305 305 287 C 311 269 323 253 341 240 C 358 227 381 217 411 210 C 441 202 478 199 524 199 C 576 199 620 206 656 221 C 691 235 720 255 743 281 C 765 307 783 337 796 371 C 809 405 820 443 829 483 L 971 1147 L 1208 1147 L 967 10 L 782 -8 L 786 88 C 769 72 750 58 728 45 C 706 31 680 20 652 10 C 623 0 590 -8 554 -14 C 517 -20 476 -23 430 -23 Z" unicode="" />
<glyph horiz-adv-x="1311" d="M 451 559 C 393 571 344 589 304 611 C 264 633 232 660 208 691 C 183 721 165 756 155 794 C 144 832 139 874 139 918 C 139 1016 150 1102 174 1177 C 197 1251 233 1314 283 1364 C 332 1414 395 1453 471 1479 C 547 1505 637 1518 743 1518 L 1296 1518 L 973 0 L 748 0 L 862 537 L 700 537 L 672 537 L 557 0 L 332 0 L 451 559 Z M 903 737 L 1026 1298 L 715 1298 C 663 1298 617 1291 577 1278 C 536 1265 501 1244 473 1216 C 444 1188 422 1151 407 1107 C 392 1062 385 1008 385 946 C 385 912 390 881 402 855 C 414 829 432 807 458 790 C 484 772 517 759 557 750 C 597 741 645 737 702 737 L 903 737 Z" unicode="" />
<glyph horiz-adv-x="545" d="M 150 874 L 438 874 L 375 561 L 86 561 L 150 874 Z" unicode="" />
<glyph horiz-adv-x="1208" d="M 403 -487 C 367 -487 333 -484 303 -480 C 273 -475 245 -469 221 -461 C 197 -453 175 -445 155 -435 C 135 -425 118 -416 104 -406 L 190 -283 C 217 -301 247 -316 279 -330 C 311 -343 351 -350 399 -350 C 447 -350 481 -341 503 -325 C 524 -308 535 -282 535 -248 C 535 -231 530 -217 520 -207 C 510 -197 498 -189 482 -184 C 466 -179 447 -176 426 -175 C 405 -174 384 -174 362 -176 L 319 -139 L 381 14 L 522 14 L 479 -88 C 505 -88 531 -91 557 -95 C 583 -99 607 -107 628 -119 C 648 -130 665 -146 678 -166 C 691 -186 698 -212 698 -244 C 698 -292 690 -331 674 -363 C 658 -394 636 -419 609 -437 C 582 -455 551 -468 515 -476 C 479 -483 442 -487 403 -487 Z" unicode="" />
<glyph horiz-adv-x="729" d="M 430 1346 L 254 1346 L 289 1518 L 662 1518 L 457 551 L 262 551 L 430 1346 Z" unicode="" />
<glyph horiz-adv-x="1190" d="M 618 575 C 543 575 479 583 425 601 C 371 618 327 643 293 675 C 259 707 233 745 217 791 C 201 837 193 888 193 944 C 193 1034 205 1115 229 1189 C 253 1263 286 1326 330 1378 C 373 1430 425 1471 486 1499 C 547 1527 616 1542 692 1542 C 768 1542 833 1533 888 1516 C 942 1498 987 1474 1022 1442 C 1057 1410 1083 1371 1099 1326 C 1115 1280 1124 1230 1124 1174 C 1124 1082 1112 1000 1089 926 C 1066 852 1033 790 989 738 C 945 686 892 645 830 617 C 767 589 696 575 618 575 Z M 616 756 C 664 756 707 765 745 783 C 783 801 815 828 841 862 C 867 896 886 936 900 984 C 913 1032 920 1085 920 1145 C 920 1177 915 1205 907 1231 C 899 1256 886 1278 868 1296 C 850 1314 826 1327 798 1337 C 769 1347 734 1352 694 1352 C 647 1352 605 1342 568 1323 C 531 1304 500 1277 474 1243 C 448 1209 429 1167 415 1119 C 401 1070 395 1016 395 958 C 395 926 399 898 407 874 C 415 849 428 828 446 810 C 464 792 487 779 515 770 C 543 760 576 756 616 756 Z M 141 446 L 915 446 L 879 264 L 104 264 L 141 446 Z" unicode="" />
<glyph horiz-adv-x="1479" d="M 510 575 L 340 1147 L 549 1147 L 735 573 L 305 0 L 96 0 L 510 575 Z M 1014 575 L 844 1147 L 1053 1147 L 1241 573 L 811 0 L 598 0 L 1014 575 Z" unicode="" />
<glyph horiz-adv-x="1950" d="M 975 342 L 1534 967 L 1741 967 L 1188 350 L 1448 350 L 1538 608 L 1681 608 L 1626 350 L 1782 350 L 1749 197 L 1593 197 L 1552 0 L 1374 0 L 1415 197 L 946 197 L 975 342 Z M 1397 1518 L 1606 1518 L 438 0 L 225 0 L 1397 1518 Z M 399 1346 L 223 1346 L 258 1518 L 631 1518 L 426 551 L 231 551 L 399 1346 Z" unicode="" />
<glyph horiz-adv-x="2083" d="M 399 1346 L 223 1346 L 258 1518 L 631 1518 L 426 551 L 231 551 L 399 1346 Z M 1397 1518 L 1606 1518 L 438 0 L 225 0 L 1397 1518 Z M 1118 141 L 1491 430 C 1541 469 1582 501 1614 527 C 1645 553 1669 576 1686 596 C 1703 616 1714 636 1720 655 C 1726 674 1729 697 1729 723 C 1729 753 1716 776 1690 791 C 1664 805 1622 813 1565 813 C 1548 813 1530 812 1510 810 C 1490 808 1470 805 1450 801 C 1430 797 1409 793 1389 788 C 1369 782 1350 776 1333 770 L 1278 922 C 1321 940 1368 954 1420 966 C 1471 977 1525 983 1581 983 C 1695 983 1780 963 1838 923 C 1896 883 1925 828 1925 758 C 1925 710 1920 670 1911 636 C 1901 602 1886 570 1864 540 C 1842 510 1813 479 1778 449 C 1742 419 1699 384 1647 344 L 1411 160 L 1804 160 L 1774 0 L 1092 0 L 1118 141 Z" unicode="" />
<glyph horiz-adv-x="2195" d="M 483 541 C 437 541 394 543 355 549 C 316 554 280 562 246 572 C 212 582 181 594 153 608 C 124 622 97 637 72 655 L 176 795 C 220 765 266 741 314 724 C 362 706 417 698 479 698 C 537 698 582 712 616 742 C 649 771 666 818 666 883 C 666 901 663 917 657 931 C 651 945 642 958 629 968 C 615 978 597 985 574 991 C 550 996 521 999 487 999 L 342 999 L 375 1155 L 555 1155 C 583 1155 607 1157 628 1161 C 649 1165 667 1172 681 1182 C 695 1192 705 1205 712 1222 C 719 1239 723 1261 723 1288 C 723 1318 710 1339 686 1353 C 661 1367 619 1374 561 1374 C 547 1374 530 1373 510 1371 C 490 1369 470 1367 448 1363 C 426 1359 405 1354 383 1348 C 361 1342 340 1334 322 1325 L 256 1470 C 282 1484 310 1496 341 1505 C 371 1513 402 1520 433 1525 C 464 1530 494 1533 522 1535 C 550 1537 574 1538 596 1538 C 703 1538 784 1520 839 1485 C 894 1450 922 1399 922 1333 C 922 1292 918 1257 910 1228 C 902 1199 890 1175 876 1155 C 862 1135 844 1118 824 1106 C 803 1093 780 1083 756 1075 C 790 1059 814 1036 830 1004 C 846 972 854 933 854 885 C 854 822 844 769 826 725 C 808 681 782 646 749 619 C 716 591 677 571 632 559 C 586 547 537 541 483 541 Z M 1223 342 L 1780 967 L 1989 967 L 1436 350 L 1694 350 L 1784 608 L 1927 608 L 1872 350 L 2028 350 L 1995 197 L 1841 197 L 1800 0 L 1622 0 L 1661 197 L 1192 197 L 1223 342 Z M 1642 1518 L 1853 1518 L 682 0 L 471 0 L 1642 1518 Z" unicode="" />
<glyph horiz-adv-x="1378" d="M 578 -25 C 482 -25 400 -17 334 -2 C 267 12 213 34 171 62 C 129 90 98 125 79 167 C 60 208 51 255 51 307 C 51 371 57 427 71 475 C 85 523 106 564 136 600 C 166 635 204 666 252 693 C 299 720 356 746 424 770 C 458 782 487 793 512 804 C 536 815 557 827 575 839 C 593 851 608 865 620 880 C 632 895 642 913 651 933 C 659 953 667 977 673 1003 C 679 1029 686 1060 692 1096 L 924 1096 C 912 1020 899 956 885 904 C 871 852 851 807 826 771 C 800 734 767 703 727 678 C 687 652 635 629 571 608 C 519 590 475 574 441 560 C 406 546 378 531 358 514 C 338 497 323 477 315 454 C 307 430 303 401 303 365 C 303 341 307 320 316 300 C 325 280 341 262 365 248 C 389 233 421 221 462 213 C 502 205 554 201 618 201 C 674 201 735 206 802 218 C 868 229 936 247 1006 272 L 1087 63 C 1047 46 1003 32 957 21 C 911 9 865 0 819 -6 C 773 -12 730 -17 688 -20 C 646 -23 610 -25 578 -25 Z M 750 1518 L 1038 1518 L 983 1245 L 692 1245 L 750 1518 Z" unicode="" />
<glyph horiz-adv-x="1501" d="M 786 1528 L 1034 1528 L 1292 0 L 1044 0 L 995 291 L 313 291 L 145 0 L -123 0 L 786 1528 Z M 963 520 L 850 1210 L 442 520 L 963 520 Z M 602 1954 L 881 1954 L 1106 1604 L 899 1604 L 602 1954 Z" unicode="" />
<glyph horiz-adv-x="1501" d="M 786 1528 L 1034 1528 L 1292 0 L 1044 0 L 995 291 L 313 291 L 145 0 L -123 0 L 786 1528 Z M 963 520 L 850 1210 L 442 520 L 963 520 Z M 1110 1954 L 1407 1954 L 963 1604 L 737 1604 L 1110 1954 Z" unicode="" />
<glyph horiz-adv-x="1501" d="M 786 1528 L 1034 1528 L 1292 0 L 1044 0 L 995 291 L 313 291 L 145 0 L -123 0 L 786 1528 Z M 963 520 L 850 1210 L 442 520 L 963 520 Z M 872 1954 L 1126 1954 L 1356 1604 L 1133 1604 L 971 1798 L 723 1604 L 494 1604 L 872 1954 Z" unicode="" />
<glyph horiz-adv-x="1501" d="M 786 1528 L 1034 1528 L 1292 0 L 1044 0 L 995 291 L 313 291 L 145 0 L -123 0 L 786 1528 Z M 963 520 L 850 1210 L 442 520 L 963 520 Z M 1116 1606 C 1079 1606 1046 1611 1018 1622 C 989 1633 962 1645 937 1659 C 912 1672 888 1684 865 1695 C 842 1706 818 1712 793 1712 C 763 1712 734 1702 708 1684 C 681 1665 656 1642 633 1616 L 512 1737 C 556 1790 602 1832 650 1862 C 698 1892 748 1907 801 1907 C 837 1907 870 1901 899 1890 C 927 1879 954 1867 979 1854 C 1004 1841 1028 1829 1051 1818 C 1074 1807 1098 1802 1124 1802 C 1151 1802 1177 1811 1201 1829 C 1225 1847 1252 1871 1280 1903 L 1403 1784 C 1353 1725 1305 1681 1258 1651 C 1211 1621 1164 1606 1116 1606 Z" unicode="" />
<glyph horiz-adv-x="1501" d="M 786 1528 L 1034 1528 L 1292 0 L 1044 0 L 995 291 L 313 291 L 145 0 L -123 0 L 786 1528 Z M 963 520 L 850 1210 L 442 520 L 963 520 Z M 655 1851 L 872 1851 L 821 1604 L 604 1604 L 655 1851 Z M 1083 1851 L 1300 1851 L 1249 1604 L 1032 1604 L 1083 1851 Z" unicode="" />
<glyph horiz-adv-x="1501" d="M 735 1442 C 704 1462 682 1488 668 1520 C 654 1551 647 1586 647 1624 C 647 1674 654 1719 669 1761 C 683 1802 704 1837 731 1866 C 757 1895 789 1918 826 1934 C 863 1950 904 1958 950 1958 C 994 1958 1031 1951 1063 1939 C 1095 1926 1121 1909 1142 1888 C 1162 1866 1177 1841 1187 1813 C 1197 1785 1202 1755 1202 1724 C 1202 1654 1188 1594 1160 1546 C 1132 1497 1095 1460 1049 1436 L 1292 0 L 1044 0 L 995 291 L 313 291 L 145 0 L -123 0 L 735 1442 Z M 963 520 L 850 1210 L 442 520 L 963 520 Z M 907 1530 C 957 1530 997 1545 1027 1577 C 1057 1609 1073 1653 1073 1710 C 1073 1726 1070 1741 1066 1755 C 1061 1769 1053 1782 1043 1793 C 1033 1804 1019 1813 1003 1819 C 987 1825 967 1829 944 1829 C 918 1829 895 1824 875 1815 C 855 1805 837 1792 822 1776 C 807 1759 796 1739 788 1716 C 780 1693 776 1668 776 1640 C 776 1609 786 1583 807 1562 C 827 1540 861 1530 907 1530 Z" unicode="" />
<glyph horiz-adv-x="2230" d="M 1102 1518 L 2271 1518 L 2224 1280 L 1442 1280 L 1356 895 L 2118 895 L 2071 666 L 1309 666 L 1212 227 L 2003 227 L 1956 0 L 928 0 L 993 297 L 373 297 L 127 0 L -152 0 L 1102 1518 Z M 1038 510 L 1204 1298 L 545 510 L 1038 510 Z" unicode="" />
<glyph horiz-adv-x="1481" d="M 537 -487 C 500 -487 467 -484 437 -480 C 407 -475 379 -469 355 -461 C 330 -453 308 -445 289 -435 C 269 -425 252 -416 238 -406 L 324 -283 C 350 -301 380 -316 412 -330 C 444 -343 484 -350 532 -350 C 580 -350 614 -341 636 -325 C 657 -308 668 -282 668 -248 C 668 -231 663 -217 653 -207 C 643 -197 631 -189 615 -184 C 599 -179 580 -176 560 -175 C 539 -174 518 -174 496 -176 L 453 -139 L 508 -2 C 430 14 362 38 305 72 C 248 105 201 146 165 195 C 128 244 101 300 83 363 C 65 426 57 495 57 569 C 57 610 59 652 64 696 C 68 740 76 786 86 834 C 114 969 155 1082 209 1173 C 263 1263 326 1336 398 1391 C 470 1445 551 1484 639 1507 C 727 1530 819 1542 915 1542 C 996 1542 1068 1535 1130 1523 C 1192 1510 1247 1493 1294 1472 C 1341 1451 1381 1427 1415 1400 C 1448 1373 1477 1345 1501 1317 L 1290 1147 C 1250 1193 1198 1231 1136 1260 C 1073 1288 997 1303 907 1303 C 833 1303 766 1293 704 1274 C 642 1255 587 1225 539 1185 C 490 1145 448 1093 413 1029 C 378 965 351 889 332 801 C 324 765 319 731 316 698 C 312 665 311 634 311 604 C 311 543 319 488 336 440 C 353 392 380 351 416 317 C 452 283 498 256 554 238 C 610 220 676 211 754 211 C 796 211 834 213 869 219 C 904 224 937 232 967 243 C 997 253 1026 266 1053 282 C 1080 298 1107 316 1133 338 L 1286 154 C 1252 124 1215 98 1177 76 C 1138 54 1096 35 1051 21 C 1006 6 957 -4 904 -12 C 851 -19 793 -23 731 -23 C 714 -23 698 -22 684 -21 C 670 -20 655 -19 641 -18 L 612 -88 C 638 -88 664 -91 690 -95 C 716 -99 740 -107 761 -119 C 781 -130 798 -146 811 -166 C 824 -186 831 -212 831 -244 C 831 -292 823 -331 807 -363 C 791 -394 769 -419 742 -437 C 715 -455 684 -468 649 -476 C 613 -483 576 -487 537 -487 Z" unicode="" />
<glyph horiz-adv-x="1327" d="M 328 1518 L 1368 1518 L 1321 1280 L 526 1280 L 440 899 L 1214 899 L 1167 664 L 395 664 L 299 227 L 1100 227 L 1053 0 L 4 0 L 328 1518 Z M 518 1954 L 797 1954 L 1022 1604 L 815 1604 L 518 1954 Z" unicode="" />
<glyph horiz-adv-x="1327" d="M 1026 1954 L 1323 1954 L 879 1604 L 653 1604 L 1026 1954 Z M 328 1518 L 1368 1518 L 1321 1280 L 526 1280 L 440 899 L 1214 899 L 1167 664 L 395 664 L 299 227 L 1100 227 L 1053 0 L 4 0 L 328 1518 Z" unicode="" />
<glyph horiz-adv-x="1327" d="M 788 1954 L 1042 1954 L 1272 1604 L 1049 1604 L 887 1798 L 639 1604 L 410 1604 L 788 1954 Z M 328 1518 L 1368 1518 L 1321 1280 L 526 1280 L 440 899 L 1214 899 L 1167 664 L 395 664 L 299 227 L 1100 227 L 1053 0 L 4 0 L 328 1518 Z" unicode="" />
<glyph horiz-adv-x="1327" d="M 571 1851 L 788 1851 L 737 1604 L 520 1604 L 571 1851 Z M 999 1851 L 1217 1851 L 1165 1604 L 948 1604 L 999 1851 Z M 328 1518 L 1368 1518 L 1321 1280 L 526 1280 L 440 899 L 1214 899 L 1167 664 L 395 664 L 299 227 L 1100 227 L 1053 0 L 4 0 L 328 1518 Z" unicode="" />
<glyph horiz-adv-x="614" d="M 164 1956 L 440 1956 L 588 1604 L 385 1604 L 164 1956 Z M 346 1518 L 594 1518 L 270 0 L 23 0 L 346 1518 Z" unicode="" />
<glyph horiz-adv-x="614" d="M 672 1956 L 965 1956 L 594 1604 L 373 1604 L 672 1956 Z M 346 1518 L 594 1518 L 270 0 L 23 0 L 346 1518 Z" unicode="" />
<glyph horiz-adv-x="614" d="M 346 1518 L 594 1518 L 270 0 L 23 0 L 346 1518 Z M 434 1954 L 688 1954 L 918 1604 L 694 1604 L 532 1798 L 285 1604 L 55 1604 L 434 1954 Z" unicode="" />
<glyph horiz-adv-x="614" d="M 346 1518 L 594 1518 L 270 0 L 23 0 L 346 1518 Z M 217 1851 L 434 1851 L 383 1604 L 166 1604 L 217 1851 Z M 645 1851 L 862 1851 L 811 1604 L 594 1604 L 645 1851 Z" unicode="" />
<glyph horiz-adv-x="1548" d="M 25 879 L 190 879 L 328 1518 L 696 1518 C 838 1518 960 1507 1061 1487 C 1162 1466 1245 1434 1309 1391 C 1373 1347 1419 1292 1449 1224 C 1478 1156 1493 1075 1493 981 C 1493 935 1490 888 1484 838 C 1478 788 1469 734 1456 676 C 1435 578 1410 494 1380 422 C 1350 350 1317 290 1279 240 C 1241 190 1198 149 1151 118 C 1104 86 1053 62 997 45 C 941 27 881 15 817 9 C 752 3 683 0 610 0 L 4 0 L 147 672 L -16 672 L 25 879 Z M 616 229 C 704 229 781 235 846 249 C 910 262 966 286 1013 322 C 1059 357 1098 406 1129 468 C 1160 530 1186 611 1208 709 C 1217 753 1224 794 1230 833 C 1236 871 1239 908 1239 944 C 1239 1001 1229 1051 1211 1093 C 1192 1135 1161 1171 1119 1199 C 1077 1227 1021 1247 951 1261 C 881 1275 796 1282 694 1282 L 528 1282 L 440 879 L 752 879 L 709 672 L 395 672 L 299 229 L 616 229 Z" unicode="" />
<glyph horiz-adv-x="1597" d="M 328 1518 L 596 1518 L 1118 420 L 1358 1518 L 1595 1518 L 1272 0 L 1044 0 L 489 1153 L 240 0 L 4 0 L 328 1518 Z M 1165 1606 C 1128 1606 1095 1611 1067 1622 C 1038 1633 1011 1645 986 1659 C 961 1672 937 1684 914 1695 C 891 1706 867 1712 842 1712 C 812 1712 783 1702 757 1684 C 730 1665 705 1642 682 1616 L 561 1737 C 605 1790 651 1832 699 1862 C 747 1892 797 1907 850 1907 C 886 1907 919 1901 948 1890 C 976 1879 1003 1867 1028 1854 C 1053 1841 1077 1829 1100 1818 C 1123 1807 1148 1802 1174 1802 C 1200 1802 1226 1811 1250 1829 C 1274 1847 1301 1871 1329 1903 L 1452 1784 C 1402 1725 1354 1681 1308 1651 C 1261 1621 1213 1606 1165 1606 Z" unicode="" />
<glyph horiz-adv-x="1700" d="M 774 -25 C 660 -25 558 -11 470 15 C 381 41 306 80 245 132 C 184 184 138 248 106 325 C 74 401 59 490 59 590 C 59 629 61 669 65 711 C 69 752 76 796 86 842 C 105 934 131 1016 163 1086 C 195 1156 231 1218 273 1270 C 315 1322 361 1365 411 1400 C 461 1434 515 1462 571 1483 C 627 1504 685 1519 745 1528 C 805 1537 866 1542 928 1542 C 1040 1542 1141 1528 1229 1502 C 1317 1476 1391 1437 1452 1386 C 1513 1334 1560 1271 1592 1195 C 1624 1119 1640 1031 1640 932 C 1640 892 1638 852 1634 811 C 1630 770 1623 728 1614 684 C 1594 590 1567 508 1535 437 C 1503 366 1466 304 1424 252 C 1382 199 1337 155 1287 120 C 1237 84 1185 56 1130 34 C 1074 12 1017 -2 957 -11 C 897 -20 836 -25 774 -25 Z M 776 207 C 854 207 925 216 989 235 C 1053 254 1109 284 1158 325 C 1207 365 1248 417 1282 480 C 1316 542 1342 617 1362 705 C 1369 739 1374 771 1378 803 C 1382 835 1384 866 1384 897 C 1384 957 1375 1013 1357 1063 C 1339 1113 1312 1155 1274 1191 C 1236 1227 1187 1254 1128 1274 C 1068 1293 997 1303 915 1303 C 759 1303 633 1263 535 1183 C 437 1103 370 977 334 807 C 326 773 321 741 318 709 C 314 677 313 645 313 614 C 313 553 321 498 339 448 C 357 398 384 355 422 319 C 459 283 507 256 565 236 C 623 216 694 207 776 207 Z M 702 1954 L 981 1954 L 1206 1604 L 999 1604 L 702 1954 Z" unicode="" />
<glyph horiz-adv-x="1700" d="M 1210 1954 L 1507 1954 L 1063 1604 L 838 1604 L 1210 1954 Z M 774 -25 C 660 -25 558 -11 470 15 C 381 41 306 80 245 132 C 184 184 138 248 106 325 C 74 401 59 490 59 590 C 59 629 61 669 65 711 C 69 752 76 796 86 842 C 105 934 131 1016 163 1086 C 195 1156 231 1218 273 1270 C 315 1322 361 1365 411 1400 C 461 1434 515 1462 571 1483 C 627 1504 685 1519 745 1528 C 805 1537 866 1542 928 1542 C 1040 1542 1141 1528 1229 1502 C 1317 1476 1391 1437 1452 1386 C 1513 1334 1560 1271 1592 1195 C 1624 1119 1640 1031 1640 932 C 1640 892 1638 852 1634 811 C 1630 770 1623 728 1614 684 C 1594 590 1567 508 1535 437 C 1503 366 1466 304 1424 252 C 1382 199 1337 155 1287 120 C 1237 84 1185 56 1130 34 C 1074 12 1017 -2 957 -11 C 897 -20 836 -25 774 -25 Z M 776 207 C 854 207 925 216 989 235 C 1053 254 1109 284 1158 325 C 1207 365 1248 417 1282 480 C 1316 542 1342 617 1362 705 C 1369 739 1374 771 1378 803 C 1382 835 1384 866 1384 897 C 1384 957 1375 1013 1357 1063 C 1339 1113 1312 1155 1274 1191 C 1236 1227 1187 1254 1128 1274 C 1068 1293 997 1303 915 1303 C 759 1303 633 1263 535 1183 C 437 1103 370 977 334 807 C 326 773 321 741 318 709 C 314 677 313 645 313 614 C 313 553 321 498 339 448 C 357 398 384 355 422 319 C 459 283 507 256 565 236 C 623 216 694 207 776 207 Z" unicode="" />
<glyph horiz-adv-x="1700" d="M 973 1954 L 1227 1954 L 1456 1604 L 1233 1604 L 1071 1798 L 823 1604 L 594 1604 L 973 1954 Z M 774 -25 C 660 -25 558 -11 470 15 C 381 41 306 80 245 132 C 184 184 138 248 106 325 C 74 401 59 490 59 590 C 59 629 61 669 65 711 C 69 752 76 796 86 842 C 105 934 131 1016 163 1086 C 195 1156 231 1218 273 1270 C 315 1322 361 1365 411 1400 C 461 1434 515 1462 571 1483 C 627 1504 685 1519 745 1528 C 805 1537 866 1542 928 1542 C 1040 1542 1141 1528 1229 1502 C 1317 1476 1391 1437 1452 1386 C 1513 1334 1560 1271 1592 1195 C 1624 1119 1640 1031 1640 932 C 1640 892 1638 852 1634 811 C 1630 770 1623 728 1614 684 C 1594 590 1567 508 1535 437 C 1503 366 1466 304 1424 252 C 1382 199 1337 155 1287 120 C 1237 84 1185 56 1130 34 C 1074 12 1017 -2 957 -11 C 897 -20 836 -25 774 -25 Z M 776 207 C 854 207 925 216 989 235 C 1053 254 1109 284 1158 325 C 1207 365 1248 417 1282 480 C 1316 542 1342 617 1362 705 C 1369 739 1374 771 1378 803 C 1382 835 1384 866 1384 897 C 1384 957 1375 1013 1357 1063 C 1339 1113 1312 1155 1274 1191 C 1236 1227 1187 1254 1128 1274 C 1068 1293 997 1303 915 1303 C 759 1303 633 1263 535 1183 C 437 1103 370 977 334 807 C 326 773 321 741 318 709 C 314 677 313 645 313 614 C 313 553 321 498 339 448 C 357 398 384 355 422 319 C 459 283 507 256 565 236 C 623 216 694 207 776 207 Z" unicode="" />
<glyph horiz-adv-x="1700" d="M 774 -25 C 660 -25 558 -11 470 15 C 381 41 306 80 245 132 C 184 184 138 248 106 325 C 74 401 59 490 59 590 C 59 629 61 669 65 711 C 69 752 76 796 86 842 C 105 934 131 1016 163 1086 C 195 1156 231 1218 273 1270 C 315 1322 361 1365 411 1400 C 461 1434 515 1462 571 1483 C 627 1504 685 1519 745 1528 C 805 1537 866 1542 928 1542 C 1040 1542 1141 1528 1229 1502 C 1317 1476 1391 1437 1452 1386 C 1513 1334 1560 1271 1592 1195 C 1624 1119 1640 1031 1640 932 C 1640 892 1638 852 1634 811 C 1630 770 1623 728 1614 684 C 1594 590 1567 508 1535 437 C 1503 366 1466 304 1424 252 C 1382 199 1337 155 1287 120 C 1237 84 1185 56 1130 34 C 1074 12 1017 -2 957 -11 C 897 -20 836 -25 774 -25 Z M 776 207 C 854 207 925 216 989 235 C 1053 254 1109 284 1158 325 C 1207 365 1248 417 1282 480 C 1316 542 1342 617 1362 705 C 1369 739 1374 771 1378 803 C 1382 835 1384 866 1384 897 C 1384 957 1375 1013 1357 1063 C 1339 1113 1312 1155 1274 1191 C 1236 1227 1187 1254 1128 1274 C 1068 1293 997 1303 915 1303 C 759 1303 633 1263 535 1183 C 437 1103 370 977 334 807 C 326 773 321 741 318 709 C 314 677 313 645 313 614 C 313 553 321 498 339 448 C 357 398 384 355 422 319 C 459 283 507 256 565 236 C 623 216 694 207 776 207 Z M 1217 1606 C 1179 1606 1146 1611 1118 1622 C 1089 1633 1062 1645 1037 1659 C 1012 1672 988 1684 965 1695 C 942 1706 918 1712 893 1712 C 863 1712 834 1702 808 1684 C 781 1665 756 1642 733 1616 L 612 1737 C 656 1790 702 1832 750 1862 C 798 1892 849 1907 901 1907 C 937 1907 970 1901 999 1890 C 1028 1879 1055 1867 1080 1854 C 1104 1841 1128 1829 1151 1818 C 1174 1807 1199 1802 1225 1802 C 1251 1802 1277 1811 1301 1829 C 1325 1847 1352 1871 1380 1903 L 1503 1784 C 1453 1725 1405 1681 1359 1651 C 1312 1621 1265 1606 1217 1606 Z" unicode="" />
<glyph horiz-adv-x="1700" d="M 756 1851 L 973 1851 L 922 1604 L 705 1604 L 756 1851 Z M 1184 1851 L 1401 1851 L 1350 1604 L 1133 1604 L 1184 1851 Z M 774 -25 C 660 -25 558 -11 470 15 C 381 41 306 80 245 132 C 184 184 138 248 106 325 C 74 401 59 490 59 590 C 59 629 61 669 65 711 C 69 752 76 796 86 842 C 105 934 131 1016 163 1086 C 195 1156 231 1218 273 1270 C 315 1322 361 1365 411 1400 C 461 1434 515 1462 571 1483 C 627 1504 685 1519 745 1528 C 805 1537 866 1542 928 1542 C 1040 1542 1141 1528 1229 1502 C 1317 1476 1391 1437 1452 1386 C 1513 1334 1560 1271 1592 1195 C 1624 1119 1640 1031 1640 932 C 1640 892 1638 852 1634 811 C 1630 770 1623 728 1614 684 C 1594 590 1567 508 1535 437 C 1503 366 1466 304 1424 252 C 1382 199 1337 155 1287 120 C 1237 84 1185 56 1130 34 C 1074 12 1017 -2 957 -11 C 897 -20 836 -25 774 -25 Z M 776 207 C 854 207 925 216 989 235 C 1053 254 1109 284 1158 325 C 1207 365 1248 417 1282 480 C 1316 542 1342 617 1362 705 C 1369 739 1374 771 1378 803 C 1382 835 1384 866 1384 897 C 1384 957 1375 1013 1357 1063 C 1339 1113 1312 1155 1274 1191 C 1236 1227 1187 1254 1128 1274 C 1068 1293 997 1303 915 1303 C 759 1303 633 1263 535 1183 C 437 1103 370 977 334 807 C 326 773 321 741 318 709 C 314 677 313 645 313 614 C 313 553 321 498 339 448 C 357 398 384 355 422 319 C 459 283 507 256 565 236 C 623 216 694 207 776 207 Z" unicode="" />
<glyph horiz-adv-x="1452" d="M 188 406 L 571 721 L 324 1036 L 500 1186 L 750 870 L 1130 1186 L 1243 1034 L 862 721 L 1110 406 L 934 256 L 686 571 L 301 256 L 188 406 Z" unicode="" />
<glyph horiz-adv-x="1700" d="M 774 -25 C 624 -25 497 -2 391 43 L 293 -84 L 53 -84 L 231 143 C 174 195 131 258 102 332 C 73 406 59 492 59 590 C 57 629 59 669 64 711 C 69 752 76 796 86 842 C 115 980 158 1095 214 1185 C 270 1275 335 1347 410 1400 C 484 1452 566 1489 654 1510 C 742 1531 834 1542 928 1542 C 1067 1542 1187 1522 1288 1483 L 1382 1604 L 1620 1604 L 1452 1389 C 1514 1336 1560 1272 1592 1197 C 1624 1121 1640 1033 1640 932 C 1640 892 1638 852 1634 811 C 1630 770 1623 728 1614 684 C 1594 590 1567 508 1535 437 C 1503 366 1466 304 1424 252 C 1382 199 1337 155 1287 120 C 1237 84 1185 56 1130 34 C 1074 12 1017 -2 957 -11 C 897 -20 836 -25 774 -25 Z M 776 197 C 855 197 927 206 992 226 C 1056 245 1114 275 1164 317 C 1214 358 1256 411 1291 475 C 1325 539 1352 615 1372 705 C 1379 739 1385 772 1389 805 C 1393 838 1395 870 1395 901 C 1395 961 1386 1016 1369 1066 C 1352 1115 1325 1158 1288 1194 L 532 236 C 565 223 602 213 642 207 C 682 200 726 197 776 197 Z M 301 610 C 301 553 308 501 323 455 C 337 409 360 368 391 332 L 1141 1280 C 1109 1290 1074 1298 1037 1304 C 1000 1310 959 1313 915 1313 C 757 1313 629 1272 529 1191 C 429 1109 361 981 324 807 C 308 739 301 674 301 610 Z" unicode="" />
<glyph horiz-adv-x="1593" d="M 702 -27 C 621 -27 550 -21 489 -10 C 428 0 375 15 331 35 C 286 55 249 78 219 106 C 189 134 165 164 147 197 C 129 229 116 264 109 301 C 101 337 98 375 98 414 C 98 446 100 480 105 514 C 109 548 115 581 123 614 L 317 1518 L 565 1518 L 375 625 C 368 595 362 566 358 539 C 354 512 352 486 352 461 C 352 421 358 386 370 355 C 382 323 403 296 432 274 C 461 252 500 235 548 223 C 596 211 657 205 729 205 C 797 205 855 212 903 228 C 951 243 991 266 1024 297 C 1057 327 1084 366 1105 412 C 1125 458 1142 511 1155 573 L 1358 1518 L 1599 1518 L 1384 524 C 1373 474 1360 426 1345 380 C 1329 334 1310 290 1287 250 C 1263 209 1235 172 1201 138 C 1167 104 1127 74 1080 50 C 1033 26 978 7 916 -6 C 854 -20 782 -27 702 -27 Z M 649 1954 L 928 1954 L 1153 1604 L 946 1604 L 649 1954 Z" unicode="" />
<glyph horiz-adv-x="1593" d="M 1157 1954 L 1454 1954 L 1010 1604 L 784 1604 L 1157 1954 Z M 702 -27 C 621 -27 550 -21 489 -10 C 428 0 375 15 331 35 C 286 55 249 78 219 106 C 189 134 165 164 147 197 C 129 229 116 264 109 301 C 101 337 98 375 98 414 C 98 446 100 480 105 514 C 109 548 115 581 123 614 L 317 1518 L 565 1518 L 375 625 C 368 595 362 566 358 539 C 354 512 352 486 352 461 C 352 421 358 386 370 355 C 382 323 403 296 432 274 C 461 252 500 235 548 223 C 596 211 657 205 729 205 C 797 205 855 212 903 228 C 951 243 991 266 1024 297 C 1057 327 1084 366 1105 412 C 1125 458 1142 511 1155 573 L 1358 1518 L 1599 1518 L 1384 524 C 1373 474 1360 426 1345 380 C 1329 334 1310 290 1287 250 C 1263 209 1235 172 1201 138 C 1167 104 1127 74 1080 50 C 1033 26 978 7 916 -6 C 854 -20 782 -27 702 -27 Z" unicode="" />
<glyph horiz-adv-x="1593" d="M 920 1954 L 1174 1954 L 1403 1604 L 1180 1604 L 1018 1798 L 770 1604 L 541 1604 L 920 1954 Z M 702 -27 C 621 -27 550 -21 489 -10 C 428 0 375 15 331 35 C 286 55 249 78 219 106 C 189 134 165 164 147 197 C 129 229 116 264 109 301 C 101 337 98 375 98 414 C 98 446 100 480 105 514 C 109 548 115 581 123 614 L 317 1518 L 565 1518 L 375 625 C 368 595 362 566 358 539 C 354 512 352 486 352 461 C 352 421 358 386 370 355 C 382 323 403 296 432 274 C 461 252 500 235 548 223 C 596 211 657 205 729 205 C 797 205 855 212 903 228 C 951 243 991 266 1024 297 C 1057 327 1084 366 1105 412 C 1125 458 1142 511 1155 573 L 1358 1518 L 1599 1518 L 1384 524 C 1373 474 1360 426 1345 380 C 1329 334 1310 290 1287 250 C 1263 209 1235 172 1201 138 C 1167 104 1127 74 1080 50 C 1033 26 978 7 916 -6 C 854 -20 782 -27 702 -27 Z" unicode="" />
<glyph horiz-adv-x="1593" d="M 702 1851 L 920 1851 L 868 1604 L 651 1604 L 702 1851 Z M 1130 1851 L 1348 1851 L 1296 1604 L 1079 1604 L 1130 1851 Z M 702 -27 C 621 -27 550 -21 489 -10 C 428 0 375 15 331 35 C 286 55 249 78 219 106 C 189 134 165 164 147 197 C 129 229 116 264 109 301 C 101 337 98 375 98 414 C 98 446 100 480 105 514 C 109 548 115 581 123 614 L 317 1518 L 565 1518 L 375 625 C 368 595 362 566 358 539 C 354 512 352 486 352 461 C 352 421 358 386 370 355 C 382 323 403 296 432 274 C 461 252 500 235 548 223 C 596 211 657 205 729 205 C 797 205 855 212 903 228 C 951 243 991 266 1024 297 C 1057 327 1084 366 1105 412 C 1125 458 1142 511 1155 573 L 1358 1518 L 1599 1518 L 1384 524 C 1373 474 1360 426 1345 380 C 1329 334 1310 290 1287 250 C 1263 209 1235 172 1201 138 C 1167 104 1127 74 1080 50 C 1033 26 978 7 916 -6 C 854 -20 782 -27 702 -27 Z" unicode="" />
<glyph horiz-adv-x="1454" d="M 561 571 L 184 1518 L 442 1518 L 729 811 L 1313 1518 L 1587 1518 L 807 565 L 686 0 L 438 0 L 561 571 Z M 1087 1954 L 1384 1954 L 940 1604 L 715 1604 L 1087 1954 Z" unicode="" />
<glyph horiz-adv-x="1460" d="M 328 1518 L 569 1518 L 520 1294 L 860 1294 C 964 1294 1051 1284 1122 1265 C 1192 1246 1249 1220 1292 1187 C 1335 1153 1366 1113 1385 1067 C 1403 1020 1413 969 1413 915 C 1413 825 1401 742 1379 667 C 1356 592 1320 528 1272 474 C 1224 420 1162 378 1087 348 C 1011 318 921 303 817 303 L 311 303 L 246 0 L 4 0 L 328 1518 Z M 813 520 C 867 520 915 526 958 540 C 1000 554 1036 575 1065 603 C 1094 631 1116 666 1132 710 C 1147 753 1155 804 1155 864 C 1155 898 1149 927 1137 953 C 1125 978 1106 999 1080 1017 C 1054 1034 1020 1047 979 1056 C 937 1064 887 1069 829 1069 L 475 1069 L 354 520 L 813 520 Z" unicode="" />
<glyph horiz-adv-x="1329" d="M 219 1114 C 233 1184 254 1248 281 1308 C 307 1367 342 1418 386 1462 C 430 1506 483 1540 545 1565 C 607 1589 682 1602 770 1602 C 854 1602 927 1593 987 1577 C 1047 1561 1095 1538 1133 1508 C 1170 1478 1197 1443 1215 1402 C 1232 1360 1241 1315 1241 1266 C 1241 1206 1234 1152 1222 1103 C 1209 1054 1191 1011 1167 974 C 1143 937 1114 906 1080 882 C 1046 857 1009 839 967 827 C 1047 804 1107 767 1147 717 C 1187 667 1208 598 1208 512 C 1208 422 1196 345 1172 281 C 1148 216 1112 163 1064 121 C 1016 79 955 49 881 29 C 807 9 721 0 621 0 L 410 0 L 453 215 L 606 215 C 672 215 729 221 776 233 C 823 245 861 264 891 288 C 921 312 942 343 956 379 C 970 415 977 456 977 504 C 977 536 970 564 957 588 C 944 612 923 632 894 648 C 865 664 827 677 781 685 C 735 693 678 698 612 698 L 653 899 C 706 898 754 902 797 912 C 839 921 876 937 906 959 C 936 981 959 1010 975 1047 C 991 1083 999 1129 999 1184 C 999 1208 994 1231 985 1253 C 976 1274 962 1292 942 1308 C 922 1324 897 1336 865 1345 C 833 1353 795 1358 750 1358 C 706 1358 667 1352 634 1340 C 600 1328 571 1311 547 1288 C 523 1264 502 1235 486 1200 C 469 1164 456 1123 446 1075 L 145 -338 L -90 -338 L 219 1114 Z" unicode="" />
<glyph horiz-adv-x="1266" d="M 381 -20 C 301 -20 236 -12 184 2 C 132 17 90 38 59 66 C 28 94 6 127 -5 166 C -17 204 -24 247 -25 295 C -25 385 -9 460 23 519 C 55 577 101 624 163 658 C 225 692 300 716 390 730 C 479 743 581 750 696 750 L 844 750 C 847 765 849 779 851 793 C 853 806 854 819 854 831 C 854 851 850 868 843 883 C 835 898 822 910 803 920 C 784 930 759 937 727 942 C 695 947 654 950 604 950 C 580 950 554 948 526 944 C 498 940 470 936 443 930 C 415 924 389 916 364 908 C 339 900 317 891 299 881 L 207 1073 C 229 1087 257 1100 289 1112 C 321 1124 357 1134 395 1144 C 433 1153 473 1160 516 1166 C 558 1171 602 1174 647 1174 C 723 1174 787 1169 840 1160 C 893 1150 937 1136 971 1118 C 1005 1099 1030 1076 1048 1048 C 1066 1020 1077 988 1083 952 C 1088 915 1088 874 1083 829 C 1078 783 1070 734 1059 680 L 983 330 C 977 305 974 285 972 269 C 970 253 972 240 977 231 C 982 222 992 216 1006 213 C 1020 209 1040 208 1067 209 L 1024 2 C 1016 0 1004 -1 986 -1 C 968 -1 947 -2 922 -2 C 898 -2 877 0 859 3 C 841 6 825 12 812 20 C 799 28 789 39 781 53 C 773 67 768 84 766 106 C 728 65 677 34 613 12 C 549 -9 472 -20 381 -20 Z M 444 184 C 496 184 541 189 579 200 C 617 210 649 228 676 252 C 703 276 726 307 744 347 C 762 387 777 436 791 494 L 803 553 L 662 553 C 582 553 514 550 458 544 C 401 538 355 527 319 511 C 283 495 256 471 240 441 C 223 411 215 371 215 322 C 215 300 218 281 225 264 C 232 247 244 233 262 221 C 279 209 302 199 332 193 C 361 187 398 184 444 184 Z M 418 1612 L 696 1612 L 922 1262 L 715 1262 L 418 1612 Z" unicode="" />
<glyph horiz-adv-x="1266" d="M 381 -20 C 301 -20 236 -12 184 2 C 132 17 90 38 59 66 C 28 94 6 127 -5 166 C -17 204 -24 247 -25 295 C -25 385 -9 460 23 519 C 55 577 101 624 163 658 C 225 692 300 716 390 730 C 479 743 581 750 696 750 L 844 750 C 847 765 849 779 851 793 C 853 806 854 819 854 831 C 854 851 850 868 843 883 C 835 898 822 910 803 920 C 784 930 759 937 727 942 C 695 947 654 950 604 950 C 580 950 554 948 526 944 C 498 940 470 936 443 930 C 415 924 389 916 364 908 C 339 900 317 891 299 881 L 207 1073 C 229 1087 257 1100 289 1112 C 321 1124 357 1134 395 1144 C 433 1153 473 1160 516 1166 C 558 1171 602 1174 647 1174 C 723 1174 787 1169 840 1160 C 893 1150 937 1136 971 1118 C 1005 1099 1030 1076 1048 1048 C 1066 1020 1077 988 1083 952 C 1088 915 1088 874 1083 829 C 1078 783 1070 734 1059 680 L 983 330 C 977 305 974 285 972 269 C 970 253 972 240 977 231 C 982 222 992 216 1006 213 C 1020 209 1040 208 1067 209 L 1024 2 C 1016 0 1004 -1 986 -1 C 968 -1 947 -2 922 -2 C 898 -2 877 0 859 3 C 841 6 825 12 812 20 C 799 28 789 39 781 53 C 773 67 768 84 766 106 C 728 65 677 34 613 12 C 549 -9 472 -20 381 -20 Z M 444 184 C 496 184 541 189 579 200 C 617 210 649 228 676 252 C 703 276 726 307 744 347 C 762 387 777 436 791 494 L 803 553 L 662 553 C 582 553 514 550 458 544 C 401 538 355 527 319 511 C 283 495 256 471 240 441 C 223 411 215 371 215 322 C 215 300 218 281 225 264 C 232 247 244 233 262 221 C 279 209 302 199 332 193 C 361 187 398 184 444 184 Z M 926 1612 L 1223 1612 L 778 1262 L 553 1262 L 926 1612 Z" unicode="" />
<glyph horiz-adv-x="1266" d="M 381 -20 C 301 -20 236 -12 184 2 C 132 17 90 38 59 66 C 28 94 6 127 -5 166 C -17 204 -24 247 -25 295 C -25 385 -9 460 23 519 C 55 577 101 624 163 658 C 225 692 300 716 390 730 C 479 743 581 750 696 750 L 844 750 C 847 765 849 779 851 793 C 853 806 854 819 854 831 C 854 851 850 868 843 883 C 835 898 822 910 803 920 C 784 930 759 937 727 942 C 695 947 654 950 604 950 C 580 950 554 948 526 944 C 498 940 470 936 443 930 C 415 924 389 916 364 908 C 339 900 317 891 299 881 L 207 1073 C 229 1087 257 1100 289 1112 C 321 1124 357 1134 395 1144 C 433 1153 473 1160 516 1166 C 558 1171 602 1174 647 1174 C 723 1174 787 1169 840 1160 C 893 1150 937 1136 971 1118 C 1005 1099 1030 1076 1048 1048 C 1066 1020 1077 988 1083 952 C 1088 915 1088 874 1083 829 C 1078 783 1070 734 1059 680 L 983 330 C 977 305 974 285 972 269 C 970 253 972 240 977 231 C 982 222 992 216 1006 213 C 1020 209 1040 208 1067 209 L 1024 2 C 1016 0 1004 -1 986 -1 C 968 -1 947 -2 922 -2 C 898 -2 877 0 859 3 C 841 6 825 12 812 20 C 799 28 789 39 781 53 C 773 67 768 84 766 106 C 728 65 677 34 613 12 C 549 -9 472 -20 381 -20 Z M 444 184 C 496 184 541 189 579 200 C 617 210 649 228 676 252 C 703 276 726 307 744 347 C 762 387 777 436 791 494 L 803 553 L 662 553 C 582 553 514 550 458 544 C 401 538 355 527 319 511 C 283 495 256 471 240 441 C 223 411 215 371 215 322 C 215 300 218 281 225 264 C 232 247 244 233 262 221 C 279 209 302 199 332 193 C 361 187 398 184 444 184 Z M 688 1612 L 942 1612 L 1171 1262 L 948 1262 L 786 1456 L 539 1262 L 309 1262 L 688 1612 Z" unicode="" />
<glyph horiz-adv-x="1266" d="M 381 -20 C 301 -20 236 -12 184 2 C 132 17 90 38 59 66 C 28 94 6 127 -5 166 C -17 204 -24 247 -25 295 C -25 385 -9 460 23 519 C 55 577 101 624 163 658 C 225 692 300 716 390 730 C 479 743 581 750 696 750 L 844 750 C 847 765 849 779 851 793 C 853 806 854 819 854 831 C 854 851 850 868 843 883 C 835 898 822 910 803 920 C 784 930 759 937 727 942 C 695 947 654 950 604 950 C 580 950 554 948 526 944 C 498 940 470 936 443 930 C 415 924 389 916 364 908 C 339 900 317 891 299 881 L 207 1073 C 229 1087 257 1100 289 1112 C 321 1124 357 1134 395 1144 C 433 1153 473 1160 516 1166 C 558 1171 602 1174 647 1174 C 723 1174 787 1169 840 1160 C 893 1150 937 1136 971 1118 C 1005 1099 1030 1076 1048 1048 C 1066 1020 1077 988 1083 952 C 1088 915 1088 874 1083 829 C 1078 783 1070 734 1059 680 L 983 330 C 977 305 974 285 972 269 C 970 253 972 240 977 231 C 982 222 992 216 1006 213 C 1020 209 1040 208 1067 209 L 1024 2 C 1016 0 1004 -1 986 -1 C 968 -1 947 -2 922 -2 C 898 -2 877 0 859 3 C 841 6 825 12 812 20 C 799 28 789 39 781 53 C 773 67 768 84 766 106 C 728 65 677 34 613 12 C 549 -9 472 -20 381 -20 Z M 444 184 C 496 184 541 189 579 200 C 617 210 649 228 676 252 C 703 276 726 307 744 347 C 762 387 777 436 791 494 L 803 553 L 662 553 C 582 553 514 550 458 544 C 401 538 355 527 319 511 C 283 495 256 471 240 441 C 223 411 215 371 215 322 C 215 300 218 281 225 264 C 232 247 244 233 262 221 C 279 209 302 199 332 193 C 361 187 398 184 444 184 Z M 932 1264 C 894 1264 861 1269 833 1280 C 804 1291 777 1303 753 1317 C 728 1330 704 1342 681 1353 C 658 1364 634 1370 608 1370 C 578 1370 549 1360 523 1342 C 497 1323 472 1300 449 1274 L 328 1395 C 372 1448 418 1490 466 1520 C 514 1550 564 1565 616 1565 C 652 1565 685 1559 714 1548 C 743 1537 770 1525 795 1512 C 820 1499 844 1487 867 1476 C 890 1465 914 1460 940 1460 C 966 1460 992 1469 1017 1487 C 1041 1505 1068 1529 1096 1561 L 1219 1442 C 1169 1383 1120 1339 1074 1309 C 1027 1279 980 1264 932 1264 Z" unicode="" />
<glyph horiz-adv-x="1266" d="M 381 -20 C 301 -20 236 -12 184 2 C 132 17 90 38 59 66 C 28 94 6 127 -5 166 C -17 204 -24 247 -25 295 C -25 385 -9 460 23 519 C 55 577 101 624 163 658 C 225 692 300 716 390 730 C 479 743 581 750 696 750 L 844 750 C 847 765 849 779 851 793 C 853 806 854 819 854 831 C 854 851 850 868 843 883 C 835 898 822 910 803 920 C 784 930 759 937 727 942 C 695 947 654 950 604 950 C 580 950 554 948 526 944 C 498 940 470 936 443 930 C 415 924 389 916 364 908 C 339 900 317 891 299 881 L 207 1073 C 229 1087 257 1100 289 1112 C 321 1124 357 1134 395 1144 C 433 1153 473 1160 516 1166 C 558 1171 602 1174 647 1174 C 723 1174 787 1169 840 1160 C 893 1150 937 1136 971 1118 C 1005 1099 1030 1076 1048 1048 C 1066 1020 1077 988 1083 952 C 1088 915 1088 874 1083 829 C 1078 783 1070 734 1059 680 L 983 330 C 977 305 974 285 972 269 C 970 253 972 240 977 231 C 982 222 992 216 1006 213 C 1020 209 1040 208 1067 209 L 1024 2 C 1016 0 1004 -1 986 -1 C 968 -1 947 -2 922 -2 C 898 -2 877 0 859 3 C 841 6 825 12 812 20 C 799 28 789 39 781 53 C 773 67 768 84 766 106 C 728 65 677 34 613 12 C 549 -9 472 -20 381 -20 Z M 444 184 C 496 184 541 189 579 200 C 617 210 649 228 676 252 C 703 276 726 307 744 347 C 762 387 777 436 791 494 L 803 553 L 662 553 C 582 553 514 550 458 544 C 401 538 355 527 319 511 C 283 495 256 471 240 441 C 223 411 215 371 215 322 C 215 300 218 281 225 264 C 232 247 244 233 262 221 C 279 209 302 199 332 193 C 361 187 398 184 444 184 Z M 471 1509 L 688 1509 L 637 1262 L 420 1262 L 471 1509 Z M 899 1509 L 1116 1509 L 1065 1262 L 848 1262 L 899 1509 Z" unicode="" />
<glyph horiz-adv-x="1266" d="M 381 -20 C 301 -20 236 -12 184 2 C 132 17 90 38 59 66 C 28 94 6 127 -5 166 C -17 204 -24 247 -25 295 C -25 385 -9 460 23 519 C 55 577 101 624 163 658 C 225 692 300 716 390 730 C 479 743 581 750 696 750 L 844 750 C 847 765 849 779 851 793 C 853 806 854 819 854 831 C 854 851 850 868 843 883 C 835 898 822 910 803 920 C 784 930 759 937 727 942 C 695 947 654 950 604 950 C 580 950 554 948 526 944 C 498 940 470 936 443 930 C 415 924 389 916 364 908 C 339 900 317 891 299 881 L 207 1073 C 229 1087 257 1100 289 1112 C 321 1124 357 1134 395 1144 C 433 1153 473 1160 516 1166 C 558 1171 602 1174 647 1174 C 723 1174 787 1169 840 1160 C 893 1150 937 1136 971 1118 C 1005 1099 1030 1076 1048 1048 C 1066 1020 1077 988 1083 952 C 1088 915 1088 874 1083 829 C 1078 783 1070 734 1059 680 L 983 330 C 977 305 974 285 972 269 C 970 253 972 240 977 231 C 982 222 992 216 1006 213 C 1020 209 1040 208 1067 209 L 1024 2 C 1016 0 1004 -1 986 -1 C 968 -1 947 -2 922 -2 C 898 -2 877 0 859 3 C 841 6 825 12 812 20 C 799 28 789 39 781 53 C 773 67 768 84 766 106 C 728 65 677 34 613 12 C 549 -9 472 -20 381 -20 Z M 444 184 C 496 184 541 189 579 200 C 617 210 649 228 676 252 C 703 276 726 307 744 347 C 762 387 777 436 791 494 L 803 553 L 662 553 C 582 553 514 550 458 544 C 401 538 355 527 319 511 C 283 495 256 471 240 441 C 223 411 215 371 215 322 C 215 300 218 281 225 264 C 232 247 244 233 262 221 C 279 209 302 199 332 193 C 361 187 398 184 444 184 Z M 770 1241 C 724 1241 686 1246 654 1258 C 622 1270 595 1286 575 1306 C 555 1326 540 1350 530 1377 C 520 1404 516 1433 516 1464 C 516 1514 523 1559 538 1601 C 552 1642 573 1677 600 1706 C 626 1735 658 1758 695 1774 C 732 1790 773 1798 819 1798 C 863 1798 900 1791 932 1779 C 964 1766 990 1749 1011 1728 C 1031 1706 1046 1682 1056 1654 C 1066 1626 1071 1596 1071 1565 C 1071 1513 1063 1468 1048 1428 C 1032 1388 1011 1354 985 1326 C 958 1298 926 1277 889 1263 C 852 1248 812 1241 770 1241 Z M 776 1370 C 825 1370 865 1385 896 1417 C 926 1449 942 1493 942 1550 C 942 1566 939 1581 935 1595 C 930 1609 922 1622 912 1633 C 902 1644 888 1653 872 1659 C 856 1665 836 1669 813 1669 C 787 1669 764 1664 744 1655 C 724 1645 706 1632 691 1616 C 676 1599 665 1579 657 1556 C 649 1533 645 1508 645 1481 C 645 1449 655 1423 676 1402 C 696 1380 730 1370 776 1370 Z" unicode="" />
<glyph horiz-adv-x="1952" d="M 1270 -23 C 1210 -23 1158 -18 1113 -10 C 1068 -1 1029 11 995 27 C 961 43 933 62 910 85 C 887 108 868 134 854 162 C 832 134 806 108 777 86 C 747 63 713 44 675 28 C 637 12 593 0 544 -7 C 494 -15 439 -20 377 -20 C 239 -20 138 5 73 57 C 7 108 -25 187 -25 295 C -25 385 -8 459 24 518 C 57 576 105 623 167 657 C 229 691 305 715 394 729 C 483 743 584 750 696 750 L 844 750 C 847 765 849 780 851 794 C 853 808 854 821 854 831 C 854 850 850 867 843 882 C 835 897 822 910 804 920 C 785 930 759 937 727 942 C 695 947 654 950 604 950 C 580 950 554 948 526 944 C 498 940 470 936 443 930 C 415 924 389 916 364 908 C 339 900 317 891 299 881 L 207 1073 C 229 1087 257 1100 289 1112 C 321 1124 356 1134 394 1144 C 432 1153 472 1160 515 1166 C 557 1171 601 1174 647 1174 C 702 1174 751 1171 793 1166 C 835 1161 872 1153 904 1143 C 935 1133 961 1120 983 1105 C 1004 1090 1021 1073 1034 1053 C 1078 1091 1131 1121 1193 1142 C 1255 1163 1328 1174 1413 1174 C 1501 1174 1574 1164 1632 1144 C 1689 1124 1734 1098 1768 1066 C 1801 1034 1824 997 1838 955 C 1851 913 1858 869 1858 825 C 1858 799 1856 772 1854 744 C 1851 715 1847 685 1843 655 C 1839 625 1834 594 1828 564 C 1822 533 1816 503 1810 475 L 1006 475 L 1006 430 C 1006 394 1010 362 1020 332 C 1029 302 1045 277 1067 255 C 1089 233 1119 216 1156 204 C 1193 192 1240 186 1296 186 C 1364 186 1427 193 1484 208 C 1541 222 1592 244 1636 272 L 1733 92 C 1697 68 1661 49 1624 35 C 1587 20 1549 8 1511 0 C 1472 -8 1433 -14 1393 -18 C 1353 -21 1312 -23 1270 -23 Z M 444 184 C 498 184 545 189 583 200 C 621 211 653 229 679 254 C 705 278 727 310 745 350 C 762 389 777 437 791 494 L 803 553 L 662 553 C 584 553 517 550 461 546 C 405 542 358 532 322 516 C 285 500 258 476 241 445 C 223 413 215 371 215 317 C 215 271 232 238 267 216 C 302 194 361 184 444 184 Z M 1386 958 C 1338 958 1295 951 1259 939 C 1223 927 1191 909 1164 885 C 1137 861 1114 831 1095 797 C 1076 763 1060 724 1047 680 L 1622 680 C 1626 699 1629 716 1631 732 C 1633 747 1634 764 1634 784 C 1634 810 1630 833 1623 855 C 1615 876 1602 894 1584 910 C 1565 925 1540 937 1508 945 C 1476 953 1435 958 1386 958 Z" unicode="" />
<glyph horiz-adv-x="1137" d="M 369 -487 C 332 -487 299 -484 269 -480 C 239 -475 211 -469 187 -461 C 162 -453 140 -445 121 -435 C 101 -425 84 -416 70 -406 L 156 -283 C 182 -301 212 -316 245 -330 C 277 -343 317 -350 365 -350 C 412 -350 446 -341 468 -325 C 489 -308 500 -282 500 -248 C 500 -231 495 -217 485 -207 C 475 -197 463 -189 447 -184 C 431 -179 412 -176 392 -175 C 371 -174 350 -174 328 -176 L 285 -139 L 338 -2 C 279 10 230 29 190 55 C 150 81 117 112 93 148 C 69 184 51 224 41 269 C 30 313 25 361 25 412 C 25 448 26 485 30 522 C 34 558 39 595 47 633 C 64 717 88 793 120 860 C 151 926 191 983 240 1030 C 289 1076 348 1112 418 1137 C 488 1161 570 1174 664 1174 C 727 1174 782 1168 830 1158 C 877 1148 918 1134 953 1117 C 988 1099 1018 1079 1043 1056 C 1068 1033 1090 1009 1110 985 L 907 823 C 897 836 885 850 872 864 C 859 878 843 890 823 902 C 803 914 779 923 751 931 C 722 938 687 942 645 942 C 595 942 550 935 511 922 C 472 908 438 888 409 860 C 379 832 354 796 334 752 C 314 708 297 655 285 594 C 273 541 268 488 268 436 C 268 400 272 367 282 337 C 291 307 306 281 327 260 C 348 238 376 222 410 210 C 444 198 487 193 537 193 C 561 193 584 194 606 197 C 628 199 649 204 670 211 C 691 217 712 226 734 238 C 755 249 777 263 801 281 L 936 121 C 902 93 868 71 835 53 C 801 35 767 20 733 9 C 699 -1 664 -9 628 -13 C 592 -17 556 -20 518 -20 C 510 -20 502 -20 495 -20 C 487 -20 480 -19 473 -18 L 444 -88 C 470 -88 496 -91 522 -95 C 548 -99 572 -107 593 -119 C 614 -130 631 -146 644 -166 C 657 -186 664 -212 664 -244 C 664 -292 656 -331 640 -363 C 624 -394 602 -419 575 -437 C 548 -455 517 -468 481 -476 C 445 -483 408 -487 369 -487 Z" unicode="" />
<glyph horiz-adv-x="1200" d="M 514 -23 C 418 -23 339 -11 276 11 C 213 33 163 64 125 103 C 87 142 61 188 46 240 C 30 292 23 348 23 408 C 23 446 25 483 29 521 C 33 558 39 595 47 633 C 63 717 87 792 119 859 C 150 926 190 983 239 1029 C 288 1075 347 1111 416 1136 C 484 1161 565 1174 657 1174 C 745 1174 818 1164 876 1145 C 933 1126 978 1101 1012 1069 C 1046 1037 1069 999 1082 957 C 1095 915 1102 871 1102 825 C 1102 799 1100 772 1098 744 C 1095 715 1091 685 1087 655 C 1083 625 1078 594 1072 564 C 1066 533 1061 503 1055 475 L 250 475 L 250 430 C 250 394 254 362 264 332 C 273 302 289 277 311 255 C 333 233 363 216 401 204 C 438 192 485 186 541 186 C 609 186 671 193 729 208 C 786 222 837 244 881 272 L 977 92 C 941 68 905 49 868 35 C 831 20 793 8 755 0 C 717 -8 677 -14 637 -18 C 597 -21 556 -23 514 -23 Z M 631 958 C 583 958 540 951 504 939 C 468 927 436 909 409 886 C 381 862 358 833 339 799 C 320 765 304 726 291 682 L 866 682 C 870 701 873 718 875 733 C 877 747 879 764 879 784 C 879 810 875 833 868 855 C 860 876 847 894 828 910 C 809 925 784 937 752 945 C 720 953 679 958 631 958 Z M 383 1612 L 662 1612 L 887 1262 L 680 1262 L 383 1612 Z" unicode="" />
<glyph horiz-adv-x="1200" d="M 891 1612 L 1188 1612 L 743 1262 L 518 1262 L 891 1612 Z M 514 -23 C 418 -23 339 -11 276 11 C 213 33 163 64 125 103 C 87 142 61 188 46 240 C 30 292 23 348 23 408 C 23 446 25 483 29 521 C 33 558 39 595 47 633 C 63 717 87 792 119 859 C 150 926 190 983 239 1029 C 288 1075 347 1111 416 1136 C 484 1161 565 1174 657 1174 C 745 1174 818 1164 876 1145 C 933 1126 978 1101 1012 1069 C 1046 1037 1069 999 1082 957 C 1095 915 1102 871 1102 825 C 1102 799 1100 772 1098 744 C 1095 715 1091 685 1087 655 C 1083 625 1078 594 1072 564 C 1066 533 1061 503 1055 475 L 250 475 L 250 430 C 250 394 254 362 264 332 C 273 302 289 277 311 255 C 333 233 363 216 401 204 C 438 192 485 186 541 186 C 609 186 671 193 729 208 C 786 222 837 244 881 272 L 977 92 C 941 68 905 49 868 35 C 831 20 793 8 755 0 C 717 -8 677 -14 637 -18 C 597 -21 556 -23 514 -23 Z M 631 958 C 583 958 540 951 504 939 C 468 927 436 909 409 886 C 381 862 358 833 339 799 C 320 765 304 726 291 682 L 866 682 C 870 701 873 718 875 733 C 877 747 879 764 879 784 C 879 810 875 833 868 855 C 860 876 847 894 828 910 C 809 925 784 937 752 945 C 720 953 679 958 631 958 Z" unicode="" />
<glyph horiz-adv-x="1200" d="M 653 1612 L 907 1612 L 1137 1262 L 913 1262 L 752 1456 L 504 1262 L 274 1262 L 653 1612 Z M 514 -23 C 418 -23 339 -11 276 11 C 213 33 163 64 125 103 C 87 142 61 188 46 240 C 30 292 23 348 23 408 C 23 446 25 483 29 521 C 33 558 39 595 47 633 C 63 717 87 792 119 859 C 150 926 190 983 239 1029 C 288 1075 347 1111 416 1136 C 484 1161 565 1174 657 1174 C 745 1174 818 1164 876 1145 C 933 1126 978 1101 1012 1069 C 1046 1037 1069 999 1082 957 C 1095 915 1102 871 1102 825 C 1102 799 1100 772 1098 744 C 1095 715 1091 685 1087 655 C 1083 625 1078 594 1072 564 C 1066 533 1061 503 1055 475 L 250 475 L 250 430 C 250 394 254 362 264 332 C 273 302 289 277 311 255 C 333 233 363 216 401 204 C 438 192 485 186 541 186 C 609 186 671 193 729 208 C 786 222 837 244 881 272 L 977 92 C 941 68 905 49 868 35 C 831 20 793 8 755 0 C 717 -8 677 -14 637 -18 C 597 -21 556 -23 514 -23 Z M 631 958 C 583 958 540 951 504 939 C 468 927 436 909 409 886 C 381 862 358 833 339 799 C 320 765 304 726 291 682 L 866 682 C 870 701 873 718 875 733 C 877 747 879 764 879 784 C 879 810 875 833 868 855 C 860 876 847 894 828 910 C 809 925 784 937 752 945 C 720 953 679 958 631 958 Z" unicode="" />
<glyph horiz-adv-x="1200" d="M 436 1509 L 653 1509 L 602 1262 L 385 1262 L 436 1509 Z M 864 1509 L 1081 1509 L 1030 1262 L 813 1262 L 864 1509 Z M 514 -23 C 418 -23 339 -11 276 11 C 213 33 163 64 125 103 C 87 142 61 188 46 240 C 30 292 23 348 23 408 C 23 446 25 483 29 521 C 33 558 39 595 47 633 C 63 717 87 792 119 859 C 150 926 190 983 239 1029 C 288 1075 347 1111 416 1136 C 484 1161 565 1174 657 1174 C 745 1174 818 1164 876 1145 C 933 1126 978 1101 1012 1069 C 1046 1037 1069 999 1082 957 C 1095 915 1102 871 1102 825 C 1102 799 1100 772 1098 744 C 1095 715 1091 685 1087 655 C 1083 625 1078 594 1072 564 C 1066 533 1061 503 1055 475 L 250 475 L 250 430 C 250 394 254 362 264 332 C 273 302 289 277 311 255 C 333 233 363 216 401 204 C 438 192 485 186 541 186 C 609 186 671 193 729 208 C 786 222 837 244 881 272 L 977 92 C 941 68 905 49 868 35 C 831 20 793 8 755 0 C 717 -8 677 -14 637 -18 C 597 -21 556 -23 514 -23 Z M 631 958 C 583 958 540 951 504 939 C 468 927 436 909 409 886 C 381 862 358 833 339 799 C 320 765 304 726 291 682 L 866 682 C 870 701 873 718 875 733 C 877 747 879 764 879 784 C 879 810 875 833 868 855 C 860 876 847 894 828 910 C 809 925 784 937 752 945 C 720 953 679 958 631 958 Z" unicode="" />
<glyph horiz-adv-x="543" d="M 53 1612 L 332 1612 L 467 1262 L 262 1262 L 53 1612 Z M 236 1147 L 471 1147 L 229 0 L -10 0 L 236 1147 Z" unicode="" />
<glyph horiz-adv-x="543" d="M 561 1612 L 854 1612 L 479 1262 L 258 1262 L 561 1612 Z M 236 1147 L 471 1147 L 229 0 L -10 0 L 236 1147 Z" unicode="" />
<glyph horiz-adv-x="543" d="M 326 1612 L 575 1612 L 766 1262 L 543 1262 L 422 1456 L 215 1262 L -14 1262 L 326 1612 Z M 236 1147 L 471 1147 L 229 0 L -10 0 L 236 1147 Z" unicode="" />
<glyph horiz-adv-x="543" d="M 137 1509 L 338 1509 L 287 1262 L 86 1262 L 137 1509 Z M 518 1509 L 719 1509 L 668 1262 L 467 1262 L 518 1509 Z M 236 1147 L 471 1147 L 229 0 L -10 0 L 236 1147 Z" unicode="" />
<glyph horiz-adv-x="1284" d="M 700 1376 L 827 1405 C 813 1426 799 1447 783 1469 C 767 1491 750 1513 733 1536 L 973 1622 C 992 1599 1011 1574 1030 1547 C 1048 1520 1065 1492 1081 1462 L 1405 1536 L 1368 1337 L 1153 1288 C 1169 1234 1182 1177 1192 1115 C 1201 1053 1206 988 1206 920 C 1206 849 1201 778 1193 708 C 1185 638 1172 566 1155 494 C 1131 396 1102 315 1066 249 C 1030 183 987 129 937 89 C 887 49 830 20 766 3 C 702 -14 629 -23 549 -23 C 453 -23 371 -12 305 9 C 238 31 184 61 142 100 C 100 139 70 186 51 241 C 32 295 23 356 23 422 C 23 458 24 493 28 528 C 32 562 37 597 45 633 C 63 713 88 784 119 846 C 149 907 187 958 232 999 C 277 1040 330 1071 390 1092 C 450 1113 520 1124 598 1124 C 648 1124 691 1122 729 1118 C 766 1114 799 1107 827 1099 C 855 1091 880 1080 900 1067 C 920 1054 937 1038 952 1020 C 954 1094 941 1165 915 1235 L 662 1180 L 700 1376 Z M 549 193 C 601 193 647 199 687 212 C 727 224 761 244 791 271 C 820 297 844 331 864 371 C 884 411 900 460 913 516 C 919 542 924 568 927 592 C 930 616 932 640 932 662 C 932 698 927 730 917 760 C 907 790 890 815 868 836 C 846 857 817 873 781 885 C 745 897 702 903 651 903 C 597 903 550 896 510 883 C 470 870 435 850 406 823 C 377 796 353 762 333 722 C 313 681 297 633 285 578 C 272 525 266 475 266 428 C 266 392 271 360 281 331 C 291 302 307 277 330 257 C 352 237 381 221 417 210 C 453 198 497 193 549 193 Z" unicode="" />
<glyph horiz-adv-x="1274" d="M 219 1133 L 410 1147 L 403 1059 C 420 1074 440 1089 463 1103 C 485 1117 511 1129 541 1139 C 570 1149 603 1158 640 1164 C 676 1170 718 1174 764 1174 C 834 1174 894 1167 942 1155 C 990 1143 1028 1125 1058 1103 C 1088 1081 1109 1054 1123 1023 C 1137 991 1145 957 1147 919 C 1149 881 1148 840 1142 796 C 1136 752 1128 706 1118 659 L 977 0 L 739 0 L 874 633 C 880 661 885 688 890 714 C 894 740 896 764 896 786 C 896 808 892 829 886 847 C 879 865 867 881 850 894 C 832 907 809 917 780 925 C 750 932 713 936 668 936 C 614 936 570 928 534 914 C 498 899 468 879 445 853 C 421 827 403 797 389 763 C 375 728 364 691 356 651 L 219 0 L -20 0 L 219 1133 Z M 932 1264 C 894 1264 861 1269 833 1280 C 804 1291 777 1303 753 1317 C 728 1330 704 1342 681 1353 C 658 1364 634 1370 608 1370 C 578 1370 549 1360 523 1342 C 497 1323 472 1300 449 1274 L 328 1395 C 372 1448 418 1490 466 1520 C 514 1550 564 1565 616 1565 C 652 1565 685 1559 714 1548 C 743 1537 770 1525 795 1512 C 820 1499 844 1487 867 1476 C 890 1465 914 1460 940 1460 C 966 1460 992 1469 1017 1487 C 1041 1505 1068 1529 1096 1561 L 1219 1442 C 1169 1383 1120 1339 1074 1309 C 1027 1279 980 1264 932 1264 Z" unicode="" />
<glyph horiz-adv-x="1282" d="M 535 -23 C 443 -23 365 -12 301 9 C 237 30 184 60 143 99 C 102 138 72 185 53 240 C 34 295 25 356 25 424 C 25 456 26 490 30 525 C 34 559 39 595 47 633 C 67 730 96 813 133 881 C 169 949 213 1005 265 1049 C 317 1092 376 1124 443 1144 C 510 1164 585 1174 668 1174 C 759 1174 837 1163 902 1142 C 967 1120 1020 1090 1062 1052 C 1103 1013 1133 966 1153 911 C 1172 856 1182 795 1182 729 C 1182 696 1179 662 1175 627 C 1170 592 1164 556 1157 518 C 1136 420 1108 337 1072 269 C 1036 201 992 145 940 102 C 888 58 828 27 761 7 C 693 -13 618 -23 535 -23 Z M 549 193 C 601 193 648 200 688 214 C 728 228 763 249 793 277 C 823 305 848 341 868 385 C 888 428 904 479 918 539 C 924 565 928 592 931 619 C 934 645 936 670 936 694 C 936 731 931 765 921 796 C 911 826 895 853 873 875 C 851 897 822 914 786 926 C 750 938 707 944 655 944 C 601 944 553 936 513 922 C 473 908 438 886 408 857 C 378 828 354 792 334 748 C 314 704 297 653 285 594 C 272 542 266 490 266 438 C 266 401 271 368 281 338 C 291 308 307 282 330 260 C 352 238 381 222 417 210 C 453 198 497 193 549 193 Z M 422 1612 L 700 1612 L 926 1262 L 719 1262 L 422 1612 Z" unicode="" />
<glyph horiz-adv-x="1282" d="M 930 1612 L 1227 1612 L 782 1262 L 557 1262 L 930 1612 Z M 535 -23 C 443 -23 365 -12 301 9 C 237 30 184 60 143 99 C 102 138 72 185 53 240 C 34 295 25 356 25 424 C 25 456 26 490 30 525 C 34 559 39 595 47 633 C 67 730 96 813 133 881 C 169 949 213 1005 265 1049 C 317 1092 376 1124 443 1144 C 510 1164 585 1174 668 1174 C 759 1174 837 1163 902 1142 C 967 1120 1020 1090 1062 1052 C 1103 1013 1133 966 1153 911 C 1172 856 1182 795 1182 729 C 1182 696 1179 662 1175 627 C 1170 592 1164 556 1157 518 C 1136 420 1108 337 1072 269 C 1036 201 992 145 940 102 C 888 58 828 27 761 7 C 693 -13 618 -23 535 -23 Z M 549 193 C 601 193 648 200 688 214 C 728 228 763 249 793 277 C 823 305 848 341 868 385 C 888 428 904 479 918 539 C 924 565 928 592 931 619 C 934 645 936 670 936 694 C 936 731 931 765 921 796 C 911 826 895 853 873 875 C 851 897 822 914 786 926 C 750 938 707 944 655 944 C 601 944 553 936 513 922 C 473 908 438 886 408 857 C 378 828 354 792 334 748 C 314 704 297 653 285 594 C 272 542 266 490 266 438 C 266 401 271 368 281 338 C 291 308 307 282 330 260 C 352 238 381 222 417 210 C 453 198 497 193 549 193 Z" unicode="" />
<glyph horiz-adv-x="1282" d="M 692 1612 L 946 1612 L 1176 1262 L 952 1262 L 791 1456 L 543 1262 L 313 1262 L 692 1612 Z M 535 -23 C 443 -23 365 -12 301 9 C 237 30 184 60 143 99 C 102 138 72 185 53 240 C 34 295 25 356 25 424 C 25 456 26 490 30 525 C 34 559 39 595 47 633 C 67 730 96 813 133 881 C 169 949 213 1005 265 1049 C 317 1092 376 1124 443 1144 C 510 1164 585 1174 668 1174 C 759 1174 837 1163 902 1142 C 967 1120 1020 1090 1062 1052 C 1103 1013 1133 966 1153 911 C 1172 856 1182 795 1182 729 C 1182 696 1179 662 1175 627 C 1170 592 1164 556 1157 518 C 1136 420 1108 337 1072 269 C 1036 201 992 145 940 102 C 888 58 828 27 761 7 C 693 -13 618 -23 535 -23 Z M 549 193 C 601 193 648 200 688 214 C 728 228 763 249 793 277 C 823 305 848 341 868 385 C 888 428 904 479 918 539 C 924 565 928 592 931 619 C 934 645 936 670 936 694 C 936 731 931 765 921 796 C 911 826 895 853 873 875 C 851 897 822 914 786 926 C 750 938 707 944 655 944 C 601 944 553 936 513 922 C 473 908 438 886 408 857 C 378 828 354 792 334 748 C 314 704 297 653 285 594 C 272 542 266 490 266 438 C 266 401 271 368 281 338 C 291 308 307 282 330 260 C 352 238 381 222 417 210 C 453 198 497 193 549 193 Z" unicode="" />
<glyph horiz-adv-x="1282" d="M 535 -23 C 443 -23 365 -12 301 9 C 237 30 184 60 143 99 C 102 138 72 185 53 240 C 34 295 25 356 25 424 C 25 456 26 490 30 525 C 34 559 39 595 47 633 C 67 730 96 813 133 881 C 169 949 213 1005 265 1049 C 317 1092 376 1124 443 1144 C 510 1164 585 1174 668 1174 C 759 1174 837 1163 902 1142 C 967 1120 1020 1090 1062 1052 C 1103 1013 1133 966 1153 911 C 1172 856 1182 795 1182 729 C 1182 696 1179 662 1175 627 C 1170 592 1164 556 1157 518 C 1136 420 1108 337 1072 269 C 1036 201 992 145 940 102 C 888 58 828 27 761 7 C 693 -13 618 -23 535 -23 Z M 549 193 C 601 193 648 200 688 214 C 728 228 763 249 793 277 C 823 305 848 341 868 385 C 888 428 904 479 918 539 C 924 565 928 592 931 619 C 934 645 936 670 936 694 C 936 731 931 765 921 796 C 911 826 895 853 873 875 C 851 897 822 914 786 926 C 750 938 707 944 655 944 C 601 944 553 936 513 922 C 473 908 438 886 408 857 C 378 828 354 792 334 748 C 314 704 297 653 285 594 C 272 542 266 490 266 438 C 266 401 271 368 281 338 C 291 308 307 282 330 260 C 352 238 381 222 417 210 C 453 198 497 193 549 193 Z M 936 1264 C 898 1264 865 1269 837 1280 C 808 1291 781 1303 757 1317 C 732 1330 708 1342 685 1353 C 662 1364 638 1370 612 1370 C 582 1370 553 1360 527 1342 C 501 1323 476 1300 453 1274 L 332 1395 C 376 1448 422 1490 470 1520 C 518 1550 568 1565 621 1565 C 657 1565 690 1559 719 1548 C 747 1537 774 1525 799 1512 C 824 1499 848 1487 871 1476 C 894 1465 918 1460 944 1460 C 970 1460 996 1469 1021 1487 C 1045 1505 1072 1529 1100 1561 L 1223 1442 C 1173 1383 1124 1339 1078 1309 C 1031 1279 984 1264 936 1264 Z" unicode="" />
<glyph horiz-adv-x="1282" d="M 475 1509 L 692 1509 L 641 1262 L 424 1262 L 475 1509 Z M 903 1509 L 1120 1509 L 1069 1262 L 852 1262 L 903 1509 Z M 535 -23 C 443 -23 365 -12 301 9 C 237 30 184 60 143 99 C 102 138 72 185 53 240 C 34 295 25 356 25 424 C 25 456 26 490 30 525 C 34 559 39 595 47 633 C 67 730 96 813 133 881 C 169 949 213 1005 265 1049 C 317 1092 376 1124 443 1144 C 510 1164 585 1174 668 1174 C 759 1174 837 1163 902 1142 C 967 1120 1020 1090 1062 1052 C 1103 1013 1133 966 1153 911 C 1172 856 1182 795 1182 729 C 1182 696 1179 662 1175 627 C 1170 592 1164 556 1157 518 C 1136 420 1108 337 1072 269 C 1036 201 992 145 940 102 C 888 58 828 27 761 7 C 693 -13 618 -23 535 -23 Z M 549 193 C 601 193 648 200 688 214 C 728 228 763 249 793 277 C 823 305 848 341 868 385 C 888 428 904 479 918 539 C 924 565 928 592 931 619 C 934 645 936 670 936 694 C 936 731 931 765 921 796 C 911 826 895 853 873 875 C 851 897 822 914 786 926 C 750 938 707 944 655 944 C 601 944 553 936 513 922 C 473 908 438 886 408 857 C 378 828 354 792 334 748 C 314 704 297 653 285 594 C 272 542 266 490 266 438 C 266 401 271 368 281 338 C 291 308 307 282 330 260 C 352 238 381 222 417 210 C 453 198 497 193 549 193 Z" unicode="" />
<glyph horiz-adv-x="1452" d="M 528 426 L 784 426 L 733 188 L 477 188 L 528 426 Z M 219 836 L 1264 836 L 1217 608 L 172 608 L 219 836 Z M 702 1257 L 958 1257 L 909 1018 L 653 1018 L 702 1257 Z" unicode="" />
<glyph horiz-adv-x="1282" d="M 535 -23 C 477 -23 425 -18 379 -9 C 333 0 291 11 254 27 L 162 -86 L -43 -86 L 125 119 C 89 157 64 201 48 253 C 32 304 25 361 25 424 C 25 456 26 490 30 525 C 34 559 39 595 47 633 C 67 730 96 813 133 881 C 169 949 213 1005 265 1049 C 317 1092 376 1124 443 1144 C 510 1164 585 1174 668 1174 C 725 1174 777 1169 824 1160 C 871 1151 913 1139 950 1124 L 1042 1237 L 1247 1237 L 1079 1032 C 1114 994 1140 949 1157 898 C 1173 847 1182 791 1182 729 C 1182 696 1179 662 1175 627 C 1170 592 1164 556 1157 518 C 1136 420 1108 337 1072 269 C 1036 201 992 145 940 102 C 888 58 828 27 761 7 C 693 -13 618 -23 535 -23 Z M 547 180 C 602 180 650 187 692 201 C 733 215 769 237 800 267 C 830 297 856 334 877 379 C 897 423 914 476 928 537 C 935 565 940 593 943 620 C 946 647 948 673 948 698 C 948 727 945 754 940 778 C 934 802 926 824 915 844 L 389 205 C 429 188 481 180 547 180 Z M 254 432 C 254 406 256 382 260 360 C 264 337 272 316 283 297 L 803 934 C 762 948 713 956 657 956 C 601 956 552 948 510 934 C 468 919 432 897 402 867 C 371 837 345 800 325 755 C 304 709 287 656 274 596 C 268 567 263 539 259 512 C 255 485 254 458 254 432 Z" unicode="" />
<glyph horiz-adv-x="1260" d="M 530 -23 C 450 -23 381 -17 325 -5 C 268 7 221 24 185 47 C 148 69 120 97 101 131 C 81 164 69 202 63 245 C 57 287 56 334 61 385 C 66 436 75 491 88 551 L 215 1147 L 455 1147 L 324 530 C 317 498 311 468 306 440 C 301 411 299 384 300 360 C 301 336 306 314 314 294 C 322 274 335 257 354 243 C 373 229 399 218 431 210 C 463 202 503 199 551 199 C 604 199 647 205 679 218 C 711 231 737 250 757 275 C 776 299 791 329 801 365 C 811 400 821 440 831 485 L 973 1147 L 1206 1147 L 1063 473 C 1043 383 1022 307 998 244 C 974 181 943 130 904 90 C 864 50 815 22 755 4 C 695 -14 620 -23 530 -23 Z M 412 1612 L 690 1612 L 915 1262 L 709 1262 L 412 1612 Z" unicode="" />
<glyph horiz-adv-x="1260" d="M 920 1612 L 1217 1612 L 772 1262 L 547 1262 L 920 1612 Z M 530 -23 C 450 -23 381 -17 325 -5 C 268 7 221 24 185 47 C 148 69 120 97 101 131 C 81 164 69 202 63 245 C 57 287 56 334 61 385 C 66 436 75 491 88 551 L 215 1147 L 455 1147 L 324 530 C 317 498 311 468 306 440 C 301 411 299 384 300 360 C 301 336 306 314 314 294 C 322 274 335 257 354 243 C 373 229 399 218 431 210 C 463 202 503 199 551 199 C 604 199 647 205 679 218 C 711 231 737 250 757 275 C 776 299 791 329 801 365 C 811 400 821 440 831 485 L 973 1147 L 1206 1147 L 1063 473 C 1043 383 1022 307 998 244 C 974 181 943 130 904 90 C 864 50 815 22 755 4 C 695 -14 620 -23 530 -23 Z" unicode="" />
<glyph horiz-adv-x="1260" d="M 682 1612 L 936 1612 L 1165 1262 L 942 1262 L 780 1456 L 532 1262 L 303 1262 L 682 1612 Z M 530 -23 C 450 -23 381 -17 325 -5 C 268 7 221 24 185 47 C 148 69 120 97 101 131 C 81 164 69 202 63 245 C 57 287 56 334 61 385 C 66 436 75 491 88 551 L 215 1147 L 455 1147 L 324 530 C 317 498 311 468 306 440 C 301 411 299 384 300 360 C 301 336 306 314 314 294 C 322 274 335 257 354 243 C 373 229 399 218 431 210 C 463 202 503 199 551 199 C 604 199 647 205 679 218 C 711 231 737 250 757 275 C 776 299 791 329 801 365 C 811 400 821 440 831 485 L 973 1147 L 1206 1147 L 1063 473 C 1043 383 1022 307 998 244 C 974 181 943 130 904 90 C 864 50 815 22 755 4 C 695 -14 620 -23 530 -23 Z" unicode="" />
<glyph horiz-adv-x="1260" d="M 465 1509 L 682 1509 L 631 1262 L 414 1262 L 465 1509 Z M 893 1509 L 1110 1509 L 1059 1262 L 842 1262 L 893 1509 Z M 530 -23 C 450 -23 381 -17 325 -5 C 268 7 221 24 185 47 C 148 69 120 97 101 131 C 81 164 69 202 63 245 C 57 287 56 334 61 385 C 66 436 75 491 88 551 L 215 1147 L 455 1147 L 324 530 C 317 498 311 468 306 440 C 301 411 299 384 300 360 C 301 336 306 314 314 294 C 322 274 335 257 354 243 C 373 229 399 218 431 210 C 463 202 503 199 551 199 C 604 199 647 205 679 218 C 711 231 737 250 757 275 C 776 299 791 329 801 365 C 811 400 821 440 831 485 L 973 1147 L 1206 1147 L 1063 473 C 1043 383 1022 307 998 244 C 974 181 943 130 904 90 C 864 50 815 22 755 4 C 695 -14 620 -23 530 -23 Z" unicode="" />
<glyph horiz-adv-x="1100" d="M 59 -346 C 32 -346 6 -345 -19 -345 C -45 -344 -64 -343 -78 -342 L -41 -152 L 47 -152 C 75 -152 99 -150 117 -147 C 135 -144 150 -139 162 -131 C 174 -123 185 -113 194 -100 C 203 -86 213 -69 225 -49 L 272 29 L 92 1147 L 342 1147 L 457 332 L 913 1147 L 1171 1147 L 442 -98 C 414 -146 388 -186 364 -218 C 339 -250 312 -275 284 -294 C 255 -313 223 -326 187 -334 C 151 -342 108 -346 59 -346 Z M 844 1612 L 1141 1612 L 696 1262 L 471 1262 L 844 1612 Z" unicode="" />
<glyph horiz-adv-x="1319" d="M 319 1589 L 555 1589 L 442 1069 C 457 1084 475 1098 496 1111 C 516 1123 541 1134 569 1144 C 597 1153 630 1160 668 1166 C 705 1171 748 1174 797 1174 C 877 1174 944 1163 999 1142 C 1053 1121 1097 1092 1130 1055 C 1163 1017 1187 973 1201 923 C 1215 872 1223 817 1223 758 C 1223 720 1220 682 1215 642 C 1210 602 1203 561 1194 520 C 1175 436 1152 361 1124 295 C 1096 228 1061 171 1018 125 C 975 79 923 43 862 19 C 800 -5 727 -18 643 -18 C 579 -18 525 -15 479 -9 C 433 -3 394 5 363 17 C 331 29 306 43 287 60 C 268 77 254 97 244 119 L 147 -338 L -90 -338 L 319 1589 Z M 610 197 C 662 197 706 204 744 219 C 781 233 813 255 839 284 C 865 313 887 349 905 392 C 923 434 938 484 952 541 C 958 571 964 600 968 628 C 972 656 975 683 975 709 C 975 744 970 776 961 805 C 952 834 937 859 917 879 C 896 899 869 915 835 927 C 801 938 760 944 711 944 C 660 944 615 938 576 928 C 537 918 503 900 473 874 C 443 848 418 812 397 768 C 376 724 358 668 344 600 C 336 569 331 539 327 511 C 323 483 322 456 322 432 C 322 392 327 358 338 328 C 348 298 365 274 388 255 C 411 235 441 221 477 211 C 513 201 558 197 610 197 Z" unicode="" />
<glyph horiz-adv-x="1100" d="M 59 -346 C 32 -346 6 -345 -19 -345 C -45 -344 -64 -343 -78 -342 L -41 -152 L 47 -152 C 75 -152 99 -150 117 -147 C 135 -144 150 -139 162 -131 C 174 -123 185 -113 194 -100 C 203 -86 213 -69 225 -49 L 272 29 L 92 1147 L 342 1147 L 457 332 L 913 1147 L 1171 1147 L 442 -98 C 414 -146 388 -186 364 -218 C 339 -250 312 -275 284 -294 C 255 -313 223 -326 187 -334 C 151 -342 108 -346 59 -346 Z M 389 1509 L 606 1509 L 555 1262 L 338 1262 L 389 1509 Z M 817 1509 L 1034 1509 L 983 1262 L 766 1262 L 817 1509 Z" unicode="" />
<glyph horiz-adv-x="1501" d="" unicode="" />
<glyph horiz-adv-x="1266" d="" unicode="" />
<glyph horiz-adv-x="1501" d="M 786 1528 L 1034 1528 L 1292 0 L 1044 0 L 995 291 L 313 291 L 145 0 L -123 0 L 786 1528 Z M 963 520 L 850 1210 L 442 520 L 963 520 Z M 956 1583 C 878 1583 815 1592 768 1612 C 720 1631 684 1657 658 1691 C 632 1725 614 1764 606 1810 C 597 1855 593 1904 594 1956 L 776 1978 C 776 1946 778 1917 782 1893 C 786 1868 795 1847 809 1831 C 822 1814 841 1801 867 1793 C 892 1784 925 1780 967 1780 C 1006 1780 1040 1784 1068 1793 C 1096 1801 1120 1814 1140 1831 C 1160 1847 1178 1868 1192 1893 C 1206 1917 1219 1946 1231 1978 L 1401 1946 C 1385 1894 1364 1846 1340 1802 C 1315 1758 1285 1719 1249 1687 C 1213 1654 1170 1628 1122 1610 C 1074 1592 1018 1583 956 1583 Z" unicode="" />
<glyph horiz-adv-x="1266" d="M 381 -20 C 301 -20 236 -12 184 2 C 132 17 90 38 59 66 C 28 94 6 127 -5 166 C -17 204 -24 247 -25 295 C -25 385 -9 460 23 519 C 55 577 101 624 163 658 C 225 692 300 716 390 730 C 479 743 581 750 696 750 L 844 750 C 847 765 849 779 851 793 C 853 806 854 819 854 831 C 854 851 850 868 843 883 C 835 898 822 910 803 920 C 784 930 759 937 727 942 C 695 947 654 950 604 950 C 580 950 554 948 526 944 C 498 940 470 936 443 930 C 415 924 389 916 364 908 C 339 900 317 891 299 881 L 207 1073 C 229 1087 257 1100 289 1112 C 321 1124 357 1134 395 1144 C 433 1153 473 1160 516 1166 C 558 1171 602 1174 647 1174 C 723 1174 787 1169 840 1160 C 893 1150 937 1136 971 1118 C 1005 1099 1030 1076 1048 1048 C 1066 1020 1077 988 1083 952 C 1088 915 1088 874 1083 829 C 1078 783 1070 734 1059 680 L 983 330 C 977 305 974 285 972 269 C 970 253 972 240 977 231 C 982 222 992 216 1006 213 C 1020 209 1040 208 1067 209 L 1024 2 C 1016 0 1004 -1 986 -1 C 968 -1 947 -2 922 -2 C 898 -2 877 0 859 3 C 841 6 825 12 812 20 C 799 28 789 39 781 53 C 773 67 768 84 766 106 C 728 65 677 34 613 12 C 549 -9 472 -20 381 -20 Z M 444 184 C 496 184 541 189 579 200 C 617 210 649 228 676 252 C 703 276 726 307 744 347 C 762 387 777 436 791 494 L 803 553 L 662 553 C 582 553 514 550 458 544 C 401 538 355 527 319 511 C 283 495 256 471 240 441 C 223 411 215 371 215 322 C 215 300 218 281 225 264 C 232 247 244 233 262 221 C 279 209 302 199 332 193 C 361 187 398 184 444 184 Z M 772 1241 C 694 1241 631 1250 584 1270 C 536 1289 500 1315 474 1349 C 448 1383 430 1422 422 1468 C 413 1513 409 1562 410 1614 L 592 1636 C 592 1604 594 1575 598 1551 C 602 1526 611 1505 625 1489 C 638 1472 657 1459 682 1451 C 707 1442 740 1438 782 1438 C 821 1438 855 1442 883 1451 C 911 1459 935 1472 955 1489 C 975 1505 993 1526 1007 1551 C 1021 1575 1035 1604 1047 1636 L 1217 1604 C 1201 1552 1180 1504 1156 1460 C 1131 1416 1101 1377 1065 1345 C 1029 1312 986 1286 938 1268 C 890 1250 834 1241 772 1241 Z" unicode="" />
<glyph horiz-adv-x="1501" d="M 786 1528 L 1034 1528 L 1292 0 L 1200 0 C 1172 -16 1146 -34 1121 -53 C 1096 -72 1074 -92 1056 -112 C 1037 -132 1022 -152 1011 -172 C 1000 -192 995 -213 995 -233 C 995 -260 1003 -279 1021 -289 C 1038 -299 1068 -305 1110 -305 C 1136 -305 1159 -302 1177 -296 C 1195 -290 1214 -282 1233 -274 L 1292 -418 C 1259 -433 1224 -444 1188 -452 C 1152 -459 1114 -463 1075 -463 C 1021 -463 976 -458 940 -450 C 904 -442 875 -430 854 -414 C 833 -398 818 -378 810 -356 C 801 -334 797 -309 797 -281 C 797 -246 803 -213 816 -182 C 828 -150 845 -121 867 -93 C 889 -65 914 -40 943 -17 C 972 5 1003 25 1036 43 L 995 291 L 313 291 L 145 0 L -123 0 L 786 1528 Z M 963 520 L 850 1210 L 442 520 L 963 520 Z" unicode="" />
<glyph horiz-adv-x="1266" d="M 381 -20 C 301 -20 236 -12 184 2 C 132 17 90 38 59 66 C 28 94 6 127 -5 166 C -17 204 -24 247 -25 295 C -25 385 -9 460 23 519 C 55 577 101 624 163 658 C 225 692 300 716 390 730 C 479 743 581 750 696 750 L 844 750 C 847 765 849 779 851 793 C 853 806 854 819 854 831 C 854 851 850 868 843 883 C 835 898 822 910 803 920 C 784 930 759 937 727 942 C 695 947 654 950 604 950 C 580 950 554 948 526 944 C 498 940 470 936 443 930 C 415 924 389 916 364 908 C 339 900 317 891 299 881 L 207 1073 C 229 1087 257 1100 289 1112 C 321 1124 357 1134 395 1144 C 433 1153 473 1160 516 1166 C 558 1171 602 1174 647 1174 C 723 1174 787 1169 840 1160 C 893 1150 937 1136 971 1118 C 1005 1099 1030 1076 1048 1048 C 1066 1020 1077 988 1083 952 C 1088 915 1088 874 1083 829 C 1078 783 1070 734 1059 680 L 983 330 C 977 305 974 285 972 269 C 970 253 972 240 977 231 C 982 222 992 216 1006 213 C 1020 209 1040 208 1067 209 L 1024 2 C 994 -15 964 -33 936 -52 C 908 -70 882 -90 860 -110 C 838 -130 820 -150 806 -171 C 792 -191 786 -212 786 -233 C 786 -260 794 -279 812 -289 C 829 -299 859 -305 901 -305 C 927 -305 952 -302 975 -296 C 998 -290 1019 -282 1038 -274 L 1098 -418 C 1064 -433 1027 -444 986 -452 C 945 -459 905 -463 866 -463 C 812 -463 767 -458 731 -450 C 695 -442 666 -430 645 -414 C 624 -398 609 -378 601 -356 C 592 -334 588 -309 588 -281 C 588 -247 594 -214 606 -184 C 618 -154 635 -126 656 -100 C 676 -74 700 -51 727 -31 C 753 -10 781 7 809 23 C 805 25 802 27 800 29 C 797 31 795 33 793 37 C 785 45 779 55 775 67 C 771 79 768 92 766 106 C 728 65 677 34 613 12 C 549 -9 472 -20 381 -20 Z M 444 184 C 496 184 541 189 579 200 C 617 210 649 228 676 252 C 703 276 726 307 744 347 C 762 387 777 436 791 494 L 803 553 L 662 553 C 582 553 514 550 458 544 C 401 538 355 527 319 511 C 283 495 256 471 240 441 C 223 411 215 371 215 322 C 215 300 218 281 225 264 C 232 247 244 233 262 221 C 279 209 302 199 332 193 C 361 187 398 184 444 184 Z" unicode="" />
<glyph horiz-adv-x="1481" d="M 1100 1954 L 1397 1954 L 952 1604 L 727 1604 L 1100 1954 Z M 731 -23 C 613 -23 511 -9 427 19 C 342 47 272 86 217 138 C 162 189 122 251 96 324 C 70 397 57 479 57 569 C 57 610 59 652 64 696 C 68 740 76 786 86 834 C 114 969 155 1082 209 1173 C 263 1263 326 1336 398 1391 C 470 1445 551 1484 639 1507 C 727 1530 819 1542 915 1542 C 996 1542 1068 1535 1130 1523 C 1192 1510 1247 1493 1294 1472 C 1341 1451 1381 1427 1415 1400 C 1448 1373 1477 1345 1501 1317 L 1290 1147 C 1250 1193 1198 1231 1136 1260 C 1073 1288 997 1303 907 1303 C 833 1303 766 1293 704 1274 C 642 1255 587 1225 539 1185 C 490 1145 448 1093 413 1029 C 378 965 351 889 332 801 C 324 765 319 731 316 698 C 312 665 311 634 311 604 C 311 543 319 488 336 440 C 353 392 380 351 416 317 C 452 283 498 256 554 238 C 610 220 676 211 754 211 C 796 211 834 213 869 219 C 904 224 937 232 967 243 C 997 253 1026 266 1053 282 C 1080 298 1107 316 1133 338 L 1286 154 C 1252 124 1215 98 1177 76 C 1138 54 1096 35 1051 21 C 1006 6 957 -4 904 -12 C 851 -19 793 -23 731 -23 Z" unicode="" />
<glyph horiz-adv-x="1137" d="M 860 1612 L 1157 1612 L 713 1262 L 487 1262 L 860 1612 Z M 518 -20 C 424 -20 345 -9 282 13 C 219 35 169 65 131 104 C 93 142 65 188 49 241 C 33 293 25 350 25 412 C 25 448 26 485 30 522 C 34 558 39 595 47 633 C 64 717 88 793 120 860 C 151 926 191 983 240 1030 C 289 1076 348 1112 418 1137 C 488 1161 570 1174 664 1174 C 727 1174 782 1168 830 1158 C 877 1148 918 1134 953 1117 C 988 1099 1018 1079 1043 1056 C 1068 1033 1090 1009 1110 985 L 907 823 C 897 836 885 850 872 864 C 859 878 843 890 823 902 C 803 914 779 923 751 931 C 722 938 687 942 645 942 C 595 942 550 935 511 922 C 472 908 438 888 409 860 C 379 832 354 796 334 752 C 314 708 297 655 285 594 C 273 541 268 488 268 436 C 268 400 272 367 282 337 C 291 307 306 281 327 260 C 348 238 376 222 410 210 C 444 198 487 193 537 193 C 561 193 584 194 606 197 C 628 199 649 204 670 211 C 691 217 712 226 734 238 C 755 249 777 263 801 281 L 936 121 C 902 93 868 71 835 53 C 801 35 767 20 733 9 C 699 -1 664 -9 628 -13 C 592 -17 556 -20 518 -20 Z" unicode="" />
<glyph horiz-adv-x="1481" d="" unicode="" />
<glyph horiz-adv-x="1137" d="" unicode="" />
<glyph horiz-adv-x="1481" d="" unicode="" />
<glyph horiz-adv-x="1137" d="" unicode="" />
<glyph horiz-adv-x="1481" d="M 559 1954 L 780 1954 L 944 1759 L 1190 1954 L 1421 1954 L 1042 1604 L 788 1604 L 559 1954 Z M 731 -23 C 613 -23 511 -9 427 19 C 342 47 272 86 217 138 C 162 189 122 251 96 324 C 70 397 57 479 57 569 C 57 610 59 652 64 696 C 68 740 76 786 86 834 C 114 969 155 1082 209 1173 C 263 1263 326 1336 398 1391 C 470 1445 551 1484 639 1507 C 727 1530 819 1542 915 1542 C 996 1542 1068 1535 1130 1523 C 1192 1510 1247 1493 1294 1472 C 1341 1451 1381 1427 1415 1400 C 1448 1373 1477 1345 1501 1317 L 1290 1147 C 1250 1193 1198 1231 1136 1260 C 1073 1288 997 1303 907 1303 C 833 1303 766 1293 704 1274 C 642 1255 587 1225 539 1185 C 490 1145 448 1093 413 1029 C 378 965 351 889 332 801 C 324 765 319 731 316 698 C 312 665 311 634 311 604 C 311 543 319 488 336 440 C 353 392 380 351 416 317 C 452 283 498 256 554 238 C 610 220 676 211 754 211 C 796 211 834 213 869 219 C 904 224 937 232 967 243 C 997 253 1026 266 1053 282 C 1080 298 1107 316 1133 338 L 1286 154 C 1252 124 1215 98 1177 76 C 1138 54 1096 35 1051 21 C 1006 6 957 -4 904 -12 C 851 -19 793 -23 731 -23 Z" unicode="" />
<glyph horiz-adv-x="1137" d="M 319 1612 L 541 1612 L 705 1417 L 950 1612 L 1182 1612 L 803 1262 L 549 1262 L 319 1612 Z M 518 -20 C 424 -20 345 -9 282 13 C 219 35 169 65 131 104 C 93 142 65 188 49 241 C 33 293 25 350 25 412 C 25 448 26 485 30 522 C 34 558 39 595 47 633 C 64 717 88 793 120 860 C 151 926 191 983 240 1030 C 289 1076 348 1112 418 1137 C 488 1161 570 1174 664 1174 C 727 1174 782 1168 830 1158 C 877 1148 918 1134 953 1117 C 988 1099 1018 1079 1043 1056 C 1068 1033 1090 1009 1110 985 L 907 823 C 897 836 885 850 872 864 C 859 878 843 890 823 902 C 803 914 779 923 751 931 C 722 938 687 942 645 942 C 595 942 550 935 511 922 C 472 908 438 888 409 860 C 379 832 354 796 334 752 C 314 708 297 655 285 594 C 273 541 268 488 268 436 C 268 400 272 367 282 337 C 291 307 306 281 327 260 C 348 238 376 222 410 210 C 444 198 487 193 537 193 C 561 193 584 194 606 197 C 628 199 649 204 670 211 C 691 217 712 226 734 238 C 755 249 777 263 801 281 L 936 121 C 902 93 868 71 835 53 C 801 35 767 20 733 9 C 699 -1 664 -9 628 -13 C 592 -17 556 -20 518 -20 Z" unicode="" />
<glyph horiz-adv-x="1548" d="M 590 1956 L 811 1956 L 975 1761 L 1221 1956 L 1452 1956 L 1073 1606 L 819 1606 L 590 1956 Z M 328 1518 L 696 1518 C 838 1518 960 1507 1061 1487 C 1162 1466 1245 1434 1309 1391 C 1373 1347 1419 1292 1449 1224 C 1478 1156 1493 1075 1493 981 C 1493 935 1490 888 1484 838 C 1478 788 1469 734 1456 676 C 1435 578 1410 494 1380 422 C 1350 350 1317 290 1279 240 C 1241 190 1198 149 1151 118 C 1104 86 1053 62 997 45 C 941 27 881 15 817 9 C 752 3 683 0 610 0 L 4 0 L 328 1518 Z M 616 229 C 704 229 781 235 846 249 C 910 262 966 286 1013 322 C 1059 357 1098 406 1129 468 C 1160 530 1186 611 1208 709 C 1217 753 1224 794 1230 833 C 1236 871 1239 908 1239 944 C 1239 1001 1229 1051 1211 1093 C 1192 1135 1161 1171 1119 1199 C 1077 1227 1021 1247 951 1261 C 881 1275 796 1282 694 1282 L 528 1282 L 299 229 L 616 229 Z" unicode="" />
<glyph horiz-adv-x="1583" d="M 1413 1176 C 1441 1189 1465 1201 1483 1211 C 1501 1221 1516 1232 1528 1242 C 1540 1252 1548 1264 1554 1277 C 1560 1289 1565 1305 1569 1323 L 1458 1323 L 1513 1589 L 1757 1589 L 1718 1397 C 1708 1349 1697 1309 1685 1277 C 1673 1244 1657 1215 1637 1191 C 1617 1166 1593 1144 1563 1125 C 1533 1105 1494 1085 1448 1065 L 1413 1176 Z M 446 -18 C 366 -18 298 -7 244 13 C 189 33 145 62 112 99 C 79 136 55 180 41 230 C 27 280 20 335 20 395 C 20 432 22 471 28 511 C 34 551 41 593 51 635 C 69 717 92 792 120 859 C 147 925 182 982 225 1029 C 267 1075 319 1111 380 1136 C 441 1161 514 1174 600 1174 C 661 1174 714 1170 759 1164 C 804 1157 842 1148 873 1136 C 904 1124 929 1109 949 1091 C 968 1073 983 1054 993 1032 L 1116 1589 L 1356 1589 L 1018 10 L 834 -8 L 842 92 C 821 72 798 55 772 41 C 746 27 717 15 685 7 C 653 -1 617 -8 577 -12 C 537 -16 494 -18 446 -18 Z M 532 197 C 582 197 627 202 666 212 C 705 222 739 241 769 267 C 799 293 824 328 845 372 C 866 416 884 473 899 541 C 913 601 920 658 920 711 C 920 750 914 784 904 814 C 893 843 876 867 853 887 C 830 907 800 921 764 931 C 727 941 683 946 631 946 C 579 946 534 938 497 924 C 460 909 428 887 402 858 C 376 829 354 793 336 750 C 318 706 303 656 291 600 C 285 570 280 540 276 512 C 272 484 270 457 270 432 C 270 397 274 365 283 336 C 291 307 306 282 326 262 C 346 241 372 225 406 214 C 440 202 482 197 532 197 Z" unicode="" />
<glyph horiz-adv-x="1548" d="M 25 879 L 190 879 L 328 1518 L 696 1518 C 838 1518 960 1507 1061 1487 C 1162 1466 1245 1434 1309 1391 C 1373 1347 1419 1292 1449 1224 C 1478 1156 1493 1075 1493 981 C 1493 935 1490 888 1484 838 C 1478 788 1469 734 1456 676 C 1435 578 1410 494 1380 422 C 1350 350 1317 290 1279 240 C 1241 190 1198 149 1151 118 C 1104 86 1053 62 997 45 C 941 27 881 15 817 9 C 752 3 683 0 610 0 L 4 0 L 147 672 L -16 672 L 25 879 Z M 616 229 C 704 229 781 235 846 249 C 910 262 966 286 1013 322 C 1059 357 1098 406 1129 468 C 1160 530 1186 611 1208 709 C 1217 753 1224 794 1230 833 C 1236 871 1239 908 1239 944 C 1239 1001 1229 1051 1211 1093 C 1192 1135 1161 1171 1119 1199 C 1077 1227 1021 1247 951 1261 C 881 1275 796 1282 694 1282 L 528 1282 L 440 879 L 752 879 L 709 672 L 395 672 L 299 229 L 616 229 Z" unicode="" />
<glyph horiz-adv-x="1319" d="M 831 1456 L 1085 1456 L 1116 1589 L 1356 1589 L 1327 1456 L 1499 1456 L 1458 1255 L 1284 1255 L 1018 10 L 834 -8 L 842 92 C 821 72 798 55 772 41 C 746 27 717 15 685 7 C 653 -1 617 -8 577 -12 C 537 -16 494 -18 446 -18 C 366 -18 298 -7 244 13 C 189 33 145 62 112 99 C 79 136 55 180 41 230 C 27 280 20 335 20 395 C 20 432 22 471 28 511 C 34 551 41 593 51 635 C 69 717 92 792 120 859 C 147 925 182 982 225 1029 C 267 1075 319 1111 380 1136 C 441 1161 514 1174 600 1174 C 661 1174 714 1170 759 1164 C 804 1157 842 1148 873 1136 C 904 1124 929 1109 949 1091 C 968 1073 983 1054 993 1032 L 1042 1255 L 793 1255 L 831 1456 Z M 532 197 C 582 197 627 202 666 212 C 705 222 739 241 769 267 C 799 293 824 328 845 372 C 866 416 884 473 899 541 C 913 601 920 658 920 711 C 920 750 914 784 904 814 C 893 843 876 867 853 887 C 830 907 800 921 764 931 C 727 941 683 946 631 946 C 579 946 534 938 497 924 C 460 909 428 887 402 858 C 376 829 354 793 336 750 C 318 706 303 656 291 600 C 285 570 280 540 276 512 C 272 484 270 457 270 432 C 270 397 274 365 283 336 C 291 307 306 282 326 262 C 346 241 372 225 406 214 C 440 202 482 197 532 197 Z" unicode="" />
<glyph horiz-adv-x="1327" d="" unicode="" />
<glyph horiz-adv-x="1200" d="" unicode="" />
<glyph horiz-adv-x="1327" d="" unicode="" />
<glyph horiz-adv-x="1200" d="" unicode="" />
<glyph horiz-adv-x="1327" d="" unicode="" />
<glyph horiz-adv-x="1200" d="" unicode="" />
<glyph horiz-adv-x="1327" d="M 328 1518 L 1370 1518 L 1321 1280 L 526 1280 L 440 899 L 1214 899 L 1167 664 L 395 664 L 299 227 L 1100 227 L 1055 0 L 879 0 C 851 -16 824 -34 798 -53 C 772 -72 749 -92 729 -112 C 709 -132 692 -152 680 -173 C 668 -194 662 -215 662 -236 C 662 -262 670 -281 687 -291 C 704 -301 734 -307 776 -307 C 802 -307 829 -303 857 -297 C 884 -290 911 -281 938 -270 L 997 -414 C 964 -429 925 -441 880 -451 C 835 -460 789 -465 741 -465 C 687 -465 642 -460 606 -452 C 570 -444 541 -432 520 -418 C 499 -403 484 -385 476 -365 C 467 -345 463 -323 463 -299 C 463 -263 470 -230 484 -200 C 498 -169 517 -141 539 -116 C 561 -91 585 -69 612 -49 C 638 -29 664 -13 690 0 L 4 0 L 328 1518 Z" unicode="" />
<glyph horiz-adv-x="1200" d="M 514 -23 C 418 -23 339 -11 276 11 C 213 33 163 64 125 103 C 87 142 61 188 46 240 C 30 292 23 348 23 408 C 23 446 25 483 29 521 C 33 558 39 595 47 633 C 63 717 87 792 119 859 C 150 926 190 983 239 1029 C 288 1075 347 1111 416 1136 C 484 1161 565 1174 657 1174 C 745 1174 818 1164 876 1145 C 933 1126 978 1101 1012 1069 C 1046 1037 1069 999 1082 957 C 1095 915 1102 871 1102 825 C 1102 799 1100 772 1098 744 C 1095 715 1091 685 1087 655 C 1083 625 1078 594 1072 564 C 1066 533 1061 503 1055 475 L 250 475 L 250 430 C 250 394 254 362 264 332 C 273 302 289 277 311 255 C 333 233 363 216 401 204 C 438 192 485 186 541 186 C 609 186 671 193 729 208 C 786 222 837 244 881 272 L 977 92 C 941 69 905 50 869 36 C 833 21 796 9 758 0 C 730 -16 703 -34 677 -53 C 651 -72 628 -92 608 -112 C 588 -132 571 -152 559 -173 C 547 -194 541 -215 541 -236 C 541 -262 549 -281 566 -291 C 583 -301 613 -307 655 -307 C 682 -307 709 -303 736 -297 C 763 -290 790 -281 817 -270 L 877 -414 C 843 -429 804 -441 759 -451 C 714 -460 668 -465 621 -465 C 566 -465 521 -460 485 -452 C 449 -444 421 -432 400 -418 C 378 -403 363 -385 355 -365 C 346 -345 342 -323 342 -299 C 342 -267 347 -238 358 -211 C 369 -183 383 -158 401 -135 C 419 -112 439 -91 461 -72 C 483 -53 506 -37 530 -23 L 514 -23 Z M 631 958 C 583 958 540 951 504 939 C 468 927 436 909 409 886 C 381 862 358 833 339 799 C 320 765 304 726 291 682 L 866 682 C 870 701 873 718 875 733 C 877 747 879 764 879 784 C 879 810 875 833 868 855 C 860 876 847 894 828 910 C 809 925 784 937 752 945 C 720 953 679 958 631 958 Z" unicode="" />
<glyph horiz-adv-x="1327" d="M 485 1954 L 707 1954 L 870 1759 L 1116 1954 L 1348 1954 L 969 1604 L 715 1604 L 485 1954 Z M 328 1518 L 1368 1518 L 1321 1280 L 526 1280 L 440 899 L 1214 899 L 1167 664 L 395 664 L 299 227 L 1100 227 L 1053 0 L 4 0 L 328 1518 Z" unicode="" />
<glyph horiz-adv-x="1200" d="M 350 1612 L 571 1612 L 735 1417 L 981 1612 L 1212 1612 L 834 1262 L 580 1262 L 350 1612 Z M 514 -23 C 418 -23 339 -11 276 11 C 213 33 163 64 125 103 C 87 142 61 188 46 240 C 30 292 23 348 23 408 C 23 446 25 483 29 521 C 33 558 39 595 47 633 C 63 717 87 792 119 859 C 150 926 190 983 239 1029 C 288 1075 347 1111 416 1136 C 484 1161 565 1174 657 1174 C 745 1174 818 1164 876 1145 C 933 1126 978 1101 1012 1069 C 1046 1037 1069 999 1082 957 C 1095 915 1102 871 1102 825 C 1102 799 1100 772 1098 744 C 1095 715 1091 685 1087 655 C 1083 625 1078 594 1072 564 C 1066 533 1061 503 1055 475 L 250 475 L 250 430 C 250 394 254 362 264 332 C 273 302 289 277 311 255 C 333 233 363 216 401 204 C 438 192 485 186 541 186 C 609 186 671 193 729 208 C 786 222 837 244 881 272 L 977 92 C 941 68 905 49 868 35 C 831 20 793 8 755 0 C 717 -8 677 -14 637 -18 C 597 -21 556 -23 514 -23 Z M 631 958 C 583 958 540 951 504 939 C 468 927 436 909 409 886 C 381 862 358 833 339 799 C 320 765 304 726 291 682 L 866 682 C 870 701 873 718 875 733 C 877 747 879 764 879 784 C 879 810 875 833 868 855 C 860 876 847 894 828 910 C 809 925 784 937 752 945 C 720 953 679 958 631 958 Z" unicode="" />
<glyph horiz-adv-x="1585" d="" unicode="" />
<glyph horiz-adv-x="1249" d="" unicode="" />
<glyph horiz-adv-x="1585" d="M 748 -23 C 627 -23 523 -9 436 17 C 349 44 277 83 221 134 C 165 184 123 246 97 319 C 70 392 57 475 57 567 C 57 617 59 664 64 707 C 69 750 76 792 86 834 C 110 958 147 1065 196 1155 C 245 1244 305 1317 375 1375 C 445 1432 524 1474 614 1501 C 703 1528 801 1542 907 1542 C 991 1542 1066 1535 1132 1521 C 1198 1507 1256 1489 1306 1467 C 1356 1445 1398 1420 1433 1392 C 1468 1364 1496 1337 1518 1309 L 1307 1137 C 1291 1155 1272 1173 1251 1193 C 1229 1212 1203 1230 1171 1246 C 1139 1262 1100 1276 1055 1287 C 1010 1297 956 1303 893 1303 C 744 1303 622 1262 526 1180 C 430 1098 364 971 328 801 C 321 769 316 735 312 701 C 308 667 307 634 307 602 C 307 538 315 482 333 432 C 350 382 377 339 414 305 C 451 270 498 244 556 226 C 613 208 682 199 762 199 C 839 199 903 206 954 221 C 1005 235 1047 259 1081 291 C 1114 323 1141 364 1161 415 C 1181 466 1198 528 1214 602 L 1221 637 L 786 637 L 829 860 L 1518 860 L 1473 631 C 1448 505 1418 401 1383 317 C 1348 233 1303 165 1248 115 C 1192 65 1124 29 1044 8 C 963 -12 864 -23 748 -23 Z M 999 1585 C 921 1585 858 1594 811 1614 C 763 1633 727 1659 701 1693 C 675 1727 657 1766 649 1812 C 640 1857 636 1906 637 1958 L 819 1980 C 819 1948 821 1919 825 1895 C 829 1870 838 1849 852 1833 C 865 1816 884 1803 910 1795 C 935 1786 968 1782 1010 1782 C 1049 1782 1083 1786 1111 1795 C 1139 1803 1163 1816 1183 1833 C 1203 1849 1221 1870 1235 1895 C 1249 1919 1262 1948 1274 1980 L 1444 1948 C 1428 1896 1407 1848 1383 1804 C 1358 1760 1328 1721 1292 1689 C 1256 1656 1213 1630 1165 1612 C 1117 1594 1061 1585 999 1585 Z" unicode="" />
<glyph horiz-adv-x="1249" d="M 586 418 C 494 418 416 426 352 442 C 337 421 330 397 330 371 C 330 360 331 350 334 342 C 336 333 342 326 350 320 C 358 314 369 309 384 306 C 398 302 418 301 442 301 C 548 299 638 294 713 284 C 787 274 848 259 896 237 C 943 215 977 187 999 151 C 1021 115 1032 70 1032 16 C 1032 -62 1018 -125 992 -175 C 966 -225 927 -264 875 -293 C 823 -321 758 -341 682 -352 C 605 -362 516 -367 416 -367 C 318 -367 235 -361 165 -351 C 95 -340 37 -323 -8 -301 C -53 -278 -86 -249 -108 -213 C -130 -177 -141 -134 -141 -84 C -141 -37 -133 3 -118 39 C -102 75 -81 105 -54 130 C -27 155 4 175 41 190 C 77 205 117 216 160 223 C 143 239 131 259 125 281 C 118 303 115 327 115 352 C 115 386 122 417 136 446 C 150 475 169 501 193 524 C 163 552 142 583 129 619 C 115 654 109 693 109 737 C 109 813 119 879 141 934 C 162 989 194 1034 237 1070 C 280 1106 334 1132 399 1149 C 463 1165 539 1174 627 1174 C 645 1174 665 1173 685 1172 C 705 1171 726 1170 748 1169 L 1219 1247 L 1186 1040 L 1012 1040 C 1037 1014 1057 983 1072 945 C 1086 907 1094 867 1094 823 C 1094 683 1051 581 966 516 C 881 450 754 418 586 418 Z M 453 -184 C 511 -184 560 -182 602 -178 C 643 -173 677 -164 704 -151 C 730 -138 750 -121 763 -99 C 775 -77 782 -48 782 -14 C 782 10 774 31 760 47 C 745 63 722 76 691 86 C 659 95 619 101 570 105 C 520 109 461 111 391 111 C 335 111 289 107 253 100 C 217 93 189 83 168 69 C 147 55 133 39 125 19 C 117 -1 113 -23 113 -49 C 113 -70 119 -89 131 -106 C 143 -122 163 -136 190 -148 C 217 -159 252 -168 296 -174 C 339 -180 391 -184 453 -184 Z M 588 604 C 676 604 743 622 788 658 C 833 694 856 749 856 821 C 856 843 851 864 843 882 C 834 900 820 916 801 929 C 781 942 756 952 725 959 C 693 965 655 969 610 969 C 521 969 454 951 410 915 C 366 879 344 824 344 748 C 344 726 347 707 355 690 C 363 672 376 657 395 644 C 413 631 438 621 470 614 C 501 607 540 604 588 604 Z M 760 1241 C 682 1241 619 1250 571 1270 C 523 1289 487 1315 461 1349 C 435 1383 417 1422 409 1468 C 400 1513 396 1562 397 1614 L 580 1636 C 580 1604 582 1575 586 1551 C 590 1526 599 1505 613 1489 C 626 1472 645 1459 670 1451 C 695 1442 728 1438 770 1438 C 809 1438 843 1442 871 1451 C 899 1459 923 1472 943 1489 C 963 1505 981 1526 995 1551 C 1009 1575 1022 1604 1034 1636 L 1204 1604 C 1188 1552 1167 1504 1143 1460 C 1119 1416 1089 1377 1053 1345 C 1017 1312 974 1286 926 1268 C 878 1250 822 1241 760 1241 Z" unicode="" />
<glyph horiz-adv-x="1585" d="" unicode="" />
<glyph horiz-adv-x="1249" d="" unicode="" />
<glyph horiz-adv-x="1585" d="" unicode="" />
<glyph horiz-adv-x="1249" d="" unicode="" />
<glyph horiz-adv-x="1599" d="" unicode="" />
<glyph horiz-adv-x="1274" d="" unicode="" />
<glyph horiz-adv-x="1599" d="" unicode="" />
<glyph horiz-adv-x="1274" d="" unicode="" />
<glyph horiz-adv-x="614" d="" unicode="" />
<glyph horiz-adv-x="543" d="" unicode="" />
<glyph horiz-adv-x="614" d="" unicode="" />
<glyph horiz-adv-x="543" d="" unicode="" />
<glyph horiz-adv-x="614" d="" unicode="" />
<glyph horiz-adv-x="543" d="" unicode="" />
<glyph horiz-adv-x="614" d="" unicode="" />
<glyph horiz-adv-x="543" d="" unicode="" />
<glyph horiz-adv-x="614" d="M 346 1518 L 594 1518 L 270 0 L 23 0 L 346 1518 Z M 418 1862 L 659 1862 L 606 1606 L 365 1606 L 418 1862 Z" unicode="" />
<glyph horiz-adv-x="543" d="M 236 1147 L 471 1147 L 229 0 L -10 0 L 236 1147 Z" unicode="" />
<glyph horiz-adv-x="1448" d="" unicode="" />
<glyph horiz-adv-x="1087" d="" unicode="" />
<glyph horiz-adv-x="834" d="" unicode="" />
<glyph horiz-adv-x="543" d="" unicode="" />
<glyph horiz-adv-x="1458" d="" unicode="" />
<glyph horiz-adv-x="1133" d="" unicode="" />
<glyph horiz-adv-x="1133" d="" unicode="" />
<glyph horiz-adv-x="1192" d="M 731 1956 L 1028 1956 L 584 1606 L 358 1606 L 731 1956 Z M 328 1518 L 575 1518 L 299 227 L 1034 227 L 989 0 L 4 0 L 328 1518 Z" unicode="" />
<glyph horiz-adv-x="649" d="M 729 2019 L 1026 2019 L 582 1669 L 356 1669 L 729 2019 Z M 276 -2 C 222 -2 178 4 144 18 C 110 32 86 53 70 82 C 54 110 45 147 45 191 C 45 235 51 288 63 350 L 328 1589 L 567 1589 L 301 344 C 295 318 292 297 291 281 C 290 264 293 250 299 240 C 305 229 315 221 330 217 C 345 213 366 211 393 211 L 436 211 L 395 2 C 385 0 368 0 346 -1 C 323 -1 300 -2 276 -2 Z" unicode="" />
<glyph horiz-adv-x="1192" d="" unicode="" />
<glyph horiz-adv-x="649" d="" unicode="" />
<glyph horiz-adv-x="1192" d="M 678 1176 C 706 1189 730 1201 748 1211 C 766 1221 781 1232 793 1242 C 805 1252 814 1264 820 1277 C 826 1289 832 1305 836 1323 L 725 1323 L 778 1589 L 1022 1589 L 983 1397 C 973 1349 962 1309 950 1277 C 938 1244 923 1215 903 1191 C 883 1166 858 1144 828 1125 C 798 1105 759 1085 713 1065 L 678 1176 Z M 328 1518 L 575 1518 L 299 227 L 1034 227 L 989 0 L 4 0 L 328 1518 Z" unicode="" />
<glyph horiz-adv-x="803" d="M 631 1176 C 659 1189 683 1201 701 1211 C 719 1221 734 1232 746 1242 C 757 1252 766 1264 772 1277 C 778 1289 784 1305 788 1323 L 678 1323 L 731 1589 L 975 1589 L 936 1397 C 926 1349 915 1309 903 1277 C 891 1244 875 1215 855 1191 C 835 1166 811 1144 781 1125 C 751 1105 712 1085 666 1065 L 631 1176 Z M 276 -2 C 222 -2 178 4 144 18 C 110 32 86 53 70 82 C 54 110 45 147 45 191 C 45 235 51 288 63 350 L 328 1589 L 567 1589 L 301 344 C 295 318 292 297 291 281 C 290 264 293 250 299 240 C 305 229 315 221 330 217 C 345 213 366 211 393 211 L 436 211 L 395 2 C 385 0 368 0 346 -1 C 323 -1 300 -2 276 -2 Z" unicode="" />
<glyph horiz-adv-x="1331" d="" unicode="" />
<glyph horiz-adv-x="1122" d="" unicode="" />
<glyph horiz-adv-x="1212" d="M 6 784 L 190 877 L 328 1518 L 575 1518 L 467 1014 L 817 1190 L 772 973 L 420 797 L 299 227 L 1055 227 L 1010 0 L 4 0 L 143 659 L -37 569 L 6 784 Z" unicode="" />
<glyph horiz-adv-x="776" d="M 84 932 L 299 1042 L 416 1589 L 655 1589 L 567 1180 L 801 1300 L 756 1096 L 524 975 L 387 336 C 381 310 378 288 377 271 C 376 254 379 240 385 230 C 391 219 402 211 417 207 C 432 203 453 201 479 201 L 524 201 L 481 2 C 471 0 454 0 432 -1 C 410 -1 387 -2 365 -2 C 310 -2 266 4 232 18 C 198 32 173 53 157 81 C 141 109 132 144 132 188 C 132 231 138 282 152 342 L 256 838 L 41 727 L 84 932 Z" unicode="" />
<glyph horiz-adv-x="1597" d="M 1159 1954 L 1456 1954 L 1012 1604 L 786 1604 L 1159 1954 Z M 328 1518 L 596 1518 L 1118 420 L 1358 1518 L 1595 1518 L 1272 0 L 1044 0 L 489 1153 L 240 0 L 4 0 L 328 1518 Z" unicode="" />
<glyph horiz-adv-x="1274" d="M 963 1612 L 1260 1612 L 815 1262 L 590 1262 L 963 1612 Z M 219 1133 L 410 1147 L 403 1059 C 420 1074 440 1089 463 1103 C 485 1117 511 1129 541 1139 C 570 1149 603 1158 640 1164 C 676 1170 718 1174 764 1174 C 834 1174 894 1167 942 1155 C 990 1143 1028 1125 1058 1103 C 1088 1081 1109 1054 1123 1023 C 1137 991 1145 957 1147 919 C 1149 881 1148 840 1142 796 C 1136 752 1128 706 1118 659 L 977 0 L 739 0 L 874 633 C 880 661 885 688 890 714 C 894 740 896 764 896 786 C 896 808 892 829 886 847 C 879 865 867 881 850 894 C 832 907 809 917 780 925 C 750 932 713 936 668 936 C 614 936 570 928 534 914 C 498 899 468 879 445 853 C 421 827 403 797 389 763 C 375 728 364 691 356 651 L 219 0 L -20 0 L 219 1133 Z" unicode="" />
<glyph horiz-adv-x="1597" d="" unicode="" />
<glyph horiz-adv-x="1274" d="" unicode="" />
<glyph horiz-adv-x="1597" d="M 618 1954 L 840 1954 L 1004 1759 L 1249 1954 L 1481 1954 L 1102 1604 L 848 1604 L 618 1954 Z M 328 1518 L 596 1518 L 1118 420 L 1358 1518 L 1595 1518 L 1272 0 L 1044 0 L 489 1153 L 240 0 L 4 0 L 328 1518 Z" unicode="" />
<glyph horiz-adv-x="1274" d="M 385 1612 L 606 1612 L 770 1417 L 1016 1612 L 1247 1612 L 868 1262 L 614 1262 L 385 1612 Z M 219 1133 L 410 1147 L 403 1059 C 420 1074 440 1089 463 1103 C 485 1117 511 1129 541 1139 C 570 1149 603 1158 640 1164 C 676 1170 718 1174 764 1174 C 834 1174 894 1167 942 1155 C 990 1143 1028 1125 1058 1103 C 1088 1081 1109 1054 1123 1023 C 1137 991 1145 957 1147 919 C 1149 881 1148 840 1142 796 C 1136 752 1128 706 1118 659 L 977 0 L 739 0 L 874 633 C 880 661 885 688 890 714 C 894 740 896 764 896 786 C 896 808 892 829 886 847 C 879 865 867 881 850 894 C 832 907 809 917 780 925 C 750 932 713 936 668 936 C 614 936 570 928 534 914 C 498 899 468 879 445 853 C 421 827 403 797 389 763 C 375 728 364 691 356 651 L 219 0 L -20 0 L 219 1133 Z" unicode="" />
<glyph horiz-adv-x="1737" d="" unicode="" />
<glyph horiz-adv-x="1597" d="" unicode="" />
<glyph horiz-adv-x="1274" d="" unicode="" />
<glyph horiz-adv-x="1700" d="" unicode="" />
<glyph horiz-adv-x="1282" d="" unicode="" />
<glyph horiz-adv-x="1700" d="" unicode="" />
<glyph horiz-adv-x="1282" d="" unicode="" />
<glyph horiz-adv-x="1700" d="M 932 1954 L 1210 1954 L 807 1604 L 600 1604 L 932 1954 Z M 1442 1954 L 1718 1954 L 1315 1604 L 1108 1604 L 1442 1954 Z M 774 -25 C 660 -25 558 -11 470 15 C 381 41 306 80 245 132 C 184 184 138 248 106 325 C 74 401 59 490 59 590 C 59 629 61 669 65 711 C 69 752 76 796 86 842 C 105 934 131 1016 163 1086 C 195 1156 231 1218 273 1270 C 315 1322 361 1365 411 1400 C 461 1434 515 1462 571 1483 C 627 1504 685 1519 745 1528 C 805 1537 866 1542 928 1542 C 1040 1542 1141 1528 1229 1502 C 1317 1476 1391 1437 1452 1386 C 1513 1334 1560 1271 1592 1195 C 1624 1119 1640 1031 1640 932 C 1640 892 1638 852 1634 811 C 1630 770 1623 728 1614 684 C 1594 590 1567 508 1535 437 C 1503 366 1466 304 1424 252 C 1382 199 1337 155 1287 120 C 1237 84 1185 56 1130 34 C 1074 12 1017 -2 957 -11 C 897 -20 836 -25 774 -25 Z M 776 207 C 854 207 925 216 989 235 C 1053 254 1109 284 1158 325 C 1207 365 1248 417 1282 480 C 1316 542 1342 617 1362 705 C 1369 739 1374 771 1378 803 C 1382 835 1384 866 1384 897 C 1384 957 1375 1013 1357 1063 C 1339 1113 1312 1155 1274 1191 C 1236 1227 1187 1254 1128 1274 C 1068 1293 997 1303 915 1303 C 759 1303 633 1263 535 1183 C 437 1103 370 977 334 807 C 326 773 321 741 318 709 C 314 677 313 645 313 614 C 313 553 321 498 339 448 C 357 398 384 355 422 319 C 459 283 507 256 565 236 C 623 216 694 207 776 207 Z" unicode="" />
<glyph horiz-adv-x="1282" d="M 651 1612 L 930 1612 L 526 1262 L 319 1262 L 651 1612 Z M 1161 1612 L 1438 1612 L 1034 1262 L 827 1262 L 1161 1612 Z M 535 -23 C 443 -23 365 -12 301 9 C 237 30 184 60 143 99 C 102 138 72 185 53 240 C 34 295 25 356 25 424 C 25 456 26 490 30 525 C 34 559 39 595 47 633 C 67 730 96 813 133 881 C 169 949 213 1005 265 1049 C 317 1092 376 1124 443 1144 C 510 1164 585 1174 668 1174 C 759 1174 837 1163 902 1142 C 967 1120 1020 1090 1062 1052 C 1103 1013 1133 966 1153 911 C 1172 856 1182 795 1182 729 C 1182 696 1179 662 1175 627 C 1170 592 1164 556 1157 518 C 1136 420 1108 337 1072 269 C 1036 201 992 145 940 102 C 888 58 828 27 761 7 C 693 -13 618 -23 535 -23 Z M 549 193 C 601 193 648 200 688 214 C 728 228 763 249 793 277 C 823 305 848 341 868 385 C 888 428 904 479 918 539 C 924 565 928 592 931 619 C 934 645 936 670 936 694 C 936 731 931 765 921 796 C 911 826 895 853 873 875 C 851 897 822 914 786 926 C 750 938 707 944 655 944 C 601 944 553 936 513 922 C 473 908 438 886 408 857 C 378 828 354 792 334 748 C 314 704 297 653 285 594 C 272 542 266 490 266 438 C 266 401 271 368 281 338 C 291 308 307 282 330 260 C 352 238 381 222 417 210 C 453 198 497 193 549 193 Z" unicode="" />
<glyph horiz-adv-x="2531" d="M 774 -25 C 658 -25 556 -11 467 15 C 378 41 303 80 243 132 C 183 184 137 248 106 325 C 74 401 59 490 59 590 C 57 629 59 669 64 711 C 69 752 76 796 86 842 C 105 934 131 1016 163 1086 C 195 1156 231 1218 273 1270 C 315 1322 361 1365 411 1400 C 461 1434 515 1462 571 1483 C 627 1504 685 1519 745 1528 C 805 1537 866 1542 928 1542 C 1074 1542 1196 1520 1294 1478 C 1391 1436 1466 1373 1518 1290 L 1567 1518 L 2570 1518 L 2521 1280 L 1741 1280 L 1657 895 L 2417 895 L 2370 666 L 1610 666 L 1511 227 L 2302 227 L 2255 0 L 1243 0 L 1276 160 C 1209 94 1134 46 1051 18 C 968 -10 876 -25 774 -25 Z M 776 207 C 854 207 925 216 989 235 C 1053 254 1109 284 1158 325 C 1207 365 1248 417 1282 480 C 1316 542 1342 617 1362 705 C 1369 739 1374 771 1378 803 C 1382 835 1384 866 1384 897 C 1384 957 1375 1013 1357 1063 C 1339 1113 1312 1155 1274 1191 C 1236 1227 1187 1254 1128 1274 C 1068 1293 997 1303 915 1303 C 759 1303 633 1263 535 1183 C 437 1103 370 977 334 807 C 326 773 321 741 318 709 C 314 677 313 645 313 614 C 313 553 321 498 339 448 C 357 398 384 355 422 319 C 459 283 507 256 565 236 C 623 216 694 207 776 207 Z" unicode="" />
<glyph horiz-adv-x="2083" d="M 1399 -23 C 1340 -23 1288 -18 1243 -10 C 1198 -1 1159 11 1125 27 C 1091 43 1063 62 1040 84 C 1016 106 997 132 983 160 C 931 96 869 49 796 20 C 722 -8 635 -23 535 -23 C 443 -23 365 -12 301 9 C 237 30 184 60 143 99 C 102 138 72 185 53 240 C 34 295 25 356 25 424 C 25 456 26 490 30 525 C 34 559 39 595 47 633 C 67 730 96 813 133 881 C 169 949 213 1005 265 1049 C 317 1092 376 1124 443 1144 C 510 1164 585 1174 668 1174 C 782 1174 874 1157 944 1124 C 1014 1091 1066 1045 1100 987 C 1146 1046 1204 1092 1276 1125 C 1348 1157 1436 1174 1542 1174 C 1630 1174 1703 1164 1761 1146 C 1818 1127 1863 1102 1897 1070 C 1930 1038 1953 1001 1967 959 C 1980 917 1987 872 1987 825 C 1987 799 1985 772 1983 744 C 1980 715 1976 685 1972 655 C 1968 625 1963 594 1957 564 C 1951 533 1945 503 1939 475 L 1135 475 L 1135 430 C 1135 394 1139 362 1149 332 C 1158 302 1174 277 1196 255 C 1218 233 1248 216 1285 204 C 1322 192 1369 186 1425 186 C 1493 186 1556 193 1613 208 C 1670 222 1721 244 1765 272 L 1862 92 C 1826 68 1790 49 1753 35 C 1716 20 1678 8 1640 0 C 1601 -8 1562 -14 1522 -18 C 1482 -21 1441 -23 1399 -23 Z M 549 193 C 601 193 648 200 688 214 C 728 228 763 249 793 277 C 823 305 848 341 868 385 C 888 428 904 479 918 539 C 924 565 928 592 931 619 C 934 645 936 670 936 694 C 936 731 931 765 921 796 C 911 826 895 853 873 875 C 851 897 822 914 786 926 C 750 938 707 944 655 944 C 601 944 553 936 513 922 C 473 908 438 886 408 857 C 378 828 354 792 334 748 C 314 704 297 653 285 594 C 272 542 266 490 266 438 C 266 401 271 368 281 338 C 291 308 307 282 330 260 C 352 238 381 222 417 210 C 453 198 497 193 549 193 Z M 1516 958 C 1468 958 1425 951 1389 939 C 1352 927 1320 909 1293 885 C 1266 861 1243 831 1224 797 C 1205 763 1189 724 1176 680 L 1751 680 C 1755 699 1758 716 1760 732 C 1762 747 1763 764 1763 784 C 1763 810 1759 833 1752 855 C 1744 876 1731 894 1713 910 C 1694 925 1669 937 1637 945 C 1605 953 1564 958 1516 958 Z" unicode="" />
<glyph horiz-adv-x="1485" d="M 1104 1954 L 1401 1954 L 956 1604 L 731 1604 L 1104 1954 Z M 737 553 L 367 553 L 246 0 L 4 0 L 328 1518 L 881 1518 C 989 1518 1080 1508 1154 1489 C 1227 1469 1286 1443 1330 1409 C 1374 1375 1405 1336 1424 1291 C 1442 1245 1452 1197 1452 1145 C 1452 1067 1443 994 1425 928 C 1407 861 1380 802 1342 751 C 1304 700 1256 658 1198 625 C 1139 591 1069 569 987 559 L 1188 0 L 936 0 L 737 553 Z M 864 780 C 916 780 962 785 1003 797 C 1044 809 1079 827 1107 853 C 1135 878 1157 910 1172 950 C 1186 990 1194 1038 1194 1094 C 1194 1162 1166 1211 1112 1242 C 1058 1272 974 1288 860 1288 L 524 1288 L 412 780 L 864 780 Z" unicode="" />
<glyph horiz-adv-x="741" d="M 674 1612 L 971 1612 L 526 1262 L 301 1262 L 674 1612 Z M 221 1133 L 412 1147 L 401 1032 C 432 1072 479 1103 542 1126 C 604 1149 683 1161 778 1161 L 731 924 C 665 923 611 915 567 901 C 523 886 486 865 457 838 C 428 810 405 777 389 738 C 372 699 358 655 348 606 L 219 0 L -18 0 L 221 1133 Z" unicode="" />
<glyph horiz-adv-x="1485" d="" unicode="" />
<glyph horiz-adv-x="741" d="" unicode="" />
<glyph horiz-adv-x="1485" d="M 563 1954 L 784 1954 L 948 1759 L 1194 1954 L 1425 1954 L 1047 1604 L 793 1604 L 563 1954 Z M 737 553 L 367 553 L 246 0 L 4 0 L 328 1518 L 881 1518 C 989 1518 1080 1508 1154 1489 C 1227 1469 1286 1443 1330 1409 C 1374 1375 1405 1336 1424 1291 C 1442 1245 1452 1197 1452 1145 C 1452 1067 1443 994 1425 928 C 1407 861 1380 802 1342 751 C 1304 700 1256 658 1198 625 C 1139 591 1069 569 987 559 L 1188 0 L 936 0 L 737 553 Z M 864 780 C 916 780 962 785 1003 797 C 1044 809 1079 827 1107 853 C 1135 878 1157 910 1172 950 C 1186 990 1194 1038 1194 1094 C 1194 1162 1166 1211 1112 1242 C 1058 1272 974 1288 860 1288 L 524 1288 L 412 780 L 864 780 Z" unicode="" />
<glyph horiz-adv-x="741" d="M 139 1612 L 360 1612 L 524 1417 L 770 1612 L 1001 1612 L 623 1262 L 369 1262 L 139 1612 Z M 221 1133 L 412 1147 L 401 1032 C 432 1072 479 1103 542 1126 C 604 1149 683 1161 778 1161 L 731 924 C 665 923 611 915 567 901 C 523 886 486 865 457 838 C 428 810 405 777 389 738 C 372 699 358 655 348 606 L 219 0 L -18 0 L 221 1133 Z" unicode="" />
<glyph horiz-adv-x="1438" d="M 1079 1954 L 1376 1954 L 932 1604 L 707 1604 L 1079 1954 Z M 647 -20 C 563 -20 487 -14 418 -3 C 348 7 284 22 226 41 C 168 60 115 83 67 109 C 19 135 -25 163 -66 193 L 92 377 C 166 320 249 276 341 244 C 433 212 538 197 657 197 C 708 197 756 200 800 207 C 844 213 883 225 915 243 C 947 260 973 283 992 312 C 1010 341 1020 378 1020 424 C 1020 462 1012 492 997 516 C 981 539 959 559 929 575 C 899 591 861 606 817 620 C 772 633 720 648 662 666 C 596 684 536 703 480 723 C 424 743 375 767 334 797 C 292 827 260 864 236 908 C 212 952 201 1007 201 1075 C 201 1165 216 1240 248 1300 C 279 1360 321 1408 374 1444 C 427 1480 488 1505 557 1520 C 626 1534 698 1542 774 1542 C 857 1542 931 1536 996 1526 C 1060 1515 1117 1501 1167 1485 C 1216 1468 1258 1449 1294 1429 C 1330 1409 1360 1389 1386 1370 L 1225 1176 C 1203 1193 1177 1210 1147 1226 C 1117 1242 1084 1257 1046 1270 C 1008 1283 965 1293 918 1301 C 871 1309 820 1313 764 1313 C 718 1313 677 1309 639 1302 C 601 1295 569 1283 542 1267 C 514 1251 493 1229 478 1201 C 462 1173 455 1139 455 1098 C 455 1066 462 1039 478 1017 C 493 995 514 976 542 960 C 570 944 603 931 642 919 C 681 907 724 895 772 883 C 844 863 910 844 971 824 C 1032 804 1085 779 1130 749 C 1175 719 1210 683 1236 639 C 1261 595 1274 541 1274 475 C 1274 383 1258 306 1227 243 C 1195 180 1152 129 1096 90 C 1040 51 973 23 897 6 C 820 -11 737 -20 647 -20 Z" unicode="" />
<glyph horiz-adv-x="1081" d="M 831 1612 L 1128 1612 L 684 1262 L 459 1262 L 831 1612 Z M 453 -20 C 342 -20 241 -4 150 27 C 59 59 -17 102 -80 156 L 76 326 C 102 305 130 286 162 269 C 193 252 226 237 260 225 C 294 213 330 203 366 196 C 402 189 439 186 475 186 C 506 186 535 187 561 191 C 587 195 610 202 630 213 C 649 224 664 239 675 259 C 686 278 692 304 692 336 C 692 358 685 376 672 392 C 659 407 642 420 620 431 C 598 442 572 452 544 460 C 515 468 485 477 455 485 C 415 495 375 508 334 522 C 293 536 256 554 223 576 C 189 598 162 627 141 661 C 119 695 109 739 109 791 C 109 859 120 918 143 967 C 166 1015 198 1055 240 1086 C 281 1116 330 1139 388 1153 C 445 1167 508 1174 578 1174 C 632 1174 682 1170 728 1163 C 774 1155 816 1145 854 1133 C 892 1121 927 1107 958 1091 C 989 1075 1016 1058 1040 1042 L 887 854 C 869 865 850 876 829 888 C 807 900 783 910 756 920 C 729 929 699 937 667 943 C 634 949 597 952 557 952 C 490 952 439 942 405 923 C 371 903 354 869 354 821 C 354 800 360 782 372 768 C 384 754 400 741 420 731 C 440 720 464 710 492 702 C 520 693 550 684 582 676 C 624 664 667 650 709 636 C 751 621 788 602 821 579 C 854 555 881 526 901 492 C 921 457 932 414 932 362 C 932 288 919 227 895 178 C 871 129 837 90 795 61 C 752 31 701 10 643 -1 C 585 -13 521 -20 453 -20 Z" unicode="" />
<glyph horiz-adv-x="1438" d="" unicode="" />
<glyph horiz-adv-x="1081" d="" unicode="" />
<glyph horiz-adv-x="1438" d="M 516 -487 C 480 -487 446 -484 416 -480 C 386 -475 358 -469 334 -461 C 309 -453 287 -445 268 -435 C 248 -425 231 -416 217 -406 L 303 -283 C 329 -301 359 -316 392 -330 C 424 -343 464 -350 512 -350 C 559 -350 593 -341 615 -325 C 636 -308 647 -282 647 -248 C 647 -231 642 -217 632 -207 C 622 -197 610 -189 594 -184 C 578 -179 559 -176 539 -175 C 518 -174 497 -174 475 -176 L 432 -139 L 483 -12 C 422 -6 365 3 313 16 C 261 28 212 43 167 61 C 122 79 80 99 42 121 C 3 143 -32 167 -66 193 L 92 377 C 166 320 249 276 341 244 C 433 212 538 197 657 197 C 708 197 756 200 800 207 C 844 213 883 225 915 243 C 947 260 973 283 992 312 C 1010 341 1020 378 1020 424 C 1020 462 1012 492 997 516 C 981 539 959 559 929 575 C 899 591 861 606 817 620 C 772 633 720 648 662 666 C 596 684 536 703 480 723 C 424 743 375 767 334 797 C 292 827 260 864 236 908 C 212 952 201 1007 201 1075 C 201 1165 216 1240 248 1300 C 279 1360 321 1408 374 1444 C 427 1480 488 1505 557 1520 C 626 1534 698 1542 774 1542 C 857 1542 931 1536 996 1526 C 1060 1515 1117 1501 1167 1485 C 1216 1468 1258 1449 1294 1429 C 1330 1409 1360 1389 1386 1370 L 1225 1176 C 1203 1193 1177 1210 1147 1226 C 1117 1242 1084 1257 1046 1270 C 1008 1283 965 1293 918 1301 C 871 1309 820 1313 764 1313 C 718 1313 677 1309 639 1302 C 601 1295 569 1283 542 1267 C 514 1251 493 1229 478 1201 C 462 1173 455 1139 455 1098 C 455 1066 462 1039 478 1017 C 493 995 514 976 542 960 C 570 944 603 931 642 919 C 681 907 724 895 772 883 C 844 863 910 844 971 824 C 1032 804 1085 779 1130 749 C 1175 719 1210 683 1236 639 C 1261 595 1274 541 1274 475 C 1274 383 1258 306 1227 243 C 1195 180 1152 129 1096 90 C 1040 51 973 23 897 6 C 820 -11 737 -20 647 -20 L 621 -20 L 592 -88 C 618 -88 644 -91 670 -95 C 696 -99 719 -107 740 -119 C 761 -130 778 -146 791 -166 C 804 -186 811 -212 811 -244 C 811 -292 803 -331 787 -363 C 771 -394 749 -419 722 -437 C 695 -455 664 -468 628 -476 C 592 -483 555 -487 516 -487 Z" unicode="" />
<glyph horiz-adv-x="1081" d="M 340 -487 C 304 -487 270 -484 240 -480 C 210 -475 182 -469 158 -461 C 133 -453 111 -445 92 -435 C 72 -425 55 -416 41 -406 L 127 -283 C 153 -301 183 -316 216 -330 C 248 -343 288 -350 336 -350 C 383 -350 417 -341 439 -325 C 460 -308 471 -282 471 -248 C 471 -231 466 -217 456 -207 C 446 -197 434 -189 418 -184 C 402 -179 383 -176 363 -175 C 342 -174 321 -174 299 -176 L 256 -139 L 307 -10 C 228 1 156 21 90 50 C 24 79 -32 114 -80 156 L 76 326 C 102 305 130 286 162 269 C 193 252 226 237 260 225 C 294 213 330 203 366 196 C 402 189 439 186 475 186 C 506 186 535 187 561 191 C 587 195 610 202 630 213 C 649 224 664 239 675 259 C 686 278 692 304 692 336 C 692 358 685 376 672 392 C 659 407 642 420 620 431 C 598 442 572 452 544 460 C 515 468 485 477 455 485 C 415 495 375 508 334 522 C 293 536 256 554 223 576 C 189 598 162 627 141 661 C 119 695 109 739 109 791 C 109 859 120 918 143 967 C 166 1015 198 1055 240 1086 C 281 1116 330 1139 388 1153 C 445 1167 508 1174 578 1174 C 632 1174 682 1170 728 1163 C 774 1155 816 1145 854 1133 C 892 1121 927 1107 958 1091 C 989 1075 1016 1058 1040 1042 L 887 854 C 869 865 850 876 829 888 C 807 900 783 910 756 920 C 729 929 699 937 667 943 C 634 949 597 952 557 952 C 490 952 439 942 405 923 C 371 903 354 869 354 821 C 354 800 360 782 372 768 C 384 754 400 741 420 731 C 440 720 464 710 492 702 C 520 693 550 684 582 676 C 624 664 667 650 709 636 C 751 621 788 602 821 579 C 854 555 881 526 901 492 C 921 457 932 414 932 362 C 932 288 919 227 895 178 C 871 129 837 90 795 61 C 752 31 701 10 643 -1 C 585 -13 521 -20 453 -20 L 444 -20 L 416 -88 C 442 -88 468 -91 494 -95 C 520 -99 543 -107 564 -119 C 585 -130 602 -146 615 -166 C 628 -186 635 -212 635 -244 C 635 -292 627 -331 611 -363 C 595 -394 573 -419 546 -437 C 519 -455 488 -468 452 -476 C 416 -483 379 -487 340 -487 Z" unicode="" />
<glyph horiz-adv-x="1438" d="M 539 1954 L 760 1954 L 924 1759 L 1169 1954 L 1401 1954 L 1022 1604 L 768 1604 L 539 1954 Z M 647 -20 C 563 -20 487 -14 418 -3 C 348 7 284 22 226 41 C 168 60 115 83 67 109 C 19 135 -25 163 -66 193 L 92 377 C 166 320 249 276 341 244 C 433 212 538 197 657 197 C 708 197 756 200 800 207 C 844 213 883 225 915 243 C 947 260 973 283 992 312 C 1010 341 1020 378 1020 424 C 1020 462 1012 492 997 516 C 981 539 959 559 929 575 C 899 591 861 606 817 620 C 772 633 720 648 662 666 C 596 684 536 703 480 723 C 424 743 375 767 334 797 C 292 827 260 864 236 908 C 212 952 201 1007 201 1075 C 201 1165 216 1240 248 1300 C 279 1360 321 1408 374 1444 C 427 1480 488 1505 557 1520 C 626 1534 698 1542 774 1542 C 857 1542 931 1536 996 1526 C 1060 1515 1117 1501 1167 1485 C 1216 1468 1258 1449 1294 1429 C 1330 1409 1360 1389 1386 1370 L 1225 1176 C 1203 1193 1177 1210 1147 1226 C 1117 1242 1084 1257 1046 1270 C 1008 1283 965 1293 918 1301 C 871 1309 820 1313 764 1313 C 718 1313 677 1309 639 1302 C 601 1295 569 1283 542 1267 C 514 1251 493 1229 478 1201 C 462 1173 455 1139 455 1098 C 455 1066 462 1039 478 1017 C 493 995 514 976 542 960 C 570 944 603 931 642 919 C 681 907 724 895 772 883 C 844 863 910 844 971 824 C 1032 804 1085 779 1130 749 C 1175 719 1210 683 1236 639 C 1261 595 1274 541 1274 475 C 1274 383 1258 306 1227 243 C 1195 180 1152 129 1096 90 C 1040 51 973 23 897 6 C 820 -11 737 -20 647 -20 Z" unicode="" />
<glyph horiz-adv-x="1081" d="M 291 1612 L 512 1612 L 676 1417 L 922 1612 L 1153 1612 L 774 1262 L 520 1262 L 291 1612 Z M 453 -20 C 342 -20 241 -4 150 27 C 59 59 -17 102 -80 156 L 76 326 C 102 305 130 286 162 269 C 193 252 226 237 260 225 C 294 213 330 203 366 196 C 402 189 439 186 475 186 C 506 186 535 187 561 191 C 587 195 610 202 630 213 C 649 224 664 239 675 259 C 686 278 692 304 692 336 C 692 358 685 376 672 392 C 659 407 642 420 620 431 C 598 442 572 452 544 460 C 515 468 485 477 455 485 C 415 495 375 508 334 522 C 293 536 256 554 223 576 C 189 598 162 627 141 661 C 119 695 109 739 109 791 C 109 859 120 918 143 967 C 166 1015 198 1055 240 1086 C 281 1116 330 1139 388 1153 C 445 1167 508 1174 578 1174 C 632 1174 682 1170 728 1163 C 774 1155 816 1145 854 1133 C 892 1121 927 1107 958 1091 C 989 1075 1016 1058 1040 1042 L 887 854 C 869 865 850 876 829 888 C 807 900 783 910 756 920 C 729 929 699 937 667 943 C 634 949 597 952 557 952 C 490 952 439 942 405 923 C 371 903 354 869 354 821 C 354 800 360 782 372 768 C 384 754 400 741 420 731 C 440 720 464 710 492 702 C 520 693 550 684 582 676 C 624 664 667 650 709 636 C 751 621 788 602 821 579 C 854 555 881 526 901 492 C 921 457 932 414 932 362 C 932 288 919 227 895 178 C 871 129 837 90 795 61 C 752 31 701 10 643 -1 C 585 -13 521 -20 453 -20 Z" unicode="" />
<glyph horiz-adv-x="1386" d="M 301 -494 C 329 -480 353 -468 371 -458 C 389 -447 404 -436 416 -425 C 428 -414 436 -402 442 -390 C 448 -377 453 -362 457 -344 L 336 -344 L 389 -80 L 645 -80 L 606 -272 C 596 -320 585 -360 573 -394 C 561 -427 545 -456 526 -481 C 506 -506 481 -528 451 -547 C 421 -565 382 -584 336 -602 L 301 -494 Z M 684 1280 L 156 1280 L 205 1518 L 1507 1518 L 1458 1280 L 932 1280 L 657 0 L 410 0 L 684 1280 Z" unicode="" />
<glyph horiz-adv-x="860" d="M 12 -494 C 40 -480 64 -468 83 -458 C 101 -447 116 -436 128 -425 C 139 -414 148 -402 154 -390 C 160 -377 164 -362 168 -344 L 47 -344 L 100 -80 L 356 -80 L 317 -272 C 307 -320 296 -360 284 -394 C 272 -427 257 -456 237 -481 C 217 -506 193 -528 163 -547 C 133 -565 94 -584 47 -602 L 12 -494 Z M 139 1147 L 348 1147 L 455 1454 L 647 1493 L 571 1147 L 846 1147 L 803 930 L 526 930 L 406 365 C 400 341 396 319 395 300 C 394 280 398 264 406 251 C 414 238 429 228 449 221 C 469 214 497 211 535 211 L 645 211 L 604 0 C 596 0 585 -1 571 -1 C 557 -1 543 -2 529 -2 C 514 -2 500 -2 486 -2 C 472 -2 460 -2 451 -2 C 376 -2 317 6 274 22 C 230 38 199 62 179 93 C 159 124 149 162 149 207 C 149 251 154 302 166 360 L 291 930 L 94 930 L 139 1147 Z" unicode="" />
<glyph horiz-adv-x="1386" d="M 514 1954 L 735 1954 L 899 1759 L 1145 1954 L 1376 1954 L 997 1604 L 743 1604 L 514 1954 Z M 684 1280 L 156 1280 L 205 1518 L 1507 1518 L 1458 1280 L 932 1280 L 657 0 L 410 0 L 684 1280 Z" unicode="" />
<glyph horiz-adv-x="860" d="M 772 1419 C 799 1431 821 1443 839 1453 C 856 1463 870 1473 881 1484 C 892 1494 901 1506 907 1519 C 913 1531 918 1547 922 1565 L 815 1565 L 866 1819 L 1102 1819 L 1063 1632 C 1053 1586 1042 1548 1031 1517 C 1019 1485 1004 1458 985 1434 C 966 1410 942 1389 913 1371 C 884 1353 847 1334 803 1315 L 772 1419 Z M 139 1147 L 348 1147 L 455 1454 L 647 1493 L 571 1147 L 846 1147 L 803 930 L 526 930 L 406 365 C 400 341 396 319 395 300 C 394 280 398 264 406 251 C 414 238 429 228 449 221 C 469 214 497 211 535 211 L 645 211 L 604 0 C 596 0 585 -1 571 -1 C 557 -1 543 -2 529 -2 C 514 -2 500 -2 486 -2 C 472 -2 460 -2 451 -2 C 376 -2 317 6 274 22 C 230 38 199 62 179 93 C 159 124 149 162 149 207 C 149 251 154 302 166 360 L 291 930 L 94 930 L 139 1147 Z" unicode="" />
<glyph horiz-adv-x="1386" d="" unicode="" />
<glyph horiz-adv-x="860" d="" unicode="" />
<glyph horiz-adv-x="1593" d="" unicode="" />
<glyph horiz-adv-x="1260" d="" unicode="" />
<glyph horiz-adv-x="1593" d="" unicode="" />
<glyph horiz-adv-x="1260" d="" unicode="" />
<glyph horiz-adv-x="1593" d="" unicode="" />
<glyph horiz-adv-x="1260" d="" unicode="" />
<glyph horiz-adv-x="1593" d="M 1001 1583 C 955 1583 917 1588 885 1600 C 853 1612 827 1628 807 1648 C 786 1668 771 1692 762 1719 C 752 1746 748 1775 748 1806 C 748 1856 755 1901 770 1943 C 784 1984 805 2019 831 2048 C 857 2077 889 2100 927 2116 C 964 2132 1005 2140 1051 2140 C 1095 2140 1132 2133 1164 2121 C 1196 2108 1222 2091 1243 2070 C 1263 2048 1278 2024 1288 1996 C 1298 1968 1303 1938 1303 1907 C 1303 1855 1295 1810 1280 1770 C 1264 1730 1243 1696 1216 1668 C 1189 1640 1157 1619 1121 1605 C 1084 1590 1044 1583 1001 1583 Z M 1008 1712 C 1057 1712 1097 1727 1128 1759 C 1158 1791 1174 1835 1174 1892 C 1174 1908 1171 1923 1167 1937 C 1162 1951 1154 1964 1144 1975 C 1134 1986 1120 1995 1104 2001 C 1088 2007 1068 2011 1044 2011 C 1018 2011 995 2006 975 1997 C 955 1987 937 1974 923 1958 C 908 1941 897 1921 889 1898 C 881 1875 877 1850 877 1823 C 877 1807 879 1793 884 1779 C 889 1765 897 1754 907 1744 C 917 1734 931 1726 948 1720 C 964 1714 984 1712 1008 1712 Z M 702 -27 C 621 -27 550 -21 489 -10 C 428 0 375 15 331 35 C 286 55 249 78 219 106 C 189 134 165 164 147 197 C 129 229 116 264 109 301 C 101 337 98 375 98 414 C 98 446 100 480 105 514 C 109 548 115 581 123 614 L 317 1518 L 565 1518 L 375 625 C 368 595 362 566 358 539 C 354 512 352 486 352 461 C 352 421 358 386 370 355 C 382 323 403 296 432 274 C 461 252 500 235 548 223 C 596 211 657 205 729 205 C 797 205 855 212 903 228 C 951 243 991 266 1024 297 C 1057 327 1084 366 1105 412 C 1125 458 1142 511 1155 573 L 1358 1518 L 1599 1518 L 1384 524 C 1373 474 1360 426 1345 380 C 1329 334 1310 290 1287 250 C 1263 209 1235 172 1201 138 C 1167 104 1127 74 1080 50 C 1033 26 978 7 916 -6 C 854 -20 782 -27 702 -27 Z" unicode="" />
<glyph horiz-adv-x="1260" d="M 764 1241 C 718 1241 680 1246 648 1258 C 616 1270 589 1286 569 1306 C 549 1326 534 1350 524 1377 C 514 1404 510 1433 510 1464 C 510 1514 517 1559 532 1601 C 546 1642 567 1677 594 1706 C 620 1735 652 1758 689 1774 C 726 1790 767 1798 813 1798 C 857 1798 894 1791 926 1779 C 958 1766 984 1749 1005 1728 C 1025 1706 1040 1682 1050 1654 C 1060 1626 1065 1596 1065 1565 C 1065 1513 1057 1468 1042 1428 C 1026 1388 1005 1354 979 1326 C 952 1298 920 1277 883 1263 C 846 1248 806 1241 764 1241 Z M 770 1370 C 819 1370 859 1385 890 1417 C 920 1449 936 1493 936 1550 C 936 1566 933 1581 929 1595 C 924 1609 916 1622 906 1633 C 896 1644 882 1653 866 1659 C 850 1665 830 1669 807 1669 C 781 1669 758 1664 738 1655 C 718 1645 700 1632 685 1616 C 670 1599 659 1579 651 1556 C 643 1533 639 1508 639 1481 C 639 1449 649 1423 670 1402 C 690 1380 724 1370 770 1370 Z M 530 -23 C 450 -23 381 -17 325 -5 C 268 7 221 24 185 47 C 148 69 120 97 101 131 C 81 164 69 202 63 245 C 57 287 56 334 61 385 C 66 436 75 491 88 551 L 215 1147 L 455 1147 L 324 530 C 317 498 311 468 306 440 C 301 411 299 384 300 360 C 301 336 306 314 314 294 C 322 274 335 257 354 243 C 373 229 399 218 431 210 C 463 202 503 199 551 199 C 604 199 647 205 679 218 C 711 231 737 250 757 275 C 776 299 791 329 801 365 C 811 400 821 440 831 485 L 973 1147 L 1206 1147 L 1063 473 C 1043 383 1022 307 998 244 C 974 181 943 130 904 90 C 864 50 815 22 755 4 C 695 -14 620 -23 530 -23 Z" unicode="" />
<glyph horiz-adv-x="1593" d="M 702 -27 C 621 -27 550 -21 489 -10 C 428 0 375 15 331 35 C 286 55 249 78 219 106 C 189 134 165 164 147 197 C 129 229 116 264 109 301 C 101 337 98 375 98 414 C 98 446 100 480 105 514 C 109 548 115 581 123 614 L 317 1518 L 565 1518 L 375 625 C 368 595 362 566 358 539 C 354 512 352 486 352 461 C 352 421 358 386 370 355 C 382 323 403 296 432 274 C 461 252 500 235 548 223 C 596 211 657 205 729 205 C 797 205 855 212 903 228 C 951 243 991 266 1024 297 C 1057 327 1084 366 1105 412 C 1125 458 1142 511 1155 573 L 1358 1518 L 1599 1518 L 1384 524 C 1373 474 1360 426 1345 380 C 1329 334 1310 290 1287 250 C 1263 209 1235 172 1201 138 C 1167 104 1127 74 1080 50 C 1033 26 978 7 916 -6 C 854 -20 782 -27 702 -27 Z M 879 1954 L 1157 1954 L 754 1604 L 547 1604 L 879 1954 Z M 1389 1954 L 1665 1954 L 1262 1604 L 1055 1604 L 1389 1954 Z" unicode="" />
<glyph horiz-adv-x="1260" d="M 530 -23 C 450 -23 381 -17 325 -5 C 268 7 221 24 185 47 C 148 69 120 97 101 131 C 81 164 69 202 63 245 C 57 287 56 334 61 385 C 66 436 75 491 88 551 L 215 1147 L 455 1147 L 324 530 C 317 498 311 468 306 440 C 301 411 299 384 300 360 C 301 336 306 314 314 294 C 322 274 335 257 354 243 C 373 229 399 218 431 210 C 463 202 503 199 551 199 C 604 199 647 205 679 218 C 711 231 737 250 757 275 C 776 299 791 329 801 365 C 811 400 821 440 831 485 L 973 1147 L 1206 1147 L 1063 473 C 1043 383 1022 307 998 244 C 974 181 943 130 904 90 C 864 50 815 22 755 4 C 695 -14 620 -23 530 -23 Z M 641 1612 L 920 1612 L 516 1262 L 309 1262 L 641 1612 Z M 1151 1612 L 1427 1612 L 1024 1262 L 817 1262 L 1151 1612 Z" unicode="" />
<glyph horiz-adv-x="1593" d="" unicode="" />
<glyph horiz-adv-x="1260" d="" unicode="" />
<glyph horiz-adv-x="2177" d="" unicode="" />
<glyph horiz-adv-x="1798" d="" unicode="" />
<glyph horiz-adv-x="1454" d="" unicode="" />
<glyph horiz-adv-x="1100" d="" unicode="" />
<glyph horiz-adv-x="1454" d="M 561 571 L 184 1518 L 442 1518 L 729 811 L 1313 1518 L 1587 1518 L 807 565 L 686 0 L 438 0 L 561 571 Z M 633 1851 L 850 1851 L 799 1604 L 582 1604 L 633 1851 Z M 1061 1851 L 1278 1851 L 1227 1604 L 1010 1604 L 1061 1851 Z" unicode="" />
<glyph horiz-adv-x="1348" d="M 1036 1954 L 1333 1954 L 889 1604 L 664 1604 L 1036 1954 Z M -41 197 L 1032 1280 L 227 1280 L 274 1518 L 1403 1518 L 1362 1303 L 295 227 L 1149 227 L 1102 0 L -84 0 L -41 197 Z" unicode="" />
<glyph horiz-adv-x="1026" d="M 807 1612 L 1104 1612 L 659 1262 L 434 1262 L 807 1612 Z M -72 172 L 676 930 L 127 930 L 170 1147 L 1036 1147 L 1001 971 L 252 203 L 858 203 L 817 0 L -109 0 L -72 172 Z" unicode="" />
<glyph horiz-adv-x="1348" d="M -41 197 L 1032 1280 L 227 1280 L 274 1518 L 1403 1518 L 1362 1303 L 295 227 L 1149 227 L 1102 0 L -84 0 L -41 197 Z M 784 1860 L 1026 1860 L 973 1604 L 731 1604 L 784 1860 Z" unicode="" />
<glyph horiz-adv-x="1026" d="M -72 172 L 676 930 L 127 930 L 170 1147 L 1036 1147 L 1001 971 L 252 203 L 858 203 L 817 0 L -109 0 L -72 172 Z M 555 1518 L 797 1518 L 743 1262 L 502 1262 L 555 1518 Z" unicode="" />
<glyph horiz-adv-x="1348" d="M 496 1954 L 717 1954 L 881 1759 L 1126 1954 L 1358 1954 L 979 1604 L 725 1604 L 496 1954 Z M -41 197 L 1032 1280 L 227 1280 L 274 1518 L 1403 1518 L 1362 1303 L 295 227 L 1149 227 L 1102 0 L -84 0 L -41 197 Z" unicode="" />
<glyph horiz-adv-x="1026" d="M 266 1612 L 487 1612 L 651 1417 L 897 1612 L 1128 1612 L 750 1262 L 496 1262 L 266 1612 Z M -72 172 L 676 930 L 127 930 L 170 1147 L 1036 1147 L 1001 971 L 252 203 L 858 203 L 817 0 L -109 0 L -72 172 Z" unicode="" />
<glyph horiz-adv-x="848" d="" unicode="" />
<glyph horiz-adv-x="1174" d="M 238 936 L 475 936 L 528 1180 C 538 1228 550 1273 565 1315 C 579 1356 602 1392 632 1422 C 662 1452 703 1475 753 1492 C 803 1509 869 1518 950 1518 L 1094 1518 L 1049 1292 L 965 1292 C 923 1292 890 1287 865 1278 C 840 1268 820 1255 805 1239 C 790 1223 779 1203 772 1181 C 764 1159 758 1134 754 1108 L 717 936 L 1032 936 L 987 719 L 670 719 L 442 -340 L 205 -340 L 430 719 L 190 719 L 238 936 Z" unicode="" />
<glyph horiz-adv-x="1726" d="" unicode="" />
<glyph horiz-adv-x="1323" d="" unicode="" />
<glyph horiz-adv-x="1675" d="" unicode="" />
<glyph horiz-adv-x="1376" d="" unicode="" />
<glyph horiz-adv-x="1501" d="" unicode="" />
<glyph horiz-adv-x="1266" d="" unicode="" />
<glyph horiz-adv-x="2230" d="" unicode="" />
<glyph horiz-adv-x="1952" d="" unicode="" />
<glyph horiz-adv-x="1700" d="" unicode="" />
<glyph horiz-adv-x="1282" d="" unicode="" />
<glyph horiz-adv-x="1438" d="" unicode="" />
<glyph horiz-adv-x="1081" d="" unicode="" />
<glyph horiz-adv-x="1386" d="M 301 -494 C 329 -480 353 -468 371 -458 C 389 -447 404 -436 416 -425 C 428 -414 436 -402 442 -390 C 448 -377 453 -362 457 -344 L 336 -344 L 389 -80 L 645 -80 L 606 -272 C 596 -320 585 -360 573 -394 C 561 -427 545 -456 526 -481 C 506 -506 481 -528 451 -547 C 421 -565 382 -584 336 -602 L 301 -494 Z M 684 1280 L 156 1280 L 205 1518 L 1507 1518 L 1458 1280 L 932 1280 L 657 0 L 410 0 L 684 1280 Z" unicode="" />
<glyph horiz-adv-x="860" d="M 12 -494 C 40 -480 64 -468 83 -458 C 101 -447 116 -436 128 -425 C 139 -414 148 -402 154 -390 C 160 -377 164 -362 168 -344 L 47 -344 L 100 -80 L 356 -80 L 317 -272 C 307 -320 296 -360 284 -394 C 272 -427 257 -456 237 -481 C 217 -506 193 -528 163 -547 C 133 -565 94 -584 47 -602 L 12 -494 Z M 139 1147 L 348 1147 L 455 1454 L 647 1493 L 571 1147 L 846 1147 L 803 930 L 526 930 L 406 365 C 400 341 396 319 395 300 C 394 280 398 264 406 251 C 414 238 429 228 449 221 C 469 214 497 211 535 211 L 645 211 L 604 0 C 596 0 585 -1 571 -1 C 557 -1 543 -2 529 -2 C 514 -2 500 -2 486 -2 C 472 -2 460 -2 451 -2 C 376 -2 317 6 274 22 C 230 38 199 62 179 93 C 159 124 149 162 149 207 C 149 251 154 302 166 360 L 291 930 L 94 930 L 139 1147 Z" unicode="" />
<glyph horiz-adv-x="1208" d="M 657 1612 L 911 1612 L 1141 1262 L 918 1262 L 756 1456 L 508 1262 L 279 1262 L 657 1612 Z" unicode="" />
<glyph horiz-adv-x="1208" d="M 354 1612 L 575 1612 L 739 1417 L 985 1612 L 1217 1612 L 838 1262 L 584 1262 L 354 1612 Z" unicode="" />
<glyph horiz-adv-x="1208" d="M 741 1241 C 663 1241 600 1250 553 1270 C 505 1289 469 1315 443 1349 C 417 1383 399 1422 391 1468 C 382 1513 378 1562 379 1614 L 561 1636 C 561 1604 563 1575 567 1551 C 571 1526 580 1505 594 1489 C 607 1472 626 1459 652 1451 C 677 1442 710 1438 752 1438 C 791 1438 825 1442 853 1451 C 881 1459 905 1472 925 1489 C 945 1505 963 1526 977 1551 C 991 1575 1004 1604 1016 1636 L 1186 1604 C 1170 1552 1149 1504 1125 1460 C 1100 1416 1070 1377 1034 1345 C 998 1312 955 1286 907 1268 C 859 1250 803 1241 741 1241 Z" unicode="" />
<glyph horiz-adv-x="1208" d="M 643 1518 L 885 1518 L 831 1262 L 590 1262 L 643 1518 Z" unicode="" />
<glyph horiz-adv-x="1208" d="" unicode="" />
<glyph horiz-adv-x="1208" d="M 410 -465 C 356 -465 311 -460 275 -452 C 239 -444 210 -432 189 -418 C 167 -403 152 -385 144 -365 C 135 -345 131 -323 131 -299 C 131 -260 139 -224 156 -191 C 173 -157 195 -127 221 -101 C 247 -75 275 -52 305 -33 C 335 -13 363 2 389 14 L 571 14 C 541 -2 512 -21 483 -41 C 454 -61 428 -81 406 -103 C 383 -124 365 -146 351 -169 C 337 -191 330 -214 330 -236 C 330 -262 338 -281 355 -291 C 372 -301 402 -307 444 -307 C 471 -307 498 -303 525 -297 C 552 -290 579 -281 606 -270 L 666 -414 C 632 -429 593 -441 548 -451 C 503 -460 457 -465 410 -465 Z" unicode="" />
<glyph horiz-adv-x="1208" d="M 901 1264 C 864 1264 831 1269 803 1280 C 774 1291 747 1303 722 1317 C 697 1330 673 1342 650 1353 C 627 1364 603 1370 578 1370 C 548 1370 519 1360 493 1342 C 466 1323 441 1300 418 1274 L 297 1395 C 341 1448 387 1490 435 1520 C 483 1550 533 1565 586 1565 C 622 1565 655 1559 684 1548 C 712 1537 739 1525 764 1512 C 789 1499 813 1487 836 1476 C 859 1465 883 1460 909 1460 C 936 1460 962 1469 986 1487 C 1010 1505 1037 1529 1065 1561 L 1188 1442 C 1138 1383 1090 1339 1043 1309 C 996 1279 949 1264 901 1264 Z" unicode="" />
<glyph horiz-adv-x="1208" d="M 616 1612 L 895 1612 L 492 1262 L 285 1262 L 616 1612 Z M 1126 1612 L 1403 1612 L 999 1262 L 793 1262 L 1126 1612 Z" unicode="" />
<glyph horiz-adv-x="1208" d="M 362 1462 L 1141 1462 L 1100 1262 L 322 1262 L 362 1462 Z" unicode="" />
<glyph horiz-adv-x="1208" d="" unicode="" />
<glyph horiz-adv-x="1208" d="" unicode="" />
<glyph horiz-adv-x="545" d="" unicode="" />
<glyph horiz-adv-x="1208" d="" unicode="" />
<glyph horiz-adv-x="1208" d="" unicode="" />
<glyph horiz-adv-x="1208" d="M 680 1606 L 909 1606 L 647 1260 L 467 1260 L 680 1606 Z" unicode="" />
<glyph horiz-adv-x="1208" d="M 227 1501 L 401 1501 L 348 1260 L 176 1260 L 227 1501 Z M 836 1501 L 1010 1501 L 958 1260 L 784 1260 L 836 1501 Z M 621 1606 L 827 1606 L 580 1260 L 428 1260 L 621 1606 Z" unicode="" />
<glyph horiz-adv-x="1597" d="M 354 1518 L 584 1518 L 322 1171 L 141 1171 L 354 1518 Z M 881 1528 L 1128 1528 L 1386 0 L 1139 0 L 1090 291 L 408 291 L 240 0 L -29 0 L 881 1528 Z M 1057 520 L 944 1210 L 537 520 L 1057 520 Z" unicode="" />
<glyph horiz-adv-x="1731" d="M 332 1518 L 561 1518 L 299 1171 L 119 1171 L 332 1518 Z M 731 1518 L 1772 1518 L 1724 1280 L 930 1280 L 844 899 L 1618 899 L 1571 664 L 799 664 L 702 227 L 1503 227 L 1456 0 L 408 0 L 731 1518 Z" unicode="" />
<glyph horiz-adv-x="2005" d="M 332 1518 L 561 1518 L 299 1171 L 119 1171 L 332 1518 Z M 731 1518 L 979 1518 L 848 907 L 1620 907 L 1753 1518 L 2001 1518 L 1677 0 L 1430 0 L 1571 662 L 799 662 L 655 0 L 408 0 L 731 1518 Z" unicode="" />
<glyph horiz-adv-x="1012" d="M 332 1518 L 561 1518 L 299 1171 L 119 1171 L 332 1518 Z M 741 1518 L 989 1518 L 666 0 L 418 0 L 741 1518 Z" unicode="" />
<glyph horiz-adv-x="2073" d="M 332 1518 L 561 1518 L 299 1171 L 119 1171 L 332 1518 Z M 1137 -25 C 1023 -25 921 -11 833 15 C 744 41 669 80 608 132 C 547 184 501 248 469 325 C 437 401 422 490 422 590 C 422 629 424 669 428 711 C 432 752 439 796 449 842 C 468 934 494 1016 526 1086 C 558 1156 594 1218 636 1270 C 678 1322 724 1365 774 1400 C 824 1434 877 1462 933 1483 C 989 1504 1047 1519 1107 1528 C 1167 1537 1228 1542 1290 1542 C 1402 1542 1503 1528 1591 1502 C 1679 1476 1754 1437 1815 1386 C 1876 1334 1923 1271 1955 1195 C 1987 1119 2003 1031 2003 932 C 2003 892 2000 852 1996 811 C 1992 770 1985 728 1976 684 C 1956 590 1929 508 1897 437 C 1865 366 1828 304 1787 252 C 1745 199 1700 155 1650 120 C 1600 84 1547 56 1492 34 C 1436 12 1379 -2 1319 -11 C 1259 -20 1198 -25 1137 -25 Z M 1139 207 C 1217 207 1287 216 1351 235 C 1415 254 1471 284 1520 325 C 1569 365 1611 417 1645 480 C 1679 542 1705 617 1724 705 C 1739 773 1747 837 1747 897 C 1747 957 1738 1013 1720 1063 C 1702 1113 1675 1155 1637 1191 C 1599 1227 1550 1254 1491 1274 C 1431 1293 1360 1303 1278 1303 C 1122 1303 996 1263 898 1183 C 800 1103 732 977 696 807 C 688 773 683 741 680 709 C 677 677 676 645 676 614 C 676 553 684 498 702 448 C 719 398 746 355 784 319 C 822 283 870 256 928 236 C 986 216 1057 207 1139 207 Z" unicode="" />
<glyph horiz-adv-x="1976" d="M 332 1518 L 561 1518 L 299 1171 L 119 1171 L 332 1518 Z M 1081 571 L 705 1518 L 963 1518 L 1249 811 L 1833 1518 L 2107 1518 L 1327 565 L 1206 0 L 958 0 L 1081 571 Z" unicode="" />
<glyph horiz-adv-x="2097" d="M 1317 1542 C 1431 1542 1532 1528 1621 1501 C 1710 1474 1785 1436 1846 1386 C 1906 1336 1952 1275 1984 1203 C 2016 1131 2032 1051 2032 963 C 2032 871 2018 787 1990 711 C 1962 635 1923 569 1873 512 C 1823 454 1763 407 1694 369 C 1624 331 1548 303 1466 287 L 1452 217 L 1909 217 L 1862 0 L 1225 0 L 1311 383 C 1464 413 1579 474 1655 565 C 1731 656 1769 773 1769 915 C 1769 979 1758 1035 1737 1083 C 1715 1131 1684 1172 1644 1205 C 1604 1237 1554 1262 1496 1278 C 1437 1294 1370 1303 1296 1303 C 1200 1303 1114 1288 1040 1260 C 965 1232 902 1193 851 1143 C 799 1093 760 1034 734 966 C 707 898 694 826 694 748 C 694 691 700 642 714 601 C 727 560 747 525 774 496 C 800 467 834 443 874 425 C 914 407 962 393 1016 383 L 932 0 L 297 0 L 342 217 L 797 217 L 813 287 C 755 300 704 318 659 342 C 614 366 576 396 545 434 C 513 471 489 516 473 569 C 457 621 449 683 449 754 C 449 820 456 885 472 950 C 488 1014 511 1076 543 1134 C 574 1192 613 1246 661 1296 C 709 1346 765 1389 829 1425 C 893 1461 966 1490 1047 1511 C 1128 1531 1218 1542 1317 1542 Z M 332 1518 L 561 1518 L 299 1171 L 119 1171 L 332 1518 Z" unicode="" />
<glyph horiz-adv-x="543" d="M 43 1501 L 217 1501 L 164 1260 L -8 1260 L 43 1501 Z M 651 1501 L 825 1501 L 774 1260 L 600 1260 L 651 1501 Z M 436 1606 L 643 1606 L 395 1260 L 244 1260 L 436 1606 Z M 236 1147 L 471 1147 L 229 0 L -10 0 L 236 1147 Z" unicode="" />
<glyph horiz-adv-x="1501" d="M 786 1528 L 1034 1528 L 1292 0 L 1044 0 L 995 291 L 313 291 L 145 0 L -123 0 L 786 1528 Z M 963 520 L 850 1210 L 442 520 L 963 520 Z" unicode="" />
<glyph horiz-adv-x="1458" d="M 328 1518 L 866 1518 C 974 1518 1064 1510 1136 1496 C 1208 1482 1266 1461 1310 1434 C 1353 1407 1384 1374 1402 1336 C 1420 1297 1430 1253 1430 1204 C 1430 1140 1423 1084 1410 1035 C 1396 986 1377 944 1353 909 C 1328 874 1299 846 1265 825 C 1231 804 1193 790 1153 782 C 1207 764 1247 730 1275 680 C 1303 629 1317 568 1317 498 C 1317 399 1303 318 1276 254 C 1249 190 1210 139 1159 101 C 1107 63 1044 37 970 22 C 895 7 810 0 715 0 L 4 0 L 328 1518 Z M 764 221 C 811 221 853 225 891 235 C 929 244 961 259 987 281 C 1013 303 1032 331 1046 366 C 1060 400 1067 443 1067 494 C 1067 521 1061 545 1051 566 C 1041 587 1024 605 1002 619 C 979 633 949 643 913 651 C 876 658 832 662 780 662 L 391 662 L 293 221 L 764 221 Z M 893 889 C 944 889 987 894 1022 905 C 1057 916 1085 932 1107 954 C 1128 975 1143 1001 1153 1032 C 1162 1063 1167 1099 1167 1139 C 1167 1162 1162 1183 1153 1202 C 1143 1221 1127 1237 1104 1251 C 1080 1264 1049 1274 1009 1281 C 969 1288 918 1292 858 1292 L 526 1292 L 436 889 L 893 889 Z" unicode="" />
<glyph horiz-adv-x="1204" d="M 326 1518 L 1313 1518 L 1264 1280 L 524 1280 L 252 0 L 4 0 L 326 1518 Z" unicode="" />
<glyph horiz-adv-x="1501" d="M 791 1528 L 1030 1528 L 1286 0 L -119 0 L 791 1528 Z M 1006 229 L 846 1210 L 270 229 L 1006 229 Z" unicode="" />
<glyph horiz-adv-x="1327" d="M 328 1518 L 1368 1518 L 1321 1280 L 526 1280 L 440 899 L 1214 899 L 1167 664 L 395 664 L 299 227 L 1100 227 L 1053 0 L 4 0 L 328 1518 Z" unicode="" />
<glyph horiz-adv-x="1348" d="M -41 197 L 1032 1280 L 227 1280 L 274 1518 L 1403 1518 L 1362 1303 L 295 227 L 1149 227 L 1102 0 L -84 0 L -41 197 Z" unicode="" />
<glyph horiz-adv-x="1599" d="M 328 1518 L 575 1518 L 444 907 L 1217 907 L 1350 1518 L 1597 1518 L 1274 0 L 1026 0 L 1167 662 L 395 662 L 252 0 L 4 0 L 328 1518 Z" unicode="" />
</font>
</defs>
</svg>
