<?xml version="1.0" encoding="utf-8" ?><svg version="1.1" xmlns = 'http://www.w3.org/2000/svg'><defs><font id='web' horiz-adv-x="1000">
<font-face font-family="web" descent="-410" cap-height="1518" units-per-em="2048" bbox="-180,-588,3310,2535" x-height="1147" ascent="1638" />
<missing-glyph horiz-adv-x="1024" d="" /><glyph horiz-adv-x="461" d="" unicode=" " />
<glyph horiz-adv-x="778" d="M 244 301 L 532 301 L 532 0 L 244 0 L 244 301 Z M 258 1518 L 520 1518 L 494 451 L 283 451 L 258 1518 Z" unicode="!" />
<glyph horiz-adv-x="1081" d="M 188 1518 L 434 1518 L 420 866 L 205 866 L 188 1518 Z M 647 1518 L 895 1518 L 879 866 L 664 866 L 647 1518 Z" unicode="&#x22;" />
<glyph horiz-adv-x="1575" d="M 360 403 L 125 403 L 125 623 L 399 623 L 446 864 L 125 864 L 125 1085 L 487 1085 L 573 1518 L 801 1518 L 715 1085 L 981 1085 L 1065 1518 L 1292 1518 L 1210 1085 L 1452 1085 L 1452 864 L 1169 864 L 1122 623 L 1452 623 L 1452 403 L 1081 403 L 1004 0 L 774 0 L 852 403 L 588 403 L 510 0 L 281 0 L 360 403 Z M 907 610 L 961 879 L 662 879 L 608 610 L 907 610 Z" unicode="#" />
<glyph horiz-adv-x="1382" d="M 588 2 C 544 4 501 9 459 16 C 417 23 375 33 334 45 C 293 57 253 72 214 90 C 174 108 136 130 100 156 L 213 332 C 253 306 293 284 332 268 C 370 251 409 238 447 228 C 485 218 523 211 562 207 C 600 203 640 201 682 201 C 746 201 801 206 845 216 C 889 226 925 240 952 260 C 979 280 998 304 1010 333 C 1022 362 1028 396 1028 434 C 1028 476 1020 510 1005 537 C 990 563 968 585 938 603 C 908 621 871 635 827 646 C 782 657 730 668 670 678 C 627 685 585 693 544 701 C 502 709 463 720 426 733 C 388 746 354 762 323 781 C 291 800 264 824 241 853 C 218 881 200 915 187 955 C 174 995 168 1042 168 1096 C 168 1162 176 1221 194 1271 C 211 1321 237 1363 272 1397 C 307 1431 351 1457 404 1476 C 456 1495 518 1507 588 1513 L 588 1657 L 807 1657 L 807 1516 C 888 1508 959 1495 1021 1475 C 1083 1455 1136 1431 1182 1403 L 1071 1217 C 1048 1231 1022 1243 993 1255 C 964 1266 933 1276 900 1284 C 867 1292 833 1298 798 1302 C 762 1306 728 1309 694 1309 C 636 1309 588 1304 550 1295 C 512 1286 481 1273 459 1256 C 436 1239 420 1218 411 1193 C 401 1168 397 1140 397 1108 C 397 1068 405 1036 421 1011 C 437 986 460 966 491 950 C 521 934 559 920 604 910 C 649 900 701 889 760 879 C 803 871 845 862 887 853 C 928 843 967 832 1004 818 C 1040 804 1074 788 1105 768 C 1135 748 1162 724 1184 695 C 1206 666 1224 632 1236 592 C 1248 552 1255 506 1255 453 C 1255 388 1246 330 1229 278 C 1211 226 1184 181 1148 143 C 1112 105 1065 74 1009 51 C 952 27 885 12 807 4 L 807 -193 L 588 -193 L 588 2 Z" unicode="$" />
<glyph horiz-adv-x="2413" d="M 526 557 C 450 557 383 568 327 591 C 271 613 224 646 187 689 C 150 731 123 783 105 844 C 87 904 78 973 78 1049 C 78 1123 87 1191 105 1252 C 123 1312 150 1364 187 1407 C 224 1450 271 1483 327 1507 C 383 1530 450 1542 526 1542 C 600 1542 665 1530 721 1507 C 777 1484 823 1451 860 1408 C 896 1365 924 1313 942 1253 C 960 1192 969 1124 969 1049 C 969 973 960 904 942 844 C 924 783 896 731 860 689 C 823 646 777 613 721 591 C 665 568 600 557 526 557 Z M 526 748 C 569 748 605 755 635 770 C 664 784 688 805 706 832 C 724 858 736 890 744 927 C 752 964 756 1005 756 1049 C 756 1093 752 1133 744 1169 C 736 1205 723 1237 705 1263 C 687 1289 663 1310 634 1324 C 604 1338 568 1346 526 1346 C 482 1346 446 1338 416 1324 C 386 1310 362 1290 344 1264 C 326 1238 313 1206 305 1170 C 297 1134 293 1093 293 1049 C 293 1005 296 964 304 927 C 312 890 325 858 343 832 C 361 805 385 784 415 770 C 445 755 482 748 526 748 Z M 1888 -20 C 1812 -20 1746 -8 1690 14 C 1634 37 1588 70 1551 113 C 1514 155 1487 207 1469 268 C 1451 328 1442 397 1442 473 C 1442 547 1451 615 1469 676 C 1487 737 1514 789 1551 832 C 1588 875 1634 908 1690 932 C 1746 955 1812 967 1888 967 C 1963 967 2028 955 2084 932 C 2140 908 2186 875 2223 832 C 2260 789 2288 737 2306 676 C 2324 615 2333 547 2333 473 C 2333 397 2324 328 2306 268 C 2288 207 2260 155 2223 113 C 2186 70 2140 37 2084 14 C 2028 -8 1963 -20 1888 -20 Z M 1888 170 C 1931 170 1967 177 1997 192 C 2026 207 2050 228 2068 255 C 2086 281 2098 313 2106 350 C 2114 387 2118 428 2118 473 C 2118 516 2114 556 2106 592 C 2098 628 2086 660 2068 686 C 2050 712 2026 732 1997 746 C 1967 760 1931 768 1888 768 C 1844 768 1808 760 1779 746 C 1749 732 1726 712 1708 686 C 1690 660 1677 629 1669 593 C 1661 557 1657 517 1657 473 C 1657 428 1660 387 1668 350 C 1676 313 1689 281 1707 255 C 1725 228 1748 207 1778 192 C 1808 177 1844 170 1888 170 Z M 1518 1520 L 1741 1520 L 893 0 L 670 0 L 1518 1520 Z" unicode="%" />
<glyph horiz-adv-x="1675" d="M 631 -20 C 535 -20 452 -12 384 3 C 315 19 259 44 215 79 C 171 114 138 159 117 214 C 96 269 86 336 86 416 C 86 474 94 525 111 570 C 128 615 151 655 180 691 C 209 726 243 757 281 784 C 319 811 359 836 401 858 C 377 914 359 968 347 1022 C 334 1075 328 1128 328 1180 C 328 1242 336 1295 354 1341 C 371 1386 396 1423 429 1453 C 461 1483 501 1505 547 1520 C 593 1534 644 1542 702 1542 C 818 1542 905 1513 964 1456 C 1023 1398 1053 1306 1053 1180 C 1053 1126 1043 1078 1023 1037 C 1003 996 978 959 946 927 C 914 895 877 866 836 841 C 794 815 752 792 709 770 C 741 722 775 675 813 630 C 851 584 890 543 930 506 C 953 483 975 462 997 444 C 1019 425 1040 407 1061 391 C 1081 421 1100 454 1118 491 C 1135 527 1152 567 1168 609 C 1184 651 1199 697 1214 746 C 1229 795 1244 847 1260 903 L 1460 852 C 1428 730 1395 622 1360 527 C 1325 432 1285 349 1239 279 C 1268 264 1296 252 1322 244 C 1348 236 1372 229 1396 225 C 1420 221 1442 218 1464 217 C 1485 215 1506 215 1526 215 L 1544 215 L 1544 0 L 1518 0 C 1478 0 1440 1 1404 4 C 1367 6 1331 11 1296 19 C 1260 26 1225 36 1189 50 C 1153 64 1115 82 1077 104 C 1019 62 954 30 882 10 C 809 -9 725 -20 631 -20 Z M 631 180 C 733 180 820 198 891 236 C 868 254 844 274 820 296 C 796 318 771 343 745 369 C 697 414 653 463 611 515 C 569 567 530 621 496 678 C 470 662 447 645 425 627 C 403 609 385 589 369 568 C 353 547 340 524 331 500 C 321 476 317 449 317 420 C 317 384 320 352 327 323 C 334 293 349 268 371 247 C 393 225 425 209 467 197 C 508 185 563 180 631 180 Z M 553 1180 C 553 1142 558 1103 569 1062 C 579 1021 595 979 616 936 C 648 952 677 968 705 986 C 733 1003 757 1021 777 1041 C 797 1061 814 1082 826 1105 C 838 1127 844 1152 844 1180 C 844 1230 833 1268 813 1294 C 792 1320 755 1333 702 1333 C 648 1333 610 1320 587 1295 C 564 1269 553 1231 553 1180 Z" unicode="&#x26;" />
<glyph horiz-adv-x="625" d="M 188 1520 L 434 1520 L 420 866 L 205 866 L 188 1520 Z" unicode="'" />
<glyph horiz-adv-x="1022" d="M 651 -385 C 602 -344 552 -292 501 -229 C 450 -165 404 -91 362 -7 C 320 76 285 171 259 275 C 232 379 219 494 219 618 C 219 694 225 769 237 841 C 249 913 266 982 288 1048 C 309 1114 334 1176 362 1234 C 390 1292 421 1346 453 1396 C 485 1445 517 1489 551 1528 C 585 1567 618 1600 651 1628 L 823 1507 C 781 1465 739 1416 697 1360 C 654 1304 615 1239 581 1167 C 546 1094 518 1012 496 922 C 474 831 463 730 463 618 C 463 506 474 403 497 311 C 520 219 549 136 585 63 C 621 -10 660 -74 702 -128 C 744 -182 785 -228 823 -264 L 651 -385 L 651 -385 Z" unicode="(" />
<glyph horiz-adv-x="1022" d="M 201 -264 C 241 -222 283 -174 325 -119 C 367 -64 406 -1 440 71 C 474 143 502 224 524 314 C 546 404 557 506 557 618 C 557 730 545 832 522 925 C 499 1018 470 1102 435 1176 C 400 1250 362 1315 320 1370 C 278 1425 239 1471 201 1507 L 369 1628 C 401 1600 434 1568 468 1530 C 502 1492 536 1450 568 1403 C 600 1356 630 1304 659 1247 C 687 1190 712 1129 734 1063 C 755 997 772 927 784 853 C 796 779 803 700 803 618 C 803 541 796 467 784 395 C 772 323 755 254 734 189 C 712 123 687 62 659 4 C 630 -53 600 -106 568 -155 C 536 -203 502 -247 468 -286 C 434 -324 401 -357 369 -385 L 201 -264 Z" unicode=")" />
<glyph horiz-adv-x="1212" d="M 532 879 L 221 680 L 127 852 L 457 1016 L 127 1184 L 221 1354 L 532 1153 L 512 1520 L 698 1520 L 678 1151 L 991 1354 L 1085 1184 L 754 1016 L 1085 850 L 991 682 L 678 881 L 698 516 L 512 516 L 532 879 Z" unicode="*" />
<glyph horiz-adv-x="1452" d="M 606 608 L 205 608 L 205 836 L 606 836 L 606 1235 L 844 1235 L 844 836 L 1247 836 L 1247 608 L 844 608 L 844 207 L 606 207 L 606 608 Z" unicode="+" />
<glyph horiz-adv-x="545" d="M 127 -162 C 155 -147 179 -134 197 -123 C 215 -111 229 -100 239 -88 C 249 -76 256 -64 260 -50 C 264 -36 266 -20 266 0 L 127 0 L 127 307 L 416 307 L 416 84 C 416 30 413 -14 408 -51 C 402 -87 391 -119 375 -147 C 359 -175 336 -199 306 -221 C 276 -242 236 -264 188 -287 L 127 -162 Z" unicode="," />
<glyph horiz-adv-x="897" d="M 92 766 L 803 766 L 803 541 L 92 541 L 92 766 Z" unicode="-" />
<glyph horiz-adv-x="545" d="M 127 307 L 416 307 L 416 0 L 127 0 L 127 307 Z" unicode="." />
<glyph horiz-adv-x="1094" d="M 850 1518 L 1094 1518 L 244 0 L 0 0 L 850 1518 Z" unicode="/" />
<glyph horiz-adv-x="1538" d="M 770 -23 C 650 -23 549 -5 469 30 C 389 66 325 117 277 185 C 229 253 195 335 175 432 C 155 528 145 638 145 760 C 145 882 155 991 175 1088 C 195 1185 229 1267 277 1334 C 325 1401 389 1452 469 1488 C 549 1524 650 1542 770 1542 C 888 1542 987 1524 1067 1488 C 1147 1452 1211 1401 1259 1334 C 1307 1267 1342 1185 1362 1088 C 1382 991 1393 882 1393 760 C 1393 638 1382 528 1362 432 C 1342 335 1307 253 1259 185 C 1211 117 1147 66 1067 30 C 987 -5 888 -23 770 -23 Z M 770 197 C 848 197 911 210 961 237 C 1010 264 1048 302 1076 352 C 1103 401 1122 460 1132 529 C 1142 598 1147 675 1147 760 C 1147 845 1142 922 1132 990 C 1122 1058 1103 1116 1076 1164 C 1048 1212 1010 1248 961 1274 C 911 1300 848 1313 770 1313 C 691 1313 627 1300 578 1274 C 528 1248 490 1212 462 1164 C 434 1116 416 1058 406 990 C 396 922 391 845 391 760 C 391 675 396 598 406 529 C 416 460 434 401 462 352 C 490 302 528 264 578 237 C 627 210 691 197 770 197 Z" unicode="0" />
<glyph horiz-adv-x="807" d="M 344 1290 L 70 1290 L 70 1518 L 578 1518 L 578 0 L 344 0 L 344 1290 Z" unicode="1" />
<glyph horiz-adv-x="1264" d="M 72 199 L 575 664 C 631 716 679 761 719 800 C 759 839 791 876 816 910 C 841 944 859 977 871 1010 C 883 1042 889 1078 889 1118 C 889 1152 884 1182 874 1208 C 864 1234 848 1255 826 1272 C 803 1288 773 1301 736 1309 C 698 1317 652 1321 598 1321 C 558 1321 519 1318 480 1314 C 441 1309 404 1302 368 1294 C 332 1286 299 1276 268 1265 C 237 1253 210 1241 186 1229 L 80 1423 C 116 1442 152 1459 189 1474 C 226 1489 266 1502 309 1512 C 351 1522 398 1529 449 1534 C 500 1539 557 1542 621 1542 C 705 1542 778 1534 841 1519 C 904 1504 957 1480 999 1448 C 1041 1416 1072 1374 1094 1324 C 1115 1273 1126 1212 1126 1141 C 1126 1083 1119 1030 1106 983 C 1093 935 1073 889 1045 844 C 1017 799 980 753 936 706 C 892 659 838 607 776 549 L 406 209 L 1147 209 L 1147 0 L 72 0 L 72 199 Z" unicode="2" />
<glyph horiz-adv-x="1290" d="M 621 -25 C 559 -25 501 -22 449 -16 C 396 -10 346 0 298 12 C 250 24 204 40 160 60 C 116 79 71 102 27 129 L 145 319 C 185 297 223 277 261 261 C 298 244 335 230 373 219 C 411 208 449 200 487 194 C 525 188 566 186 608 186 C 666 186 716 190 758 198 C 800 206 834 221 861 242 C 888 262 908 290 921 325 C 933 359 940 403 940 455 C 940 499 935 538 925 570 C 915 602 896 628 869 649 C 842 670 805 686 759 696 C 712 706 652 711 580 711 L 342 711 L 342 924 L 575 924 C 635 924 686 927 728 934 C 769 941 802 953 827 970 C 852 986 870 1008 881 1035 C 891 1062 897 1095 897 1135 C 897 1171 891 1201 881 1226 C 871 1250 854 1270 831 1285 C 808 1300 778 1311 741 1317 C 703 1323 658 1327 604 1327 C 568 1327 532 1324 495 1319 C 458 1314 422 1307 386 1298 C 350 1289 315 1278 282 1265 C 249 1251 219 1237 193 1221 L 66 1405 C 102 1427 142 1447 186 1465 C 230 1482 276 1496 324 1508 C 372 1519 421 1527 472 1533 C 522 1539 573 1542 625 1542 C 708 1542 781 1535 844 1523 C 907 1511 960 1490 1002 1462 C 1044 1434 1076 1397 1098 1351 C 1119 1305 1130 1248 1130 1182 C 1130 1078 1115 999 1086 944 C 1057 889 1011 852 948 834 C 988 824 1023 809 1051 790 C 1079 770 1102 745 1120 713 C 1138 681 1151 642 1159 596 C 1167 550 1171 497 1171 436 C 1171 346 1158 271 1132 212 C 1106 152 1070 105 1022 70 C 974 35 917 10 849 -3 C 781 -17 705 -25 621 -25 Z" unicode="3" />
<glyph horiz-adv-x="1401" d="M 90 532 L 762 1518 L 1020 1518 L 352 547 L 856 547 L 905 1010 L 1075 1010 L 1075 547 L 1337 547 L 1337 342 L 1075 342 L 1075 0 L 854 0 L 854 342 L 90 342 L 90 532 Z" unicode="4" />
<glyph horiz-adv-x="1339" d="M 662 -23 C 596 -23 536 -18 482 -10 C 427 -2 376 9 330 23 C 284 37 241 53 203 72 C 164 90 128 110 94 131 L 215 322 C 245 304 277 288 309 272 C 341 256 375 241 411 228 C 447 215 485 205 525 197 C 565 189 608 186 655 186 C 705 186 752 189 796 197 C 840 205 879 219 912 241 C 944 263 970 293 989 333 C 1008 373 1018 425 1018 489 C 1018 552 1009 604 992 644 C 974 684 950 715 919 738 C 888 760 851 776 809 784 C 767 792 721 797 672 797 C 636 797 604 795 575 793 C 546 790 519 786 493 781 C 467 775 443 769 420 761 C 397 753 374 743 352 733 L 152 795 L 190 1518 L 1143 1518 L 1143 1303 L 406 1303 L 387 948 C 422 964 469 978 527 990 C 585 1002 653 1008 729 1008 C 801 1008 870 1001 934 988 C 998 975 1054 950 1102 913 C 1150 876 1187 824 1215 758 C 1243 691 1257 604 1257 498 C 1257 388 1242 300 1212 232 C 1182 164 1141 111 1088 73 C 1035 35 972 10 900 -3 C 827 -16 748 -23 662 -23 Z" unicode="5" />
<glyph horiz-adv-x="1452" d="M 764 -23 C 655 -23 561 -10 483 16 C 404 42 339 82 288 136 C 236 190 198 258 174 341 C 149 424 137 523 137 637 C 137 742 142 837 153 921 C 164 1005 183 1080 210 1146 C 236 1211 272 1267 316 1314 C 360 1361 416 1400 482 1430 C 548 1460 627 1482 718 1496 C 809 1510 914 1518 1034 1518 L 1137 1518 L 1137 1303 L 1028 1303 C 934 1303 854 1297 787 1287 C 719 1276 662 1261 616 1243 C 569 1224 531 1202 502 1176 C 472 1150 449 1121 432 1091 C 414 1060 402 1027 394 993 C 386 959 381 924 377 889 C 415 936 471 970 547 992 C 623 1013 720 1024 838 1024 C 935 1024 1016 1012 1081 989 C 1145 965 1197 932 1236 888 C 1275 844 1303 790 1319 727 C 1335 663 1343 592 1343 512 C 1343 428 1333 353 1313 287 C 1293 221 1261 165 1216 119 C 1170 73 1111 37 1037 13 C 963 -10 872 -23 764 -23 Z M 766 184 C 835 184 892 191 937 206 C 981 221 1016 243 1042 271 C 1068 299 1085 332 1095 372 C 1105 411 1110 455 1110 504 C 1110 552 1104 596 1094 636 C 1083 675 1064 708 1038 736 C 1012 764 976 785 932 800 C 888 815 832 823 766 823 C 706 823 653 817 606 805 C 559 793 519 775 486 751 C 452 727 427 696 409 660 C 391 624 383 581 383 532 C 383 467 391 412 408 368 C 424 324 449 288 482 261 C 514 233 554 214 602 202 C 650 190 704 184 766 184 Z" unicode="6" />
<glyph horiz-adv-x="1149" d="M 848 1303 L 35 1303 L 35 1518 L 1108 1518 L 1108 1331 L 526 0 L 276 0 L 848 1303 Z" unicode="7" />
<glyph horiz-adv-x="1468" d="M 733 -31 C 620 -31 525 -19 447 3 C 369 26 306 58 258 98 C 210 138 175 187 153 243 C 131 299 121 360 121 426 C 121 474 125 520 133 564 C 141 608 155 647 175 683 C 194 718 219 749 250 775 C 281 801 319 820 365 834 C 326 848 294 865 269 887 C 244 908 224 933 210 961 C 196 989 186 1019 180 1053 C 174 1086 172 1121 172 1159 C 172 1213 180 1263 197 1309 C 214 1355 244 1396 286 1431 C 328 1465 386 1492 458 1512 C 530 1532 622 1542 733 1542 C 845 1542 937 1532 1009 1512 C 1081 1492 1139 1464 1182 1430 C 1224 1396 1254 1355 1271 1309 C 1287 1262 1296 1212 1296 1159 C 1296 1121 1292 1086 1286 1052 C 1280 1018 1269 986 1254 958 C 1239 930 1219 905 1194 884 C 1169 862 1138 846 1102 834 C 1148 820 1187 800 1219 774 C 1251 748 1276 717 1296 682 C 1315 646 1329 607 1337 564 C 1345 520 1350 474 1350 426 C 1350 360 1339 299 1317 243 C 1295 187 1260 138 1211 98 C 1162 58 1098 26 1020 3 C 942 -19 846 -31 733 -31 Z M 733 174 C 799 174 856 179 904 191 C 951 203 990 220 1020 243 C 1050 266 1073 294 1087 328 C 1101 362 1108 400 1108 444 C 1108 488 1101 527 1087 561 C 1073 595 1050 623 1020 646 C 990 669 951 687 904 699 C 856 711 799 717 733 717 C 666 717 609 711 562 699 C 515 687 477 669 447 646 C 417 623 395 595 381 561 C 367 527 360 488 360 444 C 360 400 367 362 381 328 C 395 294 417 266 447 243 C 477 220 515 203 562 191 C 609 179 666 174 733 174 Z M 733 918 C 795 918 848 922 890 932 C 932 941 967 955 993 973 C 1019 991 1037 1013 1048 1039 C 1059 1065 1065 1096 1065 1130 C 1065 1163 1059 1193 1048 1219 C 1037 1245 1019 1266 993 1284 C 967 1302 932 1315 890 1325 C 848 1334 795 1339 733 1339 C 670 1339 618 1334 576 1325 C 534 1315 500 1302 474 1284 C 448 1266 430 1245 419 1219 C 408 1193 403 1163 403 1130 C 403 1096 408 1065 419 1039 C 430 1013 448 991 474 973 C 500 955 534 941 576 932 C 618 922 670 918 733 918 Z" unicode="8" />
<glyph horiz-adv-x="1452" d="M 326 209 L 436 209 C 530 209 610 214 678 225 C 745 235 802 250 849 269 C 896 288 934 311 963 337 C 992 363 1015 391 1032 422 C 1049 453 1061 486 1069 520 C 1077 554 1083 589 1087 625 C 1048 577 991 542 916 522 C 840 502 744 492 627 492 C 529 492 448 504 384 528 C 319 552 267 587 228 632 C 189 676 161 730 145 793 C 129 856 121 926 121 1004 C 121 1087 130 1162 150 1228 C 170 1294 202 1351 248 1398 C 293 1444 352 1480 426 1505 C 500 1529 591 1542 700 1542 C 808 1542 902 1529 981 1503 C 1060 1477 1125 1437 1176 1383 C 1227 1329 1265 1260 1290 1177 C 1314 1094 1327 996 1327 883 C 1327 777 1321 682 1310 598 C 1299 514 1280 439 1254 374 C 1227 308 1192 252 1148 205 C 1104 157 1048 118 982 88 C 915 58 836 35 746 21 C 655 7 550 0 430 0 L 326 0 L 326 209 Z M 696 686 C 754 686 807 691 855 703 C 903 715 943 733 977 757 C 1010 781 1036 811 1054 847 C 1072 883 1081 926 1081 975 C 1081 1039 1072 1094 1056 1139 C 1039 1183 1014 1219 982 1247 C 949 1275 909 1295 862 1307 C 814 1319 760 1325 700 1325 C 630 1325 572 1317 528 1302 C 483 1287 448 1266 422 1238 C 396 1210 378 1177 368 1138 C 358 1098 354 1054 354 1006 C 354 957 359 913 370 874 C 380 834 399 801 425 773 C 451 745 486 723 530 708 C 574 693 629 686 696 686 Z" unicode="9" />
<glyph horiz-adv-x="586" d="M 147 297 L 436 297 L 436 0 L 147 0 L 147 297 Z M 147 1147 L 436 1147 L 436 848 L 147 848 L 147 1147 Z" unicode=":" />
<glyph horiz-adv-x="586" d="M 147 -162 C 175 -147 199 -134 217 -123 C 235 -111 250 -100 260 -88 C 270 -76 277 -64 281 -50 C 285 -36 287 -20 287 0 L 147 0 L 147 297 L 436 297 L 436 84 C 436 34 433 -8 428 -44 C 422 -80 411 -113 395 -141 C 379 -169 356 -195 326 -218 C 296 -241 257 -264 209 -287 L 147 -162 Z M 147 1147 L 436 1147 L 436 848 L 147 848 L 147 1147 Z" unicode=";" />
<glyph horiz-adv-x="1452" d="M 221 621 L 221 797 L 1151 1260 L 1151 1034 L 467 709 L 1151 385 L 1151 154 L 221 621 Z" unicode="&#x3C;" />
<glyph horiz-adv-x="1452" d="M 217 598 L 1237 598 L 1237 373 L 217 373 L 217 598 Z M 217 1069 L 1237 1069 L 1237 846 L 217 846 L 217 1069 Z" unicode="=" />
<glyph horiz-adv-x="1452" d="M 301 385 L 985 707 L 301 1032 L 301 1260 L 1233 795 L 1233 618 L 301 154 L 301 385 Z" unicode="&#x3E;" />
<glyph horiz-adv-x="1399" d="M 541 424 C 532 492 529 551 532 599 C 534 647 545 688 563 724 C 581 760 607 791 642 819 C 677 846 722 873 778 901 C 822 923 859 943 889 960 C 918 976 941 993 958 1010 C 975 1026 987 1044 994 1064 C 1000 1084 1004 1108 1004 1137 C 1004 1165 1000 1190 994 1212 C 987 1234 973 1253 952 1269 C 930 1284 900 1296 860 1304 C 820 1312 768 1317 702 1317 C 618 1317 540 1307 466 1289 C 392 1270 324 1245 262 1214 L 162 1423 C 196 1441 235 1458 279 1473 C 323 1487 369 1500 417 1510 C 465 1520 515 1528 567 1534 C 618 1539 669 1542 719 1542 C 815 1542 896 1534 964 1519 C 1031 1504 1086 1481 1128 1450 C 1170 1418 1201 1378 1220 1330 C 1239 1281 1249 1223 1249 1157 C 1249 1103 1242 1056 1230 1017 C 1217 978 1199 944 1175 914 C 1151 884 1121 858 1086 835 C 1051 811 1011 788 967 766 C 919 742 881 721 854 702 C 826 683 806 662 793 638 C 779 614 772 586 770 553 C 768 519 770 476 774 424 L 541 424 Z M 512 272 L 801 272 L 801 0 L 512 0 L 512 272 Z" unicode="?" />
<glyph horiz-adv-x="2200" d="M 1124 -338 C 964 -338 825 -320 705 -284 C 585 -248 485 -192 405 -116 C 325 -40 264 57 224 175 C 184 293 164 434 164 598 C 164 764 185 907 228 1027 C 271 1146 333 1244 413 1321 C 493 1397 591 1454 707 1490 C 822 1526 952 1544 1098 1544 C 1245 1544 1377 1526 1494 1490 C 1610 1454 1709 1397 1790 1321 C 1871 1244 1933 1146 1976 1027 C 2018 907 2040 764 2040 598 C 2040 495 2034 409 2023 341 C 2011 273 1991 218 1963 177 C 1935 135 1897 106 1849 89 C 1801 71 1741 63 1669 63 C 1611 63 1565 67 1531 77 C 1496 86 1469 98 1449 113 C 1429 128 1416 145 1408 163 C 1400 181 1395 200 1393 219 C 1377 195 1357 175 1335 157 C 1313 139 1286 123 1255 111 C 1223 99 1187 89 1145 83 C 1103 77 1054 74 999 74 C 915 74 845 87 789 114 C 733 140 688 177 654 225 C 620 272 595 328 581 394 C 566 459 559 530 559 608 C 559 684 566 754 582 819 C 597 884 622 940 658 988 C 693 1035 739 1072 797 1099 C 854 1125 925 1139 1010 1139 C 1063 1139 1109 1136 1148 1131 C 1186 1125 1220 1117 1248 1107 C 1276 1096 1299 1082 1318 1065 C 1336 1048 1352 1028 1366 1006 L 1417 1126 L 1563 1114 L 1563 358 C 1563 336 1564 315 1567 295 C 1570 275 1577 258 1588 243 C 1598 228 1613 216 1633 208 C 1653 199 1680 195 1714 195 C 1755 195 1788 201 1813 215 C 1837 229 1856 251 1869 283 C 1882 314 1891 355 1895 407 C 1899 458 1901 522 1901 598 C 1901 740 1883 863 1849 965 C 1814 1067 1763 1150 1695 1216 C 1627 1282 1544 1330 1444 1361 C 1344 1391 1228 1407 1098 1407 C 972 1407 859 1391 761 1361 C 662 1330 579 1282 511 1216 C 443 1150 392 1067 356 965 C 320 863 303 740 303 598 C 303 458 320 338 355 238 C 390 137 442 54 511 -10 C 579 -75 665 -123 767 -154 C 869 -185 987 -201 1122 -201 C 1174 -201 1226 -198 1278 -192 C 1329 -186 1378 -179 1425 -169 C 1472 -159 1517 -147 1559 -133 C 1601 -119 1640 -103 1675 -86 L 1735 -207 C 1653 -247 1561 -278 1459 -302 C 1356 -326 1244 -338 1124 -338 Z M 1049 264 C 1100 264 1145 270 1183 283 C 1221 295 1252 315 1277 343 C 1301 370 1320 405 1332 449 C 1344 493 1350 546 1350 608 C 1350 668 1344 720 1333 762 C 1321 804 1303 837 1279 863 C 1255 889 1224 907 1186 919 C 1148 930 1102 936 1049 936 C 997 936 953 928 918 913 C 883 897 855 875 834 847 C 812 819 797 784 788 744 C 778 703 774 658 774 608 C 774 556 778 509 788 467 C 797 425 812 389 834 359 C 855 329 883 305 918 289 C 953 272 997 264 1049 264 Z" unicode="@" />
<glyph horiz-adv-x="1550" d="M 647 1528 L 901 1528 L 1511 0 L 1255 0 L 1143 291 L 399 291 L 287 0 L 39 0 L 647 1528 Z M 1055 520 L 770 1231 L 485 520 L 1055 520 Z" unicode="A" />
<glyph horiz-adv-x="1493" d="M 166 1518 L 846 1518 C 938 1518 1018 1510 1085 1495 C 1152 1480 1207 1457 1250 1426 C 1293 1395 1325 1356 1345 1308 C 1365 1260 1376 1203 1376 1137 C 1376 1048 1359 975 1325 918 C 1291 860 1236 819 1161 795 C 1249 772 1314 730 1354 670 C 1394 610 1415 526 1415 420 C 1415 339 1402 272 1378 218 C 1354 164 1317 121 1269 89 C 1221 57 1161 34 1089 20 C 1017 6 933 0 838 0 L 166 0 L 166 1518 Z M 864 219 C 916 219 961 223 999 231 C 1037 239 1068 253 1093 271 C 1117 289 1135 312 1147 340 C 1159 368 1165 402 1165 442 C 1165 480 1159 514 1147 542 C 1135 570 1117 592 1093 610 C 1069 628 1037 641 999 649 C 961 657 915 662 862 662 L 410 662 L 410 219 L 864 219 Z M 854 889 C 908 889 952 894 987 904 C 1021 914 1049 928 1069 947 C 1089 965 1104 987 1112 1013 C 1120 1039 1124 1068 1124 1100 C 1124 1132 1119 1160 1110 1184 C 1100 1208 1085 1229 1064 1245 C 1042 1261 1014 1274 980 1282 C 946 1290 904 1294 854 1294 L 410 1294 L 410 889 L 854 889 Z" unicode="B" />
<glyph horiz-adv-x="1516" d="M 844 -23 C 709 -23 593 -6 497 28 C 401 62 322 112 260 178 C 198 244 152 325 123 423 C 94 520 80 632 80 760 C 80 894 97 1011 132 1109 C 166 1207 217 1289 284 1353 C 350 1417 432 1464 528 1495 C 624 1526 734 1542 858 1542 C 980 1542 1087 1524 1179 1490 C 1271 1455 1351 1403 1421 1335 L 1241 1157 C 1191 1204 1135 1240 1073 1265 C 1011 1290 939 1303 856 1303 C 676 1303 544 1257 458 1165 C 372 1073 330 938 330 758 C 330 669 339 591 359 523 C 379 455 410 397 452 351 C 494 305 549 270 616 246 C 683 222 764 211 858 211 C 911 211 957 215 997 223 C 1036 231 1071 242 1102 256 C 1132 270 1160 286 1184 305 C 1208 323 1231 343 1255 365 L 1432 197 C 1404 168 1372 140 1337 114 C 1302 87 1261 63 1215 43 C 1168 23 1114 7 1054 -5 C 994 -17 924 -23 844 -23 Z" unicode="C" />
<glyph horiz-adv-x="1575" d="M 166 1518 L 684 1518 C 830 1518 955 1506 1058 1483 C 1161 1459 1245 1419 1310 1361 C 1375 1303 1422 1226 1452 1129 C 1482 1031 1497 908 1497 760 C 1497 614 1481 492 1449 395 C 1417 297 1368 219 1301 161 C 1234 102 1148 60 1044 36 C 939 12 814 0 668 0 L 166 0 L 166 1518 Z M 680 229 C 791 229 883 238 956 257 C 1029 276 1087 307 1130 349 C 1173 391 1203 445 1221 513 C 1238 580 1247 662 1247 760 C 1247 858 1239 940 1224 1007 C 1208 1073 1180 1127 1139 1168 C 1098 1208 1041 1237 969 1255 C 896 1273 802 1282 688 1282 L 414 1282 L 414 229 L 680 229 Z" unicode="D" />
<glyph horiz-adv-x="1358" d="M 166 1518 L 1237 1518 L 1237 1280 L 414 1280 L 414 899 L 1217 899 L 1217 664 L 414 664 L 414 233 L 1245 233 L 1245 0 L 166 0 L 166 1518 Z" unicode="E" />
<glyph horiz-adv-x="1282" d="M 166 1518 L 1206 1518 L 1206 1280 L 414 1280 L 414 872 L 1186 872 L 1186 637 L 414 637 L 414 0 L 166 0 L 166 1518 Z" unicode="F" />
<glyph horiz-adv-x="1614" d="M 842 -23 C 698 -23 578 -6 481 27 C 383 61 305 111 246 177 C 186 243 144 324 118 422 C 92 520 80 632 80 760 C 80 896 97 1014 131 1113 C 165 1211 215 1292 281 1356 C 347 1419 428 1466 524 1496 C 620 1526 731 1542 856 1542 C 930 1542 998 1536 1058 1526 C 1118 1515 1171 1500 1219 1482 C 1266 1463 1308 1441 1344 1417 C 1380 1393 1412 1367 1440 1339 L 1262 1157 C 1240 1177 1217 1195 1192 1213 C 1166 1231 1137 1246 1105 1260 C 1073 1273 1036 1283 995 1291 C 954 1299 907 1303 854 1303 C 763 1303 685 1291 619 1269 C 553 1246 498 1212 455 1167 C 412 1121 380 1064 359 996 C 338 928 328 848 328 758 C 328 664 336 582 354 512 C 371 442 400 383 441 337 C 481 291 535 256 602 233 C 669 210 752 199 852 199 C 939 199 1011 207 1068 223 C 1125 239 1170 264 1203 298 C 1236 331 1259 372 1272 422 C 1285 472 1292 530 1292 598 L 1292 637 L 823 637 L 823 860 L 1538 860 L 1538 645 C 1538 539 1527 444 1507 361 C 1487 278 1451 208 1399 151 C 1347 94 1276 51 1186 21 C 1096 -8 981 -23 842 -23 Z" unicode="G" />
<glyph horiz-adv-x="1630" d="M 166 1518 L 414 1518 L 414 907 L 1217 907 L 1217 1518 L 1464 1518 L 1464 0 L 1217 0 L 1217 662 L 414 662 L 414 0 L 166 0 L 166 1518 Z" unicode="H" />
<glyph horiz-adv-x="614" d="M 184 1518 L 430 1518 L 430 0 L 184 0 L 184 1518 Z" unicode="I" />
<glyph horiz-adv-x="874" d="M 242 -2 C 216 -2 195 -2 179 -2 C 162 -2 147 -2 134 -2 C 120 -2 107 -1 95 -1 C 83 -1 69 0 53 0 L 53 227 L 213 227 C 261 227 302 231 336 241 C 369 250 396 264 416 284 C 436 303 451 328 460 358 C 468 388 473 425 473 467 L 473 1518 L 719 1518 L 719 457 C 719 369 708 295 686 236 C 664 177 632 130 591 95 C 550 59 500 34 441 20 C 382 5 316 -2 242 -2 Z" unicode="J" />
<glyph horiz-adv-x="1499" d="M 668 733 L 410 440 L 410 0 L 166 0 L 166 1518 L 410 1518 L 410 760 L 1075 1518 L 1360 1518 L 831 918 L 1434 0 L 1151 0 L 668 733 Z" unicode="K" />
<glyph horiz-adv-x="1233" d="M 166 1518 L 414 1518 L 414 227 L 1190 227 L 1190 0 L 166 0 L 166 1518 Z" unicode="L" />
<glyph horiz-adv-x="1937" d="M 166 1518 L 489 1518 L 971 352 L 1452 1518 L 1772 1518 L 1772 0 L 1528 0 L 1528 1102 L 1069 0 L 864 0 L 406 1100 L 406 0 L 166 0 L 166 1518 Z" unicode="M" />
<glyph horiz-adv-x="1640" d="M 166 1518 L 434 1518 L 1233 422 L 1233 1518 L 1475 1518 L 1475 0 L 1247 0 L 408 1149 L 408 0 L 166 0 L 166 1518 Z" unicode="N" />
<glyph horiz-adv-x="1726" d="M 862 -25 C 740 -25 631 -10 535 19 C 438 48 356 94 289 158 C 221 221 170 302 134 401 C 98 500 80 620 80 760 C 80 899 98 1018 134 1117 C 170 1215 221 1296 289 1359 C 356 1422 438 1468 535 1498 C 631 1527 740 1542 862 1542 C 983 1542 1092 1527 1189 1498 C 1286 1468 1368 1422 1436 1359 C 1504 1296 1556 1215 1592 1117 C 1628 1018 1647 899 1647 760 C 1647 620 1628 500 1592 401 C 1556 302 1504 221 1436 158 C 1368 94 1286 48 1189 19 C 1092 -10 983 -25 862 -25 Z M 862 207 C 957 207 1038 219 1106 244 C 1174 268 1229 304 1272 351 C 1315 397 1347 455 1367 523 C 1387 591 1397 668 1397 756 C 1397 842 1387 919 1367 987 C 1347 1055 1315 1112 1272 1159 C 1229 1205 1174 1241 1106 1266 C 1038 1290 957 1303 862 1303 C 767 1303 686 1290 619 1266 C 551 1241 496 1205 454 1159 C 411 1112 380 1055 360 987 C 340 919 330 842 330 756 C 330 668 340 591 360 523 C 380 455 411 397 454 351 C 496 304 551 268 619 244 C 686 219 767 207 862 207 Z" unicode="O" />
<glyph horiz-adv-x="1501" d="M 166 1518 L 862 1518 C 964 1518 1051 1507 1122 1486 C 1193 1464 1251 1433 1295 1392 C 1339 1351 1371 1301 1391 1241 C 1411 1181 1421 1112 1421 1034 C 1421 956 1411 885 1392 821 C 1372 757 1340 703 1296 658 C 1251 613 1192 578 1120 554 C 1048 530 958 518 852 518 L 408 518 L 408 0 L 166 0 L 166 1518 Z M 862 743 C 914 743 959 748 998 758 C 1037 768 1070 784 1096 806 C 1122 828 1141 857 1154 893 C 1167 928 1174 971 1174 1022 C 1174 1074 1167 1117 1155 1151 C 1142 1185 1123 1213 1097 1234 C 1071 1255 1038 1270 998 1279 C 958 1287 912 1292 858 1292 L 408 1292 L 408 743 L 862 743 Z" unicode="P" />
<glyph horiz-adv-x="1726" d="M 1112 -391 C 1022 -391 949 -384 892 -370 C 835 -356 790 -333 758 -302 C 726 -271 704 -231 693 -181 C 682 -131 678 -71 682 0 C 586 12 500 35 425 70 C 350 105 287 153 236 215 C 185 277 146 352 120 442 C 93 532 80 638 80 760 C 80 899 97 1018 132 1117 C 167 1215 218 1296 285 1359 C 352 1422 434 1468 531 1498 C 627 1527 738 1542 862 1542 C 986 1542 1097 1527 1195 1498 C 1292 1468 1374 1422 1441 1359 C 1508 1296 1559 1215 1594 1117 C 1629 1018 1647 899 1647 760 C 1647 625 1630 510 1598 414 C 1565 318 1518 240 1456 179 C 1394 117 1317 72 1227 42 C 1137 12 1034 -4 920 -8 C 918 -42 919 -70 923 -92 C 927 -114 936 -131 950 -143 C 964 -155 985 -164 1011 -169 C 1037 -173 1070 -176 1112 -176 L 1288 -176 L 1288 -389 C 1280 -389 1270 -389 1257 -389 C 1244 -389 1229 -390 1213 -390 C 1197 -390 1180 -390 1162 -390 C 1144 -390 1128 -391 1112 -391 Z M 862 207 C 960 207 1042 219 1110 244 C 1178 268 1233 304 1276 351 C 1318 397 1349 455 1368 523 C 1387 591 1397 668 1397 756 C 1397 842 1387 919 1368 987 C 1349 1055 1318 1112 1276 1159 C 1233 1205 1178 1241 1110 1266 C 1042 1290 960 1303 862 1303 C 764 1303 681 1290 613 1266 C 545 1241 491 1205 449 1159 C 407 1112 376 1055 358 987 C 339 919 330 842 330 756 C 330 668 339 591 358 523 C 376 455 407 397 449 351 C 491 304 545 268 613 244 C 681 219 764 207 862 207 Z" unicode="Q" />
<glyph horiz-adv-x="1526" d="M 807 553 L 408 553 L 408 0 L 166 0 L 166 1518 L 860 1518 C 963 1518 1050 1507 1120 1485 C 1190 1463 1247 1432 1290 1391 C 1333 1350 1364 1300 1383 1242 C 1401 1184 1411 1118 1411 1044 C 1411 986 1405 931 1393 881 C 1381 831 1361 785 1333 745 C 1305 704 1269 669 1225 640 C 1180 610 1125 588 1061 573 L 1391 0 L 1124 0 L 807 553 Z M 854 780 C 904 780 948 784 986 792 C 1024 800 1056 813 1082 833 C 1108 852 1127 878 1141 911 C 1154 943 1161 984 1161 1034 C 1161 1084 1154 1126 1141 1160 C 1128 1193 1109 1219 1083 1239 C 1057 1258 1024 1272 986 1280 C 947 1288 902 1292 850 1292 L 408 1292 L 408 780 L 854 780 Z" unicode="R" />
<glyph horiz-adv-x="1479" d="M 739 -20 C 606 -20 483 -5 371 25 C 259 55 157 102 66 166 L 190 356 C 275 299 363 258 454 234 C 545 209 638 197 733 197 C 809 197 872 201 924 210 C 976 219 1017 233 1048 253 C 1079 272 1101 296 1115 326 C 1128 355 1135 390 1135 432 C 1135 472 1125 506 1107 532 C 1088 558 1061 579 1026 596 C 991 612 948 626 898 636 C 848 646 791 656 729 666 C 667 675 610 685 558 696 C 506 706 458 719 415 734 C 371 749 333 767 300 787 C 266 807 238 832 216 862 C 193 892 176 926 164 966 C 152 1006 147 1052 147 1106 C 147 1185 159 1252 183 1308 C 207 1363 244 1408 293 1443 C 342 1477 404 1502 478 1518 C 552 1534 638 1542 737 1542 C 805 1542 867 1538 924 1531 C 981 1523 1033 1513 1080 1500 C 1127 1487 1169 1472 1207 1455 C 1245 1437 1279 1419 1309 1399 L 1176 1196 C 1150 1212 1120 1228 1087 1242 C 1053 1256 1018 1269 980 1280 C 942 1290 902 1298 860 1304 C 818 1310 777 1313 735 1313 C 671 1313 618 1309 574 1301 C 530 1293 495 1281 468 1265 C 441 1249 422 1228 410 1203 C 398 1177 393 1147 393 1112 C 393 1073 401 1042 419 1018 C 436 994 462 974 496 958 C 530 942 571 929 621 919 C 670 909 727 899 791 889 C 849 879 903 870 955 860 C 1007 850 1054 837 1098 823 C 1142 809 1181 791 1216 771 C 1250 750 1280 725 1304 695 C 1328 665 1347 630 1360 589 C 1373 547 1380 499 1380 444 C 1380 368 1368 301 1344 243 C 1320 185 1283 136 1232 97 C 1180 58 1114 29 1033 9 C 952 -10 854 -20 739 -20 Z" unicode="S" />
<glyph horiz-adv-x="1427" d="M 590 1280 L 43 1280 L 43 1518 L 1386 1518 L 1386 1280 L 840 1280 L 840 0 L 590 0 L 590 1280 Z" unicode="T" />
<glyph horiz-adv-x="1632" d="M 815 -27 C 717 -27 632 -19 561 -3 C 490 12 430 33 382 61 C 333 88 294 120 264 158 C 234 196 212 236 196 280 C 180 324 169 370 164 418 C 158 466 156 515 156 565 L 156 1518 L 403 1518 L 403 598 C 403 538 408 483 419 435 C 430 387 451 345 481 311 C 511 277 553 250 607 232 C 661 214 731 205 817 205 C 903 205 974 214 1028 232 C 1082 250 1125 275 1156 309 C 1187 343 1208 384 1220 433 C 1231 481 1237 536 1237 598 L 1237 1518 L 1479 1518 L 1479 565 C 1479 515 1476 466 1470 418 C 1464 370 1453 324 1437 280 C 1421 236 1397 196 1367 158 C 1337 120 1297 88 1248 61 C 1199 33 1139 12 1068 -3 C 997 -19 913 -27 815 -27 Z" unicode="U" />
<glyph horiz-adv-x="1540" d="M 39 1518 L 299 1518 L 772 301 L 1241 1518 L 1501 1518 L 895 -10 L 641 -10 L 39 1518 Z" unicode="V" />
<glyph horiz-adv-x="2218" d="M 55 1518 L 313 1518 L 655 401 L 1006 1518 L 1227 1518 L 1579 401 L 1919 1518 L 2163 1518 L 1688 -10 L 1466 -10 L 1110 1116 L 756 -10 L 532 -10 L 55 1518 Z" unicode="W" />
<glyph horiz-adv-x="1526" d="M 754 610 L 344 0 L 68 0 L 623 797 L 121 1518 L 397 1518 L 770 983 L 1130 1518 L 1407 1518 L 901 797 L 1460 0 L 1180 0 L 754 610 Z" unicode="X" />
<glyph horiz-adv-x="1495" d="M 625 559 L 16 1518 L 285 1518 L 752 784 L 1221 1518 L 1477 1518 L 870 563 L 870 0 L 625 0 L 625 559 Z" unicode="Y" />
<glyph horiz-adv-x="1389" d="M 80 197 L 971 1280 L 115 1280 L 115 1518 L 1282 1518 L 1282 1303 L 397 227 L 1305 227 L 1305 0 L 80 0 L 80 197 Z" unicode="Z" />
<glyph horiz-adv-x="1001" d="M 238 1589 L 809 1589 L 809 1372 L 479 1372 L 479 -127 L 815 -127 L 815 -338 L 238 -338 L 238 1589 Z" unicode="[" />
<glyph horiz-adv-x="1094" d="M 0 1518 L 244 1518 L 1094 0 L 850 0 L 0 1518 Z" unicode="\" />
<glyph horiz-adv-x="1001" d="M 188 -127 L 520 -127 L 520 1372 L 188 1372 L 188 1589 L 762 1589 L 762 -338 L 188 -338 L 188 -127 Z" unicode="]" />
<glyph horiz-adv-x="1208" d="M 477 1526 L 729 1526 L 1044 1176 L 817 1176 L 600 1370 L 387 1176 L 162 1176 L 477 1526 Z" unicode="^" />
<glyph horiz-adv-x="928" d="M -76 -98 L 1004 -98 L 1004 -289 L -76 -289 L -76 -98 Z" unicode="_" />
<glyph horiz-adv-x="1208" d="M 201 1612 L 489 1612 L 788 1262 L 571 1262 L 201 1612 Z" unicode="`" />
<glyph horiz-adv-x="1296" d="M 487 -20 C 403 -20 334 -10 280 7 C 226 25 183 50 153 82 C 122 113 101 150 89 193 C 77 235 72 281 72 330 C 72 411 84 479 109 533 C 134 587 176 630 234 662 C 292 694 369 716 465 730 C 560 743 678 750 819 750 L 877 750 C 875 784 871 813 865 839 C 858 864 845 885 826 901 C 807 917 780 930 745 938 C 710 946 664 950 608 950 C 572 950 538 947 506 941 C 474 935 444 927 416 918 C 388 908 362 898 338 887 C 314 875 294 864 276 854 L 152 1040 C 171 1053 197 1067 229 1083 C 261 1099 299 1113 341 1127 C 383 1140 428 1151 478 1160 C 527 1169 579 1174 633 1174 C 733 1174 813 1165 875 1148 C 937 1130 985 1103 1019 1066 C 1053 1029 1076 982 1088 924 C 1100 866 1106 796 1106 715 L 1106 330 C 1106 304 1107 283 1109 267 C 1111 251 1115 238 1122 230 C 1129 221 1140 215 1154 213 C 1168 210 1188 209 1214 209 L 1214 2 C 1206 0 1194 -1 1178 -1 C 1162 -1 1141 -2 1116 -2 C 1086 -2 1061 0 1039 3 C 1017 6 998 12 982 21 C 966 29 952 41 941 57 C 930 73 921 93 913 117 C 897 95 876 75 852 58 C 828 41 798 27 764 15 C 729 3 689 -5 643 -11 C 597 -17 545 -20 487 -20 Z M 528 184 C 589 184 642 190 686 202 C 730 214 766 232 794 258 C 822 283 843 315 857 354 C 870 393 877 440 877 494 L 877 553 L 834 553 C 721 553 630 549 560 542 C 490 535 435 524 396 508 C 357 492 331 471 317 445 C 303 419 297 386 297 348 C 297 321 300 297 307 277 C 314 257 326 240 344 226 C 361 212 385 201 415 194 C 445 187 482 184 528 184 Z" unicode="a" />
<glyph horiz-adv-x="1360" d="M 770 -20 C 711 -20 659 -17 615 -12 C 570 -6 531 1 497 12 C 463 22 435 36 411 52 C 387 68 366 87 350 109 L 303 -10 L 141 8 L 141 1589 L 379 1589 L 379 1047 C 410 1089 458 1121 523 1142 C 588 1163 675 1174 784 1174 C 880 1174 960 1158 1024 1128 C 1087 1098 1137 1056 1174 1003 C 1211 949 1237 886 1252 813 C 1266 740 1274 661 1274 575 C 1274 489 1266 409 1251 337 C 1235 264 1208 201 1170 148 C 1132 95 1080 54 1015 24 C 950 -5 868 -20 770 -20 Z M 729 193 C 789 193 839 202 878 220 C 917 238 948 263 971 295 C 993 327 1009 366 1018 412 C 1027 458 1032 509 1032 565 C 1032 621 1027 673 1019 720 C 1010 766 994 806 972 840 C 950 873 919 899 880 917 C 840 935 790 944 729 944 C 665 944 611 937 567 923 C 523 909 487 886 459 856 C 431 826 411 787 399 739 C 387 691 381 633 381 565 C 381 497 386 440 398 393 C 410 345 429 307 456 277 C 483 247 519 226 564 213 C 608 199 663 193 729 193 Z" unicode="b" />
<glyph horiz-adv-x="1178" d="M 653 -20 C 540 -20 447 -5 374 24 C 301 53 243 94 201 147 C 158 199 128 262 111 335 C 94 407 86 487 86 575 C 86 661 94 741 111 815 C 127 888 157 951 201 1004 C 244 1057 303 1099 378 1129 C 452 1159 548 1174 664 1174 C 714 1174 761 1169 805 1161 C 848 1152 888 1140 924 1124 C 960 1108 992 1090 1022 1068 C 1052 1046 1078 1021 1102 995 L 928 831 C 915 844 901 857 885 871 C 869 884 850 896 829 906 C 808 916 784 925 757 932 C 730 938 699 942 664 942 C 598 942 543 933 499 916 C 455 899 421 874 395 842 C 369 810 351 771 341 725 C 331 679 326 627 326 569 C 326 511 331 458 341 412 C 351 366 368 326 394 294 C 419 262 453 237 497 219 C 541 201 596 193 664 193 C 693 193 720 195 745 200 C 769 204 793 211 815 221 C 837 230 858 242 878 256 C 898 270 918 287 940 307 L 1100 156 C 1069 127 1038 102 1008 80 C 977 58 944 39 909 25 C 874 10 836 0 794 -8 C 752 -16 705 -20 653 -20 Z" unicode="c" />
<glyph horiz-adv-x="1360" d="M 580 -20 C 483 -20 403 -4 339 25 C 275 55 225 97 188 151 C 150 204 124 267 109 341 C 93 414 86 494 86 580 C 86 664 93 743 109 815 C 124 887 151 950 189 1003 C 227 1055 279 1096 344 1126 C 408 1156 490 1171 588 1171 C 645 1171 695 1168 738 1162 C 781 1156 818 1148 849 1138 C 880 1128 906 1115 927 1100 C 948 1084 965 1067 979 1047 L 979 1589 L 1219 1589 L 1219 10 L 1036 -8 L 1010 115 C 992 92 971 72 946 56 C 921 39 891 25 857 14 C 823 2 783 -5 737 -11 C 691 -17 639 -20 580 -20 Z M 633 197 C 696 197 750 204 794 218 C 838 232 873 255 901 286 C 928 316 948 356 960 405 C 972 453 979 512 979 580 C 979 646 973 703 962 750 C 950 796 931 834 904 863 C 877 892 841 913 797 926 C 753 939 698 946 633 946 C 571 946 521 937 481 920 C 441 902 410 878 388 846 C 365 814 349 776 341 731 C 332 686 328 636 328 580 C 328 522 332 470 341 423 C 349 376 365 336 388 303 C 410 269 441 243 481 225 C 521 206 571 197 633 197 Z" unicode="d" />
<glyph horiz-adv-x="1241" d="M 659 -23 C 579 -23 509 -15 450 -1 C 390 12 339 33 297 59 C 255 85 220 116 193 152 C 165 188 144 229 128 273 C 112 317 101 365 95 416 C 89 467 86 520 86 575 C 86 629 89 681 95 732 C 101 783 113 831 129 875 C 145 919 167 960 195 997 C 223 1033 258 1065 300 1091 C 342 1117 392 1138 450 1152 C 508 1166 577 1174 655 1174 C 735 1174 804 1165 860 1147 C 916 1129 962 1105 999 1073 C 1036 1041 1065 1004 1085 960 C 1105 916 1120 869 1130 817 C 1140 765 1145 711 1147 653 C 1148 595 1148 535 1147 475 L 317 475 C 321 429 329 389 341 353 C 353 317 371 286 397 261 C 423 235 457 216 499 202 C 541 188 595 182 659 182 C 705 182 745 184 780 190 C 815 196 847 203 875 213 C 903 223 928 234 952 248 C 975 262 998 277 1020 293 L 1147 127 C 1114 101 1080 79 1046 61 C 1012 42 975 26 936 14 C 897 2 855 -7 809 -13 C 763 -19 713 -23 659 -23 Z M 649 963 C 589 963 539 956 499 943 C 459 929 426 910 401 886 C 375 861 356 831 343 797 C 330 763 321 724 317 682 L 922 682 C 919 722 915 760 909 795 C 903 829 892 859 874 884 C 856 908 829 928 794 942 C 758 956 710 963 649 963 Z" unicode="e" />
<glyph horiz-adv-x="848" d="M 57 1147 L 274 1147 L 274 1231 C 274 1291 279 1344 291 1392 C 303 1439 323 1479 353 1513 C 382 1546 421 1571 471 1589 C 520 1607 583 1616 659 1616 C 686 1616 713 1616 740 1616 C 766 1616 786 1615 799 1614 L 799 1407 L 690 1407 C 654 1407 624 1402 601 1394 C 577 1386 559 1374 545 1359 C 531 1343 522 1325 517 1303 C 512 1281 510 1257 510 1231 L 510 1147 L 799 1147 L 799 930 L 510 930 L 510 0 L 274 0 L 274 930 L 57 930 L 57 1147 Z" unicode="f" />
<glyph horiz-adv-x="1278" d="M 616 418 C 548 418 488 422 438 430 C 432 422 427 413 423 403 C 419 393 418 383 418 373 C 418 357 421 344 427 334 C 433 324 445 316 461 311 C 477 305 498 302 526 300 C 554 298 589 297 633 297 C 743 297 835 292 909 282 C 982 272 1040 256 1084 233 C 1128 209 1159 178 1177 139 C 1195 99 1204 50 1204 -10 C 1204 -73 1192 -127 1170 -173 C 1148 -218 1113 -255 1065 -284 C 1017 -312 955 -333 880 -347 C 805 -360 715 -367 610 -367 C 510 -367 424 -363 353 -355 C 282 -347 224 -332 179 -311 C 134 -290 101 -261 80 -225 C 59 -188 49 -141 49 -84 C 49 -52 53 -21 61 6 C 69 34 83 60 101 83 C 119 105 142 125 172 142 C 201 158 237 171 279 180 C 251 197 232 219 222 246 C 212 272 207 302 207 334 C 207 362 211 390 219 418 C 227 446 238 471 254 494 C 161 554 115 651 115 786 C 115 848 124 904 143 952 C 162 1000 192 1040 232 1073 C 272 1105 324 1130 388 1146 C 451 1162 527 1171 616 1171 L 645 1171 L 1157 1253 L 1157 1057 L 979 1057 C 1024 1032 1059 998 1083 956 C 1107 914 1120 857 1120 786 C 1120 722 1110 667 1090 621 C 1070 575 1040 537 999 507 C 958 477 906 454 843 440 C 779 425 704 418 616 418 Z M 616 602 C 666 602 708 605 742 613 C 776 620 803 631 825 646 C 846 661 861 680 871 703 C 880 726 885 754 885 786 C 885 850 863 897 821 927 C 778 956 710 971 616 971 C 566 971 524 967 490 960 C 456 952 428 941 407 926 C 385 911 370 892 360 869 C 350 845 346 818 346 786 C 346 754 350 726 360 703 C 370 680 385 661 407 646 C 428 631 456 620 490 613 C 524 605 566 602 616 602 Z M 618 -182 C 688 -182 745 -178 790 -172 C 834 -165 869 -155 895 -141 C 921 -127 938 -111 948 -91 C 958 -71 963 -49 963 -23 C 963 3 957 24 946 41 C 934 57 915 70 888 80 C 861 89 826 95 782 99 C 738 102 683 104 618 104 C 544 104 486 100 443 93 C 399 85 366 75 344 62 C 321 49 306 34 299 16 C 292 -2 289 -21 289 -43 C 289 -69 294 -90 306 -108 C 317 -126 335 -140 361 -151 C 387 -162 421 -170 463 -175 C 505 -179 556 -182 618 -182 Z" unicode="g" />
<glyph horiz-adv-x="1315" d="M 141 1589 L 379 1589 L 379 1059 C 390 1073 405 1088 425 1102 C 445 1116 470 1128 501 1139 C 532 1149 569 1158 613 1164 C 657 1170 708 1174 768 1174 C 856 1174 928 1162 982 1139 C 1036 1116 1078 1084 1107 1042 C 1136 1000 1155 949 1165 891 C 1175 832 1180 767 1180 696 L 1180 0 L 942 0 L 942 649 C 942 691 940 729 936 764 C 932 799 921 829 904 855 C 887 881 862 901 828 915 C 794 929 747 936 688 936 C 622 936 569 928 529 913 C 489 898 458 877 436 850 C 414 822 399 790 392 752 C 384 714 381 673 381 629 L 381 0 L 141 0 L 141 1589 Z" unicode="h" />
<glyph horiz-adv-x="543" d="M 154 1147 L 389 1147 L 389 0 L 154 0 L 154 1147 Z M 152 1534 L 391 1534 L 391 1272 L 152 1272 L 152 1534 Z" unicode="i" />
<glyph horiz-adv-x="543" d="M 4 -152 L 25 -152 C 53 -151 75 -148 92 -143 C 109 -138 122 -130 131 -118 C 140 -106 146 -89 149 -69 C 152 -48 154 -22 154 10 L 154 1147 L 389 1147 L 389 12 C 389 -57 384 -115 374 -161 C 364 -207 347 -243 322 -270 C 296 -297 262 -316 218 -327 C 174 -338 117 -344 49 -344 L 4 -344 L 4 -152 Z M 152 1534 L 391 1534 L 391 1272 L 152 1272 L 152 1534 Z" unicode="j" />
<glyph horiz-adv-x="1174" d="M 141 1589 L 377 1589 L 377 596 L 844 1147 L 1108 1147 L 709 672 L 1147 0 L 883 0 L 551 498 L 377 299 L 377 0 L 141 0 L 141 1589 Z" unicode="k" />
<glyph horiz-adv-x="649" d="M 428 -2 C 379 -2 337 3 303 14 C 268 24 240 42 218 67 C 196 92 179 125 169 165 C 159 205 154 255 154 315 L 154 1589 L 389 1589 L 389 344 C 389 318 390 297 393 281 C 396 264 402 250 411 240 C 419 229 432 221 448 217 C 464 213 485 211 512 211 L 555 211 L 555 2 C 545 0 528 0 505 -1 C 481 -1 456 -2 428 -2 Z" unicode="l" />
<glyph horiz-adv-x="2068" d="M 141 1133 L 328 1147 L 348 1047 C 360 1064 376 1080 397 1096 C 418 1111 445 1124 478 1136 C 510 1148 549 1157 595 1164 C 641 1170 694 1174 756 1174 C 814 1174 862 1170 902 1163 C 942 1156 975 1147 1002 1135 C 1028 1123 1049 1108 1065 1092 C 1080 1075 1092 1057 1100 1038 C 1114 1057 1132 1075 1156 1092 C 1179 1108 1208 1123 1243 1135 C 1278 1147 1319 1156 1367 1163 C 1415 1170 1470 1174 1534 1174 C 1622 1174 1693 1162 1746 1139 C 1799 1116 1840 1084 1868 1042 C 1896 1000 1914 949 1922 891 C 1930 832 1935 767 1935 696 L 1935 0 L 1696 0 L 1696 649 C 1696 691 1694 729 1691 764 C 1688 799 1679 829 1664 855 C 1648 881 1624 901 1592 915 C 1559 929 1513 936 1454 936 C 1388 936 1336 928 1297 913 C 1257 898 1227 877 1207 850 C 1186 822 1172 790 1166 752 C 1160 714 1157 673 1157 629 L 1157 0 L 920 0 L 920 649 C 920 691 918 729 915 764 C 911 799 902 829 886 855 C 870 881 846 901 814 915 C 781 929 735 936 676 936 C 610 936 558 928 519 913 C 480 898 450 877 430 850 C 409 822 396 790 390 752 C 384 714 381 673 381 629 L 381 0 L 141 0 L 141 1133 Z" unicode="m" />
<glyph horiz-adv-x="1315" d="M 141 1133 L 328 1147 L 348 1047 C 362 1063 379 1079 401 1095 C 423 1110 450 1123 483 1135 C 516 1147 556 1156 603 1163 C 649 1170 704 1174 768 1174 C 856 1174 928 1162 982 1139 C 1036 1116 1078 1084 1107 1042 C 1136 1000 1155 949 1165 891 C 1175 832 1180 767 1180 696 L 1180 0 L 942 0 L 942 649 C 942 691 940 729 936 764 C 932 799 921 829 904 855 C 887 881 862 901 828 915 C 794 929 747 936 688 936 C 622 936 569 928 529 913 C 489 898 458 877 436 850 C 414 822 399 790 392 752 C 384 714 381 673 381 629 L 381 0 L 141 0 L 141 1133 Z" unicode="n" />
<glyph horiz-adv-x="1323" d="M 662 -23 C 558 -23 470 -10 397 15 C 324 41 265 79 219 130 C 173 180 139 243 118 317 C 96 391 86 477 86 575 C 86 672 96 758 118 833 C 139 907 173 970 219 1020 C 265 1070 324 1109 397 1135 C 470 1161 558 1174 662 1174 C 765 1174 853 1161 926 1135 C 998 1109 1058 1070 1104 1020 C 1150 970 1183 907 1205 833 C 1226 758 1237 672 1237 575 C 1237 477 1226 391 1205 317 C 1183 243 1150 180 1104 130 C 1058 79 998 41 926 15 C 853 -10 765 -23 662 -23 Z M 662 193 C 724 193 777 201 820 218 C 862 235 897 260 923 292 C 949 324 968 363 980 410 C 991 456 997 509 997 569 C 997 628 991 681 980 728 C 968 774 949 814 923 846 C 897 878 862 902 820 919 C 777 935 724 944 662 944 C 598 944 545 935 502 919 C 459 902 425 878 399 846 C 373 814 354 774 343 728 C 331 681 326 628 326 569 C 326 509 331 456 343 410 C 354 363 373 324 399 292 C 425 260 459 235 502 218 C 545 201 598 193 662 193 Z" unicode="o" />
<glyph horiz-adv-x="1360" d="M 141 1133 L 328 1147 L 348 1036 C 363 1057 382 1076 406 1093 C 430 1110 459 1125 494 1137 C 529 1149 570 1158 618 1164 C 665 1170 720 1174 784 1174 C 880 1174 960 1159 1024 1129 C 1087 1099 1137 1057 1174 1004 C 1211 950 1237 887 1252 814 C 1266 740 1274 661 1274 575 C 1274 489 1266 410 1251 338 C 1235 265 1209 202 1171 150 C 1133 97 1081 56 1017 26 C 952 -3 870 -18 772 -18 C 715 -18 665 -15 623 -10 C 580 -4 543 3 512 13 C 480 23 454 36 433 52 C 412 68 395 86 381 106 L 381 -338 L 141 -338 L 141 1133 Z M 729 197 C 789 197 839 205 878 223 C 917 240 948 265 971 297 C 993 329 1009 368 1018 414 C 1027 460 1032 511 1032 567 C 1032 623 1027 675 1019 721 C 1010 767 994 807 972 840 C 950 873 919 899 880 917 C 840 935 790 944 729 944 C 665 944 611 937 567 923 C 523 909 487 888 459 858 C 431 828 411 789 399 741 C 387 693 381 635 381 567 C 381 499 386 442 398 395 C 410 348 429 310 456 281 C 483 251 519 230 564 217 C 608 203 663 197 729 197 Z" unicode="p" />
<glyph horiz-adv-x="1360" d="M 979 98 C 960 76 939 57 915 42 C 891 27 864 15 832 6 C 800 -3 764 -10 723 -14 C 681 -18 634 -20 580 -20 C 483 -20 403 -5 339 25 C 275 55 225 96 188 149 C 150 202 124 265 109 339 C 93 412 86 492 86 578 C 86 663 93 742 109 815 C 124 888 151 951 189 1004 C 227 1057 279 1099 344 1129 C 408 1159 490 1174 588 1174 C 647 1174 699 1171 744 1166 C 789 1160 828 1152 862 1142 C 896 1131 924 1118 948 1102 C 972 1086 992 1067 1010 1047 L 1057 1157 L 1219 1143 L 1219 -338 L 979 -338 L 979 98 Z M 633 197 C 696 197 750 204 794 218 C 838 232 873 255 901 286 C 928 316 948 356 960 404 C 972 452 979 510 979 578 C 979 645 973 702 962 749 C 950 796 931 834 904 863 C 877 892 841 913 797 926 C 753 939 698 946 633 946 C 571 946 521 937 481 920 C 441 902 410 878 388 846 C 365 814 349 775 341 730 C 332 684 328 634 328 578 C 328 521 332 469 341 423 C 349 376 365 336 388 302 C 410 268 441 242 481 224 C 521 206 571 197 633 197 Z" unicode="q" />
<glyph horiz-adv-x="780" d="M 141 1133 L 328 1147 L 352 1016 C 364 1035 381 1053 404 1070 C 427 1087 455 1102 487 1115 C 519 1127 556 1137 598 1145 C 639 1153 684 1157 733 1159 L 733 920 C 664 919 607 911 562 895 C 517 879 481 857 454 828 C 427 799 408 764 397 724 C 386 684 381 639 381 590 L 381 0 L 141 0 L 141 1133 Z" unicode="r" />
<glyph horiz-adv-x="1122" d="M 553 -20 C 509 -20 465 -17 421 -13 C 377 -8 333 0 290 10 C 246 20 204 35 162 53 C 120 71 79 93 41 119 L 164 303 C 196 282 229 264 263 250 C 297 235 331 223 366 213 C 400 203 435 196 469 192 C 503 188 535 186 567 186 C 613 186 652 188 684 192 C 716 196 743 203 763 214 C 783 224 798 239 807 257 C 816 275 821 299 821 328 C 821 351 816 370 808 385 C 799 400 785 413 765 423 C 745 433 720 441 688 448 C 656 455 616 463 569 471 C 500 481 437 493 380 507 C 323 520 274 539 233 565 C 192 590 160 624 138 666 C 115 708 104 764 104 834 C 104 888 112 936 129 978 C 145 1020 172 1056 209 1085 C 245 1114 293 1136 352 1151 C 411 1166 483 1174 569 1174 C 659 1174 742 1165 819 1147 C 896 1129 963 1104 1020 1071 L 907 874 C 865 897 815 916 757 930 C 699 944 639 952 575 952 C 527 952 488 949 458 944 C 428 938 404 931 387 921 C 369 911 357 898 350 884 C 343 869 340 852 340 834 C 340 810 344 791 352 776 C 360 761 373 748 392 738 C 410 727 435 718 465 711 C 495 704 531 697 575 690 C 646 678 711 665 770 653 C 828 640 879 622 921 598 C 963 574 995 541 1018 501 C 1041 460 1053 406 1053 340 C 1053 274 1043 219 1025 173 C 1006 127 976 90 936 62 C 896 33 844 12 781 0 C 717 -13 641 -20 553 -20 Z" unicode="s" />
<glyph horiz-adv-x="879" d="M 57 1147 L 262 1147 L 305 1454 L 492 1493 L 492 1147 L 784 1147 L 784 930 L 492 930 L 492 365 C 492 341 493 319 496 300 C 498 280 505 264 516 251 C 526 238 542 228 564 221 C 585 214 614 211 651 211 L 784 211 L 784 0 C 776 0 764 -1 748 -1 C 732 -1 715 -2 697 -2 C 679 -2 662 -2 646 -2 C 629 -2 616 -2 606 -2 C 534 -2 476 4 431 17 C 385 30 349 50 323 77 C 297 104 279 139 269 181 C 259 223 254 272 254 330 L 254 930 L 57 930 L 57 1147 Z" unicode="t" />
<glyph horiz-adv-x="1300" d="M 653 -20 C 543 -20 454 -9 386 12 C 318 34 266 66 229 110 C 191 154 166 209 154 275 C 141 341 135 418 135 508 L 135 1147 L 373 1147 L 373 502 C 373 458 374 418 377 382 C 380 345 390 313 408 286 C 426 258 454 237 492 222 C 530 206 583 199 653 199 C 699 199 738 202 770 209 C 802 216 828 226 849 239 C 869 252 885 268 897 286 C 908 304 916 325 921 348 C 926 370 929 395 930 422 C 931 448 932 476 932 506 L 932 1147 L 1165 1147 L 1165 512 C 1165 422 1159 344 1147 278 C 1135 211 1110 156 1074 112 C 1038 68 986 35 919 13 C 851 -9 763 -20 653 -20 Z" unicode="u" />
<glyph horiz-adv-x="1184" d="M 8 1147 L 262 1147 L 594 274 L 928 1147 L 1176 1147 L 721 -10 L 463 -10 L 8 1147 Z" unicode="v" />
<glyph horiz-adv-x="1839" d="M 23 1147 L 272 1147 L 543 334 L 805 1147 L 1040 1147 L 1303 336 L 1573 1147 L 1817 1147 L 1423 -10 L 1182 -10 L 920 786 L 657 -10 L 416 -10 L 23 1147 Z" unicode="w" />
<glyph horiz-adv-x="1167" d="M 573 424 L 285 0 L 25 0 L 449 600 L 63 1147 L 328 1147 L 592 772 L 848 1147 L 1106 1147 L 717 596 L 1141 0 L 874 0 L 573 424 Z" unicode="x" />
<glyph horiz-adv-x="1141" d="M 264 -344 C 258 -344 251 -344 242 -344 C 232 -344 222 -344 212 -344 C 202 -344 192 -343 182 -343 C 172 -343 164 -342 158 -342 L 158 -152 L 244 -152 C 272 -152 297 -150 317 -148 C 337 -145 353 -140 367 -133 C 380 -125 391 -116 400 -104 C 408 -92 416 -76 422 -57 L 449 16 L 8 1147 L 262 1147 L 578 303 L 885 1147 L 1135 1147 L 657 -82 C 639 -129 620 -169 598 -202 C 576 -235 550 -262 520 -283 C 489 -304 453 -319 411 -329 C 369 -339 320 -344 264 -344 Z" unicode="y" />
<glyph horiz-adv-x="1067" d="M 55 172 L 680 930 L 88 930 L 88 1147 L 995 1147 L 995 971 L 367 203 L 1018 203 L 1018 0 L 55 0 L 55 172 Z" unicode="z" />
<glyph horiz-adv-x="1077" d="M 682 -338 C 614 -338 557 -332 510 -320 C 462 -308 424 -291 394 -268 C 364 -245 342 -216 328 -181 C 314 -146 307 -105 307 -59 C 307 -37 309 -13 315 14 C 320 42 327 71 335 101 C 343 131 351 161 361 192 C 371 222 380 252 388 280 C 396 308 402 335 408 359 C 413 383 416 403 416 420 C 416 442 411 459 402 473 C 393 486 378 496 358 504 C 337 511 310 516 277 518 C 243 520 202 522 154 522 L 154 727 C 200 727 240 728 273 730 C 306 732 333 736 354 743 C 375 750 391 761 401 775 C 411 789 416 807 416 831 C 416 847 413 868 408 892 C 402 916 396 942 388 970 C 380 998 371 1028 361 1059 C 351 1090 343 1121 335 1151 C 327 1181 320 1209 315 1237 C 309 1265 307 1289 307 1311 C 307 1357 314 1398 328 1433 C 342 1467 364 1496 394 1519 C 424 1542 462 1559 510 1571 C 557 1583 614 1589 682 1589 L 891 1589 L 891 1372 L 735 1372 C 699 1372 669 1369 646 1365 C 622 1360 604 1352 590 1342 C 576 1332 567 1318 561 1302 C 555 1286 553 1266 553 1243 C 553 1229 555 1212 560 1190 C 565 1168 571 1143 579 1117 C 586 1090 594 1062 603 1032 C 611 1002 619 972 627 943 C 634 913 640 885 645 859 C 650 832 653 808 653 788 C 653 750 643 717 624 689 C 604 661 572 640 526 627 C 573 612 606 590 625 562 C 643 534 653 501 653 463 C 653 442 650 418 645 391 C 640 364 634 336 627 307 C 619 277 611 247 603 217 C 594 187 586 158 579 131 C 571 103 565 78 560 56 C 555 33 553 15 553 2 C 553 -21 555 -41 561 -57 C 567 -73 576 -87 590 -97 C 604 -107 622 -115 646 -120 C 669 -124 699 -127 735 -127 L 891 -127 L 891 -338 L 682 -338 L 682 -338 Z" unicode="{" />
<glyph horiz-adv-x="719" d="M 238 1589 L 479 1589 L 479 -338 L 238 -338 L 238 1589 Z" unicode="|" />
<glyph horiz-adv-x="1077" d="M 186 -127 L 344 -127 C 380 -127 409 -124 433 -120 C 456 -115 474 -107 488 -97 C 502 -87 511 -73 517 -57 C 523 -41 526 -21 526 2 C 526 15 523 33 518 56 C 513 78 507 103 499 131 C 491 158 483 187 475 217 C 466 247 458 277 450 307 C 442 336 436 364 431 391 C 426 418 424 442 424 463 C 424 501 433 534 453 562 C 472 590 505 612 551 627 C 505 640 472 661 453 689 C 433 717 424 750 424 788 C 424 808 426 832 431 859 C 436 885 442 913 450 943 C 458 972 466 1002 475 1032 C 483 1062 491 1090 499 1117 C 507 1143 513 1168 518 1190 C 523 1212 526 1229 526 1243 C 526 1266 523 1286 517 1302 C 511 1318 502 1332 488 1342 C 474 1352 456 1360 433 1365 C 409 1369 380 1372 344 1372 L 186 1372 L 186 1589 L 395 1589 C 463 1589 520 1583 568 1571 C 615 1559 654 1542 684 1519 C 714 1496 735 1467 749 1433 C 763 1398 770 1357 770 1311 C 770 1289 767 1265 762 1237 C 756 1209 750 1181 742 1151 C 734 1121 725 1090 716 1059 C 706 1028 698 998 690 970 C 682 942 675 916 670 892 C 664 868 662 847 662 831 C 662 809 666 791 675 778 C 684 764 699 754 720 747 C 740 739 767 734 801 732 C 834 730 875 729 924 729 L 924 524 C 877 524 837 523 804 521 C 770 519 743 514 722 507 C 701 500 686 490 676 476 C 666 462 662 443 662 420 C 662 403 664 383 670 359 C 675 335 682 308 690 280 C 698 252 706 222 716 192 C 725 161 734 131 742 101 C 750 71 756 42 762 14 C 767 -13 770 -37 770 -59 C 770 -105 763 -146 749 -181 C 735 -216 714 -245 684 -268 C 654 -291 615 -308 568 -320 C 520 -332 463 -338 395 -338 L 186 -338 L 186 -127 Z" unicode="}" />
<glyph horiz-adv-x="1208" d="M 162 922 C 184 949 207 974 231 997 C 255 1020 279 1040 305 1056 C 330 1072 355 1085 381 1094 C 407 1103 433 1108 459 1108 C 494 1108 524 1102 549 1091 C 573 1080 596 1068 616 1055 C 636 1042 656 1030 676 1020 C 695 1009 717 1004 743 1004 C 768 1004 794 1014 821 1034 C 848 1054 877 1082 907 1118 L 1047 1006 C 1024 978 1000 951 976 927 C 952 903 927 882 902 864 C 876 846 851 832 825 822 C 799 812 773 807 748 807 C 714 807 685 812 661 823 C 637 833 614 845 593 858 C 571 871 550 883 530 894 C 510 905 487 911 463 911 C 439 911 414 902 387 886 C 360 869 333 843 305 807 L 162 922 Z" unicode="~" />
<glyph horiz-adv-x="461" d="" unicode="" />
<glyph horiz-adv-x="778" d="M 283 1067 L 496 1067 L 520 0 L 258 0 L 283 1067 Z M 246 1518 L 535 1518 L 535 1217 L 246 1217 L 246 1518 Z" unicode="" />
<glyph horiz-adv-x="1176" d="M 537 -8 C 449 2 376 23 318 55 C 260 87 215 129 181 180 C 147 230 123 289 110 356 C 96 423 90 496 90 575 C 90 651 96 723 109 790 C 122 856 145 915 179 966 C 213 1017 258 1059 316 1093 C 374 1126 447 1148 537 1159 L 537 1294 L 764 1294 L 764 1161 C 838 1151 902 1132 956 1103 C 1010 1074 1056 1038 1094 995 L 924 836 C 910 849 896 862 881 875 C 865 888 847 900 827 911 C 807 921 783 930 757 936 C 730 942 699 946 664 946 C 598 946 543 937 499 920 C 455 902 420 877 394 845 C 368 812 349 772 338 726 C 327 680 322 627 322 569 C 322 511 327 458 338 412 C 348 365 367 325 393 292 C 419 258 454 233 498 215 C 542 197 597 188 664 188 C 694 188 721 190 745 195 C 769 199 792 206 814 216 C 836 225 856 237 876 252 C 896 266 916 283 938 303 L 1094 156 C 1069 133 1044 113 1020 95 C 996 77 970 61 944 47 C 918 33 890 21 861 12 C 831 3 799 -3 764 -8 L 764 -193 L 537 -193 L 537 -8 Z" unicode="" />
<glyph horiz-adv-x="1315" d="M 862 -16 C 824 -16 787 -13 751 -7 C 715 -1 679 6 645 16 C 610 26 577 37 545 51 C 513 64 484 78 457 94 C 419 63 368 40 306 24 C 244 8 166 0 72 0 L 72 205 C 138 205 191 209 229 217 C 267 225 295 237 314 254 C 333 270 345 292 349 318 C 353 344 356 375 356 412 C 356 448 350 489 340 535 C 330 581 318 630 305 682 L 61 682 L 61 877 L 252 877 C 240 922 231 966 223 1010 C 215 1054 211 1095 211 1133 C 211 1193 219 1249 235 1299 C 251 1349 277 1393 315 1429 C 353 1465 403 1494 465 1514 C 527 1534 605 1544 698 1544 C 740 1544 781 1542 819 1539 C 857 1535 893 1530 928 1524 C 963 1517 997 1509 1030 1499 C 1063 1489 1096 1477 1128 1464 L 1036 1255 C 1010 1266 983 1276 955 1284 C 927 1292 898 1298 868 1304 C 838 1309 809 1313 779 1315 C 749 1317 720 1319 692 1319 C 643 1319 603 1313 571 1303 C 539 1293 514 1278 496 1259 C 477 1240 464 1217 457 1190 C 449 1163 446 1133 446 1100 C 446 1070 449 1035 456 997 C 462 959 471 919 481 877 L 909 877 L 909 682 L 530 682 C 541 634 551 587 559 542 C 567 497 571 456 571 418 C 571 388 570 361 568 336 C 566 311 562 287 557 264 C 600 245 647 229 698 216 C 749 203 802 197 856 197 C 894 197 924 200 947 207 C 970 214 988 225 1001 241 C 1013 257 1022 277 1026 301 C 1030 325 1032 355 1032 389 L 1032 444 L 1239 444 L 1239 381 C 1239 308 1232 246 1219 196 C 1205 146 1184 105 1154 73 C 1124 41 1086 19 1038 5 C 990 -9 931 -16 862 -16 Z" unicode="" />
<glyph horiz-adv-x="1339" d="M 143 666 L 551 666 L 25 1518 L 279 1518 L 670 864 L 1061 1518 L 1313 1518 L 786 666 L 1194 666 L 1194 467 L 786 467 L 786 338 L 1194 338 L 1194 139 L 786 139 L 786 0 L 551 0 L 551 139 L 143 139 L 143 338 L 551 338 L 551 467 L 143 467 L 143 666 Z" unicode="" />
<glyph horiz-adv-x="719" d="M 238 465 L 479 465 L 479 -338 L 238 -338 L 238 465 Z M 238 1589 L 479 1589 L 479 786 L 238 786 L 238 1589 Z" unicode="" />
<glyph horiz-adv-x="1178" d="M 324 -14 C 294 -14 267 -13 242 -13 C 216 -12 197 -11 184 -10 L 184 186 L 295 186 C 335 186 367 190 391 199 C 415 207 433 219 445 235 C 457 250 464 268 468 290 C 471 312 473 336 473 362 L 473 442 C 353 453 264 484 206 535 C 148 586 119 660 119 756 C 119 848 146 921 201 973 C 255 1025 339 1057 453 1071 L 453 1143 C 453 1197 457 1247 466 1295 C 474 1342 492 1383 520 1418 C 547 1452 586 1480 637 1500 C 688 1520 756 1530 842 1530 C 870 1530 897 1529 923 1529 C 948 1528 967 1527 981 1526 L 981 1319 L 870 1319 C 829 1319 797 1314 773 1306 C 749 1298 730 1286 718 1271 C 706 1255 698 1237 695 1216 C 691 1194 690 1171 690 1145 L 690 1075 C 814 1063 906 1032 967 980 C 1028 928 1059 853 1059 756 C 1059 661 1030 588 972 538 C 914 488 827 456 713 444 L 713 373 C 713 319 708 268 700 221 C 692 173 674 132 647 98 C 619 63 580 36 529 16 C 477 -4 409 -14 324 -14 Z M 588 600 C 683 600 753 611 797 635 C 841 659 864 697 864 750 C 864 803 841 841 797 864 C 753 887 683 899 588 899 C 492 899 422 887 378 864 C 334 841 313 803 313 750 C 313 697 334 659 378 635 C 422 611 492 600 588 600 Z" unicode="" />
<glyph horiz-adv-x="1208" d="M 272 1516 L 489 1516 L 489 1268 L 272 1268 L 272 1516 Z M 721 1516 L 936 1516 L 936 1268 L 721 1268 L 721 1516 Z" unicode="" />
<glyph horiz-adv-x="1679" d="M 854 258 C 686 258 560 301 478 389 C 395 476 354 602 354 768 C 354 856 366 932 390 996 C 414 1060 448 1113 492 1155 C 536 1197 590 1228 653 1248 C 715 1268 785 1278 862 1278 C 938 1278 1007 1266 1069 1244 C 1130 1222 1183 1189 1229 1145 L 1118 1028 C 1085 1058 1047 1081 1004 1097 C 960 1113 912 1122 860 1122 C 748 1122 663 1092 605 1033 C 547 973 518 885 518 768 C 518 652 546 563 603 503 C 659 442 746 412 862 412 C 895 412 925 414 951 419 C 977 424 1001 431 1023 440 C 1044 449 1063 459 1080 471 C 1097 483 1113 496 1128 510 L 1235 401 C 1215 382 1194 364 1171 347 C 1147 329 1120 314 1090 301 C 1060 288 1025 278 987 270 C 948 262 904 258 854 258 Z M 838 -25 C 710 -25 599 -5 505 34 C 410 73 331 128 268 198 C 205 268 158 351 127 447 C 95 543 80 647 80 760 C 80 872 95 976 127 1072 C 158 1168 205 1251 268 1321 C 331 1391 410 1445 505 1485 C 599 1524 710 1544 838 1544 C 965 1544 1076 1524 1172 1485 C 1267 1445 1346 1391 1410 1321 C 1473 1251 1520 1168 1552 1072 C 1583 976 1599 872 1599 760 C 1599 647 1583 543 1552 447 C 1520 351 1473 268 1410 198 C 1346 128 1267 73 1172 34 C 1076 -5 965 -25 838 -25 Z M 838 74 C 953 74 1052 91 1136 126 C 1219 160 1287 208 1341 269 C 1395 330 1434 403 1460 487 C 1486 571 1499 662 1499 760 C 1499 858 1486 949 1460 1033 C 1434 1117 1395 1189 1341 1250 C 1287 1311 1219 1359 1136 1394 C 1052 1428 953 1446 838 1446 C 722 1446 622 1428 539 1394 C 455 1359 387 1311 333 1250 C 279 1189 240 1117 215 1033 C 190 949 178 858 178 760 C 178 662 190 571 215 487 C 240 403 279 330 333 269 C 387 208 455 160 539 126 C 622 91 722 74 838 74 Z" unicode="" />
<glyph horiz-adv-x="1235" d="M 453 573 C 390 573 338 580 296 594 C 254 608 220 628 195 654 C 169 680 151 710 141 745 C 130 779 125 817 125 858 C 125 924 137 979 161 1023 C 185 1067 223 1102 273 1128 C 323 1154 386 1172 463 1183 C 539 1194 630 1200 735 1200 L 776 1200 C 774 1228 771 1251 765 1271 C 759 1291 749 1307 734 1320 C 718 1333 697 1343 670 1349 C 643 1355 608 1358 565 1358 C 537 1358 511 1355 485 1351 C 459 1346 434 1340 412 1333 C 389 1325 368 1317 350 1308 C 331 1299 315 1290 301 1282 L 197 1434 C 213 1445 234 1457 260 1469 C 286 1481 316 1493 350 1504 C 384 1514 421 1523 461 1530 C 501 1536 542 1540 586 1540 C 666 1540 731 1533 781 1519 C 831 1505 869 1484 897 1454 C 925 1424 943 1385 953 1338 C 962 1291 967 1235 967 1169 L 967 862 C 967 840 967 823 969 810 C 971 797 975 787 981 780 C 987 773 996 769 1008 767 C 1020 765 1036 764 1057 764 L 1057 590 C 1049 588 1040 587 1028 587 C 1016 586 999 586 979 586 C 950 586 925 587 904 591 C 883 594 865 600 851 610 C 837 619 825 632 817 649 C 808 665 801 687 797 715 C 783 691 768 670 750 652 C 732 634 710 619 684 607 C 657 595 625 587 587 581 C 549 575 505 573 453 573 Z M 213 449 L 969 449 L 969 268 L 213 268 L 213 449 Z M 500 741 C 592 741 661 760 707 800 C 753 840 776 903 776 991 L 776 1044 L 748 1044 C 661 1044 590 1041 534 1036 C 478 1031 433 1022 401 1009 C 369 996 346 979 334 957 C 321 935 315 907 315 874 C 315 830 329 797 357 775 C 385 752 432 741 500 741 Z" unicode="" />
<glyph horiz-adv-x="1479" d="M 201 571 L 510 1147 L 719 1147 L 426 571 L 719 0 L 510 0 L 201 571 Z M 705 571 L 1014 1147 L 1225 1147 L 934 571 L 1225 0 L 1014 0 L 705 571 Z" unicode="" />
<glyph horiz-adv-x="1452" d="M 1247 829 L 1247 211 L 1010 211 L 1010 614 L 205 614 L 205 829 L 1247 829 Z" unicode="" />
<glyph horiz-adv-x="897" d="M 92 766 L 803 766 L 803 541 L 92 541 L 92 766 Z" unicode="" />
<glyph horiz-adv-x="1679" d="M 838 -25 C 710 -25 599 -5 505 34 C 410 73 331 128 268 198 C 205 268 158 351 127 447 C 95 543 80 647 80 760 C 80 872 95 976 127 1072 C 158 1168 205 1251 268 1321 C 331 1391 410 1445 505 1485 C 599 1524 710 1544 838 1544 C 965 1544 1076 1524 1172 1485 C 1267 1445 1346 1391 1410 1321 C 1473 1251 1520 1168 1552 1072 C 1583 976 1599 872 1599 760 C 1599 647 1583 543 1552 447 C 1520 351 1473 268 1410 198 C 1346 128 1267 73 1172 34 C 1076 -5 965 -25 838 -25 Z M 838 74 C 953 74 1052 91 1136 126 C 1219 160 1287 208 1341 269 C 1395 330 1434 403 1460 487 C 1486 571 1499 662 1499 760 C 1499 858 1486 949 1460 1033 C 1434 1117 1395 1189 1341 1250 C 1287 1311 1219 1359 1136 1394 C 1052 1428 953 1446 838 1446 C 722 1446 622 1428 539 1394 C 455 1359 387 1311 333 1250 C 279 1189 240 1117 215 1033 C 190 949 178 858 178 760 C 178 662 190 571 215 487 C 240 403 279 330 333 269 C 387 208 455 160 539 126 C 622 91 722 74 838 74 Z M 881 637 L 621 637 L 621 272 L 469 272 L 469 1239 L 909 1239 C 978 1239 1035 1232 1080 1218 C 1124 1204 1160 1185 1186 1160 C 1212 1134 1230 1103 1240 1067 C 1250 1030 1255 988 1255 942 C 1255 904 1251 870 1244 838 C 1237 806 1225 777 1209 752 C 1192 727 1169 706 1141 688 C 1112 670 1076 657 1034 649 L 1251 272 L 1087 272 L 881 637 Z M 905 774 C 939 774 968 776 993 781 C 1018 786 1039 795 1055 808 C 1071 820 1082 837 1090 858 C 1098 878 1102 904 1102 936 C 1102 968 1098 994 1090 1015 C 1082 1036 1071 1053 1055 1065 C 1039 1077 1018 1086 993 1092 C 968 1097 938 1100 903 1100 L 621 1100 L 621 774 L 905 774 Z" unicode="" />
<glyph horiz-adv-x="1208" d="M 205 1448 L 1004 1448 L 1004 1245 L 205 1245 L 205 1448 Z" unicode="" />
<glyph horiz-adv-x="1165" d="M 582 557 C 499 557 428 569 369 595 C 310 620 262 655 224 699 C 186 743 158 796 140 856 C 122 916 113 981 113 1051 C 113 1119 122 1184 140 1244 C 158 1304 186 1356 224 1400 C 262 1444 310 1478 369 1504 C 428 1529 499 1542 582 1542 C 664 1542 734 1529 794 1504 C 853 1478 902 1444 940 1400 C 978 1356 1007 1304 1025 1244 C 1043 1184 1053 1119 1053 1051 C 1053 981 1043 916 1025 856 C 1007 796 978 743 940 699 C 902 655 853 620 794 595 C 734 569 664 557 582 557 Z M 582 743 C 632 743 675 750 710 765 C 745 780 774 801 796 828 C 818 854 833 886 843 923 C 853 960 858 1000 858 1044 C 858 1087 853 1127 843 1164 C 833 1200 818 1232 796 1258 C 774 1284 745 1305 710 1320 C 675 1335 632 1343 582 1343 C 531 1343 488 1335 453 1320 C 418 1305 390 1284 368 1258 C 346 1232 331 1200 321 1164 C 311 1127 307 1087 307 1044 C 307 1000 311 960 321 923 C 331 886 346 854 368 828 C 390 801 418 780 453 765 C 488 750 531 743 582 743 Z" unicode="" />
<glyph horiz-adv-x="1452" d="M 205 248 L 606 248 L 606 608 L 205 608 L 205 836 L 606 836 L 606 1235 L 844 1235 L 844 836 L 1247 836 L 1247 608 L 844 608 L 844 248 L 1247 248 L 1247 23 L 205 23 L 205 248 Z" unicode="" />
<glyph horiz-adv-x="977" d="M 129 688 L 434 971 C 474 1007 506 1037 532 1062 C 557 1086 577 1108 591 1128 C 605 1148 615 1167 621 1186 C 626 1204 629 1226 629 1251 C 629 1271 626 1288 620 1304 C 614 1319 604 1332 590 1342 C 576 1352 557 1360 534 1366 C 511 1371 483 1374 449 1374 C 400 1374 354 1368 310 1357 C 266 1345 229 1332 201 1317 L 117 1458 C 139 1470 163 1480 187 1489 C 211 1498 238 1506 266 1512 C 294 1518 324 1523 358 1527 C 392 1530 429 1532 471 1532 C 527 1532 576 1527 618 1518 C 660 1508 696 1493 724 1472 C 752 1451 774 1424 789 1391 C 803 1358 811 1318 811 1272 C 811 1233 806 1199 798 1169 C 789 1139 775 1110 757 1082 C 738 1054 714 1024 685 994 C 655 964 620 929 578 891 L 379 707 L 821 707 L 821 555 L 129 555 L 129 688 Z" unicode="" />
<glyph horiz-adv-x="1010" d="M 489 543 C 447 543 408 545 373 549 C 338 553 305 559 274 567 C 242 575 212 585 184 598 C 155 610 126 625 98 643 L 190 778 C 236 751 282 731 326 719 C 370 706 419 700 473 700 C 509 700 539 702 565 707 C 591 711 612 719 628 731 C 644 743 656 759 664 779 C 672 799 676 824 676 856 C 676 882 672 904 666 923 C 660 941 648 956 632 968 C 615 979 592 987 564 993 C 536 998 499 1001 455 1001 L 301 1001 L 301 1149 L 451 1149 C 487 1149 518 1150 543 1153 C 568 1156 588 1162 604 1171 C 619 1179 630 1191 637 1206 C 643 1220 647 1240 647 1264 C 647 1285 643 1303 637 1317 C 631 1331 620 1342 606 1350 C 592 1358 573 1363 551 1367 C 528 1370 501 1372 469 1372 C 417 1372 369 1366 323 1354 C 277 1342 237 1326 205 1307 L 117 1446 C 139 1460 165 1472 194 1483 C 222 1494 253 1503 286 1511 C 318 1519 352 1524 387 1528 C 422 1532 458 1534 494 1534 C 555 1534 607 1529 651 1519 C 694 1509 729 1495 757 1476 C 784 1457 804 1433 817 1404 C 829 1375 836 1341 836 1303 C 836 1244 825 1197 805 1163 C 785 1129 752 1103 707 1087 C 760 1073 799 1045 824 1005 C 849 965 862 908 862 836 C 862 782 854 737 839 700 C 823 663 800 633 770 610 C 739 586 700 569 653 559 C 606 548 551 543 489 543 Z" unicode="" />
<glyph horiz-adv-x="1208" d="M 719 1612 L 1008 1612 L 637 1262 L 420 1262 L 719 1612 Z" unicode="" />
<glyph horiz-adv-x="1319" d="M 557 -23 C 517 -23 481 -20 449 -15 C 417 -10 388 -4 362 4 L 362 -338 L 141 -338 L 141 1147 L 379 1147 L 379 496 C 379 452 381 411 386 375 C 391 338 402 307 420 281 C 437 255 462 234 496 220 C 530 206 575 199 633 199 C 698 199 750 206 790 222 C 830 238 860 260 882 288 C 904 316 918 349 925 388 C 932 426 936 468 936 514 L 936 1147 L 1176 1147 L 1176 10 L 993 -8 L 969 111 C 937 71 887 38 819 14 C 751 -10 663 -23 557 -23 Z" unicode="" />
<glyph horiz-adv-x="1329" d="M 494 547 C 416 558 352 577 302 604 C 251 631 211 665 181 707 C 151 748 130 796 118 851 C 106 905 100 966 100 1034 C 100 1112 108 1181 125 1241 C 142 1301 172 1351 215 1392 C 257 1433 315 1464 387 1486 C 459 1507 549 1518 659 1518 L 1153 1518 L 1153 0 L 928 0 L 928 537 L 719 537 L 719 0 L 494 0 L 494 547 Z M 928 737 L 928 1298 L 655 1298 C 597 1298 547 1293 507 1284 C 467 1275 434 1260 410 1239 C 385 1217 367 1189 356 1154 C 345 1118 340 1074 340 1022 C 340 970 345 925 357 889 C 368 853 386 823 411 801 C 435 778 467 762 507 752 C 547 742 595 737 651 737 L 928 737 Z" unicode="" />
<glyph horiz-adv-x="545" d="M 127 874 L 416 874 L 416 561 L 127 561 L 127 874 Z" unicode="" />
<glyph horiz-adv-x="1208" d="M 612 -487 C 558 -487 511 -481 469 -470 C 427 -458 390 -443 356 -424 L 420 -303 C 448 -317 478 -329 509 -337 C 540 -345 572 -350 604 -350 C 633 -350 657 -347 676 -343 C 694 -339 709 -333 720 -325 C 730 -317 738 -307 742 -295 C 746 -283 748 -270 748 -256 C 748 -220 733 -196 703 -186 C 673 -175 627 -172 563 -176 L 510 -139 L 541 14 L 680 14 L 662 -88 C 693 -87 723 -88 753 -91 C 783 -93 809 -101 832 -113 C 855 -125 874 -144 888 -169 C 902 -194 909 -228 909 -272 C 909 -347 884 -402 836 -436 C 788 -470 713 -487 612 -487 Z" unicode="" />
<glyph horiz-adv-x="719" d="M 303 1354 L 125 1354 L 125 1518 L 492 1518 L 492 555 L 303 555 L 303 1354 Z" unicode="" />
<glyph horiz-adv-x="1231" d="M 616 575 C 535 575 465 585 407 606 C 348 627 300 658 262 699 C 224 740 195 791 177 851 C 159 911 150 981 150 1061 C 150 1217 187 1337 262 1419 C 336 1501 454 1542 616 1542 C 776 1542 893 1501 968 1419 C 1043 1337 1081 1217 1081 1061 C 1081 903 1043 782 968 699 C 893 616 776 575 616 575 Z M 616 756 C 709 756 777 782 819 834 C 861 886 883 959 883 1055 C 883 1149 861 1222 819 1274 C 777 1326 709 1352 616 1352 C 522 1352 454 1326 412 1274 C 370 1222 350 1149 350 1055 C 350 959 370 886 412 834 C 454 782 522 756 616 756 Z M 209 446 L 1024 446 L 1024 264 L 209 264 L 209 446 Z" unicode="" />
<glyph horiz-adv-x="1479" d="M 547 573 L 256 1147 L 465 1147 L 774 573 L 465 0 L 256 0 L 547 573 Z M 1051 573 L 760 1147 L 971 1147 L 1280 573 L 971 0 L 760 0 L 1051 573 Z" unicode="" />
<glyph horiz-adv-x="1960" d="M 1554 199 L 1077 199 L 1077 342 L 1505 967 L 1712 967 L 1290 356 L 1556 356 L 1591 584 L 1735 584 L 1735 356 L 1888 356 L 1888 199 L 1735 199 L 1735 0 L 1554 0 L 1554 199 Z M 274 1346 L 96 1346 L 96 1518 L 469 1518 L 469 551 L 274 551 L 274 1346 Z M 1245 1518 L 1456 1518 L 610 0 L 397 0 L 1245 1518 Z" unicode="" />
<glyph horiz-adv-x="2083" d="M 1251 141 L 1554 420 C 1595 458 1628 489 1654 513 C 1680 537 1700 558 1714 577 C 1728 595 1738 613 1743 631 C 1748 648 1751 668 1751 692 C 1751 711 1748 728 1742 743 C 1736 758 1726 771 1712 781 C 1698 791 1680 798 1658 803 C 1635 808 1607 811 1573 811 C 1523 811 1477 805 1433 794 C 1389 782 1353 769 1323 754 L 1239 903 C 1262 915 1286 925 1311 934 C 1335 943 1362 951 1390 957 C 1418 963 1449 968 1483 972 C 1516 975 1553 977 1595 977 C 1651 977 1700 972 1742 962 C 1784 952 1820 937 1848 916 C 1876 895 1897 868 1911 835 C 1925 801 1933 761 1933 713 C 1933 675 1929 641 1921 612 C 1913 583 1899 555 1881 527 C 1863 499 1839 470 1809 440 C 1779 410 1743 374 1700 334 L 1511 160 L 1935 160 L 1935 0 L 1251 0 L 1251 141 Z M 274 1346 L 96 1346 L 96 1518 L 469 1518 L 469 551 L 274 551 L 274 1346 Z M 1245 1518 L 1456 1518 L 610 0 L 397 0 L 1245 1518 Z" unicode="" />
<glyph horiz-adv-x="2195" d="M 469 545 C 426 545 387 547 352 551 C 316 555 283 561 252 569 C 221 577 191 588 163 601 C 134 613 105 628 76 645 L 176 791 C 198 777 220 766 242 756 C 264 746 286 737 308 731 C 330 724 352 719 376 716 C 399 712 424 711 451 711 C 487 711 517 713 543 717 C 569 721 590 728 606 739 C 622 750 634 765 642 785 C 649 804 653 829 653 860 C 653 886 649 907 643 925 C 637 943 625 957 609 968 C 592 979 569 987 541 992 C 513 996 476 999 432 999 L 281 999 L 281 1159 L 428 1159 C 465 1159 496 1160 522 1163 C 547 1166 567 1172 583 1180 C 599 1188 610 1199 617 1213 C 623 1227 627 1245 627 1268 C 627 1288 623 1305 617 1319 C 610 1333 599 1343 585 1351 C 570 1359 551 1364 528 1367 C 505 1370 478 1372 446 1372 C 394 1372 347 1366 303 1354 C 259 1342 221 1326 188 1307 L 96 1452 C 118 1466 144 1479 173 1491 C 201 1502 232 1511 264 1519 C 296 1526 330 1532 366 1536 C 401 1540 437 1542 473 1542 C 533 1542 585 1537 629 1527 C 672 1517 707 1503 734 1484 C 761 1464 781 1440 794 1411 C 806 1382 813 1348 813 1309 C 813 1250 801 1203 778 1169 C 755 1135 722 1110 678 1094 C 730 1079 770 1051 799 1011 C 827 971 842 914 842 840 C 842 786 834 741 819 704 C 803 666 780 636 749 612 C 718 588 679 571 633 561 C 586 550 531 545 469 545 Z M 1788 199 L 1311 199 L 1311 342 L 1739 967 L 1946 967 L 1524 356 L 1792 356 L 1827 584 L 1970 584 L 1970 356 L 2122 356 L 2122 199 L 1970 199 L 1970 0 L 1788 0 L 1788 199 Z M 1481 1518 L 1692 1518 L 844 0 L 633 0 L 1481 1518 Z" unicode="" />
<glyph horiz-adv-x="1399" d="M 678 -25 C 582 -25 500 -17 433 -2 C 365 12 310 35 268 67 C 226 98 195 138 176 186 C 156 234 147 292 147 360 C 147 414 153 460 166 499 C 178 538 197 573 221 603 C 245 633 274 659 309 683 C 344 706 384 729 430 752 C 478 775 515 796 543 815 C 570 834 590 855 604 879 C 617 903 624 931 626 965 C 628 998 627 1041 623 1094 L 856 1094 C 864 1025 867 966 864 918 C 861 870 851 828 833 792 C 815 756 788 725 753 698 C 718 670 673 643 618 616 C 572 593 535 573 506 557 C 477 541 454 524 438 508 C 421 491 409 473 403 453 C 396 433 393 409 393 381 C 393 353 396 327 403 305 C 409 283 423 264 445 248 C 466 232 496 221 536 213 C 576 205 628 201 694 201 C 777 201 856 210 930 229 C 1004 247 1073 272 1135 303 L 1235 94 C 1200 75 1161 58 1117 44 C 1073 29 1027 16 979 6 C 931 -3 881 -11 830 -17 C 778 -22 728 -25 678 -25 Z M 596 1518 L 885 1518 L 885 1245 L 596 1245 L 596 1518 Z" unicode="" />
<glyph horiz-adv-x="1550" d="M 647 1528 L 901 1528 L 1511 0 L 1255 0 L 1143 291 L 399 291 L 287 0 L 39 0 L 647 1528 Z M 1055 520 L 770 1231 L 485 520 L 1055 520 Z M 369 1956 L 657 1956 L 956 1606 L 739 1606 L 369 1956 Z" unicode="" />
<glyph horiz-adv-x="1550" d="M 647 1528 L 901 1528 L 1511 0 L 1255 0 L 1143 291 L 399 291 L 287 0 L 39 0 L 647 1528 Z M 1055 520 L 770 1231 L 485 520 L 1055 520 Z M 887 1956 L 1176 1956 L 805 1606 L 588 1606 L 887 1956 Z" unicode="" />
<glyph horiz-adv-x="1550" d="M 647 1528 L 901 1528 L 1511 0 L 1255 0 L 1143 291 L 399 291 L 287 0 L 39 0 L 647 1528 Z M 1055 520 L 770 1231 L 485 520 L 1055 520 Z M 645 1956 L 897 1956 L 1212 1606 L 985 1606 L 768 1800 L 555 1606 L 330 1606 L 645 1956 Z" unicode="" />
<glyph horiz-adv-x="1550" d="M 647 1528 L 901 1528 L 1511 0 L 1255 0 L 1143 291 L 399 291 L 287 0 L 39 0 L 647 1528 Z M 1055 520 L 770 1231 L 485 520 L 1055 520 Z M 330 1720 C 352 1748 375 1773 399 1796 C 423 1818 447 1838 473 1855 C 498 1871 523 1884 549 1893 C 575 1902 601 1907 627 1907 C 662 1907 692 1901 717 1890 C 741 1879 764 1867 784 1854 C 804 1841 824 1829 844 1818 C 863 1807 885 1802 911 1802 C 936 1802 962 1812 989 1832 C 1016 1852 1045 1881 1075 1917 L 1214 1804 C 1191 1776 1167 1750 1143 1726 C 1119 1702 1094 1681 1069 1663 C 1043 1645 1018 1631 992 1621 C 966 1611 941 1606 915 1606 C 882 1606 853 1611 829 1622 C 804 1632 781 1644 760 1657 C 739 1670 718 1682 698 1693 C 678 1704 655 1710 631 1710 C 607 1710 582 1701 555 1685 C 528 1668 501 1642 473 1606 L 330 1720 Z" unicode="" />
<glyph horiz-adv-x="1550" d="M 647 1528 L 901 1528 L 1511 0 L 1255 0 L 1143 291 L 399 291 L 287 0 L 39 0 L 647 1528 Z M 1055 520 L 770 1231 L 485 520 L 1055 520 Z M 440 1860 L 657 1860 L 657 1612 L 440 1612 L 440 1860 Z M 889 1860 L 1104 1860 L 1104 1612 L 889 1612 L 889 1860 Z" unicode="" />
<glyph horiz-adv-x="1550" d="M 608 1430 C 572 1454 546 1487 530 1527 C 514 1567 506 1611 506 1661 C 506 1699 511 1735 521 1769 C 531 1802 546 1831 568 1856 C 590 1881 618 1901 652 1915 C 686 1929 726 1937 774 1937 C 819 1937 858 1929 892 1915 C 926 1901 954 1881 976 1856 C 998 1831 1014 1802 1025 1769 C 1036 1735 1042 1699 1042 1661 C 1042 1611 1033 1567 1016 1528 C 999 1488 973 1456 938 1432 L 1511 0 L 1260 0 L 1143 291 L 397 291 L 287 0 L 39 0 L 608 1430 Z M 1055 520 L 770 1231 L 485 520 L 1055 520 Z M 774 1511 C 800 1511 821 1514 839 1522 C 857 1530 871 1540 883 1554 C 894 1568 902 1584 907 1602 C 912 1620 915 1639 915 1661 C 915 1681 912 1701 907 1720 C 902 1738 894 1754 883 1768 C 871 1781 857 1792 839 1800 C 821 1808 800 1812 774 1812 C 748 1812 726 1808 708 1800 C 690 1792 675 1781 663 1768 C 651 1754 643 1738 638 1720 C 633 1701 631 1681 631 1661 C 631 1639 633 1620 638 1602 C 643 1584 651 1568 663 1554 C 675 1540 690 1530 708 1522 C 726 1514 748 1511 774 1511 Z" unicode="" />
<glyph horiz-adv-x="2271" d="M 977 1518 L 2150 1518 L 2150 1280 L 1327 1280 L 1327 895 L 2130 895 L 2130 666 L 1327 666 L 1327 227 L 2159 227 L 2159 0 L 1090 0 L 1090 297 L 459 297 L 266 0 L 23 0 L 977 1518 Z M 1090 510 L 1090 1298 L 584 510 L 1090 510 Z" unicode="" />
<glyph horiz-adv-x="1516" d="M 764 -487 C 710 -487 662 -481 621 -470 C 579 -458 542 -443 508 -424 L 571 -303 C 600 -317 630 -329 661 -337 C 692 -345 724 -350 756 -350 C 784 -350 808 -347 827 -343 C 845 -339 860 -333 871 -325 C 881 -317 889 -307 893 -295 C 897 -283 899 -270 899 -256 C 899 -220 884 -196 855 -186 C 825 -175 779 -172 715 -176 L 662 -139 L 686 -12 C 579 0 487 25 411 65 C 335 104 272 156 223 221 C 174 285 138 363 115 453 C 91 543 80 646 80 760 C 80 894 97 1011 132 1109 C 166 1207 217 1289 284 1353 C 350 1417 432 1464 528 1495 C 624 1526 734 1542 858 1542 C 980 1542 1087 1524 1179 1490 C 1271 1455 1351 1403 1421 1335 L 1241 1157 C 1191 1204 1135 1240 1073 1265 C 1011 1290 939 1303 856 1303 C 676 1303 544 1257 458 1165 C 372 1073 330 938 330 758 C 330 669 339 591 359 523 C 379 455 410 397 452 351 C 494 305 549 270 616 246 C 683 222 764 211 858 211 C 911 211 957 215 997 223 C 1036 231 1071 242 1102 256 C 1132 270 1160 286 1184 305 C 1208 323 1231 343 1255 365 L 1432 197 C 1404 168 1372 140 1337 114 C 1302 87 1261 63 1215 43 C 1168 23 1114 7 1054 -5 C 994 -17 924 -23 844 -23 L 825 -23 L 813 -88 C 845 -87 875 -88 905 -91 C 935 -93 961 -101 984 -113 C 1007 -125 1026 -144 1040 -169 C 1054 -194 1061 -228 1061 -272 C 1061 -347 1036 -402 988 -436 C 940 -470 865 -487 764 -487 Z" unicode="" />
<glyph horiz-adv-x="1358" d="M 166 1518 L 1237 1518 L 1237 1280 L 414 1280 L 414 899 L 1217 899 L 1217 664 L 414 664 L 414 233 L 1245 233 L 1245 0 L 166 0 L 166 1518 Z M 272 1956 L 561 1956 L 860 1606 L 643 1606 L 272 1956 Z" unicode="" />
<glyph horiz-adv-x="1358" d="M 791 1956 L 1079 1956 L 709 1606 L 492 1606 L 791 1956 Z M 166 1518 L 1237 1518 L 1237 1280 L 414 1280 L 414 899 L 1217 899 L 1217 664 L 414 664 L 414 233 L 1245 233 L 1245 0 L 166 0 L 166 1518 Z" unicode="" />
<glyph horiz-adv-x="1358" d="M 549 1956 L 801 1956 L 1116 1606 L 889 1606 L 672 1800 L 459 1606 L 233 1606 L 549 1956 Z M 166 1518 L 1237 1518 L 1237 1280 L 414 1280 L 414 899 L 1217 899 L 1217 664 L 414 664 L 414 233 L 1245 233 L 1245 0 L 166 0 L 166 1518 Z" unicode="" />
<glyph horiz-adv-x="1358" d="M 344 1860 L 561 1860 L 561 1612 L 344 1612 L 344 1860 Z M 793 1860 L 1008 1860 L 1008 1612 L 793 1612 L 793 1860 Z M 166 1518 L 1237 1518 L 1237 1280 L 414 1280 L 414 899 L 1217 899 L 1217 664 L 414 664 L 414 233 L 1245 233 L 1245 0 L 166 0 L 166 1518 Z" unicode="" />
<glyph horiz-adv-x="614" d="M -141 1952 L 158 1952 L 430 1604 L 205 1604 L -141 1952 Z M 184 1518 L 430 1518 L 430 0 L 184 0 L 184 1518 Z" unicode="" />
<glyph horiz-adv-x="614" d="M 455 1952 L 754 1952 L 408 1604 L 184 1604 L 455 1952 Z M 184 1518 L 430 1518 L 430 0 L 184 0 L 184 1518 Z" unicode="" />
<glyph horiz-adv-x="614" d="M 180 1952 L 430 1952 L 707 1604 L 477 1604 L 303 1802 L 129 1604 L -94 1604 L 180 1952 Z M 184 1518 L 430 1518 L 430 0 L 184 0 L 184 1518 Z" unicode="" />
<glyph horiz-adv-x="614" d="M 184 1518 L 430 1518 L 430 0 L 184 0 L 184 1518 Z M -23 1860 L 195 1860 L 195 1612 L -23 1612 L -23 1860 Z M 426 1860 L 641 1860 L 641 1612 L 426 1612 L 426 1860 Z" unicode="" />
<glyph horiz-adv-x="1575" d="M 0 879 L 166 879 L 166 1518 L 684 1518 C 830 1518 955 1506 1058 1483 C 1161 1459 1245 1419 1310 1361 C 1375 1303 1422 1226 1452 1129 C 1482 1031 1497 908 1497 760 C 1497 614 1480 492 1448 395 C 1415 297 1365 219 1297 161 C 1229 102 1142 60 1038 36 C 934 12 810 0 668 0 L 166 0 L 166 672 L 0 672 L 0 879 Z M 680 229 C 791 229 883 238 956 257 C 1029 276 1087 307 1130 349 C 1173 391 1203 445 1221 513 C 1238 580 1247 662 1247 760 C 1247 858 1239 940 1224 1007 C 1208 1073 1180 1127 1139 1168 C 1098 1208 1041 1237 969 1255 C 896 1273 802 1282 688 1282 L 414 1282 L 414 879 L 727 879 L 727 672 L 414 672 L 414 229 L 680 229 Z" unicode="" />
<glyph horiz-adv-x="1640" d="M 166 1518 L 434 1518 L 1233 422 L 1233 1518 L 1475 1518 L 1475 0 L 1247 0 L 408 1149 L 408 0 L 166 0 L 166 1518 Z M 375 1720 C 397 1748 420 1773 444 1796 C 468 1818 492 1838 518 1855 C 543 1871 568 1884 594 1893 C 620 1902 646 1907 672 1907 C 707 1907 737 1901 762 1890 C 786 1879 809 1867 829 1854 C 849 1841 869 1829 889 1818 C 908 1807 930 1802 956 1802 C 981 1802 1007 1812 1034 1832 C 1061 1852 1090 1881 1120 1917 L 1260 1804 C 1237 1776 1213 1750 1189 1726 C 1165 1702 1140 1681 1115 1663 C 1089 1645 1064 1631 1038 1621 C 1012 1611 986 1606 961 1606 C 927 1606 898 1611 874 1622 C 850 1632 827 1644 806 1657 C 784 1670 763 1682 743 1693 C 723 1704 700 1710 676 1710 C 652 1710 627 1701 600 1685 C 573 1668 546 1642 518 1606 L 375 1720 Z" unicode="" />
<glyph horiz-adv-x="1726" d="M 862 -25 C 740 -25 631 -10 535 19 C 438 48 356 94 289 158 C 221 221 170 302 134 401 C 98 500 80 620 80 760 C 80 899 98 1018 134 1117 C 170 1215 221 1296 289 1359 C 356 1422 438 1468 535 1498 C 631 1527 740 1542 862 1542 C 983 1542 1092 1527 1189 1498 C 1286 1468 1368 1422 1436 1359 C 1504 1296 1556 1215 1592 1117 C 1628 1018 1647 899 1647 760 C 1647 620 1628 500 1592 401 C 1556 302 1504 221 1436 158 C 1368 94 1286 48 1189 19 C 1092 -10 983 -25 862 -25 Z M 862 207 C 957 207 1038 219 1106 244 C 1174 268 1229 304 1272 351 C 1315 397 1347 455 1367 523 C 1387 591 1397 668 1397 756 C 1397 842 1387 919 1367 987 C 1347 1055 1315 1112 1272 1159 C 1229 1205 1174 1241 1106 1266 C 1038 1290 957 1303 862 1303 C 767 1303 686 1290 619 1266 C 551 1241 496 1205 454 1159 C 411 1112 380 1055 360 987 C 340 919 330 842 330 756 C 330 668 340 591 360 523 C 380 455 411 397 454 351 C 496 304 551 268 619 244 C 686 219 767 207 862 207 Z M 459 1956 L 748 1956 L 1047 1606 L 829 1606 L 459 1956 Z" unicode="" />
<glyph horiz-adv-x="1726" d="M 977 1956 L 1266 1956 L 895 1606 L 678 1606 L 977 1956 Z M 862 -25 C 740 -25 631 -10 535 19 C 438 48 356 94 289 158 C 221 221 170 302 134 401 C 98 500 80 620 80 760 C 80 899 98 1018 134 1117 C 170 1215 221 1296 289 1359 C 356 1422 438 1468 535 1498 C 631 1527 740 1542 862 1542 C 983 1542 1092 1527 1189 1498 C 1286 1468 1368 1422 1436 1359 C 1504 1296 1556 1215 1592 1117 C 1628 1018 1647 899 1647 760 C 1647 620 1628 500 1592 401 C 1556 302 1504 221 1436 158 C 1368 94 1286 48 1189 19 C 1092 -10 983 -25 862 -25 Z M 862 207 C 957 207 1038 219 1106 244 C 1174 268 1229 304 1272 351 C 1315 397 1347 455 1367 523 C 1387 591 1397 668 1397 756 C 1397 842 1387 919 1367 987 C 1347 1055 1315 1112 1272 1159 C 1229 1205 1174 1241 1106 1266 C 1038 1290 957 1303 862 1303 C 767 1303 686 1290 619 1266 C 551 1241 496 1205 454 1159 C 411 1112 380 1055 360 987 C 340 919 330 842 330 756 C 330 668 340 591 360 523 C 380 455 411 397 454 351 C 496 304 551 268 619 244 C 686 219 767 207 862 207 Z" unicode="" />
<glyph horiz-adv-x="1726" d="M 735 1956 L 987 1956 L 1303 1606 L 1075 1606 L 858 1800 L 645 1606 L 420 1606 L 735 1956 Z M 862 -25 C 740 -25 631 -10 535 19 C 438 48 356 94 289 158 C 221 221 170 302 134 401 C 98 500 80 620 80 760 C 80 899 98 1018 134 1117 C 170 1215 221 1296 289 1359 C 356 1422 438 1468 535 1498 C 631 1527 740 1542 862 1542 C 983 1542 1092 1527 1189 1498 C 1286 1468 1368 1422 1436 1359 C 1504 1296 1556 1215 1592 1117 C 1628 1018 1647 899 1647 760 C 1647 620 1628 500 1592 401 C 1556 302 1504 221 1436 158 C 1368 94 1286 48 1189 19 C 1092 -10 983 -25 862 -25 Z M 862 207 C 957 207 1038 219 1106 244 C 1174 268 1229 304 1272 351 C 1315 397 1347 455 1367 523 C 1387 591 1397 668 1397 756 C 1397 842 1387 919 1367 987 C 1347 1055 1315 1112 1272 1159 C 1229 1205 1174 1241 1106 1266 C 1038 1290 957 1303 862 1303 C 767 1303 686 1290 619 1266 C 551 1241 496 1205 454 1159 C 411 1112 380 1055 360 987 C 340 919 330 842 330 756 C 330 668 340 591 360 523 C 380 455 411 397 454 351 C 496 304 551 268 619 244 C 686 219 767 207 862 207 Z" unicode="" />
<glyph horiz-adv-x="1726" d="M 862 -25 C 740 -25 631 -10 535 19 C 438 48 356 94 289 158 C 221 221 170 302 134 401 C 98 500 80 620 80 760 C 80 899 98 1018 134 1117 C 170 1215 221 1296 289 1359 C 356 1422 438 1468 535 1498 C 631 1527 740 1542 862 1542 C 983 1542 1092 1527 1189 1498 C 1286 1468 1368 1422 1436 1359 C 1504 1296 1556 1215 1592 1117 C 1628 1018 1647 899 1647 760 C 1647 620 1628 500 1592 401 C 1556 302 1504 221 1436 158 C 1368 94 1286 48 1189 19 C 1092 -10 983 -25 862 -25 Z M 862 207 C 957 207 1038 219 1106 244 C 1174 268 1229 304 1272 351 C 1315 397 1347 455 1367 523 C 1387 591 1397 668 1397 756 C 1397 842 1387 919 1367 987 C 1347 1055 1315 1112 1272 1159 C 1229 1205 1174 1241 1106 1266 C 1038 1290 957 1303 862 1303 C 767 1303 686 1290 619 1266 C 551 1241 496 1205 454 1159 C 411 1112 380 1055 360 987 C 340 919 330 842 330 756 C 330 668 340 591 360 523 C 380 455 411 397 454 351 C 496 304 551 268 619 244 C 686 219 767 207 862 207 Z M 420 1720 C 442 1748 465 1773 489 1796 C 513 1818 537 1838 563 1855 C 588 1871 613 1884 639 1893 C 665 1902 691 1907 717 1907 C 752 1907 782 1901 807 1890 C 831 1879 854 1867 874 1854 C 894 1841 914 1829 934 1818 C 953 1807 975 1802 1001 1802 C 1026 1802 1052 1812 1079 1832 C 1106 1852 1135 1881 1165 1917 L 1305 1804 C 1282 1776 1258 1750 1234 1726 C 1210 1702 1185 1681 1160 1663 C 1134 1645 1109 1631 1083 1621 C 1057 1611 1031 1606 1006 1606 C 972 1606 943 1611 919 1622 C 895 1632 872 1644 851 1657 C 829 1670 808 1682 788 1693 C 768 1704 745 1710 721 1710 C 697 1710 672 1701 645 1685 C 618 1668 591 1642 563 1606 L 420 1720 Z" unicode="" />
<glyph horiz-adv-x="1726" d="M 530 1860 L 748 1860 L 748 1612 L 530 1612 L 530 1860 Z M 979 1860 L 1194 1860 L 1194 1612 L 979 1612 L 979 1860 Z M 862 -25 C 740 -25 631 -10 535 19 C 438 48 356 94 289 158 C 221 221 170 302 134 401 C 98 500 80 620 80 760 C 80 899 98 1018 134 1117 C 170 1215 221 1296 289 1359 C 356 1422 438 1468 535 1498 C 631 1527 740 1542 862 1542 C 983 1542 1092 1527 1189 1498 C 1286 1468 1368 1422 1436 1359 C 1504 1296 1556 1215 1592 1117 C 1628 1018 1647 899 1647 760 C 1647 620 1628 500 1592 401 C 1556 302 1504 221 1436 158 C 1368 94 1286 48 1189 19 C 1092 -10 983 -25 862 -25 Z M 862 207 C 957 207 1038 219 1106 244 C 1174 268 1229 304 1272 351 C 1315 397 1347 455 1367 523 C 1387 591 1397 668 1397 756 C 1397 842 1387 919 1367 987 C 1347 1055 1315 1112 1272 1159 C 1229 1205 1174 1241 1106 1266 C 1038 1290 957 1303 862 1303 C 767 1303 686 1290 619 1266 C 551 1241 496 1205 454 1159 C 411 1112 380 1055 360 987 C 340 919 330 842 330 756 C 330 668 340 591 360 523 C 380 455 411 397 454 351 C 496 304 551 268 619 244 C 686 219 767 207 862 207 Z" unicode="" />
<glyph horiz-adv-x="1452" d="M 264 406 L 580 721 L 264 1036 L 412 1188 L 727 872 L 1040 1188 L 1188 1036 L 872 721 L 1188 408 L 1040 256 L 727 571 L 410 256 L 264 406 Z" unicode="" />
<glyph horiz-adv-x="1726" d="M 862 -25 C 743 -25 637 -12 543 14 L 487 -84 L 252 -84 L 356 100 C 266 160 197 244 150 352 C 103 460 80 596 80 760 C 80 899 97 1018 132 1117 C 167 1215 218 1296 285 1359 C 352 1422 434 1468 531 1498 C 627 1527 738 1542 862 1542 C 975 1542 1076 1529 1165 1505 L 1223 1604 L 1456 1604 L 1354 1425 C 1401 1395 1443 1360 1480 1318 C 1516 1276 1547 1228 1572 1173 C 1596 1118 1615 1056 1628 988 C 1640 919 1647 843 1647 760 C 1647 620 1629 500 1594 401 C 1559 302 1508 221 1441 158 C 1374 94 1292 48 1195 19 C 1097 -10 986 -25 862 -25 Z M 862 199 C 962 199 1046 211 1115 236 C 1184 261 1240 297 1283 345 C 1326 392 1357 450 1376 520 C 1395 589 1405 668 1405 756 C 1405 861 1391 952 1363 1030 C 1335 1108 1289 1170 1225 1217 L 651 223 C 713 207 783 199 862 199 Z M 322 756 C 322 654 334 565 360 488 C 385 411 427 349 485 303 L 1055 1290 C 1025 1296 995 1301 963 1305 C 931 1309 898 1311 862 1311 C 762 1311 678 1298 610 1273 C 541 1248 485 1212 443 1164 C 400 1116 369 1058 350 990 C 331 921 322 843 322 756 Z" unicode="" />
<glyph horiz-adv-x="1632" d="M 815 -27 C 717 -27 632 -19 561 -3 C 490 12 430 33 382 61 C 333 88 294 120 264 158 C 234 196 212 236 196 280 C 180 324 169 370 164 418 C 158 466 156 515 156 565 L 156 1518 L 403 1518 L 403 598 C 403 538 408 483 419 435 C 430 387 451 345 481 311 C 511 277 553 250 607 232 C 661 214 731 205 817 205 C 903 205 974 214 1028 232 C 1082 250 1125 275 1156 309 C 1187 343 1208 384 1220 433 C 1231 481 1237 536 1237 598 L 1237 1518 L 1479 1518 L 1479 565 C 1479 515 1476 466 1470 418 C 1464 370 1453 324 1437 280 C 1421 236 1397 196 1367 158 C 1337 120 1297 88 1248 61 C 1199 33 1139 12 1068 -3 C 997 -19 913 -27 815 -27 Z M 410 1956 L 698 1956 L 997 1606 L 780 1606 L 410 1956 Z" unicode="" />
<glyph horiz-adv-x="1632" d="M 928 1956 L 1217 1956 L 846 1606 L 629 1606 L 928 1956 Z M 815 -27 C 717 -27 632 -19 561 -3 C 490 12 430 33 382 61 C 333 88 294 120 264 158 C 234 196 212 236 196 280 C 180 324 169 370 164 418 C 158 466 156 515 156 565 L 156 1518 L 403 1518 L 403 598 C 403 538 408 483 419 435 C 430 387 451 345 481 311 C 511 277 553 250 607 232 C 661 214 731 205 817 205 C 903 205 974 214 1028 232 C 1082 250 1125 275 1156 309 C 1187 343 1208 384 1220 433 C 1231 481 1237 536 1237 598 L 1237 1518 L 1479 1518 L 1479 565 C 1479 515 1476 466 1470 418 C 1464 370 1453 324 1437 280 C 1421 236 1397 196 1367 158 C 1337 120 1297 88 1248 61 C 1199 33 1139 12 1068 -3 C 997 -19 913 -27 815 -27 Z" unicode="" />
<glyph horiz-adv-x="1632" d="M 686 1956 L 938 1956 L 1253 1606 L 1026 1606 L 809 1800 L 596 1606 L 371 1606 L 686 1956 Z M 815 -27 C 717 -27 632 -19 561 -3 C 490 12 430 33 382 61 C 333 88 294 120 264 158 C 234 196 212 236 196 280 C 180 324 169 370 164 418 C 158 466 156 515 156 565 L 156 1518 L 403 1518 L 403 598 C 403 538 408 483 419 435 C 430 387 451 345 481 311 C 511 277 553 250 607 232 C 661 214 731 205 817 205 C 903 205 974 214 1028 232 C 1082 250 1125 275 1156 309 C 1187 343 1208 384 1220 433 C 1231 481 1237 536 1237 598 L 1237 1518 L 1479 1518 L 1479 565 C 1479 515 1476 466 1470 418 C 1464 370 1453 324 1437 280 C 1421 236 1397 196 1367 158 C 1337 120 1297 88 1248 61 C 1199 33 1139 12 1068 -3 C 997 -19 913 -27 815 -27 Z" unicode="" />
<glyph horiz-adv-x="1632" d="M 481 1860 L 698 1860 L 698 1612 L 481 1612 L 481 1860 Z M 930 1860 L 1145 1860 L 1145 1612 L 930 1612 L 930 1860 Z M 815 -27 C 717 -27 632 -19 561 -3 C 490 12 430 33 382 61 C 333 88 294 120 264 158 C 234 196 212 236 196 280 C 180 324 169 370 164 418 C 158 466 156 515 156 565 L 156 1518 L 403 1518 L 403 598 C 403 538 408 483 419 435 C 430 387 451 345 481 311 C 511 277 553 250 607 232 C 661 214 731 205 817 205 C 903 205 974 214 1028 232 C 1082 250 1125 275 1156 309 C 1187 343 1208 384 1220 433 C 1231 481 1237 536 1237 598 L 1237 1518 L 1479 1518 L 1479 565 C 1479 515 1476 466 1470 418 C 1464 370 1453 324 1437 280 C 1421 236 1397 196 1367 158 C 1337 120 1297 88 1248 61 C 1199 33 1139 12 1068 -3 C 997 -19 913 -27 815 -27 Z" unicode="" />
<glyph horiz-adv-x="1495" d="M 625 559 L 16 1518 L 285 1518 L 752 784 L 1221 1518 L 1477 1518 L 870 563 L 870 0 L 625 0 L 625 559 Z M 860 1956 L 1149 1956 L 778 1606 L 561 1606 L 860 1956 Z" unicode="" />
<glyph horiz-adv-x="1501" d="M 166 1518 L 408 1518 L 408 1294 L 862 1294 C 971 1294 1062 1283 1134 1262 C 1206 1240 1263 1209 1305 1168 C 1347 1126 1377 1075 1395 1015 C 1412 954 1421 885 1421 807 C 1421 729 1412 658 1396 595 C 1379 532 1349 478 1307 433 C 1264 388 1206 353 1133 329 C 1059 305 966 293 852 293 L 408 293 L 408 0 L 166 0 L 166 1518 Z M 862 520 C 918 520 965 525 1005 535 C 1045 545 1077 561 1102 583 C 1127 605 1145 634 1157 670 C 1168 705 1174 748 1174 799 C 1174 851 1168 894 1157 928 C 1146 962 1128 990 1103 1011 C 1078 1032 1046 1047 1006 1056 C 966 1064 916 1069 858 1069 L 408 1069 L 408 520 L 862 520 Z" unicode="" />
<glyph horiz-adv-x="1374" d="M 141 1083 C 141 1128 144 1172 151 1216 C 157 1259 169 1300 185 1339 C 201 1377 223 1413 250 1445 C 276 1477 310 1504 350 1528 C 390 1551 438 1569 493 1582 C 547 1595 611 1602 684 1602 C 856 1602 982 1567 1064 1498 C 1145 1429 1186 1328 1186 1196 C 1186 1143 1181 1097 1173 1058 C 1165 1018 1152 984 1136 956 C 1119 927 1098 903 1073 884 C 1048 864 1019 848 987 836 C 1039 826 1084 811 1124 793 C 1164 775 1197 750 1224 719 C 1250 688 1270 650 1284 605 C 1298 560 1305 506 1305 444 C 1305 395 1301 350 1295 309 C 1288 268 1276 231 1260 198 C 1243 165 1220 136 1191 112 C 1161 87 1124 66 1079 50 C 1034 33 980 20 917 12 C 854 4 780 0 696 0 L 569 0 L 569 215 L 690 215 C 772 215 838 221 888 233 C 938 245 976 261 1003 283 C 1029 305 1047 331 1056 361 C 1064 391 1069 424 1069 461 C 1069 503 1062 540 1050 570 C 1038 600 1016 624 984 643 C 952 662 908 676 854 685 C 799 693 729 698 645 698 L 645 897 C 700 897 747 901 786 911 C 824 920 856 934 880 953 C 904 972 922 996 933 1026 C 944 1056 950 1091 950 1133 C 950 1170 945 1203 936 1231 C 926 1259 911 1282 890 1301 C 868 1320 840 1334 806 1344 C 772 1353 730 1358 680 1358 C 626 1358 580 1351 542 1339 C 504 1327 472 1309 448 1285 C 423 1261 405 1231 394 1196 C 382 1160 377 1120 377 1075 L 377 0 L 141 0 L 141 1083 Z" unicode="" />
<glyph horiz-adv-x="1296" d="M 487 -20 C 403 -20 334 -10 280 7 C 226 25 183 50 153 82 C 122 113 101 150 89 193 C 77 235 72 281 72 330 C 72 411 84 479 109 533 C 134 587 176 630 234 662 C 292 694 369 716 465 730 C 560 743 678 750 819 750 L 877 750 C 875 784 871 813 865 839 C 858 864 845 885 826 901 C 807 917 780 930 745 938 C 710 946 664 950 608 950 C 572 950 538 947 506 941 C 474 935 444 927 416 918 C 388 908 362 898 338 887 C 314 875 294 864 276 854 L 152 1040 C 171 1053 197 1067 229 1083 C 261 1099 299 1113 341 1127 C 383 1140 428 1151 478 1160 C 527 1169 579 1174 633 1174 C 733 1174 813 1165 875 1148 C 937 1130 985 1103 1019 1066 C 1053 1029 1076 982 1088 924 C 1100 866 1106 796 1106 715 L 1106 330 C 1106 304 1107 283 1109 267 C 1111 251 1115 238 1122 230 C 1129 221 1140 215 1154 213 C 1168 210 1188 209 1214 209 L 1214 2 C 1206 0 1194 -1 1178 -1 C 1162 -1 1141 -2 1116 -2 C 1086 -2 1061 0 1039 3 C 1017 6 998 12 982 21 C 966 29 952 41 941 57 C 930 73 921 93 913 117 C 897 95 876 75 852 58 C 828 41 798 27 764 15 C 729 3 689 -5 643 -11 C 597 -17 545 -20 487 -20 Z M 528 184 C 589 184 642 190 686 202 C 730 214 766 232 794 258 C 822 283 843 315 857 354 C 870 393 877 440 877 494 L 877 553 L 834 553 C 721 553 630 549 560 542 C 490 535 435 524 396 508 C 357 492 331 471 317 445 C 303 419 297 386 297 348 C 297 321 300 297 307 277 C 314 257 326 240 344 226 C 361 212 385 201 415 194 C 445 187 482 184 528 184 Z M 246 1612 L 535 1612 L 834 1262 L 616 1262 L 246 1612 Z" unicode="" />
<glyph horiz-adv-x="1296" d="M 487 -20 C 403 -20 334 -10 280 7 C 226 25 183 50 153 82 C 122 113 101 150 89 193 C 77 235 72 281 72 330 C 72 411 84 479 109 533 C 134 587 176 630 234 662 C 292 694 369 716 465 730 C 560 743 678 750 819 750 L 877 750 C 875 784 871 813 865 839 C 858 864 845 885 826 901 C 807 917 780 930 745 938 C 710 946 664 950 608 950 C 572 950 538 947 506 941 C 474 935 444 927 416 918 C 388 908 362 898 338 887 C 314 875 294 864 276 854 L 152 1040 C 171 1053 197 1067 229 1083 C 261 1099 299 1113 341 1127 C 383 1140 428 1151 478 1160 C 527 1169 579 1174 633 1174 C 733 1174 813 1165 875 1148 C 937 1130 985 1103 1019 1066 C 1053 1029 1076 982 1088 924 C 1100 866 1106 796 1106 715 L 1106 330 C 1106 304 1107 283 1109 267 C 1111 251 1115 238 1122 230 C 1129 221 1140 215 1154 213 C 1168 210 1188 209 1214 209 L 1214 2 C 1206 0 1194 -1 1178 -1 C 1162 -1 1141 -2 1116 -2 C 1086 -2 1061 0 1039 3 C 1017 6 998 12 982 21 C 966 29 952 41 941 57 C 930 73 921 93 913 117 C 897 95 876 75 852 58 C 828 41 798 27 764 15 C 729 3 689 -5 643 -11 C 597 -17 545 -20 487 -20 Z M 528 184 C 589 184 642 190 686 202 C 730 214 766 232 794 258 C 822 283 843 315 857 354 C 870 393 877 440 877 494 L 877 553 L 834 553 C 721 553 630 549 560 542 C 490 535 435 524 396 508 C 357 492 331 471 317 445 C 303 419 297 386 297 348 C 297 321 300 297 307 277 C 314 257 326 240 344 226 C 361 212 385 201 415 194 C 445 187 482 184 528 184 Z M 764 1612 L 1053 1612 L 682 1262 L 465 1262 L 764 1612 Z" unicode="" />
<glyph horiz-adv-x="1296" d="M 487 -20 C 403 -20 334 -10 280 7 C 226 25 183 50 153 82 C 122 113 101 150 89 193 C 77 235 72 281 72 330 C 72 411 84 479 109 533 C 134 587 176 630 234 662 C 292 694 369 716 465 730 C 560 743 678 750 819 750 L 877 750 C 875 784 871 813 865 839 C 858 864 845 885 826 901 C 807 917 780 930 745 938 C 710 946 664 950 608 950 C 572 950 538 947 506 941 C 474 935 444 927 416 918 C 388 908 362 898 338 887 C 314 875 294 864 276 854 L 152 1040 C 171 1053 197 1067 229 1083 C 261 1099 299 1113 341 1127 C 383 1140 428 1151 478 1160 C 527 1169 579 1174 633 1174 C 733 1174 813 1165 875 1148 C 937 1130 985 1103 1019 1066 C 1053 1029 1076 982 1088 924 C 1100 866 1106 796 1106 715 L 1106 330 C 1106 304 1107 283 1109 267 C 1111 251 1115 238 1122 230 C 1129 221 1140 215 1154 213 C 1168 210 1188 209 1214 209 L 1214 2 C 1206 0 1194 -1 1178 -1 C 1162 -1 1141 -2 1116 -2 C 1086 -2 1061 0 1039 3 C 1017 6 998 12 982 21 C 966 29 952 41 941 57 C 930 73 921 93 913 117 C 897 95 876 75 852 58 C 828 41 798 27 764 15 C 729 3 689 -5 643 -11 C 597 -17 545 -20 487 -20 Z M 528 184 C 589 184 642 190 686 202 C 730 214 766 232 794 258 C 822 283 843 315 857 354 C 870 393 877 440 877 494 L 877 553 L 834 553 C 721 553 630 549 560 542 C 490 535 435 524 396 508 C 357 492 331 471 317 445 C 303 419 297 386 297 348 C 297 321 300 297 307 277 C 314 257 326 240 344 226 C 361 212 385 201 415 194 C 445 187 482 184 528 184 Z M 522 1612 L 774 1612 L 1090 1262 L 862 1262 L 645 1456 L 432 1262 L 207 1262 L 522 1612 Z" unicode="" />
<glyph horiz-adv-x="1296" d="M 487 -20 C 403 -20 334 -10 280 7 C 226 25 183 50 153 82 C 122 113 101 150 89 193 C 77 235 72 281 72 330 C 72 411 84 479 109 533 C 134 587 176 630 234 662 C 292 694 369 716 465 730 C 560 743 678 750 819 750 L 877 750 C 875 784 871 813 865 839 C 858 864 845 885 826 901 C 807 917 780 930 745 938 C 710 946 664 950 608 950 C 572 950 538 947 506 941 C 474 935 444 927 416 918 C 388 908 362 898 338 887 C 314 875 294 864 276 854 L 152 1040 C 171 1053 197 1067 229 1083 C 261 1099 299 1113 341 1127 C 383 1140 428 1151 478 1160 C 527 1169 579 1174 633 1174 C 733 1174 813 1165 875 1148 C 937 1130 985 1103 1019 1066 C 1053 1029 1076 982 1088 924 C 1100 866 1106 796 1106 715 L 1106 330 C 1106 304 1107 283 1109 267 C 1111 251 1115 238 1122 230 C 1129 221 1140 215 1154 213 C 1168 210 1188 209 1214 209 L 1214 2 C 1206 0 1194 -1 1178 -1 C 1162 -1 1141 -2 1116 -2 C 1086 -2 1061 0 1039 3 C 1017 6 998 12 982 21 C 966 29 952 41 941 57 C 930 73 921 93 913 117 C 897 95 876 75 852 58 C 828 41 798 27 764 15 C 729 3 689 -5 643 -11 C 597 -17 545 -20 487 -20 Z M 528 184 C 589 184 642 190 686 202 C 730 214 766 232 794 258 C 822 283 843 315 857 354 C 870 393 877 440 877 494 L 877 553 L 834 553 C 721 553 630 549 560 542 C 490 535 435 524 396 508 C 357 492 331 471 317 445 C 303 419 297 386 297 348 C 297 321 300 297 307 277 C 314 257 326 240 344 226 C 361 212 385 201 415 194 C 445 187 482 184 528 184 Z M 207 1376 C 229 1404 252 1429 276 1452 C 300 1474 324 1494 350 1511 C 375 1527 400 1540 426 1549 C 452 1558 478 1563 504 1563 C 539 1563 569 1557 594 1546 C 618 1535 641 1523 661 1510 C 681 1497 701 1485 721 1474 C 740 1463 762 1458 788 1458 C 813 1458 839 1468 866 1488 C 893 1508 922 1537 952 1573 L 1092 1460 C 1069 1432 1045 1406 1021 1382 C 997 1358 972 1337 947 1319 C 921 1301 896 1287 870 1277 C 844 1267 818 1262 793 1262 C 760 1262 731 1267 707 1278 C 682 1288 659 1300 638 1313 C 616 1326 595 1338 575 1349 C 555 1360 532 1366 508 1366 C 484 1366 459 1357 432 1341 C 405 1324 378 1298 350 1262 L 207 1376 Z" unicode="" />
<glyph horiz-adv-x="1296" d="M 487 -20 C 403 -20 334 -10 280 7 C 226 25 183 50 153 82 C 122 113 101 150 89 193 C 77 235 72 281 72 330 C 72 411 84 479 109 533 C 134 587 176 630 234 662 C 292 694 369 716 465 730 C 560 743 678 750 819 750 L 877 750 C 875 784 871 813 865 839 C 858 864 845 885 826 901 C 807 917 780 930 745 938 C 710 946 664 950 608 950 C 572 950 538 947 506 941 C 474 935 444 927 416 918 C 388 908 362 898 338 887 C 314 875 294 864 276 854 L 152 1040 C 171 1053 197 1067 229 1083 C 261 1099 299 1113 341 1127 C 383 1140 428 1151 478 1160 C 527 1169 579 1174 633 1174 C 733 1174 813 1165 875 1148 C 937 1130 985 1103 1019 1066 C 1053 1029 1076 982 1088 924 C 1100 866 1106 796 1106 715 L 1106 330 C 1106 304 1107 283 1109 267 C 1111 251 1115 238 1122 230 C 1129 221 1140 215 1154 213 C 1168 210 1188 209 1214 209 L 1214 2 C 1206 0 1194 -1 1178 -1 C 1162 -1 1141 -2 1116 -2 C 1086 -2 1061 0 1039 3 C 1017 6 998 12 982 21 C 966 29 952 41 941 57 C 930 73 921 93 913 117 C 897 95 876 75 852 58 C 828 41 798 27 764 15 C 729 3 689 -5 643 -11 C 597 -17 545 -20 487 -20 Z M 528 184 C 589 184 642 190 686 202 C 730 214 766 232 794 258 C 822 283 843 315 857 354 C 870 393 877 440 877 494 L 877 553 L 834 553 C 721 553 630 549 560 542 C 490 535 435 524 396 508 C 357 492 331 471 317 445 C 303 419 297 386 297 348 C 297 321 300 297 307 277 C 314 257 326 240 344 226 C 361 212 385 201 415 194 C 445 187 482 184 528 184 Z M 317 1516 L 535 1516 L 535 1268 L 317 1268 L 317 1516 Z M 766 1516 L 981 1516 L 981 1268 L 766 1268 L 766 1516 Z" unicode="" />
<glyph horiz-adv-x="1296" d="M 487 -20 C 403 -20 334 -10 280 7 C 226 25 183 50 153 82 C 122 113 101 150 89 193 C 77 235 72 281 72 330 C 72 411 84 479 109 533 C 134 587 176 630 234 662 C 292 694 369 716 465 730 C 560 743 678 750 819 750 L 877 750 C 875 784 871 813 865 839 C 858 864 845 885 826 901 C 807 917 780 930 745 938 C 710 946 664 950 608 950 C 572 950 538 947 506 941 C 474 935 444 927 416 918 C 388 908 362 898 338 887 C 314 875 294 864 276 854 L 152 1040 C 171 1053 197 1067 229 1083 C 261 1099 299 1113 341 1127 C 383 1140 428 1151 478 1160 C 527 1169 579 1174 633 1174 C 733 1174 813 1165 875 1148 C 937 1130 985 1103 1019 1066 C 1053 1029 1076 982 1088 924 C 1100 866 1106 796 1106 715 L 1106 330 C 1106 304 1107 283 1109 267 C 1111 251 1115 238 1122 230 C 1129 221 1140 215 1154 213 C 1168 210 1188 209 1214 209 L 1214 2 C 1206 0 1194 -1 1178 -1 C 1162 -1 1141 -2 1116 -2 C 1086 -2 1061 0 1039 3 C 1017 6 998 12 982 21 C 966 29 952 41 941 57 C 930 73 921 93 913 117 C 897 95 876 75 852 58 C 828 41 798 27 764 15 C 729 3 689 -5 643 -11 C 597 -17 545 -20 487 -20 Z M 528 184 C 589 184 642 190 686 202 C 730 214 766 232 794 258 C 822 283 843 315 857 354 C 870 393 877 440 877 494 L 877 553 L 834 553 C 721 553 630 549 560 542 C 490 535 435 524 396 508 C 357 492 331 471 317 445 C 303 419 297 386 297 348 C 297 321 300 297 307 277 C 314 257 326 240 344 226 C 361 212 385 201 415 194 C 445 187 482 184 528 184 Z M 649 1233 C 601 1233 561 1240 527 1254 C 493 1268 465 1288 443 1313 C 421 1337 404 1366 394 1400 C 384 1434 379 1470 379 1509 C 379 1548 384 1585 394 1619 C 404 1653 421 1683 443 1709 C 465 1734 493 1754 527 1768 C 561 1782 601 1790 649 1790 C 694 1790 733 1782 767 1768 C 801 1754 829 1734 851 1709 C 873 1683 890 1653 901 1619 C 912 1585 918 1548 918 1509 C 918 1470 912 1434 901 1400 C 890 1366 873 1337 851 1313 C 829 1288 801 1268 767 1254 C 733 1240 694 1233 649 1233 Z M 649 1362 C 674 1362 696 1365 714 1373 C 732 1380 746 1390 758 1404 C 769 1417 777 1432 783 1450 C 788 1468 791 1487 791 1509 C 791 1529 788 1549 783 1567 C 777 1585 769 1601 758 1615 C 746 1629 732 1639 714 1647 C 696 1655 674 1659 649 1659 C 623 1659 601 1655 583 1647 C 565 1639 550 1629 538 1615 C 526 1601 518 1585 513 1567 C 508 1549 506 1529 506 1509 C 506 1487 508 1468 513 1450 C 518 1432 526 1417 538 1404 C 550 1390 565 1380 583 1373 C 601 1365 623 1362 649 1362 Z" unicode="" />
<glyph horiz-adv-x="2021" d="M 1440 -23 C 1375 -23 1318 -18 1268 -9 C 1218 0 1174 12 1136 29 C 1098 46 1065 67 1038 91 C 1011 115 989 142 971 172 C 947 130 919 97 887 72 C 855 46 820 27 781 13 C 741 0 698 -9 650 -13 C 602 -17 549 -20 492 -20 C 413 -20 347 -12 294 3 C 240 18 197 40 164 70 C 131 100 107 136 93 180 C 79 223 72 273 72 330 C 72 411 85 479 113 533 C 141 587 185 630 245 662 C 305 694 382 716 477 730 C 571 743 685 750 819 750 L 877 750 C 875 784 871 813 865 839 C 858 864 845 885 826 901 C 807 917 780 930 745 938 C 710 946 664 950 608 950 C 572 950 538 947 506 941 C 473 935 442 928 413 919 C 384 910 357 900 333 889 C 309 877 288 866 270 856 L 152 1040 C 171 1053 197 1067 229 1083 C 261 1099 299 1113 341 1127 C 383 1140 428 1151 478 1160 C 527 1169 579 1174 633 1174 C 687 1174 734 1170 775 1164 C 816 1158 852 1149 883 1137 C 913 1125 939 1110 961 1092 C 982 1074 1000 1054 1014 1032 C 1054 1076 1108 1110 1176 1136 C 1244 1161 1330 1174 1436 1174 C 1519 1174 1589 1165 1646 1147 C 1703 1129 1750 1105 1787 1073 C 1824 1041 1852 1004 1872 960 C 1892 916 1906 869 1915 817 C 1923 765 1928 711 1928 653 C 1928 595 1928 535 1927 475 L 1098 475 C 1101 429 1109 389 1121 353 C 1133 317 1152 286 1178 261 C 1204 235 1238 216 1280 202 C 1322 188 1376 182 1440 182 C 1485 182 1525 184 1560 190 C 1595 196 1627 203 1655 213 C 1683 223 1708 234 1732 248 C 1755 262 1778 277 1800 293 L 1929 127 C 1896 101 1863 79 1829 61 C 1795 42 1759 26 1720 14 C 1681 2 1639 -7 1593 -13 C 1547 -19 1496 -23 1440 -23 Z M 530 184 C 591 184 644 190 688 202 C 732 214 768 232 796 258 C 824 283 844 315 857 354 C 870 393 877 440 877 494 L 877 553 L 834 553 C 724 553 635 550 565 544 C 495 538 441 527 401 512 C 361 496 334 475 319 449 C 304 422 297 388 297 348 C 297 321 300 297 307 277 C 314 257 326 240 344 226 C 362 212 386 201 416 194 C 446 187 484 184 530 184 Z M 1430 963 C 1370 963 1319 956 1279 943 C 1239 929 1206 910 1181 886 C 1155 861 1136 831 1124 796 C 1111 761 1102 722 1098 680 L 1702 680 C 1700 720 1696 758 1690 793 C 1684 827 1673 857 1655 883 C 1637 908 1610 928 1575 942 C 1539 956 1491 963 1430 963 Z" unicode="" />
<glyph horiz-adv-x="1178" d="M 598 -487 C 544 -487 497 -481 455 -470 C 413 -458 376 -443 342 -424 L 406 -303 C 434 -317 464 -329 495 -337 C 526 -345 558 -350 590 -350 C 619 -350 643 -347 662 -343 C 680 -339 695 -333 705 -325 C 715 -317 723 -307 727 -295 C 731 -283 733 -270 733 -256 C 733 -220 718 -196 689 -186 C 659 -175 613 -172 549 -176 L 496 -139 L 520 -12 C 434 0 364 21 308 55 C 252 88 208 130 175 181 C 142 232 119 291 106 358 C 92 424 86 497 86 575 C 86 661 94 741 111 815 C 127 888 157 951 201 1004 C 244 1057 303 1099 378 1129 C 452 1159 548 1174 664 1174 C 714 1174 761 1169 805 1161 C 848 1152 888 1140 924 1124 C 960 1108 992 1090 1022 1068 C 1052 1046 1078 1021 1102 995 L 928 831 C 915 844 901 857 885 871 C 869 884 850 896 829 906 C 808 916 784 925 757 932 C 730 938 699 942 664 942 C 598 942 543 933 499 916 C 455 899 421 874 395 842 C 369 810 351 771 341 725 C 331 679 326 627 326 569 C 326 511 331 458 341 412 C 351 366 368 326 394 294 C 419 262 453 237 497 219 C 541 201 596 193 664 193 C 693 193 720 195 745 200 C 769 204 793 211 815 221 C 837 230 858 242 878 256 C 898 270 918 287 940 307 L 1100 156 C 1069 127 1038 102 1008 80 C 978 58 945 40 911 26 C 876 11 838 0 798 -7 C 757 -15 711 -19 659 -20 L 647 -88 C 679 -87 709 -88 739 -91 C 769 -93 795 -101 818 -113 C 841 -125 860 -144 874 -169 C 888 -194 895 -228 895 -272 C 895 -347 870 -402 822 -436 C 774 -470 699 -487 598 -487 Z" unicode="" />
<glyph horiz-adv-x="1241" d="M 659 -23 C 579 -23 509 -15 450 -1 C 390 12 339 33 297 59 C 255 85 220 116 193 152 C 165 188 144 229 128 273 C 112 317 101 365 95 416 C 89 467 86 520 86 575 C 86 629 89 681 95 732 C 101 783 113 831 129 875 C 145 919 167 960 195 997 C 223 1033 258 1065 300 1091 C 342 1117 392 1138 450 1152 C 508 1166 577 1174 655 1174 C 735 1174 804 1165 860 1147 C 916 1129 962 1105 999 1073 C 1036 1041 1065 1004 1085 960 C 1105 916 1120 869 1130 817 C 1140 765 1145 711 1147 653 C 1148 595 1148 535 1147 475 L 317 475 C 321 429 329 389 341 353 C 353 317 371 286 397 261 C 423 235 457 216 499 202 C 541 188 595 182 659 182 C 705 182 745 184 780 190 C 815 196 847 203 875 213 C 903 223 928 234 952 248 C 975 262 998 277 1020 293 L 1147 127 C 1114 101 1080 79 1046 61 C 1012 42 975 26 936 14 C 897 2 855 -7 809 -13 C 763 -19 713 -23 659 -23 Z M 649 963 C 589 963 539 956 499 943 C 459 929 426 910 401 886 C 375 861 356 831 343 797 C 330 763 321 724 317 682 L 922 682 C 919 722 915 760 909 795 C 903 829 892 859 874 884 C 856 908 829 928 794 942 C 758 956 710 963 649 963 Z M 215 1612 L 504 1612 L 803 1262 L 586 1262 L 215 1612 Z" unicode="" />
<glyph horiz-adv-x="1241" d="M 733 1612 L 1022 1612 L 651 1262 L 434 1262 L 733 1612 Z M 659 -23 C 579 -23 509 -15 450 -1 C 390 12 339 33 297 59 C 255 85 220 116 193 152 C 165 188 144 229 128 273 C 112 317 101 365 95 416 C 89 467 86 520 86 575 C 86 629 89 681 95 732 C 101 783 113 831 129 875 C 145 919 167 960 195 997 C 223 1033 258 1065 300 1091 C 342 1117 392 1138 450 1152 C 508 1166 577 1174 655 1174 C 735 1174 804 1165 860 1147 C 916 1129 962 1105 999 1073 C 1036 1041 1065 1004 1085 960 C 1105 916 1120 869 1130 817 C 1140 765 1145 711 1147 653 C 1148 595 1148 535 1147 475 L 317 475 C 321 429 329 389 341 353 C 353 317 371 286 397 261 C 423 235 457 216 499 202 C 541 188 595 182 659 182 C 705 182 745 184 780 190 C 815 196 847 203 875 213 C 903 223 928 234 952 248 C 975 262 998 277 1020 293 L 1147 127 C 1114 101 1080 79 1046 61 C 1012 42 975 26 936 14 C 897 2 855 -7 809 -13 C 763 -19 713 -23 659 -23 Z M 649 963 C 589 963 539 956 499 943 C 459 929 426 910 401 886 C 375 861 356 831 343 797 C 330 763 321 724 317 682 L 922 682 C 919 722 915 760 909 795 C 903 829 892 859 874 884 C 856 908 829 928 794 942 C 758 956 710 963 649 963 Z" unicode="" />
<glyph horiz-adv-x="1241" d="M 492 1612 L 743 1612 L 1059 1262 L 831 1262 L 614 1456 L 401 1262 L 176 1262 L 492 1612 Z M 659 -23 C 579 -23 509 -15 450 -1 C 390 12 339 33 297 59 C 255 85 220 116 193 152 C 165 188 144 229 128 273 C 112 317 101 365 95 416 C 89 467 86 520 86 575 C 86 629 89 681 95 732 C 101 783 113 831 129 875 C 145 919 167 960 195 997 C 223 1033 258 1065 300 1091 C 342 1117 392 1138 450 1152 C 508 1166 577 1174 655 1174 C 735 1174 804 1165 860 1147 C 916 1129 962 1105 999 1073 C 1036 1041 1065 1004 1085 960 C 1105 916 1120 869 1130 817 C 1140 765 1145 711 1147 653 C 1148 595 1148 535 1147 475 L 317 475 C 321 429 329 389 341 353 C 353 317 371 286 397 261 C 423 235 457 216 499 202 C 541 188 595 182 659 182 C 705 182 745 184 780 190 C 815 196 847 203 875 213 C 903 223 928 234 952 248 C 975 262 998 277 1020 293 L 1147 127 C 1114 101 1080 79 1046 61 C 1012 42 975 26 936 14 C 897 2 855 -7 809 -13 C 763 -19 713 -23 659 -23 Z M 649 963 C 589 963 539 956 499 943 C 459 929 426 910 401 886 C 375 861 356 831 343 797 C 330 763 321 724 317 682 L 922 682 C 919 722 915 760 909 795 C 903 829 892 859 874 884 C 856 908 829 928 794 942 C 758 956 710 963 649 963 Z" unicode="" />
<glyph horiz-adv-x="1241" d="M 287 1516 L 504 1516 L 504 1268 L 287 1268 L 287 1516 Z M 735 1516 L 950 1516 L 950 1268 L 735 1268 L 735 1516 Z M 659 -23 C 579 -23 509 -15 450 -1 C 390 12 339 33 297 59 C 255 85 220 116 193 152 C 165 188 144 229 128 273 C 112 317 101 365 95 416 C 89 467 86 520 86 575 C 86 629 89 681 95 732 C 101 783 113 831 129 875 C 145 919 167 960 195 997 C 223 1033 258 1065 300 1091 C 342 1117 392 1138 450 1152 C 508 1166 577 1174 655 1174 C 735 1174 804 1165 860 1147 C 916 1129 962 1105 999 1073 C 1036 1041 1065 1004 1085 960 C 1105 916 1120 869 1130 817 C 1140 765 1145 711 1147 653 C 1148 595 1148 535 1147 475 L 317 475 C 321 429 329 389 341 353 C 353 317 371 286 397 261 C 423 235 457 216 499 202 C 541 188 595 182 659 182 C 705 182 745 184 780 190 C 815 196 847 203 875 213 C 903 223 928 234 952 248 C 975 262 998 277 1020 293 L 1147 127 C 1114 101 1080 79 1046 61 C 1012 42 975 26 936 14 C 897 2 855 -7 809 -13 C 763 -19 713 -23 659 -23 Z M 649 963 C 589 963 539 956 499 943 C 459 929 426 910 401 886 C 375 861 356 831 343 797 C 330 763 321 724 317 682 L 922 682 C 919 722 915 760 909 795 C 903 829 892 859 874 884 C 856 908 829 928 794 942 C 758 956 710 963 649 963 Z" unicode="" />
<glyph horiz-adv-x="543" d="M -113 1606 L 176 1606 L 389 1260 L 170 1260 L -113 1606 Z M 154 1147 L 389 1147 L 389 0 L 154 0 L 154 1147 Z" unicode="" />
<glyph horiz-adv-x="543" d="M 367 1606 L 657 1606 L 375 1260 L 158 1260 L 367 1606 Z M 154 1147 L 389 1147 L 389 0 L 154 0 L 154 1147 Z" unicode="" />
<glyph horiz-adv-x="543" d="M 152 1606 L 389 1606 L 645 1260 L 422 1260 L 268 1458 L 113 1260 L -102 1260 L 152 1606 Z M 154 1147 L 389 1147 L 389 0 L 154 0 L 154 1147 Z" unicode="" />
<glyph horiz-adv-x="543" d="M -23 1522 L 172 1522 L 172 1278 L -23 1278 L -23 1522 Z M 373 1522 L 567 1522 L 567 1278 L 373 1278 L 373 1522 Z M 154 1147 L 389 1147 L 389 0 L 154 0 L 154 1147 Z" unicode="" />
<glyph horiz-adv-x="1325" d="M 592 1364 L 733 1397 C 695 1441 653 1488 606 1536 L 829 1622 C 857 1597 884 1571 910 1544 C 936 1516 961 1487 985 1456 L 1264 1522 L 1264 1354 L 1079 1311 C 1127 1219 1166 1116 1194 1000 C 1222 884 1237 753 1237 608 C 1237 496 1225 401 1202 321 C 1178 241 1143 176 1095 125 C 1047 74 987 37 915 13 C 843 -11 757 -23 659 -23 C 555 -23 466 -9 394 17 C 321 43 262 81 216 130 C 170 179 137 239 117 309 C 96 379 86 457 86 545 C 86 627 94 703 112 773 C 129 842 157 902 197 952 C 237 1002 289 1040 354 1068 C 418 1096 498 1110 594 1110 C 686 1110 760 1101 816 1085 C 872 1069 917 1043 950 1008 C 940 1046 926 1086 908 1127 C 890 1167 868 1209 840 1253 L 592 1196 L 592 1364 Z M 659 193 C 721 193 774 201 817 217 C 860 233 895 256 922 287 C 948 317 967 355 979 399 C 991 443 997 494 997 551 C 997 608 991 658 979 702 C 967 746 948 782 922 812 C 895 842 860 864 817 880 C 774 895 721 903 659 903 C 598 903 546 895 504 880 C 462 864 427 842 401 812 C 375 782 356 746 344 702 C 332 658 326 608 326 551 C 326 494 332 443 344 399 C 356 355 375 317 401 287 C 427 256 462 233 504 217 C 546 201 598 193 659 193 Z" unicode="" />
<glyph horiz-adv-x="1315" d="M 141 1133 L 328 1147 L 348 1047 C 362 1063 379 1079 401 1095 C 423 1110 450 1123 483 1135 C 516 1147 556 1156 603 1163 C 649 1170 704 1174 768 1174 C 856 1174 928 1162 982 1139 C 1036 1116 1078 1084 1107 1042 C 1136 1000 1155 949 1165 891 C 1175 832 1180 767 1180 696 L 1180 0 L 942 0 L 942 649 C 942 691 940 729 936 764 C 932 799 921 829 904 855 C 887 881 862 901 828 915 C 794 929 747 936 688 936 C 622 936 569 928 529 913 C 489 898 458 877 436 850 C 414 822 399 790 392 752 C 384 714 381 673 381 629 L 381 0 L 141 0 L 141 1133 Z M 213 1376 C 235 1404 258 1429 282 1452 C 306 1474 330 1494 356 1511 C 381 1527 407 1540 433 1549 C 459 1558 484 1563 510 1563 C 545 1563 575 1557 600 1546 C 624 1535 647 1523 667 1510 C 687 1497 707 1485 727 1474 C 747 1463 769 1458 795 1458 C 819 1458 845 1468 872 1488 C 899 1508 928 1537 958 1573 L 1098 1460 C 1075 1432 1051 1406 1027 1382 C 1003 1358 978 1337 953 1319 C 927 1301 902 1287 876 1277 C 850 1267 824 1262 799 1262 C 766 1262 737 1267 713 1278 C 688 1288 665 1300 644 1313 C 622 1326 601 1338 581 1349 C 561 1360 538 1366 514 1366 C 490 1366 465 1357 438 1341 C 411 1324 384 1298 356 1262 L 213 1376 Z" unicode="" />
<glyph horiz-adv-x="1323" d="M 662 -23 C 558 -23 470 -10 397 15 C 324 41 265 79 219 130 C 173 180 139 243 118 317 C 96 391 86 477 86 575 C 86 672 96 758 118 833 C 139 907 173 970 219 1020 C 265 1070 324 1109 397 1135 C 470 1161 558 1174 662 1174 C 765 1174 853 1161 926 1135 C 998 1109 1058 1070 1104 1020 C 1150 970 1183 907 1205 833 C 1226 758 1237 672 1237 575 C 1237 477 1226 391 1205 317 C 1183 243 1150 180 1104 130 C 1058 79 998 41 926 15 C 853 -10 765 -23 662 -23 Z M 662 193 C 724 193 777 201 820 218 C 862 235 897 260 923 292 C 949 324 968 363 980 410 C 991 456 997 509 997 569 C 997 628 991 681 980 728 C 968 774 949 814 923 846 C 897 878 862 902 820 919 C 777 935 724 944 662 944 C 598 944 545 935 502 919 C 459 902 425 878 399 846 C 373 814 354 774 343 728 C 331 681 326 628 326 569 C 326 509 331 456 343 410 C 354 363 373 324 399 292 C 425 260 459 235 502 218 C 545 201 598 193 662 193 Z M 256 1612 L 545 1612 L 844 1262 L 627 1262 L 256 1612 Z" unicode="" />
<glyph horiz-adv-x="1323" d="M 774 1612 L 1063 1612 L 692 1262 L 475 1262 L 774 1612 Z M 662 -23 C 558 -23 470 -10 397 15 C 324 41 265 79 219 130 C 173 180 139 243 118 317 C 96 391 86 477 86 575 C 86 672 96 758 118 833 C 139 907 173 970 219 1020 C 265 1070 324 1109 397 1135 C 470 1161 558 1174 662 1174 C 765 1174 853 1161 926 1135 C 998 1109 1058 1070 1104 1020 C 1150 970 1183 907 1205 833 C 1226 758 1237 672 1237 575 C 1237 477 1226 391 1205 317 C 1183 243 1150 180 1104 130 C 1058 79 998 41 926 15 C 853 -10 765 -23 662 -23 Z M 662 193 C 724 193 777 201 820 218 C 862 235 897 260 923 292 C 949 324 968 363 980 410 C 991 456 997 509 997 569 C 997 628 991 681 980 728 C 968 774 949 814 923 846 C 897 878 862 902 820 919 C 777 935 724 944 662 944 C 598 944 545 935 502 919 C 459 902 425 878 399 846 C 373 814 354 774 343 728 C 331 681 326 628 326 569 C 326 509 331 456 343 410 C 354 363 373 324 399 292 C 425 260 459 235 502 218 C 545 201 598 193 662 193 Z" unicode="" />
<glyph horiz-adv-x="1323" d="M 532 1612 L 784 1612 L 1100 1262 L 872 1262 L 655 1456 L 442 1262 L 217 1262 L 532 1612 Z M 662 -23 C 558 -23 470 -10 397 15 C 324 41 265 79 219 130 C 173 180 139 243 118 317 C 96 391 86 477 86 575 C 86 672 96 758 118 833 C 139 907 173 970 219 1020 C 265 1070 324 1109 397 1135 C 470 1161 558 1174 662 1174 C 765 1174 853 1161 926 1135 C 998 1109 1058 1070 1104 1020 C 1150 970 1183 907 1205 833 C 1226 758 1237 672 1237 575 C 1237 477 1226 391 1205 317 C 1183 243 1150 180 1104 130 C 1058 79 998 41 926 15 C 853 -10 765 -23 662 -23 Z M 662 193 C 724 193 777 201 820 218 C 862 235 897 260 923 292 C 949 324 968 363 980 410 C 991 456 997 509 997 569 C 997 628 991 681 980 728 C 968 774 949 814 923 846 C 897 878 862 902 820 919 C 777 935 724 944 662 944 C 598 944 545 935 502 919 C 459 902 425 878 399 846 C 373 814 354 774 343 728 C 331 681 326 628 326 569 C 326 509 331 456 343 410 C 354 363 373 324 399 292 C 425 260 459 235 502 218 C 545 201 598 193 662 193 Z" unicode="" />
<glyph horiz-adv-x="1323" d="M 662 -23 C 558 -23 470 -10 397 15 C 324 41 265 79 219 130 C 173 180 139 243 118 317 C 96 391 86 477 86 575 C 86 672 96 758 118 833 C 139 907 173 970 219 1020 C 265 1070 324 1109 397 1135 C 470 1161 558 1174 662 1174 C 765 1174 853 1161 926 1135 C 998 1109 1058 1070 1104 1020 C 1150 970 1183 907 1205 833 C 1226 758 1237 672 1237 575 C 1237 477 1226 391 1205 317 C 1183 243 1150 180 1104 130 C 1058 79 998 41 926 15 C 853 -10 765 -23 662 -23 Z M 662 193 C 724 193 777 201 820 218 C 862 235 897 260 923 292 C 949 324 968 363 980 410 C 991 456 997 509 997 569 C 997 628 991 681 980 728 C 968 774 949 814 923 846 C 897 878 862 902 820 919 C 777 935 724 944 662 944 C 598 944 545 935 502 919 C 459 902 425 878 399 846 C 373 814 354 774 343 728 C 331 681 326 628 326 569 C 326 509 331 456 343 410 C 354 363 373 324 399 292 C 425 260 459 235 502 218 C 545 201 598 193 662 193 Z M 217 1376 C 239 1404 262 1429 286 1452 C 310 1474 334 1494 360 1511 C 385 1527 411 1540 437 1549 C 463 1558 488 1563 514 1563 C 549 1563 579 1557 604 1546 C 628 1535 651 1523 671 1510 C 691 1497 711 1485 731 1474 C 751 1463 773 1458 799 1458 C 823 1458 849 1468 877 1488 C 904 1508 933 1537 963 1573 L 1102 1460 C 1079 1432 1055 1406 1031 1382 C 1007 1358 982 1337 957 1319 C 931 1301 906 1287 880 1277 C 854 1267 828 1262 803 1262 C 770 1262 741 1267 717 1278 C 692 1288 669 1300 648 1313 C 626 1326 605 1338 585 1349 C 565 1360 542 1366 518 1366 C 494 1366 469 1357 442 1341 C 415 1324 388 1298 360 1262 L 217 1376 Z" unicode="" />
<glyph horiz-adv-x="1323" d="M 328 1516 L 545 1516 L 545 1268 L 328 1268 L 328 1516 Z M 776 1516 L 991 1516 L 991 1268 L 776 1268 L 776 1516 Z M 662 -23 C 558 -23 470 -10 397 15 C 324 41 265 79 219 130 C 173 180 139 243 118 317 C 96 391 86 477 86 575 C 86 672 96 758 118 833 C 139 907 173 970 219 1020 C 265 1070 324 1109 397 1135 C 470 1161 558 1174 662 1174 C 765 1174 853 1161 926 1135 C 998 1109 1058 1070 1104 1020 C 1150 970 1183 907 1205 833 C 1226 758 1237 672 1237 575 C 1237 477 1226 391 1205 317 C 1183 243 1150 180 1104 130 C 1058 79 998 41 926 15 C 853 -10 765 -23 662 -23 Z M 662 193 C 724 193 777 201 820 218 C 862 235 897 260 923 292 C 949 324 968 363 980 410 C 991 456 997 509 997 569 C 997 628 991 681 980 728 C 968 774 949 814 923 846 C 897 878 862 902 820 919 C 777 935 724 944 662 944 C 598 944 545 935 502 919 C 459 902 425 878 399 846 C 373 814 354 774 343 728 C 331 681 326 628 326 569 C 326 509 331 456 343 410 C 354 363 373 324 399 292 C 425 260 459 235 502 218 C 545 201 598 193 662 193 Z" unicode="" />
<glyph horiz-adv-x="1452" d="M 598 426 L 854 426 L 854 188 L 598 188 L 598 426 Z M 205 836 L 1247 836 L 1247 608 L 205 608 L 205 836 Z M 598 1257 L 854 1257 L 854 1018 L 598 1018 L 598 1257 Z" unicode="" />
<glyph horiz-adv-x="1323" d="M 662 -23 C 615 -23 572 -20 533 -15 C 494 -10 458 -3 424 6 L 367 -86 L 152 -86 L 258 88 C 196 138 151 203 125 285 C 99 366 86 463 86 575 C 86 672 96 758 116 833 C 136 907 169 970 215 1020 C 260 1070 319 1109 393 1135 C 466 1161 556 1174 662 1174 C 707 1174 749 1171 789 1166 C 828 1161 865 1154 899 1145 L 954 1237 L 1171 1237 L 1065 1061 C 1126 1011 1170 945 1197 863 C 1223 781 1237 685 1237 575 C 1237 477 1226 391 1206 317 C 1186 243 1153 180 1108 130 C 1062 79 1003 41 930 15 C 857 -10 768 -23 662 -23 Z M 662 186 C 726 186 780 194 824 212 C 867 229 902 254 928 287 C 954 320 973 360 984 408 C 995 455 1001 509 1001 569 C 1001 629 995 683 984 731 C 973 778 954 818 926 852 L 532 201 C 550 195 570 191 592 189 C 613 187 636 186 662 186 Z M 322 569 C 322 509 327 456 337 409 C 347 361 365 321 391 289 L 782 938 C 748 946 708 950 662 950 C 596 950 542 941 498 924 C 454 906 420 881 394 849 C 368 817 349 777 338 730 C 327 682 322 629 322 569 Z" unicode="" />
<glyph horiz-adv-x="1300" d="M 653 -20 C 543 -20 454 -9 386 12 C 318 34 266 66 229 110 C 191 154 166 209 154 275 C 141 341 135 418 135 508 L 135 1147 L 373 1147 L 373 502 C 373 458 374 418 377 382 C 380 345 390 313 408 286 C 426 258 454 237 492 222 C 530 206 583 199 653 199 C 699 199 738 202 770 209 C 802 216 828 226 849 239 C 869 252 885 268 897 286 C 908 304 916 325 921 348 C 926 370 929 395 930 422 C 931 448 932 476 932 506 L 932 1147 L 1165 1147 L 1165 512 C 1165 422 1159 344 1147 278 C 1135 211 1110 156 1074 112 C 1038 68 986 35 919 13 C 851 -9 763 -20 653 -20 Z M 246 1612 L 535 1612 L 834 1262 L 616 1262 L 246 1612 Z" unicode="" />
<glyph horiz-adv-x="1300" d="M 764 1612 L 1053 1612 L 682 1262 L 465 1262 L 764 1612 Z M 653 -20 C 543 -20 454 -9 386 12 C 318 34 266 66 229 110 C 191 154 166 209 154 275 C 141 341 135 418 135 508 L 135 1147 L 373 1147 L 373 502 C 373 458 374 418 377 382 C 380 345 390 313 408 286 C 426 258 454 237 492 222 C 530 206 583 199 653 199 C 699 199 738 202 770 209 C 802 216 828 226 849 239 C 869 252 885 268 897 286 C 908 304 916 325 921 348 C 926 370 929 395 930 422 C 931 448 932 476 932 506 L 932 1147 L 1165 1147 L 1165 512 C 1165 422 1159 344 1147 278 C 1135 211 1110 156 1074 112 C 1038 68 986 35 919 13 C 851 -9 763 -20 653 -20 Z" unicode="" />
<glyph horiz-adv-x="1300" d="M 522 1612 L 774 1612 L 1090 1262 L 862 1262 L 645 1456 L 432 1262 L 207 1262 L 522 1612 Z M 653 -20 C 543 -20 454 -9 386 12 C 318 34 266 66 229 110 C 191 154 166 209 154 275 C 141 341 135 418 135 508 L 135 1147 L 373 1147 L 373 502 C 373 458 374 418 377 382 C 380 345 390 313 408 286 C 426 258 454 237 492 222 C 530 206 583 199 653 199 C 699 199 738 202 770 209 C 802 216 828 226 849 239 C 869 252 885 268 897 286 C 908 304 916 325 921 348 C 926 370 929 395 930 422 C 931 448 932 476 932 506 L 932 1147 L 1165 1147 L 1165 512 C 1165 422 1159 344 1147 278 C 1135 211 1110 156 1074 112 C 1038 68 986 35 919 13 C 851 -9 763 -20 653 -20 Z" unicode="" />
<glyph horiz-adv-x="1300" d="M 317 1516 L 535 1516 L 535 1268 L 317 1268 L 317 1516 Z M 766 1516 L 981 1516 L 981 1268 L 766 1268 L 766 1516 Z M 653 -20 C 543 -20 454 -9 386 12 C 318 34 266 66 229 110 C 191 154 166 209 154 275 C 141 341 135 418 135 508 L 135 1147 L 373 1147 L 373 502 C 373 458 374 418 377 382 C 380 345 390 313 408 286 C 426 258 454 237 492 222 C 530 206 583 199 653 199 C 699 199 738 202 770 209 C 802 216 828 226 849 239 C 869 252 885 268 897 286 C 908 304 916 325 921 348 C 926 370 929 395 930 422 C 931 448 932 476 932 506 L 932 1147 L 1165 1147 L 1165 512 C 1165 422 1159 344 1147 278 C 1135 211 1110 156 1074 112 C 1038 68 986 35 919 13 C 851 -9 763 -20 653 -20 Z" unicode="" />
<glyph horiz-adv-x="1141" d="M 264 -344 C 258 -344 251 -344 242 -344 C 232 -344 222 -344 212 -344 C 202 -344 192 -343 182 -343 C 172 -343 164 -342 158 -342 L 158 -152 L 244 -152 C 272 -152 297 -150 317 -148 C 337 -145 353 -140 367 -133 C 380 -125 391 -116 400 -104 C 408 -92 416 -76 422 -57 L 449 16 L 8 1147 L 262 1147 L 578 303 L 885 1147 L 1135 1147 L 657 -82 C 639 -129 620 -169 598 -202 C 576 -235 550 -262 520 -283 C 489 -304 453 -319 411 -329 C 369 -339 320 -344 264 -344 Z M 688 1612 L 977 1612 L 606 1262 L 389 1262 L 688 1612 Z" unicode="" />
<glyph horiz-adv-x="1360" d="M 141 1589 L 379 1589 L 379 1047 C 410 1089 458 1121 523 1142 C 587 1163 674 1174 784 1174 C 880 1174 960 1159 1024 1129 C 1087 1099 1137 1057 1174 1004 C 1211 950 1237 887 1252 814 C 1266 740 1274 661 1274 575 C 1274 489 1266 410 1251 338 C 1235 265 1209 202 1171 149 C 1133 96 1081 55 1017 25 C 952 -5 870 -20 772 -20 C 715 -20 665 -17 623 -12 C 580 -6 543 1 512 11 C 480 21 454 34 433 50 C 412 66 395 84 381 104 L 381 -338 L 141 -338 L 141 1589 Z M 729 197 C 789 197 839 205 878 223 C 917 240 948 265 971 297 C 993 329 1009 368 1018 414 C 1027 460 1032 511 1032 567 C 1032 623 1027 675 1019 721 C 1010 767 994 807 972 840 C 950 873 919 899 880 917 C 840 935 790 944 729 944 C 665 944 611 937 567 923 C 523 909 487 888 459 858 C 431 828 411 789 399 741 C 387 693 381 635 381 567 C 381 499 386 442 398 395 C 410 348 429 310 456 281 C 483 251 519 230 564 217 C 608 203 663 197 729 197 Z" unicode="" />
<glyph horiz-adv-x="1141" d="M 264 -344 C 258 -344 251 -344 242 -344 C 232 -344 222 -344 212 -344 C 202 -344 192 -343 182 -343 C 172 -343 164 -342 158 -342 L 158 -152 L 244 -152 C 272 -152 297 -150 317 -148 C 337 -145 353 -140 367 -133 C 380 -125 391 -116 400 -104 C 408 -92 416 -76 422 -57 L 449 16 L 8 1147 L 262 1147 L 578 303 L 885 1147 L 1135 1147 L 657 -82 C 639 -129 620 -169 598 -202 C 576 -235 550 -262 520 -283 C 489 -304 453 -319 411 -329 C 369 -339 320 -344 264 -344 Z M 242 1516 L 459 1516 L 459 1268 L 242 1268 L 242 1516 Z M 690 1516 L 905 1516 L 905 1268 L 690 1268 L 690 1516 Z" unicode="" />
<glyph horiz-adv-x="1550" d="" unicode="" />
<glyph horiz-adv-x="1296" d="" unicode="" />
<glyph horiz-adv-x="1550" d="M 647 1528 L 901 1528 L 1511 0 L 1255 0 L 1143 291 L 399 291 L 287 0 L 39 0 L 647 1528 Z M 1055 520 L 770 1231 L 485 520 L 1055 520 Z M 772 1579 C 700 1579 640 1588 592 1606 C 544 1624 504 1649 473 1681 C 442 1713 418 1750 401 1794 C 383 1838 370 1885 360 1937 L 535 1972 C 541 1940 550 1911 561 1887 C 571 1863 585 1842 603 1825 C 621 1808 643 1795 670 1787 C 697 1778 731 1774 772 1774 C 812 1774 846 1778 873 1787 C 900 1795 922 1808 940 1825 C 958 1842 972 1863 982 1887 C 992 1911 1001 1940 1008 1972 L 1186 1939 C 1174 1887 1160 1839 1142 1795 C 1124 1751 1100 1713 1069 1681 C 1037 1649 998 1624 950 1606 C 902 1588 843 1579 772 1579 Z" unicode="" />
<glyph horiz-adv-x="1296" d="M 487 -20 C 403 -20 334 -10 280 7 C 226 25 183 50 153 82 C 122 113 101 150 89 193 C 77 235 72 281 72 330 C 72 411 84 479 109 533 C 134 587 176 630 234 662 C 292 694 369 716 465 730 C 560 743 678 750 819 750 L 877 750 C 875 784 871 813 865 839 C 858 864 845 885 826 901 C 807 917 780 930 745 938 C 710 946 664 950 608 950 C 572 950 538 947 506 941 C 474 935 444 927 416 918 C 388 908 362 898 338 887 C 314 875 294 864 276 854 L 152 1040 C 171 1053 197 1067 229 1083 C 261 1099 299 1113 341 1127 C 383 1140 428 1151 478 1160 C 527 1169 579 1174 633 1174 C 733 1174 813 1165 875 1148 C 937 1130 985 1103 1019 1066 C 1053 1029 1076 982 1088 924 C 1100 866 1106 796 1106 715 L 1106 330 C 1106 304 1107 283 1109 267 C 1111 251 1115 238 1122 230 C 1129 221 1140 215 1154 213 C 1168 210 1188 209 1214 209 L 1214 2 C 1206 0 1194 -1 1178 -1 C 1162 -1 1141 -2 1116 -2 C 1086 -2 1061 0 1039 3 C 1017 6 998 12 982 21 C 966 29 952 41 941 57 C 930 73 921 93 913 117 C 897 95 876 75 852 58 C 828 41 798 27 764 15 C 729 3 689 -5 643 -11 C 597 -17 545 -20 487 -20 Z M 528 184 C 589 184 642 190 686 202 C 730 214 766 232 794 258 C 822 283 843 315 857 354 C 870 393 877 440 877 494 L 877 553 L 834 553 C 721 553 630 549 560 542 C 490 535 435 524 396 508 C 357 492 331 471 317 445 C 303 419 297 386 297 348 C 297 321 300 297 307 277 C 314 257 326 240 344 226 C 361 212 385 201 415 194 C 445 187 482 184 528 184 Z M 649 1235 C 577 1235 517 1244 469 1262 C 421 1280 382 1304 351 1336 C 320 1368 296 1405 279 1449 C 261 1493 248 1541 238 1593 L 412 1628 C 418 1596 427 1567 438 1543 C 448 1519 462 1498 480 1481 C 498 1464 520 1451 547 1443 C 574 1434 608 1430 649 1430 C 689 1430 723 1434 750 1443 C 777 1451 799 1464 817 1481 C 835 1498 849 1519 859 1543 C 869 1567 878 1596 885 1628 L 1063 1595 C 1051 1543 1037 1495 1019 1451 C 1001 1407 977 1369 946 1337 C 914 1305 875 1280 827 1262 C 779 1244 720 1235 649 1235 Z" unicode="" />
<glyph horiz-adv-x="1550" d="M 647 1528 L 901 1528 L 1511 0 L 1442 0 C 1377 -38 1329 -76 1298 -115 C 1266 -153 1251 -188 1251 -219 C 1251 -231 1252 -243 1255 -254 C 1258 -264 1264 -274 1273 -282 C 1281 -290 1294 -296 1310 -300 C 1326 -304 1346 -307 1372 -307 C 1398 -307 1424 -304 1450 -299 C 1476 -294 1498 -289 1518 -283 L 1563 -416 C 1531 -430 1496 -441 1458 -450 C 1420 -458 1381 -463 1341 -463 C 1287 -463 1242 -458 1206 -448 C 1170 -438 1142 -425 1121 -407 C 1100 -389 1085 -368 1077 -344 C 1069 -320 1065 -293 1065 -264 C 1065 -232 1070 -201 1082 -173 C 1094 -145 1109 -119 1127 -95 C 1145 -71 1164 -50 1186 -32 C 1208 -13 1229 2 1249 14 L 1143 291 L 399 291 L 287 0 L 39 0 L 647 1528 Z M 1055 520 L 770 1231 L 485 520 L 1055 520 Z" unicode="" />
<glyph horiz-adv-x="1296" d="M 487 -20 C 403 -20 334 -10 280 7 C 226 25 183 50 153 82 C 122 113 101 150 89 193 C 77 235 72 281 72 330 C 72 411 84 479 109 533 C 134 587 176 630 234 662 C 292 694 369 716 465 730 C 560 743 678 750 819 750 L 877 750 C 875 784 871 813 865 839 C 858 864 845 885 826 901 C 807 917 780 930 745 938 C 710 946 664 950 608 950 C 572 950 538 947 506 941 C 474 935 444 927 416 918 C 388 908 362 898 338 887 C 314 875 294 864 276 854 L 152 1040 C 171 1053 197 1067 229 1083 C 261 1099 299 1113 341 1127 C 383 1140 428 1151 478 1160 C 527 1169 579 1174 633 1174 C 733 1174 813 1165 875 1148 C 937 1130 985 1103 1019 1066 C 1053 1029 1076 982 1088 924 C 1100 866 1106 796 1106 715 L 1106 330 C 1106 304 1107 283 1109 267 C 1111 251 1115 238 1122 230 C 1129 221 1140 215 1154 213 C 1168 210 1188 209 1214 209 L 1214 2 C 1144 -38 1091 -76 1055 -114 C 1019 -152 1001 -187 1001 -219 C 1001 -231 1002 -243 1005 -254 C 1008 -264 1014 -274 1023 -282 C 1031 -290 1044 -296 1060 -300 C 1076 -304 1096 -307 1122 -307 C 1151 -307 1179 -304 1207 -299 C 1234 -293 1257 -287 1276 -279 L 1327 -412 C 1295 -427 1258 -439 1218 -449 C 1177 -458 1136 -463 1094 -463 C 1038 -463 993 -458 957 -448 C 921 -438 893 -425 873 -407 C 852 -389 837 -368 829 -344 C 821 -320 817 -293 817 -264 C 817 -229 823 -197 836 -168 C 848 -139 864 -113 884 -91 C 903 -68 924 -48 947 -32 C 970 -15 992 -2 1014 8 C 991 14 974 23 963 35 C 939 54 922 81 913 117 C 897 95 876 75 852 58 C 828 41 798 27 764 15 C 729 3 689 -5 643 -11 C 597 -17 545 -20 487 -20 Z M 528 184 C 589 184 642 190 686 202 C 730 214 766 232 794 258 C 822 283 843 315 857 354 C 870 393 877 440 877 494 L 877 553 L 834 553 C 721 553 630 549 560 542 C 490 535 435 524 396 508 C 357 492 331 471 317 445 C 303 419 297 386 297 348 C 297 321 300 297 307 277 C 314 257 326 240 344 226 C 361 212 385 201 415 194 C 445 187 482 184 528 184 Z" unicode="" />
<glyph horiz-adv-x="1516" d="M 870 1956 L 1159 1956 L 788 1606 L 571 1606 L 870 1956 Z M 844 -23 C 709 -23 593 -6 497 28 C 401 62 322 112 260 178 C 198 244 152 325 123 423 C 94 520 80 632 80 760 C 80 894 97 1011 132 1109 C 166 1207 217 1289 284 1353 C 350 1417 432 1464 528 1495 C 624 1526 734 1542 858 1542 C 980 1542 1087 1524 1179 1490 C 1271 1455 1351 1403 1421 1335 L 1241 1157 C 1191 1204 1135 1240 1073 1265 C 1011 1290 939 1303 856 1303 C 676 1303 544 1257 458 1165 C 372 1073 330 938 330 758 C 330 669 339 591 359 523 C 379 455 410 397 452 351 C 494 305 549 270 616 246 C 683 222 764 211 858 211 C 911 211 957 215 997 223 C 1036 231 1071 242 1102 256 C 1132 270 1160 286 1184 305 C 1208 323 1231 343 1255 365 L 1432 197 C 1404 168 1372 140 1337 114 C 1302 87 1261 63 1215 43 C 1168 23 1114 7 1054 -5 C 994 -17 924 -23 844 -23 Z" unicode="" />
<glyph horiz-adv-x="1178" d="M 705 1612 L 993 1612 L 623 1262 L 406 1262 L 705 1612 Z M 653 -20 C 540 -20 447 -5 374 24 C 301 53 243 94 201 147 C 158 199 128 262 111 335 C 94 407 86 487 86 575 C 86 661 94 741 111 815 C 127 888 157 951 201 1004 C 244 1057 303 1099 378 1129 C 452 1159 548 1174 664 1174 C 714 1174 761 1169 805 1161 C 848 1152 888 1140 924 1124 C 960 1108 992 1090 1022 1068 C 1052 1046 1078 1021 1102 995 L 928 831 C 915 844 901 857 885 871 C 869 884 850 896 829 906 C 808 916 784 925 757 932 C 730 938 699 942 664 942 C 598 942 543 933 499 916 C 455 899 421 874 395 842 C 369 810 351 771 341 725 C 331 679 326 627 326 569 C 326 511 331 458 341 412 C 351 366 368 326 394 294 C 419 262 453 237 497 219 C 541 201 596 193 664 193 C 693 193 720 195 745 200 C 769 204 793 211 815 221 C 837 230 858 242 878 256 C 898 270 918 287 940 307 L 1100 156 C 1069 127 1038 102 1008 80 C 977 58 944 39 909 25 C 874 10 836 0 794 -8 C 752 -16 705 -20 653 -20 Z" unicode="" />
<glyph horiz-adv-x="1516" d="" unicode="" />
<glyph horiz-adv-x="1178" d="" unicode="" />
<glyph horiz-adv-x="1516" d="" unicode="" />
<glyph horiz-adv-x="1178" d="" unicode="" />
<glyph horiz-adv-x="1516" d="M 313 1956 L 543 1956 L 758 1761 L 973 1956 L 1196 1956 L 881 1606 L 629 1606 L 313 1956 Z M 844 -23 C 709 -23 593 -6 497 28 C 401 62 322 112 260 178 C 198 244 152 325 123 423 C 94 520 80 632 80 760 C 80 894 97 1011 132 1109 C 166 1207 217 1289 284 1353 C 350 1417 432 1464 528 1495 C 624 1526 734 1542 858 1542 C 980 1542 1087 1524 1179 1490 C 1271 1455 1351 1403 1421 1335 L 1241 1157 C 1191 1204 1135 1240 1073 1265 C 1011 1290 939 1303 856 1303 C 676 1303 544 1257 458 1165 C 372 1073 330 938 330 758 C 330 669 339 591 359 523 C 379 455 410 397 452 351 C 494 305 549 270 616 246 C 683 222 764 211 858 211 C 911 211 957 215 997 223 C 1036 231 1071 242 1102 256 C 1132 270 1160 286 1184 305 C 1208 323 1231 343 1255 365 L 1432 197 C 1404 168 1372 140 1337 114 C 1302 87 1261 63 1215 43 C 1168 23 1114 7 1054 -5 C 994 -17 924 -23 844 -23 Z" unicode="" />
<glyph horiz-adv-x="1178" d="M 147 1612 L 377 1612 L 592 1417 L 807 1612 L 1030 1612 L 715 1262 L 463 1262 L 147 1612 Z M 653 -20 C 540 -20 447 -5 374 24 C 301 53 243 94 201 147 C 158 199 128 262 111 335 C 94 407 86 487 86 575 C 86 661 94 741 111 815 C 127 888 157 951 201 1004 C 244 1057 303 1099 378 1129 C 452 1159 548 1174 664 1174 C 714 1174 761 1169 805 1161 C 848 1152 888 1140 924 1124 C 960 1108 992 1090 1022 1068 C 1052 1046 1078 1021 1102 995 L 928 831 C 915 844 901 857 885 871 C 869 884 850 896 829 906 C 808 916 784 925 757 932 C 730 938 699 942 664 942 C 598 942 543 933 499 916 C 455 899 421 874 395 842 C 369 810 351 771 341 725 C 331 679 326 627 326 569 C 326 511 331 458 341 412 C 351 366 368 326 394 294 C 419 262 453 237 497 219 C 541 201 596 193 664 193 C 693 193 720 195 745 200 C 769 204 793 211 815 221 C 837 230 858 242 878 256 C 898 270 918 287 940 307 L 1100 156 C 1069 127 1038 102 1008 80 C 977 58 944 39 909 25 C 874 10 836 0 794 -8 C 752 -16 705 -20 653 -20 Z" unicode="" />
<glyph horiz-adv-x="1575" d="M 342 1956 L 571 1956 L 786 1761 L 1001 1956 L 1225 1956 L 909 1606 L 657 1606 L 342 1956 Z M 166 1518 L 684 1518 C 830 1518 955 1506 1058 1483 C 1161 1459 1245 1419 1310 1361 C 1375 1303 1422 1226 1452 1129 C 1482 1031 1497 908 1497 760 C 1497 614 1481 492 1449 395 C 1417 297 1368 219 1301 161 C 1234 102 1148 60 1044 36 C 939 12 814 0 668 0 L 166 0 L 166 1518 Z M 680 229 C 791 229 883 238 956 257 C 1029 276 1087 307 1130 349 C 1173 391 1203 445 1221 513 C 1238 580 1247 662 1247 760 C 1247 858 1239 940 1224 1007 C 1208 1073 1180 1127 1139 1168 C 1098 1208 1041 1237 969 1255 C 896 1273 802 1282 688 1282 L 414 1282 L 414 229 L 680 229 Z" unicode="" />
<glyph horiz-adv-x="1624" d="M 1362 1186 C 1387 1198 1408 1210 1424 1220 C 1440 1230 1453 1241 1463 1252 C 1472 1262 1478 1274 1482 1287 C 1485 1299 1487 1315 1487 1333 L 1374 1333 L 1374 1589 L 1618 1589 L 1618 1403 C 1618 1357 1615 1318 1611 1286 C 1606 1254 1596 1226 1582 1202 C 1567 1178 1546 1156 1520 1137 C 1494 1118 1459 1099 1417 1079 L 1362 1186 Z M 580 -20 C 483 -20 403 -4 339 25 C 275 55 225 97 188 151 C 150 204 124 267 109 341 C 93 414 86 494 86 580 C 86 664 93 743 109 815 C 124 887 151 950 189 1003 C 227 1055 279 1096 344 1126 C 408 1156 490 1171 588 1171 C 645 1171 695 1168 738 1162 C 781 1156 818 1148 849 1138 C 880 1128 906 1115 927 1100 C 948 1084 965 1067 979 1047 L 979 1589 L 1219 1589 L 1219 10 L 1036 -8 L 1010 115 C 992 92 971 72 946 56 C 921 39 891 25 857 14 C 823 2 783 -5 737 -11 C 691 -17 639 -20 580 -20 Z M 633 197 C 696 197 750 204 794 218 C 838 232 873 255 901 286 C 928 316 948 356 960 405 C 972 453 979 512 979 580 C 979 646 973 703 962 750 C 950 796 931 834 904 863 C 877 892 841 913 797 926 C 753 939 698 946 633 946 C 571 946 521 937 481 920 C 441 902 410 878 388 846 C 365 814 349 776 341 731 C 332 686 328 636 328 580 C 328 522 332 470 341 423 C 349 376 365 336 388 303 C 410 269 441 243 481 225 C 521 206 571 197 633 197 Z" unicode="" />
<glyph horiz-adv-x="1575" d="M 0 879 L 166 879 L 166 1518 L 684 1518 C 830 1518 955 1506 1058 1483 C 1161 1459 1245 1419 1310 1361 C 1375 1303 1422 1226 1452 1129 C 1482 1031 1497 908 1497 760 C 1497 614 1480 492 1448 395 C 1415 297 1365 219 1297 161 C 1229 102 1142 60 1038 36 C 934 12 810 0 668 0 L 166 0 L 166 672 L 0 672 L 0 879 Z M 680 229 C 791 229 883 238 956 257 C 1029 276 1087 307 1130 349 C 1173 391 1203 445 1221 513 C 1238 580 1247 662 1247 760 C 1247 858 1239 940 1224 1007 C 1208 1073 1180 1127 1139 1168 C 1098 1208 1041 1237 969 1255 C 896 1273 802 1282 688 1282 L 414 1282 L 414 879 L 727 879 L 727 672 L 414 672 L 414 229 L 680 229 Z" unicode="" />
<glyph horiz-adv-x="1360" d="M 692 1458 L 979 1458 L 979 1589 L 1219 1589 L 1219 1458 L 1360 1458 L 1360 1255 L 1219 1255 L 1219 10 L 1036 -8 L 1010 115 C 992 92 971 72 946 56 C 921 39 891 25 857 14 C 823 2 783 -5 737 -11 C 691 -17 639 -20 580 -20 C 483 -20 403 -4 339 25 C 275 55 225 97 188 151 C 150 204 124 267 109 341 C 93 414 86 494 86 580 C 86 664 93 743 109 815 C 124 887 151 950 189 1003 C 227 1055 279 1096 344 1126 C 408 1156 490 1171 588 1171 C 645 1171 695 1168 738 1162 C 781 1156 818 1148 849 1138 C 880 1128 906 1115 927 1100 C 948 1084 965 1067 979 1047 L 979 1255 L 692 1255 L 692 1458 Z M 633 197 C 696 197 750 204 794 218 C 838 232 873 255 901 286 C 928 316 948 356 960 405 C 972 453 979 512 979 580 C 979 646 973 703 962 750 C 950 796 931 834 904 863 C 877 892 841 913 797 926 C 753 939 698 946 633 946 C 571 946 521 937 481 920 C 441 902 410 878 388 846 C 365 814 349 776 341 731 C 332 686 328 636 328 580 C 328 522 332 470 341 423 C 349 376 365 336 388 303 C 410 269 441 243 481 225 C 521 206 571 197 633 197 Z" unicode="" />
<glyph horiz-adv-x="1358" d="" unicode="" />
<glyph horiz-adv-x="1241" d="" unicode="" />
<glyph horiz-adv-x="1358" d="" unicode="" />
<glyph horiz-adv-x="1241" d="" unicode="" />
<glyph horiz-adv-x="1358" d="" unicode="" />
<glyph horiz-adv-x="1241" d="" unicode="" />
<glyph horiz-adv-x="1358" d="M 166 1518 L 1237 1518 L 1237 1280 L 414 1280 L 414 899 L 1217 899 L 1217 664 L 414 664 L 414 233 L 1245 233 L 1245 0 L 1079 0 C 1018 -38 973 -76 943 -115 C 913 -154 899 -189 899 -219 C 899 -231 900 -243 903 -254 C 906 -264 912 -274 921 -282 C 929 -290 942 -296 958 -300 C 974 -304 994 -307 1020 -307 C 1036 -307 1052 -306 1069 -304 C 1085 -302 1101 -299 1117 -296 C 1132 -292 1146 -288 1160 -284 C 1174 -280 1186 -276 1196 -272 L 1247 -406 C 1231 -414 1212 -421 1192 -428 C 1172 -435 1150 -441 1128 -446 C 1105 -451 1082 -455 1058 -458 C 1034 -461 1011 -463 989 -463 C 935 -463 890 -458 854 -448 C 818 -438 790 -425 769 -407 C 748 -389 733 -368 725 -344 C 717 -320 713 -293 713 -264 C 713 -232 718 -203 728 -177 C 738 -150 751 -125 767 -103 C 783 -81 800 -61 820 -44 C 839 -26 858 -12 877 0 L 166 0 L 166 1518 Z" unicode="" />
<glyph horiz-adv-x="1241" d="M 659 -23 C 579 -23 509 -15 450 -1 C 390 12 339 33 297 59 C 255 85 220 116 193 152 C 165 188 144 229 128 273 C 112 317 101 365 95 416 C 89 467 86 520 86 575 C 86 629 89 681 95 732 C 101 783 113 831 129 875 C 145 919 167 960 195 997 C 223 1033 258 1065 300 1091 C 342 1117 392 1138 450 1152 C 508 1166 577 1174 655 1174 C 735 1174 804 1165 860 1147 C 916 1129 962 1105 999 1073 C 1036 1041 1065 1004 1085 960 C 1105 916 1120 869 1130 817 C 1140 765 1145 711 1147 653 C 1148 595 1148 535 1147 475 L 317 475 C 321 429 329 389 341 353 C 353 317 371 286 397 261 C 423 235 457 216 499 202 C 541 188 595 182 659 182 C 705 182 745 184 780 190 C 815 196 847 203 875 213 C 903 223 928 234 952 248 C 975 262 998 277 1020 293 L 1147 127 C 1113 101 1080 79 1046 61 C 1012 42 976 26 938 14 C 903 -5 873 -25 847 -46 C 821 -66 800 -87 783 -107 C 766 -127 753 -147 745 -166 C 737 -185 733 -203 733 -219 C 733 -231 734 -243 737 -254 C 740 -264 746 -274 755 -282 C 763 -290 776 -296 792 -300 C 808 -304 828 -307 854 -307 C 870 -307 886 -306 903 -304 C 919 -302 935 -299 951 -296 C 967 -292 981 -288 995 -284 C 1008 -280 1020 -276 1030 -272 L 1081 -406 C 1065 -414 1046 -421 1026 -428 C 1006 -435 984 -441 962 -446 C 939 -451 916 -455 892 -458 C 868 -461 845 -463 823 -463 C 769 -463 724 -458 688 -448 C 652 -438 624 -425 603 -407 C 582 -389 567 -368 559 -344 C 551 -320 547 -293 547 -264 C 547 -237 550 -212 558 -188 C 566 -164 576 -142 588 -122 C 600 -102 615 -83 631 -67 C 647 -50 663 -35 680 -23 L 659 -23 Z M 649 963 C 589 963 539 956 499 943 C 459 929 426 910 401 886 C 375 861 356 831 343 797 C 330 763 321 724 317 682 L 922 682 C 919 722 915 760 909 795 C 903 829 892 859 874 884 C 856 908 829 928 794 942 C 758 956 710 963 649 963 Z" unicode="" />
<glyph horiz-adv-x="1358" d="M 233 1956 L 463 1956 L 678 1761 L 893 1956 L 1116 1956 L 801 1606 L 549 1606 L 233 1956 Z M 166 1518 L 1237 1518 L 1237 1280 L 414 1280 L 414 899 L 1217 899 L 1217 664 L 414 664 L 414 233 L 1245 233 L 1245 0 L 166 0 L 166 1518 Z" unicode="" />
<glyph horiz-adv-x="1241" d="M 176 1612 L 406 1612 L 621 1417 L 836 1612 L 1059 1612 L 743 1262 L 492 1262 L 176 1612 Z M 659 -23 C 579 -23 509 -15 450 -1 C 390 12 339 33 297 59 C 255 85 220 116 193 152 C 165 188 144 229 128 273 C 112 317 101 365 95 416 C 89 467 86 520 86 575 C 86 629 89 681 95 732 C 101 783 113 831 129 875 C 145 919 167 960 195 997 C 223 1033 258 1065 300 1091 C 342 1117 392 1138 450 1152 C 508 1166 577 1174 655 1174 C 735 1174 804 1165 860 1147 C 916 1129 962 1105 999 1073 C 1036 1041 1065 1004 1085 960 C 1105 916 1120 869 1130 817 C 1140 765 1145 711 1147 653 C 1148 595 1148 535 1147 475 L 317 475 C 321 429 329 389 341 353 C 353 317 371 286 397 261 C 423 235 457 216 499 202 C 541 188 595 182 659 182 C 705 182 745 184 780 190 C 815 196 847 203 875 213 C 903 223 928 234 952 248 C 975 262 998 277 1020 293 L 1147 127 C 1114 101 1080 79 1046 61 C 1012 42 975 26 936 14 C 897 2 855 -7 809 -13 C 763 -19 713 -23 659 -23 Z M 649 963 C 589 963 539 956 499 943 C 459 929 426 910 401 886 C 375 861 356 831 343 797 C 330 763 321 724 317 682 L 922 682 C 919 722 915 760 909 795 C 903 829 892 859 874 884 C 856 908 829 928 794 942 C 758 956 710 963 649 963 Z" unicode="" />
<glyph horiz-adv-x="1614" d="" unicode="" />
<glyph horiz-adv-x="1278" d="" unicode="" />
<glyph horiz-adv-x="1614" d="M 842 -23 C 698 -23 578 -6 481 27 C 383 61 305 111 246 177 C 186 243 144 324 118 422 C 92 520 80 632 80 760 C 80 896 97 1014 131 1113 C 165 1211 215 1292 281 1356 C 347 1419 428 1466 524 1496 C 620 1526 731 1542 856 1542 C 930 1542 998 1536 1058 1526 C 1118 1515 1171 1500 1219 1482 C 1266 1463 1308 1441 1344 1417 C 1380 1393 1412 1367 1440 1339 L 1262 1157 C 1240 1177 1217 1195 1192 1213 C 1166 1231 1137 1246 1105 1260 C 1073 1273 1036 1283 995 1291 C 954 1299 907 1303 854 1303 C 763 1303 685 1291 619 1269 C 553 1246 498 1212 455 1167 C 412 1121 380 1064 359 996 C 338 928 328 848 328 758 C 328 664 336 582 354 512 C 371 442 400 383 441 337 C 481 291 535 256 602 233 C 669 210 752 199 852 199 C 939 199 1011 207 1068 223 C 1125 239 1170 264 1203 298 C 1236 331 1259 372 1272 422 C 1285 472 1292 530 1292 598 L 1292 637 L 823 637 L 823 860 L 1538 860 L 1538 645 C 1538 539 1527 444 1507 361 C 1487 278 1451 208 1399 151 C 1347 94 1276 51 1186 21 C 1096 -8 981 -23 842 -23 Z M 805 1579 C 733 1579 673 1588 625 1606 C 577 1624 537 1649 506 1681 C 475 1713 451 1750 434 1794 C 416 1838 403 1885 393 1937 L 567 1972 C 574 1940 583 1911 593 1887 C 603 1863 618 1842 636 1825 C 654 1808 676 1795 703 1787 C 730 1778 764 1774 805 1774 C 845 1774 879 1778 906 1787 C 933 1795 955 1808 973 1825 C 991 1842 1005 1863 1015 1887 C 1025 1911 1033 1940 1040 1972 L 1219 1939 C 1207 1887 1193 1839 1175 1795 C 1157 1751 1133 1713 1102 1681 C 1070 1649 1031 1624 983 1606 C 935 1588 876 1579 805 1579 Z" unicode="" />
<glyph horiz-adv-x="1278" d="M 616 418 C 548 418 488 422 438 430 C 432 422 427 413 423 403 C 419 393 418 383 418 373 C 418 357 421 344 427 334 C 433 324 445 316 461 311 C 477 305 498 302 526 300 C 554 298 589 297 633 297 C 743 297 835 292 909 282 C 982 272 1040 256 1084 233 C 1128 209 1159 178 1177 139 C 1195 99 1204 50 1204 -10 C 1204 -73 1192 -127 1170 -173 C 1148 -218 1113 -255 1065 -284 C 1017 -312 955 -333 880 -347 C 805 -360 715 -367 610 -367 C 510 -367 424 -363 353 -355 C 282 -347 224 -332 179 -311 C 134 -290 101 -261 80 -225 C 59 -188 49 -141 49 -84 C 49 -52 53 -21 61 6 C 69 34 83 60 101 83 C 119 105 142 125 172 142 C 201 158 237 171 279 180 C 251 197 232 219 222 246 C 212 272 207 302 207 334 C 207 362 211 390 219 418 C 227 446 238 471 254 494 C 161 554 115 651 115 786 C 115 848 124 904 143 952 C 162 1000 192 1040 232 1073 C 272 1105 324 1130 388 1146 C 451 1162 527 1171 616 1171 L 645 1171 L 1157 1253 L 1157 1057 L 979 1057 C 1024 1032 1059 998 1083 956 C 1107 914 1120 857 1120 786 C 1120 722 1110 667 1090 621 C 1070 575 1040 537 999 507 C 958 477 906 454 843 440 C 779 425 704 418 616 418 Z M 616 602 C 666 602 708 605 742 613 C 776 620 803 631 825 646 C 846 661 861 680 871 703 C 880 726 885 754 885 786 C 885 850 863 897 821 927 C 778 956 710 971 616 971 C 566 971 524 967 490 960 C 456 952 428 941 407 926 C 385 911 370 892 360 869 C 350 845 346 818 346 786 C 346 754 350 726 360 703 C 370 680 385 661 407 646 C 428 631 456 620 490 613 C 524 605 566 602 616 602 Z M 618 -182 C 688 -182 745 -178 790 -172 C 834 -165 869 -155 895 -141 C 921 -127 938 -111 948 -91 C 958 -71 963 -49 963 -23 C 963 3 957 24 946 41 C 934 57 915 70 888 80 C 861 89 826 95 782 99 C 738 102 683 104 618 104 C 544 104 486 100 443 93 C 399 85 366 75 344 62 C 321 49 306 34 299 16 C 292 -2 289 -21 289 -43 C 289 -69 294 -90 306 -108 C 317 -126 335 -140 361 -151 C 387 -162 421 -170 463 -175 C 505 -179 556 -182 618 -182 Z M 637 1235 C 565 1235 505 1244 457 1262 C 409 1280 369 1304 338 1336 C 307 1368 283 1405 266 1449 C 248 1493 235 1541 225 1593 L 399 1628 C 406 1596 415 1567 425 1543 C 435 1519 450 1498 468 1481 C 486 1464 508 1451 535 1443 C 562 1434 596 1430 637 1430 C 677 1430 711 1434 738 1443 C 765 1451 787 1464 805 1481 C 823 1498 837 1519 847 1543 C 857 1567 865 1596 872 1628 L 1051 1595 C 1039 1543 1025 1495 1007 1451 C 989 1407 965 1369 934 1337 C 902 1305 863 1280 815 1262 C 767 1244 708 1235 637 1235 Z" unicode="" />
<glyph horiz-adv-x="1614" d="" unicode="" />
<glyph horiz-adv-x="1278" d="" unicode="" />
<glyph horiz-adv-x="1614" d="" unicode="" />
<glyph horiz-adv-x="1278" d="" unicode="" />
<glyph horiz-adv-x="1630" d="" unicode="" />
<glyph horiz-adv-x="1315" d="" unicode="" />
<glyph horiz-adv-x="1630" d="" unicode="" />
<glyph horiz-adv-x="1315" d="" unicode="" />
<glyph horiz-adv-x="614" d="" unicode="" />
<glyph horiz-adv-x="543" d="" unicode="" />
<glyph horiz-adv-x="614" d="" unicode="" />
<glyph horiz-adv-x="543" d="" unicode="" />
<glyph horiz-adv-x="614" d="" unicode="" />
<glyph horiz-adv-x="543" d="" unicode="" />
<glyph horiz-adv-x="614" d="" unicode="" />
<glyph horiz-adv-x="543" d="" unicode="" />
<glyph horiz-adv-x="614" d="M 184 1518 L 430 1518 L 430 0 L 184 0 L 184 1518 Z M 188 1858 L 430 1858 L 430 1602 L 188 1602 L 188 1858 Z" unicode="" />
<glyph horiz-adv-x="543" d="M 154 1147 L 389 1147 L 389 0 L 154 0 L 154 1147 Z" unicode="" />
<glyph horiz-adv-x="1489" d="" unicode="" />
<glyph horiz-adv-x="1087" d="" unicode="" />
<glyph horiz-adv-x="874" d="" unicode="" />
<glyph horiz-adv-x="543" d="" unicode="" />
<glyph horiz-adv-x="1499" d="" unicode="" />
<glyph horiz-adv-x="1174" d="" unicode="" />
<glyph horiz-adv-x="1174" d="" unicode="" />
<glyph horiz-adv-x="1233" d="M 475 1956 L 764 1956 L 393 1606 L 176 1606 L 475 1956 Z M 166 1518 L 414 1518 L 414 227 L 1190 227 L 1190 0 L 166 0 L 166 1518 Z" unicode="" />
<glyph horiz-adv-x="649" d="M 457 2017 L 745 2017 L 375 1667 L 158 1667 L 457 2017 Z M 428 -2 C 379 -2 337 3 303 14 C 268 24 240 42 218 67 C 196 92 179 125 169 165 C 159 205 154 255 154 315 L 154 1589 L 389 1589 L 389 344 C 389 318 390 297 393 281 C 396 264 402 250 411 240 C 419 229 432 221 448 217 C 464 213 485 211 512 211 L 555 211 L 555 2 C 545 0 528 0 505 -1 C 481 -1 456 -2 428 -2 Z" unicode="" />
<glyph horiz-adv-x="1233" d="" unicode="" />
<glyph horiz-adv-x="649" d="" unicode="" />
<glyph horiz-adv-x="1233" d="M 588 1186 C 613 1198 634 1210 650 1220 C 666 1230 679 1241 689 1252 C 698 1262 704 1274 708 1287 C 711 1299 713 1315 713 1333 L 600 1333 L 600 1589 L 844 1589 L 844 1403 C 844 1357 841 1318 837 1286 C 832 1254 822 1226 808 1202 C 793 1178 772 1156 746 1137 C 720 1118 685 1099 643 1079 L 588 1186 Z M 166 1518 L 414 1518 L 414 227 L 1190 227 L 1190 0 L 166 0 L 166 1518 Z" unicode="" />
<glyph horiz-adv-x="803" d="M 541 1186 C 566 1198 587 1210 603 1220 C 619 1230 632 1241 642 1252 C 651 1262 657 1274 661 1287 C 664 1299 666 1315 666 1333 L 553 1333 L 553 1589 L 797 1589 L 797 1403 C 797 1357 794 1318 790 1286 C 785 1254 775 1226 761 1202 C 746 1178 725 1156 699 1137 C 673 1118 638 1099 596 1079 L 541 1186 Z M 428 -2 C 379 -2 337 3 303 14 C 268 24 240 42 218 67 C 196 92 179 125 169 165 C 159 205 154 255 154 315 L 154 1589 L 389 1589 L 389 344 C 389 318 390 297 393 281 C 396 264 402 250 411 240 C 419 229 432 221 448 217 C 464 213 485 211 512 211 L 555 211 L 555 2 C 545 0 528 0 505 -1 C 481 -1 456 -2 428 -2 Z" unicode="" />
<glyph horiz-adv-x="1352" d="" unicode="" />
<glyph horiz-adv-x="1122" d="" unicode="" />
<glyph horiz-adv-x="1233" d="M 0 784 L 166 877 L 166 1518 L 414 1518 L 414 1016 L 725 1190 L 725 977 L 414 803 L 414 227 L 1190 227 L 1190 0 L 166 0 L 166 666 L 0 573 L 0 784 Z" unicode="" />
<glyph horiz-adv-x="776" d="M 47 932 L 240 1042 L 240 1589 L 477 1589 L 477 1180 L 686 1300 L 686 1098 L 477 977 L 477 336 C 477 310 478 288 481 271 C 484 254 490 240 498 230 C 506 219 519 211 535 207 C 551 203 572 201 598 201 L 643 201 L 643 2 C 633 0 616 0 593 -1 C 569 -1 544 -2 516 -2 C 466 -2 424 3 389 14 C 354 24 326 42 304 67 C 282 91 265 123 255 163 C 245 202 240 251 240 309 L 240 840 L 47 729 L 47 932 Z" unicode="" />
<glyph horiz-adv-x="1640" d="M 932 1956 L 1221 1956 L 850 1606 L 633 1606 L 932 1956 Z M 166 1518 L 434 1518 L 1233 422 L 1233 1518 L 1475 1518 L 1475 0 L 1247 0 L 408 1149 L 408 0 L 166 0 L 166 1518 Z" unicode="" />
<glyph horiz-adv-x="1315" d="M 770 1612 L 1059 1612 L 688 1262 L 471 1262 L 770 1612 Z M 141 1133 L 328 1147 L 348 1047 C 362 1063 379 1079 401 1095 C 423 1110 450 1123 483 1135 C 516 1147 556 1156 603 1163 C 649 1170 704 1174 768 1174 C 856 1174 928 1162 982 1139 C 1036 1116 1078 1084 1107 1042 C 1136 1000 1155 949 1165 891 C 1175 832 1180 767 1180 696 L 1180 0 L 942 0 L 942 649 C 942 691 940 729 936 764 C 932 799 921 829 904 855 C 887 881 862 901 828 915 C 794 929 747 936 688 936 C 622 936 569 928 529 913 C 489 898 458 877 436 850 C 414 822 399 790 392 752 C 384 714 381 673 381 629 L 381 0 L 141 0 L 141 1133 Z" unicode="" />
<glyph horiz-adv-x="1640" d="" unicode="" />
<glyph horiz-adv-x="1315" d="" unicode="" />
<glyph horiz-adv-x="1640" d="M 375 1956 L 604 1956 L 819 1761 L 1034 1956 L 1257 1956 L 942 1606 L 690 1606 L 375 1956 Z M 166 1518 L 434 1518 L 1233 422 L 1233 1518 L 1475 1518 L 1475 0 L 1247 0 L 408 1149 L 408 0 L 166 0 L 166 1518 Z" unicode="" />
<glyph horiz-adv-x="1315" d="M 213 1612 L 442 1612 L 657 1417 L 872 1612 L 1096 1612 L 780 1262 L 528 1262 L 213 1612 Z M 141 1133 L 328 1147 L 348 1047 C 362 1063 379 1079 401 1095 C 423 1110 450 1123 483 1135 C 516 1147 556 1156 603 1163 C 649 1170 704 1174 768 1174 C 856 1174 928 1162 982 1139 C 1036 1116 1078 1084 1107 1042 C 1136 1000 1155 949 1165 891 C 1175 832 1180 767 1180 696 L 1180 0 L 942 0 L 942 649 C 942 691 940 729 936 764 C 932 799 921 829 904 855 C 887 881 862 901 828 915 C 794 929 747 936 688 936 C 622 936 569 928 529 913 C 489 898 458 877 436 850 C 414 822 399 790 392 752 C 384 714 381 673 381 629 L 381 0 L 141 0 L 141 1133 Z" unicode="" />
<glyph horiz-adv-x="1798" d="" unicode="" />
<glyph horiz-adv-x="1640" d="" unicode="" />
<glyph horiz-adv-x="1315" d="" unicode="" />
<glyph horiz-adv-x="1726" d="" unicode="" />
<glyph horiz-adv-x="1323" d="" unicode="" />
<glyph horiz-adv-x="1726" d="" unicode="" />
<glyph horiz-adv-x="1323" d="" unicode="" />
<glyph horiz-adv-x="1726" d="M 686 1950 L 963 1950 L 631 1604 L 428 1604 L 686 1950 Z M 1194 1950 L 1470 1950 L 1141 1604 L 936 1604 L 1194 1950 Z M 862 -25 C 740 -25 631 -10 535 19 C 438 48 356 94 289 158 C 221 221 170 302 134 401 C 98 500 80 620 80 760 C 80 899 98 1018 134 1117 C 170 1215 221 1296 289 1359 C 356 1422 438 1468 535 1498 C 631 1527 740 1542 862 1542 C 983 1542 1092 1527 1189 1498 C 1286 1468 1368 1422 1436 1359 C 1504 1296 1556 1215 1592 1117 C 1628 1018 1647 899 1647 760 C 1647 620 1628 500 1592 401 C 1556 302 1504 221 1436 158 C 1368 94 1286 48 1189 19 C 1092 -10 983 -25 862 -25 Z M 862 207 C 957 207 1038 219 1106 244 C 1174 268 1229 304 1272 351 C 1315 397 1347 455 1367 523 C 1387 591 1397 668 1397 756 C 1397 842 1387 919 1367 987 C 1347 1055 1315 1112 1272 1159 C 1229 1205 1174 1241 1106 1266 C 1038 1290 957 1303 862 1303 C 767 1303 686 1290 619 1266 C 551 1241 496 1205 454 1159 C 411 1112 380 1055 360 987 C 340 919 330 842 330 756 C 330 668 340 591 360 523 C 380 455 411 397 454 351 C 496 304 551 268 619 244 C 686 219 767 207 862 207 Z" unicode="" />
<glyph horiz-adv-x="1323" d="M 483 1606 L 760 1606 L 428 1260 L 225 1260 L 483 1606 Z M 991 1606 L 1268 1606 L 938 1260 L 733 1260 L 991 1606 Z M 662 -23 C 558 -23 470 -10 397 15 C 324 41 265 79 219 130 C 173 180 139 243 118 317 C 96 391 86 477 86 575 C 86 672 96 758 118 833 C 139 907 173 970 219 1020 C 265 1070 324 1109 397 1135 C 470 1161 558 1174 662 1174 C 765 1174 853 1161 926 1135 C 998 1109 1058 1070 1104 1020 C 1150 970 1183 907 1205 833 C 1226 758 1237 672 1237 575 C 1237 477 1226 391 1205 317 C 1183 243 1150 180 1104 130 C 1058 79 998 41 926 15 C 853 -10 765 -23 662 -23 Z M 662 193 C 724 193 777 201 820 218 C 862 235 897 260 923 292 C 949 324 968 363 980 410 C 991 456 997 509 997 569 C 997 628 991 681 980 728 C 968 774 949 814 923 846 C 897 878 862 902 820 919 C 777 935 724 944 662 944 C 598 944 545 935 502 919 C 459 902 425 878 399 846 C 373 814 354 774 343 728 C 331 681 326 628 326 569 C 326 509 331 456 343 410 C 354 363 373 324 399 292 C 425 260 459 235 502 218 C 545 201 598 193 662 193 Z" unicode="" />
<glyph horiz-adv-x="2583" d="M 1413 170 C 1293 40 1109 -25 862 -25 C 738 -25 627 -10 531 19 C 434 48 352 94 285 158 C 218 221 167 302 132 401 C 97 500 80 620 80 760 C 80 899 97 1018 132 1117 C 167 1215 218 1296 285 1359 C 352 1422 434 1468 531 1498 C 627 1527 738 1542 862 1542 C 986 1542 1094 1525 1185 1493 C 1276 1461 1352 1412 1413 1348 L 1413 1518 L 2462 1518 L 2462 1280 L 1638 1280 L 1638 895 L 2441 895 L 2441 666 L 1638 666 L 1638 227 L 2470 227 L 2470 0 L 1413 0 L 1413 170 Z M 862 207 C 960 207 1042 219 1110 244 C 1178 268 1233 304 1276 351 C 1318 397 1349 455 1368 523 C 1387 591 1397 668 1397 756 C 1397 842 1387 919 1368 987 C 1349 1055 1318 1112 1276 1159 C 1233 1205 1178 1241 1110 1266 C 1042 1290 960 1303 862 1303 C 764 1303 681 1290 613 1266 C 545 1241 491 1205 449 1159 C 407 1112 376 1055 358 987 C 339 919 330 842 330 756 C 330 668 339 591 358 523 C 376 455 407 397 449 351 C 491 304 545 268 613 244 C 681 219 764 207 862 207 Z" unicode="" />
<glyph horiz-adv-x="2152" d="M 1571 -23 C 1509 -23 1454 -18 1406 -10 C 1358 -2 1315 9 1278 25 C 1240 41 1208 60 1181 82 C 1153 104 1130 128 1112 156 C 1070 97 1012 52 940 22 C 867 -7 774 -23 662 -23 C 556 -23 466 -10 393 15 C 319 41 260 79 215 130 C 169 180 136 243 116 317 C 96 391 86 477 86 575 C 86 672 96 758 116 833 C 136 907 169 970 215 1020 C 260 1070 319 1109 393 1135 C 466 1161 556 1174 662 1174 C 775 1174 868 1158 941 1127 C 1014 1096 1072 1051 1114 993 C 1132 1020 1155 1045 1182 1067 C 1209 1089 1241 1108 1278 1124 C 1314 1140 1356 1152 1404 1161 C 1452 1169 1506 1174 1567 1174 C 1650 1174 1720 1165 1777 1147 C 1834 1129 1881 1105 1918 1073 C 1955 1041 1983 1004 2003 960 C 2023 916 2037 869 2046 817 C 2054 765 2059 711 2059 653 C 2059 595 2059 535 2058 475 L 1229 475 C 1232 429 1240 389 1252 353 C 1264 317 1283 286 1309 261 C 1335 235 1369 216 1411 202 C 1453 188 1507 182 1571 182 C 1616 182 1656 184 1691 190 C 1726 196 1758 203 1786 213 C 1814 223 1839 234 1863 248 C 1886 262 1909 277 1931 293 L 2060 127 C 2027 101 1994 79 1960 61 C 1926 42 1890 26 1851 14 C 1812 2 1770 -7 1724 -13 C 1678 -19 1627 -23 1571 -23 Z M 662 193 C 724 193 777 201 820 218 C 862 235 897 260 923 292 C 949 324 968 363 980 410 C 991 456 997 509 997 569 C 997 628 991 681 980 728 C 968 774 949 814 923 846 C 897 878 862 902 820 919 C 777 935 724 944 662 944 C 598 944 545 935 502 919 C 459 902 425 878 399 846 C 373 814 354 774 343 728 C 331 681 326 628 326 569 C 326 509 331 456 343 410 C 354 363 373 324 399 292 C 425 260 459 235 502 218 C 545 201 598 193 662 193 Z M 1561 963 C 1501 963 1450 956 1410 943 C 1370 929 1337 910 1312 886 C 1286 861 1267 831 1255 796 C 1242 761 1233 722 1229 680 L 1833 680 C 1831 720 1827 758 1821 793 C 1815 827 1804 857 1786 883 C 1768 908 1741 928 1706 942 C 1670 956 1622 963 1561 963 Z" unicode="" />
<glyph horiz-adv-x="1526" d="M 874 1956 L 1163 1956 L 793 1606 L 575 1606 L 874 1956 Z M 807 553 L 408 553 L 408 0 L 166 0 L 166 1518 L 860 1518 C 963 1518 1050 1507 1120 1485 C 1190 1463 1247 1432 1290 1391 C 1333 1350 1364 1300 1383 1242 C 1401 1184 1411 1118 1411 1044 C 1411 986 1405 931 1393 881 C 1381 831 1361 785 1333 745 C 1305 704 1269 669 1225 640 C 1180 610 1125 588 1061 573 L 1391 0 L 1124 0 L 807 553 Z M 854 780 C 904 780 948 784 986 792 C 1024 800 1056 813 1082 833 C 1108 852 1127 878 1141 911 C 1154 943 1161 984 1161 1034 C 1161 1084 1154 1126 1141 1160 C 1128 1193 1109 1219 1083 1239 C 1057 1258 1024 1272 986 1280 C 947 1288 902 1292 850 1292 L 408 1292 L 408 780 L 854 780 Z" unicode="" />
<glyph horiz-adv-x="780" d="M 518 1612 L 807 1612 L 436 1262 L 219 1262 L 518 1612 Z M 141 1133 L 328 1147 L 352 1016 C 364 1035 381 1053 404 1070 C 427 1087 455 1102 487 1115 C 519 1127 556 1137 598 1145 C 639 1153 684 1157 733 1159 L 733 920 C 664 919 607 911 562 895 C 517 879 481 857 454 828 C 427 799 408 764 397 724 C 386 684 381 639 381 590 L 381 0 L 141 0 L 141 1133 Z" unicode="" />
<glyph horiz-adv-x="1526" d="" unicode="" />
<glyph horiz-adv-x="780" d="" unicode="" />
<glyph horiz-adv-x="1526" d="M 317 1956 L 547 1956 L 762 1761 L 977 1956 L 1200 1956 L 885 1606 L 633 1606 L 317 1956 Z M 807 553 L 408 553 L 408 0 L 166 0 L 166 1518 L 860 1518 C 963 1518 1050 1507 1120 1485 C 1190 1463 1247 1432 1290 1391 C 1333 1350 1364 1300 1383 1242 C 1401 1184 1411 1118 1411 1044 C 1411 986 1405 931 1393 881 C 1381 831 1361 785 1333 745 C 1305 704 1269 669 1225 640 C 1180 610 1125 588 1061 573 L 1391 0 L 1124 0 L 807 553 Z M 854 780 C 904 780 948 784 986 792 C 1024 800 1056 813 1082 833 C 1108 852 1127 878 1141 911 C 1154 943 1161 984 1161 1034 C 1161 1084 1154 1126 1141 1160 C 1128 1193 1109 1219 1083 1239 C 1057 1258 1024 1272 986 1280 C 947 1288 902 1292 850 1292 L 408 1292 L 408 780 L 854 780 Z" unicode="" />
<glyph horiz-adv-x="766" d="M -57 1612 L 172 1612 L 387 1417 L 602 1612 L 825 1612 L 510 1262 L 258 1262 L -57 1612 Z M 141 1133 L 328 1147 L 352 1016 C 364 1035 381 1053 404 1070 C 427 1087 455 1102 487 1115 C 519 1127 556 1137 598 1145 C 639 1153 684 1157 733 1159 L 733 920 C 664 919 607 911 562 895 C 517 879 481 857 454 828 C 427 799 408 764 397 724 C 386 684 381 639 381 590 L 381 0 L 141 0 L 141 1133 Z" unicode="" />
<glyph horiz-adv-x="1479" d="M 852 1956 L 1141 1956 L 770 1606 L 553 1606 L 852 1956 Z M 739 -20 C 606 -20 483 -5 371 25 C 259 55 157 102 66 166 L 190 356 C 275 299 363 258 454 234 C 545 209 638 197 733 197 C 809 197 872 201 924 210 C 976 219 1017 233 1048 253 C 1079 272 1101 296 1115 326 C 1128 355 1135 390 1135 432 C 1135 472 1125 506 1107 532 C 1088 558 1061 579 1026 596 C 991 612 948 626 898 636 C 848 646 791 656 729 666 C 667 675 610 685 558 696 C 506 706 458 719 415 734 C 371 749 333 767 300 787 C 266 807 238 832 216 862 C 193 892 176 926 164 966 C 152 1006 147 1052 147 1106 C 147 1185 159 1252 183 1308 C 207 1363 244 1408 293 1443 C 342 1477 404 1502 478 1518 C 552 1534 638 1542 737 1542 C 805 1542 867 1538 924 1531 C 981 1523 1033 1513 1080 1500 C 1127 1487 1169 1472 1207 1455 C 1245 1437 1279 1419 1309 1399 L 1176 1196 C 1150 1212 1120 1228 1087 1242 C 1053 1256 1018 1269 980 1280 C 942 1290 902 1298 860 1304 C 818 1310 777 1313 735 1313 C 671 1313 618 1309 574 1301 C 530 1293 495 1281 468 1265 C 441 1249 422 1228 410 1203 C 398 1177 393 1147 393 1112 C 393 1073 401 1042 419 1018 C 436 994 462 974 496 958 C 530 942 571 929 621 919 C 670 909 727 899 791 889 C 849 879 903 870 955 860 C 1007 850 1054 837 1098 823 C 1142 809 1181 791 1216 771 C 1250 750 1280 725 1304 695 C 1328 665 1347 630 1360 589 C 1373 547 1380 499 1380 444 C 1380 368 1368 301 1344 243 C 1320 185 1283 136 1232 97 C 1180 58 1114 29 1033 9 C 952 -10 854 -20 739 -20 Z" unicode="" />
<glyph horiz-adv-x="1122" d="M 676 1612 L 965 1612 L 594 1262 L 377 1262 L 676 1612 Z M 553 -20 C 509 -20 465 -17 421 -13 C 377 -8 333 0 290 10 C 246 20 204 35 162 53 C 120 71 79 93 41 119 L 164 303 C 196 282 229 264 263 250 C 297 235 331 223 366 213 C 400 203 435 196 469 192 C 503 188 535 186 567 186 C 613 186 652 188 684 192 C 716 196 743 203 763 214 C 783 224 798 239 807 257 C 816 275 821 299 821 328 C 821 351 816 370 808 385 C 799 400 785 413 765 423 C 745 433 720 441 688 448 C 656 455 616 463 569 471 C 500 481 437 493 380 507 C 323 520 274 539 233 565 C 192 590 160 624 138 666 C 115 708 104 764 104 834 C 104 888 112 936 129 978 C 145 1020 172 1056 209 1085 C 245 1114 293 1136 352 1151 C 411 1166 483 1174 569 1174 C 659 1174 742 1165 819 1147 C 896 1129 963 1104 1020 1071 L 907 874 C 865 897 815 916 757 930 C 699 944 639 952 575 952 C 527 952 488 949 458 944 C 428 938 404 931 387 921 C 369 911 357 898 350 884 C 343 869 340 852 340 834 C 340 810 344 791 352 776 C 360 761 373 748 392 738 C 410 727 435 718 465 711 C 495 704 531 697 575 690 C 646 678 711 665 770 653 C 828 640 879 622 921 598 C 963 574 995 541 1018 501 C 1041 460 1053 406 1053 340 C 1053 274 1043 219 1025 173 C 1006 127 976 90 936 62 C 896 33 844 12 781 0 C 717 -13 641 -20 553 -20 Z" unicode="" />
<glyph horiz-adv-x="1479" d="" unicode="" />
<glyph horiz-adv-x="1122" d="" unicode="" />
<glyph horiz-adv-x="1479" d="M 745 -487 C 691 -487 644 -481 602 -470 C 560 -458 523 -443 489 -424 L 553 -303 C 581 -317 611 -329 642 -337 C 673 -345 705 -350 737 -350 C 766 -350 790 -347 809 -343 C 827 -339 842 -333 853 -325 C 863 -317 871 -307 875 -295 C 879 -283 881 -270 881 -256 C 881 -220 866 -196 836 -186 C 806 -175 760 -172 696 -176 L 643 -139 L 668 -18 C 550 -12 441 4 341 34 C 241 63 149 107 66 166 L 190 356 C 275 299 363 258 454 234 C 545 209 638 197 733 197 C 809 197 872 201 924 210 C 976 219 1017 233 1048 253 C 1079 272 1101 296 1115 326 C 1128 355 1135 390 1135 432 C 1135 472 1125 506 1107 532 C 1088 558 1061 579 1026 596 C 991 612 948 626 898 636 C 848 646 791 656 729 666 C 667 675 610 685 558 696 C 506 706 458 719 415 734 C 371 749 333 767 300 787 C 266 807 238 832 216 862 C 193 892 176 926 164 966 C 152 1006 147 1052 147 1106 C 147 1185 159 1252 183 1308 C 207 1363 244 1408 293 1443 C 342 1477 404 1502 478 1518 C 552 1534 638 1542 737 1542 C 805 1542 867 1538 924 1531 C 981 1523 1033 1513 1080 1500 C 1127 1487 1169 1472 1207 1455 C 1245 1437 1279 1419 1309 1399 L 1176 1196 C 1150 1212 1120 1228 1087 1242 C 1053 1256 1018 1269 980 1280 C 942 1290 902 1298 860 1304 C 818 1310 777 1313 735 1313 C 671 1313 618 1309 574 1301 C 530 1293 495 1281 468 1265 C 441 1249 422 1228 410 1203 C 398 1177 393 1147 393 1112 C 393 1073 401 1042 419 1018 C 436 994 462 974 496 958 C 530 942 571 929 621 919 C 670 909 727 899 791 889 C 849 879 903 870 955 860 C 1007 850 1054 837 1098 823 C 1142 809 1181 791 1216 771 C 1250 750 1280 725 1304 695 C 1328 665 1347 630 1360 589 C 1373 547 1380 499 1380 444 C 1380 371 1369 307 1348 251 C 1326 195 1293 148 1247 109 C 1201 70 1141 40 1069 19 C 997 -2 909 -14 807 -18 L 795 -88 C 827 -87 857 -88 887 -91 C 917 -93 943 -101 966 -113 C 989 -125 1007 -144 1021 -169 C 1035 -194 1042 -228 1042 -272 C 1042 -347 1017 -402 969 -436 C 921 -470 846 -487 745 -487 Z" unicode="" />
<glyph horiz-adv-x="1122" d="M 569 -487 C 515 -487 468 -481 426 -470 C 384 -458 347 -443 313 -424 L 377 -303 C 405 -317 435 -329 466 -337 C 497 -345 529 -350 561 -350 C 590 -350 614 -347 633 -343 C 651 -339 666 -333 677 -325 C 687 -317 695 -307 699 -295 C 703 -283 705 -270 705 -256 C 705 -220 690 -196 660 -186 C 630 -175 584 -172 520 -176 L 467 -139 L 489 -18 C 412 -14 335 -1 259 19 C 182 39 109 73 41 119 L 164 303 C 196 282 229 264 263 250 C 297 235 331 223 366 213 C 400 203 435 196 469 192 C 503 188 535 186 567 186 C 613 186 652 188 684 192 C 716 196 743 203 763 214 C 783 224 798 239 807 257 C 816 275 821 299 821 328 C 821 351 816 370 808 385 C 799 400 785 413 765 423 C 745 433 720 441 688 448 C 656 455 616 463 569 471 C 500 481 437 493 380 507 C 323 520 274 539 233 565 C 192 590 160 624 138 666 C 115 708 104 764 104 834 C 104 888 112 936 129 978 C 145 1020 172 1056 209 1085 C 245 1114 293 1136 352 1151 C 411 1166 483 1174 569 1174 C 659 1174 742 1165 819 1147 C 896 1129 963 1104 1020 1071 L 907 874 C 865 897 815 916 757 930 C 699 944 639 952 575 952 C 527 952 488 949 458 944 C 428 938 404 931 387 921 C 369 911 357 898 350 884 C 343 869 340 852 340 834 C 340 810 344 791 352 776 C 360 761 373 748 392 738 C 410 727 435 718 465 711 C 495 704 531 697 575 690 C 646 678 711 665 770 653 C 828 640 879 622 921 598 C 963 574 995 541 1018 501 C 1041 460 1053 406 1053 340 C 1053 278 1045 226 1029 183 C 1013 139 988 103 954 75 C 920 46 876 24 823 9 C 769 -5 705 -14 631 -18 L 618 -88 C 650 -87 680 -88 710 -91 C 740 -93 766 -101 789 -113 C 812 -125 831 -144 845 -169 C 859 -194 866 -228 866 -272 C 866 -347 841 -402 793 -436 C 745 -470 670 -487 569 -487 Z" unicode="" />
<glyph horiz-adv-x="1479" d="M 295 1956 L 524 1956 L 739 1761 L 954 1956 L 1178 1956 L 862 1606 L 610 1606 L 295 1956 Z M 739 -20 C 606 -20 483 -5 371 25 C 259 55 157 102 66 166 L 190 356 C 275 299 363 258 454 234 C 545 209 638 197 733 197 C 809 197 872 201 924 210 C 976 219 1017 233 1048 253 C 1079 272 1101 296 1115 326 C 1128 355 1135 390 1135 432 C 1135 472 1125 506 1107 532 C 1088 558 1061 579 1026 596 C 991 612 948 626 898 636 C 848 646 791 656 729 666 C 667 675 610 685 558 696 C 506 706 458 719 415 734 C 371 749 333 767 300 787 C 266 807 238 832 216 862 C 193 892 176 926 164 966 C 152 1006 147 1052 147 1106 C 147 1185 159 1252 183 1308 C 207 1363 244 1408 293 1443 C 342 1477 404 1502 478 1518 C 552 1534 638 1542 737 1542 C 805 1542 867 1538 924 1531 C 981 1523 1033 1513 1080 1500 C 1127 1487 1169 1472 1207 1455 C 1245 1437 1279 1419 1309 1399 L 1176 1196 C 1150 1212 1120 1228 1087 1242 C 1053 1256 1018 1269 980 1280 C 942 1290 902 1298 860 1304 C 818 1310 777 1313 735 1313 C 671 1313 618 1309 574 1301 C 530 1293 495 1281 468 1265 C 441 1249 422 1228 410 1203 C 398 1177 393 1147 393 1112 C 393 1073 401 1042 419 1018 C 436 994 462 974 496 958 C 530 942 571 929 621 919 C 670 909 727 899 791 889 C 849 879 903 870 955 860 C 1007 850 1054 837 1098 823 C 1142 809 1181 791 1216 771 C 1250 750 1280 725 1304 695 C 1328 665 1347 630 1360 589 C 1373 547 1380 499 1380 444 C 1380 368 1368 301 1344 243 C 1320 185 1283 136 1232 97 C 1180 58 1114 29 1033 9 C 952 -10 854 -20 739 -20 Z" unicode="" />
<glyph horiz-adv-x="1122" d="M 119 1612 L 348 1612 L 563 1417 L 778 1612 L 1001 1612 L 686 1262 L 434 1262 L 119 1612 Z M 553 -20 C 509 -20 465 -17 421 -13 C 377 -8 333 0 290 10 C 246 20 204 35 162 53 C 120 71 79 93 41 119 L 164 303 C 196 282 229 264 263 250 C 297 235 331 223 366 213 C 400 203 435 196 469 192 C 503 188 535 186 567 186 C 613 186 652 188 684 192 C 716 196 743 203 763 214 C 783 224 798 239 807 257 C 816 275 821 299 821 328 C 821 351 816 370 808 385 C 799 400 785 413 765 423 C 745 433 720 441 688 448 C 656 455 616 463 569 471 C 500 481 437 493 380 507 C 323 520 274 539 233 565 C 192 590 160 624 138 666 C 115 708 104 764 104 834 C 104 888 112 936 129 978 C 145 1020 172 1056 209 1085 C 245 1114 293 1136 352 1151 C 411 1166 483 1174 569 1174 C 659 1174 742 1165 819 1147 C 896 1129 963 1104 1020 1071 L 907 874 C 865 897 815 916 757 930 C 699 944 639 952 575 952 C 527 952 488 949 458 944 C 428 938 404 931 387 921 C 369 911 357 898 350 884 C 343 869 340 852 340 834 C 340 810 344 791 352 776 C 360 761 373 748 392 738 C 410 727 435 718 465 711 C 495 704 531 697 575 690 C 646 678 711 665 770 653 C 828 640 879 622 921 598 C 963 574 995 541 1018 501 C 1041 460 1053 406 1053 340 C 1053 274 1043 219 1025 173 C 1006 127 976 90 936 62 C 896 33 844 12 781 0 C 717 -13 641 -20 553 -20 Z" unicode="" />
<glyph horiz-adv-x="1427" d="M 582 -483 C 608 -470 629 -458 645 -448 C 661 -438 674 -427 683 -417 C 692 -406 698 -394 702 -382 C 705 -369 707 -354 707 -336 L 584 -336 L 584 -80 L 840 -80 L 840 -266 C 840 -312 837 -351 832 -383 C 827 -415 817 -443 803 -467 C 788 -491 768 -512 742 -531 C 716 -549 681 -568 639 -588 L 582 -483 Z M 590 1280 L 43 1280 L 43 1518 L 1386 1518 L 1386 1280 L 840 1280 L 840 0 L 590 0 L 590 1280 Z" unicode="" />
<glyph horiz-adv-x="879" d="M 252 -483 C 278 -470 299 -458 315 -448 C 331 -438 344 -427 353 -417 C 362 -406 368 -394 372 -382 C 375 -369 377 -354 377 -336 L 254 -336 L 254 -80 L 510 -80 L 510 -266 C 510 -312 507 -351 502 -383 C 497 -415 487 -443 473 -467 C 458 -491 438 -512 412 -531 C 386 -549 351 -568 309 -588 L 252 -483 Z M 57 1147 L 262 1147 L 305 1454 L 492 1493 L 492 1147 L 784 1147 L 784 930 L 492 930 L 492 365 C 492 341 493 319 496 300 C 498 280 505 264 516 251 C 526 238 542 228 564 221 C 585 214 614 211 651 211 L 784 211 L 784 0 C 776 0 764 -1 748 -1 C 732 -1 715 -2 697 -2 C 679 -2 662 -2 646 -2 C 629 -2 616 -2 606 -2 C 534 -2 476 4 431 17 C 385 30 349 50 323 77 C 297 104 279 139 269 181 C 259 223 254 272 254 330 L 254 930 L 57 930 L 57 1147 Z" unicode="" />
<glyph horiz-adv-x="1427" d="M 268 1956 L 498 1956 L 713 1761 L 928 1956 L 1151 1956 L 836 1606 L 584 1606 L 268 1956 Z M 590 1280 L 43 1280 L 43 1518 L 1386 1518 L 1386 1280 L 840 1280 L 840 0 L 590 0 L 590 1280 Z" unicode="" />
<glyph horiz-adv-x="879" d="M 631 1417 C 655 1429 675 1441 691 1451 C 707 1461 719 1471 728 1482 C 737 1492 743 1504 747 1517 C 750 1530 752 1546 752 1565 L 645 1565 L 645 1808 L 877 1808 L 877 1628 C 877 1583 874 1545 870 1515 C 865 1484 856 1457 842 1434 C 828 1411 808 1390 783 1372 C 757 1354 724 1335 684 1317 L 631 1417 Z M 57 1147 L 262 1147 L 305 1454 L 492 1493 L 492 1147 L 784 1147 L 784 930 L 492 930 L 492 365 C 492 341 493 319 496 300 C 498 280 505 264 516 251 C 526 238 542 228 564 221 C 585 214 614 211 651 211 L 784 211 L 784 0 C 776 0 764 -1 748 -1 C 732 -1 715 -2 697 -2 C 679 -2 662 -2 646 -2 C 629 -2 616 -2 606 -2 C 534 -2 476 4 431 17 C 385 30 349 50 323 77 C 297 104 279 139 269 181 C 259 223 254 272 254 330 L 254 930 L 57 930 L 57 1147 Z" unicode="" />
<glyph horiz-adv-x="1427" d="" unicode="" />
<glyph horiz-adv-x="879" d="" unicode="" />
<glyph horiz-adv-x="1632" d="" unicode="" />
<glyph horiz-adv-x="1300" d="" unicode="" />
<glyph horiz-adv-x="1632" d="" unicode="" />
<glyph horiz-adv-x="1300" d="" unicode="" />
<glyph horiz-adv-x="1632" d="" unicode="" />
<glyph horiz-adv-x="1300" d="" unicode="" />
<glyph horiz-adv-x="1632" d="M 813 1577 C 765 1577 725 1584 691 1598 C 657 1612 629 1632 607 1657 C 585 1681 568 1710 558 1744 C 548 1778 543 1814 543 1853 C 543 1892 548 1929 558 1963 C 568 1997 585 2027 607 2053 C 629 2078 657 2098 691 2112 C 725 2126 765 2134 813 2134 C 858 2134 897 2126 931 2112 C 965 2098 993 2078 1015 2053 C 1037 2027 1053 1997 1064 1963 C 1075 1929 1081 1892 1081 1853 C 1081 1814 1075 1778 1064 1744 C 1053 1710 1037 1681 1015 1657 C 993 1632 965 1612 931 1598 C 897 1584 858 1577 813 1577 Z M 813 1706 C 837 1706 859 1709 877 1717 C 895 1724 909 1734 921 1748 C 932 1761 940 1776 946 1794 C 951 1812 954 1831 954 1853 C 954 1873 951 1893 946 1911 C 940 1929 932 1945 921 1959 C 909 1973 895 1983 877 1991 C 859 1999 837 2003 813 2003 C 787 2003 765 1999 747 1991 C 729 1983 714 1973 702 1959 C 690 1945 682 1929 677 1911 C 672 1893 670 1873 670 1853 C 670 1831 672 1812 677 1794 C 682 1776 690 1761 702 1748 C 714 1734 729 1724 747 1717 C 765 1709 787 1706 813 1706 Z M 815 -27 C 717 -27 632 -19 561 -3 C 490 12 430 33 382 61 C 333 88 294 120 264 158 C 234 196 212 236 196 280 C 180 324 169 370 164 418 C 158 466 156 515 156 565 L 156 1518 L 403 1518 L 403 598 C 403 538 408 483 419 435 C 430 387 451 345 481 311 C 511 277 553 250 607 232 C 661 214 731 205 817 205 C 903 205 974 214 1028 232 C 1082 250 1125 275 1156 309 C 1187 343 1208 384 1220 433 C 1231 481 1237 536 1237 598 L 1237 1518 L 1479 1518 L 1479 565 C 1479 515 1476 466 1470 418 C 1464 370 1453 324 1437 280 C 1421 236 1397 196 1367 158 C 1337 120 1297 88 1248 61 C 1199 33 1139 12 1068 -3 C 997 -19 913 -27 815 -27 Z" unicode="" />
<glyph horiz-adv-x="1300" d="M 649 1233 C 601 1233 561 1240 527 1254 C 493 1268 465 1288 443 1313 C 421 1337 404 1366 394 1400 C 384 1434 379 1470 379 1509 C 379 1548 384 1585 394 1619 C 404 1653 421 1683 443 1709 C 465 1734 493 1754 527 1768 C 561 1782 601 1790 649 1790 C 694 1790 733 1782 767 1768 C 801 1754 829 1734 851 1709 C 873 1683 890 1653 901 1619 C 912 1585 918 1548 918 1509 C 918 1470 912 1434 901 1400 C 890 1366 873 1337 851 1313 C 829 1288 801 1268 767 1254 C 733 1240 694 1233 649 1233 Z M 649 1362 C 674 1362 696 1365 714 1373 C 732 1380 746 1390 758 1404 C 769 1417 777 1432 783 1450 C 788 1468 791 1487 791 1509 C 791 1529 788 1549 783 1567 C 777 1585 769 1601 758 1615 C 746 1629 732 1639 714 1647 C 696 1655 674 1659 649 1659 C 623 1659 601 1655 583 1647 C 565 1639 550 1629 538 1615 C 526 1601 518 1585 513 1567 C 508 1549 506 1529 506 1509 C 506 1487 508 1468 513 1450 C 518 1432 526 1417 538 1404 C 550 1390 565 1380 583 1373 C 601 1365 623 1362 649 1362 Z M 653 -20 C 543 -20 454 -9 386 12 C 318 34 266 66 229 110 C 191 154 166 209 154 275 C 141 341 135 418 135 508 L 135 1147 L 373 1147 L 373 502 C 373 458 374 418 377 382 C 380 345 390 313 408 286 C 426 258 454 237 492 222 C 530 206 583 199 653 199 C 699 199 738 202 770 209 C 802 216 828 226 849 239 C 869 252 885 268 897 286 C 908 304 916 325 921 348 C 926 370 929 395 930 422 C 931 448 932 476 932 506 L 932 1147 L 1165 1147 L 1165 512 C 1165 422 1159 344 1147 278 C 1135 211 1110 156 1074 112 C 1038 68 986 35 919 13 C 851 -9 763 -20 653 -20 Z" unicode="" />
<glyph horiz-adv-x="1632" d="M 815 -27 C 717 -27 632 -19 561 -3 C 490 12 430 33 382 61 C 333 88 294 120 264 158 C 234 196 212 236 196 280 C 180 324 169 370 164 418 C 158 466 156 515 156 565 L 156 1518 L 403 1518 L 403 598 C 403 538 408 483 419 435 C 430 387 451 345 481 311 C 511 277 553 250 607 232 C 661 214 731 205 817 205 C 903 205 974 214 1028 232 C 1082 250 1125 275 1156 309 C 1187 343 1208 384 1220 433 C 1231 481 1237 536 1237 598 L 1237 1518 L 1479 1518 L 1479 565 C 1479 515 1476 466 1470 418 C 1464 370 1453 324 1437 280 C 1421 236 1397 196 1367 158 C 1337 120 1297 88 1248 61 C 1199 33 1139 12 1068 -3 C 997 -19 913 -27 815 -27 Z M 637 1950 L 913 1950 L 582 1604 L 379 1604 L 637 1950 Z M 1145 1950 L 1421 1950 L 1092 1604 L 887 1604 L 1145 1950 Z" unicode="" />
<glyph horiz-adv-x="1300" d="M 653 -20 C 543 -20 454 -9 386 12 C 318 34 266 66 229 110 C 191 154 166 209 154 275 C 141 341 135 418 135 508 L 135 1147 L 373 1147 L 373 502 C 373 458 374 418 377 382 C 380 345 390 313 408 286 C 426 258 454 237 492 222 C 530 206 583 199 653 199 C 699 199 738 202 770 209 C 802 216 828 226 849 239 C 869 252 885 268 897 286 C 908 304 916 325 921 348 C 926 370 929 395 930 422 C 931 448 932 476 932 506 L 932 1147 L 1165 1147 L 1165 512 C 1165 422 1159 344 1147 278 C 1135 211 1110 156 1074 112 C 1038 68 986 35 919 13 C 851 -9 763 -20 653 -20 Z M 473 1606 L 750 1606 L 418 1260 L 215 1260 L 473 1606 Z M 981 1606 L 1257 1606 L 928 1260 L 723 1260 L 981 1606 Z" unicode="" />
<glyph horiz-adv-x="1632" d="" unicode="" />
<glyph horiz-adv-x="1300" d="" unicode="" />
<glyph horiz-adv-x="2218" d="" unicode="" />
<glyph horiz-adv-x="1839" d="" unicode="" />
<glyph horiz-adv-x="1495" d="" unicode="" />
<glyph horiz-adv-x="1141" d="" unicode="" />
<glyph horiz-adv-x="1495" d="M 625 559 L 16 1518 L 285 1518 L 752 784 L 1221 1518 L 1477 1518 L 870 563 L 870 0 L 625 0 L 625 559 Z M 414 1860 L 631 1860 L 631 1612 L 414 1612 L 414 1860 Z M 862 1860 L 1077 1860 L 1077 1612 L 862 1612 L 862 1860 Z" unicode="" />
<glyph horiz-adv-x="1389" d="M 809 1956 L 1098 1956 L 727 1606 L 510 1606 L 809 1956 Z M 80 197 L 971 1280 L 115 1280 L 115 1518 L 1282 1518 L 1282 1303 L 397 227 L 1305 227 L 1305 0 L 80 0 L 80 197 Z" unicode="" />
<glyph horiz-adv-x="1067" d="M 651 1612 L 940 1612 L 569 1262 L 352 1262 L 651 1612 Z M 55 172 L 680 930 L 88 930 L 88 1147 L 995 1147 L 995 971 L 367 203 L 1018 203 L 1018 0 L 55 0 L 55 172 Z" unicode="" />
<glyph horiz-adv-x="1389" d="M 80 197 L 971 1280 L 115 1280 L 115 1518 L 1282 1518 L 1282 1303 L 397 227 L 1305 227 L 1305 0 L 80 0 L 80 197 Z M 573 1858 L 815 1858 L 815 1602 L 573 1602 L 573 1858 Z" unicode="" />
<glyph horiz-adv-x="1067" d="M 55 172 L 680 930 L 88 930 L 88 1147 L 995 1147 L 995 971 L 367 203 L 1018 203 L 1018 0 L 55 0 L 55 172 Z M 416 1513 L 657 1513 L 657 1257 L 416 1257 L 416 1513 Z" unicode="" />
<glyph horiz-adv-x="1389" d="M 252 1956 L 481 1956 L 696 1761 L 911 1956 L 1135 1956 L 819 1606 L 567 1606 L 252 1956 Z M 80 197 L 971 1280 L 115 1280 L 115 1518 L 1282 1518 L 1282 1303 L 397 227 L 1305 227 L 1305 0 L 80 0 L 80 197 Z" unicode="" />
<glyph horiz-adv-x="1067" d="M 94 1612 L 324 1612 L 539 1417 L 754 1612 L 977 1612 L 662 1262 L 410 1262 L 94 1612 Z M 55 172 L 680 930 L 88 930 L 88 1147 L 995 1147 L 995 971 L 367 203 L 1018 203 L 1018 0 L 55 0 L 55 172 Z" unicode="" />
<glyph horiz-adv-x="848" d="" unicode="" />
<glyph horiz-adv-x="1174" d="M 176 936 L 438 936 L 492 1180 C 501 1228 513 1273 528 1315 C 542 1356 565 1392 595 1422 C 625 1452 665 1475 715 1492 C 765 1509 831 1518 913 1518 L 1004 1518 L 1004 1292 L 926 1292 C 885 1292 852 1287 827 1278 C 802 1268 782 1255 768 1239 C 753 1223 742 1203 734 1181 C 726 1159 720 1134 715 1108 L 678 936 L 1004 936 L 1004 719 L 631 719 L 406 -340 L 166 -340 L 393 719 L 176 719 L 176 936 Z" unicode="" />
<glyph horiz-adv-x="1726" d="" unicode="" />
<glyph horiz-adv-x="1346" d="" unicode="" />
<glyph horiz-adv-x="1675" d="" unicode="" />
<glyph horiz-adv-x="1407" d="" unicode="" />
<glyph horiz-adv-x="1550" d="" unicode="" />
<glyph horiz-adv-x="1296" d="" unicode="" />
<glyph horiz-adv-x="2271" d="" unicode="" />
<glyph horiz-adv-x="2021" d="" unicode="" />
<glyph horiz-adv-x="1726" d="" unicode="" />
<glyph horiz-adv-x="1323" d="" unicode="" />
<glyph horiz-adv-x="1479" d="" unicode="" />
<glyph horiz-adv-x="1122" d="" unicode="" />
<glyph horiz-adv-x="1427" d="M 582 -483 C 608 -470 629 -458 645 -448 C 661 -438 674 -427 683 -417 C 692 -406 698 -394 702 -382 C 705 -369 707 -354 707 -336 L 584 -336 L 584 -80 L 840 -80 L 840 -266 C 840 -312 837 -351 832 -383 C 827 -415 817 -443 803 -467 C 788 -491 768 -512 742 -531 C 716 -549 681 -568 639 -588 L 582 -483 Z M 590 1280 L 43 1280 L 43 1518 L 1386 1518 L 1386 1280 L 840 1280 L 840 0 L 590 0 L 590 1280 Z" unicode="" />
<glyph horiz-adv-x="879" d="M 252 -483 C 278 -470 299 -458 315 -448 C 331 -438 344 -427 353 -417 C 362 -406 368 -394 372 -382 C 375 -369 377 -354 377 -336 L 254 -336 L 254 -80 L 510 -80 L 510 -266 C 510 -312 507 -351 502 -383 C 497 -415 487 -443 473 -467 C 458 -491 438 -512 412 -531 C 386 -549 351 -568 309 -588 L 252 -483 Z M 57 1147 L 262 1147 L 305 1454 L 492 1493 L 492 1147 L 784 1147 L 784 930 L 492 930 L 492 365 C 492 341 493 319 496 300 C 498 280 505 264 516 251 C 526 238 542 228 564 221 C 585 214 614 211 651 211 L 784 211 L 784 0 C 776 0 764 -1 748 -1 C 732 -1 715 -2 697 -2 C 679 -2 662 -2 646 -2 C 629 -2 616 -2 606 -2 C 534 -2 476 4 431 17 C 385 30 349 50 323 77 C 297 104 279 139 269 181 C 259 223 254 272 254 330 L 254 930 L 57 930 L 57 1147 Z" unicode="" />
<glyph horiz-adv-x="1208" d="M 477 1612 L 729 1612 L 1044 1262 L 817 1262 L 600 1456 L 387 1262 L 162 1262 L 477 1612 Z" unicode="" />
<glyph horiz-adv-x="1208" d="M 162 1612 L 391 1612 L 606 1417 L 821 1612 L 1044 1612 L 729 1262 L 477 1262 L 162 1612 Z" unicode="" />
<glyph horiz-adv-x="1208" d="M 604 1235 C 532 1235 472 1244 424 1262 C 376 1280 336 1304 305 1336 C 274 1368 250 1405 233 1449 C 216 1493 203 1541 193 1593 L 367 1628 C 373 1596 382 1567 393 1543 C 403 1519 417 1498 435 1481 C 453 1464 475 1451 502 1443 C 529 1434 563 1430 604 1430 C 644 1430 678 1434 705 1443 C 732 1451 754 1464 772 1481 C 790 1498 804 1519 814 1543 C 824 1567 833 1596 840 1628 L 1018 1595 C 1006 1543 992 1495 974 1451 C 956 1407 932 1369 901 1337 C 869 1305 830 1280 782 1262 C 734 1244 675 1235 604 1235 Z" unicode="" />
<glyph horiz-adv-x="1208" d="M 483 1513 L 725 1513 L 725 1257 L 483 1257 L 483 1513 Z" unicode="" />
<glyph horiz-adv-x="1208" d="" unicode="" />
<glyph horiz-adv-x="1208" d="M 629 -463 C 575 -463 530 -458 494 -448 C 458 -438 430 -425 409 -407 C 388 -389 373 -368 365 -344 C 356 -320 352 -293 352 -264 C 352 -229 358 -197 371 -167 C 383 -137 399 -111 419 -88 C 438 -64 459 -44 481 -26 C 503 -8 523 5 543 16 L 745 16 C 675 -24 623 -65 589 -107 C 555 -149 539 -187 539 -219 C 539 -231 540 -243 543 -254 C 546 -264 552 -274 561 -282 C 569 -290 581 -296 597 -300 C 613 -304 633 -307 659 -307 C 675 -307 691 -306 708 -304 C 724 -302 740 -299 756 -296 C 772 -292 786 -288 800 -284 C 814 -280 826 -276 836 -272 L 887 -406 C 870 -414 851 -421 831 -428 C 811 -435 789 -441 767 -446 C 745 -451 722 -455 698 -458 C 674 -461 651 -463 629 -463 Z" unicode="" />
<glyph horiz-adv-x="1208" d="M 162 1376 C 184 1404 207 1429 231 1452 C 255 1474 279 1494 305 1511 C 330 1527 355 1540 381 1549 C 407 1558 433 1563 459 1563 C 494 1563 524 1557 549 1546 C 573 1535 596 1523 616 1510 C 636 1497 656 1485 676 1474 C 695 1463 717 1458 743 1458 C 768 1458 794 1468 821 1488 C 848 1508 877 1537 907 1573 L 1047 1460 C 1024 1432 1000 1406 976 1382 C 952 1358 927 1337 902 1319 C 876 1301 851 1287 825 1277 C 799 1267 773 1262 748 1262 C 714 1262 685 1267 661 1278 C 637 1288 614 1300 593 1313 C 571 1326 550 1338 530 1349 C 510 1360 487 1366 463 1366 C 439 1366 414 1357 387 1341 C 360 1324 333 1298 305 1262 L 162 1376 Z" unicode="" />
<glyph horiz-adv-x="1208" d="M 428 1606 L 705 1606 L 373 1260 L 170 1260 L 428 1606 Z M 936 1606 L 1212 1606 L 883 1260 L 678 1260 L 936 1606 Z" unicode="" />
<glyph horiz-adv-x="1208" d="M 205 1448 L 1004 1448 L 1004 1245 L 205 1245 L 205 1448 Z" unicode="" />
<glyph horiz-adv-x="1208" d="" unicode="" />
<glyph horiz-adv-x="1208" d="" unicode="" />
<glyph horiz-adv-x="545" d="" unicode="" />
<glyph horiz-adv-x="1208" d="" unicode="" />
<glyph horiz-adv-x="1208" d="" unicode="" />
<glyph horiz-adv-x="1208" d="M 637 1606 L 858 1606 L 670 1260 L 487 1260 L 637 1606 Z" unicode="" />
<glyph horiz-adv-x="1208" d="M 203 1501 L 377 1501 L 377 1260 L 203 1260 L 203 1501 Z M 834 1501 L 1006 1501 L 1006 1260 L 834 1260 L 834 1501 Z M 592 1606 L 803 1606 L 625 1260 L 455 1260 L 592 1606 Z" unicode="" />
<glyph horiz-adv-x="1573" d="M 236 1524 L 457 1524 L 268 1178 L 86 1178 L 236 1524 Z M 668 1528 L 922 1528 L 1532 0 L 1276 0 L 1163 291 L 420 291 L 307 0 L 59 0 L 668 1528 Z M 1075 520 L 791 1231 L 506 520 L 1075 520 Z" unicode="" />
<glyph horiz-adv-x="1763" d="M 236 1520 L 457 1520 L 268 1174 L 86 1174 L 236 1520 Z M 569 1518 L 1640 1518 L 1640 1280 L 817 1280 L 817 899 L 1620 899 L 1620 664 L 817 664 L 817 233 L 1649 233 L 1649 0 L 569 0 L 569 1518 Z" unicode="" />
<glyph horiz-adv-x="2036" d="M 236 1520 L 457 1520 L 268 1174 L 86 1174 L 236 1520 Z M 569 1518 L 817 1518 L 817 907 L 1620 907 L 1620 1518 L 1868 1518 L 1868 0 L 1620 0 L 1620 662 L 817 662 L 817 0 L 569 0 L 569 1518 Z" unicode="" />
<glyph horiz-adv-x="1014" d="M 236 1520 L 457 1520 L 268 1174 L 86 1174 L 236 1520 Z M 580 1518 L 825 1518 L 825 0 L 580 0 L 580 1518 Z" unicode="" />
<glyph horiz-adv-x="2048" d="M 236 1520 L 457 1520 L 268 1174 L 86 1174 L 236 1520 Z M 1182 -25 C 1060 -25 951 -10 854 19 C 757 48 675 94 608 158 C 540 221 489 302 453 401 C 417 500 399 620 399 760 C 399 899 417 1018 453 1117 C 489 1215 540 1296 608 1359 C 675 1422 757 1468 854 1498 C 951 1527 1060 1542 1182 1542 C 1303 1542 1412 1527 1509 1498 C 1605 1468 1687 1422 1755 1359 C 1823 1296 1875 1215 1911 1117 C 1947 1018 1966 899 1966 760 C 1966 620 1947 500 1911 401 C 1875 302 1823 221 1755 158 C 1687 94 1605 48 1509 19 C 1412 -10 1303 -25 1182 -25 Z M 1182 207 C 1277 207 1358 219 1426 244 C 1493 268 1548 304 1591 351 C 1634 397 1666 455 1686 523 C 1706 591 1716 668 1716 756 C 1716 842 1706 919 1686 987 C 1666 1055 1634 1112 1591 1159 C 1548 1205 1493 1241 1426 1266 C 1358 1290 1277 1303 1182 1303 C 1087 1303 1006 1290 939 1266 C 871 1241 816 1205 773 1159 C 730 1112 699 1055 679 987 C 659 919 649 842 649 756 C 649 668 659 591 679 523 C 699 455 730 397 773 351 C 816 304 871 268 939 244 C 1006 219 1087 207 1182 207 Z" unicode="" />
<glyph horiz-adv-x="2017" d="M 236 1520 L 457 1520 L 268 1174 L 86 1174 L 236 1520 Z M 1145 559 L 537 1518 L 805 1518 L 1272 784 L 1741 1518 L 1997 1518 L 1391 563 L 1391 0 L 1145 0 L 1145 559 Z" unicode="" />
<glyph horiz-adv-x="2085" d="M 1196 1542 C 1330 1542 1446 1524 1544 1490 C 1642 1455 1724 1407 1788 1346 C 1852 1284 1900 1212 1932 1129 C 1964 1045 1980 955 1980 858 C 1980 778 1970 705 1951 639 C 1931 573 1903 514 1866 464 C 1828 414 1782 372 1727 338 C 1672 304 1609 279 1538 264 L 1538 217 L 1995 217 L 1995 0 L 1356 0 L 1356 371 C 1422 385 1479 405 1527 431 C 1575 457 1614 490 1644 528 C 1674 566 1696 610 1710 659 C 1724 708 1731 762 1731 821 C 1731 897 1719 965 1697 1026 C 1674 1087 1640 1139 1596 1182 C 1551 1224 1495 1257 1429 1280 C 1362 1303 1284 1315 1196 1315 C 1106 1315 1028 1303 961 1280 C 894 1257 838 1224 794 1182 C 749 1139 715 1087 693 1026 C 670 965 659 897 659 821 C 659 762 666 708 680 659 C 694 610 716 566 746 528 C 776 490 814 457 862 431 C 909 405 966 385 1034 371 L 1034 0 L 395 0 L 395 217 L 852 217 L 852 264 C 781 279 718 304 663 338 C 608 372 562 414 525 464 C 487 514 459 573 439 639 C 419 705 410 778 410 858 C 410 955 425 1045 457 1129 C 489 1212 537 1284 602 1346 C 666 1407 748 1455 847 1490 C 945 1524 1062 1542 1196 1542 Z M 236 1520 L 457 1520 L 268 1174 L 86 1174 L 236 1520 Z" unicode="" />
<glyph horiz-adv-x="543" d="M -127 1501 L 47 1501 L 47 1260 L -127 1260 L -127 1501 Z M 504 1501 L 676 1501 L 676 1260 L 504 1260 L 504 1501 Z M 262 1606 L 473 1606 L 295 1260 L 125 1260 L 262 1606 Z M 154 1147 L 389 1147 L 389 0 L 154 0 L 154 1147 Z" unicode="" />
<glyph horiz-adv-x="1550" d="M 647 1528 L 901 1528 L 1511 0 L 1255 0 L 1143 291 L 399 291 L 287 0 L 39 0 L 647 1528 Z M 1055 520 L 770 1231 L 485 520 L 1055 520 Z" unicode="" />
<glyph horiz-adv-x="1493" d="M 166 1518 L 846 1518 C 938 1518 1018 1510 1085 1495 C 1152 1480 1207 1457 1250 1426 C 1293 1395 1325 1356 1345 1308 C 1365 1260 1376 1203 1376 1137 C 1376 1048 1359 975 1325 918 C 1291 860 1236 819 1161 795 C 1249 772 1314 730 1354 670 C 1394 610 1415 526 1415 420 C 1415 339 1402 272 1378 218 C 1354 164 1317 121 1269 89 C 1221 57 1161 34 1089 20 C 1017 6 933 0 838 0 L 166 0 L 166 1518 Z M 864 219 C 916 219 961 223 999 231 C 1037 239 1068 253 1093 271 C 1117 289 1135 312 1147 340 C 1159 368 1165 402 1165 442 C 1165 480 1159 514 1147 542 C 1135 570 1117 592 1093 610 C 1069 628 1037 641 999 649 C 961 657 915 662 862 662 L 410 662 L 410 219 L 864 219 Z M 854 889 C 908 889 952 894 987 904 C 1021 914 1049 928 1069 947 C 1089 965 1104 987 1112 1013 C 1120 1039 1124 1068 1124 1100 C 1124 1132 1119 1160 1110 1184 C 1100 1208 1085 1229 1064 1245 C 1042 1261 1014 1274 980 1282 C 946 1290 904 1294 854 1294 L 410 1294 L 410 889 L 854 889 Z" unicode="" />
<glyph horiz-adv-x="1282" d="M 414 0 L 166 0 L 166 1518 L 1206 1518 L 1206 1292 L 414 1292 L 414 0 Z" unicode="" />
<glyph horiz-adv-x="1550" d="M 651 1528 L 899 1528 L 1509 0 L 43 0 L 651 1528 Z M 1174 205 L 768 1231 L 362 205 L 1174 205 Z" unicode="" />
<glyph horiz-adv-x="1358" d="M 166 1518 L 1237 1518 L 1237 1280 L 414 1280 L 414 899 L 1217 899 L 1217 664 L 414 664 L 414 233 L 1245 233 L 1245 0 L 166 0 L 166 1518 Z" unicode="" />
<glyph horiz-adv-x="1389" d="M 80 197 L 971 1280 L 115 1280 L 115 1518 L 1282 1518 L 1282 1303 L 397 227 L 1305 227 L 1305 0 L 80 0 L 80 197 Z" unicode="" />
<glyph horiz-adv-x="1630" d="M 166 1518 L 414 1518 L 414 907 L 1217 907 L 1217 1518 L 1464 1518 L 1464 0 L 1217 0 L 1217 662 L 414 662 L 414 0 L 166 0 L 166 1518 Z" unicode="" />
<glyph horiz-adv-x="1726" d="M 565 866 L 1153 866 L 1153 649 L 565 649 L 565 866 Z M 862 -25 C 740 -25 631 -10 535 19 C 438 48 356 94 289 158 C 221 221 170 302 134 401 C 98 500 80 620 80 760 C 80 899 98 1018 134 1117 C 170 1215 221 1296 289 1359 C 356 1422 438 1468 535 1498 C 631 1527 740 1542 862 1542 C 983 1542 1092 1527 1189 1498 C 1286 1468 1368 1422 1436 1359 C 1504 1296 1556 1215 1592 1117 C 1628 1018 1647 899 1647 760 C 1647 620 1628 500 1592 401 C 1556 302 1504 221 1436 158 C 1368 94 1286 48 1189 19 C 1092 -10 983 -25 862 -25 Z M 862 207 C 957 207 1038 219 1106 244 C 1174 268 1229 304 1272 351 C 1315 397 1347 455 1367 523 C 1387 591 1397 668 1397 756 C 1397 842 1387 919 1367 987 C 1347 1055 1315 1112 1272 1159 C 1229 1205 1174 1241 1106 1266 C 1038 1290 957 1303 862 1303 C 767 1303 686 1290 619 1266 C 551 1241 496 1205 454 1159 C 411 1112 380 1055 360 987 C 340 919 330 842 330 756 C 330 668 340 591 360 523 C 380 455 411 397 454 351 C 496 304 551 268 619 244 C 686 219 767 207 862 207 Z" unicode="" />
<glyph horiz-adv-x="614" d="M 184 1518 L 430 1518 L 430 0 L 184 0 L 184 1518 Z" unicode="" />
<glyph horiz-adv-x="1499" d="M 668 733 L 410 440 L 410 0 L 166 0 L 166 1518 L 410 1518 L 410 760 L 1075 1518 L 1360 1518 L 831 918 L 1434 0 L 1151 0 L 668 733 Z" unicode="" />
<glyph horiz-adv-x="1540" d="M 1501 0 L 1241 0 L 768 1217 L 299 0 L 39 0 L 645 1528 L 899 1528 L 1501 0 Z" unicode="" />
<glyph horiz-adv-x="1937" d="M 166 1518 L 489 1518 L 971 352 L 1452 1518 L 1772 1518 L 1772 0 L 1528 0 L 1528 1102 L 1069 0 L 864 0 L 406 1100 L 406 0 L 166 0 L 166 1518 Z" unicode="" />
<glyph horiz-adv-x="1640" d="M 166 1518 L 434 1518 L 1233 422 L 1233 1518 L 1475 1518 L 1475 0 L 1247 0 L 408 1149 L 408 0 L 166 0 L 166 1518 Z" unicode="" />
<glyph horiz-adv-x="1376" d="M 123 1518 L 1253 1518 L 1253 1280 L 123 1280 L 123 1518 Z M 248 897 L 1130 897 L 1130 662 L 248 662 L 248 897 Z M 106 233 L 1270 233 L 1270 0 L 106 0 L 106 233 Z" unicode="" />
<glyph horiz-adv-x="1726" d="M 862 -25 C 740 -25 631 -10 535 19 C 438 48 356 94 289 158 C 221 221 170 302 134 401 C 98 500 80 620 80 760 C 80 899 98 1018 134 1117 C 170 1215 221 1296 289 1359 C 356 1422 438 1468 535 1498 C 631 1527 740 1542 862 1542 C 983 1542 1092 1527 1189 1498 C 1286 1468 1368 1422 1436 1359 C 1504 1296 1556 1215 1592 1117 C 1628 1018 1647 899 1647 760 C 1647 620 1628 500 1592 401 C 1556 302 1504 221 1436 158 C 1368 94 1286 48 1189 19 C 1092 -10 983 -25 862 -25 Z M 862 207 C 957 207 1038 219 1106 244 C 1174 268 1229 304 1272 351 C 1315 397 1347 455 1367 523 C 1387 591 1397 668 1397 756 C 1397 842 1387 919 1367 987 C 1347 1055 1315 1112 1272 1159 C 1229 1205 1174 1241 1106 1266 C 1038 1290 957 1303 862 1303 C 767 1303 686 1290 619 1266 C 551 1241 496 1205 454 1159 C 411 1112 380 1055 360 987 C 340 919 330 842 330 756 C 330 668 340 591 360 523 C 380 455 411 397 454 351 C 496 304 551 268 619 244 C 686 219 767 207 862 207 Z" unicode="" />
<glyph horiz-adv-x="1532" d="M 166 1518 L 1366 1518 L 1366 0 L 1118 0 L 1118 1296 L 410 1296 L 410 0 L 166 0 L 166 1518 Z" unicode="" />
<glyph horiz-adv-x="1501" d="M 166 1518 L 862 1518 C 964 1518 1051 1507 1122 1486 C 1193 1464 1251 1433 1295 1392 C 1339 1351 1371 1301 1391 1241 C 1411 1181 1421 1112 1421 1034 C 1421 956 1411 885 1392 821 C 1372 757 1340 703 1296 658 C 1251 613 1192 578 1120 554 C 1048 530 958 518 852 518 L 408 518 L 408 0 L 166 0 L 166 1518 Z M 862 743 C 914 743 959 748 998 758 C 1037 768 1070 784 1096 806 C 1122 828 1141 857 1154 893 C 1167 928 1174 971 1174 1022 C 1174 1074 1167 1117 1155 1151 C 1142 1185 1123 1213 1097 1234 C 1071 1255 1038 1270 998 1279 C 958 1287 912 1292 858 1292 L 408 1292 L 408 743 L 862 743 Z" unicode="" />
<glyph horiz-adv-x="1348" d="M 80 186 L 594 762 L 102 1313 L 102 1518 L 1227 1518 L 1227 1280 L 438 1280 L 899 762 L 428 233 L 1262 233 L 1262 0 L 80 0 L 80 186 Z" unicode="" />
<glyph horiz-adv-x="1427" d="M 590 1280 L 43 1280 L 43 1518 L 1386 1518 L 1386 1280 L 840 1280 L 840 0 L 590 0 L 590 1280 Z" unicode="" />
<glyph horiz-adv-x="1495" d="M 625 559 L 16 1518 L 285 1518 L 752 784 L 1221 1518 L 1477 1518 L 870 563 L 870 0 L 625 0 L 625 559 Z" unicode="" />
<glyph horiz-adv-x="1812" d="M 784 102 C 669 109 566 128 476 158 C 385 188 308 231 245 285 C 182 339 134 406 101 485 C 67 563 51 655 51 760 C 51 863 67 954 101 1032 C 134 1110 182 1177 245 1231 C 307 1285 384 1327 475 1357 C 565 1387 668 1407 784 1415 L 784 1518 L 1032 1518 L 1032 1415 C 1146 1407 1248 1387 1339 1357 C 1429 1327 1506 1285 1569 1231 C 1632 1177 1680 1110 1714 1032 C 1748 954 1765 863 1765 760 C 1765 656 1748 564 1714 486 C 1680 407 1632 341 1569 287 C 1506 233 1429 190 1339 160 C 1248 130 1146 111 1032 104 L 1032 0 L 784 0 L 784 102 Z M 301 756 C 301 698 309 644 327 595 C 345 545 373 502 412 465 C 450 427 500 396 561 372 C 622 348 696 332 784 324 L 784 1186 C 696 1178 622 1162 561 1138 C 499 1114 449 1083 411 1046 C 372 1008 344 965 327 916 C 309 867 301 814 301 756 Z M 1516 756 C 1516 814 1507 867 1489 916 C 1471 965 1443 1008 1404 1046 C 1365 1083 1315 1114 1254 1138 C 1192 1162 1118 1178 1032 1186 L 1032 324 C 1118 332 1192 348 1254 372 C 1315 396 1365 427 1404 465 C 1443 502 1471 545 1489 595 C 1507 644 1516 698 1516 756 Z" unicode="" />
<glyph horiz-adv-x="1526" d="M 754 610 L 344 0 L 68 0 L 623 797 L 121 1518 L 397 1518 L 770 983 L 1130 1518 L 1407 1518 L 901 797 L 1460 0 L 1180 0 L 754 610 Z" unicode="" />
<glyph horiz-adv-x="1552" d="M 651 539 C 541 545 453 561 385 586 C 317 611 263 645 225 688 C 187 731 161 783 147 845 C 133 907 127 977 127 1057 L 127 1518 L 362 1518 L 362 1053 C 362 1013 364 977 368 943 C 372 909 383 879 401 853 C 419 827 448 805 487 788 C 526 770 581 758 651 752 L 651 1518 L 901 1518 L 901 752 C 971 758 1025 770 1064 788 C 1103 806 1132 828 1151 855 C 1169 881 1180 912 1184 946 C 1188 980 1190 1017 1190 1057 L 1190 1518 L 1425 1518 L 1425 1061 C 1425 981 1417 910 1403 848 C 1388 786 1361 733 1322 689 C 1283 645 1230 611 1162 586 C 1094 561 1007 545 901 539 L 901 0 L 651 0 L 651 539 Z" unicode="" />
<glyph horiz-adv-x="1776" d="M 889 1542 C 1022 1542 1138 1524 1236 1490 C 1334 1455 1416 1407 1481 1346 C 1545 1284 1593 1212 1625 1129 C 1657 1045 1673 955 1673 858 C 1673 778 1663 705 1644 639 C 1624 573 1596 514 1559 464 C 1521 414 1475 372 1420 338 C 1365 304 1302 279 1231 264 L 1231 217 L 1688 217 L 1688 0 L 1049 0 L 1049 371 C 1115 385 1172 405 1220 431 C 1267 457 1306 490 1336 528 C 1366 566 1388 610 1402 659 C 1416 708 1423 762 1423 821 C 1423 897 1411 965 1389 1026 C 1367 1087 1333 1139 1289 1182 C 1244 1224 1188 1257 1122 1280 C 1055 1303 977 1315 889 1315 C 799 1315 721 1303 654 1280 C 587 1257 531 1224 486 1182 C 441 1139 407 1087 385 1026 C 363 965 352 897 352 821 C 352 762 359 708 373 659 C 387 610 409 566 439 528 C 469 490 507 457 555 431 C 602 405 659 385 727 371 L 727 0 L 88 0 L 88 217 L 545 217 L 545 264 C 474 279 411 304 356 338 C 301 372 255 414 217 464 C 179 514 151 573 131 639 C 111 705 102 778 102 858 C 102 955 117 1045 149 1129 C 181 1212 229 1284 294 1346 C 358 1407 440 1455 539 1490 C 638 1524 755 1542 889 1542 Z" unicode="" />
<glyph horiz-adv-x="614" d="M -23 1872 L 195 1872 L 195 1624 L -23 1624 L -23 1872 Z M 426 1872 L 641 1872 L 641 1624 L 426 1624 L 426 1872 Z M 184 1518 L 430 1518 L 430 0 L 184 0 L 184 1518 Z" unicode="" />
<glyph horiz-adv-x="1495" d="M 414 1872 L 631 1872 L 631 1624 L 414 1624 L 414 1872 Z M 862 1872 L 1077 1872 L 1077 1624 L 862 1624 L 862 1872 Z M 625 559 L 16 1518 L 285 1518 L 752 784 L 1221 1518 L 1477 1518 L 870 563 L 870 0 L 625 0 L 625 559 Z" unicode="" />
</font>
</defs>
</svg>
