<?xml version="1.0" encoding="utf-8" ?><svg version="1.1" xmlns = 'http://www.w3.org/2000/svg'><defs><font id='web' horiz-adv-x="1000">
<font-face font-family="web" descent="-410" cap-height="1518" units-per-em="2048" bbox="-291,-557,3120,2507" x-height="1139" ascent="1638" />
<missing-glyph horiz-adv-x="1024" d="" /><glyph horiz-adv-x="471" d="" unicode=" " />
<glyph horiz-adv-x="758" d="M 147 266 L 397 266 L 342 0 L 94 0 L 147 266 Z M 432 1518 L 651 1518 L 397 434 L 219 434 L 432 1518 Z" unicode="!" />
<glyph horiz-adv-x="1034" d="M 356 1518 L 563 1518 L 418 897 L 242 897 L 356 1518 Z M 797 1518 L 1006 1518 L 858 897 L 682 897 L 797 1518 Z" unicode="&#x22;" />
<glyph horiz-adv-x="1509" d="M 342 428 L 63 428 L 100 610 L 379 610 L 440 889 L 160 889 L 199 1073 L 477 1073 L 571 1518 L 764 1518 L 668 1073 L 963 1073 L 1057 1518 L 1249 1518 L 1155 1073 L 1448 1073 L 1409 889 L 1118 889 L 1059 610 L 1348 610 L 1311 428 L 1022 428 L 930 0 L 737 0 L 829 428 L 537 428 L 442 0 L 250 0 L 342 428 Z M 877 600 L 942 901 L 621 901 L 555 600 L 877 600 Z" unicode="#" />
<glyph horiz-adv-x="1331" d="M 422 10 C 328 21 246 42 175 73 C 103 104 42 144 -10 193 L 106 334 C 154 292 207 258 264 232 C 320 205 387 186 463 176 L 582 721 C 536 735 492 751 452 769 C 411 787 375 810 345 837 C 315 863 291 895 274 933 C 256 971 248 1017 248 1071 C 248 1147 260 1213 286 1269 C 311 1325 346 1371 391 1408 C 435 1444 488 1472 548 1490 C 608 1508 673 1518 743 1520 L 772 1655 L 954 1655 L 926 1509 C 1002 1499 1068 1482 1122 1460 C 1176 1437 1220 1412 1253 1384 L 1137 1231 C 1107 1253 1071 1273 1028 1291 C 985 1308 936 1321 881 1331 L 776 850 C 826 834 873 816 917 798 C 961 779 999 756 1032 728 C 1065 700 1091 667 1110 629 C 1129 590 1139 543 1139 487 C 1139 406 1125 335 1099 275 C 1073 214 1036 163 989 123 C 941 82 885 51 820 31 C 754 11 682 0 604 0 L 565 -193 L 379 -193 L 422 10 Z M 944 463 C 944 491 939 515 930 536 C 921 557 908 576 891 592 C 873 608 852 622 827 635 C 801 647 772 660 739 672 L 631 168 C 679 170 722 178 761 192 C 799 205 832 224 859 248 C 886 272 907 302 922 338 C 936 374 944 415 944 463 Z M 446 1092 C 446 1066 450 1043 458 1024 C 466 1005 477 988 492 973 C 507 958 525 945 547 933 C 569 921 593 911 621 901 L 715 1339 C 625 1335 558 1311 513 1269 C 468 1227 446 1168 446 1092 Z" unicode="$" />
<glyph horiz-adv-x="2265" d="M 498 569 C 433 569 377 577 331 595 C 285 612 247 636 217 667 C 187 698 164 735 150 779 C 136 823 129 871 129 924 C 129 1014 140 1096 164 1172 C 188 1248 221 1313 264 1368 C 306 1422 357 1465 416 1496 C 475 1526 540 1542 612 1542 C 676 1542 732 1533 779 1515 C 825 1497 864 1472 894 1440 C 924 1408 946 1369 960 1325 C 974 1281 981 1232 981 1180 C 981 1086 968 1002 944 927 C 920 851 886 787 843 734 C 799 681 748 640 689 612 C 630 583 566 569 498 569 Z M 512 729 C 557 729 598 740 634 764 C 670 787 700 819 725 859 C 749 899 768 945 781 999 C 794 1053 801 1110 801 1171 C 801 1201 797 1228 791 1253 C 784 1278 773 1300 758 1318 C 742 1336 722 1350 697 1360 C 671 1370 640 1376 604 1376 C 556 1376 513 1364 477 1340 C 440 1316 409 1283 385 1243 C 361 1202 342 1155 330 1101 C 317 1047 311 991 311 932 C 311 902 314 875 321 851 C 328 826 339 805 355 787 C 371 769 391 754 417 744 C 443 734 474 729 512 729 Z M 1657 -23 C 1591 -23 1534 -14 1487 3 C 1440 20 1402 44 1372 76 C 1342 107 1321 144 1307 188 C 1293 232 1286 280 1286 332 C 1286 421 1297 503 1321 579 C 1344 655 1377 720 1420 775 C 1462 830 1513 873 1573 904 C 1632 934 1697 950 1769 950 C 1834 950 1890 941 1937 923 C 1983 905 2021 880 2051 848 C 2081 816 2103 777 2117 733 C 2131 689 2138 640 2138 588 C 2138 495 2125 411 2101 336 C 2076 260 2042 196 1999 143 C 1956 90 1905 49 1847 20 C 1788 -8 1725 -23 1657 -23 Z M 1667 137 C 1712 137 1753 148 1789 172 C 1825 195 1855 227 1880 267 C 1904 307 1923 354 1936 408 C 1949 462 1956 519 1956 580 C 1956 610 1952 637 1946 663 C 1939 688 1928 710 1913 728 C 1897 746 1877 760 1852 770 C 1826 780 1795 786 1759 786 C 1711 786 1669 774 1633 750 C 1597 726 1566 693 1542 653 C 1517 612 1498 565 1486 511 C 1474 457 1468 400 1468 340 C 1468 310 1471 283 1478 259 C 1484 234 1495 213 1511 195 C 1527 177 1547 162 1573 152 C 1598 142 1629 137 1667 137 Z M 1622 1518 L 1810 1518 L 666 0 L 477 0 L 1622 1518 Z" unicode="%" />
<glyph horiz-adv-x="1647" d="M 541 -20 C 445 -20 362 -12 294 3 C 226 19 170 42 127 72 C 83 102 52 140 32 184 C 12 228 2 278 2 334 C 2 417 14 489 38 549 C 62 609 95 661 135 704 C 175 747 222 783 274 813 C 326 842 379 867 434 889 C 422 951 416 1013 416 1075 C 416 1161 426 1233 447 1293 C 467 1352 495 1400 531 1437 C 566 1474 607 1501 653 1517 C 699 1533 749 1542 801 1542 C 857 1542 905 1535 946 1522 C 986 1508 1020 1489 1047 1465 C 1073 1441 1093 1411 1106 1376 C 1119 1341 1126 1302 1126 1260 C 1126 1188 1113 1126 1089 1074 C 1065 1022 1032 977 991 939 C 949 901 901 869 846 842 C 791 815 733 790 672 768 C 693 708 719 650 751 595 C 782 540 816 490 854 446 C 874 421 894 398 913 378 C 931 358 950 340 969 324 C 1031 388 1088 466 1140 560 C 1191 654 1240 763 1288 887 L 1450 831 C 1402 703 1350 589 1296 488 C 1241 387 1180 300 1112 227 C 1134 215 1156 206 1178 200 C 1200 194 1221 189 1242 186 C 1262 183 1282 181 1302 181 C 1321 180 1340 180 1360 180 L 1405 180 L 1368 0 L 1339 0 C 1302 0 1267 1 1233 4 C 1199 6 1167 11 1135 18 C 1103 25 1072 34 1042 46 C 1012 58 982 73 952 92 C 893 54 830 26 762 8 C 694 -10 621 -20 541 -20 Z M 559 147 C 650 147 733 166 809 205 C 788 225 767 247 747 271 C 726 294 704 320 682 348 C 638 400 599 458 565 522 C 531 586 502 652 479 721 C 441 703 405 684 372 662 C 338 640 309 615 284 586 C 259 557 239 524 225 486 C 210 448 203 404 203 354 C 203 325 208 298 218 273 C 228 248 247 226 274 208 C 300 189 337 174 383 163 C 429 152 487 147 559 147 Z M 608 1087 C 608 1037 613 984 625 928 C 671 944 713 961 752 980 C 790 999 824 1021 852 1046 C 880 1071 902 1099 918 1131 C 934 1162 942 1198 942 1239 C 942 1280 929 1311 905 1333 C 881 1355 844 1366 795 1366 C 766 1366 740 1360 717 1350 C 694 1340 674 1323 658 1301 C 642 1279 629 1250 621 1215 C 612 1179 608 1137 608 1087 Z" unicode="&#x26;" />
<glyph horiz-adv-x="596" d="M 356 1520 L 563 1520 L 418 897 L 242 897 L 356 1520 Z" unicode="'" />
<glyph horiz-adv-x="1001" d="M 420 -381 C 389 -347 358 -305 328 -257 C 298 -208 271 -153 247 -91 C 223 -29 203 39 188 114 C 173 188 166 268 166 354 C 166 448 175 540 195 630 C 214 720 240 806 274 890 C 307 973 346 1052 390 1126 C 434 1200 482 1269 532 1332 C 582 1394 634 1450 688 1499 C 741 1548 793 1589 844 1622 L 967 1505 C 919 1470 870 1429 822 1382 C 774 1335 727 1283 683 1226 C 639 1168 597 1106 559 1039 C 521 972 487 901 459 827 C 431 753 409 675 393 595 C 377 515 369 432 369 348 C 369 276 375 207 388 143 C 400 78 417 18 437 -36 C 457 -90 480 -139 505 -182 C 530 -225 555 -261 580 -289 L 420 -381 L 420 -381 Z" unicode="(" />
<glyph horiz-adv-x="1001" d="M -23 -266 C 25 -231 73 -190 121 -143 C 169 -96 216 -44 260 13 C 304 70 345 132 383 199 C 421 266 455 337 483 411 C 511 485 533 563 549 643 C 565 723 573 806 573 891 C 573 963 566 1031 554 1096 C 542 1160 526 1220 506 1275 C 486 1329 463 1378 439 1421 C 414 1464 389 1500 365 1528 L 524 1622 C 554 1588 584 1546 614 1497 C 644 1448 672 1392 696 1330 C 720 1268 740 1199 755 1125 C 770 1050 778 970 778 885 C 778 791 768 698 749 608 C 729 518 703 431 670 348 C 636 265 597 186 553 112 C 509 38 461 -30 411 -92 C 361 -154 309 -210 255 -259 C 201 -308 149 -349 98 -381 L -23 -266 Z" unicode=")" />
<glyph horiz-adv-x="1196" d="M 473 559 L 569 924 L 213 793 L 162 950 L 530 1049 L 236 1294 L 344 1417 L 618 1149 L 678 1526 L 836 1491 L 737 1122 L 1098 1257 L 1147 1100 L 776 997 L 1075 756 L 967 635 L 690 899 L 629 524 L 473 559 Z" unicode="*" />
<glyph horiz-adv-x="1440" d="M 594 627 L 182 627 L 223 817 L 633 817 L 721 1225 L 918 1225 L 831 817 L 1241 817 L 1200 627 L 793 627 L 707 219 L 508 219 L 594 627 Z" unicode="+" />
<glyph horiz-adv-x="518" d="M -66 -162 C -36 -149 -12 -137 6 -126 C 24 -115 40 -104 52 -92 C 64 -80 73 -66 79 -52 C 85 -37 91 -20 96 0 L -25 0 L 29 270 L 279 270 L 233 43 C 223 -5 211 -45 198 -77 C 185 -109 169 -137 149 -159 C 129 -181 104 -201 75 -217 C 45 -233 9 -250 -33 -266 L -66 -162 Z" unicode="," />
<glyph horiz-adv-x="911" d="M 94 735 L 805 735 L 766 549 L 55 549 L 94 735 Z" unicode="-" />
<glyph horiz-adv-x="518" d="M 29 270 L 279 270 L 223 0 L -25 0 L 29 270 Z" unicode="." />
<glyph horiz-adv-x="1055" d="M 1008 1518 L 1223 1518 L 49 0 L -164 0 L 1008 1518 Z" unicode="/" />
<glyph horiz-adv-x="1477" d="M 641 -23 C 544 -23 462 -11 395 11 C 328 33 274 66 232 109 C 190 151 159 203 141 264 C 122 325 113 394 113 471 C 113 573 126 690 154 821 C 178 939 210 1043 248 1133 C 286 1223 332 1298 388 1359 C 444 1419 509 1465 584 1496 C 659 1526 746 1542 846 1542 C 940 1542 1019 1529 1085 1505 C 1151 1481 1204 1446 1245 1402 C 1286 1358 1316 1304 1334 1242 C 1352 1179 1362 1110 1362 1034 C 1362 930 1348 816 1321 694 C 1295 576 1264 472 1226 383 C 1188 293 1141 219 1087 159 C 1032 99 968 53 895 23 C 821 -7 737 -23 641 -23 Z M 653 162 C 721 162 780 174 830 199 C 880 224 923 261 959 309 C 995 357 1025 415 1051 485 C 1076 554 1098 633 1118 723 C 1129 775 1138 826 1146 876 C 1153 926 1157 974 1157 1020 C 1157 1070 1151 1115 1140 1156 C 1129 1196 1111 1231 1086 1260 C 1060 1289 1027 1312 985 1328 C 943 1344 892 1352 831 1352 C 759 1352 698 1339 647 1314 C 596 1289 552 1253 516 1206 C 480 1158 449 1100 424 1031 C 398 962 376 883 358 795 C 346 737 336 681 329 629 C 322 577 319 528 319 483 C 319 433 324 388 335 348 C 346 308 365 275 391 247 C 417 219 451 198 494 184 C 536 169 589 162 653 162 Z" unicode="0" />
<glyph horiz-adv-x="786" d="M 477 1327 L 195 1327 L 236 1518 L 713 1518 L 389 0 L 193 0 L 477 1327 Z" unicode="1" />
<glyph horiz-adv-x="1196" d="M -51 166 L 547 653 C 598 694 643 731 683 763 C 723 795 758 825 788 852 C 818 879 843 904 864 928 C 884 952 901 976 914 1000 C 926 1024 935 1050 941 1078 C 947 1105 950 1136 950 1171 C 950 1199 945 1224 935 1247 C 925 1270 908 1290 885 1306 C 862 1322 832 1335 794 1344 C 756 1353 709 1358 653 1358 C 625 1358 595 1356 564 1353 C 533 1350 502 1346 471 1340 C 439 1334 409 1326 379 1317 C 349 1308 321 1298 295 1286 L 229 1454 C 293 1482 363 1504 438 1519 C 513 1534 592 1542 676 1542 C 760 1542 833 1534 893 1519 C 953 1504 1003 1482 1042 1454 C 1080 1426 1108 1391 1126 1351 C 1144 1310 1153 1264 1153 1212 C 1153 1162 1149 1118 1142 1078 C 1134 1038 1123 1001 1107 967 C 1091 933 1072 900 1048 869 C 1024 838 995 806 961 774 C 927 742 889 708 846 672 C 802 636 754 596 700 553 L 231 176 L 948 176 L 913 0 L -86 0 L -51 166 Z" unicode="2" />
<glyph horiz-adv-x="1235" d="M 512 -25 C 442 -25 378 -21 322 -13 C 266 -5 214 6 166 21 C 118 36 73 54 32 75 C -9 96 -49 120 -88 147 L 37 299 C 71 275 106 255 141 237 C 176 219 213 204 251 192 C 289 179 329 169 372 163 C 415 157 462 154 514 154 C 567 154 615 160 658 174 C 701 187 738 208 768 237 C 798 266 821 303 837 349 C 853 394 862 448 862 512 C 862 548 856 579 846 607 C 836 634 818 657 794 676 C 769 694 736 708 695 718 C 654 728 603 733 543 733 L 342 733 L 379 911 L 643 911 C 695 911 741 915 781 924 C 821 933 854 948 881 969 C 907 990 927 1018 941 1054 C 954 1089 961 1133 961 1186 C 961 1214 955 1239 945 1261 C 934 1283 917 1301 893 1316 C 869 1331 839 1342 801 1350 C 763 1358 716 1362 662 1362 C 640 1362 614 1360 585 1358 C 555 1355 524 1350 491 1344 C 458 1338 424 1329 390 1319 C 356 1309 323 1296 291 1280 L 207 1440 C 247 1461 290 1478 335 1492 C 379 1505 423 1515 467 1523 C 510 1530 551 1535 590 1538 C 629 1540 664 1542 694 1542 C 856 1542 975 1515 1052 1462 C 1128 1409 1167 1332 1167 1231 C 1167 1166 1160 1110 1147 1062 C 1134 1014 1116 974 1093 941 C 1070 907 1043 881 1012 861 C 981 841 947 827 911 819 C 963 796 1000 758 1024 706 C 1047 654 1059 590 1059 516 C 1059 420 1046 337 1020 269 C 994 201 958 145 910 101 C 862 57 805 25 738 5 C 670 -14 595 -25 512 -25 Z" unicode="3" />
<glyph horiz-adv-x="1343" d="M 49 522 L 940 1518 L 1167 1518 L 283 532 L 784 532 L 928 1014 L 1071 1014 L 969 532 L 1227 532 L 1192 360 L 932 360 L 856 0 L 670 0 L 745 360 L 16 360 L 49 522 Z" unicode="4" />
<glyph horiz-adv-x="1282" d="M 547 -23 C 479 -23 416 -18 359 -8 C 302 1 250 14 204 30 C 157 46 115 64 79 84 C 42 104 10 125 -18 147 L 100 299 C 130 277 161 258 194 240 C 227 222 263 206 301 194 C 339 181 379 171 423 164 C 467 157 514 154 565 154 C 613 154 661 160 707 172 C 753 184 793 205 829 236 C 865 266 893 308 915 360 C 937 412 948 479 948 559 C 948 607 940 648 925 682 C 909 716 887 743 859 764 C 830 785 795 800 754 810 C 713 820 667 825 616 825 C 568 825 519 818 471 806 C 423 794 376 777 330 756 L 172 807 L 362 1518 L 1247 1518 L 1208 1337 L 510 1337 L 401 946 C 445 963 491 976 539 984 C 587 992 636 997 686 997 C 755 997 818 990 876 978 C 933 965 982 943 1024 911 C 1065 879 1097 837 1120 784 C 1143 731 1155 664 1155 584 C 1155 462 1138 362 1106 284 C 1073 205 1029 143 973 98 C 917 52 853 21 780 3 C 706 -14 629 -23 547 -23 Z" unicode="5" />
<glyph horiz-adv-x="1393" d="M 641 -23 C 452 -23 313 17 224 99 C 134 181 90 299 90 453 C 90 523 99 602 119 692 C 141 797 166 890 194 972 C 222 1054 254 1125 292 1186 C 330 1247 373 1299 422 1341 C 470 1383 527 1418 591 1444 C 655 1470 728 1488 809 1500 C 889 1512 981 1518 1083 1518 L 1233 1518 L 1196 1337 L 1075 1337 C 992 1337 919 1332 856 1323 C 793 1313 738 1300 690 1283 C 642 1265 602 1244 568 1219 C 534 1194 504 1166 480 1134 C 455 1102 434 1068 417 1030 C 399 992 384 951 371 909 C 407 944 461 972 531 994 C 601 1015 684 1026 780 1026 C 864 1026 936 1016 995 997 C 1054 977 1102 950 1139 916 C 1175 881 1202 840 1218 792 C 1234 744 1243 691 1243 635 C 1243 535 1230 444 1205 363 C 1180 282 1142 213 1092 156 C 1042 98 979 54 904 23 C 828 -7 741 -23 641 -23 Z M 645 152 C 717 152 779 163 829 185 C 879 207 920 238 952 278 C 984 317 1007 364 1021 418 C 1035 472 1042 532 1042 596 C 1042 634 1036 669 1025 701 C 1014 733 995 760 969 783 C 943 805 908 823 865 835 C 822 847 769 854 705 854 C 651 854 599 847 549 835 C 499 822 455 800 417 769 C 379 737 348 695 325 641 C 302 587 291 520 291 438 C 291 341 320 269 380 222 C 439 175 527 152 645 152 Z" unicode="6" />
<glyph horiz-adv-x="1081" d="M 946 1337 L 166 1337 L 203 1518 L 1208 1518 L 1174 1360 L 297 0 L 76 0 L 946 1337 Z" unicode="7" />
<glyph horiz-adv-x="1407" d="M 606 -29 C 504 -29 417 -19 347 0 C 276 20 218 47 174 81 C 129 115 97 155 77 201 C 57 247 47 298 47 352 C 47 422 55 484 71 538 C 87 592 111 639 141 679 C 171 719 208 752 252 778 C 296 804 345 824 399 838 C 371 850 349 865 331 884 C 313 902 298 923 287 947 C 275 970 267 995 263 1023 C 258 1050 256 1078 256 1106 C 256 1246 300 1353 389 1429 C 477 1504 611 1542 791 1542 C 893 1542 978 1533 1046 1516 C 1114 1499 1169 1476 1210 1446 C 1251 1416 1280 1380 1297 1339 C 1314 1298 1323 1254 1323 1206 C 1323 1098 1300 1010 1255 943 C 1210 876 1143 833 1055 815 C 1087 802 1113 785 1135 765 C 1157 745 1174 721 1187 695 C 1200 668 1209 638 1215 606 C 1220 574 1223 540 1223 504 C 1223 416 1208 338 1180 272 C 1152 205 1111 149 1058 105 C 1004 61 940 27 864 5 C 788 -17 702 -29 606 -29 Z M 627 143 C 681 143 732 149 780 161 C 828 173 869 194 905 222 C 941 250 969 286 989 332 C 1009 377 1020 432 1020 498 C 1020 535 1013 568 999 598 C 985 628 963 653 934 674 C 904 695 867 711 821 722 C 775 733 719 739 655 739 C 597 739 543 732 494 720 C 445 707 403 686 367 658 C 331 629 304 592 284 546 C 264 500 254 445 254 379 C 254 341 260 308 274 279 C 287 250 308 225 338 205 C 368 185 406 169 454 159 C 501 148 559 143 627 143 Z M 778 901 C 832 901 881 905 924 915 C 966 925 1002 940 1032 962 C 1061 984 1083 1012 1099 1048 C 1114 1083 1122 1126 1122 1178 C 1122 1206 1116 1233 1105 1257 C 1093 1281 1075 1301 1049 1318 C 1023 1335 990 1348 948 1358 C 906 1367 854 1372 793 1372 C 737 1372 688 1367 645 1357 C 602 1347 566 1332 537 1310 C 508 1288 486 1259 471 1224 C 456 1189 449 1146 449 1096 C 449 1066 454 1040 466 1016 C 477 992 495 971 521 954 C 547 937 581 924 623 915 C 665 905 716 901 778 901 Z" unicode="8" />
<glyph horiz-adv-x="1393" d="M 195 176 L 315 176 C 439 176 541 186 623 206 C 704 226 771 255 823 293 C 875 331 917 376 947 430 C 977 483 1004 542 1026 608 C 988 572 934 543 864 523 C 793 502 709 492 612 492 C 526 492 454 501 395 521 C 336 541 288 568 252 603 C 215 637 188 678 172 726 C 155 774 147 826 147 883 C 147 983 159 1073 185 1154 C 211 1235 249 1304 299 1362 C 349 1419 412 1463 488 1495 C 564 1526 652 1542 752 1542 C 846 1542 927 1531 996 1510 C 1064 1489 1121 1458 1166 1418 C 1211 1378 1245 1328 1267 1269 C 1289 1209 1300 1141 1300 1065 C 1300 1029 1298 991 1294 951 C 1290 911 1283 870 1274 827 C 1251 721 1226 628 1198 546 C 1170 464 1137 393 1099 332 C 1061 270 1018 218 970 176 C 921 134 865 100 801 74 C 737 48 664 29 583 17 C 502 5 411 0 309 0 L 160 0 L 195 176 Z M 686 655 C 740 655 792 661 842 674 C 892 686 937 708 975 740 C 1013 771 1044 813 1067 867 C 1090 921 1102 989 1102 1071 C 1102 1168 1072 1240 1012 1288 C 952 1336 863 1360 745 1360 C 672 1360 611 1348 561 1326 C 511 1304 470 1273 439 1233 C 407 1193 385 1146 371 1092 C 357 1038 350 979 350 915 C 350 877 355 842 366 810 C 377 778 396 750 422 727 C 448 704 482 686 525 674 C 568 661 622 655 686 655 Z" unicode="9" />
<glyph horiz-adv-x="559" d="M 49 262 L 299 262 L 244 0 L -4 0 L 49 262 Z M 236 1139 L 485 1139 L 432 877 L 184 877 L 236 1139 Z" unicode=":" />
<glyph horiz-adv-x="559" d="M -47 -162 C -17 -149 6 -137 25 -126 C 44 -115 59 -104 71 -92 C 83 -80 92 -66 99 -52 C 105 -37 111 -20 115 0 L -4 0 L 49 262 L 299 262 L 254 43 C 242 -7 230 -49 217 -81 C 204 -113 188 -141 168 -163 C 148 -185 124 -203 95 -219 C 66 -234 30 -250 -12 -266 L -47 -162 Z M 236 1139 L 485 1139 L 432 877 L 184 877 L 236 1139 Z" unicode=";" />
<glyph horiz-adv-x="1440" d="M 195 635 L 223 782 L 1245 1243 L 1208 1047 L 418 700 L 1057 360 L 1018 170 L 195 635 Z" unicode="&#x3C;" />
<glyph horiz-adv-x="1440" d="M 184 586 L 1182 586 L 1143 399 L 147 399 L 184 586 Z M 283 1042 L 1276 1042 L 1239 858 L 244 858 L 283 1042 Z" unicode="=" />
<glyph horiz-adv-x="1440" d="M 213 367 L 1001 715 L 362 1055 L 401 1245 L 1225 780 L 1198 633 L 174 172 L 213 367 Z" unicode="&#x3E;" />
<glyph horiz-adv-x="1356" d="M 459 412 C 467 462 475 507 484 547 C 492 586 503 621 515 652 C 527 683 541 710 557 734 C 573 758 592 779 615 799 C 637 818 664 836 695 852 C 726 868 763 883 805 899 C 859 919 905 937 941 953 C 977 969 1006 986 1028 1006 C 1049 1026 1064 1049 1073 1075 C 1082 1101 1087 1134 1087 1174 C 1087 1199 1082 1223 1072 1245 C 1062 1267 1045 1286 1021 1302 C 996 1318 962 1330 920 1340 C 877 1349 822 1354 756 1354 C 702 1354 641 1348 573 1336 C 505 1324 437 1306 367 1282 L 299 1456 C 339 1472 381 1486 426 1497 C 471 1508 515 1517 559 1524 C 603 1530 644 1535 684 1538 C 724 1540 758 1542 788 1542 C 882 1542 962 1534 1027 1519 C 1091 1504 1144 1483 1184 1455 C 1224 1427 1252 1393 1270 1353 C 1287 1313 1296 1268 1296 1219 C 1296 1155 1289 1101 1276 1055 C 1262 1009 1241 968 1212 934 C 1182 899 1144 868 1097 841 C 1050 814 993 788 926 764 C 876 744 835 726 804 709 C 772 691 747 670 728 645 C 709 620 694 589 684 553 C 673 516 663 469 653 412 L 459 412 Z M 397 242 L 649 242 L 598 0 L 348 0 L 397 242 Z" unicode="?" />
<glyph horiz-adv-x="2210" d="M 1081 -338 C 921 -338 782 -319 664 -281 C 545 -243 446 -186 367 -109 C 288 -32 229 64 190 182 C 150 299 131 438 131 598 C 131 760 151 900 193 1019 C 234 1137 294 1235 373 1313 C 452 1391 549 1449 665 1487 C 780 1525 912 1544 1061 1544 C 1211 1544 1344 1525 1460 1487 C 1576 1449 1674 1391 1754 1313 C 1833 1235 1893 1137 1935 1019 C 1976 900 1997 760 1997 598 C 1997 497 1990 412 1976 344 C 1962 276 1940 221 1910 179 C 1880 137 1841 108 1793 90 C 1745 72 1688 63 1620 63 C 1520 63 1443 75 1391 99 C 1339 123 1307 159 1296 207 C 1273 182 1249 161 1223 145 C 1197 128 1168 114 1136 104 C 1104 94 1069 86 1031 82 C 993 78 950 76 903 76 C 833 76 774 85 726 104 C 678 123 638 149 608 183 C 578 216 556 256 542 302 C 528 348 522 399 522 453 C 522 512 526 570 534 628 C 542 685 555 739 573 790 C 591 840 613 887 640 930 C 667 972 699 1009 737 1040 C 775 1071 818 1095 866 1113 C 914 1130 969 1139 1030 1139 C 1088 1139 1139 1135 1181 1129 C 1223 1122 1258 1113 1288 1101 C 1317 1089 1341 1074 1359 1058 C 1377 1042 1393 1024 1405 1004 L 1473 1128 L 1597 1118 L 1442 393 C 1434 353 1431 320 1435 293 C 1438 265 1448 243 1464 226 C 1480 208 1503 196 1533 188 C 1562 180 1598 176 1642 176 C 1689 176 1728 183 1758 198 C 1788 212 1812 236 1830 269 C 1847 302 1859 346 1866 400 C 1872 454 1876 520 1876 598 C 1876 739 1858 861 1824 965 C 1790 1069 1739 1155 1671 1223 C 1603 1291 1518 1341 1416 1375 C 1314 1408 1196 1425 1061 1425 C 929 1425 813 1408 713 1375 C 612 1341 527 1291 459 1223 C 391 1155 339 1069 304 965 C 269 861 252 739 252 598 C 252 321 320 116 458 -18 C 595 -152 802 -219 1079 -219 C 1133 -219 1187 -216 1239 -210 C 1291 -204 1340 -196 1388 -186 C 1435 -175 1480 -163 1522 -149 C 1564 -135 1602 -119 1638 -102 L 1692 -207 C 1611 -247 1520 -278 1418 -302 C 1316 -326 1203 -338 1081 -338 Z M 950 238 C 996 238 1037 243 1075 253 C 1113 263 1147 281 1177 307 C 1207 333 1233 368 1255 412 C 1277 456 1295 512 1309 580 C 1316 608 1321 636 1324 663 C 1327 690 1329 716 1329 741 C 1329 775 1324 807 1315 835 C 1305 863 1290 887 1268 907 C 1246 927 1217 942 1181 953 C 1145 963 1100 969 1047 969 C 987 969 936 956 894 930 C 851 904 816 868 789 824 C 762 779 742 727 730 668 C 717 608 711 545 711 479 C 711 443 714 410 722 380 C 730 350 743 325 762 304 C 780 283 805 267 836 255 C 866 243 904 238 950 238 Z" unicode="@" />
<glyph horiz-adv-x="1473" d="M 795 1528 L 999 1528 L 1260 0 L 1053 0 L 999 319 L 295 319 L 106 0 L -117 0 L 795 1528 Z M 971 510 L 846 1262 L 401 510 L 971 510 Z" unicode="A" />
<glyph horiz-adv-x="1434" d="M 334 1518 L 858 1518 C 963 1518 1051 1510 1121 1496 C 1191 1482 1248 1461 1290 1434 C 1332 1407 1361 1374 1379 1336 C 1396 1297 1405 1254 1405 1206 C 1405 1143 1398 1087 1385 1038 C 1372 989 1353 947 1329 912 C 1304 876 1274 848 1240 827 C 1205 805 1166 791 1124 784 C 1152 774 1176 761 1197 743 C 1218 725 1235 704 1249 679 C 1263 654 1273 626 1280 596 C 1286 565 1290 532 1290 498 C 1290 402 1276 322 1250 258 C 1224 194 1186 142 1137 104 C 1087 66 1027 39 955 23 C 883 7 801 0 711 0 L 10 0 L 334 1518 Z M 750 186 C 801 186 847 191 889 202 C 930 213 965 231 994 255 C 1022 279 1044 311 1060 350 C 1075 389 1083 437 1083 494 C 1083 524 1077 551 1066 575 C 1054 599 1036 619 1012 635 C 987 651 955 663 916 671 C 877 679 830 684 774 684 L 362 684 L 252 186 L 750 186 Z M 889 877 C 944 877 990 883 1028 895 C 1066 907 1096 926 1120 950 C 1143 974 1160 1003 1170 1037 C 1180 1071 1186 1111 1186 1155 C 1186 1181 1181 1204 1171 1226 C 1161 1248 1143 1266 1118 1281 C 1092 1296 1058 1308 1015 1316 C 972 1324 918 1329 852 1329 L 500 1329 L 401 877 L 889 877 Z" unicode="B" />
<glyph horiz-adv-x="1462" d="M 721 -23 C 607 -23 508 -9 425 18 C 342 46 274 85 220 137 C 166 188 126 250 100 323 C 74 396 61 478 61 569 C 61 650 70 738 88 834 C 116 968 157 1081 211 1171 C 264 1261 327 1334 399 1389 C 471 1444 550 1483 638 1507 C 726 1530 818 1542 915 1542 C 991 1542 1059 1536 1119 1524 C 1178 1512 1230 1495 1276 1475 C 1322 1455 1361 1431 1395 1405 C 1429 1379 1458 1351 1483 1323 L 1307 1182 C 1265 1230 1212 1268 1147 1298 C 1081 1328 1001 1343 907 1343 C 829 1343 758 1333 692 1313 C 626 1293 568 1261 516 1218 C 464 1174 419 1119 382 1051 C 344 983 315 901 295 805 C 287 767 281 731 277 696 C 273 661 272 628 272 596 C 272 530 281 471 300 419 C 318 367 347 322 385 286 C 423 249 472 221 531 201 C 589 181 659 172 739 172 C 782 172 822 174 859 180 C 895 185 929 193 961 204 C 993 214 1023 227 1051 243 C 1079 259 1106 277 1133 299 L 1260 145 C 1226 117 1191 92 1153 71 C 1115 50 1075 33 1031 19 C 987 5 940 -5 889 -12 C 837 -19 781 -23 721 -23 Z" unicode="C" />
<glyph horiz-adv-x="1532" d="M 334 1518 L 694 1518 C 834 1518 953 1507 1051 1487 C 1149 1466 1230 1434 1293 1391 C 1355 1347 1401 1292 1430 1225 C 1458 1158 1473 1078 1473 985 C 1473 939 1470 891 1464 841 C 1458 790 1449 736 1436 678 C 1415 581 1390 497 1361 426 C 1332 354 1299 293 1261 243 C 1223 193 1180 152 1134 120 C 1087 88 1036 64 981 46 C 925 28 865 16 801 10 C 737 3 668 0 596 0 L 10 0 L 334 1518 Z M 600 190 C 692 190 772 197 840 211 C 908 225 968 252 1018 290 C 1068 328 1110 381 1144 448 C 1178 515 1206 601 1229 707 C 1239 753 1247 796 1253 838 C 1259 880 1262 919 1262 956 C 1262 1018 1252 1072 1232 1118 C 1212 1164 1180 1202 1136 1232 C 1091 1262 1032 1284 960 1299 C 887 1313 798 1321 692 1321 L 502 1321 L 256 190 L 600 190 Z" unicode="D" />
<glyph horiz-adv-x="1300" d="M 334 1518 L 1341 1518 L 1300 1319 L 500 1319 L 401 883 L 1182 883 L 1143 686 L 365 686 L 256 190 L 1065 190 L 1026 0 L 10 0 L 334 1518 Z" unicode="E" />
<glyph horiz-adv-x="1217" d="M 334 1518 L 1305 1518 L 1262 1319 L 500 1319 L 399 862 L 1143 862 L 1104 666 L 360 666 L 217 0 L 10 0 L 334 1518 Z" unicode="F" />
<glyph horiz-adv-x="1573" d="M 737 -23 C 620 -23 519 -9 434 17 C 349 44 279 83 224 134 C 168 184 127 246 101 319 C 74 392 61 475 61 567 C 61 615 63 661 67 704 C 71 747 78 790 88 834 C 114 960 152 1068 202 1158 C 252 1248 312 1321 382 1378 C 452 1434 531 1476 619 1502 C 707 1528 802 1542 905 1542 C 988 1542 1062 1535 1127 1521 C 1191 1507 1248 1490 1296 1468 C 1344 1446 1385 1422 1418 1396 C 1451 1369 1478 1343 1499 1317 L 1323 1174 C 1307 1192 1289 1210 1267 1230 C 1245 1250 1217 1268 1184 1285 C 1150 1301 1110 1315 1063 1326 C 1015 1337 959 1343 893 1343 C 817 1343 746 1332 682 1312 C 617 1291 559 1259 508 1216 C 456 1172 412 1117 376 1049 C 339 981 311 899 291 805 C 283 771 278 735 275 699 C 271 663 270 628 270 594 C 270 526 279 465 298 411 C 316 357 345 312 384 275 C 423 238 473 210 534 191 C 594 171 666 162 750 162 C 834 162 903 170 959 187 C 1015 204 1061 231 1097 268 C 1133 304 1161 351 1183 409 C 1205 467 1224 536 1241 618 L 1247 657 L 791 657 L 829 846 L 1497 846 L 1456 639 C 1439 556 1420 482 1400 417 C 1380 352 1356 295 1329 246 C 1302 197 1271 156 1235 122 C 1199 88 1158 60 1110 38 C 1062 16 1008 1 947 -8 C 885 -18 815 -23 737 -23 Z" unicode="G" />
<glyph horiz-adv-x="1579" d="M 334 1518 L 541 1518 L 406 891 L 1229 891 L 1364 1518 L 1571 1518 L 1247 0 L 1040 0 L 1186 686 L 365 686 L 217 0 L 10 0 L 334 1518 Z" unicode="H" />
<glyph horiz-adv-x="582" d="M 350 1518 L 559 1518 L 236 0 L 27 0 L 350 1518 Z" unicode="I" />
<glyph horiz-adv-x="807" d="M -63 190 L 72 190 C 116 190 154 194 187 203 C 220 211 249 225 273 245 C 297 265 316 290 332 321 C 348 352 361 390 371 436 L 602 1518 L 809 1518 L 571 406 C 553 322 529 254 499 201 C 468 148 432 107 391 77 C 349 47 303 26 253 15 C 203 3 150 -2 94 -2 C 55 -2 26 -2 6 -2 C -13 -2 -28 -2 -40 -2 C -51 -2 -60 -1 -68 -1 C -76 -1 -87 0 -102 0 L -63 190 Z" unicode="J" />
<glyph horiz-adv-x="1432" d="M 657 782 L 315 469 L 215 0 L 10 0 L 334 1518 L 539 1518 L 375 754 L 1192 1518 L 1450 1518 L 819 926 L 1200 0 L 983 0 L 657 782 Z" unicode="K" />
<glyph horiz-adv-x="1178" d="M 334 1518 L 541 1518 L 256 190 L 1008 190 L 969 0 L 10 0 L 334 1518 Z" unicode="L" />
<glyph horiz-adv-x="1866" d="M 334 1518 L 602 1518 L 831 319 L 1575 1518 L 1858 1518 L 1534 0 L 1331 0 L 1589 1200 L 840 0 L 686 0 L 455 1192 L 197 0 L 10 0 L 334 1518 Z" unicode="M" />
<glyph horiz-adv-x="1577" d="M 334 1518 L 559 1518 L 1118 348 L 1372 1518 L 1569 1518 L 1245 0 L 1057 0 L 469 1217 L 207 0 L 10 0 L 334 1518 Z" unicode="N" />
<glyph horiz-adv-x="1688" d="M 764 -25 C 650 -25 549 -11 462 15 C 375 41 302 81 243 133 C 183 185 138 249 108 325 C 78 401 63 489 63 588 C 61 627 63 667 68 709 C 73 750 80 794 90 840 C 109 931 134 1012 166 1082 C 197 1152 233 1214 274 1266 C 315 1318 360 1361 410 1397 C 459 1432 511 1460 567 1482 C 623 1503 681 1518 741 1528 C 801 1537 863 1542 926 1542 C 1039 1542 1139 1528 1227 1502 C 1314 1475 1387 1436 1446 1384 C 1505 1332 1550 1269 1580 1194 C 1610 1118 1626 1032 1626 934 C 1626 894 1623 853 1619 812 C 1615 770 1607 728 1597 684 C 1577 592 1551 510 1520 440 C 1489 369 1453 307 1412 255 C 1371 203 1326 159 1277 123 C 1228 87 1176 58 1121 36 C 1066 14 1008 0 948 -10 C 888 -20 826 -25 764 -25 Z M 766 168 C 846 168 920 178 988 198 C 1055 218 1115 250 1168 293 C 1220 336 1265 391 1302 459 C 1339 526 1368 607 1389 702 C 1397 737 1403 772 1407 806 C 1411 840 1413 873 1413 905 C 1413 971 1403 1032 1384 1086 C 1365 1140 1335 1186 1295 1224 C 1254 1262 1202 1291 1140 1312 C 1077 1332 1002 1343 915 1343 C 834 1343 760 1332 693 1312 C 625 1291 566 1259 514 1216 C 462 1172 417 1117 381 1050 C 344 983 316 903 297 811 C 289 775 283 741 279 707 C 275 673 274 639 274 606 C 274 540 283 480 302 426 C 321 372 351 326 391 288 C 431 250 482 220 544 199 C 606 178 680 168 766 168 Z" unicode="O" />
<glyph horiz-adv-x="1434" d="M 334 1518 L 899 1518 C 997 1518 1081 1509 1149 1491 C 1217 1473 1272 1447 1314 1415 C 1356 1383 1386 1344 1404 1299 C 1422 1254 1432 1205 1432 1151 C 1432 1061 1420 980 1398 906 C 1375 832 1340 769 1293 716 C 1246 663 1187 622 1115 593 C 1043 563 958 549 860 549 L 330 549 L 213 0 L 10 0 L 334 1518 Z M 854 739 C 969 739 1058 769 1122 830 C 1185 891 1217 986 1217 1114 C 1217 1149 1210 1180 1197 1206 C 1184 1232 1164 1254 1137 1272 C 1109 1290 1074 1303 1030 1312 C 986 1320 934 1325 874 1325 L 498 1325 L 369 739 L 854 739 Z" unicode="P" />
<glyph horiz-adv-x="1688" d="M 737 -14 C 727 -51 722 -82 722 -106 C 722 -130 729 -149 742 -164 C 755 -178 775 -188 802 -194 C 829 -200 865 -203 909 -203 L 1044 -203 L 1008 -381 C 1000 -381 990 -382 978 -382 C 966 -382 953 -383 940 -383 C 927 -383 915 -383 903 -383 C 891 -383 883 -383 877 -383 C 793 -383 725 -376 672 -362 C 618 -348 578 -325 552 -294 C 525 -263 511 -223 509 -174 C 507 -124 515 -64 535 6 C 380 37 263 101 183 198 C 103 295 63 425 63 588 C 61 627 63 667 68 709 C 73 750 80 794 90 840 C 118 977 160 1091 216 1181 C 271 1271 335 1343 409 1397 C 482 1450 563 1487 651 1509 C 739 1531 831 1542 926 1542 C 1039 1542 1139 1528 1227 1502 C 1314 1475 1387 1436 1446 1384 C 1505 1332 1550 1269 1580 1194 C 1610 1118 1626 1032 1626 934 C 1626 894 1623 853 1619 812 C 1615 770 1607 728 1597 684 C 1577 592 1551 511 1520 441 C 1489 371 1453 310 1412 258 C 1371 206 1326 163 1277 128 C 1228 93 1176 65 1121 44 C 1066 23 1008 8 948 0 C 888 -9 826 -14 764 -14 L 737 -14 Z M 766 168 C 846 168 920 178 988 198 C 1055 218 1115 250 1168 293 C 1220 336 1265 391 1302 459 C 1339 526 1368 607 1389 702 C 1397 737 1403 772 1407 806 C 1411 840 1413 873 1413 905 C 1413 971 1403 1032 1384 1086 C 1365 1140 1335 1186 1295 1224 C 1254 1262 1202 1291 1140 1312 C 1077 1332 1002 1343 915 1343 C 834 1343 760 1332 693 1312 C 625 1291 566 1259 514 1216 C 462 1172 417 1117 381 1050 C 344 983 316 903 297 811 C 289 775 283 741 279 707 C 275 673 274 639 274 606 C 274 540 283 480 302 426 C 321 372 351 326 391 288 C 431 250 482 220 544 199 C 606 178 680 168 766 168 Z" unicode="Q" />
<glyph horiz-adv-x="1458" d="M 731 584 L 338 584 L 213 0 L 10 0 L 334 1518 L 872 1518 C 974 1518 1061 1508 1131 1490 C 1201 1471 1258 1445 1302 1413 C 1345 1380 1376 1341 1395 1297 C 1413 1253 1423 1205 1423 1153 C 1423 1071 1413 997 1393 931 C 1373 865 1344 807 1304 759 C 1264 711 1214 672 1154 642 C 1094 612 1023 594 942 588 L 1155 0 L 944 0 L 731 584 Z M 860 774 C 914 774 962 780 1005 793 C 1048 805 1085 825 1115 852 C 1145 879 1168 914 1184 957 C 1200 999 1208 1051 1208 1112 C 1208 1184 1179 1238 1122 1273 C 1065 1307 976 1325 856 1325 L 498 1325 L 377 774 L 860 774 Z" unicode="R" />
<glyph horiz-adv-x="1419" d="M 631 -20 C 551 -20 479 -15 413 -5 C 347 5 287 19 231 37 C 175 55 123 76 76 102 C 28 127 -15 155 -57 186 L 74 340 C 149 282 232 238 324 208 C 415 177 521 162 641 162 C 693 162 742 165 790 173 C 837 181 879 194 915 214 C 951 234 979 260 1000 294 C 1021 327 1032 370 1032 422 C 1032 464 1023 498 1007 524 C 990 550 966 573 935 591 C 903 609 865 625 819 639 C 773 653 720 670 662 688 C 598 706 539 725 484 745 C 428 765 380 789 340 818 C 299 847 267 883 244 926 C 220 969 209 1024 209 1090 C 209 1148 216 1199 230 1244 C 244 1289 263 1328 289 1362 C 314 1395 344 1423 379 1446 C 413 1469 451 1488 493 1502 C 534 1516 578 1526 624 1532 C 670 1538 718 1542 766 1542 C 845 1542 915 1537 977 1527 C 1038 1517 1092 1504 1140 1488 C 1188 1472 1229 1454 1264 1434 C 1299 1414 1330 1394 1356 1374 L 1221 1214 C 1198 1231 1172 1248 1142 1265 C 1112 1281 1079 1296 1041 1309 C 1003 1322 960 1332 914 1340 C 867 1348 815 1352 758 1352 C 711 1352 667 1348 626 1340 C 585 1332 549 1318 519 1299 C 489 1280 465 1255 448 1223 C 430 1191 422 1152 422 1106 C 422 1070 430 1040 446 1016 C 462 992 484 971 513 953 C 542 935 577 920 617 907 C 657 894 702 881 752 868 C 824 848 891 827 951 807 C 1011 787 1062 762 1106 733 C 1149 703 1183 667 1207 624 C 1231 581 1243 527 1243 463 C 1243 372 1227 296 1195 234 C 1163 172 1119 123 1064 85 C 1009 47 944 20 870 4 C 795 -11 715 -20 631 -20 Z" unicode="S" />
<glyph horiz-adv-x="1378" d="M 709 1319 L 170 1319 L 211 1518 L 1493 1518 L 1452 1319 L 915 1319 L 633 0 L 426 0 L 709 1319 Z" unicode="T" />
<glyph horiz-adv-x="1575" d="M 694 -27 C 576 -27 478 -15 402 8 C 326 32 265 63 221 103 C 177 143 146 189 128 242 C 110 294 102 350 102 408 C 102 440 104 472 109 506 C 113 539 119 572 127 604 L 324 1518 L 530 1518 L 336 610 C 330 580 324 551 320 524 C 315 496 313 470 313 444 C 313 402 319 364 332 330 C 345 296 367 267 398 243 C 429 219 470 200 522 187 C 574 174 638 168 715 168 C 786 168 847 176 898 193 C 949 209 992 234 1028 267 C 1063 299 1092 340 1114 389 C 1136 437 1153 493 1167 557 L 1374 1518 L 1575 1518 L 1358 516 C 1347 466 1334 419 1318 373 C 1302 327 1283 283 1259 243 C 1235 203 1207 166 1174 133 C 1141 99 1102 71 1056 47 C 1010 23 958 5 898 -7 C 838 -20 770 -27 694 -27 Z" unicode="U" />
<glyph horiz-adv-x="1473" d="M 215 1518 L 424 1518 L 627 266 L 1360 1518 L 1587 1518 L 676 -10 L 473 -10 L 215 1518 Z" unicode="V" />
<glyph horiz-adv-x="2177" d="M 227 1518 L 438 1518 L 539 360 L 1153 1518 L 1350 1518 L 1470 360 L 2062 1518 L 2275 1518 L 1491 -10 L 1309 -10 L 1182 1192 L 545 -10 L 362 -10 L 227 1518 Z" unicode="W" />
<glyph horiz-adv-x="1450" d="M 696 639 L 143 0 L -92 0 L 618 807 L 291 1518 L 506 1518 L 768 950 L 1257 1518 L 1493 1518 L 846 782 L 1208 0 L 993 0 L 696 639 Z" unicode="X" />
<glyph horiz-adv-x="1425" d="M 569 584 L 188 1518 L 403 1518 L 711 782 L 1325 1518 L 1554 1518 L 774 578 L 651 0 L 444 0 L 569 584 Z" unicode="Y" />
<glyph horiz-adv-x="1335" d="M -41 164 L 1075 1319 L 242 1319 L 283 1518 L 1384 1518 L 1350 1337 L 238 190 L 1122 190 L 1083 0 L -76 0 L -41 164 Z" unicode="Z" />
<glyph horiz-adv-x="975" d="M 424 1589 L 954 1589 L 920 1407 L 588 1407 L 250 -162 L 588 -162 L 551 -338 L 14 -338 L 424 1589 Z" unicode="[" />
<glyph horiz-adv-x="1055" d="M 170 1518 L 360 1518 L 887 0 L 696 0 L 170 1518 Z" unicode="\" />
<glyph horiz-adv-x="975" d="M -2 -162 L 332 -162 L 670 1407 L 336 1407 L 373 1589 L 907 1589 L 498 -338 L -37 -338 L -2 -162 Z" unicode="]" />
<glyph horiz-adv-x="1208" d="M 674 1538 L 889 1538 L 1118 1202 L 930 1202 L 758 1409 L 496 1202 L 301 1202 L 674 1538 Z" unicode="^" />
<glyph horiz-adv-x="928" d="M -258 -109 L 821 -109 L 788 -270 L -291 -270 L -258 -109 Z" unicode="_" />
<glyph horiz-adv-x="1208" d="M 414 1591 L 645 1591 L 879 1255 L 702 1255 L 414 1591 Z" unicode="`" />
<glyph horiz-adv-x="1251" d="M 375 -20 C 298 -20 234 -12 184 2 C 133 16 93 37 63 64 C 33 90 12 122 0 160 C -12 197 -18 239 -18 285 C -18 376 -2 451 29 510 C 61 569 107 616 169 650 C 231 684 307 707 397 721 C 487 734 591 741 709 741 L 856 741 C 864 777 868 812 868 846 C 868 868 864 888 856 905 C 848 921 834 935 814 946 C 794 957 768 965 734 971 C 700 976 658 979 606 979 C 581 979 555 977 527 973 C 499 969 471 963 443 957 C 415 951 389 943 364 935 C 339 926 317 917 299 907 L 219 1069 C 241 1082 268 1094 299 1106 C 330 1118 364 1128 401 1137 C 437 1145 476 1152 517 1157 C 557 1162 599 1165 641 1165 C 714 1165 776 1160 827 1151 C 878 1141 920 1128 953 1110 C 986 1092 1011 1069 1028 1042 C 1044 1014 1055 982 1060 946 C 1065 910 1065 869 1059 824 C 1053 779 1045 730 1034 676 L 954 303 C 948 276 945 254 943 238 C 941 221 942 208 948 199 C 953 189 963 183 977 180 C 991 176 1012 175 1040 176 L 1006 2 C 999 0 988 -1 972 -1 C 956 -1 939 -2 920 -2 C 896 -2 875 0 857 3 C 839 7 823 13 811 22 C 799 31 789 43 782 58 C 775 73 771 92 770 115 C 730 69 678 35 614 13 C 549 -8 469 -20 375 -20 Z M 426 152 C 482 152 531 158 573 170 C 614 182 650 203 680 231 C 710 259 735 295 755 339 C 775 383 793 438 807 502 L 821 571 L 682 571 C 592 571 516 568 453 562 C 390 556 338 543 298 524 C 258 505 228 478 210 443 C 191 408 182 362 182 305 C 182 281 185 260 193 241 C 201 222 214 206 233 193 C 251 179 276 169 308 162 C 339 155 378 152 426 152 Z" unicode="a" />
<glyph horiz-adv-x="1303" d="M 627 -18 C 562 -18 505 -14 457 -7 C 409 0 368 9 334 23 C 300 37 272 53 252 73 C 231 92 216 114 207 139 L 135 -8 L -10 6 L 328 1589 L 524 1589 L 406 1051 C 426 1071 449 1089 474 1104 C 499 1118 527 1130 557 1139 C 587 1148 620 1155 656 1159 C 692 1163 732 1165 776 1165 C 855 1165 922 1154 976 1134 C 1030 1114 1074 1085 1107 1049 C 1140 1012 1164 969 1178 919 C 1192 869 1200 814 1200 754 C 1200 718 1197 679 1192 639 C 1187 599 1179 558 1169 516 C 1151 432 1128 357 1100 291 C 1072 225 1037 169 995 123 C 953 77 902 42 842 18 C 782 -6 710 -18 627 -18 Z M 600 162 C 654 162 702 169 742 185 C 782 200 816 223 845 254 C 873 285 897 324 917 371 C 937 417 954 472 969 535 C 975 567 980 598 984 628 C 988 658 991 687 991 715 C 991 754 986 790 977 822 C 967 854 952 881 930 904 C 908 926 879 944 843 956 C 807 968 762 975 709 975 C 655 975 607 969 565 958 C 523 947 486 928 454 900 C 422 872 395 833 372 785 C 349 737 329 675 313 600 C 297 532 289 471 289 418 C 289 374 294 336 306 304 C 318 272 336 245 361 224 C 386 203 418 187 458 177 C 497 167 544 162 600 162 Z" unicode="b" />
<glyph horiz-adv-x="1124" d="M 506 -20 C 416 -20 340 -9 280 12 C 219 33 170 62 133 100 C 96 138 70 182 54 234 C 38 286 31 342 31 403 C 31 440 32 477 36 514 C 40 551 45 589 53 627 C 71 713 95 790 127 857 C 158 923 198 979 246 1025 C 294 1071 351 1105 419 1129 C 486 1153 565 1165 655 1165 C 717 1165 772 1159 818 1149 C 864 1139 905 1125 939 1108 C 973 1091 1001 1071 1025 1049 C 1049 1027 1069 1004 1087 981 L 920 848 C 909 862 897 876 883 891 C 869 905 851 919 830 931 C 809 943 783 953 753 961 C 722 969 685 973 641 973 C 587 973 539 965 497 951 C 455 937 418 914 386 884 C 354 853 328 814 306 766 C 284 718 266 660 252 594 C 246 566 242 537 238 508 C 234 478 233 450 233 422 C 233 382 238 346 248 314 C 258 281 274 253 296 230 C 318 207 348 189 385 177 C 421 164 466 158 520 158 C 546 158 570 159 593 162 C 616 164 639 169 661 176 C 683 183 706 192 729 204 C 751 216 775 230 799 248 L 911 115 C 878 89 845 67 813 50 C 780 32 747 18 714 8 C 681 -1 647 -9 613 -13 C 578 -17 542 -20 506 -20 Z" unicode="c" />
<glyph horiz-adv-x="1303" d="M 451 -18 C 371 -18 303 -7 249 12 C 195 32 151 61 118 97 C 85 133 62 177 48 227 C 34 277 27 331 27 391 C 27 428 29 467 34 507 C 39 547 47 589 57 631 C 75 715 98 790 125 856 C 152 922 187 978 229 1024 C 271 1070 323 1105 383 1129 C 443 1153 515 1165 600 1165 C 662 1165 717 1161 764 1155 C 810 1148 850 1138 883 1125 C 915 1111 941 1095 961 1075 C 981 1055 996 1033 1006 1008 L 1133 1589 L 1333 1589 L 995 8 L 840 -6 L 854 102 C 832 79 808 60 782 45 C 755 29 725 17 692 8 C 659 -1 623 -8 583 -12 C 543 -16 499 -18 451 -18 Z M 518 162 C 572 162 620 167 662 178 C 704 189 740 209 772 237 C 804 265 831 303 854 351 C 877 399 897 461 913 537 C 928 603 936 664 936 719 C 936 763 930 801 919 833 C 907 865 889 892 864 914 C 839 935 807 951 768 961 C 728 971 681 977 625 977 C 570 977 523 969 483 953 C 443 937 408 914 380 883 C 351 851 327 812 308 766 C 288 719 272 664 258 602 C 250 569 245 537 241 507 C 237 477 236 448 236 420 C 236 381 240 346 250 314 C 259 282 274 255 296 233 C 318 210 347 192 383 180 C 419 168 464 162 518 162 Z" unicode="d" />
<glyph horiz-adv-x="1188" d="M 502 -23 C 410 -23 333 -12 273 10 C 212 32 163 62 127 100 C 90 138 64 182 49 233 C 34 284 27 339 27 397 C 27 435 29 473 34 512 C 38 550 45 589 53 627 C 69 711 93 786 124 853 C 154 919 193 976 241 1022 C 289 1068 346 1103 413 1128 C 479 1152 557 1165 647 1165 C 733 1165 805 1156 861 1138 C 917 1120 961 1095 994 1065 C 1026 1034 1049 998 1062 957 C 1074 916 1081 873 1081 827 C 1081 803 1079 777 1077 750 C 1075 722 1072 694 1068 666 C 1064 637 1059 608 1053 579 C 1047 549 1042 521 1036 494 L 221 494 C 219 480 218 467 218 454 C 217 440 217 428 217 416 C 217 378 222 343 232 311 C 242 279 258 251 282 228 C 306 204 337 186 377 173 C 416 160 465 154 524 154 C 662 154 777 182 868 240 L 950 88 C 882 44 812 14 738 0 C 664 -15 586 -23 502 -23 Z M 627 985 C 575 985 529 977 489 963 C 449 949 415 928 385 901 C 355 874 330 841 310 802 C 289 763 272 719 258 670 L 877 670 C 882 693 886 714 889 734 C 891 753 893 774 893 797 C 893 824 889 849 881 872 C 873 895 860 915 840 932 C 820 948 792 961 758 971 C 724 980 680 985 627 985 Z" unicode="e" />
<glyph horiz-adv-x="807" d="M 141 1139 L 356 1139 L 381 1253 C 393 1309 408 1359 428 1401 C 448 1443 474 1478 507 1506 C 540 1534 581 1554 629 1568 C 677 1582 736 1589 805 1589 L 934 1589 L 899 1415 L 809 1415 C 767 1415 733 1410 706 1401 C 679 1392 657 1380 640 1364 C 622 1348 609 1328 599 1306 C 589 1283 581 1258 575 1231 L 555 1139 L 838 1139 L 801 958 L 518 958 L 242 -338 L 41 -338 L 317 958 L 102 958 L 141 1139 Z" unicode="f" />
<glyph horiz-adv-x="1221" d="M 571 416 C 473 416 392 426 330 446 C 309 424 299 396 299 360 C 299 348 300 338 303 329 C 305 320 311 312 320 306 C 328 300 341 295 357 292 C 373 288 394 287 420 287 C 520 285 607 280 681 272 C 754 264 815 249 863 228 C 911 207 946 179 969 143 C 992 107 1004 62 1004 8 C 1004 -67 991 -129 965 -178 C 939 -226 900 -265 849 -293 C 798 -321 735 -340 660 -351 C 585 -362 499 -367 401 -367 C 309 -367 230 -361 163 -351 C 95 -340 40 -323 -4 -301 C -48 -278 -80 -249 -102 -214 C -124 -178 -135 -136 -135 -86 C -135 -39 -127 1 -113 37 C -98 72 -77 102 -51 128 C -24 153 7 173 44 189 C 80 204 120 215 164 223 C 147 238 135 257 129 280 C 122 303 119 326 119 350 C 119 384 126 414 140 442 C 154 470 172 495 195 518 C 165 544 144 575 132 611 C 119 646 113 685 113 729 C 113 805 123 870 144 925 C 165 980 196 1025 238 1061 C 280 1097 332 1123 395 1140 C 457 1156 530 1165 614 1165 C 633 1165 654 1164 676 1163 C 698 1162 719 1161 741 1159 L 1184 1225 L 1155 1051 L 973 1051 C 1001 1025 1023 992 1039 954 C 1055 916 1063 873 1063 825 C 1063 685 1021 581 938 515 C 855 449 733 416 571 416 Z M 430 -209 C 492 -209 545 -207 591 -202 C 637 -196 675 -186 705 -172 C 735 -158 758 -138 773 -113 C 787 -87 795 -55 795 -16 C 795 12 786 36 770 54 C 754 72 729 87 695 97 C 661 107 617 113 565 117 C 513 121 451 123 379 123 C 317 123 267 118 228 110 C 189 102 158 90 136 74 C 114 58 98 38 90 16 C 82 -5 78 -31 78 -59 C 78 -83 84 -104 98 -123 C 112 -141 133 -157 162 -170 C 190 -182 227 -192 271 -199 C 315 -205 368 -209 430 -209 Z M 573 582 C 669 582 741 601 790 640 C 839 678 864 739 864 823 C 864 849 859 873 850 893 C 840 913 825 930 804 944 C 783 957 756 967 723 974 C 690 981 650 985 602 985 C 506 985 434 965 385 927 C 335 888 311 825 311 737 C 311 712 315 690 323 671 C 331 652 346 636 366 623 C 386 609 412 599 446 592 C 480 585 522 582 573 582 Z" unicode="g" />
<glyph horiz-adv-x="1253" d="M 324 1589 L 522 1589 L 408 1053 C 423 1067 441 1080 461 1094 C 481 1108 505 1120 532 1130 C 558 1140 589 1149 623 1155 C 657 1161 695 1165 739 1165 C 809 1165 868 1159 916 1147 C 964 1135 1002 1118 1032 1096 C 1061 1074 1082 1047 1095 1016 C 1108 985 1116 951 1119 913 C 1121 875 1119 835 1113 792 C 1107 748 1099 703 1090 657 L 948 0 L 750 0 L 887 635 C 896 680 903 723 909 764 C 914 804 911 840 899 870 C 887 900 864 924 828 942 C 792 960 737 969 664 969 C 606 969 558 960 519 944 C 480 927 448 904 422 875 C 396 846 375 812 360 774 C 345 735 333 693 324 649 L 186 0 L -14 0 L 324 1589 Z" unicode="h" />
<glyph horiz-adv-x="516" d="M 240 1139 L 438 1139 L 197 0 L -2 0 L 240 1139 Z M 319 1518 L 520 1518 L 469 1276 L 268 1276 L 319 1518 Z" unicode="i" />
<glyph horiz-adv-x="516" d="M -195 -180 L -178 -180 C -148 -180 -123 -177 -104 -172 C -85 -167 -69 -158 -57 -146 C -45 -133 -35 -116 -28 -94 C -20 -72 -13 -45 -6 -12 L 240 1139 L 438 1139 L 190 -35 C 176 -98 160 -150 144 -190 C 127 -230 106 -262 80 -285 C 54 -307 22 -323 -15 -331 C -53 -339 -99 -344 -154 -344 L -229 -344 L -195 -180 Z M 319 1518 L 520 1518 L 469 1276 L 268 1276 L 319 1518 Z" unicode="j" />
<glyph horiz-adv-x="1102" d="M 328 1589 L 524 1589 L 309 582 L 887 1139 L 1110 1139 L 625 668 L 911 0 L 702 0 L 475 520 L 250 303 L 186 0 L -10 0 L 328 1589 Z" unicode="k" />
<glyph horiz-adv-x="625" d="M 266 -2 C 213 -2 171 4 139 17 C 107 30 84 50 70 77 C 55 104 48 138 48 179 C 48 220 54 269 66 326 L 336 1589 L 535 1589 L 264 317 C 258 290 254 268 253 250 C 251 232 254 217 260 206 C 266 195 277 187 293 183 C 309 178 330 176 358 176 L 403 176 L 369 2 C 359 0 345 0 326 -1 C 306 -1 286 -2 266 -2 Z" unicode="l" />
<glyph horiz-adv-x="1985" d="M 225 1128 L 385 1139 L 375 1044 C 391 1060 410 1075 432 1090 C 453 1104 478 1117 506 1128 C 534 1139 567 1148 604 1155 C 640 1161 683 1165 731 1165 C 779 1165 822 1162 860 1158 C 898 1154 931 1146 960 1136 C 988 1126 1012 1112 1031 1094 C 1050 1076 1065 1053 1075 1026 C 1091 1045 1112 1063 1137 1080 C 1162 1097 1191 1112 1225 1124 C 1259 1136 1297 1146 1339 1154 C 1381 1161 1427 1165 1479 1165 C 1549 1165 1608 1159 1655 1147 C 1702 1135 1740 1118 1768 1096 C 1796 1074 1817 1047 1829 1016 C 1841 985 1848 951 1850 913 C 1851 875 1848 835 1842 792 C 1835 748 1827 703 1817 657 L 1677 0 L 1477 0 L 1614 635 C 1620 665 1626 694 1632 722 C 1637 750 1640 777 1640 802 C 1640 827 1637 850 1631 870 C 1624 890 1612 908 1594 923 C 1576 937 1551 949 1520 957 C 1489 965 1449 969 1401 969 C 1343 969 1296 960 1258 944 C 1220 928 1188 905 1164 876 C 1139 847 1119 813 1105 774 C 1091 735 1079 693 1069 649 L 932 0 L 733 0 L 868 635 C 874 665 880 694 886 722 C 891 750 894 777 894 802 C 894 827 891 850 885 870 C 878 890 866 908 848 923 C 830 937 805 949 774 957 C 743 965 703 969 655 969 C 597 969 550 960 512 944 C 474 927 442 904 418 875 C 393 846 373 812 359 774 C 345 735 333 693 324 649 L 186 0 L -14 0 L 225 1128 Z" unicode="m" />
<glyph horiz-adv-x="1253" d="M 225 1128 L 385 1139 L 375 1044 C 391 1060 411 1075 433 1090 C 455 1104 480 1117 510 1128 C 539 1139 572 1148 610 1155 C 648 1161 691 1165 739 1165 C 809 1165 868 1159 916 1147 C 964 1135 1002 1118 1032 1096 C 1061 1074 1082 1047 1095 1016 C 1108 985 1116 951 1119 913 C 1121 875 1119 835 1113 792 C 1107 748 1099 703 1090 657 L 948 0 L 750 0 L 885 635 C 891 665 897 694 902 722 C 907 750 910 777 910 802 C 910 827 906 850 899 870 C 891 890 878 908 860 923 C 842 937 817 949 785 957 C 753 965 712 969 664 969 C 606 969 558 960 519 944 C 480 927 448 904 422 875 C 396 846 375 812 360 774 C 345 735 333 693 324 649 L 186 0 L -14 0 L 225 1128 Z" unicode="n" />
<glyph horiz-adv-x="1268" d="M 526 -23 C 437 -23 361 -12 299 8 C 236 28 185 58 145 96 C 105 134 76 181 58 235 C 40 289 31 349 31 416 C 31 448 32 482 36 517 C 40 552 45 589 53 627 C 73 724 102 807 138 875 C 174 943 217 998 267 1041 C 317 1084 375 1115 441 1135 C 507 1155 580 1165 662 1165 C 750 1165 826 1154 890 1134 C 953 1114 1005 1085 1045 1047 C 1085 1009 1114 963 1133 909 C 1151 855 1161 795 1161 729 C 1161 696 1158 662 1154 626 C 1150 590 1144 554 1137 516 C 1116 418 1088 335 1052 267 C 1016 199 973 143 923 100 C 872 57 813 26 747 6 C 681 -13 607 -23 526 -23 Z M 537 158 C 593 158 642 165 686 180 C 729 194 767 217 799 248 C 831 279 859 318 881 366 C 903 413 922 469 936 535 C 942 563 946 592 949 620 C 952 648 954 675 954 700 C 954 741 948 779 937 813 C 926 847 909 876 885 900 C 861 924 829 942 791 955 C 753 968 706 975 651 975 C 594 975 544 967 500 952 C 456 937 419 914 387 883 C 355 851 328 812 306 764 C 284 716 266 659 252 594 C 246 565 241 537 238 509 C 234 481 233 454 233 426 C 233 384 238 347 249 314 C 260 281 278 253 302 230 C 326 207 357 189 396 177 C 434 164 481 158 537 158 Z" unicode="o" />
<glyph horiz-adv-x="1303" d="M 227 1128 L 385 1139 L 375 1040 C 395 1062 419 1081 445 1097 C 471 1113 501 1126 534 1136 C 566 1146 603 1153 643 1158 C 683 1162 727 1165 776 1165 C 855 1165 922 1154 976 1134 C 1030 1114 1074 1085 1107 1049 C 1140 1012 1164 969 1178 919 C 1192 869 1200 814 1200 754 C 1200 718 1197 679 1192 639 C 1187 599 1179 558 1169 516 C 1151 432 1128 357 1100 291 C 1072 225 1037 169 995 123 C 953 77 902 42 842 18 C 782 -6 710 -18 627 -18 C 562 -18 506 -14 459 -8 C 411 -1 371 8 339 21 C 306 34 280 50 260 70 C 240 89 226 111 217 137 L 115 -338 L -82 -338 L 227 1128 Z M 600 162 C 654 162 702 169 742 185 C 782 200 816 223 845 254 C 873 285 897 324 917 371 C 937 417 954 472 969 535 C 975 567 980 598 984 628 C 988 658 991 687 991 715 C 991 754 986 790 977 822 C 967 854 952 881 930 904 C 908 926 879 944 843 956 C 807 968 762 975 709 975 C 655 975 607 969 565 958 C 523 947 486 928 454 900 C 422 872 395 833 372 785 C 349 737 329 675 313 600 C 297 532 289 471 289 418 C 289 374 294 336 306 304 C 318 272 336 245 361 224 C 386 203 418 187 458 177 C 497 167 544 162 600 162 Z" unicode="p" />
<glyph horiz-adv-x="1303" d="M 811 84 C 789 64 766 48 742 35 C 718 22 691 12 662 4 C 632 -4 600 -9 566 -13 C 531 -16 493 -18 451 -18 C 371 -18 303 -7 249 12 C 195 32 151 61 118 97 C 85 133 62 177 48 227 C 34 277 27 331 27 391 C 27 428 29 467 34 507 C 39 547 47 589 57 631 C 75 715 98 790 125 856 C 152 922 187 978 229 1024 C 271 1070 323 1105 383 1129 C 443 1153 515 1165 600 1165 C 662 1165 717 1161 764 1155 C 811 1149 851 1139 885 1127 C 919 1114 947 1098 969 1078 C 991 1058 1008 1034 1020 1008 L 1096 1153 L 1235 1141 L 922 -338 L 723 -338 L 811 84 Z M 518 162 C 572 162 620 167 662 178 C 704 189 740 209 772 237 C 804 265 831 303 854 351 C 877 399 897 461 913 537 C 928 603 936 664 936 719 C 936 763 930 801 919 833 C 907 865 889 892 864 914 C 839 935 807 951 768 961 C 728 971 681 977 625 977 C 570 977 523 969 483 953 C 443 937 408 914 380 883 C 351 851 327 812 308 766 C 288 719 272 664 258 602 C 250 569 245 537 241 507 C 237 477 236 448 236 420 C 236 381 240 346 250 314 C 259 282 274 255 296 233 C 318 210 347 192 383 180 C 419 168 464 162 518 162 Z" unicode="q" />
<glyph horiz-adv-x="721" d="M 227 1128 L 387 1139 L 371 1016 C 403 1058 450 1091 513 1116 C 575 1140 656 1153 756 1153 L 715 956 C 649 956 593 947 548 931 C 502 915 464 892 434 862 C 403 832 379 797 361 755 C 343 713 328 666 317 614 L 186 0 L -10 0 L 227 1128 Z" unicode="r" />
<glyph horiz-adv-x="1057" d="M 442 -20 C 336 -20 240 -4 152 25 C 64 55 -10 97 -72 150 L 57 291 C 111 249 173 215 243 191 C 313 166 385 154 461 154 C 494 154 525 156 554 161 C 583 165 608 174 630 187 C 652 200 669 218 681 242 C 693 266 700 296 700 334 C 700 358 693 379 679 397 C 665 414 647 429 625 442 C 602 454 576 465 547 475 C 517 484 487 493 455 502 C 415 513 375 525 335 539 C 295 553 258 571 226 593 C 194 615 167 642 147 676 C 127 709 117 751 117 801 C 117 865 128 921 150 967 C 172 1013 202 1051 241 1080 C 280 1109 327 1130 381 1144 C 435 1158 495 1165 561 1165 C 615 1165 664 1161 709 1154 C 754 1147 795 1138 832 1126 C 869 1114 902 1101 932 1086 C 961 1070 987 1054 1010 1038 L 883 883 C 865 894 846 905 824 917 C 802 929 778 939 751 949 C 723 958 693 966 659 972 C 625 978 588 981 547 981 C 475 981 419 968 380 944 C 341 920 322 880 322 825 C 322 801 328 781 341 765 C 353 749 371 734 393 722 C 415 710 440 699 469 689 C 498 679 529 670 561 662 C 603 649 644 635 685 621 C 725 606 762 587 794 564 C 826 541 851 513 871 479 C 891 445 901 404 901 354 C 901 281 889 221 865 173 C 841 125 809 86 767 58 C 725 29 677 9 621 -2 C 565 -14 506 -20 442 -20 Z" unicode="s" />
<glyph horiz-adv-x="834" d="M 141 1139 L 348 1139 L 455 1462 L 614 1493 L 539 1139 L 815 1139 L 780 958 L 500 958 L 369 338 C 363 312 359 290 357 270 C 355 250 359 233 368 219 C 376 205 391 194 412 187 C 432 179 462 176 500 176 L 610 176 L 575 0 C 569 0 559 -1 547 -1 C 534 -1 521 -2 507 -2 C 493 -2 479 -2 466 -2 C 452 -2 442 -2 434 -2 C 362 -2 306 6 266 22 C 226 38 197 60 179 90 C 161 119 152 155 152 197 C 152 239 158 287 168 340 L 303 958 L 102 958 L 141 1139 Z" unicode="t" />
<glyph horiz-adv-x="1239" d="M 522 -23 C 442 -23 374 -16 318 -4 C 262 7 217 25 181 48 C 145 70 118 98 100 131 C 82 163 70 200 65 242 C 59 283 59 328 65 377 C 70 425 78 477 90 532 L 219 1139 L 420 1139 L 289 514 C 281 480 275 448 270 418 C 264 388 262 359 263 333 C 264 307 269 283 278 262 C 287 241 302 223 323 208 C 344 193 372 182 407 174 C 442 166 486 162 539 162 C 596 162 642 169 677 183 C 711 197 739 217 760 244 C 780 270 796 302 808 340 C 819 377 830 419 840 467 L 983 1139 L 1178 1139 L 1032 455 C 1014 371 994 299 972 239 C 950 179 921 129 884 90 C 847 51 800 22 742 4 C 684 -13 611 -23 522 -23 Z" unicode="u" />
<glyph horiz-adv-x="1110" d="M 98 1139 L 303 1139 L 438 240 L 954 1139 L 1171 1139 L 496 -10 L 289 -10 L 98 1139 Z" unicode="v" />
<glyph horiz-adv-x="1778" d="M 109 1139 L 313 1139 L 412 303 L 864 1139 L 1069 1139 L 1171 303 L 1620 1139 L 1829 1139 L 1206 -10 L 1014 -10 L 907 858 L 438 -10 L 246 -10 L 109 1139 Z" unicode="w" />
<glyph horiz-adv-x="1098" d="M 477 449 L 88 0 L -135 0 L 406 604 L 156 1139 L 362 1139 L 547 741 L 891 1139 L 1112 1139 L 621 586 L 895 0 L 688 0 L 477 449 Z" unicode="x" />
<glyph horiz-adv-x="1073" d="M 53 -344 C 41 -344 28 -344 16 -344 C 4 -344 -7 -344 -19 -344 C -31 -344 -42 -343 -52 -343 C -62 -343 -70 -342 -76 -342 L -43 -180 L 45 -180 C 72 -180 94 -178 112 -175 C 129 -171 144 -166 156 -158 C 168 -150 180 -138 190 -124 C 200 -110 211 -92 223 -70 L 279 23 L 98 1139 L 305 1139 L 432 272 L 924 1139 L 1139 1139 L 403 -113 C 377 -157 353 -194 330 -224 C 306 -254 281 -277 255 -295 C 229 -313 199 -325 167 -333 C 135 -340 97 -344 53 -344 Z" unicode="y" />
<glyph horiz-adv-x="1008" d="M -70 145 L 711 958 L 141 958 L 176 1139 L 1010 1139 L 981 989 L 199 170 L 827 170 L 793 0 L -100 0 L -70 145 Z" unicode="z" />
<glyph horiz-adv-x="1051" d="M 465 -338 C 405 -338 353 -333 311 -325 C 268 -317 233 -304 206 -288 C 179 -272 159 -251 147 -227 C 135 -203 129 -175 129 -143 C 129 -115 134 -83 146 -47 C 157 -11 171 26 188 65 C 205 104 223 144 243 184 C 263 224 281 261 298 297 C 315 333 329 365 341 394 C 352 423 358 446 358 463 C 358 479 354 491 346 501 C 338 511 324 518 305 524 C 286 530 261 534 230 536 C 199 538 161 539 115 539 L 150 711 C 206 711 252 712 289 716 C 326 719 356 727 378 739 C 400 751 415 770 424 794 C 433 818 438 851 438 893 C 438 915 437 940 436 966 C 434 992 433 1020 431 1048 C 429 1076 427 1105 426 1134 C 424 1162 424 1190 424 1217 C 424 1342 455 1435 519 1497 C 583 1558 681 1589 813 1589 L 1036 1589 L 1001 1407 L 860 1407 C 814 1407 775 1402 745 1394 C 714 1386 689 1373 671 1355 C 653 1337 640 1315 632 1287 C 624 1259 621 1226 621 1188 C 621 1167 621 1144 623 1119 C 624 1094 626 1068 628 1042 C 630 1015 631 988 633 960 C 634 932 635 906 635 881 C 635 848 632 818 628 791 C 623 763 615 739 603 717 C 591 695 574 677 554 662 C 533 646 507 634 475 625 C 509 612 532 595 545 575 C 558 555 565 530 565 500 C 565 479 559 453 548 423 C 537 392 523 359 507 323 C 491 287 473 250 454 212 C 435 174 417 137 401 101 C 385 65 371 32 360 2 C 349 -28 344 -54 344 -74 C 344 -104 357 -127 383 -141 C 409 -155 452 -162 512 -162 L 664 -162 L 627 -338 L 465 -338 L 465 -338 Z" unicode="{" />
<glyph horiz-adv-x="692" d="M 244 1589 L 444 1589 L 444 -338 L 244 -338 L 244 1589 Z" unicode="|" />
<glyph horiz-adv-x="1051" d="M -4 -162 L 135 -162 C 180 -162 218 -157 249 -148 C 280 -139 305 -125 324 -107 C 343 -89 357 -65 365 -37 C 373 -9 377 24 377 63 C 377 83 376 106 374 131 C 372 156 371 182 369 209 C 367 236 366 263 364 291 C 362 318 362 345 362 371 C 362 403 364 433 369 461 C 374 488 383 512 395 534 C 407 555 423 573 443 589 C 463 605 489 617 520 627 C 487 639 464 655 451 676 C 438 696 432 722 432 752 C 432 772 437 797 448 828 C 459 858 473 891 489 927 C 505 962 523 999 542 1037 C 561 1075 579 1111 595 1147 C 611 1182 625 1215 636 1245 C 647 1275 653 1301 653 1321 C 653 1351 639 1373 613 1387 C 587 1400 543 1407 483 1407 L 334 1407 L 371 1589 L 532 1589 C 592 1589 644 1585 687 1577 C 729 1569 764 1556 791 1540 C 818 1524 838 1503 851 1479 C 863 1455 870 1427 870 1395 C 870 1367 864 1335 853 1299 C 841 1263 827 1225 810 1186 C 792 1146 774 1107 754 1067 C 734 1027 716 990 699 954 C 681 918 667 886 656 858 C 644 829 639 807 639 791 C 639 774 643 761 651 751 C 659 741 672 733 691 727 C 710 721 735 718 767 716 C 798 714 837 713 883 713 L 848 541 C 792 541 745 539 708 535 C 670 531 640 523 618 511 C 596 499 580 480 571 456 C 561 432 557 399 557 358 C 557 335 557 310 559 284 C 561 258 563 230 565 202 C 567 174 568 145 570 117 C 572 89 573 61 573 35 C 573 -90 541 -183 478 -245 C 414 -307 316 -338 184 -338 L -39 -338 L -4 -162 Z" unicode="}" />
<glyph horiz-adv-x="1208" d="M 893 838 C 857 838 826 843 799 854 C 771 864 746 876 722 889 C 698 902 675 914 653 925 C 631 936 607 942 582 942 C 566 942 552 939 538 934 C 524 928 510 921 497 913 C 483 904 470 894 458 882 C 446 870 434 858 422 846 L 319 948 C 359 996 401 1034 445 1063 C 489 1091 538 1106 590 1106 C 625 1106 656 1100 684 1090 C 711 1079 736 1067 760 1055 C 783 1042 806 1030 828 1020 C 850 1009 873 1004 899 1004 C 925 1004 951 1013 975 1031 C 999 1049 1025 1074 1055 1106 L 1159 1004 C 1113 950 1068 908 1025 880 C 982 852 938 838 893 838 Z" unicode="~" />
<glyph horiz-adv-x="471" d="" unicode="" />
<glyph horiz-adv-x="758" d="M 360 1083 L 539 1083 L 328 0 L 109 0 L 360 1083 Z M 418 1518 L 666 1518 L 612 1251 L 362 1251 L 418 1518 Z" unicode="" />
<glyph horiz-adv-x="1118" d="M 369 0 C 307 12 255 30 212 55 C 169 80 134 111 107 147 C 80 183 61 225 49 271 C 37 317 31 366 31 420 C 31 521 43 616 67 704 C 91 792 128 869 177 935 C 225 1001 286 1053 359 1093 C 432 1133 518 1155 616 1161 L 643 1286 L 834 1286 L 805 1151 C 841 1143 873 1134 902 1122 C 930 1110 956 1097 979 1083 C 1002 1068 1022 1052 1040 1035 C 1058 1018 1073 1001 1087 983 L 930 852 C 922 862 912 872 902 884 C 891 895 878 906 864 916 C 850 926 833 936 815 945 C 796 953 775 961 752 967 L 578 154 C 610 156 647 164 687 177 C 727 189 767 212 809 244 L 911 113 C 883 89 853 70 823 54 C 793 38 762 25 732 15 C 702 5 672 -2 642 -7 C 612 -12 583 -15 555 -16 L 520 -193 L 328 -193 L 369 0 Z M 236 438 C 236 405 239 374 246 346 C 252 317 263 291 277 268 C 291 245 310 225 333 209 C 356 192 384 179 416 170 L 590 973 C 532 965 482 946 438 917 C 394 887 357 849 327 802 C 297 755 274 701 259 639 C 243 577 236 510 236 438 Z" unicode="" />
<glyph horiz-adv-x="1243" d="M 717 -16 C 629 -16 553 -6 489 14 C 424 34 367 58 319 88 C 278 56 226 32 164 18 C 101 4 24 -2 -68 0 L -39 172 C 27 172 80 176 120 186 C 160 195 192 208 215 226 C 238 244 255 265 266 291 C 276 317 285 346 291 379 C 299 420 303 469 303 525 C 303 581 302 639 299 700 L 63 700 L 98 870 L 291 870 L 291 952 C 291 1042 300 1124 318 1197 C 336 1270 365 1332 404 1384 C 443 1435 493 1474 554 1502 C 614 1530 687 1544 772 1544 C 825 1544 874 1540 918 1534 C 962 1528 1002 1520 1038 1510 C 1074 1500 1106 1488 1135 1476 C 1163 1463 1189 1450 1212 1438 L 1102 1272 C 1084 1282 1064 1292 1040 1302 C 1016 1312 989 1321 961 1329 C 932 1337 901 1343 868 1348 C 834 1353 800 1356 764 1356 C 710 1356 666 1345 630 1325 C 594 1305 566 1276 544 1239 C 522 1202 507 1158 498 1106 C 489 1054 485 996 485 932 L 485 870 L 899 870 L 866 700 L 492 700 C 493 642 493 586 491 530 C 489 474 483 423 473 377 C 467 349 460 323 454 299 C 447 275 438 252 428 231 C 466 211 508 195 556 182 C 604 168 656 162 713 162 C 747 162 775 164 798 169 C 820 174 839 184 854 199 C 868 213 880 234 889 261 C 897 288 905 323 913 367 L 922 416 L 1098 416 L 1081 338 C 1068 269 1052 212 1034 166 C 1016 120 992 84 964 57 C 936 30 901 11 861 0 C 821 -10 773 -16 717 -16 Z" unicode="" />
<glyph horiz-adv-x="1270" d="M 115 664 L 514 664 L 190 1518 L 399 1518 L 647 838 L 1188 1518 L 1403 1518 L 713 664 L 1110 664 L 1079 502 L 676 502 L 643 344 L 1042 344 L 1012 182 L 610 182 L 571 0 L 373 0 L 412 182 L 18 182 L 49 344 L 446 344 L 479 502 L 86 502 L 115 664 Z" unicode="" />
<glyph horiz-adv-x="692" d="M 244 465 L 444 465 L 444 -338 L 244 -338 L 244 465 Z M 244 1589 L 444 1589 L 444 786 L 244 786 L 244 1589 Z" unicode="" />
<glyph horiz-adv-x="1147" d="M 182 -16 C 168 -16 152 -15 136 -15 C 120 -15 104 -14 89 -14 C 73 -14 60 -13 48 -13 C 36 -13 27 -12 23 -12 L 53 154 L 164 154 C 207 154 242 158 269 167 C 296 175 318 188 335 205 C 351 221 364 242 372 267 C 380 292 388 321 395 354 L 418 463 C 310 479 232 510 183 556 C 133 602 109 659 109 729 C 109 795 120 849 142 893 C 164 936 194 971 232 997 C 270 1023 314 1041 364 1052 C 414 1063 466 1069 522 1071 L 545 1167 C 555 1219 569 1267 586 1311 C 602 1355 626 1394 656 1427 C 686 1459 725 1485 773 1504 C 821 1522 881 1532 954 1532 C 968 1532 983 1531 1000 1531 C 1016 1531 1032 1530 1048 1530 C 1064 1530 1078 1529 1090 1529 C 1102 1529 1110 1528 1116 1528 L 1081 1356 L 973 1356 C 929 1356 893 1351 866 1342 C 839 1333 817 1320 801 1304 C 785 1287 772 1266 764 1242 C 755 1218 747 1191 741 1161 L 719 1061 C 830 1045 912 1014 964 967 C 1016 919 1042 860 1042 788 C 1042 720 1030 664 1006 621 C 982 577 951 543 912 519 C 872 494 827 477 775 468 C 723 458 670 453 614 453 L 592 350 C 582 298 568 249 551 205 C 534 160 510 121 480 89 C 450 56 411 30 363 12 C 315 -6 254 -16 182 -16 Z M 600 584 C 636 584 671 586 705 591 C 738 595 767 604 792 618 C 817 632 837 651 852 676 C 866 700 874 733 874 774 C 874 798 868 819 856 838 C 844 856 825 872 799 885 C 773 898 739 908 699 915 C 659 922 611 926 555 926 C 516 926 480 924 446 920 C 412 916 383 907 358 894 C 332 880 312 861 298 836 C 283 811 276 778 276 737 C 276 713 282 692 294 673 C 306 654 325 638 351 625 C 377 611 410 601 451 594 C 492 587 542 584 600 584 Z" unicode="" />
<glyph horiz-adv-x="1208" d="M 459 1485 L 641 1485 L 594 1255 L 412 1255 L 459 1485 Z M 874 1485 L 1057 1485 L 1010 1255 L 827 1255 L 874 1485 Z" unicode="" />
<glyph horiz-adv-x="1692" d="M 866 250 C 700 250 575 293 491 381 C 407 469 365 598 365 768 C 365 856 377 933 401 998 C 425 1062 459 1116 503 1158 C 547 1200 601 1232 663 1253 C 725 1273 795 1284 872 1284 C 946 1284 1014 1273 1075 1252 C 1136 1230 1189 1198 1235 1155 L 1141 1055 C 1107 1085 1066 1109 1020 1127 C 974 1144 924 1153 872 1153 C 755 1153 665 1120 601 1055 C 537 990 506 894 506 768 C 506 641 536 545 598 479 C 659 413 750 381 872 381 C 906 381 938 383 966 389 C 994 394 1019 401 1042 410 C 1064 419 1084 430 1102 442 C 1120 454 1136 467 1151 481 L 1241 389 C 1223 370 1202 352 1179 336 C 1156 319 1129 304 1099 292 C 1069 279 1034 269 996 261 C 958 253 914 250 866 250 Z M 854 -25 C 726 -25 615 -5 520 33 C 424 72 345 126 282 196 C 218 266 171 349 139 445 C 107 541 92 646 92 760 C 92 873 107 978 139 1074 C 171 1170 218 1252 282 1322 C 345 1392 424 1446 520 1485 C 615 1524 726 1544 854 1544 C 980 1544 1091 1524 1186 1485 C 1281 1446 1360 1392 1424 1322 C 1487 1252 1534 1170 1566 1074 C 1598 978 1614 873 1614 760 C 1614 646 1598 541 1566 445 C 1534 349 1487 266 1424 196 C 1360 126 1281 72 1186 33 C 1091 -5 980 -25 854 -25 Z M 854 63 C 970 63 1070 80 1154 115 C 1238 149 1308 197 1363 259 C 1417 321 1458 394 1484 480 C 1510 565 1524 658 1524 760 C 1524 861 1510 954 1484 1039 C 1458 1124 1417 1197 1363 1259 C 1308 1321 1238 1369 1154 1404 C 1070 1438 970 1456 854 1456 C 736 1456 635 1438 551 1404 C 467 1369 397 1321 343 1259 C 288 1197 248 1124 222 1039 C 196 954 184 861 184 760 C 184 658 196 565 222 480 C 248 394 288 321 343 259 C 397 197 467 149 551 115 C 635 80 736 63 854 63 Z" unicode="" />
<glyph horiz-adv-x="1180" d="M 451 578 C 392 578 343 584 303 596 C 263 608 232 624 208 645 C 184 666 166 691 156 720 C 146 748 141 779 141 813 C 141 892 154 956 181 1005 C 208 1054 247 1092 298 1120 C 349 1147 411 1165 484 1175 C 557 1185 639 1190 731 1190 L 850 1190 C 858 1222 862 1253 862 1282 C 862 1300 858 1316 852 1330 C 846 1343 835 1354 819 1363 C 803 1371 781 1378 754 1382 C 726 1386 692 1389 651 1389 C 630 1389 608 1387 586 1384 C 563 1380 540 1376 518 1370 C 496 1364 474 1358 454 1351 C 433 1344 415 1337 399 1329 L 336 1460 C 353 1470 374 1481 399 1491 C 424 1501 451 1509 481 1517 C 511 1524 542 1530 576 1535 C 609 1539 643 1542 678 1542 C 766 1542 836 1533 887 1517 C 937 1501 974 1476 996 1443 C 1018 1410 1028 1369 1027 1319 C 1025 1269 1018 1211 1004 1145 L 936 842 C 931 820 928 803 928 790 C 927 776 929 766 934 759 C 939 751 947 746 959 744 C 971 742 987 741 1008 741 L 977 596 C 973 594 964 594 952 594 C 939 594 925 594 911 594 C 885 594 863 596 844 602 C 825 608 811 618 801 633 C 787 649 780 673 780 705 C 743 661 696 628 639 608 C 582 588 519 578 451 578 Z M 500 723 C 538 723 573 727 606 737 C 638 746 668 762 694 784 C 720 806 742 835 762 871 C 781 907 797 951 809 1004 L 821 1057 L 709 1057 C 639 1057 578 1054 528 1050 C 477 1045 435 1035 403 1020 C 370 1005 346 983 330 955 C 314 926 307 888 307 840 C 307 821 311 804 317 790 C 323 776 334 764 349 754 C 364 744 384 736 408 731 C 432 725 463 723 500 723 Z M 147 438 L 846 438 L 815 287 L 117 287 L 147 438 Z" unicode="" />
<glyph horiz-adv-x="1436" d="M 160 567 L 588 1139 L 764 1139 L 348 567 L 522 0 L 346 0 L 160 567 Z M 659 567 L 1090 1139 L 1268 1139 L 850 567 L 1024 0 L 850 0 L 659 567 Z" unicode="" />
<glyph horiz-adv-x="1440" d="M 1116 219 L 915 219 L 1004 627 L 182 627 L 221 817 L 1241 817 L 1116 219 Z" unicode="" />
<glyph horiz-adv-x="911" d="M 94 735 L 805 735 L 766 549 L 55 549 L 94 735 Z" unicode="" />
<glyph horiz-adv-x="1692" d="M 850 -25 C 722 -25 611 -5 517 33 C 422 72 343 126 280 196 C 217 266 170 349 139 445 C 107 541 92 646 92 760 C 92 873 107 978 139 1074 C 170 1170 217 1252 280 1322 C 343 1392 422 1446 517 1485 C 611 1524 722 1544 850 1544 C 977 1544 1088 1524 1184 1485 C 1279 1446 1358 1392 1422 1322 C 1485 1252 1532 1170 1564 1074 C 1596 978 1612 873 1612 760 C 1612 646 1596 541 1564 445 C 1532 349 1485 266 1422 196 C 1358 126 1279 72 1184 33 C 1088 -5 977 -25 850 -25 Z M 850 63 C 966 63 1067 80 1152 115 C 1236 149 1306 197 1361 259 C 1415 321 1456 394 1482 480 C 1508 565 1522 658 1522 760 C 1522 861 1508 954 1482 1039 C 1456 1124 1415 1197 1361 1259 C 1306 1321 1236 1369 1152 1404 C 1067 1438 966 1456 850 1456 C 733 1456 632 1438 548 1404 C 464 1369 394 1321 340 1259 C 285 1197 245 1124 219 1039 C 193 954 180 861 180 760 C 180 658 193 565 219 480 C 245 394 285 321 340 259 C 394 197 464 149 548 115 C 632 80 733 63 850 63 Z M 895 653 L 614 653 L 614 262 L 485 262 L 485 1249 L 922 1249 C 988 1249 1043 1242 1087 1230 C 1131 1217 1166 1198 1192 1173 C 1218 1148 1236 1117 1247 1081 C 1258 1044 1264 1002 1264 954 C 1264 914 1260 877 1252 844 C 1244 811 1230 782 1212 758 C 1193 733 1169 712 1139 696 C 1109 680 1072 668 1028 662 L 1262 262 L 1120 262 L 895 653 Z M 922 770 C 958 770 989 772 1015 778 C 1041 784 1063 794 1081 808 C 1098 822 1111 840 1120 863 C 1128 886 1133 915 1133 950 C 1133 984 1128 1012 1120 1035 C 1112 1058 1099 1076 1081 1090 C 1063 1104 1041 1113 1014 1119 C 987 1125 955 1128 918 1128 L 614 1128 L 614 770 L 922 770 Z" unicode="" />
<glyph horiz-adv-x="1208" d="M 373 1425 L 1116 1425 L 1083 1255 L 338 1255 L 373 1425 Z" unicode="" />
<glyph horiz-adv-x="1141" d="M 573 563 C 501 563 439 573 388 593 C 337 613 295 640 263 674 C 231 708 207 749 192 795 C 177 841 170 890 170 942 C 170 1026 181 1104 205 1177 C 229 1250 263 1314 309 1368 C 354 1422 409 1464 475 1495 C 541 1526 616 1542 700 1542 C 772 1542 833 1531 884 1511 C 934 1491 976 1463 1008 1428 C 1040 1393 1063 1352 1078 1306 C 1092 1259 1100 1209 1100 1157 C 1100 1072 1088 993 1064 921 C 1040 849 1005 786 959 733 C 913 680 858 638 793 608 C 728 578 655 563 573 563 Z M 588 721 C 644 721 693 731 736 753 C 779 774 815 803 844 841 C 873 879 895 923 910 974 C 924 1024 932 1079 932 1139 C 932 1173 927 1204 918 1233 C 909 1261 895 1286 875 1308 C 855 1329 828 1346 796 1358 C 764 1370 724 1376 678 1376 C 622 1376 572 1364 530 1342 C 488 1320 452 1289 424 1251 C 396 1213 374 1168 360 1117 C 345 1065 338 1010 338 952 C 338 918 342 887 351 859 C 360 831 375 806 395 786 C 415 766 440 750 472 738 C 504 726 542 721 588 721 Z" unicode="" />
<glyph horiz-adv-x="1440" d="M 594 627 L 182 627 L 223 817 L 633 817 L 721 1225 L 918 1225 L 831 817 L 1241 817 L 1200 627 L 793 627 L 707 219 L 508 219 L 594 627 Z M 94 215 L 1112 215 L 1075 29 L 55 29 L 94 215 Z" unicode="" />
<glyph horiz-adv-x="963" d="M 139 688 L 506 983 C 539 1010 568 1034 593 1055 C 618 1076 640 1095 658 1111 C 676 1127 691 1143 703 1157 C 715 1171 724 1184 731 1198 C 738 1212 743 1226 746 1241 C 748 1255 750 1272 750 1292 C 750 1323 736 1346 709 1362 C 682 1378 639 1386 580 1386 C 546 1386 508 1382 467 1375 C 425 1368 388 1357 354 1343 L 305 1475 C 347 1492 391 1505 439 1515 C 487 1525 538 1530 592 1530 C 704 1530 786 1512 837 1476 C 887 1440 913 1388 913 1319 C 913 1273 909 1235 901 1204 C 893 1172 878 1142 857 1113 C 836 1084 808 1054 772 1023 C 736 991 691 953 635 909 L 379 702 L 788 702 L 764 567 L 115 567 L 139 688 Z" unicode="" />
<glyph horiz-adv-x="963" d="M 492 553 C 448 553 408 555 372 561 C 335 566 301 573 270 583 C 238 593 209 605 182 619 C 154 633 128 648 104 666 L 193 782 C 215 768 237 755 259 743 C 281 731 304 721 328 713 C 352 705 377 698 403 694 C 429 690 458 688 489 688 C 551 688 600 704 634 737 C 668 769 686 821 686 891 C 686 910 683 927 678 943 C 672 958 663 971 649 981 C 635 991 616 999 592 1005 C 568 1011 538 1014 502 1014 L 365 1014 L 395 1151 L 567 1151 C 597 1151 623 1153 645 1158 C 667 1162 686 1170 701 1182 C 715 1193 726 1208 734 1227 C 741 1245 745 1269 745 1298 C 745 1330 732 1354 706 1370 C 680 1386 637 1395 578 1395 C 564 1395 547 1394 528 1392 C 509 1390 489 1387 468 1383 C 447 1379 426 1373 404 1366 C 382 1359 361 1351 342 1341 L 285 1464 C 310 1478 337 1490 367 1499 C 397 1508 426 1515 455 1520 C 483 1525 511 1528 537 1530 C 563 1531 585 1532 604 1532 C 707 1532 784 1515 836 1481 C 887 1447 913 1397 913 1333 C 913 1294 909 1260 901 1232 C 893 1204 882 1180 868 1160 C 854 1140 836 1123 815 1110 C 794 1097 771 1087 745 1079 C 782 1063 808 1040 824 1008 C 840 976 848 938 848 893 C 848 832 839 780 822 737 C 804 694 780 659 749 632 C 717 604 680 584 636 572 C 592 559 544 553 492 553 Z" unicode="" />
<glyph horiz-adv-x="1208" d="M 909 1591 L 1159 1591 L 727 1255 L 535 1255 L 909 1591 Z" unicode="" />
<glyph horiz-adv-x="1251" d="M 420 1139 L 283 494 C 276 463 270 433 265 405 C 260 377 258 350 258 326 C 258 302 261 279 269 259 C 276 239 289 221 308 207 C 326 193 352 182 384 174 C 416 166 456 162 506 162 C 562 162 610 170 648 187 C 686 203 718 226 744 254 C 769 282 789 316 804 355 C 818 393 830 435 840 479 L 981 1139 L 1180 1139 L 938 8 L 784 -6 L 793 96 C 777 80 758 64 736 50 C 714 36 689 23 660 12 C 630 1 597 -7 559 -13 C 521 -19 478 -23 430 -23 C 374 -23 325 -19 285 -11 C 244 -3 209 6 180 18 L 104 -338 L -92 -338 L 219 1139 L 420 1139 Z" unicode="" />
<glyph horiz-adv-x="1278" d="M 471 582 C 411 593 361 609 320 630 C 278 651 245 677 219 707 C 193 737 175 771 164 809 C 152 847 147 888 147 934 C 147 1127 194 1273 289 1371 C 384 1469 530 1518 727 1518 L 1255 1518 L 932 0 L 743 0 L 862 565 L 688 565 L 657 565 L 537 0 L 348 0 L 471 582 Z M 899 733 L 1028 1333 L 707 1333 C 652 1333 603 1326 559 1312 C 515 1298 478 1276 448 1246 C 417 1216 393 1177 377 1129 C 360 1081 352 1024 352 956 C 352 882 378 827 431 789 C 484 751 570 733 690 733 L 899 733 Z" unicode="" />
<glyph horiz-adv-x="518" d="M 150 836 L 399 836 L 342 561 L 94 561 L 150 836 Z" unicode="" />
<glyph horiz-adv-x="1208" d="M 408 -475 C 372 -475 340 -472 311 -468 C 281 -463 255 -457 231 -449 C 207 -441 186 -433 168 -424 C 149 -414 133 -405 119 -395 L 195 -289 C 219 -306 248 -321 280 -335 C 312 -349 353 -356 403 -356 C 456 -356 494 -346 516 -326 C 538 -306 549 -279 549 -246 C 549 -228 544 -214 534 -204 C 524 -193 512 -185 496 -179 C 480 -173 461 -170 440 -169 C 419 -168 397 -168 375 -170 L 334 -135 L 393 14 L 516 14 L 473 -90 C 498 -90 523 -92 549 -96 C 575 -100 598 -107 618 -119 C 638 -130 655 -145 668 -165 C 681 -185 688 -210 688 -242 C 688 -284 681 -320 667 -350 C 653 -380 634 -404 610 -422 C 585 -440 555 -454 521 -462 C 487 -470 449 -475 408 -475 Z" unicode="" />
<glyph horiz-adv-x="707" d="M 440 1372 L 262 1372 L 293 1518 L 637 1518 L 436 567 L 270 567 L 440 1372 Z" unicode="" />
<glyph horiz-adv-x="1182" d="M 610 582 C 538 582 477 590 426 607 C 374 623 332 647 299 679 C 265 710 241 748 225 793 C 209 837 201 888 201 944 C 201 1034 213 1115 236 1189 C 259 1263 292 1326 335 1378 C 377 1430 429 1471 490 1499 C 550 1527 618 1542 694 1542 C 766 1542 829 1533 881 1517 C 933 1500 976 1476 1010 1445 C 1043 1413 1068 1375 1084 1331 C 1100 1286 1108 1236 1108 1180 C 1108 1089 1096 1007 1074 933 C 1051 859 1018 797 976 745 C 933 693 881 652 819 624 C 757 596 688 582 610 582 Z M 608 735 C 660 735 707 745 748 765 C 788 785 823 813 851 850 C 879 886 900 931 914 983 C 928 1035 936 1093 936 1157 C 936 1191 931 1222 922 1250 C 913 1278 899 1301 880 1321 C 860 1341 835 1356 805 1366 C 775 1376 738 1382 696 1382 C 646 1382 601 1371 561 1351 C 521 1330 487 1301 459 1264 C 431 1226 410 1181 395 1129 C 380 1077 373 1019 373 956 C 373 922 377 891 386 864 C 395 836 409 813 428 794 C 447 775 471 760 501 750 C 531 740 566 735 608 735 Z M 145 438 L 899 438 L 868 283 L 115 283 L 145 438 Z" unicode="" />
<glyph horiz-adv-x="1436" d="M 510 571 L 336 1139 L 510 1139 L 698 569 L 268 0 L 92 0 L 510 571 Z M 1010 571 L 836 1139 L 1012 1139 L 1200 569 L 772 0 L 592 0 L 1010 571 Z" unicode="" />
<glyph horiz-adv-x="1870" d="M 924 330 L 1475 950 L 1651 950 L 1102 336 L 1386 336 L 1475 606 L 1597 606 L 1540 336 L 1696 336 L 1667 205 L 1511 205 L 1468 0 L 1317 0 L 1358 205 L 899 205 L 924 330 Z M 1380 1518 L 1559 1518 L 391 0 L 211 0 L 1380 1518 Z M 416 1372 L 238 1372 L 266 1518 L 612 1518 L 410 567 L 246 567 L 416 1372 Z" unicode="" />
<glyph horiz-adv-x="2009" d="M 416 1372 L 238 1372 L 266 1518 L 612 1518 L 410 567 L 246 567 L 416 1372 Z M 1380 1518 L 1559 1518 L 391 0 L 211 0 L 1380 1518 Z M 1067 121 L 1436 416 C 1486 456 1526 490 1558 517 C 1589 543 1613 567 1631 588 C 1649 609 1661 630 1667 650 C 1673 670 1677 695 1677 723 C 1677 755 1663 779 1637 795 C 1610 811 1567 819 1507 819 C 1473 819 1435 815 1395 808 C 1355 801 1317 790 1282 776 L 1233 905 C 1275 923 1320 938 1368 949 C 1416 959 1467 965 1520 965 C 1630 965 1711 946 1763 909 C 1815 872 1841 820 1841 752 C 1841 721 1839 694 1835 670 C 1831 646 1825 623 1817 602 C 1809 581 1798 561 1784 542 C 1770 523 1753 504 1733 484 C 1713 464 1689 442 1662 419 C 1634 396 1603 370 1567 342 L 1313 135 L 1718 135 L 1692 0 L 1044 0 L 1067 121 Z" unicode="" />
<glyph horiz-adv-x="2093" d="M 469 561 C 425 561 385 563 349 568 C 312 573 278 580 246 590 C 214 599 185 610 157 624 C 129 637 103 652 78 670 L 166 788 C 210 758 255 735 302 719 C 349 702 403 694 465 694 C 526 694 574 710 610 743 C 646 776 664 827 664 897 C 664 916 661 933 656 949 C 650 965 641 978 627 989 C 613 1000 593 1009 569 1015 C 545 1021 514 1024 477 1024 L 342 1024 L 371 1155 L 541 1155 C 571 1155 598 1157 621 1162 C 644 1166 663 1174 678 1186 C 693 1197 704 1212 712 1232 C 719 1251 723 1275 723 1305 C 723 1337 709 1361 683 1376 C 657 1391 613 1399 553 1399 C 539 1399 523 1398 505 1397 C 486 1395 466 1393 445 1389 C 423 1385 402 1380 380 1374 C 358 1368 337 1360 317 1350 L 260 1473 C 286 1487 313 1498 343 1507 C 373 1515 402 1522 431 1527 C 459 1531 486 1534 512 1536 C 538 1537 560 1538 580 1538 C 682 1538 759 1521 811 1487 C 863 1453 889 1403 889 1339 C 889 1300 885 1266 877 1238 C 869 1210 858 1186 844 1166 C 830 1146 812 1130 792 1118 C 771 1105 748 1095 723 1087 C 758 1071 783 1047 798 1015 C 813 983 821 944 821 899 C 821 838 812 786 795 744 C 778 701 754 666 723 639 C 692 612 655 592 612 580 C 568 567 521 561 469 561 Z M 1149 330 L 1700 950 L 1876 950 L 1327 336 L 1612 336 L 1698 606 L 1821 606 L 1763 336 L 1919 336 L 1890 205 L 1737 205 L 1694 0 L 1542 0 L 1583 205 L 1122 205 L 1149 330 Z M 1606 1518 L 1784 1518 L 612 0 L 436 0 L 1606 1518 Z" unicode="" />
<glyph horiz-adv-x="1356" d="M 569 -20 C 474 -20 394 -12 329 2 C 264 17 212 39 172 67 C 132 95 103 129 85 169 C 67 209 59 255 59 305 C 59 367 65 421 79 467 C 92 513 113 553 143 588 C 172 622 210 653 258 680 C 305 707 362 734 430 760 C 480 778 520 796 552 814 C 583 832 608 853 627 878 C 646 903 661 934 673 970 C 684 1006 695 1053 705 1110 L 897 1110 C 889 1060 880 1015 872 976 C 863 936 853 901 841 870 C 829 839 815 812 799 788 C 783 764 763 743 741 724 C 718 704 691 687 660 671 C 628 655 592 639 551 625 C 496 605 450 587 414 571 C 378 555 349 537 327 517 C 305 497 290 475 281 449 C 272 423 268 390 268 350 C 268 324 272 300 282 278 C 292 256 309 236 334 220 C 359 204 393 191 436 182 C 479 172 534 168 602 168 C 654 168 714 173 782 185 C 850 197 919 216 989 242 L 1057 66 C 1017 49 974 35 930 24 C 885 13 841 4 797 -2 C 753 -8 712 -13 673 -16 C 633 -18 599 -20 569 -20 Z M 758 1522 L 1008 1522 L 958 1280 L 709 1280 L 758 1522 Z" unicode="" />
<glyph horiz-adv-x="1473" d="M 795 1528 L 999 1528 L 1260 0 L 1053 0 L 999 319 L 295 319 L 106 0 L -117 0 L 795 1528 Z M 971 510 L 846 1262 L 401 510 L 971 510 Z M 614 1939 L 846 1939 L 1079 1604 L 903 1604 L 614 1939 Z" unicode="" />
<glyph horiz-adv-x="1473" d="M 795 1528 L 999 1528 L 1260 0 L 1053 0 L 999 319 L 295 319 L 106 0 L -117 0 L 795 1528 Z M 971 510 L 846 1262 L 401 510 L 971 510 Z M 1110 1939 L 1360 1939 L 928 1604 L 735 1604 L 1110 1939 Z" unicode="" />
<glyph horiz-adv-x="1473" d="M 795 1528 L 999 1528 L 1260 0 L 1053 0 L 999 319 L 295 319 L 106 0 L -117 0 L 795 1528 Z M 971 510 L 846 1262 L 401 510 L 971 510 Z M 874 1939 L 1090 1939 L 1319 1604 L 1130 1604 L 958 1810 L 696 1604 L 502 1604 L 874 1939 Z" unicode="" />
<glyph horiz-adv-x="1473" d="M 795 1528 L 999 1528 L 1260 0 L 1053 0 L 999 319 L 295 319 L 106 0 L -117 0 L 795 1528 Z M 971 510 L 846 1262 L 401 510 L 971 510 Z M 1094 1608 C 1058 1608 1027 1613 1000 1624 C 972 1634 947 1646 923 1659 C 899 1672 876 1684 854 1695 C 832 1706 808 1712 782 1712 C 752 1712 724 1702 698 1683 C 671 1663 646 1641 623 1616 L 520 1718 C 560 1766 602 1805 646 1833 C 690 1861 739 1876 791 1876 C 826 1876 857 1870 884 1860 C 911 1849 936 1837 960 1825 C 984 1812 1007 1800 1029 1790 C 1051 1779 1074 1774 1100 1774 C 1126 1774 1152 1783 1176 1801 C 1200 1819 1226 1844 1255 1876 L 1360 1774 C 1314 1720 1269 1678 1226 1650 C 1183 1622 1139 1608 1094 1608 Z" unicode="" />
<glyph horiz-adv-x="1473" d="M 795 1528 L 999 1528 L 1260 0 L 1053 0 L 999 319 L 295 319 L 106 0 L -117 0 L 795 1528 Z M 971 510 L 846 1262 L 401 510 L 971 510 Z M 659 1833 L 842 1833 L 795 1604 L 612 1604 L 659 1833 Z M 1075 1833 L 1257 1833 L 1210 1604 L 1028 1604 L 1075 1833 Z" unicode="" />
<glyph horiz-adv-x="1473" d="M 745 1446 C 710 1465 685 1491 669 1523 C 653 1555 645 1590 645 1630 C 645 1678 652 1721 666 1761 C 680 1800 700 1834 726 1862 C 751 1890 781 1911 817 1927 C 853 1942 892 1950 936 1950 C 978 1950 1014 1943 1044 1931 C 1074 1919 1099 1902 1119 1882 C 1138 1862 1152 1838 1162 1811 C 1171 1784 1176 1756 1176 1726 C 1176 1654 1161 1594 1131 1547 C 1101 1499 1062 1464 1014 1442 L 1260 0 L 1053 0 L 999 319 L 295 319 L 106 0 L -117 0 L 745 1446 Z M 971 510 L 846 1262 L 401 510 L 971 510 Z M 893 1530 C 943 1530 983 1546 1015 1578 C 1047 1610 1063 1655 1063 1714 C 1063 1730 1060 1746 1056 1761 C 1051 1775 1043 1788 1033 1800 C 1023 1811 1009 1820 993 1827 C 976 1833 956 1837 932 1837 C 906 1837 882 1832 861 1822 C 839 1812 821 1799 806 1782 C 790 1765 778 1745 770 1722 C 762 1698 758 1673 758 1645 C 758 1611 768 1584 790 1562 C 811 1540 845 1530 893 1530 Z" unicode="" />
<glyph horiz-adv-x="2193" d="M 1118 1518 L 2232 1518 L 2191 1319 L 1401 1319 L 1305 879 L 2075 879 L 2036 688 L 1266 688 L 1157 190 L 1956 190 L 1917 0 L 920 0 L 989 319 L 356 319 L 92 0 L -141 0 L 1118 1518 Z M 1026 498 L 1202 1333 L 502 498 L 1026 498 Z" unicode="" />
<glyph horiz-adv-x="1462" d="M 530 -475 C 494 -475 462 -472 433 -468 C 404 -463 378 -457 354 -449 C 330 -441 309 -433 291 -424 C 272 -414 256 -405 242 -395 L 317 -289 C 329 -297 343 -306 357 -314 C 371 -322 386 -329 403 -335 C 420 -341 439 -346 459 -350 C 479 -354 501 -356 526 -356 C 579 -356 617 -346 639 -326 C 661 -306 672 -279 672 -246 C 672 -228 667 -214 657 -204 C 647 -193 635 -185 619 -179 C 603 -173 584 -170 563 -169 C 542 -168 520 -168 498 -170 L 457 -135 L 508 -2 C 431 13 364 37 308 70 C 252 103 205 144 169 193 C 132 242 105 298 87 361 C 69 424 61 493 61 569 C 61 650 70 738 88 834 C 116 968 157 1081 211 1171 C 264 1261 327 1334 399 1389 C 471 1444 550 1483 638 1507 C 726 1530 818 1542 915 1542 C 991 1542 1059 1536 1119 1524 C 1178 1512 1230 1495 1276 1475 C 1322 1455 1361 1431 1395 1405 C 1429 1379 1458 1351 1483 1323 L 1307 1182 C 1265 1230 1212 1268 1147 1298 C 1081 1328 1001 1343 907 1343 C 829 1343 758 1333 692 1313 C 626 1293 568 1261 516 1218 C 464 1174 419 1119 382 1051 C 344 983 315 901 295 805 C 287 767 281 731 277 696 C 273 661 272 628 272 596 C 272 530 281 471 300 419 C 318 367 347 322 385 286 C 423 249 472 221 531 201 C 589 181 659 172 739 172 C 782 172 822 174 859 180 C 895 185 929 193 961 204 C 993 214 1023 227 1051 243 C 1079 259 1106 277 1133 299 L 1260 145 C 1226 117 1191 92 1153 71 C 1115 50 1075 33 1031 19 C 987 5 940 -5 889 -12 C 837 -19 781 -23 721 -23 C 704 -23 688 -22 672 -21 C 656 -20 640 -19 625 -18 L 596 -90 C 621 -90 646 -92 672 -96 C 698 -100 721 -107 741 -119 C 761 -130 778 -145 791 -165 C 804 -185 811 -210 811 -242 C 811 -284 804 -320 790 -350 C 776 -380 757 -404 733 -422 C 708 -440 678 -454 644 -462 C 609 -470 571 -475 530 -475 Z" unicode="" />
<glyph horiz-adv-x="1300" d="M 334 1518 L 1341 1518 L 1300 1319 L 500 1319 L 401 883 L 1182 883 L 1143 686 L 365 686 L 256 190 L 1065 190 L 1026 0 L 10 0 L 334 1518 Z M 532 1939 L 764 1939 L 997 1604 L 821 1604 L 532 1939 Z" unicode="" />
<glyph horiz-adv-x="1300" d="M 1028 1939 L 1278 1939 L 846 1604 L 653 1604 L 1028 1939 Z M 334 1518 L 1341 1518 L 1300 1319 L 500 1319 L 401 883 L 1182 883 L 1143 686 L 365 686 L 256 190 L 1065 190 L 1026 0 L 10 0 L 334 1518 Z" unicode="" />
<glyph horiz-adv-x="1300" d="M 793 1939 L 1008 1939 L 1237 1604 L 1049 1604 L 877 1810 L 614 1604 L 420 1604 L 793 1939 Z M 334 1518 L 1341 1518 L 1300 1319 L 500 1319 L 401 883 L 1182 883 L 1143 686 L 365 686 L 256 190 L 1065 190 L 1026 0 L 10 0 L 334 1518 Z" unicode="" />
<glyph horiz-adv-x="1300" d="M 578 1833 L 760 1833 L 713 1604 L 530 1604 L 578 1833 Z M 993 1833 L 1176 1833 L 1128 1604 L 946 1604 L 993 1833 Z M 334 1518 L 1341 1518 L 1300 1319 L 500 1319 L 401 883 L 1182 883 L 1143 686 L 365 686 L 256 190 L 1065 190 L 1026 0 L 10 0 L 334 1518 Z" unicode="" />
<glyph horiz-adv-x="582" d="M 174 1944 L 406 1944 L 553 1606 L 383 1606 L 174 1944 Z M 350 1518 L 559 1518 L 236 0 L 27 0 L 350 1518 Z" unicode="" />
<glyph horiz-adv-x="582" d="M 672 1944 L 918 1944 L 561 1606 L 375 1606 L 672 1944 Z M 350 1518 L 559 1518 L 236 0 L 27 0 L 350 1518 Z" unicode="" />
<glyph horiz-adv-x="582" d="M 350 1518 L 559 1518 L 236 0 L 27 0 L 350 1518 Z M 436 1939 L 651 1939 L 881 1604 L 692 1604 L 520 1810 L 258 1604 L 63 1604 L 436 1939 Z" unicode="" />
<glyph horiz-adv-x="582" d="M 350 1518 L 559 1518 L 236 0 L 27 0 L 350 1518 Z M 221 1833 L 403 1833 L 356 1604 L 174 1604 L 221 1833 Z M 637 1833 L 819 1833 L 772 1604 L 590 1604 L 637 1833 Z" unicode="" />
<glyph horiz-adv-x="1532" d="M 25 866 L 195 866 L 334 1518 L 694 1518 C 834 1518 953 1507 1051 1487 C 1149 1466 1230 1434 1293 1391 C 1355 1347 1401 1292 1430 1225 C 1458 1158 1473 1078 1473 985 C 1473 939 1470 891 1464 841 C 1458 790 1449 736 1436 678 C 1415 581 1390 497 1361 426 C 1332 354 1299 293 1261 243 C 1223 193 1180 152 1134 120 C 1087 88 1036 64 981 46 C 925 28 865 16 801 10 C 737 3 668 0 596 0 L 10 0 L 158 694 L -12 694 L 25 866 Z M 600 190 C 692 190 772 197 840 211 C 908 225 968 252 1018 290 C 1068 328 1110 381 1144 448 C 1178 515 1206 601 1229 707 C 1239 753 1247 796 1253 838 C 1259 880 1262 919 1262 956 C 1262 1018 1252 1072 1232 1118 C 1212 1164 1180 1202 1136 1232 C 1091 1262 1032 1284 960 1299 C 887 1313 798 1321 692 1321 L 502 1321 L 403 866 L 729 866 L 692 694 L 365 694 L 256 190 L 600 190 Z" unicode="" />
<glyph horiz-adv-x="1577" d="M 334 1518 L 559 1518 L 1118 348 L 1372 1518 L 1569 1518 L 1245 0 L 1057 0 L 469 1217 L 207 0 L 10 0 L 334 1518 Z M 1147 1608 C 1111 1608 1080 1613 1053 1624 C 1025 1634 1000 1646 976 1659 C 952 1672 929 1684 907 1695 C 885 1706 861 1712 836 1712 C 820 1712 806 1709 792 1704 C 778 1698 764 1691 751 1683 C 737 1674 724 1664 712 1652 C 700 1640 688 1628 676 1616 L 573 1718 C 613 1766 655 1805 699 1833 C 743 1861 792 1876 844 1876 C 879 1876 910 1870 938 1860 C 965 1849 990 1837 1014 1825 C 1037 1812 1060 1800 1082 1790 C 1104 1779 1127 1774 1153 1774 C 1179 1774 1205 1783 1229 1801 C 1253 1819 1279 1844 1309 1876 L 1413 1774 C 1367 1720 1322 1678 1279 1650 C 1236 1622 1192 1608 1147 1608 Z" unicode="" />
<glyph horiz-adv-x="1688" d="M 764 -25 C 650 -25 549 -11 462 15 C 375 41 302 81 243 133 C 183 185 138 249 108 325 C 78 401 63 489 63 588 C 61 627 63 667 68 709 C 73 750 80 794 90 840 C 109 931 134 1012 166 1082 C 197 1152 233 1214 274 1266 C 315 1318 360 1361 410 1397 C 459 1432 511 1460 567 1482 C 623 1503 681 1518 741 1528 C 801 1537 863 1542 926 1542 C 1039 1542 1139 1528 1227 1502 C 1314 1475 1387 1436 1446 1384 C 1505 1332 1550 1269 1580 1194 C 1610 1118 1626 1032 1626 934 C 1626 894 1623 853 1619 812 C 1615 770 1607 728 1597 684 C 1577 592 1551 510 1520 440 C 1489 369 1453 307 1412 255 C 1371 203 1326 159 1277 123 C 1228 87 1176 58 1121 36 C 1066 14 1008 0 948 -10 C 888 -20 826 -25 764 -25 Z M 766 168 C 846 168 920 178 988 198 C 1055 218 1115 250 1168 293 C 1220 336 1265 391 1302 459 C 1339 526 1368 607 1389 702 C 1397 737 1403 772 1407 806 C 1411 840 1413 873 1413 905 C 1413 971 1403 1032 1384 1086 C 1365 1140 1335 1186 1295 1224 C 1254 1262 1202 1291 1140 1312 C 1077 1332 1002 1343 915 1343 C 834 1343 760 1332 693 1312 C 625 1291 566 1259 514 1216 C 462 1172 417 1117 381 1050 C 344 983 316 903 297 811 C 289 775 283 741 279 707 C 275 673 274 639 274 606 C 274 540 283 480 302 426 C 321 372 351 326 391 288 C 431 250 482 220 544 199 C 606 178 680 168 766 168 Z M 725 1939 L 956 1939 L 1190 1604 L 1014 1604 L 725 1939 Z" unicode="" />
<glyph horiz-adv-x="1688" d="M 1217 1939 L 1466 1939 L 1034 1604 L 842 1604 L 1217 1939 Z M 764 -25 C 650 -25 549 -11 462 15 C 375 41 302 81 243 133 C 183 185 138 249 108 325 C 78 401 63 489 63 588 C 61 627 63 667 68 709 C 73 750 80 794 90 840 C 109 931 134 1012 166 1082 C 197 1152 233 1214 274 1266 C 315 1318 360 1361 410 1397 C 459 1432 511 1460 567 1482 C 623 1503 681 1518 741 1528 C 801 1537 863 1542 926 1542 C 1039 1542 1139 1528 1227 1502 C 1314 1475 1387 1436 1446 1384 C 1505 1332 1550 1269 1580 1194 C 1610 1118 1626 1032 1626 934 C 1626 894 1623 853 1619 812 C 1615 770 1607 728 1597 684 C 1577 592 1551 510 1520 440 C 1489 369 1453 307 1412 255 C 1371 203 1326 159 1277 123 C 1228 87 1176 58 1121 36 C 1066 14 1008 0 948 -10 C 888 -20 826 -25 764 -25 Z M 766 168 C 846 168 920 178 988 198 C 1055 218 1115 250 1168 293 C 1220 336 1265 391 1302 459 C 1339 526 1368 607 1389 702 C 1397 737 1403 772 1407 806 C 1411 840 1413 873 1413 905 C 1413 971 1403 1032 1384 1086 C 1365 1140 1335 1186 1295 1224 C 1254 1262 1202 1291 1140 1312 C 1077 1332 1002 1343 915 1343 C 834 1343 760 1332 693 1312 C 625 1291 566 1259 514 1216 C 462 1172 417 1117 381 1050 C 344 983 316 903 297 811 C 289 775 283 741 279 707 C 275 673 274 639 274 606 C 274 540 283 480 302 426 C 321 372 351 326 391 288 C 431 250 482 220 544 199 C 606 178 680 168 766 168 Z" unicode="" />
<glyph horiz-adv-x="1688" d="M 981 1939 L 1196 1939 L 1425 1604 L 1237 1604 L 1065 1810 L 803 1604 L 608 1604 L 981 1939 Z M 764 -25 C 650 -25 549 -11 462 15 C 375 41 302 81 243 133 C 183 185 138 249 108 325 C 78 401 63 489 63 588 C 61 627 63 667 68 709 C 73 750 80 794 90 840 C 109 931 134 1012 166 1082 C 197 1152 233 1214 274 1266 C 315 1318 360 1361 410 1397 C 459 1432 511 1460 567 1482 C 623 1503 681 1518 741 1528 C 801 1537 863 1542 926 1542 C 1039 1542 1139 1528 1227 1502 C 1314 1475 1387 1436 1446 1384 C 1505 1332 1550 1269 1580 1194 C 1610 1118 1626 1032 1626 934 C 1626 894 1623 853 1619 812 C 1615 770 1607 728 1597 684 C 1577 592 1551 510 1520 440 C 1489 369 1453 307 1412 255 C 1371 203 1326 159 1277 123 C 1228 87 1176 58 1121 36 C 1066 14 1008 0 948 -10 C 888 -20 826 -25 764 -25 Z M 766 168 C 846 168 920 178 988 198 C 1055 218 1115 250 1168 293 C 1220 336 1265 391 1302 459 C 1339 526 1368 607 1389 702 C 1397 737 1403 772 1407 806 C 1411 840 1413 873 1413 905 C 1413 971 1403 1032 1384 1086 C 1365 1140 1335 1186 1295 1224 C 1254 1262 1202 1291 1140 1312 C 1077 1332 1002 1343 915 1343 C 834 1343 760 1332 693 1312 C 625 1291 566 1259 514 1216 C 462 1172 417 1117 381 1050 C 344 983 316 903 297 811 C 289 775 283 741 279 707 C 275 673 274 639 274 606 C 274 540 283 480 302 426 C 321 372 351 326 391 288 C 431 250 482 220 544 199 C 606 178 680 168 766 168 Z" unicode="" />
<glyph horiz-adv-x="1688" d="M 764 -25 C 650 -25 549 -11 462 15 C 375 41 302 81 243 133 C 183 185 138 249 108 325 C 78 401 63 489 63 588 C 61 627 63 667 68 709 C 73 750 80 794 90 840 C 109 931 134 1012 166 1082 C 197 1152 233 1214 274 1266 C 315 1318 360 1361 410 1397 C 459 1432 511 1460 567 1482 C 623 1503 681 1518 741 1528 C 801 1537 863 1542 926 1542 C 1039 1542 1139 1528 1227 1502 C 1314 1475 1387 1436 1446 1384 C 1505 1332 1550 1269 1580 1194 C 1610 1118 1626 1032 1626 934 C 1626 894 1623 853 1619 812 C 1615 770 1607 728 1597 684 C 1577 592 1551 510 1520 440 C 1489 369 1453 307 1412 255 C 1371 203 1326 159 1277 123 C 1228 87 1176 58 1121 36 C 1066 14 1008 0 948 -10 C 888 -20 826 -25 764 -25 Z M 766 168 C 846 168 920 178 988 198 C 1055 218 1115 250 1168 293 C 1220 336 1265 391 1302 459 C 1339 526 1368 607 1389 702 C 1397 737 1403 772 1407 806 C 1411 840 1413 873 1413 905 C 1413 971 1403 1032 1384 1086 C 1365 1140 1335 1186 1295 1224 C 1254 1262 1202 1291 1140 1312 C 1077 1332 1002 1343 915 1343 C 834 1343 760 1332 693 1312 C 625 1291 566 1259 514 1216 C 462 1172 417 1117 381 1050 C 344 983 316 903 297 811 C 289 775 283 741 279 707 C 275 673 274 639 274 606 C 274 540 283 480 302 426 C 321 372 351 326 391 288 C 431 250 482 220 544 199 C 606 178 680 168 766 168 Z M 1204 1608 C 1168 1608 1137 1613 1110 1624 C 1082 1634 1057 1646 1033 1659 C 1009 1672 986 1684 964 1695 C 942 1706 918 1712 893 1712 C 878 1712 864 1709 850 1704 C 836 1698 822 1691 808 1683 C 794 1674 781 1664 769 1652 C 757 1640 745 1628 733 1616 L 631 1718 C 671 1766 713 1805 757 1833 C 801 1861 849 1876 901 1876 C 936 1876 967 1870 995 1860 C 1022 1849 1047 1837 1071 1825 C 1094 1812 1117 1800 1139 1790 C 1161 1779 1184 1774 1210 1774 C 1237 1774 1263 1783 1287 1801 C 1311 1819 1337 1844 1366 1876 L 1470 1774 C 1424 1720 1379 1678 1336 1650 C 1293 1622 1249 1608 1204 1608 Z" unicode="" />
<glyph horiz-adv-x="1688" d="M 770 1833 L 952 1833 L 905 1604 L 723 1604 L 770 1833 Z M 1186 1833 L 1368 1833 L 1321 1604 L 1139 1604 L 1186 1833 Z M 764 -25 C 650 -25 549 -11 462 15 C 375 41 302 81 243 133 C 183 185 138 249 108 325 C 78 401 63 489 63 588 C 61 627 63 667 68 709 C 73 750 80 794 90 840 C 109 931 134 1012 166 1082 C 197 1152 233 1214 274 1266 C 315 1318 360 1361 410 1397 C 459 1432 511 1460 567 1482 C 623 1503 681 1518 741 1528 C 801 1537 863 1542 926 1542 C 1039 1542 1139 1528 1227 1502 C 1314 1475 1387 1436 1446 1384 C 1505 1332 1550 1269 1580 1194 C 1610 1118 1626 1032 1626 934 C 1626 894 1623 853 1619 812 C 1615 770 1607 728 1597 684 C 1577 592 1551 510 1520 440 C 1489 369 1453 307 1412 255 C 1371 203 1326 159 1277 123 C 1228 87 1176 58 1121 36 C 1066 14 1008 0 948 -10 C 888 -20 826 -25 764 -25 Z M 766 168 C 846 168 920 178 988 198 C 1055 218 1115 250 1168 293 C 1220 336 1265 391 1302 459 C 1339 526 1368 607 1389 702 C 1397 737 1403 772 1407 806 C 1411 840 1413 873 1413 905 C 1413 971 1403 1032 1384 1086 C 1365 1140 1335 1186 1295 1224 C 1254 1262 1202 1291 1140 1312 C 1077 1332 1002 1343 915 1343 C 834 1343 760 1332 693 1312 C 625 1291 566 1259 514 1216 C 462 1172 417 1117 381 1050 C 344 983 316 903 297 811 C 289 775 283 741 279 707 C 275 673 274 639 274 606 C 274 540 283 480 302 426 C 321 372 351 326 391 288 C 431 250 482 220 544 199 C 606 178 680 168 766 168 Z" unicode="" />
<glyph horiz-adv-x="1440" d="M 201 401 L 588 721 L 338 1040 L 483 1165 L 737 846 L 1124 1165 L 1219 1038 L 831 721 L 1083 401 L 936 276 L 686 596 L 295 276 L 201 401 Z" unicode="" />
<glyph horiz-adv-x="1688" d="M 764 -25 C 608 -25 477 0 373 49 L 272 -84 L 70 -84 L 240 135 C 182 187 138 251 108 326 C 78 401 63 488 63 588 C 61 627 63 667 68 709 C 73 750 80 794 90 840 C 118 977 160 1091 216 1181 C 271 1271 335 1343 409 1397 C 482 1450 563 1487 651 1509 C 739 1531 831 1542 926 1542 C 996 1542 1062 1536 1123 1526 C 1184 1515 1240 1499 1290 1479 L 1386 1604 L 1587 1604 L 1430 1399 C 1494 1346 1543 1281 1576 1204 C 1609 1127 1626 1037 1626 934 C 1626 894 1623 853 1619 812 C 1615 770 1607 728 1597 684 C 1577 592 1551 510 1520 440 C 1489 369 1453 307 1412 255 C 1371 203 1326 159 1277 123 C 1228 87 1176 58 1121 36 C 1066 14 1008 0 948 -10 C 888 -20 826 -25 764 -25 Z M 766 162 C 848 162 923 172 991 192 C 1059 212 1119 243 1173 287 C 1226 330 1271 386 1309 454 C 1346 522 1375 605 1397 702 C 1405 737 1411 772 1415 807 C 1419 842 1421 876 1421 909 C 1421 978 1410 1040 1390 1095 C 1369 1150 1337 1197 1294 1237 L 492 211 C 564 178 655 162 766 162 Z M 264 602 C 264 538 272 480 289 428 C 306 376 333 331 371 293 L 1167 1311 C 1133 1324 1095 1334 1053 1341 C 1011 1348 965 1352 915 1352 C 833 1352 758 1341 690 1320 C 622 1299 562 1267 509 1223 C 456 1179 411 1122 374 1054 C 337 986 309 905 289 811 C 280 775 274 740 270 705 C 266 670 264 636 264 602 Z" unicode="" />
<glyph horiz-adv-x="1575" d="M 694 -27 C 576 -27 478 -15 402 8 C 326 32 265 63 221 103 C 177 143 146 189 128 242 C 110 294 102 350 102 408 C 102 440 104 472 109 506 C 113 539 119 572 127 604 L 324 1518 L 530 1518 L 336 610 C 330 580 324 551 320 524 C 315 496 313 470 313 444 C 313 402 319 364 332 330 C 345 296 367 267 398 243 C 429 219 470 200 522 187 C 574 174 638 168 715 168 C 786 168 847 176 898 193 C 949 209 992 234 1028 267 C 1063 299 1092 340 1114 389 C 1136 437 1153 493 1167 557 L 1374 1518 L 1575 1518 L 1358 516 C 1347 466 1334 419 1318 373 C 1302 327 1283 283 1259 243 C 1235 203 1207 166 1174 133 C 1141 99 1102 71 1056 47 C 1010 23 958 5 898 -7 C 838 -20 770 -27 694 -27 Z M 668 1939 L 899 1939 L 1133 1604 L 956 1604 L 668 1939 Z" unicode="" />
<glyph horiz-adv-x="1575" d="M 1163 1939 L 1413 1939 L 981 1604 L 788 1604 L 1163 1939 Z M 694 -27 C 576 -27 478 -15 402 8 C 326 32 265 63 221 103 C 177 143 146 189 128 242 C 110 294 102 350 102 408 C 102 440 104 472 109 506 C 113 539 119 572 127 604 L 324 1518 L 530 1518 L 336 610 C 330 580 324 551 320 524 C 315 496 313 470 313 444 C 313 402 319 364 332 330 C 345 296 367 267 398 243 C 429 219 470 200 522 187 C 574 174 638 168 715 168 C 786 168 847 176 898 193 C 949 209 992 234 1028 267 C 1063 299 1092 340 1114 389 C 1136 437 1153 493 1167 557 L 1374 1518 L 1575 1518 L 1358 516 C 1347 466 1334 419 1318 373 C 1302 327 1283 283 1259 243 C 1235 203 1207 166 1174 133 C 1141 99 1102 71 1056 47 C 1010 23 958 5 898 -7 C 838 -20 770 -27 694 -27 Z" unicode="" />
<glyph horiz-adv-x="1575" d="M 928 1939 L 1143 1939 L 1372 1604 L 1184 1604 L 1012 1810 L 750 1604 L 555 1604 L 928 1939 Z M 694 -27 C 576 -27 478 -15 402 8 C 326 32 265 63 221 103 C 177 143 146 189 128 242 C 110 294 102 350 102 408 C 102 440 104 472 109 506 C 113 539 119 572 127 604 L 324 1518 L 530 1518 L 336 610 C 330 580 324 551 320 524 C 315 496 313 470 313 444 C 313 402 319 364 332 330 C 345 296 367 267 398 243 C 429 219 470 200 522 187 C 574 174 638 168 715 168 C 786 168 847 176 898 193 C 949 209 992 234 1028 267 C 1063 299 1092 340 1114 389 C 1136 437 1153 493 1167 557 L 1374 1518 L 1575 1518 L 1358 516 C 1347 466 1334 419 1318 373 C 1302 327 1283 283 1259 243 C 1235 203 1207 166 1174 133 C 1141 99 1102 71 1056 47 C 1010 23 958 5 898 -7 C 838 -20 770 -27 694 -27 Z" unicode="" />
<glyph horiz-adv-x="1575" d="M 713 1833 L 895 1833 L 848 1604 L 666 1604 L 713 1833 Z M 1128 1833 L 1311 1833 L 1264 1604 L 1081 1604 L 1128 1833 Z M 694 -27 C 576 -27 478 -15 402 8 C 326 32 265 63 221 103 C 177 143 146 189 128 242 C 110 294 102 350 102 408 C 102 440 104 472 109 506 C 113 539 119 572 127 604 L 324 1518 L 530 1518 L 336 610 C 330 580 324 551 320 524 C 315 496 313 470 313 444 C 313 402 319 364 332 330 C 345 296 367 267 398 243 C 429 219 470 200 522 187 C 574 174 638 168 715 168 C 786 168 847 176 898 193 C 949 209 992 234 1028 267 C 1063 299 1092 340 1114 389 C 1136 437 1153 493 1167 557 L 1374 1518 L 1575 1518 L 1358 516 C 1347 466 1334 419 1318 373 C 1302 327 1283 283 1259 243 C 1235 203 1207 166 1174 133 C 1141 99 1102 71 1056 47 C 1010 23 958 5 898 -7 C 838 -20 770 -27 694 -27 Z" unicode="" />
<glyph horiz-adv-x="1425" d="M 569 584 L 188 1518 L 403 1518 L 711 782 L 1325 1518 L 1554 1518 L 774 578 L 651 0 L 444 0 L 569 584 Z M 1087 1939 L 1337 1939 L 905 1604 L 713 1604 L 1087 1939 Z" unicode="" />
<glyph horiz-adv-x="1434" d="M 334 1518 L 537 1518 L 483 1282 L 848 1282 C 946 1282 1030 1273 1098 1255 C 1166 1237 1221 1212 1263 1180 C 1305 1148 1335 1109 1354 1064 C 1372 1019 1382 969 1382 915 C 1382 825 1370 744 1348 671 C 1325 598 1290 535 1243 483 C 1196 431 1137 390 1065 362 C 993 333 907 319 809 319 L 281 319 L 213 0 L 10 0 L 334 1518 Z M 805 504 C 919 504 1008 534 1072 595 C 1135 655 1167 748 1167 874 C 1167 910 1160 942 1148 970 C 1135 997 1115 1020 1087 1038 C 1059 1056 1024 1070 980 1080 C 936 1089 884 1094 823 1094 L 446 1094 L 317 504 L 805 504 Z" unicode="" />
<glyph horiz-adv-x="1309" d="M 227 1122 C 241 1192 262 1256 289 1314 C 316 1372 351 1423 393 1465 C 435 1507 487 1539 548 1563 C 608 1587 680 1599 764 1599 C 846 1599 916 1590 974 1574 C 1032 1558 1079 1535 1116 1506 C 1152 1476 1179 1441 1196 1401 C 1212 1361 1221 1316 1221 1268 C 1221 1206 1214 1151 1200 1103 C 1186 1054 1167 1011 1142 975 C 1116 938 1086 907 1051 883 C 1015 859 976 841 934 829 C 1018 806 1081 769 1122 717 C 1163 665 1184 595 1184 508 C 1184 336 1137 208 1044 125 C 950 41 804 0 604 0 L 399 0 L 436 180 L 594 180 C 664 180 725 187 775 202 C 825 216 867 237 899 265 C 931 292 954 326 969 366 C 983 406 991 451 991 502 C 991 537 984 568 970 596 C 956 623 934 646 904 665 C 874 684 835 698 787 708 C 739 718 682 723 614 723 L 649 891 C 703 890 752 895 798 905 C 843 915 882 933 915 957 C 947 981 973 1014 991 1054 C 1009 1094 1018 1144 1018 1204 C 1018 1232 1013 1257 1003 1281 C 993 1304 978 1324 956 1342 C 934 1359 906 1372 872 1382 C 838 1392 796 1397 748 1397 C 653 1397 580 1371 528 1320 C 476 1268 439 1192 418 1090 L 115 -338 L -82 -338 L 227 1122 Z" unicode="" />
<glyph horiz-adv-x="1251" d="M 375 -20 C 298 -20 234 -12 184 2 C 133 16 93 37 63 64 C 33 90 12 122 0 160 C -12 197 -18 239 -18 285 C -18 376 -2 451 29 510 C 61 569 107 616 169 650 C 231 684 307 707 397 721 C 487 734 591 741 709 741 L 856 741 C 864 777 868 812 868 846 C 868 868 864 888 856 905 C 848 921 834 935 814 946 C 794 957 768 965 734 971 C 700 976 658 979 606 979 C 581 979 555 977 527 973 C 499 969 471 963 443 957 C 415 951 389 943 364 935 C 339 926 317 917 299 907 L 219 1069 C 241 1082 268 1094 299 1106 C 330 1118 364 1128 401 1137 C 437 1145 476 1152 517 1157 C 557 1162 599 1165 641 1165 C 714 1165 776 1160 827 1151 C 878 1141 920 1128 953 1110 C 986 1092 1011 1069 1028 1042 C 1044 1014 1055 982 1060 946 C 1065 910 1065 869 1059 824 C 1053 779 1045 730 1034 676 L 954 303 C 948 276 945 254 943 238 C 941 221 942 208 948 199 C 953 189 963 183 977 180 C 991 176 1012 175 1040 176 L 1006 2 C 999 0 988 -1 972 -1 C 956 -1 939 -2 920 -2 C 896 -2 875 0 857 3 C 839 7 823 13 811 22 C 799 31 789 43 782 58 C 775 73 771 92 770 115 C 730 69 678 35 614 13 C 549 -8 469 -20 375 -20 Z M 426 152 C 482 152 531 158 573 170 C 614 182 650 203 680 231 C 710 259 735 295 755 339 C 775 383 793 438 807 502 L 821 571 L 682 571 C 592 571 516 568 453 562 C 390 556 338 543 298 524 C 258 505 228 478 210 443 C 191 408 182 362 182 305 C 182 281 185 260 193 241 C 201 222 214 206 233 193 C 251 179 276 169 308 162 C 339 155 378 152 426 152 Z M 436 1591 L 668 1591 L 901 1255 L 725 1255 L 436 1591 Z" unicode="" />
<glyph horiz-adv-x="1251" d="M 375 -20 C 298 -20 234 -12 184 2 C 133 16 93 37 63 64 C 33 90 12 122 0 160 C -12 197 -18 239 -18 285 C -18 376 -2 451 29 510 C 61 569 107 616 169 650 C 231 684 307 707 397 721 C 487 734 591 741 709 741 L 856 741 C 864 777 868 812 868 846 C 868 868 864 888 856 905 C 848 921 834 935 814 946 C 794 957 768 965 734 971 C 700 976 658 979 606 979 C 581 979 555 977 527 973 C 499 969 471 963 443 957 C 415 951 389 943 364 935 C 339 926 317 917 299 907 L 219 1069 C 241 1082 268 1094 299 1106 C 330 1118 364 1128 401 1137 C 437 1145 476 1152 517 1157 C 557 1162 599 1165 641 1165 C 714 1165 776 1160 827 1151 C 878 1141 920 1128 953 1110 C 986 1092 1011 1069 1028 1042 C 1044 1014 1055 982 1060 946 C 1065 910 1065 869 1059 824 C 1053 779 1045 730 1034 676 L 954 303 C 948 276 945 254 943 238 C 941 221 942 208 948 199 C 953 189 963 183 977 180 C 991 176 1012 175 1040 176 L 1006 2 C 999 0 988 -1 972 -1 C 956 -1 939 -2 920 -2 C 896 -2 875 0 857 3 C 839 7 823 13 811 22 C 799 31 789 43 782 58 C 775 73 771 92 770 115 C 730 69 678 35 614 13 C 549 -8 469 -20 375 -20 Z M 426 152 C 482 152 531 158 573 170 C 614 182 650 203 680 231 C 710 259 735 295 755 339 C 775 383 793 438 807 502 L 821 571 L 682 571 C 592 571 516 568 453 562 C 390 556 338 543 298 524 C 258 505 228 478 210 443 C 191 408 182 362 182 305 C 182 281 185 260 193 241 C 201 222 214 206 233 193 C 251 179 276 169 308 162 C 339 155 378 152 426 152 Z M 932 1591 L 1182 1591 L 750 1255 L 557 1255 L 932 1591 Z" unicode="" />
<glyph horiz-adv-x="1251" d="M 375 -20 C 298 -20 234 -12 184 2 C 133 16 93 37 63 64 C 33 90 12 122 0 160 C -12 197 -18 239 -18 285 C -18 376 -2 451 29 510 C 61 569 107 616 169 650 C 231 684 307 707 397 721 C 487 734 591 741 709 741 L 856 741 C 864 777 868 812 868 846 C 868 868 864 888 856 905 C 848 921 834 935 814 946 C 794 957 768 965 734 971 C 700 976 658 979 606 979 C 581 979 555 977 527 973 C 499 969 471 963 443 957 C 415 951 389 943 364 935 C 339 926 317 917 299 907 L 219 1069 C 241 1082 268 1094 299 1106 C 330 1118 364 1128 401 1137 C 437 1145 476 1152 517 1157 C 557 1162 599 1165 641 1165 C 714 1165 776 1160 827 1151 C 878 1141 920 1128 953 1110 C 986 1092 1011 1069 1028 1042 C 1044 1014 1055 982 1060 946 C 1065 910 1065 869 1059 824 C 1053 779 1045 730 1034 676 L 954 303 C 948 276 945 254 943 238 C 941 221 942 208 948 199 C 953 189 963 183 977 180 C 991 176 1012 175 1040 176 L 1006 2 C 999 0 988 -1 972 -1 C 956 -1 939 -2 920 -2 C 896 -2 875 0 857 3 C 839 7 823 13 811 22 C 799 31 789 43 782 58 C 775 73 771 92 770 115 C 730 69 678 35 614 13 C 549 -8 469 -20 375 -20 Z M 426 152 C 482 152 531 158 573 170 C 614 182 650 203 680 231 C 710 259 735 295 755 339 C 775 383 793 438 807 502 L 821 571 L 682 571 C 592 571 516 568 453 562 C 390 556 338 543 298 524 C 258 505 228 478 210 443 C 191 408 182 362 182 305 C 182 281 185 260 193 241 C 201 222 214 206 233 193 C 251 179 276 169 308 162 C 339 155 378 152 426 152 Z M 696 1591 L 911 1591 L 1141 1255 L 952 1255 L 780 1462 L 518 1255 L 324 1255 L 696 1591 Z" unicode="" />
<glyph horiz-adv-x="1251" d="M 375 -20 C 298 -20 234 -12 184 2 C 133 16 93 37 63 64 C 33 90 12 122 0 160 C -12 197 -18 239 -18 285 C -18 376 -2 451 29 510 C 61 569 107 616 169 650 C 231 684 307 707 397 721 C 487 734 591 741 709 741 L 856 741 C 864 777 868 812 868 846 C 868 868 864 888 856 905 C 848 921 834 935 814 946 C 794 957 768 965 734 971 C 700 976 658 979 606 979 C 581 979 555 977 527 973 C 499 969 471 963 443 957 C 415 951 389 943 364 935 C 339 926 317 917 299 907 L 219 1069 C 241 1082 268 1094 299 1106 C 330 1118 364 1128 401 1137 C 437 1145 476 1152 517 1157 C 557 1162 599 1165 641 1165 C 714 1165 776 1160 827 1151 C 878 1141 920 1128 953 1110 C 986 1092 1011 1069 1028 1042 C 1044 1014 1055 982 1060 946 C 1065 910 1065 869 1059 824 C 1053 779 1045 730 1034 676 L 954 303 C 948 276 945 254 943 238 C 941 221 942 208 948 199 C 953 189 963 183 977 180 C 991 176 1012 175 1040 176 L 1006 2 C 999 0 988 -1 972 -1 C 956 -1 939 -2 920 -2 C 896 -2 875 0 857 3 C 839 7 823 13 811 22 C 799 31 789 43 782 58 C 775 73 771 92 770 115 C 730 69 678 35 614 13 C 549 -8 469 -20 375 -20 Z M 426 152 C 482 152 531 158 573 170 C 614 182 650 203 680 231 C 710 259 735 295 755 339 C 775 383 793 438 807 502 L 821 571 L 682 571 C 592 571 516 568 453 562 C 390 556 338 543 298 524 C 258 505 228 478 210 443 C 191 408 182 362 182 305 C 182 281 185 260 193 241 C 201 222 214 206 233 193 C 251 179 276 169 308 162 C 339 155 378 152 426 152 Z M 915 1260 C 879 1260 848 1265 821 1276 C 794 1286 769 1298 745 1311 C 721 1324 698 1336 676 1347 C 654 1358 630 1364 604 1364 C 574 1364 546 1354 520 1335 C 493 1315 468 1293 444 1268 L 342 1370 C 382 1418 424 1456 468 1485 C 512 1513 560 1528 612 1528 C 647 1528 678 1522 706 1512 C 733 1501 758 1489 782 1476 C 806 1463 829 1451 851 1441 C 873 1430 896 1425 922 1425 C 948 1425 974 1434 998 1452 C 1022 1470 1048 1496 1077 1528 L 1182 1425 C 1136 1371 1091 1330 1048 1302 C 1005 1274 961 1260 915 1260 Z" unicode="" />
<glyph horiz-adv-x="1251" d="M 375 -20 C 298 -20 234 -12 184 2 C 133 16 93 37 63 64 C 33 90 12 122 0 160 C -12 197 -18 239 -18 285 C -18 376 -2 451 29 510 C 61 569 107 616 169 650 C 231 684 307 707 397 721 C 487 734 591 741 709 741 L 856 741 C 864 777 868 812 868 846 C 868 868 864 888 856 905 C 848 921 834 935 814 946 C 794 957 768 965 734 971 C 700 976 658 979 606 979 C 581 979 555 977 527 973 C 499 969 471 963 443 957 C 415 951 389 943 364 935 C 339 926 317 917 299 907 L 219 1069 C 241 1082 268 1094 299 1106 C 330 1118 364 1128 401 1137 C 437 1145 476 1152 517 1157 C 557 1162 599 1165 641 1165 C 714 1165 776 1160 827 1151 C 878 1141 920 1128 953 1110 C 986 1092 1011 1069 1028 1042 C 1044 1014 1055 982 1060 946 C 1065 910 1065 869 1059 824 C 1053 779 1045 730 1034 676 L 954 303 C 948 276 945 254 943 238 C 941 221 942 208 948 199 C 953 189 963 183 977 180 C 991 176 1012 175 1040 176 L 1006 2 C 999 0 988 -1 972 -1 C 956 -1 939 -2 920 -2 C 896 -2 875 0 857 3 C 839 7 823 13 811 22 C 799 31 789 43 782 58 C 775 73 771 92 770 115 C 730 69 678 35 614 13 C 549 -8 469 -20 375 -20 Z M 426 152 C 482 152 531 158 573 170 C 614 182 650 203 680 231 C 710 259 735 295 755 339 C 775 383 793 438 807 502 L 821 571 L 682 571 C 592 571 516 568 453 562 C 390 556 338 543 298 524 C 258 505 228 478 210 443 C 191 408 182 362 182 305 C 182 281 185 260 193 241 C 201 222 214 206 233 193 C 251 179 276 169 308 162 C 339 155 378 152 426 152 Z M 481 1485 L 664 1485 L 616 1255 L 434 1255 L 481 1485 Z M 897 1485 L 1079 1485 L 1032 1255 L 850 1255 L 897 1485 Z" unicode="" />
<glyph horiz-adv-x="1251" d="M 375 -20 C 298 -20 234 -12 184 2 C 133 16 93 37 63 64 C 33 90 12 122 0 160 C -12 197 -18 239 -18 285 C -18 376 -2 451 29 510 C 61 569 107 616 169 650 C 231 684 307 707 397 721 C 487 734 591 741 709 741 L 856 741 C 864 777 868 812 868 846 C 868 868 864 888 856 905 C 848 921 834 935 814 946 C 794 957 768 965 734 971 C 700 976 658 979 606 979 C 581 979 555 977 527 973 C 499 969 471 963 443 957 C 415 951 389 943 364 935 C 339 926 317 917 299 907 L 219 1069 C 241 1082 268 1094 299 1106 C 330 1118 364 1128 401 1137 C 437 1145 476 1152 517 1157 C 557 1162 599 1165 641 1165 C 714 1165 776 1160 827 1151 C 878 1141 920 1128 953 1110 C 986 1092 1011 1069 1028 1042 C 1044 1014 1055 982 1060 946 C 1065 910 1065 869 1059 824 C 1053 779 1045 730 1034 676 L 954 303 C 948 276 945 254 943 238 C 941 221 942 208 948 199 C 953 189 963 183 977 180 C 991 176 1012 175 1040 176 L 1006 2 C 999 0 988 -1 972 -1 C 956 -1 939 -2 920 -2 C 896 -2 875 0 857 3 C 839 7 823 13 811 22 C 799 31 789 43 782 58 C 775 73 771 92 770 115 C 730 69 678 35 614 13 C 549 -8 469 -20 375 -20 Z M 426 152 C 482 152 531 158 573 170 C 614 182 650 203 680 231 C 710 259 735 295 755 339 C 775 383 793 438 807 502 L 821 571 L 682 571 C 592 571 516 568 453 562 C 390 556 338 543 298 524 C 258 505 228 478 210 443 C 191 408 182 362 182 305 C 182 281 185 260 193 241 C 201 222 214 206 233 193 C 251 179 276 169 308 162 C 339 155 378 152 426 152 Z M 760 1237 C 716 1237 679 1242 648 1254 C 617 1265 592 1280 572 1300 C 552 1319 538 1341 529 1367 C 520 1393 516 1420 516 1450 C 516 1498 523 1541 537 1581 C 551 1620 571 1653 597 1681 C 622 1709 652 1730 688 1746 C 724 1761 763 1769 807 1769 C 849 1769 885 1763 915 1751 C 945 1739 970 1722 990 1702 C 1009 1681 1023 1657 1033 1631 C 1042 1604 1047 1576 1047 1546 C 1047 1496 1039 1453 1025 1415 C 1010 1377 990 1344 965 1318 C 939 1291 909 1271 874 1257 C 838 1243 800 1237 760 1237 Z M 764 1350 C 814 1350 854 1366 886 1398 C 918 1430 934 1475 934 1534 C 934 1550 931 1565 927 1580 C 922 1595 914 1608 904 1620 C 894 1631 880 1640 864 1647 C 847 1653 827 1657 803 1657 C 777 1657 753 1652 732 1642 C 710 1632 692 1619 677 1602 C 661 1585 649 1565 641 1541 C 633 1517 629 1492 629 1464 C 629 1431 639 1404 661 1382 C 682 1360 716 1350 764 1350 Z" unicode="" />
<glyph horiz-adv-x="1950" d="M 1268 -23 C 1206 -23 1153 -18 1107 -8 C 1061 1 1022 14 988 32 C 954 50 927 71 905 96 C 883 121 865 149 852 180 C 829 148 803 119 773 95 C 743 70 709 49 670 32 C 630 15 586 2 536 -6 C 486 -15 429 -20 367 -20 C 305 -20 251 -14 203 -2 C 155 9 114 27 82 52 C 49 76 24 108 7 146 C -9 184 -18 231 -18 285 C -18 375 -2 449 29 508 C 61 566 107 613 169 648 C 230 682 306 706 396 720 C 486 734 591 741 709 741 L 856 741 C 860 759 863 778 865 797 C 867 816 868 832 868 846 C 868 868 864 887 856 904 C 848 920 835 934 815 945 C 795 956 769 964 735 970 C 701 976 658 979 606 979 C 581 979 555 977 527 973 C 499 969 471 963 443 957 C 415 951 389 943 364 935 C 339 926 317 917 299 907 L 219 1069 C 241 1082 268 1094 299 1106 C 329 1118 363 1128 400 1137 C 436 1145 475 1152 516 1157 C 556 1162 598 1165 641 1165 C 698 1165 748 1162 791 1156 C 834 1150 871 1142 902 1131 C 933 1119 958 1105 978 1088 C 998 1070 1013 1050 1024 1028 C 1069 1072 1123 1105 1187 1129 C 1250 1153 1325 1165 1413 1165 C 1499 1165 1570 1156 1626 1138 C 1682 1120 1726 1095 1758 1064 C 1790 1033 1813 997 1826 957 C 1838 916 1845 873 1845 827 C 1845 803 1843 777 1841 750 C 1839 722 1836 694 1832 666 C 1828 637 1823 608 1818 579 C 1813 549 1808 521 1802 494 L 987 494 C 985 480 984 467 984 454 C 983 440 983 428 983 416 C 983 378 988 343 998 311 C 1008 279 1024 251 1048 228 C 1071 204 1102 186 1142 173 C 1181 160 1230 154 1288 154 C 1428 154 1543 182 1634 240 L 1716 88 C 1682 66 1647 47 1612 33 C 1576 19 1540 7 1503 0 C 1466 -8 1428 -14 1389 -18 C 1350 -21 1310 -23 1268 -23 Z M 426 152 C 484 152 535 158 577 171 C 619 184 654 205 684 233 C 713 261 737 297 757 341 C 776 385 793 439 807 502 L 821 571 L 682 571 C 595 571 520 568 458 563 C 395 558 343 546 302 528 C 261 510 231 483 211 447 C 191 411 182 362 182 301 C 182 275 186 253 195 235 C 204 216 218 200 238 188 C 258 176 283 167 314 161 C 345 155 382 152 426 152 Z M 1393 985 C 1340 985 1294 977 1254 963 C 1214 949 1179 928 1149 901 C 1119 874 1094 841 1074 802 C 1053 762 1036 718 1022 668 L 1642 668 C 1646 692 1650 714 1653 734 C 1655 753 1657 774 1657 797 C 1657 824 1653 849 1645 872 C 1637 895 1624 915 1604 932 C 1584 948 1557 961 1523 971 C 1489 980 1445 985 1393 985 Z" unicode="" />
<glyph horiz-adv-x="1124" d="M 369 -475 C 333 -475 301 -472 272 -468 C 242 -463 216 -457 192 -449 C 168 -441 147 -433 129 -424 C 110 -414 94 -405 80 -395 L 156 -289 C 168 -297 181 -306 195 -314 C 209 -322 224 -329 241 -335 C 258 -341 277 -346 297 -350 C 317 -354 340 -356 365 -356 C 417 -356 455 -346 477 -326 C 499 -306 510 -279 510 -246 C 510 -228 505 -214 495 -204 C 485 -193 473 -185 457 -179 C 441 -173 422 -170 401 -169 C 380 -168 358 -168 336 -170 L 295 -135 L 346 -6 C 287 6 237 24 197 49 C 157 74 124 104 100 140 C 75 176 57 216 47 260 C 36 304 31 352 31 403 C 31 440 32 477 36 514 C 40 551 45 589 53 627 C 71 713 95 790 127 857 C 158 923 198 979 246 1025 C 294 1071 351 1105 419 1129 C 486 1153 565 1165 655 1165 C 717 1165 772 1159 818 1149 C 864 1139 905 1125 939 1108 C 973 1091 1001 1071 1025 1049 C 1049 1027 1069 1004 1087 981 L 920 848 C 909 862 897 876 883 891 C 869 905 851 919 830 931 C 809 943 783 953 753 961 C 722 969 685 973 641 973 C 587 973 539 965 497 951 C 455 937 418 914 386 884 C 354 853 328 814 306 766 C 284 718 266 660 252 594 C 246 566 242 537 238 508 C 234 478 233 450 233 422 C 233 382 238 346 248 314 C 258 281 274 253 296 230 C 318 207 348 189 385 177 C 421 164 466 158 520 158 C 546 158 570 159 593 162 C 616 164 639 169 661 176 C 683 183 706 192 729 204 C 751 216 775 230 799 248 L 911 115 C 878 89 845 67 813 50 C 780 32 747 18 714 8 C 681 -1 647 -9 613 -13 C 578 -17 542 -20 506 -20 C 498 -20 491 -20 484 -20 C 477 -20 470 -19 463 -18 L 434 -90 C 460 -90 485 -92 511 -96 C 536 -100 559 -107 580 -119 C 600 -130 617 -145 630 -165 C 642 -185 649 -210 649 -242 C 649 -284 642 -320 628 -350 C 614 -380 595 -404 571 -422 C 546 -440 516 -454 482 -462 C 448 -470 410 -475 369 -475 Z" unicode="" />
<glyph horiz-adv-x="1188" d="M 502 -23 C 410 -23 333 -12 273 10 C 212 32 163 62 127 100 C 90 138 64 182 49 233 C 34 284 27 339 27 397 C 27 435 29 473 34 512 C 38 550 45 589 53 627 C 69 711 93 786 124 853 C 154 919 193 976 241 1022 C 289 1068 346 1103 413 1128 C 479 1152 557 1165 647 1165 C 733 1165 805 1156 861 1138 C 917 1120 961 1095 994 1065 C 1026 1034 1049 998 1062 957 C 1074 916 1081 873 1081 827 C 1081 803 1079 777 1077 750 C 1075 722 1072 694 1068 666 C 1064 637 1059 608 1053 579 C 1047 549 1042 521 1036 494 L 221 494 C 219 480 218 467 218 454 C 217 440 217 428 217 416 C 217 378 222 343 232 311 C 242 279 258 251 282 228 C 306 204 337 186 377 173 C 416 160 465 154 524 154 C 662 154 777 182 868 240 L 950 88 C 882 44 812 14 738 0 C 664 -15 586 -23 502 -23 Z M 627 985 C 575 985 529 977 489 963 C 449 949 415 928 385 901 C 355 874 330 841 310 802 C 289 763 272 719 258 670 L 877 670 C 882 693 886 714 889 734 C 891 753 893 774 893 797 C 893 824 889 849 881 872 C 873 895 860 915 840 932 C 820 948 792 961 758 971 C 724 980 680 985 627 985 Z M 406 1591 L 637 1591 L 870 1255 L 694 1255 L 406 1591 Z" unicode="" />
<glyph horiz-adv-x="1188" d="M 901 1591 L 1151 1591 L 719 1255 L 526 1255 L 901 1591 Z M 502 -23 C 410 -23 333 -12 273 10 C 212 32 163 62 127 100 C 90 138 64 182 49 233 C 34 284 27 339 27 397 C 27 435 29 473 34 512 C 38 550 45 589 53 627 C 69 711 93 786 124 853 C 154 919 193 976 241 1022 C 289 1068 346 1103 413 1128 C 479 1152 557 1165 647 1165 C 733 1165 805 1156 861 1138 C 917 1120 961 1095 994 1065 C 1026 1034 1049 998 1062 957 C 1074 916 1081 873 1081 827 C 1081 803 1079 777 1077 750 C 1075 722 1072 694 1068 666 C 1064 637 1059 608 1053 579 C 1047 549 1042 521 1036 494 L 221 494 C 219 480 218 467 218 454 C 217 440 217 428 217 416 C 217 378 222 343 232 311 C 242 279 258 251 282 228 C 306 204 337 186 377 173 C 416 160 465 154 524 154 C 662 154 777 182 868 240 L 950 88 C 882 44 812 14 738 0 C 664 -15 586 -23 502 -23 Z M 627 985 C 575 985 529 977 489 963 C 449 949 415 928 385 901 C 355 874 330 841 310 802 C 289 763 272 719 258 670 L 877 670 C 882 693 886 714 889 734 C 891 753 893 774 893 797 C 893 824 889 849 881 872 C 873 895 860 915 840 932 C 820 948 792 961 758 971 C 724 980 680 985 627 985 Z" unicode="" />
<glyph horiz-adv-x="1188" d="M 666 1591 L 881 1591 L 1110 1255 L 922 1255 L 750 1462 L 487 1255 L 293 1255 L 666 1591 Z M 502 -23 C 410 -23 333 -12 273 10 C 212 32 163 62 127 100 C 90 138 64 182 49 233 C 34 284 27 339 27 397 C 27 435 29 473 34 512 C 38 550 45 589 53 627 C 69 711 93 786 124 853 C 154 919 193 976 241 1022 C 289 1068 346 1103 413 1128 C 479 1152 557 1165 647 1165 C 733 1165 805 1156 861 1138 C 917 1120 961 1095 994 1065 C 1026 1034 1049 998 1062 957 C 1074 916 1081 873 1081 827 C 1081 803 1079 777 1077 750 C 1075 722 1072 694 1068 666 C 1064 637 1059 608 1053 579 C 1047 549 1042 521 1036 494 L 221 494 C 219 480 218 467 218 454 C 217 440 217 428 217 416 C 217 378 222 343 232 311 C 242 279 258 251 282 228 C 306 204 337 186 377 173 C 416 160 465 154 524 154 C 662 154 777 182 868 240 L 950 88 C 882 44 812 14 738 0 C 664 -15 586 -23 502 -23 Z M 627 985 C 575 985 529 977 489 963 C 449 949 415 928 385 901 C 355 874 330 841 310 802 C 289 763 272 719 258 670 L 877 670 C 882 693 886 714 889 734 C 891 753 893 774 893 797 C 893 824 889 849 881 872 C 873 895 860 915 840 932 C 820 948 792 961 758 971 C 724 980 680 985 627 985 Z" unicode="" />
<glyph horiz-adv-x="1188" d="M 451 1485 L 633 1485 L 586 1255 L 403 1255 L 451 1485 Z M 866 1485 L 1049 1485 L 1001 1255 L 819 1255 L 866 1485 Z M 502 -23 C 410 -23 333 -12 273 10 C 212 32 163 62 127 100 C 90 138 64 182 49 233 C 34 284 27 339 27 397 C 27 435 29 473 34 512 C 38 550 45 589 53 627 C 69 711 93 786 124 853 C 154 919 193 976 241 1022 C 289 1068 346 1103 413 1128 C 479 1152 557 1165 647 1165 C 733 1165 805 1156 861 1138 C 917 1120 961 1095 994 1065 C 1026 1034 1049 998 1062 957 C 1074 916 1081 873 1081 827 C 1081 803 1079 777 1077 750 C 1075 722 1072 694 1068 666 C 1064 637 1059 608 1053 579 C 1047 549 1042 521 1036 494 L 221 494 C 219 480 218 467 218 454 C 217 440 217 428 217 416 C 217 378 222 343 232 311 C 242 279 258 251 282 228 C 306 204 337 186 377 173 C 416 160 465 154 524 154 C 662 154 777 182 868 240 L 950 88 C 882 44 812 14 738 0 C 664 -15 586 -23 502 -23 Z M 627 985 C 575 985 529 977 489 963 C 449 949 415 928 385 901 C 355 874 330 841 310 802 C 289 763 272 719 258 670 L 877 670 C 882 693 886 714 889 734 C 891 753 893 774 893 797 C 893 824 889 849 881 872 C 873 895 860 915 840 932 C 820 948 792 961 758 971 C 724 980 680 985 627 985 Z" unicode="" />
<glyph horiz-adv-x="516" d="M 66 1591 L 299 1591 L 436 1255 L 262 1255 L 66 1591 Z M 240 1139 L 438 1139 L 197 0 L -2 0 L 240 1139 Z" unicode="" />
<glyph horiz-adv-x="516" d="M 561 1591 L 807 1591 L 449 1255 L 262 1255 L 561 1591 Z M 240 1139 L 438 1139 L 197 0 L -2 0 L 240 1139 Z" unicode="" />
<glyph horiz-adv-x="516" d="M 326 1591 L 541 1591 L 729 1255 L 541 1255 L 410 1462 L 188 1255 L -6 1255 L 326 1591 Z M 240 1139 L 438 1139 L 197 0 L -2 0 L 240 1139 Z" unicode="" />
<glyph horiz-adv-x="516" d="M 139 1485 L 309 1485 L 262 1255 L 92 1255 L 139 1485 Z M 510 1485 L 680 1485 L 633 1255 L 463 1255 L 510 1485 Z M 240 1139 L 438 1139 L 197 0 L -2 0 L 240 1139 Z" unicode="" />
<glyph horiz-adv-x="1268" d="M 707 1366 L 850 1401 C 833 1424 816 1447 798 1470 C 780 1492 761 1515 741 1538 L 936 1616 C 957 1592 978 1567 999 1539 C 1020 1511 1039 1482 1057 1452 L 1382 1532 L 1352 1360 L 1124 1305 C 1143 1251 1158 1192 1169 1130 C 1180 1068 1186 1000 1186 926 C 1186 790 1169 646 1135 496 C 1111 398 1082 316 1047 250 C 1011 184 969 130 920 90 C 870 49 814 20 751 3 C 687 -14 616 -23 537 -23 C 445 -23 366 -12 302 8 C 238 29 185 59 145 97 C 105 135 75 181 57 235 C 38 289 29 348 29 414 C 29 484 37 555 53 627 C 89 795 152 921 242 1004 C 331 1086 452 1128 606 1128 C 658 1128 703 1125 742 1121 C 781 1116 815 1109 845 1099 C 874 1089 899 1076 920 1061 C 940 1046 958 1028 973 1008 C 975 1051 972 1093 964 1135 C 956 1176 944 1217 928 1257 L 674 1196 L 707 1366 Z M 537 158 C 593 158 642 165 685 179 C 727 193 765 214 797 243 C 829 272 856 309 878 354 C 900 399 918 453 932 516 C 939 544 944 572 947 600 C 950 627 952 652 952 676 C 952 716 946 753 935 786 C 924 818 906 846 882 869 C 858 892 826 910 788 923 C 750 935 703 942 649 942 C 592 942 542 934 499 920 C 455 906 418 884 386 854 C 354 824 327 787 305 742 C 283 697 266 644 252 582 C 246 552 241 524 238 498 C 234 471 233 444 233 418 C 233 378 238 343 249 311 C 260 279 278 251 302 229 C 326 206 357 188 396 176 C 434 164 481 158 537 158 Z" unicode="" />
<glyph horiz-adv-x="1253" d="M 225 1128 L 385 1139 L 375 1044 C 391 1060 411 1075 433 1090 C 455 1104 480 1117 510 1128 C 539 1139 572 1148 610 1155 C 648 1161 691 1165 739 1165 C 809 1165 868 1159 916 1147 C 964 1135 1002 1118 1032 1096 C 1061 1074 1082 1047 1095 1016 C 1108 985 1116 951 1119 913 C 1121 875 1119 835 1113 792 C 1107 748 1099 703 1090 657 L 948 0 L 750 0 L 885 635 C 891 665 897 694 902 722 C 907 750 910 777 910 802 C 910 827 906 850 899 870 C 891 890 878 908 860 923 C 842 937 817 949 785 957 C 753 965 712 969 664 969 C 606 969 558 960 519 944 C 480 927 448 904 422 875 C 396 846 375 812 360 774 C 345 735 333 693 324 649 L 186 0 L -14 0 L 225 1128 Z M 911 1260 C 875 1260 844 1265 817 1276 C 789 1286 764 1298 740 1311 C 716 1324 693 1336 671 1347 C 649 1358 625 1364 600 1364 C 585 1364 571 1361 557 1356 C 543 1350 529 1343 515 1335 C 501 1326 488 1316 476 1304 C 464 1292 452 1280 440 1268 L 338 1370 C 378 1418 420 1456 464 1485 C 508 1513 556 1528 608 1528 C 643 1528 674 1522 702 1512 C 729 1501 754 1489 778 1476 C 802 1463 825 1451 847 1441 C 869 1430 892 1425 918 1425 C 944 1425 970 1434 994 1452 C 1018 1470 1044 1496 1073 1528 L 1178 1425 C 1131 1371 1086 1330 1043 1302 C 1000 1274 956 1260 911 1260 Z" unicode="" />
<glyph horiz-adv-x="1268" d="M 526 -23 C 437 -23 361 -12 299 8 C 236 28 185 58 145 96 C 105 134 76 181 58 235 C 40 289 31 349 31 416 C 31 448 32 482 36 517 C 40 552 45 589 53 627 C 73 724 102 807 138 875 C 174 943 217 998 267 1041 C 317 1084 375 1115 441 1135 C 507 1155 580 1165 662 1165 C 750 1165 826 1154 890 1134 C 953 1114 1005 1085 1045 1047 C 1085 1009 1114 963 1133 909 C 1151 855 1161 795 1161 729 C 1161 696 1158 662 1154 626 C 1150 590 1144 554 1137 516 C 1116 418 1088 335 1052 267 C 1016 199 973 143 923 100 C 872 57 813 26 747 6 C 681 -13 607 -23 526 -23 Z M 537 158 C 593 158 642 165 686 180 C 729 194 767 217 799 248 C 831 279 859 318 881 366 C 903 413 922 469 936 535 C 942 563 946 592 949 620 C 952 648 954 675 954 700 C 954 741 948 779 937 813 C 926 847 909 876 885 900 C 861 924 829 942 791 955 C 753 968 706 975 651 975 C 594 975 544 967 500 952 C 456 937 419 914 387 883 C 355 851 328 812 306 764 C 284 716 266 659 252 594 C 246 565 241 537 238 509 C 234 481 233 454 233 426 C 233 384 238 347 249 314 C 260 281 278 253 302 230 C 326 207 357 189 396 177 C 434 164 481 158 537 158 Z M 440 1591 L 672 1591 L 905 1255 L 729 1255 L 440 1591 Z" unicode="" />
<glyph horiz-adv-x="1268" d="M 936 1591 L 1186 1591 L 754 1255 L 561 1255 L 936 1591 Z M 526 -23 C 437 -23 361 -12 299 8 C 236 28 185 58 145 96 C 105 134 76 181 58 235 C 40 289 31 349 31 416 C 31 448 32 482 36 517 C 40 552 45 589 53 627 C 73 724 102 807 138 875 C 174 943 217 998 267 1041 C 317 1084 375 1115 441 1135 C 507 1155 580 1165 662 1165 C 750 1165 826 1154 890 1134 C 953 1114 1005 1085 1045 1047 C 1085 1009 1114 963 1133 909 C 1151 855 1161 795 1161 729 C 1161 696 1158 662 1154 626 C 1150 590 1144 554 1137 516 C 1116 418 1088 335 1052 267 C 1016 199 973 143 923 100 C 872 57 813 26 747 6 C 681 -13 607 -23 526 -23 Z M 537 158 C 593 158 642 165 686 180 C 729 194 767 217 799 248 C 831 279 859 318 881 366 C 903 413 922 469 936 535 C 942 563 946 592 949 620 C 952 648 954 675 954 700 C 954 741 948 779 937 813 C 926 847 909 876 885 900 C 861 924 829 942 791 955 C 753 968 706 975 651 975 C 594 975 544 967 500 952 C 456 937 419 914 387 883 C 355 851 328 812 306 764 C 284 716 266 659 252 594 C 246 565 241 537 238 509 C 234 481 233 454 233 426 C 233 384 238 347 249 314 C 260 281 278 253 302 230 C 326 207 357 189 396 177 C 434 164 481 158 537 158 Z" unicode="" />
<glyph horiz-adv-x="1268" d="M 700 1591 L 915 1591 L 1145 1255 L 956 1255 L 784 1462 L 522 1255 L 328 1255 L 700 1591 Z M 526 -23 C 437 -23 361 -12 299 8 C 236 28 185 58 145 96 C 105 134 76 181 58 235 C 40 289 31 349 31 416 C 31 448 32 482 36 517 C 40 552 45 589 53 627 C 73 724 102 807 138 875 C 174 943 217 998 267 1041 C 317 1084 375 1115 441 1135 C 507 1155 580 1165 662 1165 C 750 1165 826 1154 890 1134 C 953 1114 1005 1085 1045 1047 C 1085 1009 1114 963 1133 909 C 1151 855 1161 795 1161 729 C 1161 696 1158 662 1154 626 C 1150 590 1144 554 1137 516 C 1116 418 1088 335 1052 267 C 1016 199 973 143 923 100 C 872 57 813 26 747 6 C 681 -13 607 -23 526 -23 Z M 537 158 C 593 158 642 165 686 180 C 729 194 767 217 799 248 C 831 279 859 318 881 366 C 903 413 922 469 936 535 C 942 563 946 592 949 620 C 952 648 954 675 954 700 C 954 741 948 779 937 813 C 926 847 909 876 885 900 C 861 924 829 942 791 955 C 753 968 706 975 651 975 C 594 975 544 967 500 952 C 456 937 419 914 387 883 C 355 851 328 812 306 764 C 284 716 266 659 252 594 C 246 565 241 537 238 509 C 234 481 233 454 233 426 C 233 384 238 347 249 314 C 260 281 278 253 302 230 C 326 207 357 189 396 177 C 434 164 481 158 537 158 Z" unicode="" />
<glyph horiz-adv-x="1268" d="M 526 -23 C 437 -23 361 -12 299 8 C 236 28 185 58 145 96 C 105 134 76 181 58 235 C 40 289 31 349 31 416 C 31 448 32 482 36 517 C 40 552 45 589 53 627 C 73 724 102 807 138 875 C 174 943 217 998 267 1041 C 317 1084 375 1115 441 1135 C 507 1155 580 1165 662 1165 C 750 1165 826 1154 890 1134 C 953 1114 1005 1085 1045 1047 C 1085 1009 1114 963 1133 909 C 1151 855 1161 795 1161 729 C 1161 696 1158 662 1154 626 C 1150 590 1144 554 1137 516 C 1116 418 1088 335 1052 267 C 1016 199 973 143 923 100 C 872 57 813 26 747 6 C 681 -13 607 -23 526 -23 Z M 537 158 C 593 158 642 165 686 180 C 729 194 767 217 799 248 C 831 279 859 318 881 366 C 903 413 922 469 936 535 C 942 563 946 592 949 620 C 952 648 954 675 954 700 C 954 741 948 779 937 813 C 926 847 909 876 885 900 C 861 924 829 942 791 955 C 753 968 706 975 651 975 C 594 975 544 967 500 952 C 456 937 419 914 387 883 C 355 851 328 812 306 764 C 284 716 266 659 252 594 C 246 565 241 537 238 509 C 234 481 233 454 233 426 C 233 384 238 347 249 314 C 260 281 278 253 302 230 C 326 207 357 189 396 177 C 434 164 481 158 537 158 Z M 920 1260 C 884 1260 853 1265 826 1276 C 798 1286 773 1298 749 1311 C 725 1324 702 1336 680 1347 C 658 1358 634 1364 608 1364 C 578 1364 550 1354 524 1335 C 497 1315 472 1293 449 1268 L 346 1370 C 386 1418 428 1456 472 1485 C 516 1513 564 1528 616 1528 C 651 1528 682 1522 710 1512 C 737 1501 762 1489 786 1476 C 810 1463 833 1451 855 1441 C 877 1430 900 1425 926 1425 C 952 1425 978 1434 1002 1452 C 1026 1470 1052 1496 1081 1528 L 1186 1425 C 1140 1371 1095 1330 1052 1302 C 1009 1274 965 1260 920 1260 Z" unicode="" />
<glyph horiz-adv-x="1268" d="M 485 1485 L 668 1485 L 621 1255 L 438 1255 L 485 1485 Z M 901 1485 L 1083 1485 L 1036 1255 L 854 1255 L 901 1485 Z M 526 -23 C 437 -23 361 -12 299 8 C 236 28 185 58 145 96 C 105 134 76 181 58 235 C 40 289 31 349 31 416 C 31 448 32 482 36 517 C 40 552 45 589 53 627 C 73 724 102 807 138 875 C 174 943 217 998 267 1041 C 317 1084 375 1115 441 1135 C 507 1155 580 1165 662 1165 C 750 1165 826 1154 890 1134 C 953 1114 1005 1085 1045 1047 C 1085 1009 1114 963 1133 909 C 1151 855 1161 795 1161 729 C 1161 696 1158 662 1154 626 C 1150 590 1144 554 1137 516 C 1116 418 1088 335 1052 267 C 1016 199 973 143 923 100 C 872 57 813 26 747 6 C 681 -13 607 -23 526 -23 Z M 537 158 C 593 158 642 165 686 180 C 729 194 767 217 799 248 C 831 279 859 318 881 366 C 903 413 922 469 936 535 C 942 563 946 592 949 620 C 952 648 954 675 954 700 C 954 741 948 779 937 813 C 926 847 909 876 885 900 C 861 924 829 942 791 955 C 753 968 706 975 651 975 C 594 975 544 967 500 952 C 456 937 419 914 387 883 C 355 851 328 812 306 764 C 284 716 266 659 252 594 C 246 565 241 537 238 509 C 234 481 233 454 233 426 C 233 384 238 347 249 314 C 260 281 278 253 302 230 C 326 207 357 189 396 177 C 434 164 481 158 537 158 Z" unicode="" />
<glyph horiz-adv-x="1440" d="M 537 420 L 762 420 L 715 205 L 492 205 L 537 420 Z M 223 817 L 1241 817 L 1200 627 L 182 627 L 223 817 Z M 711 1241 L 934 1241 L 889 1026 L 666 1026 L 711 1241 Z" unicode="" />
<glyph horiz-adv-x="1268" d="M 526 -23 C 467 -23 414 -18 368 -9 C 321 0 280 12 244 29 L 150 -86 L -25 -86 L 133 109 C 97 147 71 191 55 243 C 39 294 31 352 31 416 C 31 448 32 482 36 517 C 40 552 45 589 53 627 C 73 724 102 807 138 875 C 174 943 217 998 267 1041 C 317 1084 375 1115 441 1135 C 507 1155 580 1165 662 1165 C 776 1165 871 1147 946 1112 L 1038 1229 L 1214 1229 L 1057 1034 C 1093 997 1119 953 1136 901 C 1152 849 1161 791 1161 729 C 1161 696 1158 662 1154 626 C 1150 590 1144 554 1137 516 C 1116 418 1088 335 1052 267 C 1016 199 973 143 923 100 C 872 57 813 26 747 6 C 681 -13 607 -23 526 -23 Z M 535 147 C 593 147 644 154 689 170 C 733 185 772 208 805 240 C 838 272 866 312 889 360 C 911 408 930 466 944 532 C 958 594 965 651 965 705 C 965 773 950 831 920 877 L 354 180 C 377 168 403 160 433 155 C 463 149 497 147 535 147 Z M 223 422 C 223 357 236 302 262 258 L 823 954 C 779 974 722 985 653 985 C 595 985 543 977 499 961 C 454 945 415 922 382 890 C 349 858 321 817 299 769 C 276 720 258 662 244 596 C 237 565 232 535 228 507 C 224 478 223 450 223 422 Z" unicode="" />
<glyph horiz-adv-x="1239" d="M 522 -23 C 442 -23 374 -16 318 -4 C 262 7 217 25 181 48 C 145 70 118 98 100 131 C 82 163 70 200 65 242 C 59 283 59 328 65 377 C 70 425 78 477 90 532 L 219 1139 L 420 1139 L 289 514 C 281 480 275 448 270 418 C 264 388 262 359 263 333 C 264 307 269 283 278 262 C 287 241 302 223 323 208 C 344 193 372 182 407 174 C 442 166 486 162 539 162 C 596 162 642 169 677 183 C 711 197 739 217 760 244 C 780 270 796 302 808 340 C 819 377 830 419 840 467 L 983 1139 L 1178 1139 L 1032 455 C 1014 371 994 299 972 239 C 950 179 921 129 884 90 C 847 51 800 22 742 4 C 684 -13 611 -23 522 -23 Z M 426 1591 L 657 1591 L 891 1255 L 715 1255 L 426 1591 Z" unicode="" />
<glyph horiz-adv-x="1239" d="M 922 1591 L 1171 1591 L 739 1255 L 547 1255 L 922 1591 Z M 522 -23 C 442 -23 374 -16 318 -4 C 262 7 217 25 181 48 C 145 70 118 98 100 131 C 82 163 70 200 65 242 C 59 283 59 328 65 377 C 70 425 78 477 90 532 L 219 1139 L 420 1139 L 289 514 C 281 480 275 448 270 418 C 264 388 262 359 263 333 C 264 307 269 283 278 262 C 287 241 302 223 323 208 C 344 193 372 182 407 174 C 442 166 486 162 539 162 C 596 162 642 169 677 183 C 711 197 739 217 760 244 C 780 270 796 302 808 340 C 819 377 830 419 840 467 L 983 1139 L 1178 1139 L 1032 455 C 1014 371 994 299 972 239 C 950 179 921 129 884 90 C 847 51 800 22 742 4 C 684 -13 611 -23 522 -23 Z" unicode="" />
<glyph horiz-adv-x="1239" d="M 686 1591 L 901 1591 L 1130 1255 L 942 1255 L 770 1462 L 508 1255 L 313 1255 L 686 1591 Z M 522 -23 C 442 -23 374 -16 318 -4 C 262 7 217 25 181 48 C 145 70 118 98 100 131 C 82 163 70 200 65 242 C 59 283 59 328 65 377 C 70 425 78 477 90 532 L 219 1139 L 420 1139 L 289 514 C 281 480 275 448 270 418 C 264 388 262 359 263 333 C 264 307 269 283 278 262 C 287 241 302 223 323 208 C 344 193 372 182 407 174 C 442 166 486 162 539 162 C 596 162 642 169 677 183 C 711 197 739 217 760 244 C 780 270 796 302 808 340 C 819 377 830 419 840 467 L 983 1139 L 1178 1139 L 1032 455 C 1014 371 994 299 972 239 C 950 179 921 129 884 90 C 847 51 800 22 742 4 C 684 -13 611 -23 522 -23 Z" unicode="" />
<glyph horiz-adv-x="1239" d="M 471 1485 L 653 1485 L 606 1255 L 424 1255 L 471 1485 Z M 887 1485 L 1069 1485 L 1022 1255 L 840 1255 L 887 1485 Z M 522 -23 C 442 -23 374 -16 318 -4 C 262 7 217 25 181 48 C 145 70 118 98 100 131 C 82 163 70 200 65 242 C 59 283 59 328 65 377 C 70 425 78 477 90 532 L 219 1139 L 420 1139 L 289 514 C 281 480 275 448 270 418 C 264 388 262 359 263 333 C 264 307 269 283 278 262 C 287 241 302 223 323 208 C 344 193 372 182 407 174 C 442 166 486 162 539 162 C 596 162 642 169 677 183 C 711 197 739 217 760 244 C 780 270 796 302 808 340 C 819 377 830 419 840 467 L 983 1139 L 1178 1139 L 1032 455 C 1014 371 994 299 972 239 C 950 179 921 129 884 90 C 847 51 800 22 742 4 C 684 -13 611 -23 522 -23 Z" unicode="" />
<glyph horiz-adv-x="1073" d="M 53 -344 C 41 -344 28 -344 16 -344 C 4 -344 -7 -344 -19 -344 C -31 -344 -42 -343 -52 -343 C -62 -343 -70 -342 -76 -342 L -43 -180 L 45 -180 C 72 -180 94 -178 112 -175 C 129 -171 144 -166 156 -158 C 168 -150 180 -138 190 -124 C 200 -110 211 -92 223 -70 L 279 23 L 98 1139 L 305 1139 L 432 272 L 924 1139 L 1139 1139 L 403 -113 C 377 -157 353 -194 330 -224 C 306 -254 281 -277 255 -295 C 229 -313 199 -325 167 -333 C 135 -340 97 -344 53 -344 Z M 846 1591 L 1096 1591 L 664 1255 L 471 1255 L 846 1591 Z" unicode="" />
<glyph horiz-adv-x="1303" d="M 328 1589 L 524 1589 L 408 1051 C 424 1069 444 1086 466 1100 C 488 1114 514 1126 544 1136 C 574 1145 608 1152 646 1157 C 684 1162 727 1165 776 1165 C 855 1165 922 1154 976 1134 C 1030 1114 1074 1085 1107 1049 C 1140 1012 1164 969 1178 919 C 1192 869 1200 814 1200 754 C 1200 718 1197 679 1192 639 C 1187 599 1179 558 1169 516 C 1151 432 1128 357 1100 291 C 1072 225 1037 169 995 123 C 953 77 902 42 842 18 C 782 -6 710 -18 627 -18 C 562 -18 506 -14 459 -8 C 411 -1 371 8 338 21 C 305 34 279 50 259 70 C 239 89 224 111 215 137 L 115 -338 L -82 -338 L 328 1589 Z M 600 162 C 654 162 702 169 742 185 C 782 200 816 223 845 254 C 873 285 897 324 917 371 C 937 417 954 472 969 535 C 975 567 980 598 984 628 C 988 658 991 687 991 715 C 991 754 986 790 977 822 C 967 854 952 881 930 904 C 908 926 879 944 843 956 C 807 968 762 975 709 975 C 655 975 607 969 565 958 C 523 947 486 928 454 900 C 422 872 395 833 372 785 C 349 737 329 675 313 600 C 297 532 289 471 289 418 C 289 374 294 336 306 304 C 318 272 336 245 361 224 C 386 203 418 187 458 177 C 497 167 544 162 600 162 Z" unicode="" />
<glyph horiz-adv-x="1073" d="M 53 -344 C 41 -344 28 -344 16 -344 C 4 -344 -7 -344 -19 -344 C -31 -344 -42 -343 -52 -343 C -62 -343 -70 -342 -76 -342 L -43 -180 L 45 -180 C 72 -180 94 -178 112 -175 C 129 -171 144 -166 156 -158 C 168 -150 180 -138 190 -124 C 200 -110 211 -92 223 -70 L 279 23 L 98 1139 L 305 1139 L 432 272 L 924 1139 L 1139 1139 L 403 -113 C 377 -157 353 -194 330 -224 C 306 -254 281 -277 255 -295 C 229 -313 199 -325 167 -333 C 135 -340 97 -344 53 -344 Z M 395 1485 L 578 1485 L 530 1255 L 348 1255 L 395 1485 Z M 811 1485 L 993 1485 L 946 1255 L 764 1255 L 811 1485 Z" unicode="" />
<glyph horiz-adv-x="1473" d="" unicode="" />
<glyph horiz-adv-x="1251" d="" unicode="" />
<glyph horiz-adv-x="1473" d="M 795 1528 L 999 1528 L 1260 0 L 1053 0 L 999 319 L 295 319 L 106 0 L -117 0 L 795 1528 Z M 971 510 L 846 1262 L 401 510 L 971 510 Z M 938 1585 C 864 1585 804 1594 758 1612 C 712 1630 677 1655 652 1687 C 627 1718 610 1754 602 1796 C 594 1838 590 1882 590 1929 L 745 1950 C 745 1919 747 1891 751 1867 C 755 1842 765 1821 779 1804 C 793 1787 813 1774 839 1765 C 865 1755 900 1751 944 1751 C 986 1751 1022 1755 1052 1765 C 1082 1774 1107 1787 1128 1804 C 1149 1821 1167 1842 1181 1867 C 1195 1891 1209 1919 1221 1950 L 1366 1921 C 1350 1874 1331 1830 1308 1790 C 1284 1749 1256 1713 1222 1683 C 1188 1653 1147 1629 1101 1611 C 1054 1593 1000 1585 938 1585 Z" unicode="" />
<glyph horiz-adv-x="1251" d="M 375 -20 C 298 -20 234 -12 184 2 C 133 16 93 37 63 64 C 33 90 12 122 0 160 C -12 197 -18 239 -18 285 C -18 376 -2 451 29 510 C 61 569 107 616 169 650 C 231 684 307 707 397 721 C 487 734 591 741 709 741 L 856 741 C 864 777 868 812 868 846 C 868 868 864 888 856 905 C 848 921 834 935 814 946 C 794 957 768 965 734 971 C 700 976 658 979 606 979 C 581 979 555 977 527 973 C 499 969 471 963 443 957 C 415 951 389 943 364 935 C 339 926 317 917 299 907 L 219 1069 C 241 1082 268 1094 299 1106 C 330 1118 364 1128 401 1137 C 437 1145 476 1152 517 1157 C 557 1162 599 1165 641 1165 C 714 1165 776 1160 827 1151 C 878 1141 920 1128 953 1110 C 986 1092 1011 1069 1028 1042 C 1044 1014 1055 982 1060 946 C 1065 910 1065 869 1059 824 C 1053 779 1045 730 1034 676 L 954 303 C 948 276 945 254 943 238 C 941 221 942 208 948 199 C 953 189 963 183 977 180 C 991 176 1012 175 1040 176 L 1006 2 C 999 0 988 -1 972 -1 C 956 -1 939 -2 920 -2 C 896 -2 875 0 857 3 C 839 7 823 13 811 22 C 799 31 789 43 782 58 C 775 73 771 92 770 115 C 730 69 678 35 614 13 C 549 -8 469 -20 375 -20 Z M 426 152 C 482 152 531 158 573 170 C 614 182 650 203 680 231 C 710 259 735 295 755 339 C 775 383 793 438 807 502 L 821 571 L 682 571 C 592 571 516 568 453 562 C 390 556 338 543 298 524 C 258 505 228 478 210 443 C 191 408 182 362 182 305 C 182 281 185 260 193 241 C 201 222 214 206 233 193 C 251 179 276 169 308 162 C 339 155 378 152 426 152 Z M 760 1237 C 686 1237 626 1246 580 1264 C 534 1282 499 1307 474 1339 C 449 1370 432 1406 424 1448 C 416 1490 412 1534 412 1581 L 567 1602 C 567 1571 569 1543 573 1519 C 577 1494 587 1473 601 1456 C 615 1439 635 1426 661 1417 C 687 1407 722 1403 766 1403 C 808 1403 844 1407 874 1417 C 904 1426 929 1439 950 1456 C 971 1473 989 1494 1003 1519 C 1017 1543 1030 1571 1042 1602 L 1188 1573 C 1172 1526 1153 1482 1130 1441 C 1106 1400 1078 1364 1044 1334 C 1010 1304 969 1280 923 1263 C 876 1245 822 1237 760 1237 Z" unicode="" />
<glyph horiz-adv-x="1473" d="M 795 1528 L 999 1528 L 1260 0 L 1188 0 C 1158 -16 1131 -34 1105 -53 C 1079 -72 1057 -92 1038 -113 C 1019 -134 1004 -155 993 -177 C 982 -199 977 -220 977 -242 C 977 -268 985 -287 1003 -299 C 1021 -311 1050 -317 1092 -317 C 1115 -317 1137 -314 1158 -309 C 1178 -304 1199 -297 1221 -287 L 1274 -414 C 1208 -442 1137 -457 1061 -457 C 1012 -457 971 -452 939 -444 C 906 -436 880 -424 860 -409 C 840 -393 825 -374 817 -352 C 809 -329 805 -304 805 -276 C 805 -242 811 -209 825 -179 C 838 -148 856 -119 878 -93 C 900 -66 925 -42 954 -20 C 982 2 1012 21 1044 39 L 999 319 L 295 319 L 106 0 L -117 0 L 795 1528 Z M 971 510 L 846 1262 L 401 510 L 971 510 Z" unicode="" />
<glyph horiz-adv-x="1251" d="M 375 -20 C 298 -20 234 -12 184 2 C 133 16 93 37 63 64 C 33 90 12 122 0 160 C -12 197 -18 239 -18 285 C -18 376 -2 451 29 510 C 61 569 107 616 169 650 C 231 684 307 707 397 721 C 487 734 591 741 709 741 L 856 741 C 864 777 868 812 868 846 C 868 868 864 888 856 905 C 848 921 834 935 814 946 C 794 957 768 965 734 971 C 700 976 658 979 606 979 C 581 979 555 977 527 973 C 499 969 471 963 443 957 C 415 951 389 943 364 935 C 339 926 317 917 299 907 L 219 1069 C 241 1082 268 1094 299 1106 C 330 1118 364 1128 401 1137 C 437 1145 476 1152 517 1157 C 557 1162 599 1165 641 1165 C 714 1165 776 1160 827 1151 C 878 1141 920 1128 953 1110 C 986 1092 1011 1069 1028 1042 C 1044 1014 1055 982 1060 946 C 1065 910 1065 869 1059 824 C 1053 779 1045 730 1034 676 L 954 303 C 948 276 945 254 943 238 C 941 221 942 208 948 199 C 953 189 963 183 977 180 C 991 176 1012 175 1040 176 L 1006 2 C 1005 2 1004 1 1004 1 L 1004 0 C 972 -16 942 -34 913 -53 C 884 -72 859 -92 837 -113 C 815 -133 797 -154 784 -176 C 770 -198 764 -220 764 -242 C 764 -267 772 -286 790 -298 C 807 -310 839 -317 885 -317 C 935 -317 980 -307 1022 -287 L 1077 -414 C 1045 -428 1010 -438 972 -446 C 934 -453 895 -457 856 -457 C 804 -457 761 -453 727 -445 C 693 -437 665 -425 645 -410 C 625 -395 610 -377 602 -356 C 594 -334 590 -311 590 -285 C 590 -249 596 -216 610 -185 C 623 -154 640 -126 662 -100 C 683 -74 707 -51 733 -31 C 759 -11 786 6 813 20 C 806 25 800 31 795 39 C 787 47 782 57 778 70 C 774 83 772 98 770 115 C 730 69 678 35 614 13 C 549 -8 469 -20 375 -20 Z M 426 152 C 482 152 531 158 573 170 C 614 182 650 203 680 231 C 710 259 735 295 755 339 C 775 383 793 438 807 502 L 821 571 L 682 571 C 592 571 516 568 453 562 C 390 556 338 543 298 524 C 258 505 228 478 210 443 C 191 408 182 362 182 305 C 182 281 185 260 193 241 C 201 222 214 206 233 193 C 251 179 276 169 308 162 C 339 155 378 152 426 152 Z" unicode="" />
<glyph horiz-adv-x="1462" d="M 1106 1939 L 1356 1939 L 924 1604 L 731 1604 L 1106 1939 Z M 721 -23 C 607 -23 508 -9 425 18 C 342 46 274 85 220 137 C 166 188 126 250 100 323 C 74 396 61 478 61 569 C 61 650 70 738 88 834 C 116 968 157 1081 211 1171 C 264 1261 327 1334 399 1389 C 471 1444 550 1483 638 1507 C 726 1530 818 1542 915 1542 C 991 1542 1059 1536 1119 1524 C 1178 1512 1230 1495 1276 1475 C 1322 1455 1361 1431 1395 1405 C 1429 1379 1458 1351 1483 1323 L 1307 1182 C 1265 1230 1212 1268 1147 1298 C 1081 1328 1001 1343 907 1343 C 829 1343 758 1333 692 1313 C 626 1293 568 1261 516 1218 C 464 1174 419 1119 382 1051 C 344 983 315 901 295 805 C 287 767 281 731 277 696 C 273 661 272 628 272 596 C 272 530 281 471 300 419 C 318 367 347 322 385 286 C 423 249 472 221 531 201 C 589 181 659 172 739 172 C 782 172 822 174 859 180 C 895 185 929 193 961 204 C 993 214 1023 227 1051 243 C 1079 259 1106 277 1133 299 L 1260 145 C 1226 117 1191 92 1153 71 C 1115 50 1075 33 1031 19 C 987 5 940 -5 889 -12 C 837 -19 781 -23 721 -23 Z" unicode="" />
<glyph horiz-adv-x="1124" d="M 870 1591 L 1120 1591 L 688 1255 L 496 1255 L 870 1591 Z M 506 -20 C 416 -20 340 -9 280 12 C 219 33 170 62 133 100 C 96 138 70 182 54 234 C 38 286 31 342 31 403 C 31 440 32 477 36 514 C 40 551 45 589 53 627 C 71 713 95 790 127 857 C 158 923 198 979 246 1025 C 294 1071 351 1105 419 1129 C 486 1153 565 1165 655 1165 C 717 1165 772 1159 818 1149 C 864 1139 905 1125 939 1108 C 973 1091 1001 1071 1025 1049 C 1049 1027 1069 1004 1087 981 L 920 848 C 909 862 897 876 883 891 C 869 905 851 919 830 931 C 809 943 783 953 753 961 C 722 969 685 973 641 973 C 587 973 539 965 497 951 C 455 937 418 914 386 884 C 354 853 328 814 306 766 C 284 718 266 660 252 594 C 246 566 242 537 238 508 C 234 478 233 450 233 422 C 233 382 238 346 248 314 C 258 281 274 253 296 230 C 318 207 348 189 385 177 C 421 164 466 158 520 158 C 546 158 570 159 593 162 C 616 164 639 169 661 176 C 683 183 706 192 729 204 C 751 216 775 230 799 248 L 911 115 C 878 89 845 67 813 50 C 780 32 747 18 714 8 C 681 -1 647 -9 613 -13 C 578 -17 542 -20 506 -20 Z" unicode="" />
<glyph horiz-adv-x="1462" d="" unicode="" />
<glyph horiz-adv-x="1124" d="" unicode="" />
<glyph horiz-adv-x="1462" d="" unicode="" />
<glyph horiz-adv-x="1124" d="" unicode="" />
<glyph horiz-adv-x="1462" d="M 569 1939 L 756 1939 L 930 1733 L 1190 1939 L 1386 1939 L 1016 1604 L 799 1604 L 569 1939 Z M 721 -23 C 607 -23 508 -9 425 18 C 342 46 274 85 220 137 C 166 188 126 250 100 323 C 74 396 61 478 61 569 C 61 650 70 738 88 834 C 116 968 157 1081 211 1171 C 264 1261 327 1334 399 1389 C 471 1444 550 1483 638 1507 C 726 1530 818 1542 915 1542 C 991 1542 1059 1536 1119 1524 C 1178 1512 1230 1495 1276 1475 C 1322 1455 1361 1431 1395 1405 C 1429 1379 1458 1351 1483 1323 L 1307 1182 C 1265 1230 1212 1268 1147 1298 C 1081 1328 1001 1343 907 1343 C 829 1343 758 1333 692 1313 C 626 1293 568 1261 516 1218 C 464 1174 419 1119 382 1051 C 344 983 315 901 295 805 C 287 767 281 731 277 696 C 273 661 272 628 272 596 C 272 530 281 471 300 419 C 318 367 347 322 385 286 C 423 249 472 221 531 201 C 589 181 659 172 739 172 C 782 172 822 174 859 180 C 895 185 929 193 961 204 C 993 214 1023 227 1051 243 C 1079 259 1106 277 1133 299 L 1260 145 C 1226 117 1191 92 1153 71 C 1115 50 1075 33 1031 19 C 987 5 940 -5 889 -12 C 837 -19 781 -23 721 -23 Z" unicode="" />
<glyph horiz-adv-x="1124" d="M 334 1591 L 520 1591 L 694 1384 L 954 1591 L 1151 1591 L 780 1255 L 563 1255 L 334 1591 Z M 506 -20 C 416 -20 340 -9 280 12 C 219 33 170 62 133 100 C 96 138 70 182 54 234 C 38 286 31 342 31 403 C 31 440 32 477 36 514 C 40 551 45 589 53 627 C 71 713 95 790 127 857 C 158 923 198 979 246 1025 C 294 1071 351 1105 419 1129 C 486 1153 565 1165 655 1165 C 717 1165 772 1159 818 1149 C 864 1139 905 1125 939 1108 C 973 1091 1001 1071 1025 1049 C 1049 1027 1069 1004 1087 981 L 920 848 C 909 862 897 876 883 891 C 869 905 851 919 830 931 C 809 943 783 953 753 961 C 722 969 685 973 641 973 C 587 973 539 965 497 951 C 455 937 418 914 386 884 C 354 853 328 814 306 766 C 284 718 266 660 252 594 C 246 566 242 537 238 508 C 234 478 233 450 233 422 C 233 382 238 346 248 314 C 258 281 274 253 296 230 C 318 207 348 189 385 177 C 421 164 466 158 520 158 C 546 158 570 159 593 162 C 616 164 639 169 661 176 C 683 183 706 192 729 204 C 751 216 775 230 799 248 L 911 115 C 878 89 845 67 813 50 C 780 32 747 18 714 8 C 681 -1 647 -9 613 -13 C 578 -17 542 -20 506 -20 Z" unicode="" />
<glyph horiz-adv-x="1532" d="M 600 1942 L 786 1942 L 961 1735 L 1221 1942 L 1417 1942 L 1047 1606 L 829 1606 L 600 1942 Z M 334 1518 L 694 1518 C 834 1518 953 1507 1051 1487 C 1149 1466 1230 1434 1293 1391 C 1355 1347 1401 1292 1430 1225 C 1458 1158 1473 1078 1473 985 C 1473 939 1470 891 1464 841 C 1458 790 1449 736 1436 678 C 1415 581 1390 497 1361 426 C 1332 354 1299 293 1261 243 C 1223 193 1180 152 1134 120 C 1087 88 1036 64 981 46 C 925 28 865 16 801 10 C 737 3 668 0 596 0 L 10 0 L 334 1518 Z M 600 190 C 692 190 772 197 840 211 C 908 225 968 252 1018 290 C 1068 328 1110 381 1144 448 C 1178 515 1206 601 1229 707 C 1239 753 1247 796 1253 838 C 1259 880 1262 919 1262 956 C 1262 1018 1252 1072 1232 1118 C 1212 1164 1180 1202 1136 1232 C 1091 1262 1032 1284 960 1299 C 887 1313 798 1321 692 1321 L 502 1321 L 256 190 L 600 190 Z" unicode="" />
<glyph horiz-adv-x="1540" d="M 1403 1204 C 1429 1216 1451 1228 1469 1238 C 1486 1248 1500 1259 1511 1270 C 1522 1281 1531 1293 1537 1306 C 1543 1319 1548 1335 1552 1354 L 1452 1354 L 1501 1589 L 1714 1589 L 1679 1415 C 1669 1371 1659 1335 1648 1305 C 1637 1275 1623 1248 1605 1226 C 1587 1203 1564 1183 1537 1165 C 1510 1147 1476 1128 1436 1110 L 1403 1204 Z M 451 -18 C 371 -18 303 -7 249 12 C 195 32 151 61 118 97 C 85 133 62 177 48 227 C 34 277 27 331 27 391 C 27 428 29 467 34 507 C 39 547 47 589 57 631 C 75 715 98 790 125 856 C 152 922 187 978 229 1024 C 271 1070 323 1105 383 1129 C 443 1153 515 1165 600 1165 C 662 1165 717 1161 764 1155 C 810 1148 850 1138 883 1125 C 915 1111 941 1095 961 1075 C 981 1055 996 1033 1006 1008 L 1133 1589 L 1333 1589 L 995 8 L 840 -6 L 854 102 C 832 79 808 60 782 45 C 755 29 725 17 692 8 C 659 -1 623 -8 583 -12 C 543 -16 499 -18 451 -18 Z M 518 162 C 572 162 620 167 662 178 C 704 189 740 209 772 237 C 804 265 831 303 854 351 C 877 399 897 461 913 537 C 928 603 936 664 936 719 C 936 763 930 801 919 833 C 907 865 889 892 864 914 C 839 935 807 951 768 961 C 728 971 681 977 625 977 C 570 977 523 969 483 953 C 443 937 408 914 380 883 C 351 851 327 812 308 766 C 288 719 272 664 258 602 C 250 569 245 537 241 507 C 237 477 236 448 236 420 C 236 381 240 346 250 314 C 259 282 274 255 296 233 C 318 210 347 192 383 180 C 419 168 464 162 518 162 Z" unicode="" />
<glyph horiz-adv-x="1532" d="M 25 866 L 195 866 L 334 1518 L 694 1518 C 834 1518 953 1507 1051 1487 C 1149 1466 1230 1434 1293 1391 C 1355 1347 1401 1292 1430 1225 C 1458 1158 1473 1078 1473 985 C 1473 939 1470 891 1464 841 C 1458 790 1449 736 1436 678 C 1415 581 1390 497 1361 426 C 1332 354 1299 293 1261 243 C 1223 193 1180 152 1134 120 C 1087 88 1036 64 981 46 C 925 28 865 16 801 10 C 737 3 668 0 596 0 L 10 0 L 158 694 L -12 694 L 25 866 Z M 600 190 C 692 190 772 197 840 211 C 908 225 968 252 1018 290 C 1068 328 1110 381 1144 448 C 1178 515 1206 601 1229 707 C 1239 753 1247 796 1253 838 C 1259 880 1262 919 1262 956 C 1262 1018 1252 1072 1232 1118 C 1212 1164 1180 1202 1136 1232 C 1091 1262 1032 1284 960 1299 C 887 1313 798 1321 692 1321 L 502 1321 L 403 866 L 729 866 L 692 694 L 365 694 L 256 190 L 600 190 Z" unicode="" />
<glyph horiz-adv-x="1303" d="M 819 1436 L 1098 1436 L 1133 1589 L 1333 1589 L 1300 1436 L 1481 1436 L 1444 1260 L 1262 1260 L 995 8 L 840 -6 L 854 102 C 832 79 808 60 782 45 C 755 29 725 17 692 8 C 659 -1 623 -8 583 -12 C 543 -16 499 -18 451 -18 C 371 -18 303 -7 249 12 C 195 32 151 61 118 97 C 85 133 62 177 48 227 C 34 277 27 331 27 391 C 27 428 29 467 34 507 C 39 547 47 589 57 631 C 75 715 98 790 125 856 C 152 922 187 978 229 1024 C 271 1070 323 1105 383 1129 C 443 1153 515 1165 600 1165 C 662 1165 717 1161 764 1155 C 810 1148 850 1138 883 1125 C 915 1111 941 1095 961 1075 C 981 1055 996 1033 1006 1008 L 1061 1260 L 786 1260 L 819 1436 Z M 518 162 C 572 162 620 167 662 178 C 704 189 740 209 772 237 C 804 265 831 303 854 351 C 877 399 897 461 913 537 C 928 603 936 664 936 719 C 936 763 930 801 919 833 C 907 865 889 892 864 914 C 839 935 807 951 768 961 C 728 971 681 977 625 977 C 570 977 523 969 483 953 C 443 937 408 914 380 883 C 351 851 327 812 308 766 C 288 719 272 664 258 602 C 250 569 245 537 241 507 C 237 477 236 448 236 420 C 236 381 240 346 250 314 C 259 282 274 255 296 233 C 318 210 347 192 383 180 C 419 168 464 162 518 162 Z" unicode="" />
<glyph horiz-adv-x="1300" d="" unicode="" />
<glyph horiz-adv-x="1188" d="" unicode="" />
<glyph horiz-adv-x="1300" d="" unicode="" />
<glyph horiz-adv-x="1188" d="" unicode="" />
<glyph horiz-adv-x="1300" d="" unicode="" />
<glyph horiz-adv-x="1188" d="" unicode="" />
<glyph horiz-adv-x="1300" d="M 334 1518 L 1341 1518 L 1300 1319 L 500 1319 L 401 883 L 1182 883 L 1143 686 L 365 686 L 256 190 L 1065 190 L 1026 0 L 854 0 C 819 -19 787 -39 758 -59 C 728 -79 703 -100 682 -122 C 661 -143 645 -165 633 -188 C 621 -210 616 -234 616 -258 C 616 -269 618 -280 622 -290 C 626 -300 634 -308 646 -316 C 657 -323 672 -329 692 -333 C 712 -337 737 -340 768 -340 C 791 -340 817 -337 846 -331 C 875 -325 902 -318 928 -309 L 948 -414 C 919 -429 885 -441 846 -450 C 806 -458 768 -463 731 -463 C 677 -463 632 -458 598 -450 C 564 -442 537 -431 517 -417 C 497 -403 484 -386 476 -367 C 468 -348 465 -328 465 -307 C 465 -266 472 -229 488 -197 C 504 -165 524 -136 548 -111 C 572 -86 599 -64 628 -46 C 657 -28 685 -12 711 0 L 10 0 L 334 1518 Z" unicode="" />
<glyph horiz-adv-x="1188" d="M 502 -23 C 410 -23 333 -12 273 10 C 212 32 163 62 127 100 C 90 138 64 182 49 233 C 34 284 27 339 27 397 C 27 435 29 473 34 512 C 38 550 45 589 53 627 C 69 711 93 786 124 853 C 154 919 193 976 241 1022 C 289 1068 346 1103 413 1128 C 479 1152 557 1165 647 1165 C 733 1165 805 1156 861 1138 C 917 1120 961 1095 994 1065 C 1026 1034 1049 998 1062 957 C 1074 916 1081 873 1081 827 C 1081 803 1079 777 1077 750 C 1075 722 1072 694 1068 666 C 1064 637 1059 608 1053 579 C 1047 549 1042 521 1036 494 L 221 494 C 219 480 218 467 218 454 C 217 440 217 428 217 416 C 217 378 222 343 232 311 C 242 279 258 251 282 228 C 306 204 337 186 377 173 C 416 160 465 154 524 154 C 662 154 777 182 868 240 L 950 88 C 881 43 809 14 735 0 C 701 -19 669 -39 640 -59 C 611 -79 586 -100 566 -122 C 545 -143 529 -165 517 -188 C 505 -210 500 -234 500 -258 C 500 -269 502 -280 506 -290 C 510 -300 518 -308 529 -316 C 540 -323 555 -329 575 -333 C 595 -337 620 -340 651 -340 C 674 -340 700 -337 729 -331 C 758 -325 785 -318 811 -309 L 831 -414 C 802 -429 768 -441 729 -450 C 689 -458 651 -463 614 -463 C 560 -463 515 -458 481 -450 C 447 -442 420 -431 400 -417 C 380 -403 367 -386 359 -367 C 351 -348 348 -328 348 -307 C 348 -271 354 -239 366 -210 C 378 -181 393 -155 413 -131 C 433 -107 455 -86 479 -68 C 503 -50 528 -34 553 -20 C 545 -21 536 -22 527 -22 C 518 -22 510 -23 502 -23 Z M 627 985 C 575 985 529 977 489 963 C 449 949 415 928 385 901 C 355 874 330 841 310 802 C 289 763 272 719 258 670 L 877 670 C 882 693 886 714 889 734 C 891 753 893 774 893 797 C 893 824 889 849 881 872 C 873 895 860 915 840 932 C 820 948 792 961 758 971 C 724 980 680 985 627 985 Z" unicode="" />
<glyph horiz-adv-x="1300" d="M 492 1939 L 678 1939 L 852 1733 L 1112 1939 L 1309 1939 L 938 1604 L 721 1604 L 492 1939 Z M 334 1518 L 1341 1518 L 1300 1319 L 500 1319 L 401 883 L 1182 883 L 1143 686 L 365 686 L 256 190 L 1065 190 L 1026 0 L 10 0 L 334 1518 Z" unicode="" />
<glyph horiz-adv-x="1188" d="M 365 1591 L 551 1591 L 725 1384 L 985 1591 L 1182 1591 L 811 1255 L 594 1255 L 365 1591 Z M 502 -23 C 410 -23 333 -12 273 10 C 212 32 163 62 127 100 C 90 138 64 182 49 233 C 34 284 27 339 27 397 C 27 435 29 473 34 512 C 38 550 45 589 53 627 C 69 711 93 786 124 853 C 154 919 193 976 241 1022 C 289 1068 346 1103 413 1128 C 479 1152 557 1165 647 1165 C 733 1165 805 1156 861 1138 C 917 1120 961 1095 994 1065 C 1026 1034 1049 998 1062 957 C 1074 916 1081 873 1081 827 C 1081 803 1079 777 1077 750 C 1075 722 1072 694 1068 666 C 1064 637 1059 608 1053 579 C 1047 549 1042 521 1036 494 L 221 494 C 219 480 218 467 218 454 C 217 440 217 428 217 416 C 217 378 222 343 232 311 C 242 279 258 251 282 228 C 306 204 337 186 377 173 C 416 160 465 154 524 154 C 662 154 777 182 868 240 L 950 88 C 882 44 812 14 738 0 C 664 -15 586 -23 502 -23 Z M 627 985 C 575 985 529 977 489 963 C 449 949 415 928 385 901 C 355 874 330 841 310 802 C 289 763 272 719 258 670 L 877 670 C 882 693 886 714 889 734 C 891 753 893 774 893 797 C 893 824 889 849 881 872 C 873 895 860 915 840 932 C 820 948 792 961 758 971 C 724 980 680 985 627 985 Z" unicode="" />
<glyph horiz-adv-x="1573" d="" unicode="" />
<glyph horiz-adv-x="1221" d="" unicode="" />
<glyph horiz-adv-x="1573" d="M 737 -23 C 620 -23 519 -9 434 17 C 349 44 279 83 224 134 C 168 184 127 246 101 319 C 74 392 61 475 61 567 C 61 615 63 661 67 704 C 71 747 78 790 88 834 C 114 960 152 1068 202 1158 C 252 1248 312 1321 382 1378 C 452 1434 531 1476 619 1502 C 707 1528 802 1542 905 1542 C 988 1542 1062 1535 1127 1521 C 1191 1507 1248 1490 1296 1468 C 1344 1446 1385 1422 1418 1396 C 1451 1369 1478 1343 1499 1317 L 1323 1174 C 1307 1192 1289 1210 1267 1230 C 1245 1250 1217 1268 1184 1285 C 1150 1301 1110 1315 1063 1326 C 1015 1337 959 1343 893 1343 C 817 1343 746 1332 682 1312 C 617 1291 559 1259 508 1216 C 456 1172 412 1117 376 1049 C 339 981 311 899 291 805 C 283 771 278 735 275 699 C 271 663 270 628 270 594 C 270 526 279 465 298 411 C 316 357 345 312 384 275 C 423 238 473 210 534 191 C 594 171 666 162 750 162 C 834 162 903 170 959 187 C 1015 204 1061 231 1097 268 C 1133 304 1161 351 1183 409 C 1205 467 1224 536 1241 618 L 1247 657 L 791 657 L 829 846 L 1497 846 L 1456 639 C 1439 556 1420 482 1400 417 C 1380 352 1356 295 1329 246 C 1302 197 1271 156 1235 122 C 1199 88 1158 60 1110 38 C 1062 16 1008 1 947 -8 C 885 -18 815 -23 737 -23 Z M 989 1587 C 915 1587 855 1596 809 1614 C 763 1632 728 1657 703 1689 C 678 1720 661 1756 653 1798 C 645 1840 641 1884 641 1931 L 797 1952 C 797 1921 799 1893 803 1869 C 807 1844 817 1823 831 1806 C 845 1789 865 1776 891 1767 C 917 1757 951 1753 995 1753 C 1037 1753 1073 1757 1103 1767 C 1133 1776 1158 1789 1179 1806 C 1200 1823 1218 1844 1232 1869 C 1246 1893 1260 1921 1272 1952 L 1417 1923 C 1401 1876 1382 1832 1359 1792 C 1335 1751 1307 1715 1273 1685 C 1239 1655 1198 1631 1152 1613 C 1105 1595 1051 1587 989 1587 Z" unicode="" />
<glyph horiz-adv-x="1221" d="M 571 416 C 473 416 392 426 330 446 C 309 424 299 396 299 360 C 299 348 300 338 303 329 C 305 320 311 312 320 306 C 328 300 341 295 357 292 C 373 288 394 287 420 287 C 520 285 607 280 681 272 C 754 264 815 249 863 228 C 911 207 946 179 969 143 C 992 107 1004 62 1004 8 C 1004 -67 991 -129 965 -178 C 939 -226 900 -265 849 -293 C 798 -321 735 -340 660 -351 C 585 -362 499 -367 401 -367 C 309 -367 230 -361 163 -351 C 95 -340 40 -323 -4 -301 C -48 -278 -80 -249 -102 -214 C -124 -178 -135 -136 -135 -86 C -135 -39 -127 1 -113 37 C -98 72 -77 102 -51 128 C -24 153 7 173 44 189 C 80 204 120 215 164 223 C 147 238 135 257 129 280 C 122 303 119 326 119 350 C 119 384 126 414 140 442 C 154 470 172 495 195 518 C 165 544 144 575 132 611 C 119 646 113 685 113 729 C 113 805 123 870 144 925 C 165 980 196 1025 238 1061 C 280 1097 332 1123 395 1140 C 457 1156 530 1165 614 1165 C 633 1165 654 1164 676 1163 C 698 1162 719 1161 741 1159 L 1184 1225 L 1155 1051 L 973 1051 C 1001 1025 1023 992 1039 954 C 1055 916 1063 873 1063 825 C 1063 685 1021 581 938 515 C 855 449 733 416 571 416 Z M 430 -209 C 492 -209 545 -207 591 -202 C 637 -196 675 -186 705 -172 C 735 -158 758 -138 773 -113 C 787 -87 795 -55 795 -16 C 795 12 786 36 770 54 C 754 72 729 87 695 97 C 661 107 617 113 565 117 C 513 121 451 123 379 123 C 317 123 267 118 228 110 C 189 102 158 90 136 74 C 114 58 98 38 90 16 C 82 -5 78 -31 78 -59 C 78 -83 84 -104 98 -123 C 112 -141 133 -157 162 -170 C 190 -182 227 -192 271 -199 C 315 -205 368 -209 430 -209 Z M 573 582 C 669 582 741 601 790 640 C 839 678 864 739 864 823 C 864 849 859 873 850 893 C 840 913 825 930 804 944 C 783 957 756 967 723 974 C 690 981 650 985 602 985 C 506 985 434 965 385 927 C 335 888 311 825 311 737 C 311 712 315 690 323 671 C 331 652 346 636 366 623 C 386 609 412 599 446 592 C 480 585 522 582 573 582 Z M 741 1237 C 667 1237 607 1246 561 1264 C 515 1282 480 1307 455 1339 C 430 1370 413 1406 405 1448 C 397 1490 393 1534 393 1581 L 549 1602 C 549 1571 551 1543 555 1519 C 559 1494 569 1473 583 1456 C 597 1439 617 1426 643 1417 C 669 1407 704 1403 748 1403 C 790 1403 826 1407 856 1417 C 886 1426 911 1439 932 1456 C 953 1473 971 1494 985 1519 C 999 1543 1012 1571 1024 1602 L 1169 1573 C 1153 1526 1134 1482 1111 1441 C 1087 1400 1059 1364 1025 1334 C 991 1304 950 1280 904 1263 C 857 1245 803 1237 741 1237 Z" unicode="" />
<glyph horiz-adv-x="1573" d="" unicode="" />
<glyph horiz-adv-x="1221" d="" unicode="" />
<glyph horiz-adv-x="1573" d="" unicode="" />
<glyph horiz-adv-x="1221" d="" unicode="" />
<glyph horiz-adv-x="1579" d="" unicode="" />
<glyph horiz-adv-x="1253" d="" unicode="" />
<glyph horiz-adv-x="1579" d="" unicode="" />
<glyph horiz-adv-x="1253" d="" unicode="" />
<glyph horiz-adv-x="582" d="" unicode="" />
<glyph horiz-adv-x="516" d="" unicode="" />
<glyph horiz-adv-x="582" d="" unicode="" />
<glyph horiz-adv-x="516" d="" unicode="" />
<glyph horiz-adv-x="582" d="" unicode="" />
<glyph horiz-adv-x="516" d="" unicode="" />
<glyph horiz-adv-x="582" d="" unicode="" />
<glyph horiz-adv-x="516" d="" unicode="" />
<glyph horiz-adv-x="582" d="M 350 1518 L 559 1518 L 236 0 L 27 0 L 350 1518 Z M 420 1845 L 621 1845 L 571 1606 L 369 1606 L 420 1845 Z" unicode="" />
<glyph horiz-adv-x="516" d="M 240 1139 L 438 1139 L 197 0 L -2 0 L 240 1139 Z" unicode="" />
<glyph horiz-adv-x="1389" d="" unicode="" />
<glyph horiz-adv-x="1034" d="" unicode="" />
<glyph horiz-adv-x="807" d="" unicode="" />
<glyph horiz-adv-x="516" d="" unicode="" />
<glyph horiz-adv-x="1432" d="" unicode="" />
<glyph horiz-adv-x="1102" d="" unicode="" />
<glyph horiz-adv-x="1102" d="" unicode="" />
<glyph horiz-adv-x="1178" d="M 737 1942 L 987 1942 L 555 1606 L 362 1606 L 737 1942 Z M 334 1518 L 541 1518 L 256 190 L 1008 190 L 969 0 L 10 0 L 334 1518 Z" unicode="" />
<glyph horiz-adv-x="625" d="M 735 1999 L 985 1999 L 553 1663 L 360 1663 L 735 1999 Z M 266 -2 C 213 -2 171 4 139 17 C 107 30 84 50 70 77 C 55 104 48 138 48 179 C 48 220 54 269 66 326 L 336 1589 L 535 1589 L 264 317 C 258 290 254 268 253 250 C 251 232 254 217 260 206 C 266 195 277 187 293 183 C 309 178 330 176 358 176 L 403 176 L 369 2 C 359 0 345 0 326 -1 C 306 -1 286 -2 266 -2 Z" unicode="" />
<glyph horiz-adv-x="1178" d="" unicode="" />
<glyph horiz-adv-x="625" d="" unicode="" />
<glyph horiz-adv-x="1178" d="M 664 1204 C 690 1216 711 1228 729 1238 C 746 1248 760 1259 771 1270 C 782 1281 791 1293 797 1306 C 803 1319 809 1335 813 1354 L 713 1354 L 762 1589 L 975 1589 L 940 1415 C 930 1371 920 1335 909 1305 C 898 1275 884 1248 866 1226 C 848 1203 825 1183 798 1165 C 770 1147 736 1128 696 1110 L 664 1204 Z M 334 1518 L 541 1518 L 256 190 L 1008 190 L 969 0 L 10 0 L 334 1518 Z" unicode="" />
<glyph horiz-adv-x="752" d="M 614 1204 C 640 1216 661 1228 678 1238 C 695 1248 709 1259 720 1270 C 731 1281 740 1293 746 1306 C 752 1319 758 1335 762 1354 L 662 1354 L 711 1589 L 924 1589 L 889 1415 C 879 1371 869 1335 858 1305 C 847 1275 833 1248 815 1226 C 797 1203 774 1183 747 1165 C 719 1147 685 1128 645 1110 L 614 1204 Z M 266 -2 C 213 -2 171 4 139 17 C 107 30 84 50 70 77 C 55 104 48 138 48 179 C 48 220 54 269 66 326 L 336 1589 L 535 1589 L 264 317 C 258 290 254 268 253 250 C 251 232 254 217 260 206 C 266 195 277 187 293 183 C 309 178 330 176 358 176 L 403 176 L 369 2 C 359 0 345 0 326 -1 C 306 -1 286 -2 266 -2 Z" unicode="" />
<glyph horiz-adv-x="1288" d="" unicode="" />
<glyph horiz-adv-x="1067" d="" unicode="" />
<glyph horiz-adv-x="1194" d="M 6 776 L 195 870 L 334 1518 L 541 1518 L 426 985 L 795 1169 L 756 987 L 387 803 L 256 190 L 1022 190 L 985 0 L 10 0 L 156 688 L -31 594 L 6 776 Z" unicode="" />
<glyph horiz-adv-x="752" d="M 84 932 L 305 1047 L 422 1589 L 623 1589 L 530 1161 L 774 1288 L 737 1114 L 494 989 L 348 311 C 342 283 339 261 338 243 C 337 225 340 210 346 199 C 352 187 363 179 379 175 C 395 170 416 168 444 168 L 492 168 L 455 2 C 445 0 431 0 411 -1 C 391 -1 371 -2 352 -2 C 300 -2 258 4 226 17 C 194 30 170 50 155 76 C 140 102 133 136 133 176 C 133 216 140 264 152 319 L 268 874 L 47 760 L 84 932 Z" unicode="" />
<glyph horiz-adv-x="1577" d="M 1163 1939 L 1413 1939 L 981 1604 L 788 1604 L 1163 1939 Z M 334 1518 L 559 1518 L 1118 348 L 1372 1518 L 1569 1518 L 1245 0 L 1057 0 L 469 1217 L 207 0 L 10 0 L 334 1518 Z" unicode="" />
<glyph horiz-adv-x="1253" d="M 928 1591 L 1178 1591 L 745 1255 L 553 1255 L 928 1591 Z M 180 1128 L 340 1139 L 330 1044 C 346 1060 366 1075 388 1090 C 410 1104 435 1117 465 1128 C 494 1139 527 1148 565 1155 C 603 1161 646 1165 694 1165 C 764 1165 823 1159 871 1147 C 919 1135 957 1118 987 1096 C 1016 1074 1037 1047 1050 1016 C 1063 985 1071 951 1073 913 C 1075 875 1073 835 1067 792 C 1061 748 1053 703 1044 657 L 903 0 L 705 0 L 840 635 C 846 665 852 694 857 722 C 862 750 865 777 865 802 C 865 827 861 850 854 870 C 846 890 833 908 815 923 C 796 937 771 949 739 957 C 707 965 667 969 618 969 C 560 969 512 960 473 944 C 434 927 402 904 376 875 C 350 846 330 812 315 774 C 300 735 288 693 279 649 L 141 0 L -59 0 L 180 1128 Z" unicode="" />
<glyph horiz-adv-x="1577" d="" unicode="" />
<glyph horiz-adv-x="1253" d="" unicode="" />
<glyph horiz-adv-x="1577" d="M 627 1939 L 813 1939 L 987 1733 L 1247 1939 L 1444 1939 L 1073 1604 L 856 1604 L 627 1939 Z M 334 1518 L 559 1518 L 1118 348 L 1372 1518 L 1569 1518 L 1245 0 L 1057 0 L 469 1217 L 207 0 L 10 0 L 334 1518 Z" unicode="" />
<glyph horiz-adv-x="1253" d="M 391 1591 L 578 1591 L 752 1384 L 1012 1591 L 1208 1591 L 838 1255 L 621 1255 L 391 1591 Z M 225 1128 L 385 1139 L 375 1044 C 391 1060 411 1075 433 1090 C 455 1104 480 1117 510 1128 C 539 1139 572 1148 610 1155 C 648 1161 691 1165 739 1165 C 809 1165 868 1159 916 1147 C 964 1135 1002 1118 1032 1096 C 1061 1074 1082 1047 1095 1016 C 1108 985 1116 951 1119 913 C 1121 875 1119 835 1113 792 C 1107 748 1099 703 1090 657 L 948 0 L 750 0 L 885 635 C 891 665 897 694 902 722 C 907 750 910 777 910 802 C 910 827 906 850 899 870 C 891 890 878 908 860 923 C 842 937 817 949 785 957 C 753 965 712 969 664 969 C 606 969 558 960 519 944 C 480 927 448 904 422 875 C 396 846 375 812 360 774 C 345 735 333 693 324 649 L 186 0 L -14 0 L 225 1128 Z" unicode="" />
<glyph horiz-adv-x="1706" d="" unicode="" />
<glyph horiz-adv-x="1577" d="" unicode="" />
<glyph horiz-adv-x="1253" d="" unicode="" />
<glyph horiz-adv-x="1688" d="" unicode="" />
<glyph horiz-adv-x="1268" d="" unicode="" />
<glyph horiz-adv-x="1688" d="" unicode="" />
<glyph horiz-adv-x="1268" d="" unicode="" />
<glyph horiz-adv-x="1688" d="M 905 1939 L 1141 1939 L 752 1604 L 575 1604 L 905 1939 Z M 1395 1939 L 1628 1939 L 1239 1604 L 1065 1604 L 1395 1939 Z M 764 -25 C 650 -25 549 -11 462 15 C 375 41 302 81 243 133 C 183 185 138 249 108 325 C 78 401 63 489 63 588 C 61 627 63 667 68 709 C 73 750 80 794 90 840 C 109 931 134 1012 166 1082 C 197 1152 233 1214 274 1266 C 315 1318 360 1361 410 1397 C 459 1432 511 1460 567 1482 C 623 1503 681 1518 741 1528 C 801 1537 863 1542 926 1542 C 1039 1542 1139 1528 1227 1502 C 1314 1475 1387 1436 1446 1384 C 1505 1332 1550 1269 1580 1194 C 1610 1118 1626 1032 1626 934 C 1626 894 1623 853 1619 812 C 1615 770 1607 728 1597 684 C 1577 592 1551 510 1520 440 C 1489 369 1453 307 1412 255 C 1371 203 1326 159 1277 123 C 1228 87 1176 58 1121 36 C 1066 14 1008 0 948 -10 C 888 -20 826 -25 764 -25 Z M 766 168 C 846 168 920 178 988 198 C 1055 218 1115 250 1168 293 C 1220 336 1265 391 1302 459 C 1339 526 1368 607 1389 702 C 1397 737 1403 772 1407 806 C 1411 840 1413 873 1413 905 C 1413 971 1403 1032 1384 1086 C 1365 1140 1335 1186 1295 1224 C 1254 1262 1202 1291 1140 1312 C 1077 1332 1002 1343 915 1343 C 834 1343 760 1332 693 1312 C 625 1291 566 1259 514 1216 C 462 1172 417 1117 381 1050 C 344 983 316 903 297 811 C 289 775 283 741 279 707 C 275 673 274 639 274 606 C 274 540 283 480 302 426 C 321 372 351 326 391 288 C 431 250 482 220 544 199 C 606 178 680 168 766 168 Z" unicode="" />
<glyph horiz-adv-x="1268" d="M 621 1591 L 856 1591 L 467 1255 L 291 1255 L 621 1591 Z M 1110 1591 L 1343 1591 L 954 1255 L 780 1255 L 1110 1591 Z M 526 -23 C 437 -23 361 -12 299 8 C 236 28 185 58 145 96 C 105 134 76 181 58 235 C 40 289 31 349 31 416 C 31 448 32 482 36 517 C 40 552 45 589 53 627 C 73 724 102 807 138 875 C 174 943 217 998 267 1041 C 317 1084 375 1115 441 1135 C 507 1155 580 1165 662 1165 C 750 1165 826 1154 890 1134 C 953 1114 1005 1085 1045 1047 C 1085 1009 1114 963 1133 909 C 1151 855 1161 795 1161 729 C 1161 696 1158 662 1154 626 C 1150 590 1144 554 1137 516 C 1116 418 1088 335 1052 267 C 1016 199 973 143 923 100 C 872 57 813 26 747 6 C 681 -13 607 -23 526 -23 Z M 537 158 C 593 158 642 165 686 180 C 729 194 767 217 799 248 C 831 279 859 318 881 366 C 903 413 922 469 936 535 C 942 563 946 592 949 620 C 952 648 954 675 954 700 C 954 741 948 779 937 813 C 926 847 909 876 885 900 C 861 924 829 942 791 955 C 753 968 706 975 651 975 C 594 975 544 967 500 952 C 456 937 419 914 387 883 C 355 851 328 812 306 764 C 284 716 266 659 252 594 C 246 565 241 537 238 509 C 234 481 233 454 233 426 C 233 384 238 347 249 314 C 260 281 278 253 302 230 C 326 207 357 189 396 177 C 434 164 481 158 537 158 Z" unicode="" />
<glyph horiz-adv-x="2529" d="M 764 -25 C 650 -25 549 -11 462 15 C 375 41 302 81 243 133 C 183 185 138 249 108 325 C 78 401 63 489 63 588 C 61 627 63 667 68 709 C 73 750 80 794 90 840 C 109 931 134 1012 166 1082 C 197 1152 233 1214 274 1266 C 315 1318 360 1361 410 1397 C 460 1432 512 1460 568 1482 C 623 1503 681 1518 741 1528 C 801 1537 863 1542 926 1542 C 1081 1542 1209 1517 1309 1467 C 1409 1417 1484 1344 1532 1249 L 1589 1518 L 2566 1518 L 2523 1319 L 1735 1319 L 1640 879 L 2408 879 L 2370 688 L 1599 688 L 1491 190 L 2290 190 L 2251 0 L 1266 0 L 1307 193 C 1235 115 1155 60 1066 26 C 976 -8 876 -25 764 -25 Z M 766 168 C 846 168 920 178 988 198 C 1055 218 1115 250 1168 293 C 1220 336 1265 391 1302 459 C 1339 526 1368 607 1389 702 C 1397 737 1403 772 1407 806 C 1411 840 1413 873 1413 905 C 1413 971 1403 1032 1384 1086 C 1365 1140 1335 1186 1295 1224 C 1254 1262 1202 1291 1140 1312 C 1077 1332 1002 1343 915 1343 C 834 1343 760 1332 693 1312 C 625 1291 566 1259 514 1216 C 462 1172 417 1117 381 1050 C 344 983 316 903 297 811 C 289 775 283 741 279 707 C 275 673 274 639 274 606 C 274 540 283 480 302 426 C 321 372 351 326 391 288 C 431 250 482 220 544 199 C 606 178 680 168 766 168 Z" unicode="" />
<glyph horiz-adv-x="2083" d="M 1399 -23 C 1337 -23 1284 -18 1238 -8 C 1192 1 1153 14 1119 32 C 1085 50 1058 71 1036 96 C 1014 121 996 149 983 180 C 931 108 868 56 793 24 C 717 -7 628 -23 524 -23 C 436 -23 360 -12 298 8 C 235 28 184 58 144 96 C 104 134 75 181 57 235 C 38 289 29 349 29 416 C 29 448 31 482 35 517 C 39 552 45 589 53 627 C 73 724 102 807 138 875 C 174 943 217 998 267 1041 C 317 1084 375 1115 441 1135 C 507 1155 580 1165 662 1165 C 721 1165 774 1160 821 1151 C 867 1141 908 1128 944 1110 C 980 1092 1010 1070 1035 1044 C 1060 1018 1080 988 1096 956 C 1142 1022 1201 1074 1273 1110 C 1345 1146 1435 1165 1544 1165 C 1630 1165 1701 1156 1757 1138 C 1813 1120 1857 1096 1889 1066 C 1921 1035 1944 999 1957 958 C 1969 917 1976 873 1976 827 C 1976 803 1974 777 1972 750 C 1970 722 1967 694 1963 666 C 1959 637 1954 608 1949 579 C 1944 549 1939 521 1933 494 L 1118 494 C 1116 480 1115 467 1115 454 C 1114 440 1114 428 1114 416 C 1114 378 1119 343 1129 311 C 1139 279 1155 251 1179 228 C 1202 204 1233 186 1273 173 C 1312 160 1361 154 1419 154 C 1559 154 1674 182 1765 240 L 1845 88 C 1811 66 1776 47 1742 33 C 1707 19 1671 7 1634 0 C 1597 -8 1559 -14 1520 -18 C 1481 -21 1441 -23 1399 -23 Z M 535 158 C 591 158 640 165 684 180 C 728 194 766 217 798 248 C 830 279 858 318 880 366 C 902 413 920 469 934 535 C 941 563 946 592 949 620 C 952 648 954 675 954 700 C 954 741 948 779 937 813 C 926 847 909 876 885 900 C 861 924 829 942 791 955 C 753 968 706 975 651 975 C 594 975 544 967 500 952 C 456 937 419 914 387 883 C 355 851 328 812 306 764 C 284 716 266 659 252 594 C 238 536 231 480 231 426 C 231 384 236 347 247 314 C 258 281 276 253 300 230 C 324 207 356 189 394 177 C 432 164 479 158 535 158 Z M 1524 985 C 1471 985 1425 977 1385 963 C 1345 949 1310 928 1280 901 C 1250 874 1224 841 1204 802 C 1184 762 1167 718 1153 668 L 1774 668 C 1778 691 1781 713 1784 733 C 1786 753 1788 774 1788 797 C 1788 824 1784 849 1776 872 C 1768 895 1755 915 1735 932 C 1715 948 1688 961 1654 971 C 1620 980 1576 985 1524 985 Z" unicode="" />
<glyph horiz-adv-x="1458" d="M 1106 1939 L 1356 1939 L 924 1604 L 731 1604 L 1106 1939 Z M 731 584 L 338 584 L 213 0 L 10 0 L 334 1518 L 872 1518 C 974 1518 1061 1508 1131 1490 C 1201 1471 1258 1445 1302 1413 C 1345 1380 1376 1341 1395 1297 C 1413 1253 1423 1205 1423 1153 C 1423 1071 1413 997 1393 931 C 1373 865 1344 807 1304 759 C 1264 711 1214 672 1154 642 C 1094 612 1023 594 942 588 L 1155 0 L 944 0 L 731 584 Z M 860 774 C 914 774 962 780 1005 793 C 1048 805 1085 825 1115 852 C 1145 879 1168 914 1184 957 C 1200 999 1208 1051 1208 1112 C 1208 1184 1179 1238 1122 1273 C 1065 1307 976 1325 856 1325 L 498 1325 L 377 774 L 860 774 Z" unicode="" />
<glyph horiz-adv-x="721" d="M 682 1591 L 932 1591 L 500 1255 L 307 1255 L 682 1591 Z M 227 1128 L 387 1139 L 371 1016 C 403 1058 450 1091 513 1116 C 575 1140 656 1153 756 1153 L 715 956 C 649 956 593 947 548 931 C 502 915 464 892 434 862 C 403 832 379 797 361 755 C 343 713 328 666 317 614 L 186 0 L -10 0 L 227 1128 Z" unicode="" />
<glyph horiz-adv-x="1458" d="" unicode="" />
<glyph horiz-adv-x="721" d="" unicode="" />
<glyph horiz-adv-x="1458" d="M 569 1939 L 756 1939 L 930 1733 L 1190 1939 L 1386 1939 L 1016 1604 L 799 1604 L 569 1939 Z M 731 584 L 338 584 L 213 0 L 10 0 L 334 1518 L 872 1518 C 974 1518 1061 1508 1131 1490 C 1201 1471 1258 1445 1302 1413 C 1345 1380 1376 1341 1395 1297 C 1413 1253 1423 1205 1423 1153 C 1423 1071 1413 997 1393 931 C 1373 865 1344 807 1304 759 C 1264 711 1214 672 1154 642 C 1094 612 1023 594 942 588 L 1155 0 L 944 0 L 731 584 Z M 860 774 C 914 774 962 780 1005 793 C 1048 805 1085 825 1115 852 C 1145 879 1168 914 1184 957 C 1200 999 1208 1051 1208 1112 C 1208 1184 1179 1238 1122 1273 C 1065 1307 976 1325 856 1325 L 498 1325 L 377 774 L 860 774 Z" unicode="" />
<glyph horiz-adv-x="702" d="M 123 1591 L 309 1591 L 483 1384 L 743 1591 L 940 1591 L 569 1255 L 352 1255 L 123 1591 Z M 227 1128 L 387 1139 L 371 1016 C 403 1058 450 1091 513 1116 C 575 1140 656 1153 756 1153 L 715 956 C 649 956 593 947 548 931 C 502 915 464 892 434 862 C 403 832 379 797 361 755 C 343 713 328 666 317 614 L 186 0 L -10 0 L 227 1128 Z" unicode="" />
<glyph horiz-adv-x="1419" d="M 1085 1939 L 1335 1939 L 903 1604 L 711 1604 L 1085 1939 Z M 631 -20 C 551 -20 479 -15 413 -5 C 347 5 287 19 231 37 C 175 55 123 76 76 102 C 28 127 -15 155 -57 186 L 74 340 C 149 282 232 238 324 208 C 415 177 521 162 641 162 C 693 162 742 165 790 173 C 837 181 879 194 915 214 C 951 234 979 260 1000 294 C 1021 327 1032 370 1032 422 C 1032 464 1023 498 1007 524 C 990 550 966 573 935 591 C 903 609 865 625 819 639 C 773 653 720 670 662 688 C 598 706 539 725 484 745 C 428 765 380 789 340 818 C 299 847 267 883 244 926 C 220 969 209 1024 209 1090 C 209 1148 216 1199 230 1244 C 244 1289 263 1328 289 1362 C 314 1395 344 1423 379 1446 C 413 1469 451 1488 493 1502 C 534 1516 578 1526 624 1532 C 670 1538 718 1542 766 1542 C 845 1542 915 1537 977 1527 C 1038 1517 1092 1504 1140 1488 C 1188 1472 1229 1454 1264 1434 C 1299 1414 1330 1394 1356 1374 L 1221 1214 C 1198 1231 1172 1248 1142 1265 C 1112 1281 1079 1296 1041 1309 C 1003 1322 960 1332 914 1340 C 867 1348 815 1352 758 1352 C 711 1352 667 1348 626 1340 C 585 1332 549 1318 519 1299 C 489 1280 465 1255 448 1223 C 430 1191 422 1152 422 1106 C 422 1070 430 1040 446 1016 C 462 992 484 971 513 953 C 542 935 577 920 617 907 C 657 894 702 881 752 868 C 824 848 891 827 951 807 C 1011 787 1062 762 1106 733 C 1149 703 1183 667 1207 624 C 1231 581 1243 527 1243 463 C 1243 372 1227 296 1195 234 C 1163 172 1119 123 1064 85 C 1009 47 944 20 870 4 C 795 -11 715 -20 631 -20 Z" unicode="" />
<glyph horiz-adv-x="1057" d="M 834 1591 L 1083 1591 L 651 1255 L 459 1255 L 834 1591 Z M 442 -20 C 336 -20 240 -4 152 25 C 64 55 -10 97 -72 150 L 57 291 C 111 249 173 215 243 191 C 313 166 385 154 461 154 C 494 154 525 156 554 161 C 583 165 608 174 630 187 C 652 200 669 218 681 242 C 693 266 700 296 700 334 C 700 358 693 379 679 397 C 665 414 647 429 625 442 C 602 454 576 465 547 475 C 517 484 487 493 455 502 C 415 513 375 525 335 539 C 295 553 258 571 226 593 C 194 615 167 642 147 676 C 127 709 117 751 117 801 C 117 865 128 921 150 967 C 172 1013 202 1051 241 1080 C 280 1109 327 1130 381 1144 C 435 1158 495 1165 561 1165 C 615 1165 664 1161 709 1154 C 754 1147 795 1138 832 1126 C 869 1114 902 1101 932 1086 C 961 1070 987 1054 1010 1038 L 883 883 C 865 894 846 905 824 917 C 802 929 778 939 751 949 C 723 958 693 966 659 972 C 625 978 588 981 547 981 C 475 981 419 968 380 944 C 341 920 322 880 322 825 C 322 801 328 781 341 765 C 353 749 371 734 393 722 C 415 710 440 699 469 689 C 498 679 529 670 561 662 C 603 649 644 635 685 621 C 725 606 762 587 794 564 C 826 541 851 513 871 479 C 891 445 901 404 901 354 C 901 281 889 221 865 173 C 841 125 809 86 767 58 C 725 29 677 9 621 -2 C 565 -14 506 -20 442 -20 Z" unicode="" />
<glyph horiz-adv-x="1419" d="" unicode="" />
<glyph horiz-adv-x="1057" d="" unicode="" />
<glyph horiz-adv-x="1419" d="M 510 -475 C 474 -475 442 -472 413 -468 C 384 -463 358 -457 334 -449 C 310 -441 289 -433 271 -424 C 252 -414 235 -405 221 -395 L 297 -289 C 321 -306 350 -321 383 -335 C 415 -349 456 -356 506 -356 C 558 -356 596 -346 618 -326 C 640 -306 651 -279 651 -246 C 651 -228 646 -214 636 -204 C 626 -193 614 -185 598 -179 C 582 -173 563 -170 542 -169 C 521 -168 499 -168 477 -170 L 436 -135 L 483 -14 C 424 -9 369 -1 319 11 C 268 23 221 37 177 55 C 133 72 91 92 53 114 C 14 136 -22 160 -57 186 L 74 340 C 149 282 232 238 324 208 C 415 177 521 162 641 162 C 693 162 742 165 790 173 C 837 181 879 194 915 214 C 951 234 979 260 1000 294 C 1021 327 1032 370 1032 422 C 1032 464 1023 498 1007 524 C 990 550 966 573 935 591 C 903 609 865 625 819 639 C 773 653 720 670 662 688 C 598 706 539 725 484 745 C 428 765 380 789 340 818 C 299 847 267 883 244 926 C 220 969 209 1024 209 1090 C 209 1148 216 1199 230 1244 C 244 1289 263 1328 289 1362 C 314 1395 344 1423 379 1446 C 413 1469 451 1488 493 1502 C 534 1516 578 1526 624 1532 C 670 1538 718 1542 766 1542 C 845 1542 915 1537 977 1527 C 1038 1517 1092 1504 1140 1488 C 1188 1472 1229 1454 1264 1434 C 1299 1414 1330 1394 1356 1374 L 1221 1214 C 1198 1231 1172 1248 1142 1265 C 1112 1281 1079 1296 1041 1309 C 1003 1322 960 1332 914 1340 C 867 1348 815 1352 758 1352 C 711 1352 667 1348 626 1340 C 585 1332 549 1318 519 1299 C 489 1280 465 1255 448 1223 C 430 1191 422 1152 422 1106 C 422 1070 430 1040 446 1016 C 462 992 484 971 513 953 C 542 935 577 920 617 907 C 657 894 702 881 752 868 C 824 848 891 827 951 807 C 1011 787 1062 762 1106 733 C 1149 703 1183 667 1207 624 C 1231 581 1243 527 1243 463 C 1243 372 1227 296 1195 234 C 1163 172 1119 123 1064 85 C 1009 47 944 20 870 4 C 795 -11 715 -20 631 -20 L 604 -20 L 575 -90 C 601 -90 626 -92 652 -96 C 678 -100 701 -107 721 -119 C 741 -130 758 -145 771 -165 C 784 -185 791 -210 791 -242 C 791 -284 784 -320 770 -350 C 756 -380 737 -404 713 -422 C 688 -440 658 -454 624 -462 C 589 -470 551 -475 510 -475 Z" unicode="" />
<glyph horiz-adv-x="1057" d="M 332 -475 C 296 -475 264 -472 235 -468 C 205 -463 179 -457 155 -449 C 131 -441 110 -433 92 -424 C 73 -414 57 -405 43 -395 L 119 -289 C 131 -297 144 -306 158 -314 C 172 -322 187 -329 204 -335 C 221 -341 240 -346 260 -350 C 280 -354 303 -356 328 -356 C 380 -356 418 -346 440 -326 C 462 -306 473 -279 473 -246 C 473 -228 468 -214 458 -204 C 448 -193 436 -185 420 -179 C 404 -173 385 -170 364 -169 C 343 -168 321 -168 299 -170 L 258 -135 L 307 -10 C 231 0 160 18 96 46 C 32 74 -24 108 -72 150 L 57 291 C 111 249 173 215 243 191 C 313 166 385 154 461 154 C 494 154 525 156 554 161 C 583 165 608 174 630 187 C 652 200 669 218 681 242 C 693 266 700 296 700 334 C 700 358 693 379 679 397 C 665 414 647 429 625 442 C 602 454 576 465 547 475 C 517 484 487 493 455 502 C 415 513 375 525 335 539 C 295 553 258 571 226 593 C 194 615 167 642 147 676 C 127 709 117 751 117 801 C 117 865 128 921 150 967 C 172 1013 202 1051 241 1080 C 280 1109 327 1130 381 1144 C 435 1158 495 1165 561 1165 C 615 1165 664 1161 709 1154 C 754 1147 795 1138 832 1126 C 869 1114 902 1101 932 1086 C 961 1070 987 1054 1010 1038 L 883 883 C 865 894 846 905 824 917 C 802 929 778 939 751 949 C 723 958 693 966 659 972 C 625 978 588 981 547 981 C 475 981 419 968 380 944 C 341 920 322 880 322 825 C 322 801 328 781 341 765 C 353 749 371 734 393 722 C 415 710 440 699 469 689 C 498 679 529 670 561 662 C 603 649 644 635 685 621 C 725 606 762 587 794 564 C 826 541 851 513 871 479 C 891 445 901 404 901 354 C 901 281 889 221 865 173 C 841 125 809 86 767 58 C 725 29 677 9 621 -2 C 565 -14 506 -20 442 -20 L 426 -20 L 397 -90 C 423 -90 448 -92 474 -96 C 499 -100 522 -107 543 -119 C 563 -130 580 -145 593 -165 C 605 -185 612 -210 612 -242 C 612 -284 605 -320 591 -350 C 577 -380 558 -404 534 -422 C 509 -440 479 -454 445 -462 C 411 -470 373 -475 332 -475 Z" unicode="" />
<glyph horiz-adv-x="1419" d="M 549 1939 L 735 1939 L 909 1733 L 1169 1939 L 1366 1939 L 995 1604 L 778 1604 L 549 1939 Z M 631 -20 C 551 -20 479 -15 413 -5 C 347 5 287 19 231 37 C 175 55 123 76 76 102 C 28 127 -15 155 -57 186 L 74 340 C 149 282 232 238 324 208 C 415 177 521 162 641 162 C 693 162 742 165 790 173 C 837 181 879 194 915 214 C 951 234 979 260 1000 294 C 1021 327 1032 370 1032 422 C 1032 464 1023 498 1007 524 C 990 550 966 573 935 591 C 903 609 865 625 819 639 C 773 653 720 670 662 688 C 598 706 539 725 484 745 C 428 765 380 789 340 818 C 299 847 267 883 244 926 C 220 969 209 1024 209 1090 C 209 1148 216 1199 230 1244 C 244 1289 263 1328 289 1362 C 314 1395 344 1423 379 1446 C 413 1469 451 1488 493 1502 C 534 1516 578 1526 624 1532 C 670 1538 718 1542 766 1542 C 845 1542 915 1537 977 1527 C 1038 1517 1092 1504 1140 1488 C 1188 1472 1229 1454 1264 1434 C 1299 1414 1330 1394 1356 1374 L 1221 1214 C 1198 1231 1172 1248 1142 1265 C 1112 1281 1079 1296 1041 1309 C 1003 1322 960 1332 914 1340 C 867 1348 815 1352 758 1352 C 711 1352 667 1348 626 1340 C 585 1332 549 1318 519 1299 C 489 1280 465 1255 448 1223 C 430 1191 422 1152 422 1106 C 422 1070 430 1040 446 1016 C 462 992 484 971 513 953 C 542 935 577 920 617 907 C 657 894 702 881 752 868 C 824 848 891 827 951 807 C 1011 787 1062 762 1106 733 C 1149 703 1183 667 1207 624 C 1231 581 1243 527 1243 463 C 1243 372 1227 296 1195 234 C 1163 172 1119 123 1064 85 C 1009 47 944 20 870 4 C 795 -11 715 -20 631 -20 Z" unicode="" />
<glyph horiz-adv-x="1057" d="M 297 1591 L 483 1591 L 657 1384 L 918 1591 L 1114 1591 L 743 1255 L 526 1255 L 297 1591 Z M 442 -20 C 336 -20 240 -4 152 25 C 64 55 -10 97 -72 150 L 57 291 C 111 249 173 215 243 191 C 313 166 385 154 461 154 C 494 154 525 156 554 161 C 583 165 608 174 630 187 C 652 200 669 218 681 242 C 693 266 700 296 700 334 C 700 358 693 379 679 397 C 665 414 647 429 625 442 C 602 454 576 465 547 475 C 517 484 487 493 455 502 C 415 513 375 525 335 539 C 295 553 258 571 226 593 C 194 615 167 642 147 676 C 127 709 117 751 117 801 C 117 865 128 921 150 967 C 172 1013 202 1051 241 1080 C 280 1109 327 1130 381 1144 C 435 1158 495 1165 561 1165 C 615 1165 664 1161 709 1154 C 754 1147 795 1138 832 1126 C 869 1114 902 1101 932 1086 C 961 1070 987 1054 1010 1038 L 883 883 C 865 894 846 905 824 917 C 802 929 778 939 751 949 C 723 958 693 966 659 972 C 625 978 588 981 547 981 C 475 981 419 968 380 944 C 341 920 322 880 322 825 C 322 801 328 781 341 765 C 353 749 371 734 393 722 C 415 710 440 699 469 689 C 498 679 529 670 561 662 C 603 649 644 635 685 621 C 725 606 762 587 794 564 C 826 541 851 513 871 479 C 891 445 901 404 901 354 C 901 281 889 221 865 173 C 841 125 809 86 767 58 C 725 29 677 9 621 -2 C 565 -14 506 -20 442 -20 Z" unicode="" />
<glyph horiz-adv-x="1378" d="M 313 -465 C 339 -453 360 -441 378 -431 C 395 -420 409 -409 420 -398 C 431 -386 440 -374 446 -361 C 452 -347 457 -331 461 -313 L 352 -313 L 399 -80 L 623 -80 L 588 -254 C 578 -297 568 -334 558 -365 C 547 -396 533 -423 515 -446 C 497 -469 475 -489 448 -507 C 420 -524 386 -541 344 -557 L 313 -465 Z M 709 1319 L 170 1319 L 211 1518 L 1493 1518 L 1452 1319 L 915 1319 L 633 0 L 426 0 L 709 1319 Z" unicode="" />
<glyph horiz-adv-x="834" d="M 12 -465 C 38 -453 59 -441 77 -431 C 94 -420 108 -409 119 -398 C 130 -386 139 -374 145 -361 C 151 -347 156 -331 160 -313 L 51 -313 L 98 -80 L 322 -80 L 287 -254 C 277 -297 267 -334 257 -365 C 246 -396 232 -423 214 -446 C 196 -469 174 -489 147 -507 C 119 -524 85 -541 43 -557 L 12 -465 Z M 141 1139 L 348 1139 L 455 1462 L 614 1493 L 539 1139 L 815 1139 L 780 958 L 500 958 L 369 338 C 363 312 359 290 357 270 C 355 250 359 233 368 219 C 376 205 391 194 412 187 C 432 179 462 176 500 176 L 610 176 L 575 0 C 569 0 559 -1 547 -1 C 534 -1 521 -2 507 -2 C 493 -2 479 -2 466 -2 C 452 -2 442 -2 434 -2 C 362 -2 306 6 266 22 C 226 38 197 60 179 90 C 161 119 152 155 152 197 C 152 239 158 287 168 340 L 303 958 L 102 958 L 141 1139 Z" unicode="" />
<glyph horiz-adv-x="1378" d="M 528 1939 L 715 1939 L 889 1733 L 1149 1939 L 1346 1939 L 975 1604 L 758 1604 L 528 1939 Z M 709 1319 L 170 1319 L 211 1518 L 1493 1518 L 1452 1319 L 915 1319 L 633 0 L 426 0 L 709 1319 Z" unicode="" />
<glyph horiz-adv-x="834" d="M 752 1415 C 776 1427 797 1437 813 1447 C 829 1457 843 1467 854 1478 C 864 1489 873 1501 879 1515 C 885 1528 890 1544 895 1563 L 799 1563 L 844 1788 L 1051 1788 L 1016 1620 C 1007 1577 997 1541 986 1512 C 975 1482 961 1457 944 1435 C 926 1413 904 1393 878 1376 C 852 1359 819 1342 780 1325 L 752 1415 Z M 141 1139 L 348 1139 L 455 1462 L 614 1493 L 539 1139 L 815 1139 L 780 958 L 500 958 L 369 338 C 363 312 359 290 357 270 C 355 250 359 233 368 219 C 376 205 391 194 412 187 C 432 179 462 176 500 176 L 610 176 L 575 0 C 569 0 559 -1 547 -1 C 534 -1 521 -2 507 -2 C 493 -2 479 -2 466 -2 C 452 -2 442 -2 434 -2 C 362 -2 306 6 266 22 C 226 38 197 60 179 90 C 161 119 152 155 152 197 C 152 239 158 287 168 340 L 303 958 L 102 958 L 141 1139 Z" unicode="" />
<glyph horiz-adv-x="1378" d="" unicode="" />
<glyph horiz-adv-x="842" d="" unicode="" />
<glyph horiz-adv-x="1575" d="" unicode="" />
<glyph horiz-adv-x="1239" d="" unicode="" />
<glyph horiz-adv-x="1575" d="" unicode="" />
<glyph horiz-adv-x="1239" d="" unicode="" />
<glyph horiz-adv-x="1575" d="" unicode="" />
<glyph horiz-adv-x="1239" d="" unicode="" />
<glyph horiz-adv-x="1575" d="M 991 1585 C 947 1585 910 1590 879 1602 C 848 1613 823 1628 804 1648 C 784 1667 770 1689 761 1715 C 752 1741 748 1768 748 1798 C 748 1846 755 1889 769 1929 C 783 1968 802 2002 828 2030 C 854 2058 884 2079 920 2095 C 955 2110 994 2118 1038 2118 C 1080 2118 1116 2111 1146 2099 C 1176 2087 1201 2070 1221 2050 C 1240 2030 1254 2006 1264 1979 C 1273 1952 1278 1924 1278 1894 C 1278 1844 1270 1801 1256 1763 C 1241 1725 1221 1692 1196 1666 C 1170 1639 1140 1619 1105 1605 C 1069 1591 1031 1585 991 1585 Z M 995 1698 C 1045 1698 1086 1714 1118 1746 C 1149 1778 1165 1823 1165 1882 C 1165 1898 1162 1914 1158 1929 C 1153 1943 1145 1956 1135 1968 C 1125 1979 1111 1988 1095 1995 C 1078 2001 1058 2005 1034 2005 C 1008 2005 985 2000 964 1990 C 942 1980 924 1967 909 1950 C 893 1933 881 1913 873 1889 C 864 1865 860 1840 860 1812 C 860 1779 870 1752 892 1730 C 913 1708 947 1698 995 1698 Z M 694 -27 C 576 -27 478 -15 402 8 C 326 32 265 63 221 103 C 177 143 146 189 128 242 C 110 294 102 350 102 408 C 102 440 104 472 109 506 C 113 539 119 572 127 604 L 324 1518 L 530 1518 L 336 610 C 330 580 324 551 320 524 C 315 496 313 470 313 444 C 313 402 319 364 332 330 C 345 296 367 267 398 243 C 429 219 470 200 522 187 C 574 174 638 168 715 168 C 786 168 847 176 898 193 C 949 209 992 234 1028 267 C 1063 299 1092 340 1114 389 C 1136 437 1153 493 1167 557 L 1374 1518 L 1575 1518 L 1358 516 C 1347 466 1334 419 1318 373 C 1302 327 1283 283 1259 243 C 1235 203 1207 166 1174 133 C 1141 99 1102 71 1056 47 C 1010 23 958 5 898 -7 C 838 -20 770 -27 694 -27 Z" unicode="" />
<glyph horiz-adv-x="1239" d="M 750 1237 C 706 1237 668 1242 638 1254 C 607 1265 582 1280 562 1300 C 542 1319 528 1341 519 1367 C 510 1393 506 1420 506 1450 C 506 1498 513 1541 527 1581 C 541 1620 561 1653 587 1681 C 612 1709 642 1730 678 1746 C 714 1761 753 1769 797 1769 C 839 1769 875 1763 905 1751 C 935 1739 959 1722 979 1702 C 999 1681 1013 1657 1022 1631 C 1031 1604 1036 1576 1036 1546 C 1036 1496 1028 1453 1014 1415 C 999 1377 979 1344 954 1318 C 928 1291 898 1271 863 1257 C 828 1243 790 1237 750 1237 Z M 754 1350 C 804 1350 844 1366 876 1398 C 908 1430 924 1475 924 1534 C 924 1550 921 1565 917 1580 C 912 1595 904 1608 894 1620 C 884 1631 870 1640 854 1647 C 837 1653 817 1657 793 1657 C 767 1657 743 1652 722 1642 C 700 1632 682 1619 667 1602 C 651 1585 639 1565 631 1541 C 622 1517 618 1492 618 1464 C 618 1431 628 1404 650 1382 C 672 1360 706 1350 754 1350 Z M 522 -23 C 442 -23 374 -16 318 -4 C 262 7 217 25 181 48 C 145 70 118 98 100 131 C 82 163 70 200 65 242 C 59 283 59 328 65 377 C 70 425 78 477 90 532 L 219 1139 L 420 1139 L 289 514 C 281 480 275 448 270 418 C 264 388 262 359 263 333 C 264 307 269 283 278 262 C 287 241 302 223 323 208 C 344 193 372 182 407 174 C 442 166 486 162 539 162 C 596 162 642 169 677 183 C 711 197 739 217 760 244 C 780 270 796 302 808 340 C 819 377 830 419 840 467 L 983 1139 L 1178 1139 L 1032 455 C 1014 371 994 299 972 239 C 950 179 921 129 884 90 C 847 51 800 22 742 4 C 684 -13 611 -23 522 -23 Z" unicode="" />
<glyph horiz-adv-x="1575" d="M 694 -27 C 576 -27 478 -15 402 8 C 326 32 265 63 221 103 C 177 143 146 189 128 242 C 110 294 102 350 102 408 C 102 440 104 472 109 506 C 113 539 119 572 127 604 L 324 1518 L 530 1518 L 336 610 C 330 580 324 551 320 524 C 315 496 313 470 313 444 C 313 402 319 364 332 330 C 345 296 367 267 398 243 C 429 219 470 200 522 187 C 574 174 638 168 715 168 C 786 168 847 176 898 193 C 949 209 992 234 1028 267 C 1063 299 1092 340 1114 389 C 1136 437 1153 493 1167 557 L 1374 1518 L 1575 1518 L 1358 516 C 1347 466 1334 419 1318 373 C 1302 327 1283 283 1259 243 C 1235 203 1207 166 1174 133 C 1141 99 1102 71 1056 47 C 1010 23 958 5 898 -7 C 838 -20 770 -27 694 -27 Z M 848 1939 L 1083 1939 L 694 1604 L 518 1604 L 848 1939 Z M 1337 1939 L 1571 1939 L 1182 1604 L 1008 1604 L 1337 1939 Z" unicode="" />
<glyph horiz-adv-x="1239" d="M 522 -23 C 442 -23 374 -16 318 -4 C 262 7 217 25 181 48 C 145 70 118 98 100 131 C 82 163 70 200 65 242 C 59 283 59 328 65 377 C 70 425 78 477 90 532 L 219 1139 L 420 1139 L 289 514 C 281 480 275 448 270 418 C 264 388 262 359 263 333 C 264 307 269 283 278 262 C 287 241 302 223 323 208 C 344 193 372 182 407 174 C 442 166 486 162 539 162 C 596 162 642 169 677 183 C 711 197 739 217 760 244 C 780 270 796 302 808 340 C 819 377 830 419 840 467 L 983 1139 L 1178 1139 L 1032 455 C 1014 371 994 299 972 239 C 950 179 921 129 884 90 C 847 51 800 22 742 4 C 684 -13 611 -23 522 -23 Z M 606 1591 L 842 1591 L 453 1255 L 276 1255 L 606 1591 Z M 1096 1591 L 1329 1591 L 940 1255 L 766 1255 L 1096 1591 Z" unicode="" />
<glyph horiz-adv-x="1575" d="" unicode="" />
<glyph horiz-adv-x="1239" d="" unicode="" />
<glyph horiz-adv-x="2177" d="" unicode="" />
<glyph horiz-adv-x="1778" d="" unicode="" />
<glyph horiz-adv-x="1425" d="" unicode="" />
<glyph horiz-adv-x="1073" d="" unicode="" />
<glyph horiz-adv-x="1425" d="M 569 584 L 188 1518 L 403 1518 L 711 782 L 1325 1518 L 1554 1518 L 774 578 L 651 0 L 444 0 L 569 584 Z M 637 1833 L 819 1833 L 772 1604 L 590 1604 L 637 1833 Z M 1053 1833 L 1235 1833 L 1188 1604 L 1006 1604 L 1053 1833 Z" unicode="" />
<glyph horiz-adv-x="1335" d="M 1044 1939 L 1294 1939 L 862 1604 L 670 1604 L 1044 1939 Z M -41 164 L 1075 1319 L 242 1319 L 283 1518 L 1384 1518 L 1350 1337 L 238 190 L 1122 190 L 1083 0 L -76 0 L -41 164 Z" unicode="" />
<glyph horiz-adv-x="1008" d="M 813 1591 L 1063 1591 L 631 1255 L 438 1255 L 813 1591 Z M -70 145 L 711 958 L 141 958 L 176 1139 L 1010 1139 L 981 989 L 199 170 L 827 170 L 793 0 L -100 0 L -70 145 Z" unicode="" />
<glyph horiz-adv-x="1335" d="M -41 164 L 1075 1319 L 242 1319 L 283 1518 L 1384 1518 L 1350 1337 L 238 190 L 1122 190 L 1083 0 L -76 0 L -41 164 Z M 795 1843 L 995 1843 L 946 1604 L 743 1604 L 795 1843 Z" unicode="" />
<glyph horiz-adv-x="1008" d="M -70 145 L 711 958 L 141 958 L 176 1139 L 1010 1139 L 981 989 L 199 170 L 827 170 L 793 0 L -100 0 L -70 145 Z M 563 1495 L 764 1495 L 715 1255 L 512 1255 L 563 1495 Z" unicode="" />
<glyph horiz-adv-x="1335" d="M 508 1939 L 694 1939 L 868 1733 L 1128 1939 L 1325 1939 L 954 1604 L 737 1604 L 508 1939 Z M -41 164 L 1075 1319 L 242 1319 L 283 1518 L 1384 1518 L 1350 1337 L 238 190 L 1122 190 L 1083 0 L -76 0 L -41 164 Z" unicode="" />
<glyph horiz-adv-x="1008" d="M 276 1591 L 463 1591 L 637 1384 L 897 1591 L 1094 1591 L 723 1255 L 506 1255 L 276 1591 Z M -70 145 L 711 958 L 141 958 L 176 1139 L 1010 1139 L 981 989 L 199 170 L 827 170 L 793 0 L -100 0 L -70 145 Z" unicode="" />
<glyph horiz-adv-x="819" d="" unicode="" />
<glyph horiz-adv-x="1133" d="M 236 930 L 469 930 L 524 1186 C 530 1217 538 1247 546 1276 C 554 1304 564 1331 576 1356 C 588 1380 604 1402 622 1422 C 640 1442 663 1459 691 1473 C 718 1487 750 1498 788 1506 C 826 1514 870 1518 922 1518 L 1044 1518 L 1006 1329 L 934 1329 C 890 1329 855 1323 829 1313 C 803 1303 782 1288 767 1270 C 751 1252 740 1230 732 1206 C 724 1181 718 1154 713 1126 L 670 930 L 995 930 L 956 750 L 631 750 L 399 -340 L 201 -340 L 432 750 L 195 750 L 236 930 Z" unicode="" />
<glyph horiz-adv-x="1718" d="" unicode="" />
<glyph horiz-adv-x="1309" d="" unicode="" />
<glyph horiz-adv-x="1649" d="" unicode="" />
<glyph horiz-adv-x="1339" d="" unicode="" />
<glyph horiz-adv-x="1473" d="" unicode="" />
<glyph horiz-adv-x="1251" d="" unicode="" />
<glyph horiz-adv-x="2193" d="" unicode="" />
<glyph horiz-adv-x="1950" d="" unicode="" />
<glyph horiz-adv-x="1688" d="" unicode="" />
<glyph horiz-adv-x="1268" d="" unicode="" />
<glyph horiz-adv-x="1419" d="" unicode="" />
<glyph horiz-adv-x="1057" d="" unicode="" />
<glyph horiz-adv-x="1378" d="M 313 -465 C 339 -453 360 -441 378 -431 C 395 -420 409 -409 420 -398 C 431 -386 440 -374 446 -361 C 452 -347 457 -331 461 -313 L 352 -313 L 399 -80 L 623 -80 L 588 -254 C 578 -297 568 -334 558 -365 C 547 -396 533 -423 515 -446 C 497 -469 475 -489 448 -507 C 420 -524 386 -541 344 -557 L 313 -465 Z M 709 1319 L 170 1319 L 211 1518 L 1493 1518 L 1452 1319 L 915 1319 L 633 0 L 426 0 L 709 1319 Z" unicode="" />
<glyph horiz-adv-x="834" d="M 12 -465 C 38 -453 59 -441 77 -431 C 94 -420 108 -409 119 -398 C 130 -386 139 -374 145 -361 C 151 -347 156 -331 160 -313 L 51 -313 L 98 -80 L 322 -80 L 287 -254 C 277 -297 267 -334 257 -365 C 246 -396 232 -423 214 -446 C 196 -469 174 -489 147 -507 C 119 -524 85 -541 43 -557 L 12 -465 Z M 141 1139 L 348 1139 L 455 1462 L 614 1493 L 539 1139 L 815 1139 L 780 958 L 500 958 L 369 338 C 363 312 359 290 357 270 C 355 250 359 233 368 219 C 376 205 391 194 412 187 C 432 179 462 176 500 176 L 610 176 L 575 0 C 569 0 559 -1 547 -1 C 534 -1 521 -2 507 -2 C 493 -2 479 -2 466 -2 C 452 -2 442 -2 434 -2 C 362 -2 306 6 266 22 C 226 38 197 60 179 90 C 161 119 152 155 152 197 C 152 239 158 287 168 340 L 303 958 L 102 958 L 141 1139 Z" unicode="" />
<glyph horiz-adv-x="1208" d="M 674 1591 L 889 1591 L 1118 1255 L 930 1255 L 758 1462 L 496 1255 L 301 1255 L 674 1591 Z" unicode="" />
<glyph horiz-adv-x="1208" d="M 373 1591 L 559 1591 L 733 1384 L 993 1591 L 1190 1591 L 819 1255 L 602 1255 L 373 1591 Z" unicode="" />
<glyph horiz-adv-x="1208" d="M 737 1237 C 663 1237 603 1246 557 1264 C 511 1282 476 1307 451 1339 C 426 1370 409 1406 401 1448 C 393 1490 389 1534 389 1581 L 545 1602 C 545 1571 547 1543 551 1519 C 555 1494 565 1473 579 1456 C 593 1439 613 1426 639 1417 C 665 1407 699 1403 743 1403 C 785 1403 821 1407 851 1417 C 881 1426 906 1439 927 1456 C 948 1473 966 1494 980 1519 C 994 1543 1008 1571 1020 1602 L 1165 1573 C 1149 1526 1130 1482 1107 1441 C 1083 1400 1055 1364 1021 1334 C 987 1304 946 1280 900 1263 C 853 1245 799 1237 737 1237 Z" unicode="" />
<glyph horiz-adv-x="1208" d="M 659 1495 L 860 1495 L 811 1255 L 608 1255 L 659 1495 Z" unicode="" />
<glyph horiz-adv-x="1208" d="" unicode="" />
<glyph horiz-adv-x="1208" d="M 408 -463 C 354 -463 309 -458 275 -450 C 241 -442 214 -431 194 -417 C 174 -403 160 -386 152 -367 C 144 -348 141 -328 141 -307 C 141 -262 150 -222 169 -188 C 188 -153 212 -123 240 -97 C 268 -71 298 -49 330 -31 C 362 -13 392 2 418 14 L 557 14 C 519 -6 484 -27 452 -49 C 420 -70 392 -92 368 -114 C 344 -136 326 -160 313 -184 C 299 -208 293 -232 293 -258 C 293 -269 295 -280 299 -290 C 303 -300 311 -308 323 -316 C 334 -323 349 -329 369 -333 C 388 -337 413 -340 444 -340 C 468 -340 494 -337 523 -331 C 551 -325 578 -318 604 -309 L 625 -414 C 595 -429 561 -441 522 -450 C 482 -458 444 -463 408 -463 Z" unicode="" />
<glyph horiz-adv-x="1208" d="M 893 1260 C 857 1260 826 1265 799 1276 C 771 1286 746 1298 722 1311 C 698 1324 675 1336 653 1347 C 631 1358 607 1364 582 1364 C 566 1364 552 1361 538 1356 C 524 1350 510 1343 497 1335 C 483 1326 470 1316 458 1304 C 446 1292 434 1280 422 1268 L 319 1370 C 359 1418 401 1456 445 1485 C 489 1513 538 1528 590 1528 C 625 1528 656 1522 684 1512 C 711 1501 736 1489 760 1476 C 783 1463 806 1451 828 1441 C 850 1430 873 1425 899 1425 C 925 1425 951 1434 975 1452 C 999 1470 1025 1496 1055 1528 L 1159 1425 C 1113 1371 1068 1330 1025 1302 C 982 1274 938 1260 893 1260 Z" unicode="" />
<glyph horiz-adv-x="1208" d="M 594 1591 L 829 1591 L 440 1255 L 264 1255 L 594 1591 Z M 1083 1591 L 1317 1591 L 928 1255 L 754 1255 L 1083 1591 Z" unicode="" />
<glyph horiz-adv-x="1208" d="M 373 1425 L 1116 1425 L 1083 1255 L 338 1255 L 373 1425 Z" unicode="" />
<glyph horiz-adv-x="1208" d="" unicode="" />
<glyph horiz-adv-x="1208" d="" unicode="" />
<glyph horiz-adv-x="518" d="" unicode="" />
<glyph horiz-adv-x="1208" d="" unicode="" />
<glyph horiz-adv-x="1208" d="" unicode="" />
<glyph horiz-adv-x="1208" d="M 682 1587 L 877 1587 L 631 1255 L 477 1255 L 682 1587 Z" unicode="" />
<glyph horiz-adv-x="1208" d="M 260 1479 L 408 1479 L 358 1255 L 211 1255 L 260 1479 Z M 825 1479 L 975 1479 L 926 1255 L 778 1255 L 825 1479 Z M 635 1587 L 809 1587 L 575 1255 L 444 1255 L 635 1587 Z" unicode="" />
<glyph horiz-adv-x="1548" d="M 356 1520 L 551 1520 L 305 1188 L 152 1188 L 356 1520 Z M 868 1528 L 1073 1528 L 1333 0 L 1126 0 L 1073 319 L 369 319 L 180 0 L -43 0 L 868 1528 Z M 1044 510 L 920 1262 L 475 510 L 1044 510 Z" unicode="" />
<glyph horiz-adv-x="1692" d="M 342 1520 L 537 1520 L 291 1188 L 137 1188 L 342 1520 Z M 723 1518 L 1731 1518 L 1690 1319 L 889 1319 L 791 883 L 1571 883 L 1532 686 L 754 686 L 645 190 L 1454 190 L 1415 0 L 399 0 L 723 1518 Z" unicode="" />
<glyph horiz-adv-x="1970" d="M 342 1520 L 537 1520 L 291 1188 L 137 1188 L 342 1520 Z M 723 1518 L 930 1518 L 795 891 L 1618 891 L 1753 1518 L 1960 1518 L 1636 0 L 1430 0 L 1575 686 L 754 686 L 606 0 L 399 0 L 723 1518 Z" unicode="" />
<glyph horiz-adv-x="965" d="M 342 1520 L 537 1520 L 291 1188 L 137 1188 L 342 1520 Z M 729 1518 L 938 1518 L 614 0 L 406 0 L 729 1518 Z" unicode="" />
<glyph horiz-adv-x="2046" d="M 342 1520 L 537 1520 L 291 1188 L 137 1188 L 342 1520 Z M 1112 -25 C 998 -25 897 -11 810 15 C 723 41 650 81 591 133 C 532 185 487 249 457 325 C 427 401 412 489 412 588 C 410 627 412 667 417 709 C 421 750 428 794 438 840 C 457 931 482 1012 514 1082 C 545 1152 581 1214 622 1266 C 663 1318 708 1361 758 1397 C 807 1432 859 1460 915 1482 C 971 1503 1029 1518 1089 1528 C 1149 1537 1211 1542 1274 1542 C 1388 1542 1488 1528 1575 1502 C 1662 1475 1735 1436 1794 1384 C 1853 1332 1898 1269 1928 1194 C 1958 1118 1974 1032 1974 934 C 1974 894 1971 853 1967 812 C 1963 770 1956 728 1946 684 C 1916 546 1873 431 1818 340 C 1763 249 1699 177 1626 123 C 1552 69 1472 30 1384 8 C 1296 -13 1206 -25 1112 -25 Z M 1114 168 C 1194 168 1268 178 1336 198 C 1403 218 1463 250 1516 293 C 1568 336 1613 391 1650 459 C 1687 526 1716 607 1737 702 C 1745 737 1751 772 1755 806 C 1759 840 1761 873 1761 905 C 1761 971 1751 1032 1732 1086 C 1713 1140 1683 1186 1643 1224 C 1602 1262 1550 1291 1488 1312 C 1425 1332 1350 1343 1264 1343 C 1182 1343 1108 1332 1041 1312 C 974 1291 914 1259 862 1216 C 810 1172 765 1117 729 1050 C 692 983 664 903 645 811 C 637 775 631 741 628 707 C 624 673 623 639 623 606 C 623 540 632 480 651 426 C 670 372 699 326 739 288 C 779 250 830 220 892 199 C 954 178 1028 168 1114 168 Z" unicode="" />
<glyph horiz-adv-x="1931" d="M 342 1520 L 537 1520 L 291 1188 L 137 1188 L 342 1520 Z M 1073 584 L 692 1518 L 907 1518 L 1214 782 L 1829 1518 L 2058 1518 L 1278 578 L 1155 0 L 948 0 L 1073 584 Z" unicode="" />
<glyph horiz-adv-x="2064" d="M 1294 1542 C 1406 1542 1506 1528 1594 1502 C 1682 1475 1756 1437 1816 1387 C 1876 1337 1921 1276 1952 1204 C 1983 1132 1999 1051 1999 961 C 1999 865 1984 778 1955 700 C 1926 622 1886 553 1835 495 C 1784 436 1724 387 1654 348 C 1584 309 1509 281 1427 264 L 1411 182 L 1868 182 L 1829 0 L 1219 0 L 1298 348 C 1456 381 1576 447 1658 545 C 1739 643 1780 770 1780 924 C 1780 992 1768 1053 1746 1105 C 1724 1157 1691 1200 1648 1236 C 1605 1271 1553 1298 1491 1316 C 1429 1334 1358 1343 1278 1343 C 1176 1343 1085 1327 1006 1297 C 926 1266 859 1224 805 1170 C 751 1116 709 1052 681 979 C 653 906 639 827 639 743 C 639 683 646 630 660 586 C 674 541 695 503 723 471 C 751 439 787 414 829 394 C 871 374 921 358 977 348 L 901 0 L 293 0 L 332 182 L 786 182 L 805 264 C 747 278 696 297 650 321 C 604 345 565 377 533 416 C 501 454 476 501 459 556 C 442 611 434 676 434 750 C 434 818 441 884 457 950 C 473 1016 496 1078 528 1137 C 560 1195 599 1249 647 1299 C 695 1349 750 1391 814 1427 C 878 1463 950 1491 1030 1511 C 1110 1531 1198 1542 1294 1542 Z M 342 1520 L 537 1520 L 291 1188 L 137 1188 L 342 1520 Z" unicode="" />
<glyph horiz-adv-x="516" d="M 61 1479 L 209 1479 L 160 1255 L 12 1255 L 61 1479 Z M 627 1479 L 776 1479 L 727 1255 L 580 1255 L 627 1479 Z M 436 1587 L 610 1587 L 377 1255 L 246 1255 L 436 1587 Z M 240 1139 L 438 1139 L 197 0 L -2 0 L 240 1139 Z" unicode="" />
<glyph horiz-adv-x="1473" d="M 795 1528 L 999 1528 L 1260 0 L 1053 0 L 999 319 L 295 319 L 106 0 L -117 0 L 795 1528 Z M 971 510 L 846 1262 L 401 510 L 971 510 Z" unicode="" />
<glyph horiz-adv-x="1434" d="M 334 1518 L 858 1518 C 963 1518 1051 1510 1121 1496 C 1191 1482 1248 1461 1290 1434 C 1332 1407 1361 1374 1379 1336 C 1396 1297 1405 1254 1405 1206 C 1405 1143 1398 1087 1385 1038 C 1372 989 1353 947 1329 912 C 1304 876 1274 848 1240 827 C 1205 805 1166 791 1124 784 C 1152 774 1176 761 1197 743 C 1218 725 1235 704 1249 679 C 1263 654 1273 626 1280 596 C 1286 565 1290 532 1290 498 C 1290 402 1276 322 1250 258 C 1224 194 1186 142 1137 104 C 1087 66 1027 39 955 23 C 883 7 801 0 711 0 L 10 0 L 334 1518 Z M 750 186 C 801 186 847 191 889 202 C 930 213 965 231 994 255 C 1022 279 1044 311 1060 350 C 1075 389 1083 437 1083 494 C 1083 524 1077 551 1066 575 C 1054 599 1036 619 1012 635 C 987 651 955 663 916 671 C 877 679 830 684 774 684 L 362 684 L 252 186 L 750 186 Z M 889 877 C 944 877 990 883 1028 895 C 1066 907 1096 926 1120 950 C 1143 974 1160 1003 1170 1037 C 1180 1071 1186 1111 1186 1155 C 1186 1181 1181 1204 1171 1226 C 1161 1248 1143 1266 1118 1281 C 1092 1296 1058 1308 1015 1316 C 972 1324 918 1329 852 1329 L 500 1329 L 401 877 L 889 877 Z" unicode="" />
<glyph horiz-adv-x="1188" d="M 332 1518 L 1288 1518 L 1247 1319 L 498 1319 L 217 0 L 10 0 L 332 1518 Z" unicode="" />
<glyph horiz-adv-x="1473" d="M 797 1528 L 995 1528 L 1253 0 L -115 0 L 797 1528 Z M 1020 190 L 842 1262 L 211 190 L 1020 190 Z" unicode="" />
<glyph horiz-adv-x="1300" d="M 334 1518 L 1341 1518 L 1300 1319 L 500 1319 L 401 883 L 1182 883 L 1143 686 L 365 686 L 256 190 L 1065 190 L 1026 0 L 10 0 L 334 1518 Z" unicode="" />
<glyph horiz-adv-x="1335" d="M -41 164 L 1075 1319 L 242 1319 L 283 1518 L 1384 1518 L 1350 1337 L 238 190 L 1122 190 L 1083 0 L -76 0 L -41 164 Z" unicode="" />
</font>
</defs>
</svg>
