<?xml version="1.0" encoding="utf-8" ?><svg version="1.1" xmlns = 'http://www.w3.org/2000/svg'><defs><font id='web' horiz-adv-x="1000">
<font-face font-family="web" descent="-410" cap-height="1518" units-per-em="2048" bbox="-242,-494,2542,2501" x-height="1137" ascent="1638" />
<missing-glyph horiz-adv-x="1024" d="" /><glyph horiz-adv-x="369" d="" unicode=" " />
<glyph horiz-adv-x="627" d="M 109 256 L 340 256 L 295 0 L 66 0 L 109 256 Z M 344 1518 L 555 1518 L 342 432 L 170 432 L 344 1518 Z" unicode="!" />
<glyph horiz-adv-x="870" d="M 287 1518 L 485 1518 L 362 899 L 186 899 L 287 1518 Z M 657 1518 L 852 1518 L 733 899 L 555 899 L 657 1518 Z" unicode="&#x22;" />
<glyph horiz-adv-x="1214" d="M 254 449 L 63 449 L 94 627 L 285 627 L 326 868 L 133 868 L 166 1044 L 356 1044 L 442 1518 L 627 1518 L 543 1044 L 760 1044 L 844 1518 L 1030 1518 L 944 1044 L 1153 1044 L 1122 868 L 913 868 L 870 627 L 1081 627 L 1049 449 L 840 449 L 762 0 L 575 0 L 655 449 L 438 449 L 358 0 L 174 0 L 254 449 Z M 700 612 L 750 885 L 498 885 L 451 612 L 700 612 Z" unicode="#" />
<glyph horiz-adv-x="1077" d="M 319 4 C 239 13 170 29 114 53 C 58 76 12 103 -23 133 L 92 274 C 114 254 148 234 192 212 C 236 190 291 175 358 166 L 459 729 C 421 749 386 770 354 791 C 322 812 294 836 271 862 C 248 888 230 918 218 952 C 205 986 199 1025 199 1071 C 199 1139 207 1200 225 1254 C 243 1307 268 1352 302 1390 C 336 1427 377 1456 425 1478 C 473 1499 527 1512 588 1518 L 618 1690 L 801 1690 L 770 1511 C 826 1503 876 1491 918 1476 C 960 1460 997 1443 1030 1425 L 928 1270 C 905 1283 877 1296 845 1309 C 813 1321 775 1331 731 1337 L 641 836 C 680 814 717 793 751 771 C 785 749 815 723 841 695 C 867 666 887 633 902 596 C 916 559 924 515 924 465 C 924 391 914 327 895 271 C 875 215 847 167 811 128 C 775 89 730 59 678 38 C 626 16 566 4 500 0 L 469 -188 L 287 -188 L 319 4 Z M 731 438 C 731 484 720 522 699 554 C 678 586 648 615 608 643 L 522 164 C 590 175 642 204 678 252 C 713 299 731 361 731 438 Z M 391 1090 C 391 1054 399 1023 416 997 C 433 971 458 946 492 922 L 565 1337 C 506 1325 462 1298 434 1256 C 405 1214 391 1158 391 1090 Z" unicode="$" />
<glyph horiz-adv-x="1866" d="M 399 565 C 297 565 221 590 171 640 C 121 690 96 769 96 877 C 96 905 97 936 101 969 C 105 1001 110 1037 117 1077 C 133 1166 153 1240 177 1299 C 201 1357 229 1404 262 1438 C 295 1472 332 1497 373 1511 C 414 1525 460 1532 510 1532 C 612 1532 688 1506 738 1456 C 788 1406 813 1327 813 1219 C 813 1189 811 1157 807 1123 C 803 1089 799 1054 793 1016 C 777 926 756 853 732 795 C 707 737 678 691 645 657 C 612 623 575 599 534 585 C 493 571 448 565 399 565 Z M 399 713 C 428 713 454 717 476 727 C 498 736 518 753 535 777 C 552 801 567 833 581 874 C 594 914 606 966 618 1030 C 625 1067 630 1100 634 1130 C 637 1160 639 1186 639 1210 C 639 1268 628 1311 606 1337 C 584 1363 550 1376 502 1376 C 473 1376 448 1370 426 1359 C 404 1348 385 1330 369 1305 C 352 1280 337 1247 325 1206 C 312 1165 300 1115 289 1055 C 282 1019 277 985 274 955 C 271 924 270 898 270 877 C 270 819 280 777 300 751 C 320 725 353 713 399 713 Z M 1356 -16 C 1254 -16 1179 9 1129 59 C 1079 109 1055 188 1055 297 C 1055 325 1056 355 1060 389 C 1064 422 1069 458 1077 496 C 1092 584 1112 658 1136 717 C 1160 775 1189 822 1222 857 C 1254 892 1291 917 1332 931 C 1373 945 1418 952 1468 952 C 1569 952 1645 926 1696 876 C 1746 825 1772 745 1772 637 C 1772 608 1770 577 1766 544 C 1762 511 1757 475 1749 436 C 1733 346 1713 273 1689 215 C 1665 157 1636 110 1603 76 C 1570 42 1533 18 1492 4 C 1450 -9 1405 -16 1356 -16 Z M 1356 131 C 1386 131 1412 135 1435 145 C 1457 155 1477 172 1495 196 C 1512 220 1527 253 1541 294 C 1554 335 1566 387 1577 451 C 1584 487 1589 519 1592 549 C 1595 579 1597 605 1597 629 C 1597 689 1586 731 1564 757 C 1542 782 1508 795 1462 795 C 1432 795 1407 789 1385 779 C 1363 768 1344 750 1328 725 C 1311 700 1296 667 1284 626 C 1271 584 1259 533 1249 473 C 1243 437 1238 404 1234 374 C 1230 344 1229 318 1229 297 C 1229 239 1239 196 1260 170 C 1280 144 1312 131 1356 131 Z M 1313 1518 L 1493 1518 L 555 0 L 377 0 L 1313 1518 Z" unicode="%" />
<glyph horiz-adv-x="1352" d="M 465 -14 C 381 -14 310 -5 252 10 C 194 26 146 50 110 80 C 73 110 46 147 30 190 C 14 232 6 280 6 332 C 6 406 15 470 33 524 C 51 578 77 626 109 668 C 141 710 180 747 225 780 C 270 812 319 844 373 874 C 354 918 340 961 330 1003 C 320 1045 315 1090 315 1137 C 315 1205 324 1265 342 1317 C 360 1368 384 1410 415 1444 C 446 1477 483 1502 525 1519 C 567 1535 611 1544 659 1544 C 713 1544 760 1537 800 1525 C 839 1512 871 1494 897 1471 C 923 1448 942 1420 954 1387 C 966 1353 973 1316 973 1276 C 973 1211 963 1155 944 1107 C 925 1059 900 1016 868 979 C 836 941 799 908 757 879 C 715 850 672 823 627 797 C 640 775 654 753 669 731 C 684 708 700 684 717 659 L 879 420 C 918 490 952 570 981 660 C 1010 750 1038 845 1065 946 L 1237 922 C 1203 784 1166 660 1126 550 C 1086 439 1039 343 985 262 L 1161 0 L 924 0 L 848 113 C 798 71 741 40 678 18 C 615 -3 544 -14 465 -14 Z M 469 150 C 527 150 580 159 627 177 C 673 195 716 222 754 256 L 551 565 C 531 594 513 622 495 649 C 477 675 461 702 446 729 C 406 703 370 678 340 653 C 309 627 283 600 263 571 C 242 542 226 510 216 475 C 206 440 201 400 201 354 C 201 327 204 301 212 277 C 219 253 233 231 253 212 C 273 193 300 178 335 167 C 369 155 414 150 469 150 Z M 504 1141 C 504 1105 508 1071 516 1038 C 524 1005 535 971 551 936 C 586 956 618 978 647 1000 C 676 1022 701 1045 722 1071 C 743 1097 759 1125 771 1155 C 782 1185 788 1219 788 1257 C 788 1273 786 1289 782 1303 C 778 1317 771 1330 761 1341 C 751 1351 737 1359 721 1365 C 704 1371 683 1374 659 1374 C 607 1374 568 1353 542 1313 C 516 1273 504 1215 504 1141 Z" unicode="&#x26;" />
<glyph horiz-adv-x="502" d="M 287 1518 L 485 1518 L 365 899 L 186 899 L 287 1518 Z" unicode="'" />
<glyph horiz-adv-x="817" d="M 328 -354 C 304 -320 280 -280 256 -234 C 232 -188 210 -135 191 -77 C 172 -18 157 46 145 117 C 133 187 127 264 127 348 C 127 432 133 515 147 599 C 160 682 179 763 203 843 C 227 922 256 998 290 1072 C 324 1145 361 1214 401 1279 C 441 1343 484 1402 530 1456 C 576 1510 623 1557 672 1597 L 799 1503 C 756 1465 715 1421 675 1371 C 635 1321 597 1266 562 1206 C 526 1146 494 1081 464 1013 C 434 945 409 874 388 800 C 367 726 351 651 339 574 C 327 496 322 418 322 340 C 322 266 326 198 336 136 C 346 74 358 19 374 -31 C 389 -81 406 -125 425 -164 C 444 -203 463 -237 483 -266 L 328 -354 L 328 -354 Z" unicode="(" />
<glyph horiz-adv-x="817" d="M -29 -260 C 13 -222 55 -179 95 -129 C 135 -79 172 -24 208 36 C 243 96 275 160 304 228 C 333 296 358 367 379 441 C 400 515 416 590 428 668 C 440 746 446 824 446 903 C 446 975 441 1042 431 1104 C 421 1165 409 1221 394 1271 C 379 1321 362 1366 343 1406 C 324 1445 305 1479 287 1509 L 442 1597 C 466 1562 490 1521 514 1475 C 538 1429 559 1376 578 1318 C 597 1260 613 1195 625 1125 C 637 1054 643 977 643 895 C 643 811 636 727 623 644 C 609 560 590 479 566 400 C 542 320 513 244 479 171 C 445 97 408 28 368 -36 C 327 -100 284 -159 238 -213 C 192 -267 144 -314 96 -354 L -29 -260 Z" unicode=")" />
<glyph horiz-adv-x="985" d="M 377 637 L 453 963 L 172 834 L 115 985 L 416 1087 L 166 1290 L 272 1411 L 496 1192 L 535 1526 L 688 1497 L 614 1169 L 899 1303 L 958 1153 L 649 1047 L 903 844 L 799 723 L 573 944 L 532 610 L 377 637 Z" unicode="*" />
<glyph horiz-adv-x="1159" d="M 467 637 L 150 637 L 178 805 L 496 805 L 563 1186 L 748 1186 L 680 805 L 997 805 L 969 637 L 649 637 L 582 254 L 399 254 L 467 637 Z" unicode="+" />
<glyph horiz-adv-x="442" d="M -57 -143 C -31 -129 -10 -118 6 -109 C 22 -99 34 -90 44 -80 C 53 -70 60 -59 65 -47 C 69 -35 74 -19 78 0 L -29 0 L 16 258 L 248 258 L 207 16 C 200 -17 192 -46 184 -71 C 175 -95 163 -118 147 -138 C 131 -158 109 -176 83 -193 C 57 -210 22 -227 -20 -244 L -57 -143 Z" unicode="," />
<glyph horiz-adv-x="723" d="M 72 733 L 641 733 L 608 555 L 41 555 L 72 733 Z" unicode="-" />
<glyph horiz-adv-x="442" d="M 16 258 L 248 258 L 205 0 L -29 0 L 16 258 Z" unicode="." />
<glyph horiz-adv-x="872" d="M 811 1518 L 1012 1518 L 63 0 L -139 0 L 811 1518 Z" unicode="/" />
<glyph horiz-adv-x="1184" d="M 502 -16 C 421 -16 353 -6 299 12 C 244 30 200 58 166 94 C 132 130 108 175 94 229 C 79 282 72 344 72 414 C 72 468 76 527 84 591 C 92 655 103 724 117 799 C 139 929 165 1040 194 1133 C 222 1225 258 1301 301 1361 C 343 1421 396 1464 458 1492 C 520 1520 596 1534 686 1534 C 766 1534 833 1524 887 1505 C 941 1485 984 1457 1017 1420 C 1049 1383 1073 1338 1087 1285 C 1101 1231 1108 1170 1108 1102 C 1108 1047 1104 987 1096 923 C 1088 859 1078 789 1065 715 C 1041 583 1015 470 987 378 C 959 285 923 209 881 151 C 839 93 787 50 726 24 C 665 -2 590 -16 502 -16 Z M 514 162 C 564 162 607 171 643 190 C 679 209 710 241 737 286 C 764 330 788 389 808 463 C 828 536 848 627 868 737 C 881 807 891 871 897 928 C 903 984 907 1035 907 1079 C 907 1125 903 1166 895 1200 C 887 1234 873 1262 855 1284 C 837 1306 813 1322 784 1332 C 755 1342 720 1348 678 1348 C 624 1348 578 1338 540 1319 C 502 1299 470 1267 443 1223 C 415 1178 392 1119 372 1047 C 352 974 333 884 315 778 C 309 746 304 714 299 682 C 294 650 290 620 286 590 C 282 560 279 531 277 505 C 275 478 274 454 274 434 C 274 387 278 347 287 313 C 295 279 309 250 328 228 C 347 206 372 189 403 178 C 433 167 470 162 514 162 Z" unicode="0" />
<glyph horiz-adv-x="637" d="M 371 1341 L 150 1341 L 180 1518 L 594 1518 L 326 0 L 135 0 L 371 1341 Z" unicode="1" />
<glyph horiz-adv-x="987" d="M -37 156 L 373 571 C 427 626 474 675 514 719 C 554 762 588 801 616 836 C 644 871 666 903 684 932 C 701 960 715 988 725 1015 C 735 1041 741 1068 745 1095 C 748 1121 750 1150 750 1182 C 750 1208 746 1232 739 1254 C 731 1275 719 1293 702 1307 C 684 1321 661 1332 633 1340 C 605 1348 570 1352 528 1352 C 489 1352 447 1347 401 1338 C 355 1328 312 1314 270 1296 L 197 1460 C 248 1483 304 1501 366 1514 C 427 1527 494 1534 567 1534 C 637 1534 697 1526 745 1512 C 793 1498 832 1476 862 1448 C 892 1419 913 1384 926 1342 C 939 1300 946 1251 946 1196 C 946 1134 937 1075 920 1019 C 902 963 876 907 840 850 C 804 793 759 733 704 671 C 649 608 584 539 508 463 L 217 170 L 780 170 L 750 0 L -61 0 L -37 156 Z" unicode="2" />
<glyph horiz-adv-x="987" d="M 367 -16 C 317 -16 271 -13 231 -7 C 191 -1 154 7 120 18 C 86 28 56 40 28 54 C 0 68 -26 82 -51 98 L 53 254 C 73 242 95 230 117 219 C 139 207 163 197 189 189 C 215 180 243 173 273 168 C 303 162 336 160 373 160 C 411 160 444 164 474 172 C 504 180 530 194 552 215 C 574 236 593 265 608 302 C 623 338 635 385 645 442 C 648 461 650 479 652 497 C 654 515 655 531 655 547 C 655 575 651 601 643 623 C 635 645 621 664 601 679 C 581 694 553 705 519 713 C 485 721 441 725 389 725 L 252 725 L 283 895 L 487 895 C 527 895 561 899 589 907 C 616 915 639 927 657 945 C 675 963 689 985 699 1012 C 709 1039 718 1072 725 1110 C 729 1125 731 1140 732 1154 C 732 1168 733 1181 733 1194 C 733 1224 729 1249 721 1269 C 713 1289 700 1306 683 1318 C 665 1330 643 1339 617 1344 C 590 1349 558 1352 522 1352 C 482 1352 440 1347 397 1338 C 353 1329 309 1314 264 1294 L 188 1452 C 238 1476 297 1496 363 1511 C 429 1526 496 1534 565 1534 C 627 1534 681 1529 727 1519 C 773 1509 812 1492 843 1470 C 874 1448 897 1419 913 1383 C 928 1347 936 1303 936 1251 C 936 1212 932 1173 924 1135 C 916 1091 907 1051 897 1015 C 887 979 875 947 860 920 C 844 892 825 869 802 850 C 778 831 749 817 715 807 C 741 796 763 783 781 767 C 798 751 812 733 822 713 C 832 692 838 668 842 642 C 846 615 848 585 848 553 C 848 529 846 506 843 482 C 839 458 835 432 831 406 C 815 321 794 251 767 197 C 739 143 706 100 668 68 C 629 36 584 14 534 2 C 484 -9 428 -16 367 -16 Z" unicode="3" />
<glyph horiz-adv-x="1092" d="M 27 498 L 739 1518 L 940 1518 L 233 506 L 614 506 L 735 973 L 877 973 L 793 506 L 997 506 L 967 344 L 764 344 L 705 0 L 526 0 L 584 344 L -2 344 L 27 498 Z" unicode="4" />
<glyph horiz-adv-x="1026" d="M 418 -16 C 356 -16 302 -12 255 -6 C 208 0 166 9 130 20 C 94 30 61 42 33 56 C 5 70 -20 84 -43 98 L 61 254 C 80 242 101 230 123 219 C 145 208 170 198 198 189 C 226 180 257 173 292 168 C 327 162 368 160 414 160 C 452 160 487 163 518 171 C 549 178 576 193 600 215 C 624 237 644 269 662 311 C 679 352 693 407 705 475 C 709 501 712 526 715 550 C 717 573 719 594 719 614 C 719 654 714 687 704 714 C 694 740 680 761 660 777 C 640 793 615 804 585 811 C 555 817 519 821 479 821 C 439 821 402 815 367 804 C 332 792 300 777 270 758 L 127 801 L 293 1518 L 1008 1518 L 973 1341 L 430 1341 L 342 958 C 367 969 396 978 430 985 C 463 991 507 995 561 995 C 621 995 674 988 719 976 C 763 963 800 943 829 915 C 858 887 880 850 894 806 C 908 761 915 707 915 643 C 915 615 913 586 911 556 C 908 526 904 493 899 459 C 886 387 871 326 853 275 C 835 223 815 180 793 145 C 770 110 745 82 717 61 C 689 39 660 23 629 12 C 597 0 564 -6 529 -10 C 493 -14 456 -16 418 -16 Z" unicode="5" />
<glyph horiz-adv-x="1118" d="M 504 -16 C 416 -16 344 -7 287 11 C 229 29 183 54 149 88 C 114 121 90 161 76 209 C 62 256 55 309 55 369 C 55 413 57 459 63 508 C 69 557 76 609 86 664 C 104 764 121 855 139 937 C 157 1019 178 1091 203 1155 C 227 1218 257 1272 291 1318 C 325 1364 368 1401 419 1431 C 469 1461 530 1483 600 1497 C 670 1511 753 1518 850 1518 L 995 1518 L 963 1341 L 844 1341 C 781 1341 726 1337 680 1330 C 634 1323 594 1312 560 1298 C 526 1284 497 1265 474 1243 C 450 1221 430 1194 413 1163 C 395 1132 380 1097 367 1057 C 353 1017 340 972 328 922 C 347 942 369 959 393 972 C 417 985 442 995 469 1003 C 496 1010 525 1015 555 1018 C 585 1020 617 1022 649 1022 C 720 1022 779 1014 825 998 C 871 982 908 959 936 930 C 963 901 982 867 993 827 C 1004 787 1010 744 1010 696 C 1010 665 1008 633 1004 600 C 1000 567 995 532 989 496 C 973 406 952 328 928 264 C 903 199 872 146 834 104 C 796 62 750 32 696 13 C 642 -6 578 -16 504 -16 Z M 496 154 C 544 154 584 161 618 175 C 651 189 679 211 702 241 C 725 270 744 307 759 353 C 773 398 786 452 797 514 C 803 542 807 568 809 592 C 811 616 813 638 813 659 C 813 691 809 719 801 744 C 793 768 781 789 764 806 C 747 823 725 836 697 845 C 669 853 636 858 596 858 C 554 858 516 853 481 844 C 446 835 415 819 387 797 C 359 775 335 745 315 707 C 295 669 280 621 270 563 C 258 495 252 435 252 381 C 252 343 256 311 264 283 C 272 255 285 231 304 212 C 323 192 348 178 380 168 C 411 158 450 154 496 154 Z" unicode="6" />
<glyph horiz-adv-x="881" d="M 743 1341 L 143 1341 L 174 1518 L 985 1518 L 956 1366 L 279 0 L 63 0 L 743 1341 Z" unicode="7" />
<glyph horiz-adv-x="1124" d="M 481 -16 C 389 -16 314 -7 256 10 C 198 28 152 52 118 83 C 84 113 61 149 48 190 C 35 231 29 275 29 322 C 29 381 33 438 42 494 C 50 549 66 600 89 646 C 111 692 142 733 181 768 C 219 802 268 828 328 846 C 304 858 284 872 268 890 C 252 907 240 926 232 947 C 223 968 217 991 214 1015 C 210 1039 209 1064 209 1090 C 209 1152 215 1210 229 1264 C 243 1318 266 1365 300 1405 C 334 1445 379 1476 436 1499 C 492 1522 563 1534 649 1534 C 731 1534 798 1525 851 1509 C 904 1493 946 1471 977 1443 C 1007 1415 1029 1383 1041 1347 C 1053 1311 1059 1273 1059 1233 C 1059 1183 1055 1136 1047 1093 C 1039 1049 1026 1010 1008 975 C 990 940 966 910 937 885 C 907 859 871 839 829 825 C 860 813 886 797 906 777 C 926 757 941 735 953 711 C 964 687 972 660 976 631 C 980 602 983 572 983 541 C 983 462 974 389 958 321 C 942 253 914 195 876 145 C 837 95 785 55 721 27 C 657 -1 577 -16 481 -16 Z M 485 145 C 540 145 587 154 626 174 C 664 193 696 220 720 255 C 744 290 761 332 772 380 C 782 428 788 482 788 541 C 788 571 784 599 776 624 C 768 648 755 669 737 687 C 718 704 693 717 661 727 C 629 736 589 741 541 741 C 481 741 431 731 391 711 C 351 691 319 664 295 630 C 271 595 254 554 244 507 C 234 460 229 410 229 356 C 229 325 233 297 241 271 C 249 245 262 222 282 204 C 301 185 327 170 360 160 C 393 150 435 145 485 145 Z M 610 905 C 655 905 694 911 726 925 C 758 938 784 957 804 983 C 824 1008 838 1039 848 1075 C 857 1111 862 1153 862 1200 C 862 1226 858 1249 851 1270 C 844 1290 832 1308 816 1323 C 800 1338 778 1350 750 1358 C 722 1366 688 1370 647 1370 C 601 1370 563 1363 531 1350 C 499 1336 473 1317 453 1291 C 433 1265 418 1234 409 1198 C 399 1161 395 1119 395 1073 C 395 1047 398 1024 405 1004 C 411 984 423 966 440 951 C 456 936 478 925 506 917 C 534 909 568 905 610 905 Z" unicode="8" />
<glyph horiz-adv-x="1118" d="M 154 170 L 272 170 C 334 170 389 173 436 181 C 482 188 523 199 557 214 C 591 228 620 247 644 270 C 668 293 688 320 705 351 C 722 382 737 418 750 458 C 763 498 776 542 788 592 C 768 571 746 554 722 541 C 698 528 672 518 645 511 C 618 503 590 498 560 496 C 530 493 499 492 467 492 C 396 492 337 500 291 516 C 245 532 208 555 181 585 C 154 614 135 649 124 689 C 112 729 106 773 106 821 C 106 852 107 884 111 917 C 114 949 119 984 127 1022 C 142 1112 162 1189 187 1254 C 211 1318 243 1371 281 1413 C 319 1454 366 1484 420 1504 C 474 1524 539 1534 614 1534 C 701 1534 773 1525 831 1507 C 889 1489 935 1463 969 1429 C 1003 1395 1028 1355 1042 1308 C 1056 1260 1063 1207 1063 1149 C 1063 1105 1060 1058 1054 1009 C 1048 960 1040 908 1030 854 C 1012 753 995 662 977 580 C 959 498 938 426 914 363 C 889 299 859 245 825 199 C 791 153 748 116 698 86 C 647 56 586 35 516 21 C 445 7 362 0 266 0 L 123 0 L 154 170 Z M 522 653 C 562 653 600 657 636 666 C 671 675 702 691 730 714 C 758 736 781 766 801 804 C 821 842 836 890 846 948 C 858 1016 864 1076 864 1130 C 864 1166 860 1199 852 1228 C 844 1256 830 1280 812 1299 C 794 1318 769 1333 738 1343 C 707 1353 669 1358 623 1358 C 574 1358 533 1351 500 1337 C 466 1323 438 1301 415 1271 C 392 1241 373 1204 358 1159 C 343 1114 330 1061 319 999 C 315 972 311 946 309 921 C 306 896 305 873 305 852 C 305 820 308 791 316 766 C 323 741 335 720 352 704 C 369 687 391 674 419 666 C 447 657 481 653 522 653 Z" unicode="9" />
<glyph horiz-adv-x="475" d="M 33 254 L 264 254 L 219 0 L -12 0 L 33 254 Z M 188 1137 L 420 1137 L 375 885 L 143 885 L 188 1137 Z" unicode=":" />
<glyph horiz-adv-x="475" d="M 188 1137 L 420 1137 L 375 885 L 143 885 L 188 1137 Z M -41 -143 C -15 -129 6 -118 22 -109 C 38 -99 50 -90 60 -80 C 69 -70 76 -59 81 -47 C 86 -35 90 -19 94 0 L -12 0 L 33 254 L 264 254 L 223 16 C 216 -17 208 -46 200 -71 C 192 -95 179 -118 163 -138 C 147 -158 125 -176 99 -193 C 73 -210 38 -227 -4 -244 L -41 -143 Z" unicode=";" />
<glyph horiz-adv-x="1157" d="M 154 639 L 176 778 L 993 1200 L 965 1014 L 360 709 L 854 403 L 821 217 L 154 639 Z" unicode="&#x3C;" />
<glyph horiz-adv-x="1161" d="M 145 594 L 958 594 L 926 416 L 115 416 L 145 594 Z M 217 999 L 1030 999 L 997 823 L 184 823 L 217 999 Z" unicode="=" />
<glyph horiz-adv-x="1159" d="M 174 406 L 776 709 L 285 1014 L 317 1200 L 985 778 L 963 639 L 145 217 L 174 406 Z" unicode="&#x3E;" />
<glyph horiz-adv-x="1061" d="M 336 418 C 340 454 345 488 350 518 C 355 548 361 575 369 601 C 377 626 387 650 399 673 C 411 695 426 718 445 741 C 464 763 487 787 515 811 C 543 835 576 861 616 889 C 650 913 681 935 707 957 C 733 979 754 1002 771 1026 C 787 1050 800 1076 808 1104 C 816 1132 821 1165 821 1202 C 821 1223 817 1243 811 1262 C 804 1280 792 1297 776 1311 C 759 1325 736 1336 708 1344 C 679 1352 643 1356 600 1356 C 576 1356 552 1354 527 1350 C 502 1346 477 1342 453 1336 C 428 1330 404 1323 382 1315 C 360 1307 340 1300 322 1292 L 242 1452 C 264 1464 291 1475 323 1485 C 355 1495 388 1503 423 1511 C 458 1518 494 1524 531 1528 C 567 1532 603 1534 637 1534 C 711 1534 773 1526 823 1511 C 873 1496 912 1476 942 1450 C 972 1424 993 1394 1005 1359 C 1017 1324 1024 1287 1024 1247 C 1024 1189 1017 1139 1004 1095 C 990 1051 972 1011 948 976 C 924 941 897 909 865 881 C 833 853 798 825 760 799 C 725 773 696 751 672 731 C 648 711 629 693 613 676 C 597 658 584 641 575 625 C 565 608 557 590 551 570 C 545 550 540 527 536 503 C 532 479 527 450 522 418 L 336 418 Z M 281 233 L 512 233 L 471 0 L 238 0 L 281 233 Z" unicode="?" />
<glyph horiz-adv-x="1729" d="M 754 -338 C 632 -338 527 -325 438 -299 C 349 -273 276 -234 218 -181 C 160 -128 117 -61 89 20 C 61 102 47 199 47 311 C 47 363 50 418 56 476 C 62 534 70 596 82 662 C 102 777 126 878 155 966 C 184 1054 217 1130 255 1195 C 293 1259 335 1313 381 1356 C 427 1399 477 1434 531 1460 C 585 1486 643 1504 705 1515 C 767 1526 833 1532 903 1532 C 1028 1532 1136 1519 1228 1493 C 1319 1467 1394 1428 1454 1375 C 1513 1322 1557 1255 1585 1174 C 1613 1092 1628 996 1628 885 C 1628 832 1625 777 1619 719 C 1613 661 1604 599 1593 532 C 1581 467 1570 411 1558 363 C 1546 315 1532 273 1518 239 C 1504 205 1488 177 1471 155 C 1454 133 1435 115 1415 102 C 1395 89 1372 80 1348 75 C 1324 70 1297 68 1268 68 C 1226 68 1191 71 1162 77 C 1133 83 1109 92 1091 103 C 1072 113 1058 126 1048 141 C 1038 155 1031 171 1028 188 C 1010 170 991 153 971 139 C 951 124 928 111 902 101 C 876 91 846 83 813 78 C 780 72 742 70 698 70 C 636 70 585 78 545 94 C 505 110 474 133 451 162 C 428 191 412 225 404 265 C 395 304 391 347 391 393 C 391 430 393 470 398 512 C 402 554 408 595 416 635 C 428 703 443 767 461 827 C 479 887 502 939 531 983 C 560 1027 597 1062 641 1088 C 685 1113 741 1126 807 1126 C 851 1126 890 1123 922 1119 C 954 1114 982 1107 1006 1098 C 1029 1088 1048 1077 1064 1063 C 1080 1049 1093 1034 1104 1016 L 1153 1114 L 1282 1102 L 1157 406 C 1149 366 1146 333 1148 305 C 1149 277 1154 255 1164 238 C 1174 221 1188 209 1206 201 C 1224 193 1246 190 1272 190 C 1297 190 1319 193 1338 201 C 1356 209 1373 225 1388 251 C 1402 276 1416 312 1429 359 C 1442 406 1456 469 1470 549 C 1481 611 1489 671 1495 728 C 1500 785 1503 837 1503 883 C 1503 980 1491 1062 1467 1130 C 1443 1198 1406 1253 1357 1296 C 1307 1338 1245 1369 1170 1388 C 1094 1407 1005 1417 903 1417 C 843 1417 786 1412 734 1402 C 681 1392 632 1376 586 1354 C 540 1331 498 1300 460 1262 C 422 1224 387 1176 355 1119 C 323 1062 295 994 271 916 C 246 838 225 747 207 645 C 195 585 187 527 182 472 C 176 416 174 365 174 319 C 174 223 185 140 208 72 C 231 3 266 -52 313 -96 C 359 -140 418 -172 488 -192 C 558 -212 641 -223 735 -223 C 819 -223 900 -215 977 -201 C 1053 -187 1123 -170 1186 -150 L 1221 -262 C 1189 -273 1154 -283 1117 -293 C 1079 -302 1040 -310 1000 -317 C 960 -323 919 -328 877 -332 C 835 -336 794 -338 754 -338 Z M 743 223 C 793 223 833 231 864 248 C 895 264 920 288 940 318 C 960 348 975 385 986 429 C 997 472 1008 521 1018 575 C 1023 609 1028 641 1032 672 C 1036 702 1038 731 1038 758 C 1038 790 1035 818 1029 844 C 1023 869 1013 891 998 909 C 983 927 963 940 937 950 C 911 960 877 965 836 965 C 795 965 761 957 735 941 C 708 925 686 903 668 873 C 650 843 635 807 624 764 C 612 721 602 672 592 618 C 586 581 580 546 576 513 C 571 479 569 448 569 420 C 569 390 571 363 577 339 C 582 315 591 294 604 277 C 617 259 635 246 658 237 C 680 227 709 223 743 223 Z" unicode="@" />
<glyph horiz-adv-x="1202" d="M 641 1528 L 829 1528 L 1024 0 L 821 0 L 784 315 L 256 315 L 109 0 L -96 0 L 641 1528 Z M 766 496 L 682 1221 L 336 496 L 766 496 Z" unicode="A" />
<glyph horiz-adv-x="1145" d="M 268 1518 L 655 1518 C 738 1518 809 1511 868 1499 C 926 1486 974 1467 1011 1442 C 1047 1416 1074 1385 1091 1347 C 1107 1309 1116 1264 1116 1214 C 1116 1196 1115 1178 1113 1160 C 1111 1142 1109 1125 1106 1108 C 1096 1056 1085 1012 1071 976 C 1057 940 1041 909 1023 884 C 1005 859 984 839 960 823 C 936 807 909 793 879 782 C 930 761 967 730 989 689 C 1011 647 1022 591 1022 520 C 1022 499 1021 478 1019 456 C 1017 434 1014 412 1010 391 C 995 315 973 251 945 201 C 916 151 880 111 838 81 C 795 51 745 30 689 18 C 633 6 570 0 502 0 L 0 0 L 268 1518 Z M 528 170 C 566 170 600 173 630 179 C 660 185 686 197 709 215 C 732 233 752 258 768 290 C 784 322 798 364 809 416 C 813 433 815 449 817 464 C 818 478 819 492 819 506 C 819 543 813 574 803 598 C 792 622 775 642 753 656 C 731 670 702 679 668 685 C 634 691 593 694 547 694 L 319 694 L 227 170 L 528 170 Z M 655 870 C 686 870 715 872 742 878 C 768 883 792 894 814 910 C 835 926 853 948 868 977 C 882 1005 893 1043 901 1090 C 903 1105 904 1119 906 1133 C 908 1146 909 1159 909 1171 C 909 1203 903 1229 893 1251 C 882 1273 865 1290 843 1303 C 821 1316 792 1325 758 1331 C 724 1336 683 1339 637 1339 L 432 1339 L 348 870 L 655 870 Z" unicode="B" />
<glyph horiz-adv-x="1042" d="M 512 -16 C 424 -16 349 -4 288 19 C 227 42 178 75 140 118 C 102 161 75 213 58 273 C 41 333 33 401 33 475 C 33 525 36 577 42 632 C 48 687 57 745 68 805 C 88 921 114 1024 146 1114 C 177 1204 218 1281 268 1343 C 318 1405 380 1452 453 1485 C 525 1517 613 1534 717 1534 C 803 1534 877 1524 939 1504 C 1001 1484 1050 1460 1087 1434 L 975 1264 C 962 1272 947 1280 930 1289 C 912 1298 892 1306 869 1314 C 846 1322 820 1328 790 1333 C 760 1338 727 1341 690 1341 C 630 1341 577 1330 532 1310 C 487 1289 448 1256 414 1212 C 380 1167 352 1109 328 1038 C 304 966 284 880 266 780 C 246 668 236 569 236 485 C 236 378 259 297 306 243 C 352 189 429 162 537 162 C 635 162 723 184 801 229 L 889 78 C 834 46 775 22 713 7 C 651 -8 584 -16 512 -16 Z" unicode="C" />
<glyph horiz-adv-x="1204" d="M 268 1518 L 639 1518 C 736 1518 818 1507 886 1487 C 954 1467 1009 1436 1051 1396 C 1093 1356 1123 1305 1142 1245 C 1161 1185 1171 1115 1171 1036 C 1171 986 1167 934 1161 879 C 1155 823 1147 766 1137 707 C 1114 578 1086 469 1053 379 C 1019 289 977 216 925 160 C 873 104 811 63 737 38 C 663 12 574 0 471 0 L 0 0 L 268 1518 Z M 496 174 C 562 174 619 184 667 204 C 715 224 755 256 789 300 C 823 344 851 401 874 471 C 897 541 918 627 936 727 C 946 781 954 831 960 879 C 966 927 969 972 969 1014 C 969 1068 963 1115 951 1155 C 939 1195 920 1228 893 1255 C 866 1281 831 1301 788 1315 C 744 1328 691 1335 629 1335 L 434 1335 L 229 174 L 496 174 Z" unicode="D" />
<glyph horiz-adv-x="1038" d="M 268 1518 L 1079 1518 L 1047 1335 L 430 1335 L 350 874 L 930 874 L 897 694 L 315 694 L 225 178 L 844 178 L 813 0 L 0 0 L 268 1518 Z" unicode="E" />
<glyph horiz-adv-x="997" d="M 268 1518 L 1079 1518 L 1047 1335 L 432 1335 L 350 862 L 928 862 L 897 682 L 317 682 L 199 0 L 0 0 L 268 1518 Z" unicode="F" />
<glyph horiz-adv-x="1159" d="M 506 -16 C 418 -16 345 -5 285 17 C 225 39 176 71 139 113 C 101 155 74 206 58 268 C 41 329 33 399 33 477 C 33 571 44 680 68 805 C 92 945 123 1061 161 1155 C 199 1249 244 1324 297 1380 C 350 1436 411 1475 481 1499 C 550 1522 629 1534 717 1534 C 773 1534 822 1530 865 1524 C 908 1517 946 1508 980 1498 C 1013 1487 1042 1474 1067 1460 C 1092 1446 1115 1431 1135 1417 L 1004 1257 C 988 1268 971 1279 953 1289 C 934 1299 912 1309 888 1317 C 863 1325 835 1331 803 1336 C 771 1340 734 1343 694 1343 C 640 1343 591 1334 547 1318 C 503 1301 464 1271 430 1229 C 395 1187 364 1129 337 1056 C 310 983 286 890 266 778 C 256 719 248 664 242 612 C 236 560 233 515 233 477 C 233 421 238 372 249 332 C 260 291 278 257 302 231 C 326 205 356 185 394 173 C 431 160 476 154 528 154 C 583 154 630 161 668 177 C 706 193 739 219 765 256 C 791 292 812 341 829 401 C 846 461 861 536 874 625 L 883 682 L 543 682 L 573 856 L 1112 856 L 1075 641 C 1060 553 1044 476 1026 410 C 1008 343 988 285 966 237 C 944 188 918 147 890 115 C 861 83 828 57 791 37 C 754 17 712 4 665 -4 C 618 -12 565 -16 506 -16 Z" unicode="G" />
<glyph horiz-adv-x="1266" d="M 268 1518 L 467 1518 L 354 887 L 954 887 L 1067 1518 L 1268 1518 L 999 0 L 799 0 L 920 692 L 319 692 L 199 0 L 0 0 L 268 1518 Z" unicode="H" />
<glyph horiz-adv-x="492" d="M 281 1518 L 479 1518 L 211 0 L 12 0 L 281 1518 Z" unicode="I" />
<glyph horiz-adv-x="725" d="M -51 178 L 92 178 C 132 178 166 182 194 190 C 222 198 246 211 265 228 C 284 244 299 265 310 290 C 320 315 328 345 334 379 L 537 1518 L 735 1518 L 526 344 C 514 276 496 220 473 176 C 449 132 420 97 385 71 C 350 45 310 26 265 16 C 219 5 169 0 113 0 L -84 0 L -51 178 Z" unicode="J" />
<glyph horiz-adv-x="1174" d="M 268 1518 L 467 1518 L 344 821 L 999 1518 L 1239 1518 L 684 936 L 991 0 L 782 0 L 530 774 L 287 502 L 199 0 L 0 0 L 268 1518 Z" unicode="K" />
<glyph horiz-adv-x="963" d="M 268 1518 L 467 1518 L 229 178 L 823 178 L 793 0 L 0 0 L 268 1518 Z" unicode="L" />
<glyph horiz-adv-x="1493" d="M 268 1518 L 520 1518 L 674 348 L 1241 1518 L 1493 1518 L 1225 0 L 1034 0 L 1229 1116 L 686 0 L 535 0 L 381 1124 L 186 0 L 0 0 L 268 1518 Z" unicode="M" />
<glyph horiz-adv-x="1260" d="M 268 1518 L 481 1518 L 872 393 L 1071 1518 L 1262 1518 L 993 0 L 809 0 L 395 1174 L 186 0 L 0 0 L 268 1518 Z" unicode="N" />
<glyph horiz-adv-x="1262" d="M 537 -16 C 438 -16 356 -3 292 23 C 227 49 175 84 137 129 C 99 174 72 227 56 288 C 40 348 33 413 33 483 C 33 535 36 588 42 641 C 48 694 57 749 68 805 C 80 875 94 941 110 1005 C 126 1068 147 1127 171 1181 C 195 1235 223 1283 256 1327 C 288 1370 327 1407 371 1438 C 415 1468 465 1492 522 1509 C 579 1525 644 1534 717 1534 C 817 1534 900 1520 966 1494 C 1032 1468 1084 1432 1123 1387 C 1162 1341 1189 1288 1205 1226 C 1221 1164 1229 1098 1229 1028 C 1229 976 1225 924 1219 870 C 1213 816 1205 761 1196 705 C 1183 635 1168 569 1152 506 C 1135 443 1115 385 1091 332 C 1067 278 1038 230 1006 187 C 973 144 934 108 890 78 C 845 48 794 24 736 8 C 678 -7 611 -16 537 -16 Z M 547 162 C 623 162 686 175 736 201 C 786 227 828 265 862 314 C 895 362 922 421 942 490 C 962 558 979 635 995 721 C 1004 773 1012 823 1018 872 C 1024 921 1028 968 1028 1012 C 1028 1060 1023 1105 1013 1145 C 1003 1185 986 1220 962 1250 C 938 1279 906 1302 866 1318 C 826 1334 777 1343 717 1343 C 640 1343 576 1329 525 1302 C 474 1275 432 1237 399 1188 C 365 1138 338 1079 318 1009 C 298 939 280 862 266 778 C 256 726 248 675 242 626 C 236 576 233 531 233 489 C 233 440 237 396 247 356 C 257 316 274 281 298 253 C 322 224 354 202 394 186 C 434 170 485 162 547 162 Z" unicode="O" />
<glyph horiz-adv-x="1145" d="M 268 1518 L 672 1518 C 760 1518 835 1509 896 1492 C 956 1475 1005 1451 1043 1420 C 1080 1389 1107 1352 1123 1308 C 1139 1264 1147 1216 1147 1163 C 1147 1119 1141 1070 1130 1018 C 1116 946 1096 882 1072 827 C 1047 772 1015 726 976 689 C 937 651 890 623 836 604 C 782 584 719 575 647 575 L 297 575 L 197 0 L 0 0 L 268 1518 Z M 649 754 C 687 754 722 758 754 768 C 785 778 812 793 836 815 C 859 837 879 865 895 899 C 911 933 923 976 932 1026 C 935 1044 938 1062 940 1080 C 942 1097 944 1114 944 1130 C 944 1162 939 1191 929 1217 C 919 1242 904 1263 882 1281 C 860 1298 831 1311 796 1321 C 760 1330 717 1335 666 1335 L 432 1335 L 330 754 L 649 754 Z" unicode="P" />
<glyph horiz-adv-x="1262" d="M 692 -348 C 564 -348 473 -324 419 -276 C 365 -228 344 -159 356 -68 C 356 -59 357 -48 360 -34 C 362 -20 365 -7 369 6 C 304 20 250 41 207 71 C 164 100 130 135 104 177 C 78 219 59 266 49 318 C 38 370 33 425 33 483 C 33 535 36 588 42 641 C 48 694 57 749 68 805 C 80 875 94 941 110 1005 C 126 1068 147 1127 171 1181 C 195 1235 223 1283 256 1327 C 288 1370 327 1407 371 1438 C 415 1468 465 1492 522 1509 C 579 1525 644 1534 717 1534 C 817 1534 900 1520 966 1494 C 1032 1468 1084 1432 1123 1387 C 1162 1341 1189 1288 1205 1226 C 1221 1164 1229 1098 1229 1028 C 1229 976 1225 924 1219 870 C 1213 816 1205 761 1196 705 C 1176 601 1152 506 1124 420 C 1096 334 1057 259 1009 197 C 961 134 900 85 827 49 C 754 13 663 -4 555 -6 C 553 -12 553 -17 553 -22 C 553 -27 553 -31 553 -33 C 549 -55 548 -76 550 -94 C 552 -112 559 -127 570 -139 C 581 -151 597 -161 618 -168 C 639 -174 666 -178 700 -178 L 811 -178 L 780 -348 L 692 -348 Z M 547 162 C 623 162 686 175 736 201 C 786 227 828 265 862 314 C 895 362 922 421 942 490 C 962 558 979 635 995 721 C 1004 773 1012 823 1018 872 C 1024 921 1028 968 1028 1012 C 1028 1060 1023 1105 1013 1145 C 1003 1185 986 1220 962 1250 C 938 1279 906 1302 866 1318 C 826 1334 777 1343 717 1343 C 640 1343 576 1329 525 1302 C 474 1275 432 1237 399 1188 C 365 1138 338 1079 318 1009 C 298 939 280 862 266 778 C 256 726 248 675 242 626 C 236 576 233 531 233 489 C 233 440 237 396 247 356 C 257 316 274 281 298 253 C 322 224 354 202 394 186 C 434 170 485 162 547 162 Z" unicode="Q" />
<glyph horiz-adv-x="1163" d="M 563 584 L 301 584 L 197 0 L 0 0 L 268 1518 L 676 1518 C 765 1518 839 1509 899 1491 C 958 1473 1005 1448 1041 1416 C 1077 1384 1102 1346 1117 1302 C 1131 1258 1139 1211 1139 1159 C 1139 1114 1134 1067 1126 1018 C 1106 896 1067 800 1007 728 C 947 656 864 610 758 592 L 922 0 L 723 0 L 563 584 Z M 647 764 C 685 764 720 768 752 777 C 783 786 810 801 834 822 C 857 842 877 869 893 903 C 909 936 921 977 930 1026 C 933 1043 935 1060 936 1078 C 937 1096 938 1112 938 1126 C 938 1158 933 1187 925 1213 C 916 1239 901 1261 881 1279 C 861 1297 833 1312 799 1322 C 765 1332 722 1337 670 1337 L 432 1337 L 332 764 L 647 764 Z" unicode="R" />
<glyph horiz-adv-x="1081" d="M 451 -16 C 391 -16 336 -12 285 -4 C 234 3 188 13 146 26 C 104 39 66 54 32 71 C -2 87 -31 105 -57 123 L 53 276 C 69 264 90 251 116 237 C 142 223 171 209 205 197 C 239 185 276 174 318 166 C 359 158 404 154 453 154 C 545 154 617 176 668 222 C 719 267 745 334 745 424 C 745 458 739 487 728 513 C 716 538 699 561 677 583 C 654 605 625 626 591 646 C 557 666 517 689 471 713 C 423 737 381 761 344 787 C 306 812 275 840 249 870 C 223 900 203 933 189 969 C 175 1005 168 1045 168 1090 C 168 1166 180 1232 205 1288 C 229 1344 263 1390 306 1426 C 349 1462 400 1489 459 1507 C 517 1525 581 1534 649 1534 C 746 1534 828 1524 895 1505 C 962 1486 1017 1464 1059 1440 L 963 1272 C 929 1291 885 1309 831 1325 C 777 1341 713 1350 641 1350 C 552 1350 484 1328 437 1286 C 390 1244 367 1184 367 1108 C 367 1080 371 1055 379 1034 C 387 1013 401 993 419 975 C 437 957 460 939 488 921 C 516 903 551 883 592 862 C 648 832 698 803 742 775 C 786 747 823 717 853 686 C 883 654 905 620 921 582 C 936 544 944 499 944 449 C 944 369 931 299 907 241 C 883 183 849 134 805 96 C 761 58 709 29 649 11 C 589 -6 523 -16 451 -16 Z" unicode="S" />
<glyph horiz-adv-x="1098" d="M 551 1335 L 137 1335 L 168 1518 L 1196 1518 L 1165 1335 L 752 1335 L 514 0 L 315 0 L 551 1335 Z" unicode="T" />
<glyph horiz-adv-x="1257" d="M 557 -20 C 467 -20 391 -11 329 6 C 267 24 216 49 178 82 C 140 115 112 155 95 202 C 78 249 70 302 70 362 C 70 389 71 417 74 445 C 76 473 80 502 86 532 L 260 1518 L 461 1518 L 285 535 C 280 509 277 484 275 462 C 273 440 272 418 272 397 C 272 361 276 328 286 299 C 295 270 311 245 333 225 C 355 205 385 189 423 178 C 460 167 507 162 563 162 C 617 162 663 169 701 183 C 739 197 770 219 796 248 C 822 277 842 314 858 358 C 874 402 887 454 897 514 L 1077 1518 L 1270 1518 L 1087 483 C 1073 397 1053 323 1027 260 C 1001 197 968 145 926 104 C 884 62 832 31 772 11 C 712 -9 640 -20 557 -20 Z" unicode="U" />
<glyph horiz-adv-x="1192" d="M 174 1518 L 379 1518 L 518 313 L 1077 1518 L 1286 1518 L 555 -10 L 365 -10 L 174 1518 Z" unicode="V" />
<glyph horiz-adv-x="1739" d="M 190 1518 L 395 1518 L 446 408 L 913 1518 L 1102 1518 L 1171 406 L 1622 1518 L 1821 1518 L 1192 -10 L 1012 -10 L 936 1135 L 459 -10 L 274 -10 L 190 1518 Z" unicode="W" />
<glyph horiz-adv-x="1171" d="M 553 616 L 131 0 L -84 0 L 483 809 L 227 1518 L 434 1518 L 629 977 L 997 1518 L 1214 1518 L 698 782 L 983 0 L 778 0 L 553 616 Z" unicode="X" />
<glyph horiz-adv-x="1143" d="M 436 555 L 152 1518 L 360 1518 L 571 772 L 1049 1518 L 1260 1518 L 633 553 L 537 0 L 338 0 L 436 555 Z" unicode="Y" />
<glyph horiz-adv-x="1065" d="M -45 154 L 838 1335 L 195 1335 L 227 1518 L 1112 1518 L 1083 1354 L 205 178 L 893 178 L 862 0 L -70 0 L -45 154 Z" unicode="Z" />
<glyph horiz-adv-x="807" d="M 338 1575 L 795 1575 L 766 1409 L 502 1409 L 223 -164 L 494 -164 L 465 -324 L 2 -324 L 338 1575 Z" unicode="[" />
<glyph horiz-adv-x="872" d="M 137 1518 L 324 1518 L 735 0 L 549 0 L 137 1518 Z" unicode="\" />
<glyph horiz-adv-x="807" d="M -6 -164 L 262 -164 L 539 1409 L 272 1409 L 301 1575 L 764 1575 L 428 -324 L -35 -324 L -6 -164 Z" unicode="]" />
<glyph horiz-adv-x="965" d="M 537 1552 L 719 1552 L 887 1221 L 733 1221 L 604 1417 L 410 1221 L 250 1221 L 537 1552 Z" unicode="^" />
<glyph horiz-adv-x="741" d="M -215 -109 L 649 -109 L 625 -256 L -242 -256 L -215 -109 Z" unicode="_" />
<glyph horiz-adv-x="965" d="M 315 1587 L 524 1587 L 694 1255 L 532 1255 L 315 1587 Z" unicode="`" />
<glyph horiz-adv-x="1020" d="M 303 -12 C 190 -12 109 11 59 58 C 9 105 -16 174 -16 264 C -16 360 -3 439 20 503 C 44 567 80 618 126 656 C 172 694 228 720 296 736 C 363 752 440 760 526 760 L 674 760 C 679 793 682 823 682 851 C 682 878 677 901 666 921 C 655 941 637 956 611 967 C 585 977 548 983 502 983 C 458 983 413 979 368 973 C 323 967 284 956 250 942 L 193 1102 C 241 1122 294 1137 352 1146 C 410 1154 469 1159 528 1159 C 616 1159 685 1149 735 1130 C 785 1110 820 1082 842 1045 C 864 1008 874 963 874 909 C 873 855 866 793 854 725 L 778 279 C 774 257 772 238 771 224 C 770 210 772 198 776 190 C 780 182 788 176 799 173 C 810 169 826 168 848 168 L 819 0 C 809 -1 798 -2 788 -2 C 777 -2 767 -2 758 -2 C 704 -2 666 6 644 23 C 622 39 610 64 610 98 C 592 78 571 62 548 48 C 524 34 499 22 472 13 C 445 4 417 -2 388 -6 C 359 -10 331 -12 303 -12 Z M 354 150 C 380 150 407 153 434 160 C 460 166 485 179 508 198 C 531 216 552 242 570 275 C 588 307 602 349 612 401 L 645 600 L 535 600 C 473 600 419 596 373 588 C 327 580 290 565 260 543 C 230 521 208 491 194 453 C 179 414 172 364 172 303 C 172 247 187 208 217 185 C 247 161 293 150 354 150 Z" unicode="a" />
<glyph horiz-adv-x="1057" d="M -18 6 L 260 1575 L 451 1575 L 360 1055 C 392 1087 431 1112 479 1130 C 527 1148 586 1157 657 1157 C 720 1157 772 1148 814 1130 C 856 1112 889 1087 914 1055 C 938 1023 956 986 966 943 C 976 899 981 853 981 803 C 981 761 978 716 973 670 C 967 624 960 578 952 532 C 938 456 922 384 902 318 C 882 251 856 193 823 144 C 790 95 749 56 700 28 C 650 0 590 -14 518 -14 C 464 -14 418 -10 380 -4 C 342 1 309 10 283 22 C 256 33 234 47 218 63 C 202 79 189 97 180 117 L 123 -8 L -18 6 Z M 481 154 C 527 154 565 162 595 180 C 625 198 651 223 672 257 C 692 290 709 331 722 379 C 735 427 747 481 758 543 C 774 623 782 695 782 760 C 782 792 778 821 772 848 C 766 874 755 897 740 916 C 725 935 705 950 681 961 C 656 971 625 977 588 977 C 532 977 487 968 451 950 C 415 932 386 906 364 872 C 341 838 323 798 310 750 C 296 702 284 648 274 588 C 266 552 261 516 257 482 C 253 448 252 415 252 383 C 252 349 255 317 262 289 C 268 261 280 237 298 217 C 315 197 338 181 368 170 C 398 159 435 154 481 154 Z" unicode="b" />
<glyph horiz-adv-x="836" d="M 401 -16 C 327 -16 266 -7 217 11 C 167 29 127 54 97 88 C 66 121 44 161 31 208 C 18 255 12 307 12 365 C 12 401 14 440 19 480 C 24 520 31 564 39 610 C 54 700 74 779 98 847 C 122 915 153 972 191 1018 C 229 1064 276 1098 332 1122 C 387 1145 454 1157 532 1157 C 570 1157 604 1155 634 1151 C 664 1147 692 1142 716 1136 C 740 1129 761 1121 781 1113 C 800 1105 818 1096 834 1087 L 725 930 C 703 944 677 955 646 964 C 615 972 576 977 530 977 C 484 977 445 968 413 952 C 381 936 353 911 331 879 C 308 847 289 806 273 757 C 257 707 243 650 231 584 C 225 546 220 509 216 475 C 212 441 211 409 211 381 C 211 345 214 312 222 284 C 229 255 241 231 259 212 C 276 192 299 177 327 167 C 355 157 390 152 432 152 C 464 152 494 154 523 160 C 552 165 584 174 618 188 L 670 35 C 620 14 573 0 529 -6 C 485 -12 443 -16 401 -16 Z" unicode="c" />
<glyph horiz-adv-x="1057" d="M 334 -16 C 270 -16 218 -6 176 11 C 134 29 101 55 77 87 C 52 119 35 156 25 200 C 15 244 10 291 10 342 C 10 384 12 428 18 474 C 24 520 31 566 39 612 C 52 688 68 760 88 826 C 108 892 134 950 167 999 C 200 1048 241 1087 291 1115 C 341 1143 402 1157 475 1157 C 524 1157 567 1153 603 1147 C 639 1141 670 1132 696 1120 C 722 1108 743 1095 759 1079 C 775 1063 789 1045 799 1026 L 895 1575 L 1087 1575 L 811 8 L 655 -6 L 664 96 C 628 60 584 32 531 13 C 477 -6 412 -16 334 -16 Z M 406 154 C 460 154 504 163 540 181 C 575 199 604 225 627 259 C 649 293 667 334 681 382 C 694 430 706 485 717 545 C 723 581 728 617 732 651 C 736 685 739 718 739 750 C 739 784 735 815 728 843 C 721 871 709 895 692 915 C 674 935 651 950 621 962 C 591 973 554 979 510 979 C 464 979 426 970 396 952 C 365 934 339 909 319 876 C 299 842 282 802 269 754 C 255 706 243 652 233 592 C 225 550 219 511 215 475 C 211 439 209 405 209 373 C 209 341 212 311 218 284 C 224 257 235 234 250 215 C 265 195 285 180 311 170 C 336 159 368 154 406 154 Z" unicode="d" />
<glyph horiz-adv-x="958" d="M 418 -14 C 340 -14 275 -5 223 13 C 171 31 129 56 98 89 C 67 121 45 161 33 207 C 20 253 14 304 14 360 C 14 398 16 437 20 479 C 24 521 31 564 39 610 C 54 698 74 776 99 844 C 124 912 156 969 195 1015 C 233 1061 280 1097 335 1121 C 389 1145 454 1157 528 1157 C 599 1157 658 1149 704 1135 C 750 1120 787 1099 815 1073 C 842 1047 861 1015 872 978 C 883 940 889 899 889 854 C 889 829 887 802 884 772 C 881 742 877 710 872 678 C 867 646 862 613 856 580 C 850 546 844 514 838 483 L 207 483 C 203 441 201 405 201 375 C 201 340 204 309 212 282 C 219 254 231 231 249 212 C 267 193 291 179 321 169 C 351 159 390 154 436 154 C 488 154 534 158 574 167 C 614 176 654 187 692 201 L 743 45 C 693 24 641 9 588 0 C 534 -9 478 -14 418 -14 Z M 518 985 C 472 985 434 977 404 963 C 373 948 347 926 326 898 C 304 870 287 835 273 794 C 259 753 246 707 236 655 L 682 655 C 688 687 693 717 698 745 C 702 773 705 800 705 825 C 705 849 702 871 697 891 C 692 911 683 928 669 942 C 655 956 636 966 612 974 C 588 981 556 985 518 985 Z" unicode="e" />
<glyph horiz-adv-x="678" d="M 106 1137 L 279 1137 L 307 1292 C 315 1342 328 1385 345 1421 C 361 1457 384 1486 413 1510 C 441 1533 477 1550 520 1562 C 563 1573 616 1579 678 1579 C 688 1579 699 1579 711 1579 C 723 1579 735 1579 747 1579 C 759 1579 770 1578 780 1578 C 790 1578 797 1577 803 1577 L 770 1409 L 668 1409 C 634 1409 606 1405 585 1397 C 564 1389 547 1379 535 1365 C 523 1351 514 1333 508 1313 C 502 1293 496 1270 492 1245 L 471 1137 L 727 1137 L 694 969 L 442 969 L 215 -324 L 23 -324 L 250 969 L 74 969 L 106 1137 Z" unicode="f" />
<glyph horiz-adv-x="995" d="M 461 408 C 395 408 337 414 289 426 C 269 402 260 378 260 352 C 260 340 261 329 265 321 C 269 312 275 305 285 299 C 294 293 306 289 322 286 C 338 283 357 281 381 281 C 465 279 534 273 590 264 C 645 254 689 239 722 219 C 755 199 778 172 792 139 C 806 106 813 66 813 18 C 813 -50 801 -107 779 -153 C 757 -199 725 -236 684 -264 C 642 -292 592 -312 533 -324 C 474 -336 408 -342 334 -342 C 254 -342 185 -336 128 -326 C 70 -316 23 -301 -12 -281 C -48 -261 -75 -236 -93 -206 C -110 -176 -119 -141 -119 -102 C -119 -62 -112 -25 -100 8 C -87 42 -69 71 -46 97 C -23 123 4 144 37 162 C 70 180 107 193 147 201 C 127 215 113 232 104 252 C 94 272 90 298 90 328 C 90 356 96 384 110 412 C 124 440 143 465 168 489 C 140 513 119 542 105 577 C 91 612 84 654 84 702 C 84 763 89 817 101 863 C 112 909 127 949 147 983 C 167 1017 190 1045 217 1067 C 243 1089 272 1107 304 1121 C 335 1134 368 1143 402 1149 C 436 1154 470 1157 504 1157 C 523 1157 542 1156 560 1156 C 578 1155 596 1154 614 1153 L 999 1225 L 973 1055 L 782 1055 C 814 1033 838 1004 855 967 C 872 929 881 885 881 834 C 881 774 875 722 863 678 C 851 634 836 596 816 565 C 796 533 772 507 745 487 C 718 467 689 451 658 439 C 626 427 594 419 560 415 C 526 410 493 408 461 408 Z M 459 565 C 489 565 519 568 547 576 C 575 583 599 596 620 616 C 641 636 658 663 671 697 C 683 731 690 775 690 829 C 690 878 676 917 648 946 C 620 974 573 989 508 989 C 478 989 448 985 420 977 C 392 969 367 956 345 936 C 323 916 305 888 292 853 C 278 818 272 773 272 719 C 272 668 287 630 317 604 C 347 578 395 565 459 565 Z M 346 -193 C 396 -193 437 -189 471 -182 C 505 -174 532 -163 553 -147 C 574 -131 589 -111 598 -87 C 607 -62 612 -32 612 2 C 612 26 607 47 597 64 C 587 80 572 94 550 104 C 528 114 500 121 465 125 C 430 129 388 131 338 131 C 287 131 245 125 212 115 C 178 104 152 90 133 72 C 113 54 100 34 92 11 C 84 -12 80 -36 80 -61 C 80 -82 84 -101 93 -117 C 102 -133 117 -147 138 -158 C 158 -169 186 -178 220 -184 C 254 -190 296 -193 346 -193 Z" unicode="g" />
<glyph horiz-adv-x="1040" d="M 258 1575 L 449 1575 L 354 1049 C 368 1063 385 1077 404 1090 C 423 1103 444 1115 468 1125 C 492 1135 518 1142 547 1148 C 575 1154 607 1157 641 1157 C 695 1157 741 1151 779 1140 C 816 1129 846 1114 869 1094 C 892 1074 909 1050 920 1023 C 931 995 938 965 940 933 C 942 901 942 866 938 830 C 934 794 928 757 922 719 L 795 0 L 604 0 L 725 694 C 733 740 738 780 741 815 C 743 850 739 879 729 903 C 719 927 700 945 673 957 C 646 969 607 975 557 975 C 511 975 473 967 443 952 C 412 936 386 914 366 884 C 345 854 328 816 315 771 C 301 726 289 674 279 616 L 172 0 L -20 0 L 258 1575 Z" unicode="h" />
<glyph horiz-adv-x="436" d="M 190 1137 L 383 1137 L 180 0 L -10 0 L 190 1137 Z M 256 1507 L 449 1507 L 406 1276 L 213 1276 L 256 1507 Z" unicode="i" />
<glyph horiz-adv-x="436" d="M -158 -166 L -139 -166 C -117 -166 -99 -164 -85 -160 C -71 -156 -60 -149 -52 -139 C -43 -129 -36 -115 -31 -98 C -26 -81 -22 -60 -18 -35 L 190 1137 L 383 1137 L 170 -61 C 160 -113 149 -156 135 -190 C 121 -224 102 -251 78 -271 C 54 -291 24 -304 -12 -312 C -48 -320 -93 -324 -147 -324 L -184 -324 L -158 -166 Z M 256 1507 L 449 1507 L 406 1276 L 213 1276 L 256 1507 Z" unicode="j" />
<glyph horiz-adv-x="926" d="M 260 1575 L 451 1575 L 283 625 L 723 1137 L 940 1137 L 528 655 L 772 0 L 573 0 L 383 508 L 229 330 L 172 0 L -18 0 L 260 1575 Z" unicode="k" />
<glyph horiz-adv-x="520" d="M 313 0 C 309 -1 303 -2 294 -2 C 284 -2 270 -2 252 -2 C 200 -2 159 3 127 14 C 95 24 71 41 55 65 C 39 89 30 119 28 157 C 26 194 29 239 39 293 L 268 1575 L 459 1575 L 231 289 C 227 265 224 246 223 231 C 222 215 225 203 232 194 C 239 184 251 178 269 174 C 286 170 311 168 344 168 L 313 0 L 313 0 Z" unicode="l" />
<glyph horiz-adv-x="1604" d="M 178 1126 L 334 1139 L 328 1042 C 356 1075 396 1102 446 1124 C 496 1146 558 1157 633 1157 C 710 1157 769 1147 809 1127 C 849 1107 877 1074 893 1028 C 925 1067 969 1098 1025 1122 C 1081 1145 1151 1157 1235 1157 C 1288 1157 1333 1151 1369 1140 C 1405 1129 1434 1114 1456 1094 C 1478 1074 1495 1050 1505 1023 C 1515 995 1522 965 1524 933 C 1526 901 1525 866 1521 830 C 1517 794 1511 757 1505 719 L 1380 0 L 1188 0 L 1311 694 C 1319 740 1324 780 1327 815 C 1330 850 1327 879 1318 903 C 1308 927 1291 945 1265 957 C 1239 969 1202 975 1153 975 C 1109 975 1072 967 1042 952 C 1012 936 987 914 967 884 C 947 854 930 816 917 771 C 904 726 893 674 883 616 L 776 0 L 584 0 L 707 694 C 715 740 720 780 723 815 C 726 850 723 879 713 903 C 703 927 686 945 660 957 C 634 969 597 975 549 975 C 505 975 468 967 438 952 C 408 936 384 914 364 884 C 344 854 327 816 315 771 C 302 726 291 674 281 616 L 172 0 L -18 0 L 178 1126 Z" unicode="m" />
<glyph horiz-adv-x="1040" d="M 178 1126 L 334 1139 L 328 1042 C 356 1075 397 1102 450 1124 C 502 1146 567 1157 643 1157 C 697 1157 743 1151 780 1140 C 817 1129 847 1114 870 1094 C 893 1074 910 1050 921 1023 C 932 995 939 965 942 933 C 944 901 944 866 940 830 C 936 794 930 757 924 719 L 797 0 L 604 0 L 727 694 C 735 740 740 780 743 815 C 745 850 741 879 731 903 C 721 927 702 945 675 957 C 648 969 609 975 559 975 C 513 975 475 967 444 952 C 413 936 387 914 367 884 C 346 854 329 816 316 771 C 302 726 291 674 281 616 L 172 0 L -18 0 L 178 1126 Z" unicode="n" />
<glyph horiz-adv-x="1028" d="M 412 -16 C 336 -16 273 -6 223 13 C 172 33 131 60 100 95 C 69 130 47 172 34 220 C 20 268 14 321 14 379 C 14 414 16 451 21 489 C 25 527 31 566 39 608 C 53 691 72 766 96 834 C 120 902 153 959 193 1007 C 233 1055 282 1092 340 1118 C 398 1144 469 1157 553 1157 C 629 1157 692 1147 742 1128 C 792 1108 833 1081 864 1047 C 894 1013 916 972 929 924 C 941 876 948 824 948 768 C 948 730 945 691 941 651 C 937 611 931 571 924 530 C 908 444 889 368 866 300 C 842 232 811 175 772 128 C 733 81 684 45 626 21 C 568 -3 496 -16 412 -16 Z M 426 152 C 478 152 521 161 555 180 C 589 198 618 225 640 259 C 662 293 680 335 694 384 C 707 432 719 487 729 547 C 736 586 742 622 747 656 C 751 690 754 722 754 754 C 754 786 750 816 744 844 C 737 871 725 894 709 914 C 693 934 671 949 643 960 C 615 971 581 977 539 977 C 485 977 441 967 406 947 C 371 927 342 900 320 865 C 297 830 279 789 266 741 C 252 693 241 642 231 586 C 223 548 218 513 215 479 C 212 445 211 413 211 385 C 211 351 214 319 221 291 C 227 263 239 238 255 218 C 271 197 293 181 321 169 C 349 157 384 152 426 152 Z" unicode="o" />
<glyph horiz-adv-x="1057" d="M 178 1126 L 334 1139 L 330 1047 C 364 1083 408 1110 461 1129 C 513 1147 579 1157 657 1157 C 720 1157 772 1148 814 1130 C 856 1112 889 1087 914 1055 C 938 1023 956 986 966 943 C 976 899 981 853 981 803 C 981 761 978 716 973 670 C 967 624 960 578 952 532 C 938 456 922 384 902 318 C 882 251 856 193 823 144 C 790 95 749 56 700 28 C 650 0 590 -14 518 -14 C 468 -14 424 -10 388 -4 C 351 1 320 10 294 22 C 268 33 247 47 231 63 C 215 79 202 97 193 117 L 117 -324 L -74 -324 L 178 1126 Z M 481 154 C 527 154 565 162 595 180 C 625 198 651 223 672 257 C 692 290 709 331 722 379 C 735 427 747 481 758 543 C 765 583 771 621 775 657 C 779 693 782 728 782 760 C 782 792 778 821 772 848 C 766 874 755 897 740 916 C 725 935 705 950 681 961 C 656 971 625 977 588 977 C 532 977 487 968 452 950 C 416 932 387 906 365 872 C 342 838 324 798 311 750 C 297 702 285 648 274 588 C 266 552 261 516 257 482 C 253 448 252 415 252 383 C 252 349 255 317 262 289 C 268 261 280 237 298 217 C 315 197 338 181 368 170 C 398 159 435 154 481 154 Z" unicode="p" />
<glyph horiz-adv-x="1057" d="M 633 88 C 615 70 596 55 576 43 C 556 30 534 19 510 10 C 486 1 459 -5 431 -9 C 402 -13 370 -16 334 -16 C 270 -16 218 -6 176 11 C 134 29 101 55 77 87 C 52 119 35 156 25 200 C 15 244 10 291 10 342 C 10 384 12 428 18 474 C 24 520 31 566 39 612 C 52 688 68 760 88 826 C 108 892 134 950 167 999 C 200 1048 241 1087 291 1115 C 341 1143 402 1157 475 1157 C 528 1157 573 1154 611 1148 C 649 1142 681 1133 707 1121 C 733 1109 754 1096 770 1080 C 786 1064 800 1046 811 1026 L 868 1151 L 1010 1139 L 752 -324 L 561 -324 L 633 88 Z M 406 154 C 460 154 504 163 540 181 C 575 199 604 225 627 259 C 650 293 668 334 682 382 C 695 430 707 485 717 545 C 723 581 728 617 732 651 C 736 685 739 718 739 750 C 739 784 735 815 728 843 C 721 871 709 895 692 915 C 674 935 651 950 621 962 C 591 973 554 979 510 979 C 464 979 426 970 396 952 C 365 934 339 909 319 876 C 299 842 282 802 269 754 C 255 706 243 652 233 592 C 225 550 219 511 215 475 C 211 439 209 405 209 373 C 209 341 212 311 218 284 C 224 257 235 234 250 215 C 265 195 285 180 311 170 C 336 159 368 154 406 154 Z" unicode="q" />
<glyph horiz-adv-x="610" d="M 178 1126 L 334 1139 L 326 1026 C 340 1043 357 1059 377 1074 C 397 1089 420 1102 447 1113 C 474 1123 505 1132 540 1138 C 574 1144 613 1147 657 1147 L 627 967 C 558 967 503 957 461 937 C 419 917 387 891 363 858 C 339 824 321 786 310 742 C 298 698 289 651 281 602 L 172 0 L -18 0 L 178 1126 Z" unicode="r" />
<glyph horiz-adv-x="805" d="M 313 -14 C 265 -14 221 -11 182 -5 C 143 0 107 7 75 17 C 43 26 13 37 -12 49 C -38 61 -63 74 -86 88 L 14 236 C 30 225 49 214 69 203 C 89 192 111 182 136 174 C 160 165 188 158 218 153 C 248 147 281 145 317 145 C 341 145 363 147 385 153 C 407 159 426 168 442 181 C 458 194 471 212 481 234 C 491 256 496 283 496 315 C 496 336 492 355 486 371 C 479 387 468 403 454 418 C 439 433 420 448 397 464 C 373 479 345 496 311 516 C 275 536 242 557 214 578 C 185 598 160 621 140 645 C 119 669 103 695 92 723 C 81 751 76 782 76 817 C 76 880 86 933 107 977 C 128 1020 156 1055 191 1082 C 226 1108 266 1127 311 1139 C 355 1151 401 1157 449 1157 C 526 1157 591 1149 644 1134 C 697 1119 741 1101 776 1081 L 678 930 C 651 945 618 959 580 971 C 541 983 492 989 434 989 C 380 989 338 975 308 949 C 278 922 264 881 264 827 C 264 809 268 792 277 776 C 285 760 298 745 314 731 C 330 717 348 703 370 689 C 392 675 416 660 442 645 C 480 623 513 602 543 580 C 573 558 598 534 618 509 C 638 484 653 457 664 427 C 674 397 680 364 680 326 C 680 260 669 205 648 161 C 626 117 598 83 564 57 C 530 31 491 12 447 2 C 403 -8 358 -14 313 -14 Z" unicode="s" />
<glyph horiz-adv-x="737" d="M 106 1137 L 283 1137 L 369 1438 L 528 1473 L 469 1137 L 727 1137 L 696 969 L 438 969 L 326 322 C 321 296 318 274 318 255 C 317 236 320 220 328 207 C 335 194 347 184 365 178 C 383 171 408 168 440 168 L 557 168 L 526 0 C 518 -1 508 -2 496 -3 C 484 -3 471 -4 457 -4 C 443 -4 431 -5 419 -5 C 407 -5 399 -6 393 -6 C 329 -6 277 0 239 14 C 200 28 171 49 153 77 C 135 105 125 139 124 181 C 122 223 127 272 137 328 L 246 969 L 74 969 L 106 1137 Z" unicode="t" />
<glyph horiz-adv-x="1016" d="M 412 -16 C 318 -16 245 -5 191 16 C 137 37 98 68 73 108 C 48 148 35 198 35 256 C 34 314 40 381 53 455 L 174 1137 L 367 1137 L 246 453 C 238 409 233 370 230 334 C 227 298 231 266 241 240 C 251 213 270 192 298 178 C 325 163 366 156 420 156 C 464 156 499 161 527 171 C 554 181 576 196 593 217 C 610 238 623 265 633 299 C 642 332 651 372 659 418 L 784 1137 L 975 1137 L 846 401 C 832 326 816 262 797 210 C 778 157 752 114 720 80 C 688 46 647 22 597 7 C 547 -8 486 -16 412 -16 Z" unicode="u" />
<glyph horiz-adv-x="922" d="M 84 1137 L 281 1137 L 375 279 L 772 1137 L 971 1137 L 426 -8 L 221 -8 L 84 1137 Z" unicode="v" />
<glyph horiz-adv-x="1438" d="M 92 1137 L 293 1137 L 350 328 L 707 1137 L 887 1137 L 950 344 L 1290 1137 L 1481 1137 L 985 -8 L 795 -8 L 729 776 L 385 -8 L 180 -8 L 92 1137 Z" unicode="w" />
<glyph horiz-adv-x="909" d="M 391 424 L 94 0 L -113 0 L 322 604 L 121 1137 L 319 1137 L 461 762 L 723 1137 L 926 1137 L 528 582 L 750 0 L 551 0 L 391 424 Z" unicode="x" />
<glyph horiz-adv-x="893" d="M -31 -166 L 59 -166 C 75 -166 89 -164 101 -162 C 112 -159 122 -155 131 -149 C 139 -143 147 -136 154 -127 C 160 -117 167 -106 174 -92 L 219 4 L 82 1137 L 283 1137 L 369 295 L 748 1137 L 942 1137 L 334 -139 C 314 -178 295 -210 276 -234 C 257 -258 237 -277 215 -291 C 193 -304 169 -313 144 -317 C 118 -321 90 -324 59 -324 L -57 -324 L -31 -166 Z" unicode="y" />
<glyph horiz-adv-x="815" d="M -70 133 L 555 969 L 109 969 L 139 1137 L 823 1137 L 801 1004 L 170 158 L 668 158 L 639 0 L -92 0 L -70 133 Z" unicode="z" />
<glyph horiz-adv-x="866" d="M 397 -324 C 289 -324 212 -307 166 -274 C 119 -240 96 -191 96 -127 C 96 -97 100 -64 109 -28 C 118 7 130 45 144 84 C 158 122 172 161 188 200 C 204 238 219 275 233 309 C 247 343 258 375 267 403 C 276 431 281 453 281 471 C 281 486 277 498 270 508 C 263 518 252 525 237 531 C 221 536 201 540 177 542 C 153 544 123 545 88 545 L 117 707 C 165 707 205 709 235 713 C 265 717 288 726 305 740 C 321 754 332 774 338 801 C 343 827 346 863 346 909 C 346 929 345 951 344 975 C 343 999 342 1024 341 1050 C 340 1076 339 1102 339 1128 C 338 1154 338 1178 338 1202 C 338 1271 344 1329 358 1377 C 372 1424 393 1462 422 1492 C 451 1521 488 1542 534 1555 C 580 1568 635 1575 700 1575 L 862 1575 L 829 1409 L 729 1409 C 693 1409 662 1405 636 1398 C 610 1390 590 1377 574 1359 C 558 1341 546 1316 539 1284 C 531 1252 528 1211 528 1161 C 528 1121 529 1079 532 1033 C 535 987 537 944 537 903 C 537 864 535 830 531 800 C 527 770 521 743 511 721 C 501 699 488 680 471 665 C 453 649 431 637 403 627 C 430 614 449 599 461 581 C 473 563 479 540 479 514 C 479 490 474 463 466 431 C 457 399 446 366 434 331 C 421 295 407 259 392 222 C 376 185 362 149 350 115 C 337 81 326 49 318 19 C 309 -11 305 -36 305 -57 C 305 -96 317 -124 342 -140 C 367 -156 404 -164 453 -164 L 555 -164 L 526 -324 L 397 -324 L 397 -324 Z" unicode="{" />
<glyph horiz-adv-x="578" d="M 190 1575 L 385 1575 L 385 -324 L 190 -324 L 190 1575 Z" unicode="|" />
<glyph horiz-adv-x="866" d="M -10 -164 L 92 -164 C 127 -164 157 -160 182 -153 C 207 -145 228 -132 244 -113 C 260 -94 271 -69 279 -37 C 287 -5 291 36 291 86 C 291 104 290 125 289 147 C 288 169 287 191 286 214 C 285 237 284 260 284 283 C 283 305 283 327 283 348 C 283 386 284 421 288 451 C 292 481 299 508 309 530 C 319 552 332 571 350 587 C 367 602 390 615 418 625 C 366 648 340 685 340 737 C 340 760 344 787 353 819 C 361 851 372 884 385 919 C 398 954 412 990 428 1026 C 443 1062 457 1098 470 1132 C 483 1166 494 1197 503 1227 C 511 1257 516 1282 516 1303 C 516 1341 503 1369 477 1385 C 451 1401 415 1409 367 1409 L 264 1409 L 293 1575 L 424 1575 C 531 1575 608 1558 655 1525 C 701 1491 725 1442 725 1378 C 725 1348 720 1315 711 1279 C 701 1243 690 1205 676 1167 C 662 1128 648 1089 632 1051 C 616 1013 601 976 587 942 C 573 908 562 876 553 848 C 543 820 539 797 539 780 C 539 764 542 752 549 743 C 556 733 567 726 583 721 C 598 715 618 712 642 710 C 666 708 696 707 731 707 L 702 545 C 652 545 613 543 583 539 C 553 535 530 526 514 512 C 497 498 486 477 481 450 C 475 423 473 387 473 342 C 473 322 473 299 474 275 C 474 251 475 226 476 200 C 477 174 478 149 479 123 C 480 97 481 72 481 49 C 481 -20 474 -78 461 -126 C 447 -173 426 -211 397 -241 C 368 -270 331 -291 286 -304 C 240 -317 185 -324 121 -324 L -43 -324 L -10 -164 Z" unicode="}" />
<glyph horiz-adv-x="965" d="M 221 907 C 256 961 293 1002 331 1028 C 369 1054 409 1067 453 1067 C 479 1067 503 1062 526 1054 C 549 1046 571 1037 592 1027 C 613 1017 633 1007 651 999 C 669 991 687 987 705 987 C 726 987 747 994 768 1009 C 788 1023 810 1047 834 1079 L 954 999 C 919 940 882 897 843 870 C 803 842 765 829 727 829 C 699 829 673 833 650 842 C 626 850 604 860 583 870 C 562 880 542 889 523 898 C 504 906 485 911 467 911 C 443 911 422 904 403 890 C 384 876 364 855 344 825 L 221 907 Z" unicode="~" />
<glyph horiz-adv-x="369" d="" unicode="" />
<glyph horiz-adv-x="629" d="M 285 1087 L 459 1087 L 287 0 L 74 0 L 285 1087 Z M 334 1518 L 565 1518 L 520 1262 L 289 1262 L 334 1518 Z" unicode="" />
<glyph horiz-adv-x="868" d="M 276 4 C 230 14 191 29 160 51 C 128 72 103 98 83 129 C 63 159 49 194 41 234 C 33 274 29 317 29 365 C 29 436 37 518 53 610 C 67 692 86 764 108 828 C 130 891 157 945 190 990 C 223 1035 263 1071 309 1097 C 355 1123 411 1139 475 1147 L 508 1317 L 692 1317 L 662 1145 C 704 1139 739 1131 769 1121 C 798 1110 824 1098 848 1085 L 741 930 C 725 940 708 948 688 956 C 668 963 646 969 621 973 L 475 152 C 501 154 527 158 553 164 C 578 170 605 180 633 193 L 684 47 C 644 28 605 15 567 7 C 529 -1 493 -6 459 -8 L 426 -197 L 242 -197 L 276 4 Z M 225 381 C 225 333 231 291 245 257 C 259 223 282 196 315 178 L 455 963 C 426 953 401 937 379 916 C 357 895 339 869 323 838 C 307 806 293 769 281 727 C 269 685 259 637 250 584 C 242 546 236 509 232 475 C 227 441 225 409 225 381 Z" unicode="" />
<glyph horiz-adv-x="1001" d="M 600 -10 C 527 -10 462 -1 406 14 C 350 30 302 51 262 76 C 222 46 174 25 116 14 C 58 2 -12 -2 -96 0 L -63 170 C -21 170 14 171 44 174 C 74 177 99 183 120 192 C 140 200 157 212 170 228 C 182 244 192 264 199 290 C 206 315 211 346 213 382 C 215 418 217 462 217 512 C 217 538 216 567 215 597 C 214 627 213 658 211 690 L 27 690 L 55 850 L 205 850 C 203 867 203 885 203 903 C 203 921 203 938 203 956 C 203 1056 211 1142 227 1215 C 243 1287 269 1347 303 1395 C 337 1442 381 1477 434 1500 C 486 1522 549 1534 621 1534 C 668 1534 711 1531 751 1527 C 791 1522 827 1515 860 1507 C 893 1499 923 1489 951 1477 C 979 1465 1004 1452 1028 1438 L 924 1288 C 886 1309 842 1326 791 1338 C 740 1350 684 1356 623 1356 C 573 1356 532 1346 502 1328 C 471 1310 447 1283 431 1248 C 415 1212 404 1169 399 1117 C 393 1065 391 1006 391 940 L 391 850 L 725 850 L 696 690 L 393 690 C 394 660 395 630 395 600 C 395 570 395 538 395 504 C 395 443 391 389 385 341 C 379 293 369 250 356 213 C 385 196 418 182 454 172 C 490 161 532 156 580 156 C 601 156 619 159 633 165 C 647 171 659 181 668 194 C 677 206 684 222 690 242 C 696 261 701 284 705 311 L 723 426 L 895 426 L 870 283 C 860 229 849 183 835 146 C 821 109 804 79 783 56 C 762 32 737 15 707 5 C 677 -4 641 -10 600 -10 Z" unicode="" />
<glyph horiz-adv-x="1042" d="M 86 618 L 401 618 L 406 639 L 162 1518 L 365 1518 L 532 829 L 944 1518 L 1151 1518 L 592 633 L 590 618 L 905 618 L 877 459 L 561 459 L 535 313 L 850 313 L 825 154 L 508 154 L 481 0 L 295 0 L 322 154 L 6 154 L 31 313 L 348 313 L 375 459 L 59 459 L 86 618 Z" unicode="" />
<glyph horiz-adv-x="578" d="M 188 463 L 383 463 L 383 -324 L 188 -324 L 188 463 Z M 188 1575 L 383 1575 L 383 788 L 188 788 L 188 1575 Z" unicode="" />
<glyph horiz-adv-x="930" d="M 111 -16 C 101 -16 91 -16 81 -16 C 71 -16 61 -15 51 -15 C 41 -15 33 -14 25 -14 C 17 -14 12 -13 8 -12 L 35 139 L 113 139 C 147 139 174 143 195 151 C 215 159 232 171 244 186 C 256 201 266 219 273 241 C 279 262 285 285 291 311 L 319 467 C 239 481 181 508 146 547 C 111 586 94 638 94 702 C 94 767 102 822 118 867 C 134 912 156 949 185 977 C 214 1005 249 1026 289 1040 C 329 1054 374 1062 422 1065 L 451 1223 C 459 1271 471 1315 486 1353 C 500 1391 521 1423 548 1450 C 575 1476 610 1497 652 1511 C 694 1525 748 1532 813 1532 C 821 1532 830 1531 840 1531 C 850 1531 860 1531 870 1531 C 879 1531 888 1530 896 1530 C 904 1530 909 1530 913 1530 L 885 1370 L 805 1370 C 771 1370 744 1366 724 1358 C 703 1350 686 1338 674 1323 C 661 1308 651 1290 645 1269 C 639 1247 633 1224 629 1198 L 602 1057 C 684 1042 743 1014 780 972 C 817 930 836 877 836 813 C 836 743 827 686 810 641 C 792 596 769 560 739 533 C 709 506 673 487 632 476 C 590 464 546 458 498 457 L 469 293 C 460 244 448 200 434 162 C 419 124 398 91 372 65 C 345 39 311 19 269 5 C 227 -9 174 -16 111 -16 Z M 465 582 C 491 582 517 585 543 591 C 569 597 591 607 611 623 C 630 638 646 659 658 686 C 670 712 676 746 676 788 C 676 834 658 870 624 894 C 589 918 535 930 461 930 C 434 930 408 926 383 920 C 358 914 336 903 317 887 C 298 871 283 849 271 822 C 259 794 254 760 254 719 C 254 673 270 639 304 616 C 338 593 391 582 465 582 Z" unicode="" />
<glyph horiz-adv-x="965" d="M 340 1470 L 512 1470 L 473 1255 L 301 1255 L 340 1470 Z M 705 1470 L 877 1470 L 838 1255 L 664 1255 L 705 1470 Z" unicode="" />
<glyph horiz-adv-x="1366" d="M 696 252 C 622 252 561 264 514 288 C 467 312 430 346 404 391 C 377 435 359 489 349 553 C 339 617 334 688 334 768 C 334 844 338 914 348 977 C 357 1040 375 1094 402 1139 C 429 1183 467 1218 516 1243 C 564 1267 628 1280 707 1280 C 761 1280 808 1274 849 1262 C 889 1250 924 1236 952 1219 L 881 1110 C 862 1122 838 1133 809 1143 C 779 1152 745 1157 705 1157 C 657 1157 617 1149 586 1133 C 555 1117 531 1092 513 1060 C 495 1027 482 986 475 937 C 468 888 465 830 465 764 C 465 698 468 640 475 591 C 481 541 494 500 512 468 C 530 436 554 411 585 395 C 616 379 656 371 705 371 C 726 371 745 372 763 374 C 781 376 797 380 813 384 C 828 388 843 394 857 401 C 871 408 885 416 899 426 L 965 322 C 946 310 928 300 910 292 C 892 283 872 276 851 270 C 830 264 807 259 782 256 C 756 253 728 252 696 252 Z M 686 -20 C 567 -20 469 0 391 37 C 313 75 252 129 207 198 C 161 267 129 349 111 444 C 93 539 84 644 84 758 C 84 872 93 976 111 1072 C 129 1168 161 1250 207 1320 C 252 1389 313 1443 391 1482 C 469 1520 567 1540 686 1540 C 804 1540 901 1520 979 1482 C 1057 1443 1118 1389 1164 1320 C 1210 1250 1242 1168 1260 1072 C 1278 976 1288 872 1288 758 C 1288 644 1278 539 1260 444 C 1242 349 1210 267 1164 198 C 1118 129 1057 75 979 37 C 901 0 804 -20 686 -20 Z M 686 61 C 788 61 873 78 940 112 C 1006 146 1059 194 1098 256 C 1137 318 1164 391 1180 477 C 1196 562 1204 656 1204 758 C 1204 860 1196 954 1180 1040 C 1164 1126 1137 1200 1098 1262 C 1059 1324 1006 1372 940 1406 C 873 1440 788 1458 686 1458 C 583 1458 498 1440 432 1406 C 366 1372 313 1324 275 1262 C 236 1200 209 1126 194 1040 C 179 954 172 860 172 758 C 172 656 179 562 194 477 C 209 391 236 318 275 256 C 313 194 366 146 432 112 C 498 78 583 61 686 61 Z" unicode="" />
<glyph horiz-adv-x="901" d="M 358 586 C 271 586 208 604 168 640 C 128 676 109 732 109 807 C 109 885 119 949 139 1000 C 159 1050 187 1090 225 1120 C 262 1149 308 1169 362 1181 C 416 1192 478 1198 547 1198 L 664 1198 C 668 1227 671 1253 673 1277 C 674 1301 671 1321 663 1337 C 655 1353 641 1366 621 1375 C 601 1384 573 1389 535 1389 C 497 1389 460 1386 424 1380 C 388 1374 356 1366 328 1354 L 276 1489 C 317 1505 361 1517 409 1524 C 456 1530 503 1534 551 1534 C 622 1534 678 1526 718 1510 C 758 1494 788 1472 806 1442 C 824 1412 832 1375 832 1331 C 832 1287 827 1238 817 1182 L 754 821 C 750 803 748 788 748 777 C 747 766 748 757 752 751 C 756 745 762 740 771 738 C 780 736 793 735 811 735 L 786 594 C 778 594 770 593 763 593 C 755 592 747 592 739 592 C 689 592 654 600 635 617 C 616 633 606 658 604 692 C 590 671 573 654 555 640 C 537 626 517 616 496 608 C 475 600 453 594 430 591 C 406 587 382 586 358 586 Z M 412 719 C 432 719 453 721 475 727 C 496 732 516 742 534 756 C 552 770 567 791 581 817 C 595 843 605 878 612 920 L 641 1075 L 559 1075 C 508 1075 464 1072 428 1066 C 391 1060 361 1048 337 1031 C 313 1013 296 989 285 958 C 273 927 268 887 268 838 C 268 794 279 763 302 745 C 325 727 362 719 412 719 Z M 70 436 L 702 436 L 680 293 L 45 293 L 70 436 Z" unicode="" />
<glyph horiz-adv-x="1178" d="M 104 567 L 455 1137 L 623 1137 L 289 567 L 422 0 L 252 0 L 104 567 Z M 549 567 L 895 1137 L 1065 1137 L 729 567 L 864 0 L 694 0 L 549 567 Z" unicode="" />
<glyph horiz-adv-x="1159" d="M 901 254 L 717 254 L 786 637 L 147 637 L 180 805 L 999 805 L 901 254 Z" unicode="" />
<glyph horiz-adv-x="723" d="M 72 733 L 641 733 L 608 555 L 41 555 L 72 733 Z" unicode="" />
<glyph horiz-adv-x="1366" d="M 686 -20 C 567 -20 469 0 391 37 C 313 75 252 129 207 198 C 161 267 129 349 111 444 C 93 539 84 644 84 758 C 84 872 93 976 111 1072 C 129 1168 161 1250 207 1320 C 252 1389 313 1443 391 1482 C 469 1520 567 1540 686 1540 C 804 1540 901 1520 979 1482 C 1057 1443 1118 1389 1164 1320 C 1210 1250 1242 1168 1260 1072 C 1278 976 1288 872 1288 758 C 1288 644 1278 539 1260 444 C 1242 349 1210 267 1164 198 C 1118 129 1057 75 979 37 C 901 0 804 -20 686 -20 Z M 686 61 C 788 61 873 78 940 112 C 1006 146 1059 194 1098 256 C 1137 318 1164 391 1180 477 C 1196 562 1204 656 1204 758 C 1204 860 1196 954 1180 1040 C 1164 1126 1137 1200 1098 1262 C 1059 1324 1006 1372 940 1406 C 873 1440 788 1458 686 1458 C 583 1458 498 1440 432 1406 C 366 1372 313 1324 275 1262 C 236 1200 209 1126 194 1040 C 179 954 172 860 172 758 C 172 656 179 562 194 477 C 209 391 236 318 275 256 C 313 194 366 146 432 112 C 498 78 583 61 686 61 Z M 700 664 L 524 664 L 524 266 L 399 266 L 399 1260 L 727 1260 C 782 1260 828 1254 866 1242 C 904 1230 934 1211 957 1187 C 980 1163 997 1132 1007 1096 C 1017 1059 1022 1016 1022 967 C 1022 925 1018 887 1011 854 C 1004 820 993 791 978 767 C 962 742 942 722 917 706 C 892 690 861 678 825 672 L 1012 266 L 881 266 L 700 664 Z M 723 768 C 754 768 780 771 802 778 C 824 784 841 795 855 810 C 869 825 879 845 885 869 C 891 893 895 923 895 958 C 895 992 891 1022 885 1046 C 879 1070 869 1090 855 1106 C 841 1121 824 1132 802 1139 C 780 1145 754 1149 723 1149 L 524 1149 L 524 768 L 723 768 Z" unicode="" />
<glyph horiz-adv-x="965" d="M 283 1415 L 911 1415 L 885 1255 L 254 1255 L 283 1415 Z" unicode="" />
<glyph horiz-adv-x="922" d="M 459 567 C 395 567 341 575 299 591 C 257 607 223 630 198 658 C 172 686 154 720 144 759 C 134 797 129 839 129 885 C 129 915 130 947 134 979 C 138 1011 143 1044 150 1077 C 162 1145 177 1207 196 1263 C 215 1319 241 1367 273 1407 C 305 1447 345 1478 393 1500 C 441 1522 501 1534 571 1534 C 633 1534 686 1525 728 1509 C 770 1492 804 1469 829 1440 C 854 1410 872 1376 883 1337 C 893 1297 899 1255 899 1210 C 899 1148 893 1082 881 1014 C 868 947 852 886 832 832 C 812 777 786 730 754 691 C 722 651 682 621 634 599 C 586 577 527 567 459 567 Z M 469 717 C 511 717 547 724 575 739 C 603 753 626 774 645 801 C 663 828 678 861 690 900 C 701 938 711 982 721 1030 C 726 1058 730 1085 732 1112 C 734 1138 735 1163 735 1186 C 735 1213 732 1238 727 1261 C 721 1284 712 1304 698 1321 C 684 1337 666 1350 644 1360 C 621 1369 593 1374 559 1374 C 515 1374 479 1366 451 1351 C 423 1336 399 1315 381 1287 C 362 1259 347 1226 336 1188 C 325 1149 315 1106 307 1059 C 301 1029 297 1000 294 974 C 290 947 289 922 289 899 C 289 871 291 846 297 824 C 303 802 313 783 327 767 C 341 751 359 738 382 730 C 405 721 434 717 469 717 Z" unicode="" />
<glyph horiz-adv-x="1159" d="M 467 637 L 150 637 L 178 805 L 496 805 L 563 1186 L 748 1186 L 680 805 L 997 805 L 969 637 L 649 637 L 582 254 L 399 254 L 467 637 Z M 72 197 L 891 197 L 862 27 L 41 27 L 72 197 Z" unicode="" />
<glyph horiz-adv-x="774" d="M 100 696 L 354 950 C 388 984 418 1014 443 1040 C 468 1066 489 1089 507 1109 C 524 1129 538 1147 549 1163 C 559 1179 567 1194 573 1209 C 579 1223 583 1238 585 1252 C 587 1266 588 1282 588 1300 C 588 1331 577 1353 555 1366 C 533 1379 499 1386 451 1386 C 427 1386 399 1383 369 1378 C 338 1373 309 1365 283 1354 L 240 1481 C 274 1496 313 1508 355 1516 C 397 1524 441 1528 487 1528 C 534 1528 574 1523 607 1515 C 640 1506 667 1493 688 1477 C 709 1460 724 1440 734 1417 C 743 1393 748 1367 748 1337 C 748 1311 746 1287 744 1265 C 742 1243 737 1222 730 1202 C 723 1181 713 1160 701 1138 C 688 1116 671 1093 650 1067 C 629 1041 603 1011 573 979 C 543 947 507 910 465 868 L 301 705 L 647 705 L 623 575 L 80 575 L 100 696 Z" unicode="" />
<glyph horiz-adv-x="770" d="M 369 565 C 333 565 300 567 271 571 C 242 575 216 580 192 587 C 168 594 147 602 129 612 C 110 621 93 631 78 641 L 164 762 C 176 754 188 746 202 738 C 215 730 230 724 246 718 C 262 712 279 708 299 705 C 319 701 341 700 365 700 C 397 700 424 704 446 713 C 468 722 486 735 500 753 C 514 771 524 792 530 818 C 536 844 539 873 539 907 C 539 927 536 943 532 957 C 527 970 519 980 507 988 C 495 996 478 1001 458 1005 C 437 1008 411 1010 379 1010 L 272 1010 L 295 1147 L 422 1147 C 454 1146 480 1149 502 1155 C 523 1161 540 1171 552 1184 C 564 1197 573 1214 578 1234 C 583 1254 586 1277 586 1303 C 586 1320 583 1334 578 1345 C 573 1356 565 1365 555 1372 C 545 1378 531 1383 514 1385 C 497 1387 477 1389 453 1389 C 429 1389 402 1387 372 1383 C 341 1379 311 1371 281 1360 L 236 1485 C 253 1493 272 1499 293 1505 C 314 1510 336 1514 358 1518 C 380 1521 403 1523 425 1525 C 447 1527 469 1528 489 1528 C 530 1528 566 1525 598 1519 C 630 1513 656 1503 678 1489 C 699 1475 715 1456 726 1433 C 737 1409 743 1380 743 1346 C 743 1318 740 1290 736 1262 C 732 1234 724 1208 714 1184 C 703 1160 689 1138 672 1120 C 655 1102 634 1089 608 1081 C 638 1069 659 1050 672 1026 C 685 1001 692 966 692 920 C 692 866 686 817 674 773 C 662 729 644 692 618 661 C 592 630 558 606 517 590 C 476 573 427 565 369 565 Z" unicode="" />
<glyph horiz-adv-x="965" d="M 721 1587 L 936 1587 L 602 1255 L 430 1255 L 721 1587 Z" unicode="" />
<glyph horiz-adv-x="1036" d="M 334 -16 C 284 -16 247 -9 222 3 C 197 16 180 34 170 57 L 104 -324 L -80 -324 C -64 -237 -51 -160 -39 -92 C -27 -24 -17 36 -7 92 C 3 148 12 199 20 247 C 28 294 37 341 45 388 C 53 434 62 482 71 531 C 79 580 89 634 99 693 C 109 751 121 817 134 889 C 146 961 161 1044 178 1137 L 371 1137 L 246 436 C 238 390 232 349 230 314 C 228 279 232 250 242 226 C 252 202 271 184 298 172 C 325 160 364 154 416 154 C 460 154 498 161 528 176 C 558 191 583 214 603 244 C 623 274 639 311 652 355 C 664 399 676 450 686 508 L 797 1137 L 989 1137 L 791 8 L 635 -6 L 641 133 C 612 89 573 53 523 25 C 473 -2 410 -16 334 -16 Z" unicode="" />
<glyph horiz-adv-x="1059" d="M 373 616 C 324 627 283 643 250 663 C 216 683 189 706 169 734 C 148 762 133 793 125 829 C 116 864 112 903 113 946 C 113 968 114 991 117 1015 C 119 1039 123 1064 127 1092 C 140 1170 159 1236 184 1290 C 209 1344 242 1387 282 1421 C 322 1455 370 1479 426 1495 C 482 1510 547 1518 623 1518 L 1065 1518 L 797 0 L 608 0 L 713 596 L 557 596 L 453 0 L 264 0 L 373 616 Z M 741 754 L 848 1343 L 610 1343 C 570 1343 534 1338 502 1330 C 470 1321 442 1306 418 1285 C 394 1263 373 1235 357 1199 C 340 1163 327 1117 317 1063 C 313 1043 311 1025 309 1007 C 307 989 307 972 307 958 C 307 923 312 893 322 867 C 332 841 349 820 372 804 C 394 787 423 774 459 766 C 495 758 538 754 588 754 L 741 754 Z" unicode="" />
<glyph horiz-adv-x="442" d="M 119 834 L 350 834 L 305 571 L 72 571 L 119 834 Z" unicode="" />
<glyph horiz-adv-x="965" d="M 338 -453 C 292 -453 249 -448 210 -439 C 170 -430 137 -419 109 -406 L 158 -299 C 180 -309 206 -318 235 -326 C 264 -334 294 -338 326 -338 C 364 -338 394 -330 414 -315 C 434 -300 444 -272 444 -231 C 444 -202 431 -183 407 -175 C 383 -167 348 -164 303 -166 L 264 -133 L 317 14 L 432 14 L 397 -88 C 451 -86 494 -97 526 -120 C 557 -142 573 -179 573 -231 C 573 -274 567 -310 557 -338 C 546 -366 530 -389 510 -406 C 490 -423 465 -435 436 -442 C 407 -449 374 -453 338 -453 Z" unicode="" />
<glyph horiz-adv-x="561" d="M 340 1376 L 203 1376 L 229 1518 L 526 1518 L 360 575 L 201 575 L 340 1376 Z" unicode="" />
<glyph horiz-adv-x="901" d="M 444 582 C 383 582 332 589 291 605 C 250 621 217 643 193 671 C 168 699 150 732 140 771 C 130 810 125 853 125 901 C 125 929 126 959 129 990 C 131 1020 135 1053 141 1087 C 153 1155 170 1216 190 1272 C 210 1327 237 1374 269 1413 C 301 1451 340 1481 387 1502 C 434 1523 491 1534 559 1534 C 621 1534 672 1526 714 1510 C 755 1494 788 1473 813 1445 C 837 1417 855 1383 865 1345 C 875 1306 881 1264 881 1219 C 881 1157 874 1092 860 1024 C 848 955 832 893 814 839 C 795 784 770 738 738 700 C 706 662 667 632 619 612 C 571 592 513 582 444 582 Z M 457 723 C 499 723 533 730 561 746 C 588 761 610 782 628 810 C 645 837 659 870 669 909 C 679 947 688 990 696 1038 C 703 1070 708 1099 712 1127 C 715 1155 717 1181 717 1206 C 717 1232 714 1255 709 1277 C 704 1298 695 1316 682 1332 C 669 1348 652 1360 630 1369 C 608 1377 581 1382 547 1382 C 507 1382 473 1374 446 1359 C 418 1344 395 1323 377 1295 C 359 1267 344 1234 332 1196 C 320 1157 311 1114 303 1067 C 297 1037 293 1008 291 981 C 288 954 287 929 287 907 C 287 880 289 855 295 833 C 300 811 309 791 322 775 C 335 759 352 746 374 737 C 396 727 423 723 457 723 Z M 66 436 L 721 436 L 696 293 L 39 293 L 66 436 Z" unicode="" />
<glyph horiz-adv-x="1178" d="M 381 569 L 246 1137 L 418 1137 L 563 569 L 217 0 L 43 0 L 381 569 Z M 823 569 L 688 1137 L 858 1137 L 1004 569 L 657 0 L 487 0 L 823 569 Z" unicode="" />
<glyph horiz-adv-x="1554" d="M 1122 1518 L 1298 1518 L 365 0 L 190 0 L 1122 1518 Z M 764 311 L 1206 942 L 1366 942 L 928 317 L 1139 317 L 1212 569 L 1327 569 L 1280 317 L 1407 317 L 1384 190 L 1257 190 L 1225 0 L 1083 0 L 1116 190 L 741 190 L 764 311 Z M 354 1376 L 217 1376 L 244 1518 L 541 1518 L 375 575 L 215 575 L 354 1376 Z" unicode="" />
<glyph horiz-adv-x="1655" d="M 1122 1518 L 1298 1518 L 365 0 L 190 0 L 1122 1518 Z M 354 1376 L 217 1376 L 244 1518 L 541 1518 L 375 575 L 215 575 L 354 1376 Z M 881 121 L 1137 373 C 1188 425 1229 467 1260 501 C 1290 534 1314 563 1330 587 C 1346 611 1356 634 1361 655 C 1365 675 1368 699 1368 725 C 1368 755 1357 777 1336 790 C 1314 802 1280 809 1233 809 C 1221 809 1208 808 1194 807 C 1180 805 1165 803 1150 801 C 1135 798 1120 795 1105 791 C 1090 787 1076 782 1063 776 L 1020 905 C 1055 920 1094 932 1137 940 C 1180 948 1224 952 1270 952 C 1316 952 1356 947 1389 939 C 1421 930 1448 917 1469 901 C 1489 885 1504 865 1514 842 C 1523 818 1528 792 1528 762 C 1528 736 1526 712 1524 690 C 1522 668 1517 646 1511 625 C 1504 604 1494 583 1482 562 C 1469 540 1452 517 1432 491 C 1411 465 1385 435 1355 403 C 1325 371 1289 334 1247 293 L 1081 129 L 1427 129 L 1403 0 L 860 0 L 881 121 Z" unicode="" />
<glyph horiz-adv-x="1706" d="M 373 565 C 337 565 304 567 275 571 C 246 575 220 580 196 587 C 172 594 151 602 133 612 C 114 621 97 631 82 641 L 168 762 C 180 754 192 746 206 738 C 219 730 234 724 250 718 C 266 712 283 708 303 705 C 323 701 345 700 369 700 C 401 700 428 704 450 713 C 472 722 490 735 504 753 C 518 771 528 792 534 818 C 540 844 543 873 543 907 C 543 927 540 943 536 957 C 531 970 523 980 511 988 C 499 996 482 1001 462 1005 C 441 1008 415 1010 383 1010 L 276 1010 L 299 1147 L 426 1147 C 458 1146 484 1149 506 1155 C 527 1161 544 1171 556 1184 C 568 1197 577 1214 582 1234 C 587 1254 590 1277 590 1303 C 590 1320 587 1334 582 1345 C 577 1356 569 1365 559 1372 C 549 1378 535 1383 518 1385 C 501 1387 481 1389 457 1389 C 433 1389 406 1387 376 1383 C 345 1379 315 1371 285 1360 L 240 1485 C 257 1493 276 1499 297 1505 C 318 1510 340 1514 363 1518 C 385 1521 408 1523 430 1525 C 452 1527 474 1528 494 1528 C 535 1528 571 1525 603 1519 C 635 1513 661 1503 683 1489 C 704 1475 720 1456 731 1433 C 742 1409 748 1380 748 1346 C 748 1318 745 1290 741 1262 C 736 1234 728 1208 718 1184 C 708 1160 694 1138 677 1120 C 659 1102 638 1089 612 1081 C 642 1069 663 1050 676 1026 C 689 1001 696 966 696 920 C 696 866 690 817 678 773 C 666 729 648 692 622 661 C 596 630 562 606 521 590 C 480 573 431 565 373 565 Z M 1274 1518 L 1448 1518 L 512 0 L 338 0 L 1274 1518 Z M 918 311 L 1356 942 L 1518 942 L 1079 317 L 1290 317 L 1362 569 L 1479 569 L 1432 317 L 1559 317 L 1536 190 L 1409 190 L 1376 0 L 1231 0 L 1266 190 L 893 190 L 918 311 Z" unicode="" />
<glyph horiz-adv-x="1096" d="M 461 -16 C 386 -16 324 -8 274 6 C 224 21 184 41 154 67 C 124 93 102 123 90 158 C 78 192 72 230 72 270 C 72 327 78 378 92 422 C 105 466 123 505 147 540 C 170 575 198 607 230 636 C 262 664 298 692 336 719 C 370 744 399 766 423 786 C 447 805 467 823 483 841 C 499 858 511 875 521 892 C 531 908 539 927 545 947 C 551 967 557 989 561 1014 C 565 1038 569 1067 575 1100 L 762 1100 C 757 1063 752 1030 747 1000 C 742 970 736 942 728 917 C 720 891 711 867 699 845 C 687 822 671 799 652 777 C 632 754 609 731 581 707 C 553 683 520 657 481 629 C 445 605 415 582 389 560 C 363 538 341 515 324 491 C 307 467 294 442 286 414 C 278 386 274 353 274 317 C 274 295 277 274 284 255 C 291 236 303 220 320 206 C 337 192 360 182 389 174 C 418 166 454 162 498 162 C 520 162 544 163 570 167 C 595 171 620 175 645 181 C 669 187 693 193 715 201 C 737 209 758 217 776 225 L 856 66 C 832 54 805 43 773 33 C 741 23 708 14 673 7 C 637 0 601 -6 565 -10 C 529 -14 494 -16 461 -16 Z M 627 1518 L 858 1518 L 815 1284 L 586 1284 L 627 1518 Z" unicode="" />
<glyph horiz-adv-x="1200" d="M 641 1528 L 829 1528 L 1024 0 L 821 0 L 784 315 L 256 315 L 109 0 L -96 0 L 641 1528 Z M 766 496 L 682 1221 L 336 496 L 766 496 Z M 492 1935 L 700 1935 L 870 1604 L 709 1604 L 492 1935 Z" unicode="" />
<glyph horiz-adv-x="1200" d="M 641 1528 L 829 1528 L 1024 0 L 821 0 L 784 315 L 256 315 L 109 0 L -96 0 L 641 1528 Z M 766 496 L 682 1221 L 336 496 L 766 496 Z M 897 1935 L 1112 1935 L 778 1604 L 606 1604 L 897 1935 Z" unicode="" />
<glyph horiz-adv-x="1200" d="M 641 1528 L 829 1528 L 1024 0 L 821 0 L 784 315 L 256 315 L 109 0 L -96 0 L 641 1528 Z M 766 496 L 682 1221 L 336 496 L 766 496 Z M 713 1935 L 895 1935 L 1063 1604 L 909 1604 L 780 1800 L 586 1604 L 426 1604 L 713 1935 Z" unicode="" />
<glyph horiz-adv-x="1200" d="M 641 1528 L 829 1528 L 1024 0 L 821 0 L 784 315 L 256 315 L 109 0 L -96 0 L 641 1528 Z M 766 496 L 682 1221 L 336 496 L 766 496 Z M 397 1677 C 432 1731 469 1772 507 1798 C 545 1824 585 1837 629 1837 C 655 1837 679 1832 702 1824 C 725 1816 747 1807 768 1797 C 789 1787 809 1777 827 1769 C 845 1761 863 1757 881 1757 C 902 1757 923 1764 944 1779 C 965 1793 987 1817 1010 1849 L 1130 1769 C 1095 1710 1058 1667 1019 1640 C 979 1612 941 1599 903 1599 C 875 1599 850 1603 826 1612 C 802 1620 780 1630 759 1640 C 738 1650 718 1659 699 1668 C 680 1676 661 1681 643 1681 C 619 1681 598 1674 579 1660 C 560 1646 540 1625 520 1595 L 397 1677 Z" unicode="" />
<glyph horiz-adv-x="1200" d="M 641 1528 L 829 1528 L 1024 0 L 821 0 L 784 315 L 256 315 L 109 0 L -96 0 L 641 1528 Z M 766 496 L 682 1221 L 336 496 L 766 496 Z M 516 1819 L 688 1819 L 649 1604 L 477 1604 L 516 1819 Z M 881 1819 L 1053 1819 L 1014 1604 L 840 1604 L 881 1819 Z" unicode="" />
<glyph horiz-adv-x="1200" d="M 604 1452 C 577 1469 558 1491 547 1519 C 535 1547 530 1578 530 1612 C 530 1656 535 1696 546 1732 C 556 1768 572 1798 593 1824 C 613 1850 639 1870 670 1884 C 700 1898 736 1905 776 1905 C 812 1905 842 1900 867 1890 C 892 1880 912 1866 928 1849 C 944 1831 955 1811 962 1788 C 969 1764 973 1739 973 1712 C 973 1649 961 1595 938 1549 C 914 1503 882 1469 840 1448 L 1024 0 L 821 0 L 784 315 L 256 315 L 109 0 L -96 0 L 604 1452 Z M 766 496 L 682 1221 L 336 496 L 766 496 Z M 637 1622 C 637 1598 642 1578 652 1560 C 662 1542 681 1532 709 1528 L 758 1528 C 792 1534 819 1552 838 1583 C 856 1614 866 1654 866 1704 C 866 1732 859 1756 845 1774 C 831 1792 806 1802 770 1802 C 728 1802 695 1785 672 1753 C 648 1720 637 1676 637 1622 Z" unicode="" />
<glyph horiz-adv-x="1765" d="M 893 1518 L 1806 1518 L 1772 1335 L 1157 1335 L 1077 872 L 1659 872 L 1626 694 L 1044 694 L 952 178 L 1571 178 L 1542 0 L 729 0 L 784 324 L 313 324 L 100 0 L -106 0 L 893 1518 Z M 813 494 L 958 1309 L 422 494 L 813 494 Z" unicode="" />
<glyph horiz-adv-x="1042" d="M 373 -453 C 327 -453 284 -448 244 -439 C 204 -430 171 -419 143 -406 L 193 -299 C 215 -309 241 -318 270 -326 C 299 -334 329 -338 360 -338 C 399 -338 429 -330 449 -315 C 469 -300 479 -272 479 -231 C 479 -202 466 -183 442 -175 C 418 -167 383 -164 338 -166 L 299 -133 L 346 0 C 289 14 241 35 201 63 C 161 91 129 126 104 167 C 79 207 61 253 50 305 C 38 357 33 413 33 475 C 33 525 36 577 42 632 C 48 687 57 745 68 805 C 88 921 114 1024 146 1114 C 177 1204 218 1281 268 1343 C 318 1405 380 1452 453 1485 C 525 1517 613 1534 717 1534 C 803 1534 877 1524 939 1504 C 1001 1484 1050 1460 1087 1434 L 975 1264 C 962 1272 947 1280 930 1289 C 912 1298 892 1306 869 1314 C 846 1322 820 1328 790 1333 C 760 1338 727 1341 690 1341 C 630 1341 577 1330 532 1310 C 487 1289 448 1256 414 1212 C 380 1167 352 1109 328 1038 C 304 966 284 880 266 780 C 246 668 236 569 236 485 C 236 378 259 297 306 243 C 352 189 429 162 537 162 C 635 162 723 184 801 229 L 889 78 C 834 46 775 22 713 7 C 651 -8 584 -16 512 -16 C 502 -16 492 -16 483 -16 C 473 -16 465 -15 457 -14 L 432 -88 C 486 -86 529 -97 561 -120 C 592 -142 608 -179 608 -231 C 608 -274 602 -310 592 -338 C 581 -366 565 -389 545 -406 C 525 -423 500 -435 471 -442 C 442 -449 409 -453 373 -453 Z" unicode="" />
<glyph horiz-adv-x="1038" d="M 268 1518 L 1079 1518 L 1047 1335 L 430 1335 L 350 874 L 930 874 L 897 694 L 315 694 L 225 178 L 844 178 L 813 0 L 0 0 L 268 1518 Z M 412 1935 L 621 1935 L 791 1604 L 629 1604 L 412 1935 Z" unicode="" />
<glyph horiz-adv-x="1038" d="M 817 1935 L 1032 1935 L 698 1604 L 526 1604 L 817 1935 Z M 268 1518 L 1079 1518 L 1047 1335 L 430 1335 L 350 874 L 930 874 L 897 694 L 315 694 L 225 178 L 844 178 L 813 0 L 0 0 L 268 1518 Z" unicode="" />
<glyph horiz-adv-x="1038" d="M 633 1935 L 815 1935 L 983 1604 L 829 1604 L 700 1800 L 506 1604 L 346 1604 L 633 1935 Z M 268 1518 L 1079 1518 L 1047 1335 L 430 1335 L 350 874 L 930 874 L 897 694 L 315 694 L 225 178 L 844 178 L 813 0 L 0 0 L 268 1518 Z" unicode="" />
<glyph horiz-adv-x="1038" d="M 436 1819 L 608 1819 L 569 1604 L 397 1604 L 436 1819 Z M 801 1819 L 973 1819 L 934 1604 L 760 1604 L 801 1819 Z M 268 1518 L 1079 1518 L 1047 1335 L 430 1335 L 350 874 L 930 874 L 897 694 L 315 694 L 225 178 L 844 178 L 813 0 L 0 0 L 268 1518 Z" unicode="" />
<glyph horiz-adv-x="492" d="M 123 1937 L 332 1937 L 461 1604 L 301 1604 L 123 1937 Z M 281 1518 L 479 1518 L 211 0 L 12 0 L 281 1518 Z" unicode="" />
<glyph horiz-adv-x="492" d="M 545 1937 L 762 1937 L 475 1604 L 305 1604 L 545 1937 Z M 281 1518 L 479 1518 L 211 0 L 12 0 L 281 1518 Z" unicode="" />
<glyph horiz-adv-x="492" d="M 281 1518 L 479 1518 L 211 0 L 12 0 L 281 1518 Z M 362 1935 L 545 1935 L 713 1604 L 559 1604 L 430 1800 L 236 1604 L 76 1604 L 362 1935 Z" unicode="" />
<glyph horiz-adv-x="492" d="M 281 1518 L 479 1518 L 211 0 L 12 0 L 281 1518 Z M 166 1819 L 338 1819 L 299 1604 L 127 1604 L 166 1819 Z M 530 1819 L 702 1819 L 664 1604 L 489 1604 L 530 1819 Z" unicode="" />
<glyph horiz-adv-x="1204" d="M 20 862 L 152 862 L 268 1518 L 639 1518 C 736 1518 818 1507 886 1487 C 954 1467 1009 1436 1051 1396 C 1093 1356 1123 1305 1142 1245 C 1161 1185 1171 1115 1171 1036 C 1171 986 1167 934 1161 879 C 1155 823 1147 766 1137 707 C 1114 578 1086 469 1053 379 C 1019 289 977 216 925 160 C 873 104 811 63 737 38 C 663 12 574 0 471 0 L 0 0 L 123 698 L -8 698 L 20 862 Z M 496 174 C 562 174 619 184 667 204 C 715 224 755 256 789 300 C 823 344 851 401 874 471 C 897 541 918 627 936 727 C 946 781 954 831 960 879 C 966 927 969 972 969 1014 C 969 1068 963 1115 951 1155 C 939 1195 920 1228 893 1255 C 866 1281 831 1301 788 1315 C 744 1328 691 1335 629 1335 L 434 1335 L 350 862 L 592 862 L 561 698 L 322 698 L 229 174 L 496 174 Z" unicode="" />
<glyph horiz-adv-x="1260" d="M 268 1518 L 481 1518 L 872 393 L 1071 1518 L 1262 1518 L 993 0 L 809 0 L 395 1174 L 186 0 L 0 0 L 268 1518 Z M 428 1677 C 463 1731 499 1772 537 1798 C 575 1824 615 1837 659 1837 C 685 1837 709 1832 733 1824 C 756 1816 778 1807 799 1797 C 819 1787 839 1777 858 1769 C 876 1761 894 1757 911 1757 C 932 1757 953 1764 974 1779 C 995 1793 1017 1817 1040 1849 L 1161 1769 C 1126 1710 1089 1667 1050 1640 C 1010 1612 972 1599 934 1599 C 906 1599 880 1603 857 1612 C 833 1620 811 1630 790 1640 C 769 1650 749 1659 730 1668 C 711 1676 692 1681 674 1681 C 650 1681 629 1674 610 1660 C 591 1646 571 1625 551 1595 L 428 1677 Z" unicode="" />
<glyph horiz-adv-x="1262" d="M 537 -16 C 438 -16 356 -3 292 23 C 227 49 175 84 137 129 C 99 174 72 227 56 288 C 40 348 33 413 33 483 C 33 535 36 588 42 641 C 48 694 57 749 68 805 C 80 875 94 941 110 1005 C 126 1068 147 1127 171 1181 C 195 1235 223 1283 256 1327 C 288 1370 327 1407 371 1438 C 415 1468 465 1492 522 1509 C 579 1525 644 1534 717 1534 C 817 1534 900 1520 966 1494 C 1032 1468 1084 1432 1123 1387 C 1162 1341 1189 1288 1205 1226 C 1221 1164 1229 1098 1229 1028 C 1229 976 1225 924 1219 870 C 1213 816 1205 761 1196 705 C 1183 635 1168 569 1152 506 C 1135 443 1115 385 1091 332 C 1067 278 1038 230 1006 187 C 973 144 934 108 890 78 C 845 48 794 24 736 8 C 678 -7 611 -16 537 -16 Z M 547 162 C 623 162 686 175 736 201 C 786 227 828 265 862 314 C 895 362 922 421 942 490 C 962 558 979 635 995 721 C 1004 773 1012 823 1018 872 C 1024 921 1028 968 1028 1012 C 1028 1060 1023 1105 1013 1145 C 1003 1185 986 1220 962 1250 C 938 1279 906 1302 866 1318 C 826 1334 777 1343 717 1343 C 640 1343 576 1329 525 1302 C 474 1275 432 1237 399 1188 C 365 1138 338 1079 318 1009 C 298 939 280 862 266 778 C 256 726 248 675 242 626 C 236 576 233 531 233 489 C 233 440 237 396 247 356 C 257 316 274 281 298 253 C 322 224 354 202 394 186 C 434 170 485 162 547 162 Z M 524 1935 L 733 1935 L 903 1604 L 741 1604 L 524 1935 Z" unicode="" />
<glyph horiz-adv-x="1262" d="M 930 1935 L 1145 1935 L 811 1604 L 639 1604 L 930 1935 Z M 537 -16 C 438 -16 356 -3 292 23 C 227 49 175 84 137 129 C 99 174 72 227 56 288 C 40 348 33 413 33 483 C 33 535 36 588 42 641 C 48 694 57 749 68 805 C 80 875 94 941 110 1005 C 126 1068 147 1127 171 1181 C 195 1235 223 1283 256 1327 C 288 1370 327 1407 371 1438 C 415 1468 465 1492 522 1509 C 579 1525 644 1534 717 1534 C 817 1534 900 1520 966 1494 C 1032 1468 1084 1432 1123 1387 C 1162 1341 1189 1288 1205 1226 C 1221 1164 1229 1098 1229 1028 C 1229 976 1225 924 1219 870 C 1213 816 1205 761 1196 705 C 1183 635 1168 569 1152 506 C 1135 443 1115 385 1091 332 C 1067 278 1038 230 1006 187 C 973 144 934 108 890 78 C 845 48 794 24 736 8 C 678 -7 611 -16 537 -16 Z M 547 162 C 623 162 686 175 736 201 C 786 227 828 265 862 314 C 895 362 922 421 942 490 C 962 558 979 635 995 721 C 1004 773 1012 823 1018 872 C 1024 921 1028 968 1028 1012 C 1028 1060 1023 1105 1013 1145 C 1003 1185 986 1220 962 1250 C 938 1279 906 1302 866 1318 C 826 1334 777 1343 717 1343 C 640 1343 576 1329 525 1302 C 474 1275 432 1237 399 1188 C 365 1138 338 1079 318 1009 C 298 939 280 862 266 778 C 256 726 248 675 242 626 C 236 576 233 531 233 489 C 233 440 237 396 247 356 C 257 316 274 281 298 253 C 322 224 354 202 394 186 C 434 170 485 162 547 162 Z" unicode="" />
<glyph horiz-adv-x="1262" d="M 745 1935 L 928 1935 L 1096 1604 L 942 1604 L 813 1800 L 618 1604 L 459 1604 L 745 1935 Z M 537 -16 C 438 -16 356 -3 292 23 C 227 49 175 84 137 129 C 99 174 72 227 56 288 C 40 348 33 413 33 483 C 33 535 36 588 42 641 C 48 694 57 749 68 805 C 80 875 94 941 110 1005 C 126 1068 147 1127 171 1181 C 195 1235 223 1283 256 1327 C 288 1370 327 1407 371 1438 C 415 1468 465 1492 522 1509 C 579 1525 644 1534 717 1534 C 817 1534 900 1520 966 1494 C 1032 1468 1084 1432 1123 1387 C 1162 1341 1189 1288 1205 1226 C 1221 1164 1229 1098 1229 1028 C 1229 976 1225 924 1219 870 C 1213 816 1205 761 1196 705 C 1183 635 1168 569 1152 506 C 1135 443 1115 385 1091 332 C 1067 278 1038 230 1006 187 C 973 144 934 108 890 78 C 845 48 794 24 736 8 C 678 -7 611 -16 537 -16 Z M 547 162 C 623 162 686 175 736 201 C 786 227 828 265 862 314 C 895 362 922 421 942 490 C 962 558 979 635 995 721 C 1004 773 1012 823 1018 872 C 1024 921 1028 968 1028 1012 C 1028 1060 1023 1105 1013 1145 C 1003 1185 986 1220 962 1250 C 938 1279 906 1302 866 1318 C 826 1334 777 1343 717 1343 C 640 1343 576 1329 525 1302 C 474 1275 432 1237 399 1188 C 365 1138 338 1079 318 1009 C 298 939 280 862 266 778 C 256 726 248 675 242 626 C 236 576 233 531 233 489 C 233 440 237 396 247 356 C 257 316 274 281 298 253 C 322 224 354 202 394 186 C 434 170 485 162 547 162 Z" unicode="" />
<glyph horiz-adv-x="1262" d="M 537 -16 C 438 -16 356 -3 292 23 C 227 49 175 84 137 129 C 99 174 72 227 56 288 C 40 348 33 413 33 483 C 33 535 36 588 42 641 C 48 694 57 749 68 805 C 80 875 94 941 110 1005 C 126 1068 147 1127 171 1181 C 195 1235 223 1283 256 1327 C 288 1370 327 1407 371 1438 C 415 1468 465 1492 522 1509 C 579 1525 644 1534 717 1534 C 817 1534 900 1520 966 1494 C 1032 1468 1084 1432 1123 1387 C 1162 1341 1189 1288 1205 1226 C 1221 1164 1229 1098 1229 1028 C 1229 976 1225 924 1219 870 C 1213 816 1205 761 1196 705 C 1183 635 1168 569 1152 506 C 1135 443 1115 385 1091 332 C 1067 278 1038 230 1006 187 C 973 144 934 108 890 78 C 845 48 794 24 736 8 C 678 -7 611 -16 537 -16 Z M 547 162 C 623 162 686 175 736 201 C 786 227 828 265 862 314 C 895 362 922 421 942 490 C 962 558 979 635 995 721 C 1004 773 1012 823 1018 872 C 1024 921 1028 968 1028 1012 C 1028 1060 1023 1105 1013 1145 C 1003 1185 986 1220 962 1250 C 938 1279 906 1302 866 1318 C 826 1334 777 1343 717 1343 C 640 1343 576 1329 525 1302 C 474 1275 432 1237 399 1188 C 365 1138 338 1079 318 1009 C 298 939 280 862 266 778 C 256 726 248 675 242 626 C 236 576 233 531 233 489 C 233 440 237 396 247 356 C 257 316 274 281 298 253 C 322 224 354 202 394 186 C 434 170 485 162 547 162 Z M 430 1677 C 465 1731 501 1772 539 1798 C 577 1824 618 1837 662 1837 C 688 1837 712 1832 735 1824 C 758 1816 780 1807 801 1797 C 821 1787 841 1777 860 1769 C 878 1761 896 1757 913 1757 C 934 1757 955 1764 976 1779 C 997 1793 1019 1817 1042 1849 L 1163 1769 C 1128 1710 1091 1667 1052 1640 C 1012 1612 974 1599 936 1599 C 908 1599 882 1603 859 1612 C 835 1620 813 1630 792 1640 C 771 1650 751 1659 732 1668 C 713 1676 694 1681 676 1681 C 652 1681 631 1674 612 1660 C 593 1646 573 1625 553 1595 L 430 1677 Z" unicode="" />
<glyph horiz-adv-x="1262" d="M 549 1819 L 721 1819 L 682 1604 L 510 1604 L 549 1819 Z M 913 1819 L 1085 1819 L 1047 1604 L 872 1604 L 913 1819 Z M 537 -16 C 438 -16 356 -3 292 23 C 227 49 175 84 137 129 C 99 174 72 227 56 288 C 40 348 33 413 33 483 C 33 535 36 588 42 641 C 48 694 57 749 68 805 C 80 875 94 941 110 1005 C 126 1068 147 1127 171 1181 C 195 1235 223 1283 256 1327 C 288 1370 327 1407 371 1438 C 415 1468 465 1492 522 1509 C 579 1525 644 1534 717 1534 C 817 1534 900 1520 966 1494 C 1032 1468 1084 1432 1123 1387 C 1162 1341 1189 1288 1205 1226 C 1221 1164 1229 1098 1229 1028 C 1229 976 1225 924 1219 870 C 1213 816 1205 761 1196 705 C 1183 635 1168 569 1152 506 C 1135 443 1115 385 1091 332 C 1067 278 1038 230 1006 187 C 973 144 934 108 890 78 C 845 48 794 24 736 8 C 678 -7 611 -16 537 -16 Z M 547 162 C 623 162 686 175 736 201 C 786 227 828 265 862 314 C 895 362 922 421 942 490 C 962 558 979 635 995 721 C 1004 773 1012 823 1018 872 C 1024 921 1028 968 1028 1012 C 1028 1060 1023 1105 1013 1145 C 1003 1185 986 1220 962 1250 C 938 1279 906 1302 866 1318 C 826 1334 777 1343 717 1343 C 640 1343 576 1329 525 1302 C 474 1275 432 1237 399 1188 C 365 1138 338 1079 318 1009 C 298 939 280 862 266 778 C 256 726 248 675 242 626 C 236 576 233 531 233 489 C 233 440 237 396 247 356 C 257 316 274 281 298 253 C 322 224 354 202 394 186 C 434 170 485 162 547 162 Z" unicode="" />
<glyph horiz-adv-x="1159" d="M 154 465 L 455 721 L 244 975 L 381 1096 L 592 840 L 891 1096 L 991 975 L 690 721 L 901 467 L 768 346 L 555 600 L 254 344 L 154 465 Z" unicode="" />
<glyph horiz-adv-x="1262" d="M 537 -16 C 486 -16 440 -12 399 -6 C 358 0 321 10 289 23 L 223 -84 L 33 -84 L 152 113 C 107 158 76 212 59 276 C 41 339 33 408 33 483 C 33 535 36 588 42 641 C 48 694 57 749 68 805 C 80 875 94 941 110 1005 C 126 1068 147 1127 171 1181 C 195 1235 223 1283 256 1327 C 288 1370 327 1407 371 1438 C 415 1468 465 1492 522 1509 C 579 1525 644 1534 717 1534 C 768 1534 815 1530 858 1522 C 900 1514 939 1504 973 1491 L 1042 1604 L 1233 1604 L 1106 1405 C 1128 1381 1147 1356 1163 1328 C 1179 1300 1191 1270 1201 1238 C 1211 1206 1218 1172 1222 1137 C 1226 1101 1229 1065 1229 1028 C 1229 976 1225 924 1219 870 C 1213 816 1205 761 1196 705 C 1183 635 1168 569 1152 506 C 1135 443 1115 385 1091 332 C 1067 278 1038 230 1006 187 C 973 144 934 108 890 78 C 845 48 794 24 736 8 C 678 -7 611 -16 537 -16 Z M 545 152 C 622 152 686 165 738 192 C 789 218 831 256 865 306 C 898 355 925 414 945 484 C 965 554 983 632 999 719 C 1008 772 1015 824 1021 874 C 1027 924 1030 972 1030 1016 C 1030 1056 1026 1093 1020 1128 C 1013 1163 1002 1195 987 1223 L 375 182 C 419 162 476 152 545 152 Z M 229 483 C 229 445 231 409 237 376 C 243 343 252 313 266 285 L 877 1323 C 855 1332 831 1339 805 1344 C 779 1349 749 1352 717 1352 C 665 1352 620 1345 580 1333 C 540 1321 505 1303 475 1280 C 444 1256 418 1228 396 1194 C 374 1160 354 1122 338 1080 C 321 1038 307 991 295 940 C 283 889 272 835 262 778 C 252 724 244 673 238 624 C 232 575 229 528 229 483 Z" unicode="" />
<glyph horiz-adv-x="1255" d="M 557 -20 C 467 -20 391 -11 329 6 C 267 24 216 49 178 82 C 140 115 112 155 95 202 C 78 249 70 302 70 362 C 70 389 71 417 74 445 C 76 473 80 502 86 532 L 260 1518 L 461 1518 L 285 535 C 280 509 277 484 275 462 C 273 440 272 418 272 397 C 272 361 276 328 286 299 C 295 270 311 245 333 225 C 355 205 385 189 423 178 C 460 167 507 162 563 162 C 617 162 663 169 701 183 C 739 197 770 219 796 248 C 822 277 842 314 858 358 C 874 402 887 454 897 514 L 1077 1518 L 1270 1518 L 1087 483 C 1073 397 1053 323 1027 260 C 1001 197 968 145 926 104 C 884 62 832 31 772 11 C 712 -9 640 -20 557 -20 Z M 520 1935 L 729 1935 L 899 1604 L 737 1604 L 520 1935 Z" unicode="" />
<glyph horiz-adv-x="1255" d="M 926 1935 L 1141 1935 L 807 1604 L 635 1604 L 926 1935 Z M 557 -20 C 467 -20 391 -11 329 6 C 267 24 216 49 178 82 C 140 115 112 155 95 202 C 78 249 70 302 70 362 C 70 389 71 417 74 445 C 76 473 80 502 86 532 L 260 1518 L 461 1518 L 285 535 C 280 509 277 484 275 462 C 273 440 272 418 272 397 C 272 361 276 328 286 299 C 295 270 311 245 333 225 C 355 205 385 189 423 178 C 460 167 507 162 563 162 C 617 162 663 169 701 183 C 739 197 770 219 796 248 C 822 277 842 314 858 358 C 874 402 887 454 897 514 L 1077 1518 L 1270 1518 L 1087 483 C 1073 397 1053 323 1027 260 C 1001 197 968 145 926 104 C 884 62 832 31 772 11 C 712 -9 640 -20 557 -20 Z" unicode="" />
<glyph horiz-adv-x="1255" d="M 741 1935 L 924 1935 L 1092 1604 L 938 1604 L 809 1800 L 614 1604 L 455 1604 L 741 1935 Z M 557 -20 C 467 -20 391 -11 329 6 C 267 24 216 49 178 82 C 140 115 112 155 95 202 C 78 249 70 302 70 362 C 70 389 71 417 74 445 C 76 473 80 502 86 532 L 260 1518 L 461 1518 L 285 535 C 280 509 277 484 275 462 C 273 440 272 418 272 397 C 272 361 276 328 286 299 C 295 270 311 245 333 225 C 355 205 385 189 423 178 C 460 167 507 162 563 162 C 617 162 663 169 701 183 C 739 197 770 219 796 248 C 822 277 842 314 858 358 C 874 402 887 454 897 514 L 1077 1518 L 1270 1518 L 1087 483 C 1073 397 1053 323 1027 260 C 1001 197 968 145 926 104 C 884 62 832 31 772 11 C 712 -9 640 -20 557 -20 Z" unicode="" />
<glyph horiz-adv-x="1255" d="M 545 1819 L 717 1819 L 678 1604 L 506 1604 L 545 1819 Z M 909 1819 L 1081 1819 L 1042 1604 L 868 1604 L 909 1819 Z M 557 -20 C 467 -20 391 -11 329 6 C 267 24 216 49 178 82 C 140 115 112 155 95 202 C 78 249 70 302 70 362 C 70 389 71 417 74 445 C 76 473 80 502 86 532 L 260 1518 L 461 1518 L 285 535 C 280 509 277 484 275 462 C 273 440 272 418 272 397 C 272 361 276 328 286 299 C 295 270 311 245 333 225 C 355 205 385 189 423 178 C 460 167 507 162 563 162 C 617 162 663 169 701 183 C 739 197 770 219 796 248 C 822 277 842 314 858 358 C 874 402 887 454 897 514 L 1077 1518 L 1270 1518 L 1087 483 C 1073 397 1053 323 1027 260 C 1001 197 968 145 926 104 C 884 62 832 31 772 11 C 712 -9 640 -20 557 -20 Z" unicode="" />
<glyph horiz-adv-x="1143" d="M 436 555 L 152 1518 L 360 1518 L 571 772 L 1049 1518 L 1260 1518 L 633 553 L 537 0 L 338 0 L 436 555 Z M 870 1935 L 1085 1935 L 752 1604 L 580 1604 L 870 1935 Z" unicode="" />
<glyph horiz-adv-x="1118" d="M 268 1518 L 465 1518 L 418 1266 L 625 1266 C 713 1266 788 1258 849 1243 C 909 1228 958 1206 996 1177 C 1033 1147 1060 1111 1076 1068 C 1092 1024 1100 974 1100 918 C 1100 871 1094 820 1083 766 C 1069 688 1050 621 1026 567 C 1002 513 970 468 932 434 C 894 400 848 375 794 359 C 740 343 678 336 606 336 L 254 336 L 197 0 L 0 0 L 268 1518 Z M 604 502 C 643 502 678 506 709 514 C 740 522 767 537 791 558 C 814 578 833 606 849 642 C 865 677 877 722 887 776 C 892 797 896 817 898 835 C 900 853 901 870 901 885 C 901 920 895 951 885 977 C 875 1003 858 1024 836 1041 C 813 1058 784 1071 748 1079 C 712 1087 668 1092 618 1092 L 389 1092 L 285 502 L 604 502 Z" unicode="" />
<glyph horiz-adv-x="1065" d="M 193 1204 C 214 1332 260 1427 330 1491 C 400 1555 499 1587 629 1587 C 697 1587 756 1580 804 1567 C 852 1553 891 1534 922 1508 C 952 1482 975 1450 989 1412 C 1003 1374 1010 1330 1010 1280 C 1010 1260 1008 1240 1006 1219 C 1003 1197 1000 1176 997 1155 C 987 1104 978 1060 968 1022 C 958 984 946 952 932 925 C 918 898 901 876 882 859 C 863 842 840 829 813 819 C 841 809 864 795 883 779 C 901 762 916 742 927 719 C 937 696 945 670 949 640 C 953 610 956 576 956 539 C 956 491 952 441 944 389 C 930 311 911 248 887 198 C 863 148 833 108 795 79 C 757 49 712 29 659 17 C 605 5 543 0 471 0 L 311 0 L 342 174 L 467 174 C 513 173 553 177 586 186 C 618 194 646 209 668 229 C 690 249 709 276 723 309 C 737 342 748 383 758 432 C 761 450 763 468 765 484 C 767 500 768 516 768 530 C 768 562 763 591 754 616 C 745 640 731 661 711 677 C 691 693 665 705 633 713 C 601 721 562 725 516 725 L 489 725 L 518 889 L 584 889 C 614 889 640 892 664 899 C 688 906 709 918 727 936 C 745 954 760 978 773 1008 C 786 1038 797 1077 805 1124 C 808 1143 810 1161 812 1179 C 814 1196 815 1212 815 1227 C 815 1289 799 1333 769 1361 C 738 1389 687 1403 616 1403 C 548 1403 495 1384 457 1348 C 418 1311 391 1251 377 1167 L 115 -324 L -74 -324 L 193 1204 Z" unicode="" />
<glyph horiz-adv-x="1020" d="M 303 -12 C 190 -12 109 11 59 58 C 9 105 -16 174 -16 264 C -16 360 -3 439 20 503 C 44 567 80 618 126 656 C 172 694 228 720 296 736 C 363 752 440 760 526 760 L 674 760 C 679 793 682 823 682 851 C 682 878 677 901 666 921 C 655 941 637 956 611 967 C 585 977 548 983 502 983 C 458 983 413 979 368 973 C 323 967 284 956 250 942 L 193 1102 C 241 1122 294 1137 352 1146 C 410 1154 469 1159 528 1159 C 616 1159 685 1149 735 1130 C 785 1110 820 1082 842 1045 C 864 1008 874 963 874 909 C 873 855 866 793 854 725 L 778 279 C 774 257 772 238 771 224 C 770 210 772 198 776 190 C 780 182 788 176 799 173 C 810 169 826 168 848 168 L 819 0 C 809 -1 798 -2 788 -2 C 777 -2 767 -2 758 -2 C 704 -2 666 6 644 23 C 622 39 610 64 610 98 C 592 78 571 62 548 48 C 524 34 499 22 472 13 C 445 4 417 -2 388 -6 C 359 -10 331 -12 303 -12 Z M 354 150 C 380 150 407 153 434 160 C 460 166 485 179 508 198 C 531 216 552 242 570 275 C 588 307 602 349 612 401 L 645 600 L 535 600 C 473 600 419 596 373 588 C 327 580 290 565 260 543 C 230 521 208 491 194 453 C 179 414 172 364 172 303 C 172 247 187 208 217 185 C 247 161 293 150 354 150 Z M 340 1587 L 549 1587 L 719 1255 L 557 1255 L 340 1587 Z" unicode="" />
<glyph horiz-adv-x="1020" d="M 303 -12 C 190 -12 109 11 59 58 C 9 105 -16 174 -16 264 C -16 360 -3 439 20 503 C 44 567 80 618 126 656 C 172 694 228 720 296 736 C 363 752 440 760 526 760 L 674 760 C 679 793 682 823 682 851 C 682 878 677 901 666 921 C 655 941 637 956 611 967 C 585 977 548 983 502 983 C 458 983 413 979 368 973 C 323 967 284 956 250 942 L 193 1102 C 241 1122 294 1137 352 1146 C 410 1154 469 1159 528 1159 C 616 1159 685 1149 735 1130 C 785 1110 820 1082 842 1045 C 864 1008 874 963 874 909 C 873 855 866 793 854 725 L 778 279 C 774 257 772 238 771 224 C 770 210 772 198 776 190 C 780 182 788 176 799 173 C 810 169 826 168 848 168 L 819 0 C 809 -1 798 -2 788 -2 C 777 -2 767 -2 758 -2 C 704 -2 666 6 644 23 C 622 39 610 64 610 98 C 592 78 571 62 548 48 C 524 34 499 22 472 13 C 445 4 417 -2 388 -6 C 359 -10 331 -12 303 -12 Z M 354 150 C 380 150 407 153 434 160 C 460 166 485 179 508 198 C 531 216 552 242 570 275 C 588 307 602 349 612 401 L 645 600 L 535 600 C 473 600 419 596 373 588 C 327 580 290 565 260 543 C 230 521 208 491 194 453 C 179 414 172 364 172 303 C 172 247 187 208 217 185 C 247 161 293 150 354 150 Z M 745 1587 L 961 1587 L 627 1255 L 455 1255 L 745 1587 Z" unicode="" />
<glyph horiz-adv-x="1020" d="M 303 -12 C 190 -12 109 11 59 58 C 9 105 -16 174 -16 264 C -16 360 -3 439 20 503 C 44 567 80 618 126 656 C 172 694 228 720 296 736 C 363 752 440 760 526 760 L 674 760 C 679 793 682 823 682 851 C 682 878 677 901 666 921 C 655 941 637 956 611 967 C 585 977 548 983 502 983 C 458 983 413 979 368 973 C 323 967 284 956 250 942 L 193 1102 C 241 1122 294 1137 352 1146 C 410 1154 469 1159 528 1159 C 616 1159 685 1149 735 1130 C 785 1110 820 1082 842 1045 C 864 1008 874 963 874 909 C 873 855 866 793 854 725 L 778 279 C 774 257 772 238 771 224 C 770 210 772 198 776 190 C 780 182 788 176 799 173 C 810 169 826 168 848 168 L 819 0 C 809 -1 798 -2 788 -2 C 777 -2 767 -2 758 -2 C 704 -2 666 6 644 23 C 622 39 610 64 610 98 C 592 78 571 62 548 48 C 524 34 499 22 472 13 C 445 4 417 -2 388 -6 C 359 -10 331 -12 303 -12 Z M 354 150 C 380 150 407 153 434 160 C 460 166 485 179 508 198 C 531 216 552 242 570 275 C 588 307 602 349 612 401 L 645 600 L 535 600 C 473 600 419 596 373 588 C 327 580 290 565 260 543 C 230 521 208 491 194 453 C 179 414 172 364 172 303 C 172 247 187 208 217 185 C 247 161 293 150 354 150 Z M 561 1587 L 743 1587 L 911 1255 L 758 1255 L 629 1452 L 434 1255 L 274 1255 L 561 1587 Z" unicode="" />
<glyph horiz-adv-x="1020" d="M 303 -12 C 190 -12 109 11 59 58 C 9 105 -16 174 -16 264 C -16 360 -3 439 20 503 C 44 567 80 618 126 656 C 172 694 228 720 296 736 C 363 752 440 760 526 760 L 674 760 C 679 793 682 823 682 851 C 682 878 677 901 666 921 C 655 941 637 956 611 967 C 585 977 548 983 502 983 C 458 983 413 979 368 973 C 323 967 284 956 250 942 L 193 1102 C 241 1122 294 1137 352 1146 C 410 1154 469 1159 528 1159 C 616 1159 685 1149 735 1130 C 785 1110 820 1082 842 1045 C 864 1008 874 963 874 909 C 873 855 866 793 854 725 L 778 279 C 774 257 772 238 771 224 C 770 210 772 198 776 190 C 780 182 788 176 799 173 C 810 169 826 168 848 168 L 819 0 C 809 -1 798 -2 788 -2 C 777 -2 767 -2 758 -2 C 704 -2 666 6 644 23 C 622 39 610 64 610 98 C 592 78 571 62 548 48 C 524 34 499 22 472 13 C 445 4 417 -2 388 -6 C 359 -10 331 -12 303 -12 Z M 354 150 C 380 150 407 153 434 160 C 460 166 485 179 508 198 C 531 216 552 242 570 275 C 588 307 602 349 612 401 L 645 600 L 535 600 C 473 600 419 596 373 588 C 327 580 290 565 260 543 C 230 521 208 491 194 453 C 179 414 172 364 172 303 C 172 247 187 208 217 185 C 247 161 293 150 354 150 Z M 246 1329 C 280 1383 317 1424 355 1450 C 393 1476 433 1489 477 1489 C 503 1489 527 1484 551 1476 C 574 1468 596 1459 617 1449 C 637 1439 657 1429 676 1421 C 694 1413 712 1409 729 1409 C 750 1409 771 1416 792 1431 C 813 1445 835 1469 858 1501 L 979 1421 C 943 1362 906 1319 867 1292 C 828 1264 790 1251 752 1251 C 724 1251 698 1255 674 1264 C 650 1272 628 1282 607 1292 C 586 1302 566 1311 547 1320 C 528 1328 510 1333 492 1333 C 468 1333 446 1326 428 1312 C 409 1298 389 1277 369 1247 L 246 1329 Z" unicode="" />
<glyph horiz-adv-x="1020" d="M 303 -12 C 190 -12 109 11 59 58 C 9 105 -16 174 -16 264 C -16 360 -3 439 20 503 C 44 567 80 618 126 656 C 172 694 228 720 296 736 C 363 752 440 760 526 760 L 674 760 C 679 793 682 823 682 851 C 682 878 677 901 666 921 C 655 941 637 956 611 967 C 585 977 548 983 502 983 C 458 983 413 979 368 973 C 323 967 284 956 250 942 L 193 1102 C 241 1122 294 1137 352 1146 C 410 1154 469 1159 528 1159 C 616 1159 685 1149 735 1130 C 785 1110 820 1082 842 1045 C 864 1008 874 963 874 909 C 873 855 866 793 854 725 L 778 279 C 774 257 772 238 771 224 C 770 210 772 198 776 190 C 780 182 788 176 799 173 C 810 169 826 168 848 168 L 819 0 C 809 -1 798 -2 788 -2 C 777 -2 767 -2 758 -2 C 704 -2 666 6 644 23 C 622 39 610 64 610 98 C 592 78 571 62 548 48 C 524 34 499 22 472 13 C 445 4 417 -2 388 -6 C 359 -10 331 -12 303 -12 Z M 354 150 C 380 150 407 153 434 160 C 460 166 485 179 508 198 C 531 216 552 242 570 275 C 588 307 602 349 612 401 L 645 600 L 535 600 C 473 600 419 596 373 588 C 327 580 290 565 260 543 C 230 521 208 491 194 453 C 179 414 172 364 172 303 C 172 247 187 208 217 185 C 247 161 293 150 354 150 Z M 365 1470 L 537 1470 L 498 1255 L 326 1255 L 365 1470 Z M 729 1470 L 901 1470 L 862 1255 L 688 1255 L 729 1470 Z" unicode="" />
<glyph horiz-adv-x="1020" d="M 303 -12 C 190 -12 109 11 59 58 C 9 105 -16 174 -16 264 C -16 360 -3 439 20 503 C 44 567 80 618 126 656 C 172 694 228 720 296 736 C 363 752 440 760 526 760 L 674 760 C 679 793 682 823 682 851 C 682 878 677 901 666 921 C 655 941 637 956 611 967 C 585 977 548 983 502 983 C 458 983 413 979 368 973 C 323 967 284 956 250 942 L 193 1102 C 241 1122 294 1137 352 1146 C 410 1154 469 1159 528 1159 C 616 1159 685 1149 735 1130 C 785 1110 820 1082 842 1045 C 864 1008 874 963 874 909 C 873 855 866 793 854 725 L 778 279 C 774 257 772 238 771 224 C 770 210 772 198 776 190 C 780 182 788 176 799 173 C 810 169 826 168 848 168 L 819 0 C 809 -1 798 -2 788 -2 C 777 -2 767 -2 758 -2 C 704 -2 666 6 644 23 C 622 39 610 64 610 98 C 592 78 571 62 548 48 C 524 34 499 22 472 13 C 445 4 417 -2 388 -6 C 359 -10 331 -12 303 -12 Z M 354 150 C 380 150 407 153 434 160 C 460 166 485 179 508 198 C 531 216 552 242 570 275 C 588 307 602 349 612 401 L 645 600 L 535 600 C 473 600 419 596 373 588 C 327 580 290 565 260 543 C 230 521 208 491 194 453 C 179 414 172 364 172 303 C 172 247 187 208 217 185 C 247 161 293 150 354 150 Z M 616 1343 C 659 1343 692 1359 715 1391 C 738 1423 750 1467 750 1522 C 750 1550 742 1574 728 1592 C 714 1610 689 1620 653 1620 C 611 1620 578 1603 555 1570 C 531 1537 520 1494 520 1440 C 520 1412 527 1389 542 1371 C 556 1352 581 1343 616 1343 Z M 610 1241 C 574 1241 543 1246 518 1256 C 493 1266 473 1279 457 1296 C 441 1313 430 1333 424 1356 C 417 1379 414 1404 414 1430 C 414 1474 419 1514 430 1550 C 440 1586 456 1616 477 1642 C 497 1667 523 1687 553 1701 C 583 1715 619 1722 659 1722 C 695 1722 725 1717 750 1707 C 775 1697 795 1683 811 1666 C 827 1649 838 1629 845 1605 C 852 1581 856 1556 856 1530 C 856 1486 850 1447 839 1412 C 827 1376 811 1346 790 1321 C 769 1295 743 1276 713 1262 C 683 1248 648 1241 610 1241 Z" unicode="" />
<glyph horiz-adv-x="1561" d="M 1018 -14 C 918 -14 841 0 787 28 C 732 56 693 95 670 147 C 644 116 618 90 592 70 C 566 50 538 33 508 21 C 478 9 447 0 413 -4 C 379 -9 343 -12 303 -12 C 190 -12 109 11 59 58 C 9 105 -16 174 -16 264 C -16 360 -3 439 21 503 C 45 567 81 618 127 656 C 173 694 230 720 297 736 C 363 752 439 760 524 760 L 674 760 C 679 793 682 823 682 851 C 682 878 677 901 666 921 C 655 941 637 956 611 967 C 585 977 548 983 502 983 C 458 983 413 979 368 973 C 323 967 284 956 250 942 L 193 1102 C 241 1122 294 1137 352 1146 C 410 1154 469 1159 528 1159 C 572 1159 610 1156 644 1151 C 678 1146 707 1139 731 1129 C 755 1119 776 1107 792 1093 C 808 1079 821 1062 831 1044 C 867 1081 909 1109 958 1128 C 1007 1147 1065 1157 1133 1157 C 1203 1157 1260 1149 1306 1135 C 1352 1120 1388 1099 1415 1073 C 1442 1047 1461 1015 1472 978 C 1483 940 1489 899 1489 854 C 1489 829 1487 802 1484 772 C 1481 742 1477 711 1473 679 C 1469 647 1464 614 1458 581 C 1452 547 1446 515 1440 483 L 807 483 C 805 462 803 442 802 424 C 801 405 801 388 801 373 C 801 339 804 308 812 281 C 819 253 832 230 850 212 C 868 193 893 179 923 169 C 953 159 992 154 1038 154 C 1091 154 1137 158 1177 167 C 1217 175 1255 187 1292 203 L 1348 51 C 1299 27 1247 11 1192 1 C 1136 -9 1078 -14 1018 -14 Z M 354 150 C 380 150 407 153 434 160 C 460 166 485 179 508 198 C 531 216 552 242 570 275 C 588 307 602 349 612 401 L 645 600 L 535 600 C 473 600 420 596 374 588 C 328 580 291 565 261 543 C 231 521 208 491 194 453 C 179 414 172 364 172 303 C 172 247 187 208 217 185 C 247 161 293 150 354 150 Z M 1120 987 C 1074 987 1036 979 1005 964 C 973 948 947 926 926 898 C 904 869 887 834 873 793 C 859 751 846 705 836 653 L 1292 653 C 1298 686 1303 717 1307 745 C 1311 773 1313 800 1313 825 C 1313 849 1310 872 1304 892 C 1298 912 1288 929 1274 943 C 1259 957 1239 967 1215 975 C 1190 983 1158 987 1120 987 Z" unicode="" />
<glyph horiz-adv-x="836" d="M 274 -453 C 228 -453 185 -448 146 -439 C 106 -430 73 -419 45 -406 L 94 -299 C 116 -309 142 -318 172 -326 C 201 -334 231 -338 262 -338 C 301 -338 331 -330 351 -315 C 371 -300 381 -272 381 -231 C 381 -202 368 -183 344 -175 C 320 -167 285 -164 240 -166 L 201 -133 L 248 0 C 204 12 168 29 138 51 C 108 73 83 99 65 130 C 46 161 32 196 24 236 C 16 276 12 319 12 365 C 12 401 14 440 19 480 C 24 520 31 564 39 610 C 54 700 74 779 98 847 C 122 915 153 972 191 1018 C 229 1064 276 1098 332 1122 C 387 1145 454 1157 532 1157 C 570 1157 604 1155 634 1151 C 664 1147 692 1142 716 1136 C 740 1129 761 1121 781 1113 C 800 1105 818 1096 834 1087 L 725 930 C 703 944 677 955 646 964 C 615 972 576 977 530 977 C 484 977 445 968 413 952 C 381 936 353 911 331 879 C 308 847 289 806 273 757 C 257 707 243 650 231 584 C 225 546 220 509 216 475 C 212 441 211 409 211 381 C 211 345 214 312 222 284 C 229 255 241 231 259 212 C 276 192 299 177 327 167 C 355 157 390 152 432 152 C 464 152 494 154 523 160 C 552 165 584 174 618 188 L 670 35 C 620 14 573 0 529 -6 C 485 -12 443 -16 401 -16 C 393 -16 385 -16 379 -16 C 372 -16 365 -15 358 -14 L 334 -88 C 388 -86 430 -97 462 -120 C 494 -142 510 -179 510 -231 C 510 -274 504 -310 494 -338 C 483 -366 467 -389 447 -406 C 427 -423 402 -435 373 -442 C 343 -449 310 -453 274 -453 Z" unicode="" />
<glyph horiz-adv-x="956" d="M 418 -14 C 340 -14 275 -5 223 13 C 171 31 129 56 98 89 C 67 121 45 161 33 207 C 20 253 14 304 14 360 C 14 398 16 437 20 479 C 24 521 31 564 39 610 C 54 698 74 776 99 844 C 124 912 156 969 195 1015 C 233 1061 280 1097 335 1121 C 389 1145 454 1157 528 1157 C 599 1157 658 1149 704 1135 C 750 1120 787 1099 815 1073 C 842 1047 861 1015 872 978 C 883 940 889 899 889 854 C 889 829 887 802 884 772 C 881 742 877 710 872 678 C 867 646 862 613 856 580 C 850 546 844 514 838 483 L 207 483 C 203 441 201 405 201 375 C 201 340 204 309 212 282 C 219 254 231 231 249 212 C 267 193 291 179 321 169 C 351 159 390 154 436 154 C 488 154 534 158 574 167 C 614 176 654 187 692 201 L 743 45 C 693 24 641 9 588 0 C 534 -9 478 -14 418 -14 Z M 518 985 C 472 985 434 977 404 963 C 373 948 347 926 326 898 C 304 870 287 835 273 794 C 259 753 246 707 236 655 L 682 655 C 688 687 693 717 698 745 C 702 773 705 800 705 825 C 705 849 702 871 697 891 C 692 911 683 928 669 942 C 655 956 636 966 612 974 C 588 981 556 985 518 985 Z M 311 1587 L 520 1587 L 690 1255 L 528 1255 L 311 1587 Z" unicode="" />
<glyph horiz-adv-x="956" d="M 717 1587 L 932 1587 L 598 1255 L 426 1255 L 717 1587 Z M 418 -14 C 340 -14 275 -5 223 13 C 171 31 129 56 98 89 C 67 121 45 161 33 207 C 20 253 14 304 14 360 C 14 398 16 437 20 479 C 24 521 31 564 39 610 C 54 698 74 776 99 844 C 124 912 156 969 195 1015 C 233 1061 280 1097 335 1121 C 389 1145 454 1157 528 1157 C 599 1157 658 1149 704 1135 C 750 1120 787 1099 815 1073 C 842 1047 861 1015 872 978 C 883 940 889 899 889 854 C 889 829 887 802 884 772 C 881 742 877 710 872 678 C 867 646 862 613 856 580 C 850 546 844 514 838 483 L 207 483 C 203 441 201 405 201 375 C 201 340 204 309 212 282 C 219 254 231 231 249 212 C 267 193 291 179 321 169 C 351 159 390 154 436 154 C 488 154 534 158 574 167 C 614 176 654 187 692 201 L 743 45 C 693 24 641 9 588 0 C 534 -9 478 -14 418 -14 Z M 518 985 C 472 985 434 977 404 963 C 373 948 347 926 326 898 C 304 870 287 835 273 794 C 259 753 246 707 236 655 L 682 655 C 688 687 693 717 698 745 C 702 773 705 800 705 825 C 705 849 702 871 697 891 C 692 911 683 928 669 942 C 655 956 636 966 612 974 C 588 981 556 985 518 985 Z" unicode="" />
<glyph horiz-adv-x="956" d="M 532 1587 L 715 1587 L 883 1255 L 729 1255 L 600 1452 L 406 1255 L 246 1255 L 532 1587 Z M 418 -14 C 340 -14 275 -5 223 13 C 171 31 129 56 98 89 C 67 121 45 161 33 207 C 20 253 14 304 14 360 C 14 398 16 437 20 479 C 24 521 31 564 39 610 C 54 698 74 776 99 844 C 124 912 156 969 195 1015 C 233 1061 280 1097 335 1121 C 389 1145 454 1157 528 1157 C 599 1157 658 1149 704 1135 C 750 1120 787 1099 815 1073 C 842 1047 861 1015 872 978 C 883 940 889 899 889 854 C 889 829 887 802 884 772 C 881 742 877 710 872 678 C 867 646 862 613 856 580 C 850 546 844 514 838 483 L 207 483 C 203 441 201 405 201 375 C 201 340 204 309 212 282 C 219 254 231 231 249 212 C 267 193 291 179 321 169 C 351 159 390 154 436 154 C 488 154 534 158 574 167 C 614 176 654 187 692 201 L 743 45 C 693 24 641 9 588 0 C 534 -9 478 -14 418 -14 Z M 518 985 C 472 985 434 977 404 963 C 373 948 347 926 326 898 C 304 870 287 835 273 794 C 259 753 246 707 236 655 L 682 655 C 688 687 693 717 698 745 C 702 773 705 800 705 825 C 705 849 702 871 697 891 C 692 911 683 928 669 942 C 655 956 636 966 612 974 C 588 981 556 985 518 985 Z" unicode="" />
<glyph horiz-adv-x="956" d="M 336 1470 L 508 1470 L 469 1255 L 297 1255 L 336 1470 Z M 700 1470 L 872 1470 L 834 1255 L 659 1255 L 700 1470 Z M 418 -14 C 340 -14 275 -5 223 13 C 171 31 129 56 98 89 C 67 121 45 161 33 207 C 20 253 14 304 14 360 C 14 398 16 437 20 479 C 24 521 31 564 39 610 C 54 698 74 776 99 844 C 124 912 156 969 195 1015 C 233 1061 280 1097 335 1121 C 389 1145 454 1157 528 1157 C 599 1157 658 1149 704 1135 C 750 1120 787 1099 815 1073 C 842 1047 861 1015 872 978 C 883 940 889 899 889 854 C 889 829 887 802 884 772 C 881 742 877 710 872 678 C 867 646 862 613 856 580 C 850 546 844 514 838 483 L 207 483 C 203 441 201 405 201 375 C 201 340 204 309 212 282 C 219 254 231 231 249 212 C 267 193 291 179 321 169 C 351 159 390 154 436 154 C 488 154 534 158 574 167 C 614 176 654 187 692 201 L 743 45 C 693 24 641 9 588 0 C 534 -9 478 -14 418 -14 Z M 518 985 C 472 985 434 977 404 963 C 373 948 347 926 326 898 C 304 870 287 835 273 794 C 259 753 246 707 236 655 L 682 655 C 688 687 693 717 698 745 C 702 773 705 800 705 825 C 705 849 702 871 697 891 C 692 911 683 928 669 942 C 655 956 636 966 612 974 C 588 981 556 985 518 985 Z" unicode="" />
<glyph horiz-adv-x="436" d="M 68 1587 L 276 1587 L 369 1255 L 207 1255 L 68 1587 Z M 190 1137 L 383 1137 L 180 0 L -10 0 L 190 1137 Z" unicode="" />
<glyph horiz-adv-x="436" d="M 438 1587 L 655 1587 L 383 1255 L 215 1255 L 438 1587 Z M 190 1137 L 383 1137 L 180 0 L -10 0 L 190 1137 Z" unicode="" />
<glyph horiz-adv-x="436" d="M 274 1587 L 455 1587 L 592 1255 L 449 1255 L 342 1452 L 166 1255 L 14 1255 L 274 1587 Z M 190 1137 L 383 1137 L 180 0 L -10 0 L 190 1137 Z" unicode="" />
<glyph horiz-adv-x="436" d="M 98 1470 L 254 1470 L 215 1255 L 59 1255 L 98 1470 Z M 434 1470 L 588 1470 L 551 1255 L 395 1255 L 434 1470 Z M 190 1137 L 383 1137 L 180 0 L -10 0 L 190 1137 Z" unicode="" />
<glyph horiz-adv-x="1030" d="M 543 1362 L 680 1395 C 667 1414 654 1432 641 1450 C 627 1468 613 1484 598 1499 L 756 1591 C 776 1570 796 1547 814 1522 C 832 1497 848 1470 864 1440 L 1094 1497 L 1067 1352 L 918 1313 C 934 1260 946 1203 955 1143 C 964 1082 969 1018 969 952 C 969 893 965 831 958 765 C 951 699 941 631 928 559 C 912 471 894 391 872 320 C 850 249 820 189 783 139 C 746 89 699 51 642 24 C 585 -2 514 -16 430 -16 C 352 -16 286 -6 233 12 C 179 31 136 58 104 93 C 71 127 47 168 33 216 C 19 263 12 315 12 373 C 12 409 14 447 18 485 C 22 523 27 562 33 600 C 46 674 64 743 87 806 C 109 868 139 922 176 967 C 212 1012 257 1047 310 1072 C 362 1097 425 1110 498 1110 C 540 1110 577 1107 609 1101 C 640 1095 667 1088 689 1078 C 711 1068 730 1057 745 1044 C 759 1030 771 1016 780 1001 C 780 1047 776 1092 769 1137 C 762 1182 751 1226 737 1268 L 516 1212 L 543 1362 Z M 436 152 C 486 152 528 161 562 180 C 595 199 622 225 644 259 C 665 293 682 332 694 378 C 706 424 717 474 727 528 C 733 561 738 593 743 625 C 747 657 750 687 750 717 C 750 750 746 780 739 808 C 732 836 720 860 703 880 C 686 900 663 915 635 927 C 606 938 570 944 526 944 C 474 944 431 934 397 915 C 363 896 335 870 313 836 C 291 802 273 763 261 717 C 248 671 237 621 227 567 C 221 534 217 502 214 471 C 210 439 209 409 209 381 C 209 347 212 317 219 289 C 225 261 237 236 255 216 C 272 196 295 180 324 169 C 353 157 390 152 436 152 Z" unicode="" />
<glyph horiz-adv-x="1040" d="M 178 1126 L 334 1139 L 328 1042 C 356 1075 397 1102 450 1124 C 502 1146 567 1157 643 1157 C 697 1157 743 1151 780 1140 C 817 1129 847 1114 870 1094 C 893 1074 910 1050 921 1023 C 932 995 939 965 942 933 C 944 901 944 866 940 830 C 936 794 930 757 924 719 L 797 0 L 604 0 L 727 694 C 735 740 740 780 743 815 C 745 850 741 879 731 903 C 721 927 702 945 675 957 C 648 969 609 975 559 975 C 513 975 475 967 444 952 C 413 936 387 914 367 884 C 346 854 329 816 316 771 C 302 726 291 674 281 616 L 172 0 L -18 0 L 178 1126 Z M 256 1329 C 291 1383 327 1424 365 1450 C 403 1476 443 1489 487 1489 C 513 1489 537 1484 561 1476 C 584 1468 606 1459 627 1449 C 647 1439 667 1429 686 1421 C 704 1413 722 1409 739 1409 C 760 1409 781 1416 802 1431 C 823 1445 845 1469 868 1501 L 989 1421 C 954 1362 917 1319 878 1292 C 838 1264 800 1251 762 1251 C 734 1251 708 1255 684 1264 C 660 1272 638 1282 617 1292 C 596 1302 576 1311 557 1320 C 538 1328 520 1333 502 1333 C 478 1333 457 1326 438 1312 C 419 1298 399 1277 379 1247 L 256 1329 Z" unicode="" />
<glyph horiz-adv-x="1028" d="M 412 -16 C 336 -16 273 -6 223 13 C 172 33 131 60 100 95 C 69 130 47 172 34 220 C 20 268 14 321 14 379 C 14 414 16 451 21 489 C 25 527 31 566 39 608 C 53 691 72 766 96 834 C 120 902 153 959 193 1007 C 233 1055 282 1092 340 1118 C 398 1144 469 1157 553 1157 C 629 1157 692 1147 742 1128 C 792 1108 833 1081 864 1047 C 894 1013 916 972 929 924 C 941 876 948 824 948 768 C 948 730 945 691 941 651 C 937 611 931 571 924 530 C 908 444 889 368 866 300 C 842 232 811 175 772 128 C 733 81 684 45 626 21 C 568 -3 496 -16 412 -16 Z M 426 152 C 478 152 521 161 555 180 C 589 198 618 225 640 259 C 662 293 680 335 694 384 C 707 432 719 487 729 547 C 736 586 742 622 747 656 C 751 690 754 722 754 754 C 754 786 750 816 744 844 C 737 871 725 894 709 914 C 693 934 671 949 643 960 C 615 971 581 977 539 977 C 485 977 441 967 406 947 C 371 927 342 900 320 865 C 297 830 279 789 266 741 C 252 693 241 642 231 586 C 223 548 218 513 215 479 C 212 445 211 413 211 385 C 211 351 214 319 221 291 C 227 263 239 238 255 218 C 271 197 293 181 321 169 C 349 157 384 152 426 152 Z M 342 1587 L 551 1587 L 721 1255 L 559 1255 L 342 1587 Z" unicode="" />
<glyph horiz-adv-x="1028" d="M 748 1587 L 963 1587 L 629 1255 L 457 1255 L 748 1587 Z M 412 -16 C 336 -16 273 -6 223 13 C 172 33 131 60 100 95 C 69 130 47 172 34 220 C 20 268 14 321 14 379 C 14 414 16 451 21 489 C 25 527 31 566 39 608 C 53 691 72 766 96 834 C 120 902 153 959 193 1007 C 233 1055 282 1092 340 1118 C 398 1144 469 1157 553 1157 C 629 1157 692 1147 742 1128 C 792 1108 833 1081 864 1047 C 894 1013 916 972 929 924 C 941 876 948 824 948 768 C 948 730 945 691 941 651 C 937 611 931 571 924 530 C 908 444 889 368 866 300 C 842 232 811 175 772 128 C 733 81 684 45 626 21 C 568 -3 496 -16 412 -16 Z M 426 152 C 478 152 521 161 555 180 C 589 198 618 225 640 259 C 662 293 680 335 694 384 C 707 432 719 487 729 547 C 736 586 742 622 747 656 C 751 690 754 722 754 754 C 754 786 750 816 744 844 C 737 871 725 894 709 914 C 693 934 671 949 643 960 C 615 971 581 977 539 977 C 485 977 441 967 406 947 C 371 927 342 900 320 865 C 297 830 279 789 266 741 C 252 693 241 642 231 586 C 223 548 218 513 215 479 C 212 445 211 413 211 385 C 211 351 214 319 221 291 C 227 263 239 238 255 218 C 271 197 293 181 321 169 C 349 157 384 152 426 152 Z" unicode="" />
<glyph horiz-adv-x="1028" d="M 563 1587 L 745 1587 L 913 1255 L 760 1255 L 631 1452 L 436 1255 L 276 1255 L 563 1587 Z M 412 -16 C 336 -16 273 -6 223 13 C 172 33 131 60 100 95 C 69 130 47 172 34 220 C 20 268 14 321 14 379 C 14 414 16 451 21 489 C 25 527 31 566 39 608 C 53 691 72 766 96 834 C 120 902 153 959 193 1007 C 233 1055 282 1092 340 1118 C 398 1144 469 1157 553 1157 C 629 1157 692 1147 742 1128 C 792 1108 833 1081 864 1047 C 894 1013 916 972 929 924 C 941 876 948 824 948 768 C 948 730 945 691 941 651 C 937 611 931 571 924 530 C 908 444 889 368 866 300 C 842 232 811 175 772 128 C 733 81 684 45 626 21 C 568 -3 496 -16 412 -16 Z M 426 152 C 478 152 521 161 555 180 C 589 198 618 225 640 259 C 662 293 680 335 694 384 C 707 432 719 487 729 547 C 736 586 742 622 747 656 C 751 690 754 722 754 754 C 754 786 750 816 744 844 C 737 871 725 894 709 914 C 693 934 671 949 643 960 C 615 971 581 977 539 977 C 485 977 441 967 406 947 C 371 927 342 900 320 865 C 297 830 279 789 266 741 C 252 693 241 642 231 586 C 223 548 218 513 215 479 C 212 445 211 413 211 385 C 211 351 214 319 221 291 C 227 263 239 238 255 218 C 271 197 293 181 321 169 C 349 157 384 152 426 152 Z" unicode="" />
<glyph horiz-adv-x="1028" d="M 412 -16 C 336 -16 273 -6 223 13 C 172 33 131 60 100 95 C 69 130 47 172 34 220 C 20 268 14 321 14 379 C 14 414 16 451 21 489 C 25 527 31 566 39 608 C 53 691 72 766 96 834 C 120 902 153 959 193 1007 C 233 1055 282 1092 340 1118 C 398 1144 469 1157 553 1157 C 629 1157 692 1147 742 1128 C 792 1108 833 1081 864 1047 C 894 1013 916 972 929 924 C 941 876 948 824 948 768 C 948 730 945 691 941 651 C 937 611 931 571 924 530 C 908 444 889 368 866 300 C 842 232 811 175 772 128 C 733 81 684 45 626 21 C 568 -3 496 -16 412 -16 Z M 426 152 C 478 152 521 161 555 180 C 589 198 618 225 640 259 C 662 293 680 335 694 384 C 707 432 719 487 729 547 C 736 586 742 622 747 656 C 751 690 754 722 754 754 C 754 786 750 816 744 844 C 737 871 725 894 709 914 C 693 934 671 949 643 960 C 615 971 581 977 539 977 C 485 977 441 967 406 947 C 371 927 342 900 320 865 C 297 830 279 789 266 741 C 252 693 241 642 231 586 C 223 548 218 513 215 479 C 212 445 211 413 211 385 C 211 351 214 319 221 291 C 227 263 239 238 255 218 C 271 197 293 181 321 169 C 349 157 384 152 426 152 Z M 248 1329 C 282 1383 319 1424 357 1450 C 395 1476 435 1489 479 1489 C 505 1489 529 1484 553 1476 C 576 1468 598 1459 619 1449 C 639 1439 659 1429 678 1421 C 696 1413 714 1409 731 1409 C 752 1409 773 1416 794 1431 C 815 1445 837 1469 860 1501 L 981 1421 C 945 1362 908 1319 869 1292 C 830 1264 792 1251 754 1251 C 726 1251 700 1255 676 1264 C 652 1272 630 1282 609 1292 C 588 1302 568 1311 549 1320 C 530 1328 512 1333 494 1333 C 470 1333 448 1326 430 1312 C 411 1298 391 1277 371 1247 L 248 1329 Z" unicode="" />
<glyph horiz-adv-x="1028" d="M 367 1470 L 539 1470 L 500 1255 L 328 1255 L 367 1470 Z M 731 1470 L 903 1470 L 864 1255 L 690 1255 L 731 1470 Z M 412 -16 C 336 -16 273 -6 223 13 C 172 33 131 60 100 95 C 69 130 47 172 34 220 C 20 268 14 321 14 379 C 14 414 16 451 21 489 C 25 527 31 566 39 608 C 53 691 72 766 96 834 C 120 902 153 959 193 1007 C 233 1055 282 1092 340 1118 C 398 1144 469 1157 553 1157 C 629 1157 692 1147 742 1128 C 792 1108 833 1081 864 1047 C 894 1013 916 972 929 924 C 941 876 948 824 948 768 C 948 730 945 691 941 651 C 937 611 931 571 924 530 C 908 444 889 368 866 300 C 842 232 811 175 772 128 C 733 81 684 45 626 21 C 568 -3 496 -16 412 -16 Z M 426 152 C 478 152 521 161 555 180 C 589 198 618 225 640 259 C 662 293 680 335 694 384 C 707 432 719 487 729 547 C 736 586 742 622 747 656 C 751 690 754 722 754 754 C 754 786 750 816 744 844 C 737 871 725 894 709 914 C 693 934 671 949 643 960 C 615 971 581 977 539 977 C 485 977 441 967 406 947 C 371 927 342 900 320 865 C 297 830 279 789 266 741 C 252 693 241 642 231 586 C 223 548 218 513 215 479 C 212 445 211 413 211 385 C 211 351 214 319 221 291 C 227 263 239 238 255 218 C 271 197 293 181 321 169 C 349 157 384 152 426 152 Z" unicode="" />
<glyph horiz-adv-x="1159" d="M 426 457 L 629 457 L 592 256 L 389 256 L 426 457 Z M 174 811 L 1004 811 L 971 633 L 145 633 L 174 811 Z M 553 1186 L 756 1186 L 723 985 L 520 985 L 553 1186 Z" unicode="" />
<glyph horiz-adv-x="1028" d="M 412 -16 C 370 -16 332 -12 299 -6 C 265 0 235 8 207 18 L 137 -88 L -37 -88 L 92 102 C 64 137 44 178 32 225 C 20 271 14 323 14 379 C 14 414 16 451 21 489 C 25 527 31 566 39 608 C 53 691 72 766 96 834 C 120 902 153 959 193 1007 C 233 1055 282 1092 340 1118 C 398 1144 469 1157 553 1157 C 633 1157 701 1145 756 1122 L 825 1225 L 1001 1225 L 874 1036 C 901 1002 920 962 931 916 C 942 870 948 821 948 768 C 948 730 945 691 941 651 C 937 611 931 571 924 530 C 908 444 889 368 866 300 C 842 232 811 175 772 128 C 733 81 684 45 626 21 C 568 -3 496 -16 412 -16 Z M 426 147 C 479 147 523 156 558 175 C 592 194 621 221 643 256 C 665 291 683 333 697 382 C 710 431 722 486 733 547 C 741 586 748 623 753 658 C 757 692 760 726 760 758 C 760 794 756 826 748 856 L 303 172 C 335 155 376 147 426 147 Z M 207 383 C 207 363 207 345 209 328 C 210 310 213 294 219 279 L 659 961 C 627 975 587 983 539 983 C 485 983 441 973 406 953 C 370 933 341 905 318 869 C 295 833 277 791 263 743 C 249 695 237 642 227 586 C 221 548 217 511 213 477 C 209 443 207 411 207 383 Z" unicode="" />
<glyph horiz-adv-x="1016" d="M 412 -16 C 318 -16 245 -5 191 16 C 137 37 98 68 73 108 C 48 148 35 198 35 256 C 34 314 40 381 53 455 L 174 1137 L 367 1137 L 246 453 C 238 409 233 370 230 334 C 227 298 231 266 241 240 C 251 213 270 192 298 178 C 325 163 366 156 420 156 C 464 156 499 161 527 171 C 554 181 576 196 593 217 C 610 238 623 265 633 299 C 642 332 651 372 659 418 L 784 1137 L 975 1137 L 846 401 C 832 326 816 262 797 210 C 778 157 752 114 720 80 C 688 46 647 22 597 7 C 547 -8 486 -16 412 -16 Z M 338 1587 L 547 1587 L 717 1255 L 555 1255 L 338 1587 Z" unicode="" />
<glyph horiz-adv-x="1016" d="M 743 1587 L 958 1587 L 625 1255 L 453 1255 L 743 1587 Z M 412 -16 C 318 -16 245 -5 191 16 C 137 37 98 68 73 108 C 48 148 35 198 35 256 C 34 314 40 381 53 455 L 174 1137 L 367 1137 L 246 453 C 238 409 233 370 230 334 C 227 298 231 266 241 240 C 251 213 270 192 298 178 C 325 163 366 156 420 156 C 464 156 499 161 527 171 C 554 181 576 196 593 217 C 610 238 623 265 633 299 C 642 332 651 372 659 418 L 784 1137 L 975 1137 L 846 401 C 832 326 816 262 797 210 C 778 157 752 114 720 80 C 688 46 647 22 597 7 C 547 -8 486 -16 412 -16 Z" unicode="" />
<glyph horiz-adv-x="1016" d="M 559 1587 L 741 1587 L 909 1255 L 756 1255 L 627 1452 L 432 1255 L 272 1255 L 559 1587 Z M 412 -16 C 318 -16 245 -5 191 16 C 137 37 98 68 73 108 C 48 148 35 198 35 256 C 34 314 40 381 53 455 L 174 1137 L 367 1137 L 246 453 C 238 409 233 370 230 334 C 227 298 231 266 241 240 C 251 213 270 192 298 178 C 325 163 366 156 420 156 C 464 156 499 161 527 171 C 554 181 576 196 593 217 C 610 238 623 265 633 299 C 642 332 651 372 659 418 L 784 1137 L 975 1137 L 846 401 C 832 326 816 262 797 210 C 778 157 752 114 720 80 C 688 46 647 22 597 7 C 547 -8 486 -16 412 -16 Z" unicode="" />
<glyph horiz-adv-x="1016" d="M 362 1470 L 535 1470 L 496 1255 L 324 1255 L 362 1470 Z M 727 1470 L 899 1470 L 860 1255 L 686 1255 L 727 1470 Z M 412 -16 C 318 -16 245 -5 191 16 C 137 37 98 68 73 108 C 48 148 35 198 35 256 C 34 314 40 381 53 455 L 174 1137 L 367 1137 L 246 453 C 238 409 233 370 230 334 C 227 298 231 266 241 240 C 251 213 270 192 298 178 C 325 163 366 156 420 156 C 464 156 499 161 527 171 C 554 181 576 196 593 217 C 610 238 623 265 633 299 C 642 332 651 372 659 418 L 784 1137 L 975 1137 L 846 401 C 832 326 816 262 797 210 C 778 157 752 114 720 80 C 688 46 647 22 597 7 C 547 -8 486 -16 412 -16 Z" unicode="" />
<glyph horiz-adv-x="893" d="M -31 -166 L 59 -166 C 75 -166 89 -164 101 -162 C 112 -159 122 -155 131 -149 C 139 -143 147 -136 154 -127 C 160 -117 167 -106 174 -92 L 219 4 L 82 1137 L 283 1137 L 369 295 L 748 1137 L 942 1137 L 334 -139 C 314 -178 295 -210 276 -234 C 257 -258 237 -277 215 -291 C 193 -304 169 -313 144 -317 C 118 -321 90 -324 59 -324 L -57 -324 L -31 -166 Z M 686 1587 L 901 1587 L 567 1255 L 395 1255 L 686 1587 Z" unicode="" />
<glyph horiz-adv-x="1057" d="M 260 1575 L 451 1575 L 360 1055 C 376 1070 393 1084 412 1096 C 430 1108 451 1119 475 1128 C 498 1137 525 1144 555 1149 C 585 1154 619 1157 657 1157 C 720 1157 772 1148 814 1130 C 856 1112 889 1087 914 1055 C 938 1023 956 986 966 943 C 976 899 981 853 981 803 C 981 761 978 716 973 670 C 967 624 960 578 952 532 C 938 456 922 384 902 318 C 882 251 856 193 823 144 C 790 95 749 56 700 28 C 650 0 590 -14 518 -14 C 468 -14 424 -10 388 -4 C 351 1 320 10 294 22 C 268 33 247 47 231 63 C 215 79 202 97 193 117 L 117 -324 L -74 -324 L 260 1575 Z M 481 154 C 527 154 565 162 595 180 C 625 198 651 223 672 257 C 692 290 709 331 722 379 C 735 427 747 481 758 543 C 774 623 782 695 782 760 C 782 792 778 821 772 848 C 766 874 755 897 740 916 C 725 935 705 950 681 961 C 656 971 625 977 588 977 C 532 977 487 968 451 950 C 415 932 386 906 364 872 C 341 838 323 798 310 750 C 296 702 284 648 274 588 C 266 552 261 516 257 482 C 253 448 252 415 252 383 C 252 349 255 317 262 289 C 268 261 280 237 298 217 C 315 197 338 181 368 170 C 398 159 435 154 481 154 Z" unicode="" />
<glyph horiz-adv-x="893" d="M -31 -166 L 59 -166 C 75 -166 89 -164 101 -162 C 112 -159 122 -155 131 -149 C 139 -143 147 -136 154 -127 C 160 -117 167 -106 174 -92 L 219 4 L 82 1137 L 283 1137 L 369 295 L 748 1137 L 942 1137 L 334 -139 C 314 -178 295 -210 276 -234 C 257 -258 237 -277 215 -291 C 193 -304 169 -313 144 -317 C 118 -321 90 -324 59 -324 L -57 -324 L -31 -166 Z M 305 1470 L 477 1470 L 438 1255 L 266 1255 L 305 1470 Z M 670 1470 L 842 1470 L 803 1255 L 629 1255 L 670 1470 Z" unicode="" />
<glyph horiz-adv-x="1200" d="" unicode="" />
<glyph horiz-adv-x="1020" d="" unicode="" />
<glyph horiz-adv-x="1200" d="M 641 1528 L 829 1528 L 1024 0 L 821 0 L 784 315 L 256 315 L 109 0 L -96 0 L 641 1528 Z M 766 496 L 682 1221 L 336 496 L 766 496 Z M 786 1593 C 718 1593 664 1600 624 1614 C 584 1628 553 1648 531 1674 C 509 1699 494 1729 486 1765 C 478 1801 474 1840 473 1884 L 618 1905 C 619 1879 622 1856 628 1836 C 633 1816 642 1799 655 1785 C 668 1771 685 1761 707 1754 C 729 1746 757 1743 791 1743 C 819 1743 843 1746 864 1754 C 884 1762 902 1773 917 1788 C 932 1802 945 1820 955 1840 C 965 1860 974 1883 981 1909 L 1122 1886 C 1110 1841 1094 1801 1076 1765 C 1058 1729 1035 1698 1008 1672 C 981 1646 949 1627 913 1613 C 876 1599 834 1593 786 1593 Z" unicode="" />
<glyph horiz-adv-x="1020" d="M 303 -12 C 190 -12 109 11 59 58 C 9 105 -16 174 -16 264 C -16 360 -3 439 20 503 C 44 567 80 618 126 656 C 172 694 228 720 296 736 C 363 752 440 760 526 760 L 674 760 C 679 793 682 823 682 851 C 682 878 677 901 666 921 C 655 941 637 956 611 967 C 585 977 548 983 502 983 C 458 983 413 979 368 973 C 323 967 284 956 250 942 L 193 1102 C 241 1122 294 1137 352 1146 C 410 1154 469 1159 528 1159 C 616 1159 685 1149 735 1130 C 785 1110 820 1082 842 1045 C 864 1008 874 963 874 909 C 873 855 866 793 854 725 L 778 279 C 774 257 772 238 771 224 C 770 210 772 198 776 190 C 780 182 788 176 799 173 C 810 169 826 168 848 168 L 819 0 C 809 -1 798 -2 788 -2 C 777 -2 767 -2 758 -2 C 704 -2 666 6 644 23 C 622 39 610 64 610 98 C 592 78 571 62 548 48 C 524 34 499 22 472 13 C 445 4 417 -2 388 -6 C 359 -10 331 -12 303 -12 Z M 354 150 C 380 150 407 153 434 160 C 460 166 485 179 508 198 C 531 216 552 242 570 275 C 588 307 602 349 612 401 L 645 600 L 535 600 C 473 600 419 596 373 588 C 327 580 290 565 260 543 C 230 521 208 491 194 453 C 179 414 172 364 172 303 C 172 247 187 208 217 185 C 247 161 293 150 354 150 Z M 635 1245 C 567 1245 513 1252 473 1266 C 433 1280 402 1300 380 1326 C 358 1351 343 1381 335 1417 C 327 1453 323 1492 322 1536 L 467 1556 C 467 1530 470 1508 476 1488 C 482 1468 491 1451 504 1437 C 516 1423 533 1413 555 1406 C 577 1398 605 1395 639 1395 C 667 1395 691 1398 712 1406 C 733 1414 751 1425 766 1440 C 781 1454 794 1472 804 1492 C 814 1512 822 1535 829 1561 L 971 1538 C 959 1493 943 1453 925 1417 C 907 1381 884 1350 857 1324 C 830 1298 798 1279 762 1265 C 725 1251 683 1245 635 1245 Z" unicode="" />
<glyph horiz-adv-x="1200" d="M 641 1528 L 829 1528 L 1024 0 L 975 0 C 945 -19 916 -38 889 -58 C 862 -77 839 -97 819 -117 C 799 -137 783 -158 771 -180 C 759 -202 754 -225 754 -250 C 754 -270 762 -287 778 -300 C 794 -312 822 -319 862 -319 L 909 -319 L 887 -442 L 840 -442 C 759 -442 699 -429 661 -403 C 623 -377 604 -339 604 -289 C 604 -252 610 -218 624 -186 C 638 -154 655 -126 677 -100 C 698 -74 721 -51 746 -31 C 771 -11 795 4 819 18 L 784 315 L 256 315 L 109 0 L -96 0 L 641 1528 Z M 766 496 L 682 1221 L 336 496 L 766 496 Z" unicode="" />
<glyph horiz-adv-x="1020" d="M 303 -12 C 190 -12 109 11 59 58 C 9 105 -16 174 -16 264 C -16 360 -3 439 20 503 C 44 567 80 618 126 656 C 172 694 228 720 296 736 C 363 752 440 760 526 760 L 674 760 C 679 793 682 823 682 851 C 682 878 677 901 666 921 C 655 941 637 956 611 967 C 585 977 548 983 502 983 C 458 983 413 979 368 973 C 323 967 284 956 250 942 L 193 1102 C 241 1122 294 1137 352 1146 C 410 1154 469 1159 528 1159 C 616 1159 685 1149 735 1130 C 785 1110 820 1082 842 1045 C 864 1008 874 963 874 909 C 873 855 866 793 854 725 L 778 279 C 774 257 772 238 771 224 C 770 210 772 198 776 190 C 780 182 788 176 799 173 C 810 169 826 168 848 168 L 819 0 C 789 -19 760 -38 734 -58 C 708 -77 685 -97 665 -117 C 645 -137 629 -158 617 -180 C 605 -202 600 -225 600 -250 C 600 -270 608 -287 624 -300 C 640 -312 669 -319 709 -319 L 756 -319 L 731 -442 L 686 -442 C 605 -442 546 -429 508 -403 C 470 -377 451 -339 451 -289 C 451 -253 457 -219 470 -188 C 483 -157 500 -129 520 -103 C 540 -77 562 -55 586 -35 C 610 -15 634 0 657 14 C 625 30 610 58 610 98 C 592 78 571 62 548 48 C 524 34 499 22 472 13 C 445 4 417 -2 388 -6 C 359 -10 331 -12 303 -12 Z M 354 150 C 380 150 407 153 434 160 C 460 166 485 179 508 198 C 531 216 552 242 570 275 C 588 307 602 349 612 401 L 645 600 L 535 600 C 473 600 419 596 373 588 C 327 580 290 565 260 543 C 230 521 208 491 194 453 C 179 414 172 364 172 303 C 172 247 187 208 217 185 C 247 161 293 150 354 150 Z" unicode="" />
<glyph horiz-adv-x="1042" d="M 819 1935 L 1034 1935 L 700 1604 L 528 1604 L 819 1935 Z M 512 -16 C 424 -16 349 -4 288 19 C 227 42 178 75 140 118 C 102 161 75 213 58 273 C 41 333 33 401 33 475 C 33 525 36 577 42 632 C 48 687 57 745 68 805 C 88 921 114 1024 146 1114 C 177 1204 218 1281 268 1343 C 318 1405 380 1452 453 1485 C 525 1517 613 1534 717 1534 C 803 1534 877 1524 939 1504 C 1001 1484 1050 1460 1087 1434 L 975 1264 C 962 1272 947 1280 930 1289 C 912 1298 892 1306 869 1314 C 846 1322 820 1328 790 1333 C 760 1338 727 1341 690 1341 C 630 1341 577 1330 532 1310 C 487 1289 448 1256 414 1212 C 380 1167 352 1109 328 1038 C 304 966 284 880 266 780 C 246 668 236 569 236 485 C 236 378 259 297 306 243 C 352 189 429 162 537 162 C 635 162 723 184 801 229 L 889 78 C 834 46 775 22 713 7 C 651 -8 584 -16 512 -16 Z" unicode="" />
<glyph horiz-adv-x="836" d="M 657 1587 L 872 1587 L 539 1255 L 367 1255 L 657 1587 Z M 401 -16 C 327 -16 266 -7 217 11 C 167 29 127 54 97 88 C 66 121 44 161 31 208 C 18 255 12 307 12 365 C 12 401 14 440 19 480 C 24 520 31 564 39 610 C 54 700 74 779 98 847 C 122 915 153 972 191 1018 C 229 1064 276 1098 332 1122 C 387 1145 454 1157 532 1157 C 570 1157 604 1155 634 1151 C 664 1147 692 1142 716 1136 C 740 1129 761 1121 781 1113 C 800 1105 818 1096 834 1087 L 725 930 C 703 944 677 955 646 964 C 615 972 576 977 530 977 C 484 977 445 968 413 952 C 381 936 353 911 331 879 C 308 847 289 806 273 757 C 257 707 243 650 231 584 C 225 546 220 509 216 475 C 212 441 211 409 211 381 C 211 345 214 312 222 284 C 229 255 241 231 259 212 C 276 192 299 177 327 167 C 355 157 390 152 432 152 C 464 152 494 154 523 160 C 552 165 584 174 618 188 L 670 35 C 620 14 573 0 529 -6 C 485 -12 443 -16 401 -16 Z" unicode="" />
<glyph horiz-adv-x="1042" d="" unicode="" />
<glyph horiz-adv-x="836" d="" unicode="" />
<glyph horiz-adv-x="1042" d="" unicode="" />
<glyph horiz-adv-x="836" d="" unicode="" />
<glyph horiz-adv-x="1042" d="M 410 1935 L 565 1935 L 690 1737 L 887 1935 L 1047 1935 L 758 1604 L 580 1604 L 410 1935 Z M 512 -16 C 424 -16 349 -4 288 19 C 227 42 178 75 140 118 C 102 161 75 213 58 273 C 41 333 33 401 33 475 C 33 525 36 577 42 632 C 48 687 57 745 68 805 C 88 921 114 1024 146 1114 C 177 1204 218 1281 268 1343 C 318 1405 380 1452 453 1485 C 525 1517 613 1534 717 1534 C 803 1534 877 1524 939 1504 C 1001 1484 1050 1460 1087 1434 L 975 1264 C 962 1272 947 1280 930 1289 C 912 1298 892 1306 869 1314 C 846 1322 820 1328 790 1333 C 760 1338 727 1341 690 1341 C 630 1341 577 1330 532 1310 C 487 1289 448 1256 414 1212 C 380 1167 352 1109 328 1038 C 304 966 284 880 266 780 C 246 668 236 569 236 485 C 236 378 259 297 306 243 C 352 189 429 162 537 162 C 635 162 723 184 801 229 L 889 78 C 834 46 775 22 713 7 C 651 -8 584 -16 512 -16 Z" unicode="" />
<glyph horiz-adv-x="836" d="M 248 1587 L 403 1587 L 528 1389 L 725 1587 L 885 1587 L 596 1255 L 418 1255 L 248 1587 Z M 401 -16 C 327 -16 266 -7 217 11 C 167 29 127 54 97 88 C 66 121 44 161 31 208 C 18 255 12 307 12 365 C 12 401 14 440 19 480 C 24 520 31 564 39 610 C 54 700 74 779 98 847 C 122 915 153 972 191 1018 C 229 1064 276 1098 332 1122 C 387 1145 454 1157 532 1157 C 570 1157 604 1155 634 1151 C 664 1147 692 1142 716 1136 C 740 1129 761 1121 781 1113 C 800 1105 818 1096 834 1087 L 725 930 C 703 944 677 955 646 964 C 615 972 576 977 530 977 C 484 977 445 968 413 952 C 381 936 353 911 331 879 C 308 847 289 806 273 757 C 257 707 243 650 231 584 C 225 546 220 509 216 475 C 212 441 211 409 211 381 C 211 345 214 312 222 284 C 229 255 241 231 259 212 C 276 192 299 177 327 167 C 355 157 390 152 432 152 C 464 152 494 154 523 160 C 552 165 584 174 618 188 L 670 35 C 620 14 573 0 529 -6 C 485 -12 443 -16 401 -16 Z" unicode="" />
<glyph horiz-adv-x="1204" d="M 489 1935 L 645 1935 L 770 1737 L 967 1935 L 1126 1935 L 838 1604 L 659 1604 L 489 1935 Z M 268 1518 L 639 1518 C 736 1518 818 1507 886 1487 C 954 1467 1009 1436 1051 1396 C 1093 1356 1123 1305 1142 1245 C 1161 1185 1171 1115 1171 1036 C 1171 986 1167 934 1161 879 C 1155 823 1147 766 1137 707 C 1114 578 1086 469 1053 379 C 1019 289 977 216 925 160 C 873 104 811 63 737 38 C 663 12 574 0 471 0 L 0 0 L 268 1518 Z M 496 174 C 562 174 619 184 667 204 C 715 224 755 256 789 300 C 823 344 851 401 874 471 C 897 541 918 627 936 727 C 946 781 954 831 960 879 C 966 927 969 972 969 1014 C 969 1068 963 1115 951 1155 C 939 1195 920 1228 893 1255 C 866 1281 831 1301 788 1315 C 744 1328 691 1335 629 1335 L 434 1335 L 229 174 L 496 174 Z" unicode="" />
<glyph horiz-adv-x="1233" d="M 1137 1241 C 1158 1252 1175 1262 1189 1271 C 1203 1279 1214 1288 1222 1297 C 1230 1306 1237 1316 1241 1328 C 1245 1340 1249 1354 1253 1372 L 1167 1372 L 1202 1575 L 1391 1575 L 1358 1384 C 1352 1356 1346 1332 1340 1312 C 1333 1291 1323 1272 1310 1255 C 1297 1238 1279 1222 1257 1208 C 1235 1193 1205 1178 1169 1163 L 1137 1241 Z M 334 -16 C 270 -16 218 -6 176 11 C 134 29 101 55 77 87 C 52 119 35 156 25 200 C 15 244 10 291 10 342 C 10 384 12 428 18 474 C 24 520 31 566 39 612 C 52 688 68 760 88 826 C 108 892 134 950 167 999 C 200 1048 241 1087 291 1115 C 341 1143 402 1157 475 1157 C 524 1157 567 1153 603 1147 C 639 1141 670 1132 696 1120 C 722 1108 743 1095 759 1079 C 775 1063 789 1045 799 1026 L 895 1575 L 1087 1575 L 811 8 L 655 -6 L 664 96 C 628 60 584 32 531 13 C 477 -6 412 -16 334 -16 Z M 406 154 C 460 154 504 163 540 181 C 575 199 604 225 627 259 C 649 293 667 334 681 382 C 694 430 706 485 717 545 C 723 581 728 617 732 651 C 736 685 739 718 739 750 C 739 784 735 815 728 843 C 721 871 709 895 692 915 C 674 935 651 950 621 962 C 591 973 554 979 510 979 C 464 979 426 970 396 952 C 365 934 339 909 319 876 C 299 842 282 802 269 754 C 255 706 243 652 233 592 C 225 550 219 511 215 475 C 211 439 209 405 209 373 C 209 341 212 311 218 284 C 224 257 235 234 250 215 C 265 195 285 180 311 170 C 336 159 368 154 406 154 Z" unicode="" />
<glyph horiz-adv-x="1204" d="M 23 862 L 152 862 L 268 1518 L 639 1518 C 736 1518 818 1507 886 1487 C 954 1467 1009 1436 1051 1396 C 1093 1356 1123 1305 1142 1245 C 1161 1185 1171 1115 1171 1036 C 1171 986 1168 934 1162 879 C 1156 823 1148 766 1137 707 C 1114 578 1086 469 1052 379 C 1018 289 976 216 924 160 C 872 104 809 63 735 38 C 661 12 572 0 469 0 L 0 0 L 123 698 L -8 698 L 23 862 Z M 496 174 C 563 174 620 184 668 204 C 716 224 757 256 791 300 C 825 344 853 401 876 471 C 898 541 918 627 936 727 C 946 781 954 831 960 879 C 966 927 969 972 969 1014 C 969 1068 963 1115 951 1155 C 939 1195 919 1228 892 1255 C 865 1281 830 1301 787 1315 C 744 1328 691 1335 629 1335 L 434 1335 L 350 862 L 590 862 L 563 698 L 322 698 L 229 174 L 496 174 Z" unicode="" />
<glyph horiz-adv-x="1057" d="M 635 1427 L 868 1427 L 895 1575 L 1087 1575 L 1061 1427 L 1180 1427 L 1151 1266 L 1032 1266 L 811 8 L 655 -6 L 664 96 C 628 60 584 32 531 13 C 477 -6 412 -16 334 -16 C 270 -16 218 -6 176 11 C 134 29 101 55 77 87 C 52 119 35 156 25 200 C 15 244 10 291 10 342 C 10 384 12 428 18 474 C 24 520 31 566 39 612 C 52 688 68 760 88 826 C 108 892 134 950 167 999 C 200 1048 241 1087 291 1115 C 341 1143 402 1157 475 1157 C 524 1157 567 1153 603 1147 C 639 1141 670 1132 696 1120 C 722 1108 743 1095 759 1079 C 775 1063 789 1045 799 1026 L 840 1266 L 608 1266 L 635 1427 Z M 406 154 C 460 154 504 163 540 181 C 575 199 604 225 627 259 C 649 293 667 334 681 382 C 694 430 706 485 717 545 C 723 581 728 617 732 651 C 736 685 739 718 739 750 C 739 784 735 815 728 843 C 721 871 709 895 692 915 C 674 935 651 950 621 962 C 591 973 554 979 510 979 C 464 979 426 970 396 952 C 365 934 339 909 319 876 C 299 842 282 802 269 754 C 255 706 243 652 233 592 C 225 550 219 511 215 475 C 211 439 209 405 209 373 C 209 341 212 311 218 284 C 224 257 235 234 250 215 C 265 195 285 180 311 170 C 336 159 368 154 406 154 Z" unicode="" />
<glyph horiz-adv-x="1038" d="" unicode="" />
<glyph horiz-adv-x="956" d="" unicode="" />
<glyph horiz-adv-x="1038" d="" unicode="" />
<glyph horiz-adv-x="956" d="" unicode="" />
<glyph horiz-adv-x="1038" d="" unicode="" />
<glyph horiz-adv-x="956" d="" unicode="" />
<glyph horiz-adv-x="1038" d="M 268 1518 L 1079 1518 L 1047 1335 L 430 1335 L 350 874 L 930 874 L 897 694 L 315 694 L 225 178 L 844 178 L 813 0 L 750 0 C 724 -18 699 -37 677 -57 C 654 -77 634 -97 617 -119 C 600 -140 587 -162 577 -184 C 567 -206 563 -228 563 -250 C 563 -270 571 -287 588 -300 C 605 -312 634 -319 674 -319 L 721 -319 L 696 -442 L 651 -442 C 571 -442 511 -429 472 -403 C 433 -377 414 -339 414 -289 C 414 -255 419 -224 431 -195 C 442 -166 457 -139 475 -115 C 493 -91 513 -69 535 -50 C 557 -30 578 -14 600 0 L 0 0 L 268 1518 Z" unicode="" />
<glyph horiz-adv-x="956" d="M 489 -442 C 409 -442 349 -429 310 -403 C 271 -377 252 -339 252 -289 C 252 -258 256 -229 266 -202 C 276 -175 288 -150 304 -127 C 319 -104 336 -83 356 -64 C 376 -45 396 -28 416 -14 C 338 -14 274 -5 222 13 C 170 31 129 56 98 89 C 67 121 45 161 33 207 C 20 253 14 304 14 360 C 14 398 16 437 20 479 C 24 521 31 564 39 610 C 54 698 74 776 99 844 C 124 912 156 969 195 1015 C 233 1061 280 1097 335 1121 C 389 1145 454 1157 528 1157 C 599 1157 658 1149 704 1135 C 750 1120 787 1099 815 1073 C 842 1047 861 1015 872 978 C 883 940 889 899 889 854 C 889 829 887 802 884 772 C 881 742 877 710 872 678 C 867 646 862 613 856 580 C 850 546 844 514 838 483 L 207 483 C 203 441 201 405 201 375 C 201 340 204 309 212 282 C 219 254 231 231 249 212 C 267 193 291 179 321 169 C 351 159 390 154 436 154 C 488 154 534 158 574 167 C 614 176 654 187 692 201 L 743 45 C 691 25 640 10 588 0 C 562 -18 537 -37 515 -57 C 492 -77 472 -97 455 -119 C 438 -140 425 -162 415 -184 C 405 -206 401 -228 401 -250 C 401 -270 409 -287 426 -300 C 443 -312 472 -319 512 -319 L 559 -319 L 535 -442 L 489 -442 Z M 518 985 C 472 985 434 977 404 963 C 373 948 347 926 326 898 C 304 870 287 835 273 794 C 259 753 246 707 236 655 L 682 655 C 688 687 693 717 698 745 C 702 773 705 800 705 825 C 705 849 702 871 697 891 C 692 911 683 928 669 942 C 655 956 636 966 612 974 C 588 981 556 985 518 985 Z" unicode="" />
<glyph horiz-adv-x="1038" d="M 408 1935 L 563 1935 L 688 1737 L 885 1935 L 1044 1935 L 756 1604 L 578 1604 L 408 1935 Z M 268 1518 L 1079 1518 L 1047 1335 L 430 1335 L 350 874 L 930 874 L 897 694 L 315 694 L 225 178 L 844 178 L 813 0 L 0 0 L 268 1518 Z" unicode="" />
<glyph horiz-adv-x="956" d="M 307 1587 L 463 1587 L 588 1389 L 784 1587 L 944 1587 L 655 1255 L 477 1255 L 307 1587 Z M 418 -14 C 340 -14 275 -5 223 13 C 171 31 129 56 98 89 C 67 121 45 161 33 207 C 20 253 14 304 14 360 C 14 398 16 437 20 479 C 24 521 31 564 39 610 C 54 698 74 776 99 844 C 124 912 156 969 195 1015 C 233 1061 280 1097 335 1121 C 389 1145 454 1157 528 1157 C 599 1157 658 1149 704 1135 C 750 1120 787 1099 815 1073 C 842 1047 861 1015 872 978 C 883 940 889 899 889 854 C 889 829 887 802 884 772 C 881 742 877 710 872 678 C 867 646 862 613 856 580 C 850 546 844 514 838 483 L 207 483 C 203 441 201 405 201 375 C 201 340 204 309 212 282 C 219 254 231 231 249 212 C 267 193 291 179 321 169 C 351 159 390 154 436 154 C 488 154 534 158 574 167 C 614 176 654 187 692 201 L 743 45 C 693 24 641 9 588 0 C 534 -9 478 -14 418 -14 Z M 518 985 C 472 985 434 977 404 963 C 373 948 347 926 326 898 C 304 870 287 835 273 794 C 259 753 246 707 236 655 L 682 655 C 688 687 693 717 698 745 C 702 773 705 800 705 825 C 705 849 702 871 697 891 C 692 911 683 928 669 942 C 655 956 636 966 612 974 C 588 981 556 985 518 985 Z" unicode="" />
<glyph horiz-adv-x="1157" d="" unicode="" />
<glyph horiz-adv-x="993" d="" unicode="" />
<glyph horiz-adv-x="1157" d="M 506 -16 C 418 -16 345 -5 285 17 C 225 39 176 71 139 113 C 101 155 74 206 58 268 C 41 329 33 399 33 477 C 33 571 44 680 68 805 C 92 945 123 1061 161 1155 C 199 1249 244 1324 297 1380 C 350 1436 411 1475 481 1499 C 550 1522 629 1534 717 1534 C 773 1534 822 1530 865 1524 C 908 1517 946 1508 980 1498 C 1013 1487 1042 1474 1067 1460 C 1092 1446 1115 1431 1135 1417 L 1004 1257 C 988 1268 971 1279 953 1289 C 934 1299 912 1309 888 1317 C 863 1325 835 1331 803 1336 C 771 1340 734 1343 694 1343 C 640 1343 591 1334 547 1318 C 503 1301 464 1271 430 1229 C 395 1187 364 1129 337 1056 C 310 983 286 890 266 778 C 256 719 248 664 242 612 C 236 560 233 515 233 477 C 233 421 238 372 249 332 C 260 291 278 257 302 231 C 326 205 356 185 394 173 C 431 160 476 154 528 154 C 583 154 630 161 668 177 C 706 193 739 219 765 256 C 791 292 812 341 829 401 C 846 461 861 536 874 625 L 883 682 L 543 682 L 573 856 L 1112 856 L 1075 641 C 1060 553 1044 476 1026 410 C 1008 343 988 285 966 237 C 944 188 918 147 890 115 C 861 83 828 57 791 37 C 754 17 712 4 665 -4 C 618 -12 565 -16 506 -16 Z M 766 1593 C 698 1593 644 1600 604 1614 C 564 1628 533 1648 511 1674 C 489 1699 474 1729 466 1765 C 458 1801 454 1840 453 1884 L 598 1905 C 598 1879 601 1856 607 1836 C 613 1816 622 1799 635 1785 C 647 1771 664 1761 686 1754 C 708 1746 736 1743 770 1743 C 798 1743 822 1746 843 1754 C 864 1762 882 1773 897 1788 C 912 1802 925 1820 935 1840 C 945 1860 954 1883 961 1909 L 1102 1886 C 1090 1841 1074 1801 1056 1765 C 1038 1729 1015 1698 988 1672 C 961 1646 929 1627 893 1613 C 856 1599 814 1593 766 1593 Z" unicode="" />
<glyph horiz-adv-x="993" d="M 461 408 C 395 408 337 414 289 426 C 269 402 260 378 260 352 C 260 340 261 329 265 321 C 269 312 275 305 285 299 C 294 293 306 289 322 286 C 338 283 357 281 381 281 C 465 279 534 273 590 264 C 645 254 689 239 722 219 C 755 199 778 172 792 139 C 806 106 813 66 813 18 C 813 -50 801 -107 779 -153 C 757 -199 725 -236 684 -264 C 642 -292 592 -312 533 -324 C 474 -336 408 -342 334 -342 C 254 -342 185 -336 128 -326 C 70 -316 23 -301 -12 -281 C -48 -261 -75 -236 -93 -206 C -110 -176 -119 -141 -119 -102 C -119 -62 -112 -25 -100 8 C -87 42 -69 71 -46 97 C -23 123 4 144 37 162 C 70 180 107 193 147 201 C 127 215 113 232 104 252 C 94 272 90 298 90 328 C 90 356 96 384 110 412 C 124 440 143 465 168 489 C 140 513 119 542 105 577 C 91 612 84 654 84 702 C 84 763 89 817 101 863 C 112 909 127 949 147 983 C 167 1017 190 1045 217 1067 C 243 1089 272 1107 304 1121 C 335 1134 368 1143 402 1149 C 436 1154 470 1157 504 1157 C 523 1157 542 1156 560 1156 C 578 1155 596 1154 614 1153 L 999 1225 L 973 1055 L 782 1055 C 814 1033 838 1004 855 967 C 872 929 881 885 881 834 C 881 774 875 722 863 678 C 851 634 836 596 816 565 C 796 533 772 507 745 487 C 718 467 689 451 658 439 C 626 427 594 419 560 415 C 526 410 493 408 461 408 Z M 459 565 C 489 565 519 568 547 576 C 575 583 599 596 620 616 C 641 636 658 663 671 697 C 683 731 690 775 690 829 C 690 878 676 917 648 946 C 620 974 573 989 508 989 C 478 989 448 985 420 977 C 392 969 367 956 345 936 C 323 916 305 888 292 853 C 278 818 272 773 272 719 C 272 668 287 630 317 604 C 347 578 395 565 459 565 Z M 346 -193 C 396 -193 437 -189 471 -182 C 505 -174 532 -163 553 -147 C 574 -131 589 -111 598 -87 C 607 -62 612 -32 612 2 C 612 26 607 47 597 64 C 587 80 572 94 550 104 C 528 114 500 121 465 125 C 430 129 388 131 338 131 C 287 131 245 125 212 115 C 178 104 152 90 133 72 C 113 54 100 34 92 11 C 84 -12 80 -36 80 -61 C 80 -82 84 -101 93 -117 C 102 -133 117 -147 138 -158 C 158 -169 186 -178 220 -184 C 254 -190 296 -193 346 -193 Z M 621 1245 C 553 1245 499 1252 459 1266 C 418 1280 387 1300 365 1326 C 343 1351 328 1381 320 1417 C 312 1453 308 1492 307 1536 L 453 1556 C 453 1530 456 1508 462 1488 C 467 1468 476 1451 489 1437 C 502 1423 519 1413 541 1406 C 563 1398 591 1395 625 1395 C 653 1395 677 1398 698 1406 C 718 1414 736 1425 751 1440 C 766 1454 779 1472 789 1492 C 799 1512 808 1535 815 1561 L 956 1538 C 944 1493 928 1453 910 1417 C 892 1381 869 1350 842 1324 C 815 1298 783 1279 747 1265 C 711 1251 669 1245 621 1245 Z" unicode="" />
<glyph horiz-adv-x="1157" d="" unicode="" />
<glyph horiz-adv-x="993" d="" unicode="" />
<glyph horiz-adv-x="1157" d="" unicode="" />
<glyph horiz-adv-x="993" d="" unicode="" />
<glyph horiz-adv-x="1266" d="" unicode="" />
<glyph horiz-adv-x="1040" d="" unicode="" />
<glyph horiz-adv-x="1266" d="" unicode="" />
<glyph horiz-adv-x="1040" d="" unicode="" />
<glyph horiz-adv-x="492" d="" unicode="" />
<glyph horiz-adv-x="436" d="" unicode="" />
<glyph horiz-adv-x="492" d="" unicode="" />
<glyph horiz-adv-x="436" d="" unicode="" />
<glyph horiz-adv-x="492" d="" unicode="" />
<glyph horiz-adv-x="436" d="" unicode="" />
<glyph horiz-adv-x="492" d="" unicode="" />
<glyph horiz-adv-x="436" d="" unicode="" />
<glyph horiz-adv-x="492" d="M 281 1518 L 479 1518 L 211 0 L 12 0 L 281 1518 Z M 342 1833 L 537 1833 L 496 1604 L 301 1604 L 342 1833 Z" unicode="" />
<glyph horiz-adv-x="436" d="M 190 1137 L 383 1137 L 180 0 L -10 0 L 190 1137 Z" unicode="" />
<glyph horiz-adv-x="1217" d="" unicode="" />
<glyph horiz-adv-x="872" d="" unicode="" />
<glyph horiz-adv-x="725" d="" unicode="" />
<glyph horiz-adv-x="436" d="" unicode="" />
<glyph horiz-adv-x="1174" d="" unicode="" />
<glyph horiz-adv-x="926" d="" unicode="" />
<glyph horiz-adv-x="926" d="" unicode="" />
<glyph horiz-adv-x="963" d="M 584 1935 L 799 1935 L 465 1604 L 293 1604 L 584 1935 Z M 268 1518 L 467 1518 L 229 178 L 823 178 L 793 0 L 0 0 L 268 1518 Z" unicode="" />
<glyph horiz-adv-x="520" d="M 586 2005 L 801 2005 L 467 1673 L 295 1673 L 586 2005 Z M 313 0 C 309 -1 303 -2 294 -2 C 284 -2 270 -2 252 -2 C 200 -2 159 3 127 14 C 95 24 71 41 55 65 C 39 89 30 119 28 157 C 26 194 29 239 39 293 L 268 1575 L 459 1575 L 231 289 C 227 265 224 246 223 231 C 222 215 225 203 232 194 C 239 184 251 178 269 174 C 286 170 311 168 344 168 L 313 0 Z" unicode="" />
<glyph horiz-adv-x="963" d="" unicode="" />
<glyph horiz-adv-x="520" d="" unicode="" />
<glyph horiz-adv-x="963" d="M 561 1241 C 583 1252 600 1262 614 1271 C 628 1279 639 1288 647 1297 C 655 1306 662 1316 666 1328 C 670 1340 674 1354 678 1372 L 592 1372 L 627 1575 L 815 1575 L 780 1384 C 775 1356 769 1332 763 1312 C 757 1291 747 1272 734 1255 C 720 1238 703 1222 681 1208 C 659 1193 630 1178 594 1163 L 561 1241 Z M 268 1518 L 467 1518 L 229 178 L 823 178 L 793 0 L 0 0 L 268 1518 Z" unicode="" />
<glyph horiz-adv-x="614" d="M 506 1241 C 528 1252 547 1262 561 1271 C 575 1279 586 1288 594 1297 C 602 1306 609 1316 613 1328 C 617 1340 621 1354 625 1372 L 539 1372 L 575 1575 L 764 1575 L 729 1384 C 723 1356 717 1332 711 1312 C 705 1291 695 1272 682 1255 C 669 1238 652 1222 630 1208 C 608 1193 579 1178 543 1163 L 506 1241 Z M 313 0 C 309 -1 303 -2 294 -2 C 284 -2 270 -2 252 -2 C 200 -2 159 3 127 14 C 95 24 71 41 55 65 C 39 89 30 119 28 157 C 26 194 29 239 39 293 L 268 1575 L 459 1575 L 231 289 C 227 265 224 246 223 231 C 222 215 225 203 232 194 C 239 184 251 178 269 174 C 286 170 311 168 344 168 L 313 0 Z" unicode="" />
<glyph horiz-adv-x="1040" d="" unicode="" />
<glyph horiz-adv-x="862" d="" unicode="" />
<glyph horiz-adv-x="963" d="M 6 782 L 150 854 L 268 1518 L 467 1518 L 369 963 L 641 1100 L 612 936 L 340 799 L 229 178 L 823 178 L 793 0 L 0 0 L 121 690 L -23 618 L 6 782 Z" unicode="" />
<glyph horiz-adv-x="643" d="M 78 967 L 258 1061 L 350 1575 L 541 1575 L 469 1171 L 668 1276 L 639 1106 L 438 1001 L 313 289 C 309 265 306 246 305 231 C 304 215 307 203 314 194 C 321 184 333 178 351 174 C 368 170 393 168 426 168 L 395 0 C 391 -1 385 -2 376 -2 C 366 -2 352 -2 334 -2 C 282 -2 240 3 208 13 C 176 23 151 39 135 61 C 119 83 109 111 107 146 C 105 181 108 224 117 274 L 227 891 L 49 799 L 78 967 Z" unicode="" />
<glyph horiz-adv-x="1260" d="M 928 1935 L 1143 1935 L 809 1604 L 637 1604 L 928 1935 Z M 268 1518 L 481 1518 L 872 393 L 1071 1518 L 1262 1518 L 993 0 L 809 0 L 395 1174 L 186 0 L 0 0 L 268 1518 Z" unicode="" />
<glyph horiz-adv-x="1040" d="M 756 1587 L 971 1587 L 637 1255 L 465 1255 L 756 1587 Z M 178 1126 L 334 1139 L 328 1042 C 356 1075 397 1102 450 1124 C 502 1146 567 1157 643 1157 C 697 1157 743 1151 780 1140 C 817 1129 847 1114 870 1094 C 893 1074 910 1050 921 1023 C 932 995 939 965 942 933 C 944 901 944 866 940 830 C 936 794 930 757 924 719 L 797 0 L 604 0 L 727 694 C 735 740 740 780 743 815 C 745 850 741 879 731 903 C 721 927 702 945 675 957 C 648 969 609 975 559 975 C 513 975 475 967 444 952 C 413 936 387 914 367 884 C 346 854 329 816 316 771 C 302 726 291 674 281 616 L 172 0 L -18 0 L 178 1126 Z" unicode="" />
<glyph horiz-adv-x="1260" d="" unicode="" />
<glyph horiz-adv-x="1040" d="" unicode="" />
<glyph horiz-adv-x="1260" d="M 518 1935 L 674 1935 L 799 1737 L 995 1935 L 1155 1935 L 866 1604 L 688 1604 L 518 1935 Z M 268 1518 L 481 1518 L 872 393 L 1071 1518 L 1262 1518 L 993 0 L 809 0 L 395 1174 L 186 0 L 0 0 L 268 1518 Z" unicode="" />
<glyph horiz-adv-x="1040" d="M 346 1587 L 502 1587 L 627 1389 L 823 1587 L 983 1587 L 694 1255 L 516 1255 L 346 1587 Z M 178 1126 L 334 1139 L 328 1042 C 356 1075 397 1102 450 1124 C 502 1146 567 1157 643 1157 C 697 1157 743 1151 780 1140 C 817 1129 847 1114 870 1094 C 893 1074 910 1050 921 1023 C 932 995 939 965 942 933 C 944 901 944 866 940 830 C 936 794 930 757 924 719 L 797 0 L 604 0 L 727 694 C 735 740 740 780 743 815 C 745 850 741 879 731 903 C 721 927 702 945 675 957 C 648 969 609 975 559 975 C 513 975 475 967 444 952 C 413 936 387 914 367 884 C 346 854 329 816 316 771 C 302 726 291 674 281 616 L 172 0 L -18 0 L 178 1126 Z" unicode="" />
<glyph horiz-adv-x="1360" d="" unicode="" />
<glyph horiz-adv-x="1260" d="" unicode="" />
<glyph horiz-adv-x="1040" d="" unicode="" />
<glyph horiz-adv-x="1262" d="" unicode="" />
<glyph horiz-adv-x="1028" d="" unicode="" />
<glyph horiz-adv-x="1262" d="" unicode="" />
<glyph horiz-adv-x="1028" d="" unicode="" />
<glyph horiz-adv-x="1262" d="M 756 1935 L 956 1935 L 627 1604 L 473 1604 L 756 1935 Z M 1130 1935 L 1331 1935 L 1004 1604 L 850 1604 L 1130 1935 Z M 537 -16 C 438 -16 356 -3 292 23 C 227 49 175 84 137 129 C 99 174 72 227 56 288 C 40 348 33 413 33 483 C 33 535 36 588 42 641 C 48 694 57 749 68 805 C 80 875 94 941 110 1005 C 126 1068 147 1127 171 1181 C 195 1235 223 1283 256 1327 C 288 1370 327 1407 371 1438 C 415 1468 465 1492 522 1509 C 579 1525 644 1534 717 1534 C 817 1534 900 1520 966 1494 C 1032 1468 1084 1432 1123 1387 C 1162 1341 1189 1288 1205 1226 C 1221 1164 1229 1098 1229 1028 C 1229 976 1225 924 1219 870 C 1213 816 1205 761 1196 705 C 1183 635 1168 569 1152 506 C 1135 443 1115 385 1091 332 C 1067 278 1038 230 1006 187 C 973 144 934 108 890 78 C 845 48 794 24 736 8 C 678 -7 611 -16 537 -16 Z M 547 162 C 623 162 686 175 736 201 C 786 227 828 265 862 314 C 895 362 922 421 942 490 C 962 558 979 635 995 721 C 1004 773 1012 823 1018 872 C 1024 921 1028 968 1028 1012 C 1028 1060 1023 1105 1013 1145 C 1003 1185 986 1220 962 1250 C 938 1279 906 1302 866 1318 C 826 1334 777 1343 717 1343 C 640 1343 576 1329 525 1302 C 474 1275 432 1237 399 1188 C 365 1138 338 1079 318 1009 C 298 939 280 862 266 778 C 256 726 248 675 242 626 C 236 576 233 531 233 489 C 233 440 237 396 247 356 C 257 316 274 281 298 253 C 322 224 354 202 394 186 C 434 170 485 162 547 162 Z" unicode="" />
<glyph horiz-adv-x="1028" d="M 573 1587 L 774 1587 L 444 1255 L 291 1255 L 573 1587 Z M 948 1587 L 1149 1587 L 821 1255 L 668 1255 L 948 1587 Z M 412 -16 C 336 -16 273 -6 223 13 C 172 33 131 60 100 95 C 69 130 47 172 34 220 C 20 268 14 321 14 379 C 14 414 16 451 21 489 C 25 527 31 566 39 608 C 53 691 72 766 96 834 C 120 902 153 959 193 1007 C 233 1055 282 1092 340 1118 C 398 1144 469 1157 553 1157 C 629 1157 692 1147 742 1128 C 792 1108 833 1081 864 1047 C 894 1013 916 972 929 924 C 941 876 948 824 948 768 C 948 730 945 691 941 651 C 937 611 931 571 924 530 C 908 444 889 368 866 300 C 842 232 811 175 772 128 C 733 81 684 45 626 21 C 568 -3 496 -16 412 -16 Z M 426 152 C 478 152 521 161 555 180 C 589 198 618 225 640 259 C 662 293 680 335 694 384 C 707 432 719 487 729 547 C 736 586 742 622 747 656 C 751 690 754 722 754 754 C 754 786 750 816 744 844 C 737 871 725 894 709 914 C 693 934 671 949 643 960 C 615 971 581 977 539 977 C 485 977 441 967 406 947 C 371 927 342 900 320 865 C 297 830 279 789 266 741 C 252 693 241 642 231 586 C 223 548 218 513 215 479 C 212 445 211 413 211 385 C 211 351 214 319 221 291 C 227 263 239 238 255 218 C 271 197 293 181 321 169 C 349 157 384 152 426 152 Z" unicode="" />
<glyph horiz-adv-x="1911" d="M 516 -12 C 423 -12 346 0 284 26 C 222 52 172 87 135 131 C 98 175 72 228 56 289 C 40 349 33 415 33 485 C 33 537 36 589 42 642 C 48 694 57 749 68 805 C 86 909 109 1006 138 1095 C 167 1183 206 1260 256 1325 C 305 1389 367 1440 442 1476 C 516 1512 609 1530 719 1530 C 820 1530 902 1516 966 1490 C 1029 1464 1078 1426 1114 1378 L 1139 1518 L 1929 1518 L 1896 1335 L 1280 1335 L 1200 872 L 1782 872 L 1749 692 L 1167 692 L 1077 180 L 1698 180 L 1665 0 L 870 0 L 889 111 C 843 71 789 41 727 20 C 665 -1 595 -12 516 -12 Z M 545 162 C 621 162 685 175 736 201 C 786 227 828 265 862 314 C 895 362 921 421 941 490 C 961 558 978 635 993 721 C 1002 773 1010 823 1016 872 C 1022 920 1026 966 1026 1010 C 1026 1058 1021 1103 1011 1144 C 1001 1185 985 1220 962 1250 C 938 1279 907 1302 867 1318 C 827 1334 777 1343 717 1343 C 641 1343 577 1329 527 1302 C 476 1275 434 1237 401 1188 C 367 1138 340 1079 320 1009 C 300 939 282 862 268 778 C 258 726 250 675 243 626 C 236 576 233 531 233 489 C 233 441 237 397 247 357 C 257 317 274 282 298 253 C 322 224 354 202 394 186 C 434 170 484 162 545 162 Z" unicode="" />
<glyph horiz-adv-x="1651" d="M 1110 -14 C 1061 -14 1018 -10 981 -3 C 943 3 911 13 883 27 C 855 40 832 56 813 75 C 793 94 778 116 766 141 C 730 89 684 50 628 24 C 572 -2 500 -16 412 -16 C 336 -16 273 -6 223 13 C 172 33 131 60 100 95 C 69 130 47 172 34 220 C 20 268 14 321 14 379 C 14 414 16 451 21 489 C 25 527 31 566 39 608 C 53 691 72 766 96 834 C 120 902 153 959 193 1007 C 233 1055 282 1092 340 1118 C 398 1144 469 1157 553 1157 C 645 1157 718 1142 770 1114 C 822 1085 859 1045 883 995 C 919 1049 965 1089 1020 1116 C 1074 1143 1142 1157 1223 1157 C 1293 1157 1352 1149 1398 1135 C 1444 1120 1481 1099 1509 1073 C 1536 1047 1555 1015 1566 978 C 1577 940 1583 899 1583 854 C 1583 829 1581 802 1578 772 C 1575 742 1571 711 1567 679 C 1562 647 1557 614 1551 581 C 1545 547 1539 515 1534 483 L 899 483 C 897 462 895 442 894 424 C 893 405 893 388 893 373 C 893 339 896 308 904 281 C 912 253 925 230 943 211 C 961 192 986 177 1017 167 C 1048 157 1087 152 1133 152 C 1185 152 1230 156 1270 165 C 1309 173 1347 185 1384 201 L 1438 51 C 1389 27 1337 11 1283 1 C 1228 -9 1170 -14 1110 -14 Z M 426 152 C 478 152 521 161 555 180 C 589 198 618 225 640 259 C 662 293 680 335 694 384 C 707 432 719 487 729 547 C 736 586 742 622 747 656 C 751 690 754 722 754 754 C 754 786 750 816 744 844 C 737 871 725 894 709 914 C 693 934 671 949 643 960 C 615 971 581 977 539 977 C 485 977 441 967 406 947 C 371 927 342 900 320 865 C 297 830 279 789 266 741 C 252 693 241 642 231 586 C 223 548 218 513 215 479 C 212 445 211 413 211 385 C 211 351 214 319 221 291 C 227 263 239 238 255 218 C 271 197 293 181 321 169 C 349 157 384 152 426 152 Z M 1212 987 C 1166 987 1128 979 1097 964 C 1065 948 1039 926 1018 898 C 996 869 979 834 965 793 C 951 751 938 705 928 653 L 1382 653 C 1387 686 1392 717 1396 745 C 1400 773 1403 800 1403 825 C 1403 849 1400 872 1395 892 C 1389 912 1379 929 1365 943 C 1351 957 1331 967 1307 975 C 1282 983 1250 987 1212 987 Z" unicode="" />
<glyph horiz-adv-x="1161" d="M 879 1935 L 1094 1935 L 760 1604 L 588 1604 L 879 1935 Z M 563 584 L 301 584 L 197 0 L 0 0 L 268 1518 L 676 1518 C 765 1518 839 1509 899 1491 C 958 1473 1005 1448 1041 1416 C 1077 1384 1102 1346 1117 1302 C 1131 1258 1139 1211 1139 1159 C 1139 1114 1134 1067 1126 1018 C 1106 896 1067 800 1007 728 C 947 656 864 610 758 592 L 922 0 L 723 0 L 563 584 Z M 647 764 C 685 764 720 768 752 777 C 783 786 810 801 834 822 C 857 842 877 869 893 903 C 909 936 921 977 930 1026 C 933 1043 935 1060 936 1078 C 937 1096 938 1112 938 1126 C 938 1158 933 1187 925 1213 C 916 1239 901 1261 881 1279 C 861 1297 833 1312 799 1322 C 765 1332 722 1337 670 1337 L 432 1337 L 332 764 L 647 764 Z" unicode="" />
<glyph horiz-adv-x="610" d="M 547 1587 L 762 1587 L 428 1255 L 256 1255 L 547 1587 Z M 178 1126 L 334 1139 L 326 1026 C 340 1043 357 1059 377 1074 C 397 1089 420 1102 447 1113 C 474 1123 505 1132 540 1138 C 574 1144 613 1147 657 1147 L 627 967 C 558 967 503 957 461 937 C 419 917 387 891 363 858 C 339 824 321 786 310 742 C 298 698 289 651 281 602 L 172 0 L -18 0 L 178 1126 Z" unicode="" />
<glyph horiz-adv-x="1161" d="" unicode="" />
<glyph horiz-adv-x="610" d="" unicode="" />
<glyph horiz-adv-x="1161" d="M 469 1935 L 625 1935 L 750 1737 L 946 1935 L 1106 1935 L 817 1604 L 639 1604 L 469 1935 Z M 563 584 L 301 584 L 197 0 L 0 0 L 268 1518 L 676 1518 C 765 1518 839 1509 899 1491 C 958 1473 1005 1448 1041 1416 C 1077 1384 1102 1346 1117 1302 C 1131 1258 1139 1211 1139 1159 C 1139 1114 1134 1067 1126 1018 C 1106 896 1067 800 1007 728 C 947 656 864 610 758 592 L 922 0 L 723 0 L 563 584 Z M 647 764 C 685 764 720 768 752 777 C 783 786 810 801 834 822 C 857 842 877 869 893 903 C 909 936 921 977 930 1026 C 933 1043 935 1060 936 1078 C 937 1096 938 1112 938 1126 C 938 1158 933 1187 925 1213 C 916 1239 901 1261 881 1279 C 861 1297 833 1312 799 1322 C 765 1332 722 1337 670 1337 L 432 1337 L 332 764 L 647 764 Z" unicode="" />
<glyph horiz-adv-x="610" d="M 137 1587 L 293 1587 L 418 1389 L 614 1587 L 774 1587 L 485 1255 L 307 1255 L 137 1587 Z M 178 1126 L 334 1139 L 326 1026 C 340 1043 357 1059 377 1074 C 397 1089 420 1102 447 1113 C 474 1123 505 1132 540 1138 C 574 1144 613 1147 657 1147 L 627 967 C 558 967 503 957 461 937 C 419 917 387 891 363 858 C 339 824 321 786 310 742 C 298 698 289 651 281 602 L 172 0 L -18 0 L 178 1126 Z" unicode="" />
<glyph horiz-adv-x="1079" d="M 838 1935 L 1053 1935 L 719 1604 L 547 1604 L 838 1935 Z M 451 -16 C 391 -16 336 -12 285 -4 C 234 3 188 13 146 26 C 104 39 66 54 32 71 C -2 87 -31 105 -57 123 L 53 276 C 69 264 90 251 116 237 C 142 223 171 209 205 197 C 239 185 276 174 318 166 C 359 158 404 154 453 154 C 545 154 617 176 668 222 C 719 267 745 334 745 424 C 745 458 739 487 728 513 C 716 538 699 561 677 583 C 654 605 625 626 591 646 C 557 666 517 689 471 713 C 423 737 381 761 344 787 C 306 812 275 840 249 870 C 223 900 203 933 189 969 C 175 1005 168 1045 168 1090 C 168 1166 180 1232 205 1288 C 229 1344 263 1390 306 1426 C 349 1462 400 1489 459 1507 C 517 1525 581 1534 649 1534 C 746 1534 828 1524 895 1505 C 962 1486 1017 1464 1059 1440 L 963 1272 C 929 1291 885 1309 831 1325 C 777 1341 713 1350 641 1350 C 552 1350 484 1328 437 1286 C 390 1244 367 1184 367 1108 C 367 1080 371 1055 379 1034 C 387 1013 401 993 419 975 C 437 957 460 939 488 921 C 516 903 551 883 592 862 C 648 832 698 803 742 775 C 786 747 823 717 853 686 C 883 654 905 620 921 582 C 936 544 944 499 944 449 C 944 369 931 299 907 241 C 883 183 849 134 805 96 C 761 58 709 29 649 11 C 589 -6 523 -16 451 -16 Z" unicode="" />
<glyph horiz-adv-x="805" d="M 643 1587 L 858 1587 L 524 1255 L 352 1255 L 643 1587 Z M 313 -14 C 265 -14 221 -11 182 -5 C 143 0 107 7 75 17 C 43 26 13 37 -12 49 C -38 61 -63 74 -86 88 L 14 236 C 30 225 49 214 69 203 C 89 192 111 182 136 174 C 160 165 188 158 218 153 C 248 147 281 145 317 145 C 341 145 363 147 385 153 C 407 159 426 168 442 181 C 458 194 471 212 481 234 C 491 256 496 283 496 315 C 496 336 492 355 486 371 C 479 387 468 403 454 418 C 439 433 420 448 397 464 C 373 479 345 496 311 516 C 275 536 242 557 214 578 C 185 598 160 621 140 645 C 119 669 103 695 92 723 C 81 751 76 782 76 817 C 76 880 86 933 107 977 C 128 1020 156 1055 191 1082 C 226 1108 266 1127 311 1139 C 355 1151 401 1157 449 1157 C 526 1157 591 1149 644 1134 C 697 1119 741 1101 776 1081 L 678 930 C 651 945 618 959 580 971 C 541 983 492 989 434 989 C 380 989 338 975 308 949 C 278 922 264 881 264 827 C 264 809 268 792 277 776 C 285 760 298 745 314 731 C 330 717 348 703 370 689 C 392 675 416 660 442 645 C 480 623 513 602 543 580 C 573 558 598 534 618 509 C 638 484 653 457 664 427 C 674 397 680 364 680 326 C 680 260 669 205 648 161 C 626 117 598 83 564 57 C 530 31 491 12 447 2 C 403 -8 358 -14 313 -14 Z" unicode="" />
<glyph horiz-adv-x="1079" d="" unicode="" />
<glyph horiz-adv-x="805" d="" unicode="" />
<glyph horiz-adv-x="1079" d="M 391 -453 C 345 -453 302 -448 263 -439 C 223 -430 190 -419 162 -406 L 211 -299 C 233 -309 259 -318 288 -326 C 317 -334 347 -338 379 -338 C 418 -338 448 -330 468 -315 C 488 -300 498 -272 498 -231 C 498 -202 485 -183 461 -175 C 436 -167 401 -164 356 -166 L 317 -133 L 360 -12 C 264 -6 182 10 113 36 C 43 62 -13 91 -57 123 L 53 276 C 69 264 90 251 116 237 C 142 223 171 209 205 197 C 239 185 276 174 318 166 C 359 158 404 154 453 154 C 545 154 617 176 668 222 C 719 267 745 334 745 424 C 745 458 739 487 728 513 C 716 538 699 561 677 583 C 654 605 625 626 591 646 C 557 666 517 689 471 713 C 423 737 381 761 344 787 C 306 812 275 840 249 870 C 223 900 203 933 189 969 C 175 1005 168 1045 168 1090 C 168 1166 180 1232 205 1288 C 229 1344 263 1390 306 1426 C 349 1462 400 1489 459 1507 C 517 1525 581 1534 649 1534 C 746 1534 828 1524 895 1505 C 962 1486 1017 1464 1059 1440 L 963 1272 C 929 1291 885 1309 831 1325 C 777 1341 713 1350 641 1350 C 552 1350 484 1328 437 1286 C 390 1244 367 1184 367 1108 C 367 1080 371 1055 379 1034 C 387 1013 401 993 419 975 C 437 957 460 939 488 921 C 516 903 551 883 592 862 C 648 832 698 803 742 775 C 786 747 823 717 853 686 C 883 654 905 620 921 582 C 936 544 944 499 944 449 C 944 371 932 303 909 246 C 886 188 854 140 812 102 C 770 64 721 35 664 16 C 606 -3 543 -14 475 -16 L 451 -88 C 505 -86 547 -97 579 -120 C 611 -142 627 -179 627 -231 C 627 -274 621 -310 611 -338 C 600 -366 584 -389 564 -406 C 544 -423 519 -435 490 -442 C 460 -449 427 -453 391 -453 Z" unicode="" />
<glyph horiz-adv-x="805" d="M 260 -453 C 214 -453 171 -448 132 -439 C 92 -430 59 -419 31 -406 L 80 -299 C 102 -309 128 -318 157 -326 C 186 -334 216 -338 248 -338 C 287 -338 317 -330 337 -315 C 357 -300 367 -272 367 -231 C 367 -202 354 -183 330 -175 C 305 -167 270 -164 225 -166 L 186 -133 L 229 -10 C 193 -7 160 -2 130 3 C 100 9 72 17 47 26 C 21 34 -2 44 -24 55 C -46 65 -66 76 -86 88 L 14 236 C 30 225 49 214 69 203 C 89 192 111 182 136 174 C 160 165 188 158 218 153 C 248 147 281 145 317 145 C 341 145 363 147 385 153 C 407 159 426 168 442 181 C 458 194 471 212 481 234 C 491 256 496 283 496 315 C 496 336 492 355 486 371 C 479 387 468 403 454 418 C 439 433 420 448 397 464 C 373 479 345 496 311 516 C 275 536 242 557 214 578 C 185 598 160 621 140 645 C 119 669 103 695 92 723 C 81 751 76 782 76 817 C 76 880 86 933 107 977 C 128 1020 156 1055 191 1082 C 226 1108 266 1127 311 1139 C 355 1151 401 1157 449 1157 C 526 1157 591 1149 644 1134 C 697 1119 741 1101 776 1081 L 678 930 C 651 945 618 959 580 971 C 541 983 492 989 434 989 C 380 989 338 975 308 949 C 278 922 264 881 264 827 C 264 809 268 792 277 776 C 285 760 298 745 314 731 C 330 717 348 703 370 689 C 392 675 416 660 442 645 C 480 623 513 602 543 580 C 573 558 598 534 618 509 C 638 484 653 457 664 427 C 674 397 680 364 680 326 C 680 264 670 211 651 169 C 632 127 607 93 576 67 C 544 41 508 21 468 9 C 428 -2 386 -10 344 -12 L 319 -88 C 373 -86 416 -97 448 -120 C 480 -142 496 -179 496 -231 C 496 -274 490 -310 480 -338 C 469 -366 453 -389 433 -406 C 413 -423 388 -435 359 -442 C 329 -449 296 -453 260 -453 Z" unicode="" />
<glyph horiz-adv-x="1079" d="M 428 1935 L 584 1935 L 709 1737 L 905 1935 L 1065 1935 L 776 1604 L 598 1604 L 428 1935 Z M 451 -16 C 391 -16 336 -12 285 -4 C 234 3 188 13 146 26 C 104 39 66 54 32 71 C -2 87 -31 105 -57 123 L 53 276 C 69 264 90 251 116 237 C 142 223 171 209 205 197 C 239 185 276 174 318 166 C 359 158 404 154 453 154 C 545 154 617 176 668 222 C 719 267 745 334 745 424 C 745 458 739 487 728 513 C 716 538 699 561 677 583 C 654 605 625 626 591 646 C 557 666 517 689 471 713 C 423 737 381 761 344 787 C 306 812 275 840 249 870 C 223 900 203 933 189 969 C 175 1005 168 1045 168 1090 C 168 1166 180 1232 205 1288 C 229 1344 263 1390 306 1426 C 349 1462 400 1489 459 1507 C 517 1525 581 1534 649 1534 C 746 1534 828 1524 895 1505 C 962 1486 1017 1464 1059 1440 L 963 1272 C 929 1291 885 1309 831 1325 C 777 1341 713 1350 641 1350 C 552 1350 484 1328 437 1286 C 390 1244 367 1184 367 1108 C 367 1080 371 1055 379 1034 C 387 1013 401 993 419 975 C 437 957 460 939 488 921 C 516 903 551 883 592 862 C 648 832 698 803 742 775 C 786 747 823 717 853 686 C 883 654 905 620 921 582 C 936 544 944 499 944 449 C 944 369 931 299 907 241 C 883 183 849 134 805 96 C 761 58 709 29 649 11 C 589 -6 523 -16 451 -16 Z" unicode="" />
<glyph horiz-adv-x="805" d="M 233 1587 L 389 1587 L 514 1389 L 711 1587 L 870 1587 L 582 1255 L 403 1255 L 233 1587 Z M 313 -14 C 265 -14 221 -11 182 -5 C 143 0 107 7 75 17 C 43 26 13 37 -12 49 C -38 61 -63 74 -86 88 L 14 236 C 30 225 49 214 69 203 C 89 192 111 182 136 174 C 160 165 188 158 218 153 C 248 147 281 145 317 145 C 341 145 363 147 385 153 C 407 159 426 168 442 181 C 458 194 471 212 481 234 C 491 256 496 283 496 315 C 496 336 492 355 486 371 C 479 387 468 403 454 418 C 439 433 420 448 397 464 C 373 479 345 496 311 516 C 275 536 242 557 214 578 C 185 598 160 621 140 645 C 119 669 103 695 92 723 C 81 751 76 782 76 817 C 76 880 86 933 107 977 C 128 1020 156 1055 191 1082 C 226 1108 266 1127 311 1139 C 355 1151 401 1157 449 1157 C 526 1157 591 1149 644 1134 C 697 1119 741 1101 776 1081 L 678 930 C 651 945 618 959 580 971 C 541 983 492 989 434 989 C 380 989 338 975 308 949 C 278 922 264 881 264 827 C 264 809 268 792 277 776 C 285 760 298 745 314 731 C 330 717 348 703 370 689 C 392 675 416 660 442 645 C 480 623 513 602 543 580 C 573 558 598 534 618 509 C 638 484 653 457 664 427 C 674 397 680 364 680 326 C 680 260 669 205 648 161 C 626 117 598 83 564 57 C 530 31 491 12 447 2 C 403 -8 358 -14 313 -14 Z" unicode="" />
<glyph horiz-adv-x="1098" d="M 240 -418 C 261 -406 278 -395 292 -386 C 306 -377 317 -368 325 -359 C 333 -349 340 -339 344 -328 C 348 -316 352 -303 356 -287 L 270 -287 L 305 -82 L 494 -82 L 459 -272 C 454 -300 448 -324 442 -345 C 436 -366 426 -385 413 -402 C 400 -418 383 -434 361 -449 C 339 -463 310 -478 274 -494 L 240 -418 Z M 551 1335 L 137 1335 L 168 1518 L 1196 1518 L 1165 1335 L 752 1335 L 514 0 L 315 0 L 551 1335 Z" unicode="" />
<glyph horiz-adv-x="737" d="M 33 -418 C 54 -406 71 -395 85 -386 C 99 -377 110 -368 119 -359 C 127 -349 134 -339 138 -328 C 142 -316 146 -303 150 -287 L 63 -287 L 98 -82 L 287 -82 L 252 -272 C 247 -300 241 -324 235 -345 C 229 -366 219 -385 206 -402 C 193 -418 176 -434 154 -449 C 132 -463 104 -478 68 -494 L 33 -418 Z M 106 1137 L 283 1137 L 369 1438 L 528 1473 L 469 1137 L 727 1137 L 696 969 L 438 969 L 326 322 C 321 296 318 274 318 255 C 317 236 320 220 328 207 C 335 194 347 184 365 178 C 383 171 408 168 440 168 L 557 168 L 526 0 C 518 -1 508 -2 496 -3 C 484 -3 471 -4 457 -4 C 443 -4 431 -5 419 -5 C 407 -5 399 -6 393 -6 C 329 -6 277 0 239 14 C 200 28 171 49 153 77 C 135 105 125 139 124 181 C 122 223 127 272 137 328 L 246 969 L 74 969 L 106 1137 Z" unicode="" />
<glyph horiz-adv-x="1098" d="M 438 1935 L 594 1935 L 719 1737 L 915 1935 L 1075 1935 L 786 1604 L 608 1604 L 438 1935 Z M 551 1335 L 137 1335 L 168 1518 L 1196 1518 L 1165 1335 L 752 1335 L 514 0 L 315 0 L 551 1335 Z" unicode="" />
<glyph horiz-adv-x="737" d="M 614 1356 C 636 1367 653 1377 667 1386 C 681 1394 692 1403 701 1413 C 709 1422 716 1432 721 1444 C 725 1455 729 1469 733 1487 L 647 1487 L 682 1690 L 870 1690 L 838 1501 C 832 1473 825 1448 819 1428 C 812 1407 802 1388 789 1371 C 776 1354 759 1338 737 1324 C 715 1309 687 1294 651 1278 L 614 1356 Z M 106 1137 L 283 1137 L 369 1438 L 528 1473 L 469 1137 L 727 1137 L 696 969 L 438 969 L 326 322 C 321 296 318 274 318 255 C 317 236 320 220 328 207 C 335 194 347 184 365 178 C 383 171 408 168 440 168 L 557 168 L 526 0 C 518 -1 508 -2 496 -3 C 484 -3 471 -4 457 -4 C 443 -4 431 -5 419 -5 C 407 -5 399 -6 393 -6 C 329 -6 277 0 239 14 C 200 28 171 49 153 77 C 135 105 125 139 124 181 C 122 223 127 272 137 328 L 246 969 L 74 969 L 106 1137 Z" unicode="" />
<glyph horiz-adv-x="1098" d="" unicode="" />
<glyph horiz-adv-x="737" d="" unicode="" />
<glyph horiz-adv-x="1255" d="" unicode="" />
<glyph horiz-adv-x="1016" d="" unicode="" />
<glyph horiz-adv-x="1255" d="" unicode="" />
<glyph horiz-adv-x="1016" d="" unicode="" />
<glyph horiz-adv-x="1255" d="" unicode="" />
<glyph horiz-adv-x="1016" d="" unicode="" />
<glyph horiz-adv-x="1255" d="M 797 1692 C 840 1692 873 1708 896 1740 C 918 1772 930 1815 930 1870 C 930 1898 922 1922 908 1940 C 894 1958 869 1968 834 1968 C 792 1968 759 1951 735 1918 C 711 1885 700 1842 700 1788 C 700 1761 707 1738 722 1720 C 736 1701 761 1692 797 1692 Z M 791 1589 C 754 1589 723 1594 698 1604 C 673 1614 653 1627 637 1644 C 621 1661 610 1681 604 1704 C 597 1727 594 1752 594 1778 C 594 1822 599 1862 610 1898 C 620 1934 636 1964 657 1990 C 677 2016 703 2036 734 2050 C 764 2064 800 2071 840 2071 C 876 2071 906 2066 931 2056 C 955 2046 975 2032 991 2015 C 1007 1997 1018 1977 1025 1954 C 1032 1930 1036 1905 1036 1878 C 1036 1834 1030 1795 1019 1760 C 1007 1724 991 1694 970 1669 C 949 1643 923 1624 893 1610 C 863 1596 829 1589 791 1589 Z M 557 -20 C 467 -20 391 -11 329 6 C 267 24 216 49 178 82 C 140 115 112 155 95 202 C 78 249 70 302 70 362 C 70 389 71 417 74 445 C 76 473 80 502 86 532 L 260 1518 L 461 1518 L 285 535 C 280 509 277 484 275 462 C 273 440 272 418 272 397 C 272 361 276 328 286 299 C 295 270 311 245 333 225 C 355 205 385 189 423 178 C 460 167 507 162 563 162 C 617 162 663 169 701 183 C 739 197 770 219 796 248 C 822 277 842 314 858 358 C 874 402 887 454 897 514 L 1077 1518 L 1270 1518 L 1087 483 C 1073 397 1053 323 1027 260 C 1001 197 968 145 926 104 C 884 62 832 31 772 11 C 712 -9 640 -20 557 -20 Z" unicode="" />
<glyph horiz-adv-x="1016" d="M 614 1343 C 657 1343 690 1359 713 1391 C 736 1423 748 1467 748 1522 C 748 1550 740 1574 726 1592 C 712 1610 687 1620 651 1620 C 609 1620 576 1603 553 1570 C 529 1537 518 1494 518 1440 C 518 1412 525 1389 540 1371 C 554 1352 579 1343 614 1343 Z M 608 1241 C 572 1241 541 1246 516 1256 C 491 1266 471 1279 455 1296 C 439 1313 428 1333 422 1356 C 415 1379 412 1404 412 1430 C 412 1474 417 1514 428 1550 C 438 1586 454 1616 475 1642 C 495 1667 521 1687 551 1701 C 581 1715 617 1722 657 1722 C 693 1722 723 1717 748 1707 C 773 1697 793 1683 809 1666 C 825 1649 836 1629 843 1605 C 850 1581 854 1556 854 1530 C 854 1486 848 1447 837 1412 C 825 1376 809 1346 788 1321 C 767 1295 741 1276 711 1262 C 681 1248 646 1241 608 1241 Z M 412 -16 C 318 -16 245 -5 191 16 C 137 37 98 68 73 108 C 48 148 35 198 35 256 C 34 314 40 381 53 455 L 174 1137 L 367 1137 L 246 453 C 238 409 233 370 230 334 C 227 298 231 266 241 240 C 251 213 270 192 298 178 C 325 163 366 156 420 156 C 464 156 499 161 527 171 C 554 181 576 196 593 217 C 610 238 623 265 633 299 C 642 332 651 372 659 418 L 784 1137 L 975 1137 L 846 401 C 832 326 816 262 797 210 C 778 157 752 114 720 80 C 688 46 647 22 597 7 C 547 -8 486 -16 412 -16 Z" unicode="" />
<glyph horiz-adv-x="1255" d="M 557 -20 C 467 -20 391 -11 329 6 C 267 24 216 49 178 82 C 140 115 112 155 95 202 C 78 249 70 302 70 362 C 70 389 71 417 74 445 C 76 473 80 502 86 532 L 260 1518 L 461 1518 L 285 535 C 280 509 277 484 275 462 C 273 440 272 418 272 397 C 272 361 276 328 286 299 C 295 270 311 245 333 225 C 355 205 385 189 423 178 C 460 167 507 162 563 162 C 617 162 663 169 701 183 C 739 197 770 219 796 248 C 822 277 842 314 858 358 C 874 402 887 454 897 514 L 1077 1518 L 1270 1518 L 1087 483 C 1073 397 1053 323 1027 260 C 1001 197 968 145 926 104 C 884 62 832 31 772 11 C 712 -9 640 -20 557 -20 Z M 752 1935 L 952 1935 L 623 1604 L 469 1604 L 752 1935 Z M 1126 1935 L 1327 1935 L 999 1604 L 846 1604 L 1126 1935 Z" unicode="" />
<glyph horiz-adv-x="1016" d="M 412 -16 C 318 -16 245 -5 191 16 C 137 37 98 68 73 108 C 48 148 35 198 35 256 C 34 314 40 381 53 455 L 174 1137 L 367 1137 L 246 453 C 238 409 233 370 230 334 C 227 298 231 266 241 240 C 251 213 270 192 298 178 C 325 163 366 156 420 156 C 464 156 499 161 527 171 C 554 181 576 196 593 217 C 610 238 623 265 633 299 C 642 332 651 372 659 418 L 784 1137 L 975 1137 L 846 401 C 832 326 816 262 797 210 C 778 157 752 114 720 80 C 688 46 647 22 597 7 C 547 -8 486 -16 412 -16 Z M 569 1587 L 770 1587 L 440 1255 L 287 1255 L 569 1587 Z M 944 1587 L 1145 1587 L 817 1255 L 664 1255 L 944 1587 Z" unicode="" />
<glyph horiz-adv-x="1255" d="" unicode="" />
<glyph horiz-adv-x="1016" d="" unicode="" />
<glyph horiz-adv-x="1739" d="" unicode="" />
<glyph horiz-adv-x="1438" d="" unicode="" />
<glyph horiz-adv-x="1143" d="" unicode="" />
<glyph horiz-adv-x="893" d="" unicode="" />
<glyph horiz-adv-x="1143" d="M 436 555 L 152 1518 L 360 1518 L 571 772 L 1049 1518 L 1260 1518 L 633 553 L 537 0 L 338 0 L 436 555 Z M 489 1819 L 662 1819 L 623 1604 L 451 1604 L 489 1819 Z M 854 1819 L 1026 1819 L 987 1604 L 813 1604 L 854 1819 Z" unicode="" />
<glyph horiz-adv-x="1065" d="M 829 1935 L 1044 1935 L 711 1604 L 539 1604 L 829 1935 Z M -45 154 L 838 1335 L 195 1335 L 227 1518 L 1112 1518 L 1083 1354 L 205 178 L 893 178 L 862 0 L -70 0 L -45 154 Z" unicode="" />
<glyph horiz-adv-x="815" d="M 647 1587 L 862 1587 L 528 1255 L 356 1255 L 647 1587 Z M -70 133 L 555 969 L 109 969 L 139 1137 L 823 1137 L 801 1004 L 170 158 L 668 158 L 639 0 L -92 0 L -70 133 Z" unicode="" />
<glyph horiz-adv-x="1065" d="M -45 154 L 838 1335 L 195 1335 L 227 1518 L 1112 1518 L 1083 1354 L 205 178 L 893 178 L 862 0 L -70 0 L -45 154 Z M 623 1833 L 817 1833 L 776 1604 L 582 1604 L 623 1833 Z" unicode="" />
<glyph horiz-adv-x="815" d="M -70 133 L 555 969 L 109 969 L 139 1137 L 823 1137 L 801 1004 L 170 158 L 668 158 L 639 0 L -92 0 L -70 133 Z M 440 1485 L 635 1485 L 594 1255 L 399 1255 L 440 1485 Z" unicode="" />
<glyph horiz-adv-x="1065" d="M 420 1935 L 575 1935 L 700 1737 L 897 1935 L 1057 1935 L 768 1604 L 590 1604 L 420 1935 Z M -45 154 L 838 1335 L 195 1335 L 227 1518 L 1112 1518 L 1083 1354 L 205 178 L 893 178 L 862 0 L -70 0 L -45 154 Z" unicode="" />
<glyph horiz-adv-x="815" d="M 238 1587 L 393 1587 L 518 1389 L 715 1587 L 874 1587 L 586 1255 L 408 1255 L 238 1587 Z M -70 133 L 555 969 L 109 969 L 139 1137 L 823 1137 L 801 1004 L 170 158 L 668 158 L 639 0 L -92 0 L -70 133 Z" unicode="" />
<glyph horiz-adv-x="688" d="" unicode="" />
<glyph horiz-adv-x="915" d="M 154 928 L 340 928 L 389 1200 C 397 1246 406 1288 417 1327 C 427 1366 443 1400 465 1428 C 487 1456 516 1478 553 1494 C 589 1510 638 1518 698 1518 C 706 1518 715 1517 727 1517 C 739 1517 751 1517 763 1517 C 775 1517 786 1516 796 1516 C 806 1516 813 1516 819 1516 L 788 1348 L 715 1348 C 687 1348 666 1343 650 1334 C 634 1325 621 1313 612 1298 C 602 1282 595 1264 591 1243 C 586 1222 582 1200 578 1176 L 532 928 L 815 928 L 784 758 L 504 758 L 311 -324 L 121 -324 L 311 758 L 121 758 L 154 928 Z" unicode="" />
<glyph horiz-adv-x="1262" d="" unicode="" />
<glyph horiz-adv-x="1081" d="" unicode="" />
<glyph horiz-adv-x="1282" d="" unicode="" />
<glyph horiz-adv-x="1118" d="" unicode="" />
<glyph horiz-adv-x="1214" d="" unicode="" />
<glyph horiz-adv-x="1020" d="" unicode="" />
<glyph horiz-adv-x="1780" d="" unicode="" />
<glyph horiz-adv-x="1583" d="" unicode="" />
<glyph horiz-adv-x="1262" d="" unicode="" />
<glyph horiz-adv-x="1028" d="" unicode="" />
<glyph horiz-adv-x="1079" d="" unicode="" />
<glyph horiz-adv-x="805" d="" unicode="" />
<glyph horiz-adv-x="1098" d="M 240 -418 C 261 -406 278 -395 292 -386 C 306 -377 317 -368 325 -359 C 333 -349 340 -339 344 -328 C 348 -316 352 -303 356 -287 L 270 -287 L 305 -82 L 494 -82 L 459 -272 C 454 -300 448 -324 442 -345 C 436 -366 426 -385 413 -402 C 400 -418 383 -434 361 -449 C 339 -463 310 -478 274 -494 L 240 -418 Z M 551 1335 L 137 1335 L 168 1518 L 1196 1518 L 1165 1335 L 752 1335 L 514 0 L 315 0 L 551 1335 Z" unicode="" />
<glyph horiz-adv-x="737" d="M 33 -418 C 54 -406 71 -395 85 -386 C 99 -377 110 -368 119 -359 C 127 -349 134 -339 138 -328 C 142 -316 146 -303 150 -287 L 63 -287 L 98 -82 L 287 -82 L 252 -272 C 247 -300 241 -324 235 -345 C 229 -366 219 -385 206 -402 C 193 -418 176 -434 154 -449 C 132 -463 104 -478 68 -494 L 33 -418 Z M 106 1137 L 283 1137 L 369 1438 L 528 1473 L 469 1137 L 727 1137 L 696 969 L 438 969 L 326 322 C 321 296 318 274 318 255 C 317 236 320 220 328 207 C 335 194 347 184 365 178 C 383 171 408 168 440 168 L 557 168 L 526 0 C 518 -1 508 -2 496 -3 C 484 -3 471 -4 457 -4 C 443 -4 431 -5 419 -5 C 407 -5 399 -6 393 -6 C 329 -6 277 0 239 14 C 200 28 171 49 153 77 C 135 105 125 139 124 181 C 122 223 127 272 137 328 L 246 969 L 74 969 L 106 1137 Z" unicode="" />
<glyph horiz-adv-x="965" d="M 537 1587 L 719 1587 L 887 1255 L 733 1255 L 604 1452 L 410 1255 L 250 1255 L 537 1587 Z" unicode="" />
<glyph horiz-adv-x="965" d="M 311 1587 L 467 1587 L 592 1389 L 788 1587 L 948 1587 L 659 1255 L 481 1255 L 311 1587 Z" unicode="" />
<glyph horiz-adv-x="965" d="M 610 1245 C 542 1245 488 1252 448 1266 C 408 1280 377 1300 355 1326 C 333 1351 318 1381 310 1417 C 302 1453 298 1492 297 1536 L 442 1556 C 442 1530 445 1508 451 1488 C 457 1468 466 1451 479 1437 C 491 1423 508 1413 530 1406 C 552 1398 580 1395 614 1395 C 642 1395 666 1398 687 1406 C 708 1414 726 1425 741 1440 C 756 1454 769 1472 779 1492 C 789 1512 798 1535 805 1561 L 946 1538 C 934 1493 918 1453 900 1417 C 882 1381 859 1350 832 1324 C 805 1298 773 1279 737 1265 C 700 1251 658 1245 610 1245 Z" unicode="" />
<glyph horiz-adv-x="965" d="M 514 1485 L 709 1485 L 668 1255 L 473 1255 L 514 1485 Z" unicode="" />
<glyph horiz-adv-x="965" d="" unicode="" />
<glyph horiz-adv-x="967" d="M 336 -442 C 255 -442 195 -429 156 -403 C 117 -377 98 -339 98 -289 C 98 -248 106 -211 123 -177 C 139 -143 160 -112 184 -85 C 208 -58 234 -35 262 -15 C 290 4 315 19 338 31 L 481 31 C 451 11 421 -9 393 -31 C 365 -53 340 -77 319 -101 C 297 -125 280 -149 267 -175 C 254 -200 248 -225 248 -250 C 248 -270 256 -287 273 -300 C 289 -312 318 -319 358 -319 L 406 -319 L 381 -442 L 336 -442 L 336 -442 Z" unicode="" />
<glyph horiz-adv-x="965" d="M 221 1329 C 256 1383 293 1424 331 1450 C 369 1476 409 1489 453 1489 C 479 1489 503 1484 526 1476 C 549 1468 571 1459 592 1449 C 613 1439 633 1429 651 1421 C 669 1413 687 1409 705 1409 C 726 1409 747 1416 768 1431 C 788 1445 810 1469 834 1501 L 954 1421 C 919 1362 882 1319 843 1292 C 803 1264 765 1251 727 1251 C 699 1251 673 1255 650 1264 C 626 1272 604 1282 583 1292 C 562 1302 542 1311 523 1320 C 504 1328 485 1333 467 1333 C 443 1333 422 1326 403 1312 C 384 1298 364 1277 344 1247 L 221 1329 Z" unicode="" />
<glyph horiz-adv-x="965" d="M 547 1587 L 748 1587 L 418 1255 L 264 1255 L 547 1587 Z M 922 1587 L 1122 1587 L 795 1255 L 641 1255 L 922 1587 Z" unicode="" />
<glyph horiz-adv-x="965" d="M 283 1415 L 911 1415 L 885 1255 L 254 1255 L 283 1415 Z" unicode="" />
<glyph horiz-adv-x="965" d="" unicode="" />
<glyph horiz-adv-x="1042" d="" unicode="" />
<glyph horiz-adv-x="442" d="" unicode="" />
<glyph horiz-adv-x="1042" d="" unicode="" />
<glyph horiz-adv-x="1042" d="" unicode="" />
<glyph horiz-adv-x="1042" d="M 559 1587 L 741 1587 L 522 1255 L 369 1255 L 559 1587 Z" unicode="" />
<glyph horiz-adv-x="1042" d="M 215 1470 L 350 1470 L 313 1255 L 176 1255 L 215 1470 Z M 705 1470 L 840 1470 L 803 1255 L 666 1255 L 705 1470 Z M 551 1587 L 713 1587 L 502 1255 L 371 1255 L 551 1587 Z" unicode="" />
<glyph horiz-adv-x="1243" d="M 682 1528 L 870 1528 L 1065 0 L 862 0 L 825 315 L 297 315 L 150 0 L -55 0 L 682 1528 Z M 807 496 L 723 1221 L 377 496 L 807 496 Z M 330 1520 L 512 1520 L 293 1188 L 139 1188 L 330 1520 Z" unicode="" />
<glyph horiz-adv-x="1315" d="M 264 1520 L 446 1520 L 227 1188 L 74 1188 L 264 1520 Z M 543 1518 L 1354 1518 L 1321 1335 L 705 1335 L 625 874 L 1204 874 L 1171 694 L 590 694 L 500 178 L 1118 178 L 1087 0 L 274 0 L 543 1518 Z" unicode="" />
<glyph horiz-adv-x="1544" d="M 264 1520 L 446 1520 L 227 1188 L 74 1188 L 264 1520 Z M 543 1518 L 741 1518 L 629 887 L 1229 887 L 1341 1518 L 1542 1518 L 1274 0 L 1073 0 L 1194 692 L 594 692 L 473 0 L 274 0 L 543 1518 Z" unicode="" />
<glyph horiz-adv-x="758" d="M 543 1518 L 741 1518 L 473 0 L 274 0 L 543 1518 Z M 264 1520 L 446 1520 L 227 1188 L 74 1188 L 264 1520 Z" unicode="" />
<glyph horiz-adv-x="1483" d="M 264 1520 L 446 1520 L 227 1188 L 74 1188 L 264 1520 Z M 752 -16 C 653 -16 571 -3 507 23 C 442 49 390 84 352 129 C 314 174 287 227 271 288 C 255 348 248 413 248 483 C 248 535 251 588 257 641 C 263 694 272 749 283 805 C 295 875 309 941 325 1005 C 341 1068 362 1127 386 1181 C 410 1235 438 1283 471 1327 C 503 1370 542 1407 586 1438 C 630 1468 680 1492 737 1509 C 794 1525 859 1534 932 1534 C 1032 1534 1115 1520 1181 1494 C 1247 1468 1299 1432 1338 1387 C 1377 1341 1404 1288 1420 1226 C 1436 1164 1444 1098 1444 1028 C 1444 976 1440 924 1434 870 C 1428 816 1420 761 1411 705 C 1398 635 1383 569 1367 506 C 1350 443 1330 385 1306 332 C 1282 278 1253 230 1221 187 C 1188 144 1149 108 1105 78 C 1060 48 1009 24 951 8 C 893 -7 826 -16 752 -16 Z M 762 162 C 838 162 901 175 951 201 C 1001 227 1043 265 1077 314 C 1110 362 1137 421 1157 490 C 1177 558 1194 635 1210 721 C 1219 773 1227 823 1233 872 C 1239 921 1243 968 1243 1012 C 1243 1060 1238 1105 1228 1145 C 1218 1185 1201 1220 1177 1250 C 1153 1279 1121 1302 1081 1318 C 1041 1334 992 1343 932 1343 C 855 1343 791 1329 740 1302 C 689 1275 647 1237 614 1188 C 580 1138 553 1079 533 1009 C 513 939 495 862 481 778 C 471 726 464 675 458 626 C 452 576 449 531 449 489 C 449 440 453 396 463 356 C 473 316 490 281 514 253 C 538 224 570 202 610 186 C 650 170 700 162 762 162 Z" unicode="" />
<glyph horiz-adv-x="1511" d="M 801 555 L 516 1518 L 725 1518 L 936 772 L 1413 1518 L 1624 1518 L 997 553 L 901 0 L 702 0 L 801 555 Z M 264 1520 L 446 1520 L 227 1188 L 74 1188 L 264 1520 Z" unicode="" />
<glyph horiz-adv-x="1516" d="M 193 178 L 524 178 L 539 272 C 493 288 452 312 418 345 C 383 378 356 420 336 472 C 316 523 304 583 300 653 C 296 722 303 801 319 891 C 337 997 362 1090 396 1170 C 429 1250 471 1317 523 1371 C 575 1425 637 1465 709 1493 C 781 1520 865 1534 961 1534 C 1053 1534 1134 1520 1203 1493 C 1272 1466 1328 1425 1370 1369 C 1412 1313 1439 1242 1453 1157 C 1467 1071 1464 970 1446 854 C 1433 769 1414 694 1389 628 C 1364 562 1334 504 1298 456 C 1262 407 1220 367 1174 335 C 1128 303 1077 280 1022 266 L 1006 178 L 1339 178 L 1307 0 L 846 0 L 907 352 C 957 361 1001 381 1039 412 C 1077 442 1110 480 1138 525 C 1165 570 1187 621 1205 677 C 1223 733 1236 791 1245 852 C 1257 930 1261 999 1258 1060 C 1254 1121 1241 1173 1219 1215 C 1196 1257 1163 1288 1119 1310 C 1075 1332 1020 1343 952 1343 C 881 1343 821 1332 772 1310 C 722 1288 681 1257 647 1215 C 613 1173 585 1123 565 1063 C 544 1003 527 934 514 858 C 502 796 495 737 494 682 C 493 626 499 577 512 533 C 525 489 546 451 574 420 C 602 389 639 367 686 354 L 625 0 L 162 0 L 193 178 Z M 281 1520 L 463 1520 L 244 1188 L 90 1188 L 281 1520 Z" unicode="" />
<glyph horiz-adv-x="436" d="M 37 1470 L 172 1470 L 135 1255 L -2 1255 L 37 1470 Z M 526 1470 L 662 1470 L 625 1255 L 487 1255 L 526 1470 Z M 373 1587 L 535 1587 L 324 1255 L 193 1255 L 373 1587 Z M 190 1137 L 383 1137 L 180 0 L -10 0 L 190 1137 Z" unicode="" />
<glyph horiz-adv-x="1200" d="M 641 1528 L 829 1528 L 1024 0 L 821 0 L 784 315 L 256 315 L 109 0 L -96 0 L 641 1528 Z M 766 496 L 682 1221 L 336 496 L 766 496 Z" unicode="" />
<glyph horiz-adv-x="1143" d="M 268 1518 L 655 1518 C 738 1518 809 1511 868 1499 C 926 1486 974 1467 1011 1442 C 1047 1416 1074 1385 1091 1347 C 1107 1309 1116 1264 1116 1214 C 1116 1196 1115 1178 1113 1160 C 1111 1142 1109 1125 1106 1108 C 1096 1056 1085 1012 1071 976 C 1057 940 1041 909 1023 884 C 1005 859 984 839 960 823 C 936 807 909 793 879 782 C 930 761 967 730 989 689 C 1011 647 1022 591 1022 520 C 1022 499 1021 478 1019 456 C 1017 434 1014 412 1010 391 C 995 315 973 251 945 201 C 916 151 880 111 838 81 C 795 51 745 30 689 18 C 633 6 570 0 502 0 L 0 0 L 268 1518 Z M 528 170 C 566 170 600 173 630 179 C 660 185 686 197 709 215 C 732 233 752 258 768 290 C 784 322 798 364 809 416 C 813 433 815 449 817 464 C 818 478 819 492 819 506 C 819 543 813 574 803 598 C 792 622 775 642 753 656 C 731 670 702 679 668 685 C 634 691 593 694 547 694 L 319 694 L 227 170 L 528 170 Z M 655 870 C 686 870 715 872 742 878 C 768 883 792 894 814 910 C 835 926 853 948 868 977 C 882 1005 893 1043 901 1090 C 903 1105 904 1119 906 1133 C 908 1146 909 1159 909 1171 C 909 1203 903 1229 893 1251 C 882 1273 865 1290 843 1303 C 821 1316 792 1325 758 1331 C 724 1336 683 1339 637 1339 L 432 1339 L 348 870 L 655 870 Z" unicode="" />
<glyph horiz-adv-x="967" d="M 199 0 L 0 0 L 266 1518 L 1067 1518 L 1034 1335 L 432 1335 L 199 0 Z" unicode="" />
<glyph horiz-adv-x="1225" d="M 641 1528 L 831 1528 L 1026 0 L -96 0 L 641 1528 Z M 803 170 L 682 1221 L 188 170 L 803 170 Z" unicode="" />
<glyph horiz-adv-x="1038" d="M 268 1518 L 1079 1518 L 1047 1335 L 430 1335 L 350 874 L 930 874 L 897 694 L 315 694 L 225 178 L 844 178 L 813 0 L 0 0 L 268 1518 Z" unicode="" />
<glyph horiz-adv-x="1065" d="M -45 154 L 838 1335 L 195 1335 L 227 1518 L 1112 1518 L 1083 1354 L 205 178 L 893 178 L 862 0 L -70 0 L -45 154 Z" unicode="" />
<glyph horiz-adv-x="1266" d="M 268 1518 L 467 1518 L 354 887 L 954 887 L 1067 1518 L 1268 1518 L 999 0 L 799 0 L 920 692 L 319 692 L 199 0 L 0 0 L 268 1518 Z" unicode="" />
<glyph horiz-adv-x="1262" d="M 403 850 L 889 850 L 856 668 L 373 668 L 403 850 Z M 537 -16 C 438 -16 356 -3 292 23 C 227 49 175 84 137 129 C 99 174 72 227 56 288 C 40 348 33 413 33 483 C 33 535 36 588 42 641 C 48 694 57 749 68 805 C 80 875 94 941 110 1005 C 126 1068 147 1127 171 1181 C 195 1235 223 1283 256 1327 C 288 1370 327 1407 371 1438 C 415 1468 465 1492 522 1509 C 579 1525 644 1534 717 1534 C 817 1534 900 1520 966 1494 C 1032 1468 1084 1432 1123 1387 C 1162 1341 1189 1288 1205 1226 C 1221 1164 1229 1098 1229 1028 C 1229 976 1225 924 1219 870 C 1213 816 1205 761 1196 705 C 1183 635 1168 569 1152 506 C 1135 443 1115 385 1091 332 C 1067 278 1038 230 1006 187 C 973 144 934 108 890 78 C 845 48 794 24 736 8 C 678 -7 611 -16 537 -16 Z M 547 162 C 623 162 686 175 736 201 C 786 227 828 265 862 314 C 895 362 922 421 942 490 C 962 558 979 635 995 721 C 1004 773 1012 823 1018 872 C 1024 921 1028 968 1028 1012 C 1028 1060 1023 1105 1013 1145 C 1003 1185 986 1220 962 1250 C 938 1279 906 1302 866 1318 C 826 1334 777 1343 717 1343 C 640 1343 576 1329 525 1302 C 474 1275 432 1237 399 1188 C 365 1138 338 1079 318 1009 C 298 939 280 862 266 778 C 256 726 248 675 242 626 C 236 576 233 531 233 489 C 233 440 237 396 247 356 C 257 316 274 281 298 253 C 322 224 354 202 394 186 C 434 170 485 162 547 162 Z" unicode="" />
<glyph horiz-adv-x="492" d="M 281 1518 L 479 1518 L 211 0 L 12 0 L 281 1518 Z" unicode="" />
<glyph horiz-adv-x="1174" d="M 268 1518 L 467 1518 L 344 821 L 999 1518 L 1239 1518 L 684 936 L 991 0 L 782 0 L 530 774 L 287 502 L 199 0 L 0 0 L 268 1518 Z" unicode="" />
<glyph horiz-adv-x="1192" d="M 1014 0 L 809 0 L 670 1204 L 111 0 L -98 0 L 633 1528 L 823 1528 L 1014 0 Z" unicode="" />
<glyph horiz-adv-x="1493" d="M 268 1518 L 520 1518 L 674 348 L 1241 1518 L 1493 1518 L 1225 0 L 1034 0 L 1229 1116 L 686 0 L 535 0 L 381 1124 L 186 0 L 0 0 L 268 1518 Z" unicode="" />
<glyph horiz-adv-x="1260" d="M 268 1518 L 481 1518 L 872 393 L 1071 1518 L 1262 1518 L 993 0 L 809 0 L 395 1174 L 186 0 L 0 0 L 268 1518 Z" unicode="" />
<glyph horiz-adv-x="1104" d="M 244 1518 L 1139 1518 L 1106 1329 L 211 1329 L 244 1518 Z M 233 885 L 926 885 L 893 702 L 203 702 L 233 885 Z M -4 180 L 915 180 L 883 0 L -37 0 L -4 180 Z" unicode="" />
<glyph horiz-adv-x="1262" d="M 537 -16 C 438 -16 356 -3 292 23 C 227 49 175 84 137 129 C 99 174 72 227 56 288 C 40 348 33 413 33 483 C 33 535 36 588 42 641 C 48 694 57 749 68 805 C 80 875 94 941 110 1005 C 126 1068 147 1127 171 1181 C 195 1235 223 1283 256 1327 C 288 1370 327 1407 371 1438 C 415 1468 465 1492 522 1509 C 579 1525 644 1534 717 1534 C 817 1534 900 1520 966 1494 C 1032 1468 1084 1432 1123 1387 C 1162 1341 1189 1288 1205 1226 C 1221 1164 1229 1098 1229 1028 C 1229 976 1225 924 1219 870 C 1213 816 1205 761 1196 705 C 1183 635 1168 569 1152 506 C 1135 443 1115 385 1091 332 C 1067 278 1038 230 1006 187 C 973 144 934 108 890 78 C 845 48 794 24 736 8 C 678 -7 611 -16 537 -16 Z M 547 162 C 623 162 686 175 736 201 C 786 227 828 265 862 314 C 895 362 922 421 942 490 C 962 558 979 635 995 721 C 1004 773 1012 823 1018 872 C 1024 921 1028 968 1028 1012 C 1028 1060 1023 1105 1013 1145 C 1003 1185 986 1220 962 1250 C 938 1279 906 1302 866 1318 C 826 1334 777 1343 717 1343 C 640 1343 576 1329 525 1302 C 474 1275 432 1237 399 1188 C 365 1138 338 1079 318 1009 C 298 939 280 862 266 778 C 256 726 248 675 242 626 C 236 576 233 531 233 489 C 233 440 237 396 247 356 C 257 316 274 281 298 253 C 322 224 354 202 394 186 C 434 170 485 162 547 162 Z" unicode="" />
<glyph horiz-adv-x="1194" d="M 266 1518 L 1196 1518 L 928 0 L 727 0 L 963 1335 L 432 1335 L 197 0 L 0 0 L 266 1518 Z" unicode="" />
<glyph horiz-adv-x="1143" d="M 268 1518 L 672 1518 C 760 1518 835 1509 896 1492 C 956 1475 1005 1451 1043 1420 C 1080 1389 1107 1352 1123 1308 C 1139 1264 1147 1216 1147 1163 C 1147 1119 1141 1070 1130 1018 C 1116 946 1096 882 1072 827 C 1047 772 1015 726 976 689 C 937 651 890 623 836 604 C 782 584 719 575 647 575 L 297 575 L 197 0 L 0 0 L 268 1518 Z M 649 754 C 687 754 722 758 754 768 C 785 778 812 793 836 815 C 859 837 879 865 895 899 C 911 933 923 976 932 1026 C 935 1044 938 1062 940 1080 C 942 1097 944 1114 944 1130 C 944 1162 939 1191 929 1217 C 919 1242 904 1263 882 1281 C 860 1298 831 1311 796 1321 C 760 1330 717 1335 666 1335 L 432 1335 L 330 754 L 649 754 Z" unicode="" />
<glyph horiz-adv-x="1042" d="M -35 156 L 477 780 L 188 1346 L 219 1518 L 1102 1518 L 1071 1329 L 420 1329 L 709 760 L 233 180 L 895 180 L 862 0 L -66 0 L -35 156 Z" unicode="" />
<glyph horiz-adv-x="1098" d="M 551 1335 L 137 1335 L 168 1518 L 1196 1518 L 1165 1335 L 752 1335 L 514 0 L 315 0 L 551 1335 Z" unicode="" />
<glyph horiz-adv-x="1143" d="M 436 555 L 152 1518 L 360 1518 L 571 772 L 1049 1518 L 1260 1518 L 633 553 L 537 0 L 338 0 L 436 555 Z" unicode="" />
<glyph horiz-adv-x="1462" d="M 516 117 C 435 125 363 145 299 176 C 235 206 183 249 143 303 C 103 357 76 423 62 502 C 48 580 50 672 68 778 C 84 874 111 959 149 1033 C 187 1107 234 1171 292 1223 C 350 1275 416 1315 492 1345 C 568 1375 651 1393 743 1399 L 764 1518 L 963 1518 L 940 1395 C 1020 1385 1092 1364 1156 1334 C 1220 1303 1272 1261 1313 1207 C 1354 1153 1382 1086 1398 1008 C 1413 929 1412 837 1395 731 C 1378 635 1351 551 1313 477 C 1275 403 1227 341 1169 290 C 1111 238 1044 198 968 169 C 892 139 807 121 715 115 L 694 0 L 496 0 L 516 117 Z M 1212 752 C 1237 890 1224 998 1174 1077 C 1123 1156 1035 1204 909 1221 L 745 287 C 813 295 873 311 926 337 C 979 362 1025 395 1064 435 C 1102 475 1134 521 1158 575 C 1182 628 1200 687 1212 752 Z M 248 760 C 236 692 232 630 238 576 C 243 522 258 475 282 435 C 306 395 339 362 383 338 C 427 313 481 297 547 289 L 711 1223 C 643 1215 582 1198 529 1173 C 476 1148 431 1116 393 1076 C 355 1036 324 990 300 937 C 276 883 258 824 248 760 Z" unicode="" />
<glyph horiz-adv-x="1171" d="M 553 616 L 131 0 L -84 0 L 483 809 L 227 1518 L 434 1518 L 629 977 L 997 1518 L 1214 1518 L 698 782 L 983 0 L 778 0 L 553 616 Z" unicode="" />
<glyph horiz-adv-x="1208" d="M 473 553 C 389 559 322 574 272 596 C 222 618 186 647 163 685 C 139 722 127 767 126 819 C 124 871 130 931 143 999 L 233 1518 L 426 1518 L 338 1012 C 330 974 325 939 322 907 C 318 875 321 846 331 822 C 340 797 358 776 385 760 C 411 743 451 731 504 725 L 643 1518 L 842 1518 L 700 723 C 748 727 788 736 819 748 C 849 760 874 777 893 799 C 912 820 927 846 937 876 C 947 906 957 942 965 983 L 1059 1518 L 1247 1518 L 1153 973 C 1139 904 1122 844 1102 793 C 1081 742 1053 699 1017 665 C 981 631 935 604 879 586 C 823 568 753 557 670 553 L 573 0 L 375 0 L 473 553 Z" unicode="" />
<glyph horiz-adv-x="1282" d="M -31 174 L 301 174 L 315 272 C 269 288 228 312 194 345 C 160 378 133 420 113 472 C 93 523 81 583 77 653 C 73 722 80 801 96 891 C 114 997 139 1090 172 1170 C 205 1250 247 1317 299 1371 C 351 1425 413 1465 485 1493 C 557 1520 641 1534 737 1534 C 829 1534 910 1520 979 1493 C 1048 1466 1104 1425 1146 1369 C 1188 1313 1216 1242 1230 1157 C 1243 1071 1241 970 1223 854 C 1197 684 1147 551 1074 455 C 1001 359 909 296 799 266 L 782 174 L 1116 174 L 1083 0 L 623 0 L 684 352 C 734 361 778 381 816 412 C 854 442 887 480 915 525 C 942 570 964 621 982 677 C 1000 733 1013 791 1022 852 C 1034 930 1038 999 1035 1060 C 1031 1121 1018 1173 996 1215 C 973 1257 940 1288 896 1310 C 852 1332 797 1343 729 1343 C 658 1343 598 1332 548 1310 C 498 1288 457 1257 423 1215 C 389 1173 362 1123 342 1063 C 321 1003 304 934 291 858 C 279 796 272 737 271 682 C 270 626 276 577 289 533 C 301 489 322 451 350 420 C 378 389 416 367 463 354 L 401 0 L -61 0 L -31 174 Z" unicode="" />
<glyph horiz-adv-x="492" d="M 281 1518 L 479 1518 L 211 0 L 12 0 L 281 1518 Z M 166 1819 L 338 1819 L 299 1604 L 127 1604 L 166 1819 Z M 530 1819 L 702 1819 L 664 1604 L 489 1604 L 530 1819 Z" unicode="" />
<glyph horiz-adv-x="1143" d="M 436 555 L 152 1518 L 360 1518 L 571 772 L 1049 1518 L 1260 1518 L 633 553 L 537 0 L 338 0 L 436 555 Z M 489 1819 L 662 1819 L 623 1604 L 451 1604 L 489 1819 Z M 854 1819 L 1026 1819 L 987 1604 L 813 1604 L 854 1819 Z" unicode="" />
<glyph horiz-adv-x="1073" d="M 715 1587 L 897 1587 L 678 1255 L 524 1255 L 715 1587 Z M 401 154 C 456 154 501 163 536 181 C 571 199 600 225 622 259 C 644 293 661 334 674 382 C 686 430 698 485 709 545 C 715 581 720 617 724 651 C 728 685 731 718 731 750 C 731 784 727 815 721 843 C 714 871 702 895 686 915 C 669 935 646 950 617 962 C 587 973 550 979 506 979 C 460 979 422 970 392 952 C 362 934 337 909 317 876 C 297 842 280 802 267 754 C 254 706 242 652 231 592 C 225 560 219 526 215 492 C 210 458 207 424 207 392 C 206 360 208 329 214 300 C 219 271 229 246 244 224 C 258 202 278 185 304 173 C 329 160 361 154 401 154 Z M 332 -16 C 274 -16 225 -7 185 8 C 145 24 112 47 88 76 C 63 104 45 138 33 178 C 21 218 13 261 11 307 C 9 353 10 402 16 454 C 22 506 29 558 39 612 C 52 688 68 760 88 826 C 107 892 133 950 165 999 C 197 1048 238 1087 288 1115 C 337 1143 398 1157 471 1157 C 521 1157 564 1154 601 1148 C 637 1142 669 1133 696 1122 C 722 1111 744 1098 762 1082 C 780 1066 795 1048 807 1028 L 860 1151 L 1001 1139 L 852 279 C 848 257 845 238 844 224 C 843 210 845 198 849 190 C 853 182 861 176 873 173 C 884 169 900 168 922 168 L 891 0 C 880 -1 870 -2 860 -2 C 850 -2 842 -2 834 -2 C 802 -2 775 0 754 5 C 733 10 716 18 703 29 C 690 39 681 52 676 68 C 670 83 668 101 668 123 C 634 75 588 40 532 18 C 475 -4 408 -16 332 -16 Z" unicode="" />
</font>
</defs>
</svg>
